<?xml version="1.0" encoding="UTF-8"?>
<svg width="44px" height="40px" viewBox="0 0 44 40" version="1.1" xmlns="http://www.w3.org/2000/svg" xmlns:xlink="http://www.w3.org/1999/xlink">
    <!-- Generator: Sketch 49 (51002) - http://www.bohemiancoding.com/sketch -->
    <title>cart</title>
    <desc>Created with Sketch.</desc>
    <defs></defs>
    <g id="Page-1" stroke="none" stroke-width="1" fill="none" fill-rule="evenodd">
        <g id="Artboard" transform="translate(-1355.000000, -80.000000)" fill="#FF5536" fill-rule="nonzero">
            <g id="header" transform="translate(240.000000, 8.000000)">
                <g id="nav" transform="translate(0.000000, 57.000000)">
                    <g id="cart" transform="translate(1115.000000, 7.000000)">
                        <g id="shopping-cart" transform="translate(0.000000, 8.000000)">
                            <path d="M43.4422169,5.1925 C43.0056462,4.70757143 42.3770757,4.42857143 41.7142196,4.42857143 L10.127984,4.42857143 L9.68227038,1.85114286 C9.49941353,0.783857143 8.54627218,0 7.42855966,0 L2.28571067,0 C1.02171267,0 0,0.989785714 0,2.21428571 C0,3.43878571 1.02171267,4.42857143 2.28571067,4.42857143 L5.49256273,4.42857143 L9.74398457,29.1488571 C9.76227025,29.2485 9.8148416,29.3304286 9.84684155,29.4234286 C9.88341292,29.5407857 9.91312716,29.6515 9.97026992,29.7577857 C10.0434127,29.9039286 10.1416982,30.0279286 10.2445552,30.1541429 C10.3154122,30.2405 10.3794121,30.3268571 10.4616977,30.4021429 C10.5942689,30.5217143 10.7474116,30.6058571 10.9028399,30.69 C10.9896969,30.7365 11.0651253,30.7985 11.1588395,30.8339286 C11.4239819,30.938 11.7028386,31 11.9976953,31 C11.999981,31 37.1427983,31 37.1427983,31 C38.4067963,31 39.428509,30.0102143 39.428509,28.7857143 C39.428509,27.5612143 38.4067963,26.5714286 37.1427983,26.5714286 L13.9359779,26.5714286 L13.55655,24.3571429 L39.428509,24.3571429 C40.5667929,24.3571429 41.5313628,23.5467143 41.6913625,22.4572857 L43.9770732,6.95728571 C44.0707873,6.31957143 43.8742162,5.67521429 43.4422169,5.1925 Z M39.0787953,8.85714286 L38.4273677,13.2857143 L30.2856663,13.2857143 L30.2856663,8.85714286 L39.0787953,8.85714286 Z M27.9999557,8.85714286 L27.9999557,13.2857143 L21.1428237,13.2857143 L21.1428237,8.85714286 L27.9999557,8.85714286 Z M27.9999557,15.5 L27.9999557,19.9285714 L21.1428237,19.9285714 L21.1428237,15.5 L27.9999557,15.5 Z M18.857113,8.85714286 L18.857113,13.2857143 L11.999981,13.2857143 C11.8788383,13.2857143 11.7691242,13.3189286 11.6616958,13.3521429 L10.8891256,8.85714286 L18.857113,8.85714286 Z M12.0319809,15.5 L18.857113,15.5 L18.857113,19.9285714 L12.7931226,19.9285714 L12.0319809,15.5 Z M30.2856663,19.9285714 L30.2856663,15.5 L38.0982254,15.5 L37.4467978,19.9285714 L30.2856663,19.9285714 Z" id="Shape"></path>
                            <circle id="Oval" cx="15.5" cy="36.5" r="3.5"></circle>
                            <circle id="Oval" cx="36.5" cy="36.5" r="3.5"></circle>
                        </g>
                    </g>
                </g>
            </g>
        </g>
    </g>
</svg>