<?xml version="1.0" encoding="UTF-8"?>
<svg width="50px" height="60px" viewBox="0 0 50 60" version="1.1" xmlns="http://www.w3.org/2000/svg" xmlns:xlink="http://www.w3.org/1999/xlink">
    <!-- Generator: Sketch 49 (51002) - http://www.bohemiancoding.com/sketch -->
    <title>call-center</title>
    <desc>Created with Sketch.</desc>
    <defs></defs>
    <g id="Page-1" stroke="none" stroke-width="1" fill="none" fill-rule="evenodd">
        <g id="Artboard" transform="translate(-711.000000, -3383.000000)" fill="#FF5536" fill-rule="nonzero">
            <g id="steps" transform="translate(240.000000, 3383.000000)">
                <g id="s1-copy" transform="translate(418.000000, 0.000000)">
                    <g id="call-center" transform="translate(53.000000, 0.000000)">
                        <path d="M48.2038136,22.9927656 L48.2038136,20.5472891 C48.2038136,9.21732031 38.4012712,0 26.3524011,0 C14.4892655,0 4.80367232,8.93549219 4.50805085,20.0249375 C1.9990113,20.4462187 0.0879943503,22.5113203 0.0879943503,24.9897344 L0.0879943503,28.1518672 C0.0879943503,30.8332187 2.32457627,33.0319297 5.13545198,33.1871875 L5.13545198,36.1085312 C5.13545198,39.9650078 8.4720339,43.1023047 12.5733051,43.1023047 L17.1425141,43.1023047 C18.2639831,43.7392734 19.4658192,44.2633516 20.7295198,44.6583359 L20.7295198,48.7242578 L16.7686441,48.7242578 C12.2019774,48.7242578 8.48686441,52.217625 8.48686441,56.5115859 L8.48686441,57.2911953 C8.48686441,57.8458203 8.96483051,58.295125 9.55451977,58.295125 C10.144209,58.295125 10.6221751,57.8458203 10.6221751,57.2911953 L10.6221751,56.5115859 C10.6221751,53.32475 13.3795198,50.7321172 16.7685028,50.7321172 L18.1669492,50.7321172 L18.1669492,53.3875703 C18.1669492,56.4995 20.8594633,59.0313047 24.1689266,59.0313047 C25.0084746,59.0313047 25.7748588,58.7303516 26.3524011,58.2372187 C26.9299435,58.7303516 27.6961864,59.0313047 28.5358757,59.0313047 C31.845339,59.0313047 34.5378531,56.4995 34.5378531,53.3875703 L34.5378531,50.7321172 L35.3919492,50.7321172 L35.3919492,52.72975 C35.3919492,54.2855156 36.7379944,55.5510859 38.3925141,55.5510859 L41.9925141,55.5510859 C42.0532486,55.8671797 42.0827684,56.1880547 42.0827684,56.5117187 L42.1080713,57.4675487 C42.1140975,57.6951907 42.2731817,57.8900044 42.4950252,57.9414108 L43.0342101,58.0663525 C43.6238994,58.0663525 44.1549435,57.9694562 44.1549435,57.4148312 L44.2177966,56.5117187 C44.2177966,56.0717109 44.1774011,55.6347578 44.0997175,55.2044453 C46.4903955,54.3911016 48.2036723,52.2355547 48.2036723,49.7105234 L48.2036723,29.3458516 C49.2389831,28.6260078 49.9118644,27.4702734 49.9118644,26.1692422 C49.9118644,24.8682109 49.2392655,23.7126094 48.2038136,22.9927656 Z M2.22316384,28.152 L2.22316384,24.9898672 C2.22316384,23.3152344 3.6720339,21.9527109 5.4529661,21.9527109 L8.48686441,21.9527109 L8.48686441,28.7126016 L8.48686441,31.1890234 L5.4529661,31.1890234 C3.6720339,31.1890234 2.22316384,29.8266328 2.22316384,28.152 Z M7.27062147,36.1085312 L7.27062147,33.1968828 L9.13418079,33.1968828 C10.0411017,36.2722891 11.8567797,38.9957422 14.2913842,41.0945781 L12.5731638,41.0945781 C9.64929379,41.0944453 7.27062147,38.85775 7.27062147,36.1085312 Z M24.1689266,57.0237109 C22.0368644,57.0237109 20.3022599,55.3926406 20.3022599,53.3878359 L20.3022599,50.7323828 L20.9730226,50.7323828 C21.5742938,52.5867109 23.2324859,54.011125 25.2846045,54.3836641 L25.2846045,55.9744922 C25.2847458,56.5530234 24.7841808,57.0237109 24.1689266,57.0237109 Z M22.8646893,49.1929531 L22.8646893,45.1894531 C23.9930791,45.4002266 25.1590395,45.5117891 26.3524011,45.5117891 C27.5457627,45.5117891 28.7115819,45.4002266 29.840113,45.1894531 L29.840113,49.1928203 C29.840113,51.0011953 28.2754237,52.4723594 26.3524011,52.4723594 C24.4292373,52.4724922 22.8646893,51.0013281 22.8646893,49.1929531 Z M28.5357345,57.0235781 C27.9204802,57.0235781 27.4199153,56.5528906 27.4199153,55.9743594 L27.4199153,54.3833984 C29.4721751,54.0108594 31.1300847,52.5864453 31.7314972,50.7321172 L32.4022599,50.7321172 L32.4022599,53.3877031 C32.4024011,55.3925078 30.6677966,57.0235781 28.5357345,57.0235781 Z M35.3919492,48.7243906 L31.9754237,48.7243906 L31.9754237,44.6584688 C33.175565,44.2834063 34.3193503,43.7913359 35.3919492,43.1971328 L35.3919492,48.7243906 Z M26.3524011,43.5039297 C25.0983051,43.5039297 23.8781073,43.3644766 22.7079096,43.1023047 L24.0009887,43.1023047 C25.8285311,43.1023047 27.6,42.4881797 28.9922316,41.3972578 C29.3618644,41.5466719 29.7687853,41.6299453 30.1960452,41.6299453 C31.8836158,41.6299453 33.2566384,40.338875 33.2566384,38.7520313 C33.2566384,37.1651875 31.8836158,35.8741172 30.1960452,35.8741172 C28.5084746,35.8741172 27.135452,37.1651875 27.135452,38.7520313 C27.135452,39.19775 27.2468927,39.6186328 27.4402542,39.9955547 C26.459887,40.7006563 25.2484463,41.0945781 24.0011299,41.0945781 L17.7577684,41.0945781 C13.464548,38.4505469 10.6223164,33.8881719 10.6223164,28.7127344 L10.6223164,21.6634453 C11.7016949,21.3092344 12.7385593,20.9571484 13.7394068,20.6065234 C13.6579096,20.7481016 13.6117232,20.9103984 13.6117232,21.0827891 C13.6117232,21.6374141 14.0896893,22.0867188 14.6793785,22.0867188 L20.9429379,22.0867188 C21.5326271,22.0867188 22.0105932,21.6374141 22.0105932,21.0827891 C22.0105932,20.5281641 21.5326271,20.0788594 20.9429379,20.0788594 L15.2186441,20.0788594 C18.0288136,19.0585938 20.5276836,18.0452344 22.7704802,17.0163359 C23.3004237,16.7734219 23.5204802,16.1721797 23.2618644,15.674 C23.0033898,15.1755547 22.3639831,14.9687656 21.8341808,15.2119453 C18.3850282,16.7941406 14.3069209,18.3432656 9.37429379,19.9449844 L6.64774011,19.9449844 C6.98714689,10.0001172 15.6951977,2.00799219 26.3524011,2.00799219 C37.2238701,2.00799219 46.0686441,10.3247109 46.0686441,20.5474219 L46.0686441,22.2357344 C45.9512712,22.2264375 45.8327684,22.2205938 45.7127119,22.2205938 L44.2179379,22.2205938 L44.2179379,17.4686953 C44.2179379,17.0144766 43.8937853,16.6171016 43.4274011,16.4991641 C38.555226,15.2679922 34.9262712,13.0606484 32.6412429,9.93889063 C32.4690678,9.70354688 32.1985876,9.54842188 31.8971751,9.51216406 C31.5957627,9.47590625 31.2926554,9.56196875 31.0628531,9.74910156 C29.559887,10.9727031 27.705226,12.1875391 25.5504237,13.3600078 C25.040113,13.6375859 24.865678,14.2517109 25.1610169,14.7318281 C25.4564972,15.2116797 26.1096045,15.3757031 26.6199153,15.0978594 C28.4891243,14.0806484 30.1512712,13.0274453 31.5757062,11.9583047 C34.0218927,14.8522891 37.5480226,16.9568359 42.0824859,18.2277188 L42.0824859,28.7128672 C42.0826271,36.8686172 35.0261299,43.5039297 26.3524011,43.5039297 Z M29.2706215,38.7520313 C29.2706215,38.2723125 29.6857345,37.8819766 30.195904,37.8819766 C30.7060734,37.8819766 31.1211864,38.2723125 31.1211864,38.7520313 C31.1211864,39.23175 30.7060734,39.6220859 30.195904,39.6220859 C30.0566384,39.6220859 29.925,39.5920703 29.8063559,39.5401406 C29.760452,39.4745313 29.7069209,39.4125078 29.6432203,39.3567266 C29.5696328,39.2921797 29.4885593,39.2401172 29.4033898,39.1988125 C29.319774,39.0678594 29.2706215,38.9153906 29.2706215,38.7520313 Z M41.9925141,53.5432266 L38.3925141,53.5432266 C37.9155367,53.5432266 37.5272599,53.1782578 37.5272599,52.72975 L37.5272599,41.809375 C41.2388418,39.0035781 43.7372881,34.8347266 44.1549435,30.1180234 L45.7127119,30.1180234 C45.8327684,30.1180234 45.9511299,30.1121797 46.0686441,30.1028828 L46.0686441,49.7105234 C46.0685028,51.8238359 44.2399718,53.5432266 41.9925141,53.5432266 Z M45.7127119,28.1102969 L44.2179379,28.1102969 L44.2179379,24.2284531 L45.7127119,24.2284531 C46.8508475,24.2284531 47.7768362,25.0991719 47.7768362,26.169375 C47.7768362,27.2395781 46.8508475,28.1102969 45.7127119,28.1102969 Z" id="Shape"></path>
                        <path d="M6.56497175,23.6929531 C5.97528249,23.6929531 5.49731638,24.1422578 5.49731638,24.6968828 L5.49731638,28.4448516 C5.49731638,28.9994766 5.97528249,29.4487813 6.56497175,29.4487813 C7.15466102,29.4487813 7.63262712,28.9994766 7.63262712,28.4448516 L7.63262712,24.6968828 C7.63262712,24.1422578 7.15466102,23.6929531 6.56497175,23.6929531 Z" id="Shape"></path>
                        <path d="M18.0957627,23.1574531 C16.4865819,23.1574531 15.1775424,24.3883594 15.1775424,25.9014922 C15.1775424,27.414625 16.4865819,28.6455312 18.0957627,28.6455312 C19.7049435,28.6455312 21.0139831,27.414625 21.0139831,25.9014922 C21.0139831,24.3883594 19.7049435,23.1574531 18.0957627,23.1574531 Z M18.0957627,26.6378047 C17.6639831,26.6378047 17.3128531,26.3076328 17.3128531,25.901625 C17.3128531,25.4956172 17.6639831,25.1654453 18.0957627,25.1654453 C18.5275424,25.1654453 18.8786723,25.4956172 18.8786723,25.901625 C18.8786723,26.3076328 18.5275424,26.6378047 18.0957627,26.6378047 Z" id="Shape"></path>
                        <path d="M34.6090395,23.1574531 C32.9998588,23.1574531 31.6908192,24.3883594 31.6908192,25.9014922 C31.6908192,27.414625 32.9998588,28.6455312 34.6090395,28.6455312 C36.2182203,28.6455312 37.5272599,27.414625 37.5272599,25.9014922 C37.5272599,24.3883594 36.2182203,23.1574531 34.6090395,23.1574531 Z M34.6090395,26.6378047 C34.1772599,26.6378047 33.8261299,26.3076328 33.8261299,25.901625 C33.8261299,25.4956172 34.1772599,25.1654453 34.6090395,25.1654453 C35.0408192,25.1654453 35.3919492,25.4956172 35.3919492,25.901625 C35.3919492,26.3076328 35.040678,26.6378047 34.6090395,26.6378047 Z" id="Shape"></path>
                        <path d="M38.0254237,20.0787266 L31.7618644,20.0787266 C31.1721751,20.0787266 30.694209,20.5280312 30.694209,21.0826562 C30.694209,21.6372812 31.1721751,22.0865859 31.7618644,22.0865859 L38.0254237,22.0865859 C38.615113,22.0865859 39.0930791,21.6372812 39.0930791,21.0826562 C39.0932203,20.5281641 38.615113,20.0787266 38.0254237,20.0787266 Z" id="Shape"></path>
                        <path d="M25.959322,36.5438906 C24.5247175,36.5008594 24.0905367,35.9971016 23.8885593,35.6217734 C23.6224576,35.1270469 22.980226,34.9287578 22.4539548,35.1791094 C21.9278249,35.4293281 21.7169492,36.0332266 21.9830508,36.5279531 C22.4581921,37.4116875 23.5221751,38.4798984 25.8912429,38.5506875 C25.9029661,38.5510859 25.9142655,38.5512188 25.9258475,38.5512188 C26.4998588,38.5512188 26.9740113,38.1225 26.9923729,37.5791641 C27.0111582,37.0249375 26.5487288,36.5614219 25.959322,36.5438906 Z" id="Shape"></path>
                    </g>
                </g>
            </g>
        </g>
    </g>
</svg>