<?xml version="1.0" encoding="UTF-8"?>
<svg width="41px" height="50px" viewBox="0 0 41 50" version="1.1" xmlns="http://www.w3.org/2000/svg" xmlns:xlink="http://www.w3.org/1999/xlink">
    <!-- Generator: Sketch 49 (51002) - http://www.bohemiancoding.com/sketch -->
    <title>medal</title>
    <desc>Created with Sketch.</desc>
    <defs></defs>
    <g id="Page-1" stroke="none" stroke-width="1" fill="none" fill-rule="evenodd">
        <g id="Artboard" transform="translate(-1010.000000, -894.000000)" fill="#FF5536" fill-rule="nonzero">
            <g id="cart" transform="translate(222.000000, 422.000000)">
                <g id="right" transform="translate(783.000000, 60.000000)">
                    <g id="guranty" transform="translate(5.000000, 412.000000)">
                        <g id="medal">
                            <path d="M20.5,6.58928571 C12.8296321,6.58928571 6.58928571,12.8296321 6.58928571,20.5 C6.58928571,28.1703679 12.8296321,34.4107143 20.5,34.4107143 C28.1703679,34.4107143 34.4107143,28.1703679 34.4107143,20.5 C34.4107143,12.8296321 28.1703679,6.58928571 20.5,6.58928571 Z M20.5,31.5326355 C14.4166048,31.5326355 9.46736453,26.5833952 9.46736453,20.5 C9.46736453,14.4166048 14.4166048,9.46736453 20.5,9.46736453 C26.5833952,9.46736453 31.5326355,14.4166048 31.5326355,20.5 C31.5326355,26.5833952 26.5833952,31.5326355 20.5,31.5326355 Z" id="Shape"></path>
                            <path d="M41,20.5986677 C41,18.6843329 40.1420512,16.9042248 38.6452651,15.711514 C39.3489395,13.929873 39.2062023,11.9571913 38.2535721,10.299238 C37.3009419,8.64128481 35.6720977,7.5307771 33.7823791,7.24996456 C33.5052,5.35354583 32.4000116,3.71686192 30.75,2.75964662 C29.0999884,1.80252713 27.1366605,1.65900711 25.3605023,2.3653019 C24.1768419,0.862078195 22.4051651,0 20.5,0 C18.5948349,0 16.8231581,0.862078195 15.6362558,2.36616417 C13.8630535,1.65900711 11.8997256,1.80262294 10.25,2.75974243 C8.59998837,3.71695773 7.4948,5.35354583 7.21533256,7.25245557 C5.32799767,7.53087291 3.69915349,8.64138062 2.74652326,10.2993338 C1.79389302,11.9572871 1.65115581,13.9299688 2.35397209,15.7147715 C0.857948837,16.9042248 0,18.6843329 0,20.5986677 C0,22.5130025 0.857948837,24.2931106 2.35473488,25.4858214 C1.65106047,27.2674624 1.79379767,29.2401441 2.74642791,30.8980973 C3.69905814,32.5559548 5.32780698,33.6665583 7.21762093,33.9473708 C7.4948,35.8438854 8.60008372,37.4804735 10.25,38.4376888 C10.6323488,38.6594837 11.0320512,38.8356742 11.4418605,38.9696134 L11.4418605,49.0535714 L14.073393,49.0535714 L20.5,46.7472871 L26.926607,49.0535714 L29.5581395,49.0535714 L29.5581395,38.9696134 C29.9679488,38.8356742 30.3676512,38.6594837 30.75,38.4376888 C32.3999163,37.4805693 33.5052,35.8438854 33.7847628,33.9449756 C35.6720977,33.6664625 37.3008465,32.555859 38.2534767,30.8980973 C39.206107,29.2401441 39.3488442,27.2674624 38.6460279,25.4825639 C40.1420512,24.2931106 41,22.5130025 41,20.5986677 Z M26.6976744,45.9193165 L20.5,43.6952352 L14.3023256,45.9193165 L14.3023256,39.1988814 C14.7543744,39.1275046 15.2026093,39.0057329 15.6394977,38.8320335 C16.8231581,40.3352572 18.5948349,41.1973354 20.5,41.1973354 C22.4051651,41.1973354 24.1768419,40.3352572 25.3637442,38.831267 C25.799393,39.0049665 26.2465791,39.1267381 26.6976744,39.1983065 L26.6976744,45.9193165 Z M36.8711093,23.2285906 C35.8719488,24.0230285 35.516393,25.3561935 35.9864628,26.5461258 C36.3657605,27.5061195 36.2891,28.5685317 35.776314,29.4608852 C35.2635279,30.3532386 34.3861279,30.9511748 33.3692326,31.1012098 C32.1086256,31.2871726 31.1374023,32.2630705 30.9522349,33.5297448 C30.8029186,34.5516303 30.2078465,35.4332533 29.3197674,35.9485074 C28.4317837,36.4636657 27.3741744,36.5406952 26.4189698,36.1597635 C25.2346419,35.6874313 23.9079581,36.0446984 23.1173256,37.0486679 C22.4795372,37.8585309 21.5255721,38.3231027 20.5,38.3231027 C19.4744279,38.3231027 18.5204628,37.8585309 17.8826744,37.0485721 C17.324693,36.3399779 16.4996395,35.9535852 15.6460767,35.9535852 C15.2903302,35.9535852 14.9294349,36.0207465 14.5811256,36.1596677 C13.6257302,36.5406952 12.568407,36.4635699 11.6802326,35.9485074 C10.7921535,35.4333491 10.1970814,34.5516303 10.0477651,33.5298406 C9.86269302,32.2631663 8.89137442,31.2871726 7.63086279,31.1012098 C6.61387209,30.9511748 5.73647209,30.3532386 5.22368605,29.4608852 C4.7109,28.5685317 4.63423953,27.5061195 5.01353721,26.5461258 C5.48360698,25.3561935 5.12795581,24.0230285 4.1288907,23.2285906 C3.32281163,22.5876367 2.86046512,21.6290801 2.86046512,20.5986677 C2.86046512,19.5682553 3.32281163,18.6096987 4.1288907,17.9687448 C5.12805116,17.1743068 5.48360698,15.8411419 5.01353721,14.6512096 C4.63423953,13.6912159 4.7109,12.6288036 5.22368605,11.7364502 C5.73647209,10.8440009 6.61387209,10.2461605 7.63076744,10.0961256 C8.89137442,9.91016274 9.86269302,8.93426493 10.0477651,7.66759058 C10.1970814,6.64560924 10.7921535,5.76408207 11.6802326,5.24882795 C12.568407,4.73357384 13.6257302,4.65673601 14.5811256,5.03766765 C15.7656442,5.50990409 17.0922326,5.15254116 17.8826744,4.14866748 C18.5204628,3.33880451 19.4744279,2.8742327 20.5,2.8742327 C21.5255721,2.8742327 22.4795372,3.33880451 23.1173256,4.14876329 C23.9077674,5.15254116 25.2345465,5.50990409 26.4188744,5.03766765 C27.3743651,4.65673601 28.4314977,4.73357384 29.3197674,5.24882795 C30.2078465,5.76408207 30.8029186,6.64570504 30.9522349,7.66759058 C31.1372116,8.93426493 32.1086256,9.91016274 33.3692326,10.0961256 C34.3861279,10.2461605 35.2635279,10.8440967 35.776314,11.7364502 C36.2891,12.6288036 36.3657605,13.6912159 35.9864628,14.6512096 C35.516393,15.8411419 35.8720442,17.1743068 36.8711093,17.9687448 C37.6771884,18.6096987 38.1395349,19.5682553 38.1395349,20.5986677 C38.1395349,21.6290801 37.6771884,22.5876367 36.8711093,23.2285906 Z" id="Shape"></path>
                            <polygon id="Shape" points="23.5667856 16.1071429 18.8139562 20.8357174 16.6850091 18.7504686 14.6428571 20.7917721 18.8300186 24.8928571 25.625 18.1324575"></polygon>
                        </g>
                    </g>
                </g>
            </g>
        </g>
    </g>
</svg>