<?xml version="1.0" encoding="UTF-8"?>
<svg width="36px" height="32px" viewBox="0 0 36 32" version="1.1" xmlns="http://www.w3.org/2000/svg" xmlns:xlink="http://www.w3.org/1999/xlink">
    <!-- Generator: Sketch 49 (51002) - http://www.bohemiancoding.com/sketch -->
    <title>media</title>
    <desc>Created with Sketch.</desc>
    <defs></defs>
    <g id="Page-1" stroke="none" stroke-width="1" fill="none" fill-rule="evenodd">
        <g id="Artboard" transform="translate(-240.000000, -2266.000000)" fill="#FF5536" fill-rule="nonzero">
            <g id="news" transform="translate(240.000000, 2245.000000)">
                <g id="media" transform="translate(0.000000, 21.000000)">
                    <path d="M1.7069,17.293 C1.521,17.107 1.263,17 1,17 C0.737,17 0.479,17.107 0.293,17.293 C0.107,17.48 0,17.737 0,18 C0,18.263 0.1069,18.521 0.293,18.708 C0.479,18.894 0.737,19 1,19 C1.263,19 1.521,18.894 1.7069,18.708 C1.8929,18.521 2,18.263 2,18 C2,17.738 1.893,17.48 1.7069,17.293 Z" id="Shape"></path>
                    <path d="M28.1785714,0 L7.82142857,0 C3.50871429,0 0,3.48151495 0,7.76079734 L0,15.3621262 C0,15.949289 0.479785714,16.4252492 1.07142857,16.4252492 C1.66307143,16.4252492 2.14285714,15.949289 2.14285714,15.3621262 L2.14285714,7.76079734 C2.14285714,4.65392691 4.69017857,2.12624585 7.82142857,2.12624585 L28.1785714,2.12624585 C31.3098214,2.12624585 33.8571429,4.65392691 33.8571429,7.76079734 L33.8571429,20.5182724 C33.8571429,23.6251429 31.3098214,26.1528239 28.1785714,26.1528239 L22.1015357,26.1528239 C21.8693571,26.1528239 21.6433929,26.2276678 21.4577143,26.3660864 L18.1840714,28.8077608 L18.1840714,27.2159468 C18.1840714,26.6287841 17.7042857,26.1528239 17.1126429,26.1528239 L2.97738061,26.1528239 C2.38573776,26.1528239 1.98690326,26.6287841 1.98690326,27.2159468 C1.98690326,27.8031096 2.38573776,28.2790698 2.97738061,28.2790698 L16.0412143,28.2790698 L16.0412143,30.9368771 C16.0412143,31.3398007 16.2708214,31.7080664 16.6339286,31.8880532 C16.7854286,31.9631096 16.94925,32 17.1125357,32 C17.3405357,32 17.5671429,31.927814 17.7564643,31.7867375 L22.4592857,28.2790698 L28.1785714,28.2790698 C32.4912857,28.2790698 36,24.7975548 36,20.5182724 L36,7.76079734 C35.9998929,3.48151495 32.4912857,0 28.1785714,0 Z" id="Shape"></path>
                    <path d="M24.530423,5.17705533 C24.2368174,4.98495607 23.8638647,4.94649486 23.5351714,5.07480228 L11.5529057,9.75300862 L8.38328754,9.75300862 C5.96640038,9.75300862 4,11.6592164 4,14.0022484 C4,15.7876963 5.14232099,17.318287 6.75517884,17.9462799 L6.75517884,21.7760651 C6.75528549,22.34709 7.23275455,22.8099685 7.82177881,22.8099685 L11.7592721,22.8099685 C12.3481898,22.8099685 12.8257655,22.34709 12.8257655,21.7760651 L12.8257655,18.7495195 L23.535598,22.9253522 C23.6638972,22.9753931 23.7990219,23 23.9334,23 C24.1432859,23 24.3516787,22.9399302 24.5306363,22.8227889 C24.8241353,22.6304829 25,22.3095593 25,21.9660965 L25,6.03385113 C25,5.6903884 24.8240286,5.36925799 24.530423,5.17705533 Z M11,20 L9,20 L9,18 L11,18 L11,20 Z M10.9997661,16 L8.46743223,16 C7.10683631,16 6,15.1028011 6,14 C6.00011694,12.8971989 7.10683631,12 8.46743223,12 L11,12 L10.9997661,16 Z M13,11.9595547 L23,8 L23,21 L13,17.0456667 L13,11.9595547 Z" id="Shape"></path>
                    <path d="M30.0149239,13 L27.9850761,13 C27.4411171,13 27,13.4477 27,14 C27,14.5523 27.4411171,15 27.9850761,15 L30.0149239,15 C30.5588829,15 31,14.5522 31,14 C31,13.4477 30.5588829,13 30.0149239,13 Z" id="Shape"></path>
                    <path d="M29.6809076,6.23931118 C29.255451,5.92022961 28.5657864,5.92022961 28.1401119,6.23931118 L26.3190924,7.60502931 C25.8936359,7.92411088 25.8936359,8.44150512 26.3190924,8.7606684 C26.5318752,8.92025004 26.8106827,9 27.0894902,9 C27.3682978,9 27.6471053,8.92025004 27.8598881,8.7606684 L29.6809076,7.39495026 C30.1063641,7.07586869 30.1063641,6.55847446 29.6809076,6.23931118 Z" id="Shape"></path>
                    <path d="M29.6856848,18.6259797 L27.8320433,17.2357007 C27.4129563,16.9213929 26.7336168,16.9214733 26.3143152,17.2357007 C25.8952283,17.5500086 25.8952283,18.0596621 26.3143152,18.37397 L28.1679567,19.764249 C28.3775539,19.9214432 28.6521873,20 28.9268208,20 C29.2014542,20 29.4760876,19.9213627 29.6856848,19.764249 C30.1047717,19.4499411 30.1047717,18.9402875 29.6856848,18.6259797 Z" id="Shape"></path>
                </g>
            </g>
        </g>
    </g>
</svg>