<?xml version="1.0" encoding="UTF-8"?>
<svg width="60px" height="60px" viewBox="0 0 60 60" version="1.1" xmlns="http://www.w3.org/2000/svg" xmlns:xlink="http://www.w3.org/1999/xlink">
    <!-- Generator: Sketch 49 (51002) - http://www.bohemiancoding.com/sketch -->
    <title>place</title>
    <desc>Created with Sketch.</desc>
    <defs></defs>
    <g id="Page-1" stroke="none" stroke-width="1" fill="none" fill-rule="evenodd">
        <g id="Artboard" transform="translate(-1114.000000, -3404.000000)" fill="#FF5536" fill-rule="nonzero">
            <g id="steps" transform="translate(240.000000, 3383.000000)">
                <g id="s1-copy-2" transform="translate(821.000000, 7.000000)">
                    <g id="place" transform="translate(53.000000, 14.053287)">
                        <path d="M58.9129825,12.7470175 L51.5474854,2.26701754 C50.5498246,0.84748538 48.9181287,0 47.1831579,0 L19.0159064,0 C17.2807018,0 15.6491228,0.84748538 14.651345,2.2671345 L7.28584795,12.7471345 C6.65122807,13.6499415 6.31578947,14.7106433 6.31578947,15.814386 L6.31578947,22.748538 C6.31578947,23.394386 6.8394152,23.9181287 7.48538012,23.9181287 C8.13134503,23.9181287 8.65497076,23.394386 8.65497076,22.748538 L8.65497076,15.814386 C8.65497076,15.7649123 8.65824561,15.7159064 8.6605848,15.6667836 L24.2247953,15.6667836 L24.2247953,26.7836257 C24.2247953,27.2014035 24.4477193,27.5876023 24.8095906,27.7964912 C25.1715789,28.005614 25.6173099,28.0054971 25.9791813,27.7966082 L33.1476023,23.6590643 L40.2139181,27.7932164 C40.3963743,27.899883 40.6003509,27.9532164 40.8045614,27.9532164 C41.0053801,27.9532164 41.2061988,27.9016374 41.3864327,27.7982456 C41.7499415,27.5897076 41.974152,27.2026901 41.974152,26.7836257 L41.974152,15.6667836 L57.5383626,15.6667836 C57.5407018,15.7159064 57.5439766,15.7649123 57.5439766,15.814386 L57.5439766,48.2328655 C57.5438596,49.8844444 56.200117,51.2280702 54.548655,51.2280702 L24.6003509,51.2280702 C23.954386,51.2280702 23.4307602,51.7518129 23.4307602,52.3976608 C23.4307602,53.0435088 23.954386,53.5672515 24.6003509,53.5672515 L54.548538,53.5672515 C57.4899415,53.5672515 59.8830409,51.174269 59.8830409,48.2328655 L59.8830409,15.814386 C59.8830409,14.7106433 59.5477193,13.6499415 58.9129825,12.7470175 Z M36.3974269,2.33918129 L39.2876023,13.3276023 L26.911345,13.3276023 L29.8015205,2.33918129 L36.3974269,2.33918129 Z M24.4927485,13.3276023 L9.73695906,13.3276023 L16.5651462,3.61216374 C17.1253801,2.81497076 18.0415205,2.33918129 19.0159064,2.33918129 L27.382924,2.33918129 L24.4927485,13.3276023 Z M39.6348538,24.7443275 L33.7421053,21.2967251 C33.3792982,21.0845614 32.9306433,21.0833918 32.5667836,21.2933333 L26.5639766,24.7580117 L26.5639766,15.6667836 L39.6348538,15.6667836 L39.6348538,24.7443275 Z M41.7063158,13.3276023 L38.8161404,2.33918129 L47.1831579,2.33918129 C48.1574269,2.33918129 49.0735673,2.81497076 49.6338012,3.61216374 L56.4621053,13.3276023 L41.7063158,13.3276023 Z" id="Shape"></path>
                        <path d="M13.2822222,25.7439766 C5.95847953,25.7439766 0,31.7023392 0,39.0260819 C0,42.0604678 1.0497076,45.025614 2.95649123,47.38 C2.95953216,47.3839766 2.9625731,47.3879532 2.96573099,47.3920468 L12.359883,59.4329825 C12.5815205,59.717076 12.9216374,59.8831579 13.2818713,59.8831579 C13.6421053,59.8831579 13.9822222,59.717193 14.2038596,59.4332164 L23.5532164,47.4554386 C23.5711111,47.4325146 23.5879532,47.4092398 23.6038596,47.3854971 C25.5138012,45.0292398 26.5640936,42.065848 26.5640936,39.0260819 C26.5640936,31.7023392 20.605848,25.7439766 13.2822222,25.7439766 Z M21.7226901,45.9906433 C21.691462,46.028538 21.662807,46.0680702 21.637076,46.1087719 L13.2823392,56.8122807 L4.83415205,45.9837427 C4.82175439,45.9666667 4.80888889,45.9500585 4.7954386,45.9335673 C3.21157895,43.9902924 2.33929825,41.537076 2.33929825,39.0259649 C2.33929825,32.9920468 7.24818713,28.0830409 13.2821053,28.0830409 C19.3160234,28.0830409 24.2249123,32.9920468 24.2249123,39.0259649 C24.2247953,41.5640936 23.3361404,44.0375439 21.7226901,45.9906433 Z" id="Shape"></path>
                        <path d="M13.2819883,32.7102924 C9.7994152,32.7102924 6.96619883,35.5436257 6.96619883,39.0260819 C6.96619883,42.508538 9.7994152,45.3418713 13.2819883,45.3418713 C16.7645614,45.3418713 19.5977778,42.508538 19.5977778,39.0260819 C19.5978947,35.5436257 16.7646784,32.7102924 13.2819883,32.7102924 Z M13.2819883,43.0026901 C11.0892398,43.0026901 9.30538012,41.2188304 9.30538012,39.0260819 C9.30538012,36.8333333 11.0892398,35.0494737 13.2819883,35.0494737 C15.4747368,35.0494737 17.2585965,36.8333333 17.2585965,39.0260819 C17.2585965,41.2188304 15.4748538,43.0026901 13.2819883,43.0026901 Z" id="Shape"></path>
                        <path d="M49.8912281,45.0210526 C49.6736842,44.8035088 49.3719298,44.6783626 49.0643275,44.6783626 C48.7567251,44.6783626 48.4549708,44.8033918 48.2374269,45.0210526 C48.019883,45.2385965 47.8947368,45.5403509 47.8947368,45.8479532 C47.8947368,46.1555556 48.019883,46.4573099 48.2374269,46.6747368 C48.4549708,46.8922807 48.7567251,47.0175439 49.0643275,47.0175439 C49.3719298,47.0175439 49.6736842,46.8923977 49.8912281,46.6747368 C50.1087719,46.4573099 50.2339181,46.1555556 50.2339181,45.8479532 C50.2339181,45.5403509 50.1087719,45.2385965 49.8912281,45.0210526 Z" id="Shape"></path>
                        <path d="M44.6348538,44.6783626 L35.1461988,44.6783626 C34.5002339,44.6783626 33.9766082,45.2021053 33.9766082,45.8479532 C33.9766082,46.4938012 34.5002339,47.0175439 35.1461988,47.0175439 L44.6347368,47.0175439 C45.2807018,47.0175439 45.8043275,46.4938012 45.8043275,45.8479532 C45.8044444,45.2021053 45.2808187,44.6783626 44.6348538,44.6783626 Z" id="Shape"></path>
                        <path d="M52.3878363,39.0643275 L35.1519298,39.0643275 C34.5059649,39.0643275 33.9823392,39.5880702 33.9823392,40.2339181 C33.9823392,40.8797661 34.5059649,41.4035088 35.1519298,41.4035088 L52.3877193,41.4035088 C53.0338012,41.4035088 53.5574269,40.8797661 53.5574269,40.2339181 C53.5574269,39.5880702 53.0338012,39.0643275 52.3878363,39.0643275 Z" id="Shape"></path>
                    </g>
                </g>
            </g>
        </g>
    </g>
</svg>