<?xml version="1.0" encoding="UTF-8"?>
<svg width="35px" height="31px" viewBox="0 0 35 31" version="1.1" xmlns="http://www.w3.org/2000/svg" xmlns:xlink="http://www.w3.org/1999/xlink">
    <!-- Generator: Sketch 49 (51002) - http://www.bohemiancoding.com/sketch -->
    <title>media</title>
    <desc>Created with Sketch.</desc>
    <defs></defs>
    <g id="Page-1" stroke="none" stroke-width="1" fill="none" fill-rule="evenodd">
        <g id="Artboard" transform="translate(-240.000000, -2063.000000)" fill="#FF5536" fill-rule="nonzero">
            <g id="popular" transform="translate(240.000000, 2041.000000)">
                <g id="media" transform="translate(0.000000, 22.000000)">
                    <path d="M34.9931454,17.8152077 C34.9931454,16.3571513 34.0634125,15.1123145 32.765816,14.6417359 C32.9908754,14.1898516 33.1181009,13.6810534 33.1181009,13.1428635 C33.1181009,11.2820475 31.604273,9.76821958 29.743457,9.76821958 L22.96,9.76821958 L23.8676113,7.0734273 C24.3186647,5.73439169 24.2108605,4.30520772 23.5641395,3.04894659 C22.9174184,1.79268546 21.8169436,0.87458457 20.4652374,0.463620178 L19.2008754,0.0792433234 C18.6722404,-0.0814243323 18.1101632,0.199925816 17.9220772,0.719525223 L15.9354896,6.21005935 C15.3982344,7.69511869 14.3384718,8.92894659 12.951454,9.68419881 L11.6721365,10.3808754 C11.5094955,10.0198665 11.1472404,9.76811573 10.7255786,9.76811573 L1.03857567,9.76811573 C0.465074184,9.76811573 0,10.2330861 0,10.8066914 L0,29.495549 C0,30.0691543 0.465074184,30.5341246 1.03857567,30.5341246 L10.7254748,30.5341246 C11.266365,30.5341246 11.7102522,30.1205638 11.7591691,29.5923442 L12.1546588,29.7474036 C13.4858012,30.2694955 14.8856973,30.5342285 16.3155045,30.5342285 L26.3749407,30.5342285 L28.1142433,30.5342285 C29.9750593,30.5342285 31.4888872,29.0204006 31.4888872,27.1595846 C31.4888872,26.6139169 31.3579228,26.0986795 31.1270475,25.6421217 C32.3986795,25.1580415 33.3049407,23.9268101 33.3049407,22.4874481 C33.3049407,21.9250593 33.1658754,21.3947626 32.9216024,20.9279228 C34.1372552,20.4171513 34.9931454,19.2143769 34.9931454,17.8152077 Z M9.68700297,28.4569733 L9.68689911,28.4569733 L2.07715134,28.4569733 L2.07715134,11.8453709 L5.27077151,11.8453709 L5.27077151,22.4474629 C5.27077151,23.0210682 5.7358457,23.4860386 6.30934718,23.4860386 C6.88284866,23.4860386 7.34792285,23.0210682 7.34792285,22.4474629 L7.34792285,11.8453709 L9.68689911,11.8453709 L9.68689911,28.4569733 L9.68700297,28.4569733 Z M31.6181899,19.1128042 L24.9992433,19.1128042 C24.4257418,19.1128042 23.9606677,19.5777745 23.9606677,20.1513798 C23.9606677,20.7249852 24.4257418,21.1899555 24.9992433,21.1899555 L29.930089,21.1899555 C30.6455638,21.1899555 31.2275816,21.7719733 31.2275816,22.4875519 C31.2276855,23.2029228 30.6455638,23.7850445 29.9301929,23.7850445 L24.9993472,23.7850445 C24.4258457,23.7850445 23.9607715,24.2500148 23.9607715,24.8236202 C23.9607715,25.3972255 24.4258457,25.8621958 24.9993472,25.8621958 L28.1142433,25.8621958 C28.8297181,25.8621958 29.4117359,26.4442136 29.4117359,27.1596884 C29.4117359,27.8751632 28.8297181,28.457181 28.1142433,28.457181 L16.3156083,28.457181 C15.1463798,28.457181 14.0016617,28.2407418 12.9131306,27.8137834 L11.7641543,27.3631454 L11.7641543,12.6960682 L13.9448516,11.5085608 C15.7780415,10.5102819 17.1787685,8.87961424 17.8888427,6.91691395 L19.5399703,2.35351632 L19.8609941,2.45103858 C20.6707715,2.69728487 21.3300593,3.24721068 21.7173442,3.99976261 C22.1046291,4.75231454 22.1693323,5.60841246 21.8991988,6.41050445 L20.5300445,10.4753858 C20.4232789,10.7922552 20.475727,11.1412166 20.6707715,11.4128042 C20.865816,11.6843917 21.1797774,11.8454748 21.5141988,11.8454748 L29.7433531,11.8454748 C30.4588279,11.8454748 31.0408457,12.4274926 31.0408457,13.1429674 C31.0408457,13.8584421 30.4588279,14.4404599 29.7433531,14.4404599 L24.9993472,14.4404599 C24.4258457,14.4404599 23.9607715,14.9054303 23.9607715,15.4790356 C23.9607715,16.0526409 24.4258457,16.5176113 24.9993472,16.5176113 L31.6182938,16.517819 C32.3337685,16.517819 32.9157864,17.0998368 32.9157864,17.8153116 C32.9157864,18.5307864 32.3337685,19.1128042 31.6181899,19.1128042 Z" id="Shape"></path>
                    <path d="M6.30934718,24.5534866 C5.7358457,24.5534866 5.27077151,25.018457 5.27077151,25.5920623 L5.27077151,25.6056677 C5.27077151,26.179273 5.7358457,26.6442433 6.30934718,26.6442433 C6.88284866,26.6442433 7.34792285,26.179273 7.34792285,25.6056677 L7.34792285,25.5920623 C7.34792285,25.018457 6.88295252,24.5534866 6.30934718,24.5534866 Z" id="Shape"></path>
                </g>
            </g>
        </g>
    </g>
</svg>