<?xml version="1.0" encoding="UTF-8"?>
<svg width="56px" height="60px" viewBox="0 0 56 60" version="1.1" xmlns="http://www.w3.org/2000/svg" xmlns:xlink="http://www.w3.org/1999/xlink">
    <!-- Generator: Sketch 49 (51002) - http://www.bohemiancoding.com/sketch -->
    <title>shopping-cart</title>
    <desc>Created with Sketch.</desc>
    <defs></defs>
    <g id="Page-1" stroke="none" stroke-width="1" fill="none" fill-rule="evenodd">
        <g id="shopping-cart" fill="#000000" fill-rule="nonzero">
            <path d="M29.8130137,27.0111433 C30.0975303,27.29566 30.4810093,27.4441034 30.8644882,27.4441034 C31.2479671,27.4441034 31.6190758,27.29566 31.9159627,27.0111433 L41.0576059,17.8695002 C41.6390094,17.2880966 41.6390094,16.3479547 41.0576059,15.7665511 C40.4762023,15.1851476 39.5360604,15.1851476 38.9546568,15.7665511 L30.8644882,23.8690901 L27.598732,20.6033339 C27.0173285,20.0219304 26.0771866,20.0219304 25.495783,20.6033339 C24.9143795,21.1847375 24.9143795,22.1248794 25.495783,22.706283 L29.8130137,27.0111433 Z" id="Shape"></path>
            <path d="M15.8345877,39.3814318 L49.0982934,39.3814318 C52.772269,39.3814318 55.7535086,36.387822 55.7535086,32.7262166 L55.7535086,18.7106798 C55.7535086,17.8942408 55.085513,17.2262452 54.269074,17.2262452 C53.4526349,17.2262452 52.7846393,17.8942408 52.7846393,18.7106798 L52.7846393,32.7138463 C52.7846393,34.7549439 51.1270207,36.4001923 49.0982934,36.4001923 L15.8345877,36.4001923 C13.7934901,36.4001923 12.1482418,34.7425736 12.1482418,32.7138463 L12.1482418,24.4628639 L12.1482418,15.2346287 L12.1482418,14.0347108 L12.1482418,5.35076827 C12.1482418,5.30128712 12.1482418,5.23943567 12.1358715,5.18995452 C12.1358715,5.17758423 12.1358715,5.16521394 12.1358715,5.15284365 C12.1358715,5.11573279 12.1235012,5.07862192 12.1235012,5.05388135 C12.1235012,5.02914077 12.1111309,4.9920299 12.0987606,4.96728933 C12.0987606,4.95491904 12.0863903,4.93017846 12.0863903,4.91780817 C12.07402,4.88069731 12.0616498,4.85595673 12.0492795,4.81884587 C12.0492795,4.80647558 12.0369092,4.79410529 12.0369092,4.781735 C12.0245389,4.75699442 12.0121686,4.71988356 11.9997983,4.69514298 C11.987428,4.68277269 11.987428,4.65803212 11.9750577,4.64566183 C11.9626874,4.62092125 11.9503172,4.59618067 11.9379469,4.5714401 C11.9255766,4.54669952 11.9132063,4.53432923 11.900836,4.50958865 C11.8884657,4.49721837 11.8760954,4.47247779 11.8637251,4.4601075 C11.8513549,4.43536692 11.8266143,4.41062635 11.814244,4.39825606 C11.8018737,4.38588577 11.7895034,4.37351548 11.7771331,4.36114519 C11.7523925,4.33640462 11.7400223,4.31166404 11.7152817,4.28692346 C11.7029114,4.27455317 11.6905411,4.26218289 11.6781708,4.26218289 C11.6534302,4.23744231 11.6286897,4.21270173 11.6039491,4.20033144 C11.5915788,4.18796116 11.5792085,4.17559087 11.5668382,4.16322058 C11.5420976,4.15085029 11.5173571,4.12610971 11.4926165,4.11373942 C11.4678759,4.08899885 11.430765,4.07662856 11.4060245,4.05188798 C11.3936542,4.05188798 11.3812839,4.03951769 11.3812839,4.02714741 C11.3318027,4.00240683 11.2823216,3.97766625 11.2328404,3.95292567 L2.09119726,0.118136255 C1.33660967,-0.203491245 0.470689476,0.15524712 0.149061976,0.909834716 C-0.172565524,1.65205202 0.186172841,2.5303425 0.940760437,2.85197 L9.16700226,6.32802106 L9.16700226,14.0347108 L9.16700226,15.2346287 L9.16700226,24.4628639 L9.16700226,32.7138463 L9.16700226,43.1419995 C9.16700226,46.6304208 11.8513549,49.4879575 15.2655545,49.7724741 C14.5728183,50.8115783 14.1645988,52.0609775 14.1645988,53.4093389 C14.1645988,57.0338334 17.1210977,59.9903324 20.7455922,59.9903324 C24.3700868,59.9903324 27.3265857,57.0338334 27.3265857,53.4093389 C27.3265857,52.0733478 26.9307365,50.8363189 26.2503706,49.7972147 L41.9977478,49.7972147 C41.3173819,50.8363189 40.9215327,52.0733478 40.9215327,53.4093389 C40.9215327,57.0338334 43.8780317,59.9903324 47.5025262,59.9903324 C51.1270207,59.9903324 54.0835196,57.0338334 54.0835196,53.4093389 C54.0835196,49.7848444 51.1270207,46.8283454 47.5025262,46.8283454 L15.8345877,46.8283454 C13.7934901,46.8283454 12.1482418,45.1707268 12.1482418,43.1419995 L12.1482418,38.2557356 C13.1997163,38.960842 14.473856,39.3814318 15.8345877,39.3814318 Z M24.3577165,53.4093389 C24.3577165,55.4009553 22.7372087,57.0214631 20.7455922,57.0214631 C18.7539758,57.0214631 17.133468,55.4009553 17.133468,53.4093389 C17.133468,51.4177225 18.7539758,49.7972147 20.7455922,49.7972147 C22.7372087,49.7972147 24.3577165,51.4177225 24.3577165,53.4093389 Z M51.1022801,53.4093389 C51.1022801,55.4009553 49.4817723,57.0214631 47.4901559,57.0214631 C45.4985394,57.0214631 43.8780317,55.4009553 43.8780317,53.4093389 C43.8780317,51.4177225 45.4985394,49.7972147 47.4901559,49.7972147 C49.4817723,49.7972147 51.1022801,51.4177225 51.1022801,53.4093389 Z" id="Shape"></path>
        </g>
    </g>
</svg>