<?xml version="1.0" encoding="UTF-8"?>
<svg width="50px" height="48px" viewBox="0 0 50 48" version="1.1" xmlns="http://www.w3.org/2000/svg" xmlns:xlink="http://www.w3.org/1999/xlink">
    <!-- Generator: Sketch 49 (51002) - http://www.bohemiancoding.com/sketch -->
    <title>Shape</title>
    <desc>Created with Sketch.</desc>
    <defs></defs>
    <g id="Page-1" stroke="none" stroke-width="1" fill="none" fill-rule="evenodd">
        <g id="Artboard" transform="translate(-170.000000, -867.000000)" fill="#FF5536" fill-rule="nonzero">
            <g id="support" transform="translate(170.000000, 867.000000)">
                <path d="M32.1494066,33.2767134 L32.1494066,32.4045033 C32.3954484,32.2054118 32.632027,31.9873593 32.8591425,31.7598262 C34.6776043,29.7538613 35.8226449,27.2274146 36.133391,24.5356508 C37.7676762,24.286194 39.2407332,23.4087695 40.2403962,22.0896702 C41.6125524,20.1461584 41.7355733,17.3493976 40.5905326,13.8415959 C40.523226,13.6393048 40.3899139,13.4655738 40.2120068,13.3486075 L39.6915338,12.9978274 C39.7683035,9.83274738 38.6764931,6.75062216 36.6254745,4.34208967 C34.0798883,1.4694845 30.1716092,0.0189610903 24.9952684,0 C19.8283908,0 15.9106485,1.4694845 13.3650623,4.30416749 C11.3140438,6.71269998 10.2222333,9.7948252 10.2990031,12.9599052 L9.77853007,13.3106854 C9.60062293,13.4276516 9.46731086,13.6013826 9.40000424,13.8036737 C8.2549636,17.3304365 8.3779845,20.1082362 9.75014063,22.051748 C10.7460184,23.3800909 12.2190754,24.2675884 13.8571459,24.5261703 C14.1691931,27.2222003 15.3177824,29.7522023 17.1408575,31.7598262 C17.3661986,31.9868852 17.6030138,32.2020936 17.8505934,32.4045033 L17.8505934,33.2767134 C14.2262086,33.9782738 -0.242941278,37.3817895 0.00310051135,47.0519455 C0.00310051135,47.5755086 0.426812862,48 0.949415086,48 L49.0505849,48 C49.5731871,48 49.9968995,47.5755086 49.9968995,47.0519455 C50.2429413,37.3817895 35.7737914,33.9782738 32.1494066,33.2767134 Z M13.2893571,22.4120087 C12.4852263,22.1414576 11.7843621,21.6282046 11.2831702,20.9425242 L11.330486,20.9520047 C10.3841714,19.5678452 10.2990031,17.4726447 11.1412231,14.7043255 L11.8320327,14.2397788 C12.1226696,14.0454276 12.282715,13.7064981 12.2484111,13.3580881 C12.0891937,10.5245902 13.0091297,7.73600632 14.8223867,5.55559945 C16.9610577,3.12857989 20.3961796,1.91507012 24.9952684,1.89610903 C29.5943573,1.87714794 33.0294792,3.12857989 35.2060027,5.55559945 C37.0192597,7.73600632 37.9391958,10.5245902 37.7799783,13.3580881 C37.7456744,13.7064981 37.9057199,14.0454276 38.1963567,14.2397788 L38.8871664,14.7043255 C39.7293864,17.4631641 39.6726075,19.5678452 38.6979035,20.9520047 C38.1932812,21.6382777 37.4893415,22.1515307 36.6822534,22.4214892 C37.8237454,21.1202844 38.3814795,19.4064389 38.2247462,17.6812167 C38.0474305,16.6432155 37.5073214,15.7023899 36.7011797,15.026664 C36.2942644,5.5461189 29.6605993,4.48429785 26.8027293,4.48429785 C26.1977977,4.48252024 25.5935758,4.5269603 24.9952684,4.61702548 C24.3970793,4.52684179 23.7927392,4.48252024 23.1878076,4.48429785 C20.3488639,4.48429785 13.7246618,5.52715781 13.2893571,15.026664 C12.4780107,15.6969386 11.9312774,16.6345645 11.7468644,17.6717361 C11.5890664,19.3970768 12.1469189,21.1113964 13.2893571,22.4120087 Z M34.8180137,14.6379617 C30.8471595,14.8678649 26.901146,13.8753703 23.5095545,11.7937981 C23.1257057,11.5237211 22.6022754,11.5762196 22.2793456,11.9170452 C20.3867164,13.9553624 16.9326683,14.4293897 15.2671546,14.5336757 C15.7781645,7.83093028 19.8283908,6.37092633 23.2351233,6.37092633 C23.7773616,6.3670156 24.3188901,6.41145566 24.8533212,6.50365396 C24.9782348,6.52925143 25.1069335,6.52925143 25.2318471,6.50365396 C25.7662782,6.41169267 26.3078067,6.36725262 26.850045,6.37092633 C30.228388,6.37092633 34.2975407,7.86885246 34.770698,14.6284811 L34.8180137,14.6379617 Z M15.5983647,22.592139 L15.6362173,22.6016196 C15.6382282,22.3679242 15.5540062,22.1416946 15.3996386,21.9664231 C14.1031877,20.4779775 13.5070095,19.1222595 13.667883,18.0035552 C13.7450076,17.3804464 14.052205,16.808888 14.5290292,16.4013431 C15.7781645,16.4013431 20.2069167,16.1643294 23.0458604,13.7088683 C26.2431025,15.5503456 29.862046,16.5302785 33.5499522,16.5530318 C34.1839829,16.5530318 34.8274769,16.5530318 35.4993602,16.4487458 C35.9631726,16.8455066 36.2661116,17.3984594 36.3510433,18.0035552 C36.5119168,19.1032984 35.9157386,20.4779775 34.6192877,21.9664231 C34.4649201,22.1416946 34.3806981,22.3679242 34.382709,22.6016196 C34.382709,22.6016196 34.382709,22.7912305 34.382709,23.0946079 L28.8751582,26.052538 C27.7821648,25.0158404 26.0571517,25.0631246 25.0223567,26.1581276 C23.9875617,27.2531306 24.0347591,28.9813154 25.1277525,30.018013 C26.2207458,31.0547106 27.945759,31.0074264 28.980554,29.9124235 C29.4600989,29.4049773 29.7271962,28.7326881 29.7268413,28.033972 C29.7310997,27.948647 29.7310997,27.8633221 29.7268413,27.7779972 L34.0704252,25.4457831 C33.6975773,27.3152281 32.8204619,29.0464942 31.5343021,30.451511 C29.856723,32.069603 27.5859229,32.9206004 25.2602365,32.8026862 L24.7870792,32.8026862 C22.466361,32.9181118 20.2005291,32.0712621 18.5224767,30.4609915 C15.5321227,27.4746198 15.5983647,22.6395418 15.5983647,22.592139 Z M27.8342122,28.033972 C27.8342122,28.4999407 27.4571058,28.8777405 26.9919922,28.8777405 C26.5268786,28.8777405 26.1497722,28.4999407 26.1497722,28.033972 C26.1497722,27.5680032 26.5268786,27.1902034 26.9919922,27.1902034 C27.4571058,27.1902034 27.8342122,27.5680032 27.8342122,28.033972 Z M24.0489539,46.0470077 L1.9241191,46.0470077 C2.67170761,38.9271183 14.2262086,35.9502271 17.8411302,35.182303 L17.8411302,36.8793206 C17.8411302,39.0314043 20.4529585,40.6715386 24.0489539,40.9464744 L24.0489539,46.0470077 Z M19.7337594,36.8793206 L19.7337594,36.8508789 L19.7337594,33.6085325 C21.3067708,34.339364 23.0250415,34.7024689 24.7586898,34.6703535 L25.2318471,34.6703535 C26.9654954,34.7024689 28.6837661,34.339364 30.2567775,33.6085325 L30.2567775,36.8793206 C30.2567775,37.7799723 28.2032748,39.078807 24.9952684,39.078807 C21.787262,39.078807 19.7337594,37.7799723 19.7337594,36.8793206 Z M25.941583,46.0754493 L25.941583,40.9369939 C29.5375784,40.6904997 32.1494066,39.0408849 32.1494066,36.86984 L32.1494066,35.2107446 C35.7927177,35.9691882 47.2904398,38.9460794 48.0664178,46.0754493 L25.941583,46.0754493 Z" id="Shape"></path>
            </g>
        </g>
    </g>
</svg>