<?xml version="1.0" standalone="no"?>
<!DOCTYPE svg PUBLIC "-//W3C//DTD SVG 20010904//EN"
 "http://www.w3.org/TR/2001/REC-SVG-20010904/DTD/svg10.dtd">
<svg version="1.0" xmlns="http://www.w3.org/2000/svg"
 width="700.000000pt" height="700.000000pt" viewBox="0 0 700.000000 700.000000"
 preserveAspectRatio="xMidYMid meet">
<metadata>
Created by potrace 1.11, written by Peter Selinger 2001-2013
</metadata>
<g transform="translate(0.000000,700.000000) scale(0.100000,-0.100000)"
fill="#000000" stroke="none">
<path d="M456 6984 c-168 -41 -312 -157 -391 -316 -70 -143 -65 101 -64 -3173
1 -2444 3 -2971 14 -3022 38 -177 163 -337 321 -413 133 -64 -103 -60 3164
-60 2578 0 2983 2 3037 15 220 52 385 215 443 439 18 69 19 172 19 3046 0
2872 -1 2977 -19 3046 -59 225 -228 392 -445 439 -93 21 -5994 19 -6079 -1z
m1378 -558 c104 -9 257 -25 276 -31 8 -2 33 -6 55 -10 37 -5 113 -18 175 -30
180 -34 411 -101 577 -166 121 -48 243 -108 244 -122 0 -6 2 -25 4 -42 27
-273 27 -1096 0 -1310 -2 -16 -7 -75 -10 -130 -4 -55 -8 -116 -10 -135 -2 -19
-6 -73 -10 -120 -3 -47 -8 -105 -10 -130 -5 -55 -15 -186 -31 -380 -4 -52 -7
-100 -7 -107 -1 -29 -293 -126 -447 -148 -24 -4 -47 -8 -50 -10 -3 -2 -34 -6
-70 -10 -36 -4 -73 -9 -82 -10 -123 -24 -765 -24 -1153 0 -22 1 -150 6 -285
10 -135 4 -246 8 -247 9 -1 0 -4 21 -8 46 -4 24 -8 47 -10 50 -2 3 -6 29 -10
59 -4 30 -9 63 -11 75 -4 23 -9 66 -19 166 -3 36 -8 85 -11 110 -21 204 -29
420 -28 795 0 415 12 702 39 915 2 19 7 60 10 90 4 30 8 62 10 70 2 8 7 35 10
60 25 192 70 263 210 334 59 29 199 71 270 81 28 4 61 9 75 11 14 3 63 8 110
11 47 3 86 6 87 7 5 4 280 -2 357 -8z m3761 -31 c297 -50 443 -149 472 -320 2
-11 12 -65 23 -120 10 -55 22 -120 25 -145 4 -25 8 -56 10 -70 13 -89 26 -195
30 -255 3 -38 8 -86 10 -105 4 -34 12 -135 20 -250 24 -360 24 -905 0 -1180
-2 -25 -6 -83 -10 -129 -4 -47 -8 -93 -10 -102 -2 -9 -7 -39 -11 -66 -9 -65
-13 -85 -16 -88 -3 -3 -54 -7 -283 -21 -49 -3 -101 -7 -115 -9 -14 -2 -65 -6
-115 -10 -49 -4 -106 -8 -125 -10 -35 -3 -157 -13 -240 -20 -321 -26 -796 -26
-970 0 -235 35 -485 108 -486 143 -2 25 -14 143 -19 172 -2 14 -7 53 -10 88
-4 35 -8 71 -10 81 -2 9 -6 50 -10 90 -3 40 -8 81 -10 91 -2 11 -6 50 -10 87
-3 37 -8 79 -10 93 -3 14 -7 52 -10 85 -3 33 -8 78 -11 100 -13 108 -15 124
-29 270 -2 17 -6 75 -10 130 -4 55 -8 107 -10 115 -13 69 -21 671 -12 905 l2
49 120 61 c225 114 521 214 818 275 86 17 129 25 257 45 60 9 99 14 165 20 39
4 72 9 74 11 6 6 474 -4 516 -11z m-2610 -3239 c114 -19 212 -53 216 -74 3
-16 6 -74 13 -247 3 -99 9 -229 11 -290 3 -60 7 -173 10 -250 7 -186 15 -394
20 -535 3 -63 7 -187 11 -275 3 -88 7 -198 9 -245 7 -161 18 -475 19 -539 l1
-65 -50 -13 c-27 -7 -59 -15 -70 -17 -11 -2 -83 -20 -160 -39 -77 -20 -151
-38 -165 -40 -14 -3 -81 -17 -150 -31 -69 -14 -141 -28 -160 -31 -19 -3 -42
-8 -50 -10 -8 -2 -40 -7 -70 -10 -30 -4 -57 -8 -60 -10 -3 -2 -39 -6 -80 -10
-41 -3 -82 -8 -90 -10 -32 -8 -201 -18 -325 -19 -407 -5 -700 88 -895 284
-171 171 -267 401 -315 755 -29 207 -26 635 5 925 5 47 12 119 15 160 4 41 15
138 26 215 10 77 24 178 30 225 7 47 15 92 20 100 4 8 22 15 41 16 37 1 247
14 323 19 28 2 97 6 155 10 58 3 132 8 165 11 33 2 103 7 155 9 52 3 122 7
155 10 81 6 212 13 375 20 74 4 136 8 137 9 6 6 690 -2 728 -8z m3125 9 c0 -1
23 -103 50 -226 28 -123 53 -237 56 -254 14 -85 26 -153 30 -175 3 -14 7 -38
10 -55 3 -16 9 -52 14 -80 6 -27 12 -66 15 -85 2 -19 7 -52 10 -72 2 -21 7
-62 11 -90 3 -29 7 -69 10 -88 29 -239 24 -568 -12 -790 -20 -123 -112 -349
-176 -435 -50 -67 -180 -186 -248 -226 -174 -103 -397 -166 -665 -186 -161
-12 -585 -5 -685 12 -14 2 -54 7 -90 11 -36 3 -78 8 -95 10 -16 2 -52 6 -80 9
-50 6 -389 58 -455 70 -19 3 -37 8 -40 11 -3 3 -6 31 -7 62 -1 31 -4 116 -8
187 -12 267 -14 323 -20 455 -3 74 -8 187 -10 250 -3 63 -7 165 -10 225 -3 61
-7 166 -10 235 -9 225 -16 403 -20 490 -2 47 -7 157 -10 245 -4 88 -8 187 -10
220 -2 33 1 68 7 78 16 31 136 76 245 92 21 4 45 8 53 10 8 2 42 7 75 10 33 4
71 8 85 10 24 4 89 9 260 20 41 3 102 7 135 10 67 5 372 15 595 20 507 11 745
17 746 18 3 2 244 4 244 2z"/>
<path d="M2063 2382 c-162 -243 -195 -554 -88 -837 13 -36 23 -65 21 -65 -2 0
-15 18 -29 39 -103 155 -215 229 -359 235 -74 4 -234 -17 -250 -32 -13 -13 51
-128 98 -176 47 -47 137 -118 184 -145 95 -54 263 -121 343 -135 29 -5 37 -12
38 -29 0 -12 3 -76 5 -142 l3 -120 -19 42 c-64 144 -268 260 -456 261 -75 0
-186 -17 -200 -31 -13 -12 132 -195 230 -290 110 -107 252 -195 341 -213 22
-5 43 -9 48 -10 4 -1 17 -2 30 -3 22 -1 22 -2 20 -156 l-1 -154 56 6 c100 10
94 1 96 154 1 126 2 134 21 137 218 31 379 131 540 337 68 88 115 154 115 164
0 4 -30 6 -67 5 -355 -14 -401 -20 -466 -61 -54 -34 -72 -56 -109 -130 -16
-35 -31 -63 -33 -63 -4 0 5 283 10 296 2 6 29 15 60 19 133 16 322 102 418
189 65 58 123 140 143 198 21 64 15 80 -26 68 -17 -5 -61 -11 -98 -15 -245
-22 -369 -77 -471 -210 -15 -20 -20 -23 -16 -10 11 34 46 208 51 255 12 106 7
270 -12 375 -16 94 -65 209 -112 263 l-27 32 -32 -48z"/>
</g>
</svg>
