<svg xmlns="http://www.w3.org/2000/svg" viewBox="0 0 486 486" width="512" height="512"><g fill="#2060a1"><path d="M398.1 263.738v94.7l-155.5 46.8v-324.2l42.5 12.8c5.9-14.2 14.5-27 25-38l-82.9-24.9-1.2-.3-1.2-.3c-2.6-.5-5.2-.5-7.8 0l-1.2.3c-.4.1-.8.1-1.2.3l-44.6 13.4-44.2 13.3v111.4l-49.2 9.3v-106l-43 12.9-18.1 5.4c-9.2 2.8-15.5 11.2-15.5 20.8v263c0 9.6 6.3 18.1 15.5 20.8l199 59.9c2 .6 4.2.9 6.3.9s4.2-.3 6.3-.9l199-59.9c9.2-2.8 15.5-11.2 15.5-20.8v-118.7c-13.4 5.1-27.9 8-43.1 8h-.4z"/><path d="M398.5 53.338c-48.4 0-87.5 39.2-87.5 87.5 0 48.4 39.2 87.5 87.5 87.5s87.5-39.2 87.5-87.5-39.2-87.5-87.5-87.5zm5.5 106.7l-16.8 16.7-16.7-16.8-16.1-16.2 16.8-16.7 16.1 16.2 38.6-38.4 16.7 16.8-38.6 38.4z"/></g></svg>