<?xml version="1.0" standalone="no"?>
<!DOCTYPE svg PUBLIC "-//W3C//DTD SVG 1.1//EN" "http://www.w3.org/Graphics/SVG/1.1/DTD/svg11.dtd" >
<svg>
<metadata>
Created by FontForge 20090914 at Mon May  4 10:52:11 2015
 By www-data
Copyright (c) 2002, 2005 Parachute&#194;&#168;, www.parachute.gr.  All rights reserved.
</metadata>
<defs>
<font id="PFDinDisplayPro-Black" horiz-adv-x="1818" >
  <font-face 
    font-family="PF DinDisplay Pro Black"
    font-weight="900"
    font-stretch="normal"
    units-per-em="1000"
    panose-1="2 0 5 3 3 0 0 2 0 4"
    ascent="750"
    descent="-250"
    x-height="495"
    cap-height="689"
    bbox="-229 -337.001 1760 953.002"
    underline-thickness="90"
    underline-position="-25"
    unicode-range="U+0020-U+FB05"
  />
<missing-glyph horiz-adv-x="460" 
d="M0 700h460v-700h-460v700zM323 95l-93 167l-92 -167h185zM323 605h-187l94 -165zM95 199l83 152l-83 153v-305zM365 199v304l-83 -154z" />
    <glyph glyph-name="fj" unicode="fj" horiz-adv-x="566" 
d="M508 -52c0 -22 -4.16699 -42.1689 -12.5 -60.502s-19.833 -34 -34.5 -47s-32.167 -23 -52.5 -30s-42.166 -10.5 -65.499 -10.5h-60v124h29c10 0 18.167 1.66699 24.5 5s11.166 7.33301 14.499 12s5.66602 9.83398 6.99902 15.501s2 10.834 2 15.501v407h-142v-379h-142
v379h-56v117h56v67c0 24.667 4 46.167 12 64.5s18.833 33.5 32.5 45.5s29.834 20.833 48.501 26.5s38.667 8.5 60 8.5h82v-120h-54c-26 0 -39 -13.667 -39 -41v-51h290v-548zM353 627.998c0 22.667 7.83301 41.834 23.5 57.501s34.834 23.5 57.501 23.5
s42 -7.83301 58 -23.5s24 -34.834 24 -57.501c0 -23.333 -8 -42.833 -24 -58.5s-35.333 -23.5 -58 -23.5s-41.834 7.83301 -57.501 23.5s-23.5 35.167 -23.5 58.5z" />
    <glyph glyph-name="ffj" unicode="ffj" horiz-adv-x="850" 
d="M792 -52c0 -22 -4.16797 -42.1689 -12.501 -60.502s-19.833 -34 -34.5 -47s-32.167 -23 -52.5 -30s-42.166 -10.5 -65.499 -10.5h-60v124h29c10 0 18.167 1.66699 24.5 5s11.166 7.33301 14.499 12s5.66602 9.83398 6.99902 15.501s2 10.834 2 15.501v407h-142v-379h-142
v379h-142v-379h-142v379h-56v117h56v45c0 24.667 4 46.167 12 64.5s18.833 33.5 32.5 45.5s29.834 20.833 48.501 26.5s38.667 8.5 60 8.5h86v-120h-58c-26 0 -39 -13.667 -39 -41v-29h142v64c0 24.667 4 46.167 12 64.5s18.833 33.5 32.5 45.5s29.834 20.833 48.501 26.5
s38.667 8.5 60 8.5h86v-120h-58c-26 0 -39 -13.667 -39 -41v-48h290v-548zM636.999 623.998c0 22.667 7.83301 41.834 23.5 57.501s34.834 23.5 57.501 23.5s42 -7.83301 58 -23.5s24 -34.834 24 -57.501c0 -23.333 -8 -42.833 -24 -58.5s-35.333 -23.5 -58 -23.5
s-41.834 7.83301 -57.501 23.5s-23.5 35.167 -23.5 58.5z" />
    <glyph glyph-name="ff" unicode="ff" horiz-adv-x="609" 
d="M599 379h-97.002v-379h-142v379h-142v-379h-142v379h-56v117h56v48c0 24.667 4 46.167 12 64.5s18.833 33.5 32.5 45.5s29.834 20.833 48.501 26.5s38.667 8.5 60 8.5h86v-120h-58c-26 0 -39 -13.667 -39 -41v-32h142v67c0 24.667 4 46.167 12 64.5
s18.833 33.5 32.5 45.5s29.834 20.833 48.501 26.5s38.667 8.5 60 8.5h86v-120h-58c-26 0 -39 -13.667 -39 -41v-51h97v-117z" />
    <glyph glyph-name="fi" unicode="fi" horiz-adv-x="566" 
d="M360 0l-0.000976562 379h-142v-379h-142v379h-56v117h56v63c0 24.667 4 46.167 12 64.5s18.833 33.5 32.5 45.5s29.834 20.833 48.501 26.5s38.667 8.5 60 8.5h86v-120h-58c-26 0 -39 -13.667 -39 -41v-47h290v-496h-148zM352.999 623
c0 22.667 7.83301 41.834 23.5 57.501s34.834 23.5 57.501 23.5s42 -7.83301 58 -23.5s24 -34.834 24 -57.501c0 -23.333 -8 -42.833 -24 -58.5s-35.333 -23.5 -58 -23.5s-41.834 7.83301 -57.501 23.5s-23.5 35.167 -23.5 58.5z" />
    <glyph glyph-name="fl" unicode="fl" horiz-adv-x="596" 
d="M327 379l-102.997 0.00292969v-379h-142v379h-52v117h52v71c0 24.667 4.66699 47.167 14 67.5s22.5 37.666 39.5 51.999s37 25.5 60 33.5s48.167 12 75.5 12c24.667 0 56.667 -2 96 -6s88 -13.667 146 -29v-525c0 -10 0.5 -18 1.5 -24s3.66699 -10.833 8 -14.5
s10.666 -6.33398 18.999 -8.00098s19.5 -2.83398 33.5 -3.50098l3 -122c-11.333 -2 -22.833 -3.33301 -34.5 -4s-22.167 -1 -31.5 -1c-33.333 0 -59.666 3.5 -78.999 10.5s-33.833 17 -43.5 30s-15.834 28.5 -18.501 46.5s-4 38 -4 60v454
c-13.333 3.33301 -26.333 5.83301 -39 7.5s-24.334 2.5 -35.001 2.5c-16.667 0 -32.334 -4.33301 -47.001 -13s-22 -24 -22 -46v-51h103v-117z" />
    <glyph glyph-name="ffi" unicode="ffi" horiz-adv-x="850" 
d="M644 0l-0.00195312 379h-142v-379h-142v379h-142v-379h-142v379h-56v117h56v44c0 24.667 4 46.167 12 64.5s18.833 33.5 32.5 45.5s29.834 20.833 48.501 26.5s38.667 8.5 60 8.5h86v-120h-58c-26 0 -39 -13.667 -39 -41v-28h142v63c0 24.667 4 46.167 12 64.5
s18.833 33.5 32.5 45.5s29.834 20.833 48.501 26.5s38.667 8.5 60 8.5h86v-120h-58c-26 0 -39 -13.667 -39 -41v-47h290v-496h-148zM636.998 622c0 22.667 7.83301 41.834 23.5 57.501s34.834 23.5 57.501 23.5s42 -7.83301 58 -23.5s24 -34.834 24 -57.501
c0 -23.333 -8 -42.833 -24 -58.5s-35.333 -23.5 -58 -23.5s-41.834 7.83301 -57.501 23.5s-23.5 35.167 -23.5 58.5z" />
    <glyph glyph-name="ffl" unicode="ffl" horiz-adv-x="874" 
d="M605 379l-103.004 -0.000976562v-379h-142v379h-142v-379h-142v379h-56v117h56v58c0 24.667 4 46.167 12 64.5s18.833 33.5 32.5 45.5s29.834 20.833 48.501 26.5s38.667 8.5 60 8.5h86v-120h-58c-26 0 -39 -13.667 -39 -41v-42h142v69
c0 24.667 4.33301 47.334 13 68.001s21.334 38.334 38.001 53.001s37 26 61 34s51 12 81 12c24.667 0 57.834 -2.33301 99.501 -7s87.834 -14.667 138.501 -30v-523c0 -10 0.5 -18 1.5 -24s3.66699 -10.833 8 -14.5s10.666 -6.33398 18.999 -8.00098
s19.5 -2.83398 33.5 -3.50098l3 -122c-11.333 -2 -22.833 -3.33301 -34.5 -4s-22.167 -1 -31.5 -1c-33.333 0 -59.666 3.5 -78.999 10.5s-33.833 17 -43.5 30s-15.834 28.5 -18.501 46.5s-4 38 -4 60v454c-12.667 2.66699 -25 4.83398 -37 6.50098s-23.333 2.5 -34 2.5
c-21.333 0 -38.666 -4.83301 -51.999 -14.5s-20 -27.167 -20 -52.5v-42h103v-117z" />
    <glyph glyph-name="ft" unicode="ft" horiz-adv-x="650" 
d="M218 380l-0.000976562 -380h-142v380h-56v116h56v75c0 24.667 4 46.167 12 64.5s18.833 33.5 32.5 45.5s29.834 20.833 48.501 26.5s38.667 8.5 60 8.5h86v-120h-58c-26 0 -39 -13.667 -39 -41v-59h145l23 125h120v-125h111v-116h-111v-192
c0 -24 5.33301 -39.833 16 -47.5s28.667 -11.5 54 -11.5c18.667 0 41.667 1 69 3l12 -119c-22 -8 -44.5 -13.167 -67.5 -15.5s-43.833 -3.5 -62.5 -3.5c-35.333 0 -63.833 4.16699 -85.5 12.5s-38.5 19.833 -50.5 34.5s-20.167 32.167 -24.5 52.5s-6.5 42.833 -6.5 67.5v219
h-142z" />
    <glyph glyph-name=".notdef" horiz-adv-x="460" 
d="M0 700h460v-700h-460v700zM323 95l-93 167l-92 -167h185zM323 605h-187l94 -165zM95 199l83 152l-83 153v-305zM365 199v304l-83 -154z" />
    <glyph glyph-name="space" unicode=" " horiz-adv-x="261" 
 />
    <glyph glyph-name="exclam" unicode="!" horiz-adv-x="280" 
d="M76 216l-8 480h143l-7 -480h-128zM141 -7c-25.333 0 -46.666 8.83301 -63.999 26.5s-26 39.167 -26 64.5c0 12.667 2.33301 24.334 7 35.001s11 20 19 28s17.333 14.167 28 18.5s22 6.5 34 6.5s23.333 -2.16699 34 -6.5s20.167 -10.5 28.5 -18.5s14.833 -17.333 19.5 -28
s7 -22.334 7 -35.001c0 -24.667 -7.83301 -46 -23.5 -64s-36.834 -27 -63.501 -27z" />
    <glyph glyph-name="quotedbl" unicode="&#x22;" horiz-adv-x="368" 
d="M203 696h118v-227h-118v227zM51 696h118v-227h-118v227z" />
    <glyph glyph-name="numbersign" unicode="#" horiz-adv-x="564" 
d="M429 307h85v-107h-100l-27 -200h-123l28 200h-68l-28 -200h-123l28 200h-79v107h95l12 83h-81v108h96l28 198h120l-27 -198h70l28 198h120l-27 -198h84v-108h-99zM238 307h70l12 83h-70z" />
    <glyph glyph-name="dollar" unicode="$" horiz-adv-x="550" 
d="M230 9c-38.667 3.33301 -74.833 12.502 -108.5 27.502s-67.834 38.5 -102.501 70.5l84 112c32 -25.333 61.5 -44.333 88.5 -57s55.5 -19 85.5 -19c18 0 33.333 2 46 6s23 9.16699 31 15.5s14 13.5 18 21.5s6 15.667 6 23c0 14 -5.83301 25.5 -17.5 34.5
s-25.667 16.667 -42 23s-33.5 11.333 -51.5 15s-33 6.83398 -45 9.50098c-17.333 4 -35.833 9.66699 -55.5 17s-37.834 18.166 -54.501 32.499s-30.5 32.666 -41.5 54.999s-16.5 50.166 -16.5 83.499c0 52 16 95.667 48 131s74.667 58.333 128 69v94h97v-89
c34 -3.33301 66 -11.333 96 -24s63 -32 99 -58l-82 -119c-28.667 23.333 -55 39.333 -79 48s-48.333 13 -73 13c-23.333 0 -43 -5.5 -59 -16.5s-24 -26.167 -24 -45.5c0 -13.333 6.33301 -24.333 19 -33s27.667 -16 45 -22s34.833 -10.667 52.5 -14s31.167 -6 40.5 -8
c16.667 -4 34.834 -10.333 54.501 -19s37.834 -20.5 54.501 -35.5s30.667 -33.833 42 -56.5s17 -50 17 -82c0 -28 -5.16699 -53.667 -15.5 -77s-24.5 -43.5 -42.5 -60.5s-39.333 -31 -64 -42s-51.667 -18.5 -81 -22.5v-116h-97v115v0z" />
    <glyph glyph-name="percent" unicode="%" horiz-adv-x="880" 
d="M825 111c0 -20 -4.5 -37.167 -13.5 -51.5s-20.667 -26.166 -35 -35.499s-30.166 -16.166 -47.499 -20.499s-34 -6.5 -50 -6.5s-32.667 2.16699 -50 6.5s-33.166 11.166 -47.499 20.499s-26.166 21.166 -35.499 35.499s-14 31.5 -14 51.5v187
c0 19.333 4.66699 36.333 14 51s21.166 26.834 35.499 36.501s30.166 17 47.499 22s34 7.5 50 7.5s32.667 -2.5 50 -7.5s33.166 -12.333 47.499 -22s26 -21.834 35 -36.501s13.5 -31.667 13.5 -51v-187zM720 281c0 13.333 -4.16699 23.333 -12.5 30s-17.833 10 -28.5 10
s-20.167 -3.33301 -28.5 -10s-12.5 -16.667 -12.5 -30v-154c0 -13.333 4.16699 -23 12.5 -29s17.833 -9 28.5 -9s20.167 3 28.5 9s12.5 15.667 12.5 29v154zM347 388c0 -20 -4.5 -37.167 -13.5 -51.5s-20.667 -26.166 -35 -35.499s-30.166 -16.166 -47.499 -20.499
s-34 -6.5 -50 -6.5s-32.667 2.16699 -50 6.5s-33.166 11.166 -47.499 20.499s-26.166 21.166 -35.499 35.499s-14 31.5 -14 51.5v187c0 19.333 4.66699 36.333 14 51s21.166 26.834 35.499 36.501s30.166 17 47.499 22s34 7.5 50 7.5s32.667 -2.5 50 -7.5
s33.166 -12.333 47.499 -22s26 -21.834 35 -36.501s13.5 -31.667 13.5 -51v-187zM242 558c0 13.333 -4.16699 23.333 -12.5 30s-17.833 10 -28.5 10s-20.167 -3.33301 -28.5 -10s-12.5 -16.667 -12.5 -30v-154c0 -13.333 4.16699 -23 12.5 -29s17.833 -9 28.5 -9
s20.167 3 28.5 9s12.5 15.667 12.5 29v154zM282 -17h-102l425 730h103z" />
    <glyph glyph-name="ampersand" unicode="&#x26;" horiz-adv-x="818" 
d="M755 446c0 -57.333 -11 -113.998 -33 -169.998s-54 -106.333 -96 -151c21.333 -19.333 44.333 -36.5 69 -51.5s51 -29.167 79 -42.5l-56 -101c-14.667 4.66699 -30.667 11.5 -48 20.5s-34.5 19 -51.5 30s-33.333 22.667 -49 35s-29.167 24.5 -40.5 36.5
c-8.66699 -8 -19.667 -15.833 -33 -23.5s-27.666 -14.5 -42.999 -20.5s-31.5 -10.667 -48.5 -14s-33.833 -5 -50.5 -5c-30.667 0 -59.5 4.66699 -86.5 14s-50.667 22.666 -71 39.999s-36.333 38.666 -48 63.999s-17.5 53.666 -17.5 84.999
c0 22.667 3.83301 43.834 11.5 63.501s17.834 38 30.501 55s27.334 32.5 44.001 46.5s33.667 26.333 51 37c-9.33301 15.333 -17.166 31.5 -23.499 48.5s-9.5 36.5 -9.5 58.5c0 22.667 3.5 43.667 10.5 63s17.333 36 31 50s30.167 25 49.5 33s41 12 65 12
c22.667 0 43.667 -3.66699 63 -11s36.166 -17.666 50.499 -30.999s25.666 -29 33.999 -47s12.5 -37.333 12.5 -58c0 -19.333 -3.16699 -37.166 -9.5 -53.499s-14.666 -31 -24.999 -44s-22 -24.833 -35 -35.5s-26.167 -20.334 -39.5 -29.001l51 -72
c17.333 -24 35.666 -47.667 54.999 -71c30 34 52.333 72 67 114s22 83.333 22 124c0 34.667 -5.66699 67.667 -17 99s-27.5 58.666 -48.5 81.999s-46.833 42 -77.5 56s-65.334 21 -104.001 21c-35.333 0 -67 -5 -95 -15s-51.833 -23.5 -71.5 -40.5
s-34.834 -36.833 -45.501 -59.5s-16 -46.334 -16 -71.001c0 -18.667 2.16699 -38.167 6.5 -58.5s15.166 -44.166 32.499 -71.499l-100 -63c-23.333 34 -39.166 66.667 -47.499 98s-12.5 61.333 -12.5 90c0 40 8 78.5 24 115.5s39 69.667 69 98s66.333 51 109 68
s90.334 25.5 143.001 25.5c58.667 0 111 -9.83301 157 -29.5s84.667 -46.5 116 -80.5s55.166 -73.667 71.499 -119s24.5 -93.333 24.5 -144zM429 512.002c0 8.66699 -3.50098 16.333 -10.501 23s-16.167 10 -27.5 10c-9.33301 0 -16.666 -3.83301 -21.999 -11.5
s-8 -17.167 -8 -28.5c0 -8 2 -16.5 6 -25.5s9 -18.167 15 -27.5c15.333 8.66699 27 17.667 35 27s12 20.333 12 33zM452.999 135.001c-8.66699 10 -18.333 21.833 -29 35.5l-32 43l-30 44c-9.33301 14.333 -17 26.833 -23 37.5c-23.333 -13.333 -43.666 -28.333 -60.999 -45
s-26 -35.667 -26 -57c0 -30 8.5 -52.667 25.5 -68s39.167 -23 66.5 -23c33.333 0 69.666 11 108.999 33z" />
    <glyph glyph-name="quotesingle" unicode="'" horiz-adv-x="263" 
d="M73 696h118v-227h-118v227z" />
    <glyph glyph-name="parenleft" unicode="(" horiz-adv-x="373" 
d="M269 -142c-28 30.667 -54.5 63.334 -79.5 98.001s-46.833 71 -65.5 109s-33.5 77.167 -44.5 117.5s-16.5 81.166 -16.5 122.499c0 42.667 5.33301 84 16 124s25.167 78.667 43.5 116s39.666 73 63.999 107s50.5 66 78.5 96l86 -55
c-47.333 -62.667 -82 -127.5 -104 -194.5s-33 -129.833 -33 -188.5c0 -64 11.833 -129.833 35.5 -197.5s57.834 -131.5 102.501 -191.5z" />
    <glyph glyph-name="parenright" unicode=")" horiz-adv-x="373" 
d="M341 305c0 -41.333 -5.33105 -82.166 -15.998 -122.499s-25.334 -79.5 -44.001 -117.5s-40.5 -74.333 -65.5 -109s-51.5 -67.334 -79.5 -98.001l-84 63c45.333 60 79.666 123.833 102.999 191.5s35 133.5 35 197.5c0 58.667 -10.833 121.5 -32.5 188.5
s-56.5 131.833 -104.5 194.5l86 55c28 -30 54.333 -62 79 -96s46 -69.667 64 -107s32.333 -76 43 -116s16 -81.333 16 -124z" />
    <glyph glyph-name="asterisk" unicode="*" horiz-adv-x="464" 
d="M386 404l-91 -65l-59 103l-63 -103l-90 65l82 89l-114 26l32 102l111 -46l-13 119h113l-14 -119l110 46l32 -102l-116 -26z" />
    <glyph glyph-name="plus" unicode="+" horiz-adv-x="550" 
d="M337 240v-186h-124v186h-194v116h194v183h124v-183h194v-116h-194z" />
    <glyph glyph-name="comma" unicode="," horiz-adv-x="315" 
d="M70 -98c18 13.333 32.667 28.8311 44 46.498s18.333 33.834 21 48.501c-16 3.33301 -30.167 12 -42.5 26s-18.5 32.333 -18.5 55c0 12.667 2.5 24.334 7.5 35.001s11.667 20 20 28s18 14.167 29 18.5s22.167 6.5 33.5 6.5c30 0 53.833 -10.333 71.5 -31
s26.5 -48 26.5 -82c0 -21.333 -3.16699 -42.5 -9.5 -63.5s-15.5 -41.167 -27.5 -60.5s-26.833 -37.333 -44.5 -54s-37.5 -31 -59.5 -43z" />
    <glyph glyph-name="hyphen" unicode="-" horiz-adv-x="440" 
d="M47 192v131h346v-131h-346z" />
    <glyph glyph-name="period" unicode="." horiz-adv-x="323" 
d="M164 -7c-25.333 0 -46.666 8.83301 -63.999 26.5s-26 39.167 -26 64.5c0 12.667 2.33301 24.334 7 35.001s11 20 19 28s17.333 14.167 28 18.5s22 6.5 34 6.5s23.333 -2.16699 34 -6.5s20.167 -10.5 28.5 -18.5s14.833 -17.333 19.5 -28s7 -22.334 7 -35.001
c0 -24.667 -7.83301 -46 -23.5 -64s-36.834 -27 -63.501 -27z" />
    <glyph glyph-name="slash" unicode="/" horiz-adv-x="368" 
d="M103 -42h-119l253 767h120z" />
    <glyph glyph-name="zero" unicode="0" horiz-adv-x="550" 
d="M497 181c0 -32.667 -6.83301 -60.834 -20.5 -84.501s-31.167 -43 -52.5 -58s-45 -26 -71 -33s-51.333 -10.5 -76 -10.5s-50 3.5 -76 10.5s-49.833 18 -71.5 33s-39.334 34.333 -53.001 58s-20.5 51.834 -20.5 84.501v327c0 32.667 6.83301 60.834 20.5 84.501
s31.334 43.167 53.001 58.5s45.5 26.666 71.5 33.999s51.333 11 76 11s50 -3.66699 76 -11s49.667 -18.666 71 -33.999s38.833 -34.833 52.5 -58.5s20.5 -51.834 20.5 -84.501v-327zM349 480c0 26.667 -7.5 45.334 -22.5 56.001s-31.5 16 -49.5 16s-34.667 -5.33301 -50 -16
s-23 -29.334 -23 -56.001v-271c0 -26.667 7.66699 -45.5 23 -56.5s32 -16.5 50 -16.5s34.5 5.5 49.5 16.5s22.5 29.833 22.5 56.5v271z" />
    <glyph glyph-name="one" unicode="1" horiz-adv-x="550" 
d="M232 0v495l-57 -49l-83 106l154 137h133v-689h-147z" />
    <glyph glyph-name="two" unicode="2" horiz-adv-x="550" 
d="M502 496c0 -23.333 -4.33691 -45.167 -13.0039 -65.5s-19.667 -39 -33 -56s-28 -32.833 -44 -47.5s-31.333 -28 -46 -40c-11.333 -9.33301 -25.166 -19.833 -41.499 -31.5s-32.333 -24 -48 -37s-29.667 -26.833 -42 -41.5s-20.166 -29.667 -23.499 -45h287v-132h-440v96
c0 28.667 4 55.167 12 79.5s18.5 46.833 31.5 67.5s28.167 39.667 45.5 57s35 33 53 47s35.833 27 53.5 39s33.5 24 47.5 36s25.167 24 33.5 36s12.5 24.667 12.5 38c0 16 -6.33301 29.667 -19 41s-33 17 -61 17c-20.667 0 -42.167 -3.66699 -64.5 -11
s-43.166 -19.666 -62.499 -36.999l-77 119c27.333 24 60 41.833 98 53.5s77.333 17.5 118 17.5c26.667 0 53.334 -3.16699 80.001 -9.5s50.5 -17.333 71.5 -33s38.167 -36.334 51.5 -62.001s20 -57.5 20 -95.5z" />
    <glyph glyph-name="three" unicode="3" horiz-adv-x="550" 
d="M282 697c28.667 0 56.0039 -3.83301 82.0039 -11.5s49 -19.5 69 -35.5s35.833 -36.333 47.5 -61s17.5 -54 17.5 -88c0 -33.333 -8 -62.333 -24 -87s-36.333 -44 -61 -58c28 -13.333 49.167 -32.833 63.5 -58.5s21.5 -54.834 21.5 -87.501c0 -38.667 -7 -71.667 -21 -99
s-32.167 -49.833 -54.5 -67.5s-47.833 -30.5 -76.5 -38.5s-57.667 -12 -87 -12c-40 0 -79.333 5.83301 -118 17.5s-71.667 29.5 -99 53.5l77 118c19.333 -16.667 41 -28.834 65 -36.501s46.333 -11.5 67 -11.5c26.667 0 49.5 6.5 68.5 19.5s28.5 31.167 28.5 54.5
c0 21.333 -6.83301 39.5 -20.5 54.5s-32.5 22.5 -56.5 22.5h-85v125h81c21.333 0 39.666 7.16699 54.999 21.5s23 32.166 23 53.499c0 12.667 -2.5 23.334 -7.5 32.001s-11.5 15.834 -19.5 21.501s-16.833 9.66699 -26.5 12s-18.834 3.5 -27.501 3.5
c-20.667 0 -41.834 -3.66699 -63.501 -11s-42.167 -19.666 -61.5 -36.999l-77 117c27.333 24 60.666 42.333 99.999 55s79.333 19 120 19z" />
    <glyph glyph-name="four" unicode="4" horiz-adv-x="550" 
d="M469 96v-96h-149v96h-282v117l217 476h157l-210 -462h118v192h149v-192h55v-131h-55z" />
    <glyph glyph-name="five" unicode="5" horiz-adv-x="550" 
d="M504 188c0 -32.667 -6.33398 -61.002 -19.001 -85.002s-29.5 -44 -50.5 -60s-45 -28 -72 -36s-55.167 -12 -84.5 -12c-40.667 0 -79 5.83301 -115 17.5s-67.667 29.5 -95 53.5l77 118c22 -19.333 43.667 -32.166 65 -38.499s42.333 -9.5 63 -9.5
c10 0 19.833 1.5 29.5 4.5s18.5 7.33301 26.5 13s14.5 13 19.5 22s7.5 19.5 7.5 31.5v71c0 36.667 -16.333 55 -49 55c-8.66699 0 -17.834 -1.66699 -27.501 -5s-19 -7.16602 -28 -11.499s-17 -8.66602 -24 -12.999s-12.167 -7.83301 -15.5 -10.5l-132 52v344h401v-132h-253
v-105c15.333 8.66699 32.5 15.667 51.5 21s35.833 8 50.5 8c28 0 52.833 -4.83301 74.5 -14.5s39.834 -22.834 54.501 -39.501s25.834 -36.5 33.501 -59.5s11.5 -47.833 11.5 -74.5v-105v0z" />
    <glyph glyph-name="six" unicode="6" horiz-adv-x="550" 
d="M500 188c0 -33.333 -6.49707 -62.165 -19.4971 -86.498s-29.833 -44.333 -50.5 -60s-44 -27.334 -70 -35.001s-52.333 -11.5 -79 -11.5c-28 0 -55.333 3.83301 -82 11.5s-50.334 19.5 -71.001 35.5s-37.167 36 -49.5 60s-18.5 52.667 -18.5 86v314
c0 32.667 6.33301 61.167 19 85.5s29.5 44.5 50.5 60.5s45 28 72 36s55.167 12 84.5 12c40.667 0 79 -5.83301 115 -17.5s67.667 -29.5 95 -53.5l-77 -119c-22 19.333 -43.667 32.166 -65 38.499s-42.333 9.5 -63 9.5c-7.33301 0 -15.833 -1.33301 -25.5 -4
s-18.834 -7 -27.501 -13s-15.834 -13.5 -21.501 -22.5s-8.5 -19.5 -8.5 -31.5v-55c28.667 13.333 51.167 22 67.5 26s32.5 6 48.5 6c29.333 0 55 -5 77 -15s40.333 -23.5 55 -40.5s25.667 -37 33 -60s11 -47.833 11 -74.5v-82zM352.003 260.001
c0 23.333 -5.5 39.168 -16.5 47.501s-22.167 12.5 -33.5 12.5c-13.333 0 -27.5 -2.33301 -42.5 -7s-32.167 -12.334 -51.5 -23.001v-80c0 -27.333 7.66699 -46.5 23 -57.5s32 -16.5 50 -16.5c17.333 0 33.5 5.83301 48.5 17.5s22.5 30.5 22.5 56.5v50z" />
    <glyph glyph-name="seven" unicode="7" horiz-adv-x="550" 
d="M263 0h-158l228 557h-133v-99h-138v231h439v-122z" />
    <glyph glyph-name="eight" unicode="8" horiz-adv-x="550" 
d="M287 696c26 0 52.0039 -4.16895 78.0039 -12.502s49.333 -21 70 -38s37.334 -38.333 50.001 -64s19 -56.167 19 -91.5c0 -32.667 -7 -60.334 -21 -83.001s-30.667 -39 -50 -49c23.333 -12.667 43.166 -32.334 59.499 -59.001s24.5 -57.667 24.5 -93
c0 -36.667 -7.16699 -68.334 -21.5 -95.001s-32.833 -48.5 -55.5 -65.5s-47.834 -29.667 -75.501 -38s-54.5 -12.5 -80.5 -12.5s-52.833 3.83301 -80.5 11.5s-52.834 19.834 -75.501 36.501s-41.167 38.334 -55.5 65.001s-21.5 58.667 -21.5 96c0 16.667 2.5 33 7.5 49
s11.667 30.833 20 44.5s17.666 25.667 27.999 36s20.5 18.5 30.5 24.5c-20.667 11.333 -36.834 27.833 -48.501 49.5s-17.5 49.834 -17.5 84.501s6.66699 64.834 20 90.501s30.5 46.834 51.5 63.501s44.333 29.167 70 37.5s50.5 12.5 74.5 12.5zM355.004 484.998
c0 20.667 -7.16699 37.168 -21.5 49.501s-29.833 18.5 -46.5 18.5c-8.66699 0 -17.167 -1.66699 -25.5 -5s-15.833 -7.83301 -22.5 -13.5s-12 -12.5 -16 -20.5s-6 -17 -6 -27c0 -26 7.33301 -44.333 22 -55s30.667 -16 48 -16s33 5.66699 47 17s21 28.666 21 51.999z
M284.004 279.999c-18.667 0 -36.167 -6.49902 -52.5 -19.499s-24.5 -31.167 -24.5 -54.5c0 -12 2.33301 -22.5 7 -31.5s10.667 -16.5 18 -22.5s15.5 -10.5 24.5 -13.5s18.167 -4.5 27.5 -4.5s18.5 1.5 27.5 4.5s17.167 7.66699 24.5 14s13.333 14.166 18 23.499
s7 20.333 7 33c0 10 -2.33301 19.333 -7 28s-10.667 16.167 -18 22.5s-15.5 11.333 -24.5 15s-18.167 5.5 -27.5 5.5z" />
    <glyph glyph-name="nine" unicode="9" horiz-adv-x="550" 
d="M501 188c0 -32.667 -6.33301 -61.001 -19 -85.001s-29.5 -44 -50.5 -60s-45 -28 -72 -36s-55.167 -12 -84.5 -12c-40 0 -78.167 5.83301 -114.5 17.5s-68.166 29.5 -95.499 53.5l77 118c22.667 -19.333 44.667 -32.166 66 -38.499s42 -9.5 62 -9.5c8 0 16.667 1.5 26 4.5
s18.333 7.33301 27 13s15.834 13 21.501 22s8.5 19.5 8.5 31.5v64c-14 -6.66699 -26.5 -12 -37.5 -16s-20.833 -7.16699 -29.5 -9.5s-17 -3.83301 -25 -4.5s-16 -1 -24 -1c-26.667 0 -50.834 5 -72.501 15s-40.167 23.5 -55.5 40.5s-27.166 37 -35.499 60
s-12.5 47.833 -12.5 74.5v66c0 33.333 6.16699 62.5 18.5 87.5s28.666 45.833 48.999 62.5s43.666 29.167 69.999 37.5s53.833 12.5 82.5 12.5c32 0 61.5 -4.5 88.5 -13.5s50.167 -22.167 69.5 -39.5s34.5 -38.833 45.5 -64.5s16.5 -55.167 16.5 -88.5v-302zM353 480.999
c0 14 -2.16309 25.666 -6.49609 34.999s-9.83301 16.833 -16.5 22.5s-14.334 9.83398 -23.001 12.501s-17.334 4 -26.001 4s-17.334 -1.5 -26.001 -4.5s-16.334 -7.5 -23.001 -13.5s-12.167 -13.667 -16.5 -23s-6.5 -20.333 -6.5 -33v-41c0 -11.333 1.5 -20.833 4.5 -28.5
s7 -13.834 12 -18.501s10.5 -8 16.5 -10s11.667 -3 17 -3c13.333 0 27.5 2.33301 42.5 7s32.167 12.334 51.5 23.001v71z" />
    <glyph glyph-name="colon" unicode=":" horiz-adv-x="348" 
d="M173 268c-25.333 0 -46.666 8.66797 -63.999 26.001s-26 38.666 -26 63.999c0 12.667 2.33301 24.5 7 35.5s11 20.5 19 28.5s17.333 14.167 28 18.5s22 6.5 34 6.5s23.333 -2.16699 34 -6.5s20.167 -10.5 28.5 -18.5s14.833 -17.5 19.5 -28.5s7 -22.833 7 -35.5
c0 -12 -2 -23.333 -6 -34s-9.83301 -20.167 -17.5 -28.5s-16.834 -15 -27.501 -20s-22.667 -7.5 -36 -7.5zM173 -6.99902c-25.333 0 -46.666 8.83301 -63.999 26.5s-26 39.167 -26 64.5c0 12.667 2.33301 24.334 7 35.001s11 20 19 28s17.333 14.167 28 18.5s22 6.5 34 6.5
s23.333 -2.16699 34 -6.5s20.167 -10.5 28.5 -18.5s14.833 -17.333 19.5 -28s7 -22.334 7 -35.001c0 -24.667 -7.83301 -46 -23.5 -64s-36.834 -27 -63.501 -27z" />
    <glyph glyph-name="semicolon" unicode=";" horiz-adv-x="315" 
d="M162 268c-25.333 0 -46.666 8.66797 -63.999 26.001s-26 38.666 -26 63.999c0 12.667 2.33301 24.5 7 35.5s11 20.5 19 28.5s17.333 14.167 28 18.5s22 6.5 34 6.5s23.333 -2.16699 34 -6.5s20.167 -10.5 28.5 -18.5s14.833 -17.5 19.5 -28.5s7 -22.833 7 -35.5
c0 -12 -2 -23.333 -6 -34s-9.83301 -20.167 -17.5 -28.5s-16.834 -15 -27.501 -20s-22.667 -7.5 -36 -7.5zM58 -97.999c18 13.333 32.667 28.8311 44 46.498s18.333 33.834 21 48.501c-16 3.33301 -30.167 12 -42.5 26s-18.5 32.333 -18.5 55
c0 12.667 2.5 24.334 7.5 35.001s11.667 20 20 28s18 14.167 29 18.5s22.167 6.5 33.5 6.5c30 0 53.833 -10.333 71.5 -31s26.5 -48 26.5 -82c0 -21.333 -3.16699 -42.5 -9.5 -63.5s-15.5 -41.167 -27.5 -60.5s-26.833 -37.333 -44.5 -54s-37.5 -31 -59.5 -43z" />
    <glyph glyph-name="less" unicode="&#x3c;" horiz-adv-x="550" 
d="M19 242v112l511 223v-131l-353 -149l353 -149v-131z" />
    <glyph glyph-name="equal" unicode="=" horiz-adv-x="550" 
d="M18 357v111h514v-111h-514zM18 128v111h514v-111h-514z" />
    <glyph glyph-name="greater" unicode="&#x3e;" horiz-adv-x="550" 
d="M19 17v131l353 149l-353 149v131l511 -223v-112z" />
    <glyph glyph-name="question" unicode="?" horiz-adv-x="503" 
d="M251 701c33.333 0 63.6709 -4.66797 91.0039 -14.001s50.5 -22 69.5 -38s33.667 -35 44 -57s15.5 -45.667 15.5 -71c0 -23.333 -3.33301 -44 -10 -62s-14.834 -34.5 -24.501 -49.5s-20.334 -29.167 -32.001 -42.5s-22.334 -27 -32.001 -41s-17.834 -29 -24.501 -45
s-10 -34 -10 -54v-16h-151v17c0 19.333 1.33301 36.333 4 51s7.33398 29.334 14.001 44.001s15.167 30 25.5 46s23.5 34.667 39.5 56c5.33301 7.33301 11 17.5 17 30.5s9 26.5 9 40.5c0 16 -5.83301 30 -17.5 42s-31.834 18 -60.501 18
c-19.333 0 -38.5 -3.83301 -57.5 -11.5s-38.167 -20.167 -57.5 -37.5l-72 120c30.667 25.333 65 44 103 56s77 18 117 18zM263.005 -7.00098c-25.333 0 -46.666 8.83301 -63.999 26.5s-26 39.167 -26 64.5c0 12.667 2.33301 24.334 7 35.001s11 20 19 28
s17.333 14.167 28 18.5s22 6.5 34 6.5s23.333 -2.16699 34 -6.5s20.167 -10.5 28.5 -18.5s14.833 -17.333 19.5 -28s7 -22.334 7 -35.001c0 -24.667 -7.83301 -46 -23.5 -64s-36.834 -27 -63.501 -27z" />
    <glyph glyph-name="at" unicode="@" horiz-adv-x="882" 
d="M268 277c0 22.667 5.33496 41.6729 16.002 57.0059s23.834 27.666 39.501 36.999s32.5 16 50.5 20s34 6 48 6h76v8c0 13.333 -4.66699 24.5 -14 33.5s-24 13.5 -44 13.5c-13.333 0 -28.333 -2 -45 -6s-34.334 -13.333 -53.001 -28l-54 84
c28.667 22.667 56.5 37.334 83.5 44.001s52.833 10 77.5 10c50 0 90.167 -13.167 120.5 -39.5s45.5 -66.5 45.5 -120.5v-114c0 -6.66699 1.5 -11.834 4.5 -15.501s6.33301 -6.33398 10 -8.00098s7.33398 -2.66699 11.001 -3s6.16699 -0.5 7.5 -0.5
c6.66699 0 14.667 2.16699 24 6.5s18.166 11.5 26.499 21.5s15.333 23.667 21 41s8.5 39 8.5 65c0 34.667 -5.5 67 -16.5 97s-27.333 56 -49 78s-49 39.333 -82 52s-71.5 19 -115.5 19c-47.333 0 -89.666 -7.33301 -126.999 -22s-69 -34.5 -95 -59.5s-46 -54 -60 -87
s-21 -68.167 -21 -105.5c0 -38 6.66699 -73.667 20 -107s32 -62.5 56 -87.5s52.833 -44.667 86.5 -59s71.167 -21.5 112.5 -21.5c17.333 0 35.166 1.16699 53.499 3.5s42.5 9.16602 72.5 20.499l32 -93c-11.333 -6 -24.333 -10.833 -39 -14.5s-29.667 -6.83398 -45 -9.50098
s-30.333 -4.5 -45 -5.5s-27.334 -1.5 -38.001 -1.5c-57.333 0 -109.166 9.5 -155.499 28.5s-85.833 45.333 -118.5 79s-57.667 73.167 -75 118.5s-26 94.666 -26 147.999c0 54 10 104 30 150s48 85.833 84 119.5s79.333 60.167 130 79.5s106.667 29 168 29
c62.667 0 117.334 -9 164.001 -27s85.5 -42.667 116.5 -74s54.167 -68 69.5 -110s23 -87 23 -135c0 -33.333 -5.16699 -64.666 -15.5 -93.999s-24.833 -55 -43.5 -77s-41 -39.333 -67 -52s-54.333 -19 -85 -19c-9.33301 0 -19.333 0.5 -30 1.5s-21.334 3 -32.001 6
s-20.834 7.5 -30.501 13.5s-17.834 14 -24.501 24c-21.333 -14.667 -42 -24.834 -62 -30.501s-37.667 -8.5 -53 -8.5c-23.333 0 -43 3.33301 -59 10s-29 15.667 -39 27s-17.333 24.166 -22 38.499s-7 29.5 -7 45.5zM499.002 314.006l-71.001 -0.000976562
c-10 0 -19.167 -1.83301 -27.5 -5.5s-12.5 -11.167 -12.5 -22.5c0 -6 3 -11.667 9 -17s15.333 -8 28 -8c18.667 0 33.834 2.33301 45.501 7s21.167 9.33398 28.5 14.001v32z" />
    <glyph glyph-name="A" unicode="A" horiz-adv-x="659" 
d="M438 136h-222l-41 -136h-171l243 689h164l239 -689h-170zM256 266h142l-14 47l-55 190h-4l-55 -190z" />
    <glyph glyph-name="B" unicode="B" horiz-adv-x="639" 
d="M596 206c0 -29.333 -4.33105 -56.5 -12.998 -81.5s-21.5 -46.833 -38.5 -65.5s-38 -33.167 -63 -43.5s-53.833 -15.5 -86.5 -15.5h-335v689h322c36 0 66.667 -5.16699 92 -15.5s46.166 -24.166 62.499 -41.499s28.166 -37.333 35.499 -60s11 -46.667 11 -72
c0 -12 -1.83301 -24.667 -5.5 -38s-9 -26.333 -16 -39s-15.833 -24.334 -26.5 -35.001s-23 -19.334 -37 -26.001c16.667 -8 31.167 -18.167 43.5 -30.5s22.5 -25.666 30.5 -39.999s14 -29 18 -44s6 -28.833 6 -41.5zM418.002 482c0 19.333 -5.66699 35.167 -17 47.5
s-32 18.5 -62 18.5h-120v-125h120c28 0 48.167 5.5 60.5 16.5s18.5 25.167 18.5 42.5zM425.002 212.001c0 21.333 -6.16699 39.333 -18.5 54s-32.5 22 -60.5 22h-127v-147h127c26 0 45.667 6.5 59 19.5s20 30.167 20 51.5z" />
    <glyph glyph-name="C" unicode="C" horiz-adv-x="577" 
d="M470 502c-22.667 19.333 -45.832 32.168 -69.499 38.501s-46.5 9.5 -68.5 9.5c-13.333 0 -26.666 -2 -39.999 -6s-25.333 -10.167 -36 -18.5s-19.5 -19.333 -26.5 -33s-10.5 -30.5 -10.5 -50.5v-195c0 -20 3.5 -36.833 10.5 -50.5s16 -24.667 27 -33
s23.167 -14.5 36.5 -18.5s26.666 -6 39.999 -6c21.333 0 43.333 3.16699 66 9.5s46.667 19.166 72 38.499l75 -124c-28 -23.333 -60.833 -40.833 -98.5 -52.5s-76.834 -17.5 -117.501 -17.5c-32 0 -64.167 4.33301 -96.5 13s-61.333 22 -87 40s-46.5 40.833 -62.5 68.5
s-24 60.5 -24 98.5v260c0 38 7.83301 70.833 23.5 98.5s36.167 50.667 61.5 69s53.833 32 85.5 41s63.834 13.5 96.501 13.5c40.667 0 80.667 -5.66699 120 -17s72.666 -29 99.999 -53z" />
    <glyph glyph-name="D" unicode="D" horiz-adv-x="622" 
d="M572 220c0 -38 -7.16699 -70.833 -21.5 -98.5s-33.333 -50.5 -57 -68.5s-50.5 -31.333 -80.5 -40s-60.333 -13 -91 -13h-262v689h262c35.333 0 68.166 -4.33301 98.499 -13s56.833 -22 79.5 -40s40.334 -40.667 53.001 -68s19 -60 19 -98v-250zM412 439
c0 20 -3.33301 36.833 -10 50.5s-15.167 24.667 -25.5 33s-22.166 14.5 -35.499 18.5s-26.333 6 -39 6h-83v-407h83c12.667 0 25.667 2 39 6s25.166 10.167 35.499 18.5s18.833 19.5 25.5 33.5s10 31 10 51v190z" />
    <glyph glyph-name="E" unicode="E" horiz-adv-x="586" 
d="M60 689h481v-142h-322v-129h275v-141h-275v-136h322v-141h-481v689z" />
    <glyph glyph-name="F" unicode="F" horiz-adv-x="551" 
d="M219 411h275v-141h-275v-270h-159v689h481v-142h-322v-136z" />
    <glyph glyph-name="G" unicode="G" horiz-adv-x="618" 
d="M563 95c-15.333 -19.333 -32.834 -35.498 -52.501 -48.498s-39.834 -23.5 -60.501 -31.5s-41.334 -13.667 -62.001 -17s-40 -5 -58 -5c-31.333 0 -63 4.33301 -95 13s-61 22 -87 40s-47.167 40.833 -63.5 68.5s-24.5 60.5 -24.5 98.5v257c0 38 7.83301 71 23.5 99
s36.334 51.5 62.001 70.5s54.5 33.167 86.5 42.5s64.667 14 98 14c40.667 0 81.5 -5.83301 122.5 -17.5s75.167 -29.5 102.5 -53.5l-77 -123c-22.667 19.333 -46.834 32.166 -72.501 38.499s-49.5 9.5 -71.5 9.5c-13.333 0 -26.666 -2 -39.999 -6
s-25.666 -10.167 -36.999 -18.5s-20.5 -19.333 -27.5 -33s-10.5 -30.5 -10.5 -50.5v-195c0 -20 3.33301 -36.833 10 -50.5s15.334 -24.667 26.001 -33s22.5 -14.5 35.5 -18.5s26.167 -6 39.5 -6c12 0 24.5 1.66699 37.5 5s25.167 9.66602 36.5 18.999v93h-95v134h254v-295v0
z" />
    <glyph glyph-name="H" unicode="H" horiz-adv-x="660" 
d="M439 0v279h-220v-279h-159v689h159v-267h220v267h161v-689h-161z" />
    <glyph glyph-name="I" unicode="I" horiz-adv-x="319" 
d="M239 689v-689h-159v689h159z" />
    <glyph glyph-name="J" unicode="J" horiz-adv-x="538" 
d="M473 213c0 -38 -7.16797 -70.668 -21.501 -98.001s-33.166 -50 -56.499 -68s-50 -31.333 -80 -40s-60.667 -13 -92 -13c-42 0 -82.833 5.66699 -122.5 17s-73.167 28.666 -100.5 51.999l74 122c23.333 -18 45.666 -30.333 66.999 -37s42 -10 62 -10
c16 0 30.667 1.83301 44 5.5s24.833 9.83398 34.5 18.501s17.334 20.334 23.001 35.001s8.5 33 8.5 55v437h160v-476v0z" />
    <glyph glyph-name="K" unicode="K" horiz-adv-x="647" 
d="M298 284l-79 -91v-193h-159v689h159v-269l228 269h188l-232 -280l244 -409h-186z" />
    <glyph glyph-name="L" unicode="L" horiz-adv-x="549" 
d="M60 0v689h157v-547h327v-142h-484z" />
    <glyph glyph-name="M" unicode="M" horiz-adv-x="806" 
d="M584 321l-65 -124l-60 -105h-113l-61 109l-62 119h-4v-320h-159v689h146l114 -224l81 -164h6l84 170l109 218h146v-689h-159v321h-3z" />
    <glyph glyph-name="N" unicode="N" horiz-adv-x="690" 
d="M219 396v-396h-159v689h143l115 -167l151 -229h3v396h158v-689h-142l-142 210l-122 186h-5z" />
    <glyph glyph-name="O" unicode="O" horiz-adv-x="650" 
d="M595 218c0 -38 -7.33203 -71.001 -21.999 -99.001s-34.334 -51.333 -59.001 -70s-53.334 -32.667 -86.001 -42s-67 -14 -103 -14s-70.167 4.66699 -102.5 14s-61 23.333 -86 42s-44.833 42 -59.5 70s-22 61 -22 99v259c0 38 8 70.667 24 98s36.833 50 62.5 68
s54.5 31.333 86.5 40s64.333 13 97 13s65.167 -4.66699 97.5 -14s61.333 -23.166 87 -41.499s46.334 -41.5 62.001 -69.5s23.5 -61 23.5 -99v-254zM435.001 441.999c0 20 -3.33301 36.833 -10 50.5s-15.167 24.667 -25.5 33s-22.166 14.5 -35.499 18.5s-26.333 6 -39 6
c-13.333 0 -26.5 -2 -39.5 -6s-24.833 -10.167 -35.5 -18.5s-19.334 -19.333 -26.001 -33s-10 -30.5 -10 -50.5v-195c0 -20 3.33301 -36.833 10 -50.5s15.334 -24.667 26.001 -33s22.5 -14.5 35.5 -18.5s26.167 -6 39.5 -6c12.667 0 25.667 2 39 6
s25.166 10.167 35.499 18.5s18.833 19.333 25.5 33s10 30.5 10 50.5v195z" />
    <glyph glyph-name="P" unicode="P" horiz-adv-x="587" 
d="M219 393h117c30 0 51.333 7.5 64 22.5s19 33.167 19 54.5s-6.16699 39.5 -18.5 54.5s-33.833 22.5 -64.5 22.5h-117v-154zM361 689c38.667 0 71.667 -6.16699 99 -18.5s49.666 -28.833 66.999 -49.5s30 -44 38 -70s12 -53 12 -81s-4.83301 -55 -14.5 -81
s-24 -49.333 -43 -70s-42.167 -37.167 -69.5 -49.5s-58.666 -18.5 -93.999 -18.5h-137v-251h-159v689h301z" />
    <glyph glyph-name="Q" unicode="Q" horiz-adv-x="650" 
d="M595 223c0 -31.333 -5 -59.502 -15 -84.502s-24 -46.833 -42 -65.5s-39 -34.167 -63 -46.5s-50 -21.166 -78 -26.499v-22c0 -9.33301 0.5 -17.166 1.5 -23.499s3.66699 -11.5 8 -15.5s10.5 -6.83301 18.5 -8.5s19 -2.5 33 -2.5h18v-113
c-16.667 -2 -28.5 -3.16699 -35.5 -3.5s-14.5 -0.5 -22.5 -0.5c-32 0 -58.833 4 -80.5 12s-38.834 18.667 -51.501 32s-21.667 29.166 -27 47.499s-8 38.166 -8 59.499v38c-27.333 6 -53 15.167 -77 27.5s-44.833 27.833 -62.5 46.5s-31.5 40.334 -41.5 65.001
s-15 52.667 -15 84v246c0 38 8 71.167 24 99.5s36.833 52 62.5 71s54.5 33.167 86.5 42.5s64.333 14 97 14s65.167 -4.66699 97.5 -14s61.333 -23.166 87 -41.499s46.334 -41.5 62.001 -69.5s23.5 -61 23.5 -99v-249zM435 441.998c0 20 -3.33301 36.833 -10 50.5
s-15.167 24.667 -25.5 33s-22.166 14.5 -35.499 18.5s-26.333 6 -39 6c-13.333 0 -26.5 -2 -39.5 -6s-24.833 -10.167 -35.5 -18.5s-19.334 -19.333 -26.001 -33s-10 -30.5 -10 -50.5v-195c0 -20 3.33301 -36.833 10 -50.5s15.334 -24.667 26.001 -33s22.5 -14.5 35.5 -18.5
s26.167 -6 39.5 -6c12.667 0 25.667 2 39 6s25.166 10.167 35.499 18.5s18.833 19.333 25.5 33s10 30.5 10 50.5v195z" />
    <glyph glyph-name="R" unicode="R" horiz-adv-x="605" 
d="M370 689c38 0 70.333 -6.33398 97 -19.001s48.5 -29.334 65.5 -50.001s29.333 -44.167 37 -70.5s11.5 -52.833 11.5 -79.5c0 -18 -2.66699 -36.167 -8 -54.5s-12.833 -35.666 -22.5 -51.999s-21.5 -31.666 -35.5 -45.999s-29.667 -26.5 -47 -36.5l123 -281h-170l-104 254
h-98v-254h-159v689h310zM219 392.999h118c29.333 0 50.5 7.5 63.5 22.5s19.5 33.167 19.5 54.5s-6.66699 39.5 -20 54.5s-34.333 22.5 -63 22.5h-118v-154z" />
    <glyph glyph-name="S" unicode="S" horiz-adv-x="620" 
d="M585 202c0 -34.667 -7.33203 -64.835 -21.999 -90.502s-34.5 -47.167 -59.5 -64.5s-54.333 -30.333 -88 -39s-69.167 -13 -106.5 -13c-25.333 0 -49.833 1.33301 -73.5 4s-46.5 7.5 -68.5 14.5s-43.833 16.667 -65.5 29s-43.167 27.833 -64.5 46.5l89 117
c29.333 -23.333 58.833 -40.5 88.5 -51.5s59.5 -16.5 89.5 -16.5c22 0 40.333 2 55 6s26.5 9.16699 35.5 15.5s15.333 13.166 19 20.499s5.5 14.333 5.5 21c0 10 -2.5 18.833 -7.5 26.5s-13.5 14.834 -25.5 21.501s-27.833 13.334 -47.5 20.001s-44.167 14 -73.5 22
c-32 8.66699 -60.333 18.5 -85 29.5s-45.5 24.333 -62.5 40s-29.833 34.167 -38.5 55.5s-13 47 -13 77c0 31.333 6.16699 59.5 18.5 84.5s29.666 46.333 51.999 64s49 31.167 80 40.5s64.833 14 101.5 14c40 0 79.5 -3.66699 118.5 -11s79.5 -25 121.5 -53l-71 -128
c-32.667 20.667 -62.5 33.667 -89.5 39s-54.167 8 -81.5 8c-25.333 0 -45.833 -4.16699 -61.5 -12.5s-23.5 -22.166 -23.5 -41.499c0 -8.66699 2.5 -16.5 7.5 -23.5s13.5 -13.833 25.5 -20.5s27.667 -13.167 47 -19.5s43 -13.5 71 -21.5c44 -12 79.333 -25.5 106 -40.5
s47.167 -31.333 61.5 -49s23.833 -36.667 28.5 -57s7 -41.5 7 -63.5z" />
    <glyph glyph-name="T" unicode="T" horiz-adv-x="528" 
d="M344 546v-546h-159v546h-175v143h508v-143h-174z" />
    <glyph glyph-name="U" unicode="U" horiz-adv-x="660" 
d="M600 219c0 -38 -7.6709 -71 -23.0039 -99s-35.666 -51.5 -60.999 -70.5s-54.166 -33.167 -86.499 -42.5s-65.5 -14 -99.5 -14s-67.167 4.5 -99.5 13.5s-61.166 22.667 -86.499 41s-45.666 41.333 -60.999 69s-23 60.5 -23 98.5v474h159v-444
c0 -20 3.33301 -36.833 10 -50.5s15.334 -24.667 26.001 -33s22.5 -14.5 35.5 -18.5s26.167 -6 39.5 -6c12.667 0 25.667 2 39 6s25.166 10.167 35.499 18.5s18.833 19.333 25.5 33s10 30.5 10 50.5v444h160v-470v0z" />
    <glyph glyph-name="V" unicode="V" horiz-adv-x="623" 
d="M317 232l70 249l60 208h166l-219 -689h-163l-221 689h170l62 -212l69 -245h6z" />
    <glyph glyph-name="W" unicode="W" horiz-adv-x="931" 
d="M460 420l-47 -186l-56 -234h-173l-174 689h169l51 -250l42 -205h7l52 208l63 247h143l67 -263l48 -192h7l39 193l54 262h169l-175 -689h-172l-56 234l-50 186h-8z" />
    <glyph glyph-name="X" unicode="X" horiz-adv-x="618" 
d="M309 218l-125 -218h-179l220 353l-207 336h179l112 -201l112 201h178l-206 -336l220 -353h-179z" />
    <glyph glyph-name="Y" unicode="Y" horiz-adv-x="596" 
d="M301 420l51 117l65 152h169l-208 -417v-272h-159v272l-209 417h169l66 -155l50 -114h6z" />
    <glyph glyph-name="Z" unicode="Z" horiz-adv-x="548" 
d="M30 137l296 411h-284v141h476v-132l-301 -416h301v-141h-488v137z" />
    <glyph glyph-name="bracketleft" unicode="[" horiz-adv-x="314" 
d="M67 -95v794h229v-106h-93v-583h93v-105h-229z" />
    <glyph glyph-name="backslash" unicode="\" horiz-adv-x="368" 
d="M-15 725h120l253 -767h-119z" />
    <glyph glyph-name="bracketright" unicode="]" horiz-adv-x="314" 
d="M18 -95v105h92v583h-92v106h228v-794h-228z" />
    <glyph glyph-name="asciicircum" unicode="^" horiz-adv-x="550" 
d="M393 237l-118 300l-119 -302h-130l194 460h112l191 -458h-130z" />
    <glyph glyph-name="underscore" unicode="_" horiz-adv-x="500" 
d="M0 -160v91h500v-91h-500z" />
    <glyph glyph-name="grave" unicode="`" horiz-adv-x="516" 
d="M257 537l-146 186l134 46l93 -194z" />
    <glyph glyph-name="a" unicode="a" horiz-adv-x="539" 
d="M341 38c-26 -15.333 -50.8291 -26.167 -74.4961 -32.5s-45.834 -9.5 -66.501 -9.5c-52 0 -91.667 13.5 -119 40.5s-41 64.167 -41 111.5c0 27.333 5.5 50.5 16.5 69.5s25.333 34.5 43 46.5s37.167 20.833 58.5 26.5s42.333 8.5 63 8.5h120v13
c0 17.333 -5.33301 31.5 -16 42.5s-32.334 16.5 -65.001 16.5c-16 0 -35.333 -2.16699 -58 -6.5s-45.667 -15.833 -69 -34.5l-64 106c36 28 71.667 46 107 54s68.666 12 99.999 12c73.333 0 127.166 -16.5 161.499 -49.5s51.5 -83.833 51.5 -152.5v-300h-136l-9 37z
M342.004 194.999h-94c-12.667 0 -23.5 -2.33301 -32.5 -7s-13.5 -14 -13.5 -28c0 -8 3.16699 -15.333 9.5 -22s17.5 -10 33.5 -10c20 0 38.833 3 56.5 9s31.167 12 40.5 18v40z" />
    <glyph glyph-name="b" unicode="b" horiz-adv-x="536" 
d="M496 178c0 -62 -15.1689 -107.833 -45.502 -137.5s-72.166 -44.5 -125.499 -44.5c-17.333 0 -38.166 3.83301 -62.499 11.5s-47.5 17.5 -69.5 29.5l-10 -37h-133v716h148v-254c27.333 16 52.833 26.833 76.5 32.5s43.834 8.5 60.501 8.5
c29.333 0 54.166 -4.33301 74.499 -13s37 -21 50 -37s22.333 -35 28 -57s8.5 -46.333 8.5 -73v-145zM346.998 303c0 23.333 -4.83008 39.166 -14.4971 47.499s-21.5 12.5 -35.5 12.5c-13.333 0 -28.833 -3.5 -46.5 -10.5s-35.167 -16.167 -52.5 -27.5v-164
c5.33301 -3.33301 12.166 -6.66602 20.499 -9.99902s17.166 -6.5 26.499 -9.5s18.666 -5.5 27.999 -7.5s17.333 -3 24 -3c13.333 0 25 4.83301 35 14.5s15 25.167 15 46.5v111z" />
    <glyph glyph-name="c" unicode="c" horiz-adv-x="465" 
d="M450 74c-16.667 -17.333 -33.3301 -31.167 -49.9971 -41.5s-33.334 -18.333 -50.001 -24s-33.334 -9.33398 -50.001 -11.001s-33 -2.5 -49 -2.5c-26.667 0 -52.334 3.5 -77.001 10.5s-46.5 17.833 -65.5 32.5s-34.333 33.334 -46 56.001s-17.5 49.667 -17.5 81v148
c0 30.667 6.16699 57.334 18.5 80.001s28.5 41.5 48.5 56.5s42.167 26 66.5 33s48.5 10.5 72.5 10.5c16 0 32.167 -0.666992 48.5 -2s32.833 -4.33301 49.5 -9s33.167 -11.834 49.5 -21.501s32.5 -22.5 48.5 -38.5l-84 -107c-23.333 20.667 -42.666 33 -57.999 37
s-28.333 6 -39 6c-18 0 -34.833 -5.5 -50.5 -16.5s-23.5 -29.167 -23.5 -54.5v-95c0 -26 7.33301 -44.333 22 -55s31 -16 49 -16c12 0 27.167 3 45.5 9s36.166 17.667 53.499 35z" />
    <glyph glyph-name="d" unicode="d" horiz-adv-x="536" 
d="M40 323c0 26.667 3.49902 51.001 10.499 73.001s17.667 41 32 57s32.333 28.333 54 37s47.167 13 76.5 13c16.667 0 36.834 -1.66699 60.501 -5s45.167 -11 64.5 -23v241h148v-716h-134l-10 43c-22.667 -14.667 -46.5 -26.334 -71.5 -35.001s-46.167 -13 -63.5 -13
c-111.333 0 -167 61 -167 183v145zM188.999 192.001c0 -24 5 -40.168 15 -48.501s21.667 -12.5 35 -12.5s29.5 3.5 48.5 10.5s35.833 15.167 50.5 24.5v172c-18.667 9.33301 -35 15.833 -49 19.5s-27.667 5.5 -41 5.5c-16.667 0 -30.667 -4.66699 -42 -14
s-17 -25.666 -17 -48.999v-108z" />
    <glyph glyph-name="e" unicode="e" horiz-adv-x="520" 
d="M480 207l-287.998 0.000976562v-6c0 -24.667 7.5 -42.667 22.5 -54s32.167 -17 51.5 -17c12 0 28.167 1.66699 48.5 5s42.833 13.666 67.5 30.999l78 -101c-16.667 -15.333 -32.834 -27.5 -48.501 -36.5s-31.334 -16 -47.001 -21s-31.334 -8.33301 -47.001 -10
s-31.5 -2.5 -47.5 -2.5c-29.333 0 -57.666 3.66699 -84.999 11s-51.333 18.5 -72 33.5s-37.167 34.167 -49.5 57.5s-18.5 50.666 -18.5 81.999v128c0 32 5.83301 60 17.5 84s27.5 44.333 47.5 61s43 29.167 69 37.5s53.667 12.5 83 12.5c31.333 0 60.333 -4.33301 87 -13
s49.667 -21.167 69 -37.5s34.5 -36.666 45.5 -60.999s16.5 -52.5 16.5 -84.5v-99zM332.002 305.001c0 20 -7 35.333 -21 46s-30 16 -48 16c-18.667 0 -35.167 -5.83301 -49.5 -17.5s-21.5 -27.167 -21.5 -46.5v-4h140v6z" />
    <glyph glyph-name="f" unicode="f" horiz-adv-x="325" 
d="M218 379l-0.000976562 -379h-142v379h-56v117h56v75c0 24.667 4 46.167 12 64.5s18.833 33.5 32.5 45.5s29.834 20.833 48.501 26.5s38.667 8.5 60 8.5h86v-120h-58c-26 0 -39 -13.667 -39 -41v-59h97v-117h-97z" />
    <glyph glyph-name="g" unicode="g" horiz-adv-x="536" 
d="M486 -26c0 -31.333 -7.66406 -58.3311 -22.9971 -80.998s-34.666 -41.334 -57.999 -56.001s-48.833 -25.5 -76.5 -32.5s-53.834 -10.5 -78.501 -10.5c-16 0 -33.167 1.16699 -51.5 3.5s-36.5 6.83301 -54.5 13.5s-35.833 15.667 -53.5 27s-33.834 25.666 -48.501 42.999
l95 95c8 -10 17.333 -18 28 -24s21.167 -10.667 31.5 -14s20.333 -5.5 30 -6.5s17.5 -1.5 23.5 -1.5c25.333 0 46.333 5.16699 63 15.5s25 28.833 25 55.5v43c-27.333 -16 -52.833 -26.833 -76.5 -32.5s-43.834 -8.5 -60.501 -8.5c-29.333 0 -54.166 4.33301 -74.499 13
s-37 21 -50 37s-22.333 35 -28 57s-8.5 46.333 -8.5 73v135c0 59.333 14.5 104.833 43.5 136.5s70.167 47.5 123.5 47.5c17.333 0 37.666 -3.33301 60.999 -10s46.666 -17.667 69.999 -33l10 37h138v-522zM189.003 203.002c0 -23.333 4.83301 -39.167 14.5 -47.5
s21.5 -12.5 35.5 -12.5c13.333 0 28.833 3.5 46.5 10.5s35.167 16.167 52.5 27.5v149c-13.333 9.33301 -29.333 17.5 -48 24.5s-35.667 10.5 -51 10.5c-13.333 0 -25 -4.83301 -35 -14.5s-15 -25.167 -15 -46.5v-101z" />
    <glyph glyph-name="h" unicode="h" horiz-adv-x="545" 
d="M351 0v302.999c0 22.667 -5.83301 38.334 -17.5 47.001s-23.834 13 -36.501 13c-13.333 0 -27.166 -2.33301 -41.499 -7s-33.5 -14.667 -57.5 -30v-326h-148v716h148v-259c33.333 20.667 62.166 33.5 86.499 38.5s44.833 7.5 61.5 7.5c28.667 0 52.834 -4.5 72.501 -13.5
s35.5 -21.5 47.5 -37.5s20.667 -35 26 -57s8 -46.333 8 -73v-322h-149z" />
    <glyph glyph-name="i" unicode="i" horiz-adv-x="283" 
d="M68 0v496h148v-496h-148zM60 623c0 22.667 7.83301 41.834 23.5 57.501s34.834 23.5 57.501 23.5s42 -7.83301 58 -23.5s24 -34.834 24 -57.501c0 -23.333 -8 -42.833 -24 -58.5s-35.333 -23.5 -58 -23.5s-41.834 7.83301 -57.501 23.5s-23.5 35.167 -23.5 58.5z" />
    <glyph glyph-name="j" unicode="j" horiz-adv-x="286" 
d="M216 -52c0 -22 -4.16602 -42.1689 -12.499 -60.502s-19.833 -34 -34.5 -47s-32.167 -23 -52.5 -30s-42.166 -10.5 -65.499 -10.5h-60v124h29c10 0 18.167 1.66699 24.5 5s11.166 7.33301 14.499 12s5.66602 9.83398 6.99902 15.501s2 10.834 2 15.501v524h148v-548z
M61.001 622.998c0 22.667 7.83301 41.834 23.5 57.501s34.834 23.5 57.501 23.5s42 -7.83301 58 -23.5s24 -34.834 24 -57.501c0 -23.333 -8 -42.833 -24 -58.5s-35.333 -23.5 -58 -23.5s-41.834 7.83301 -57.501 23.5s-23.5 35.167 -23.5 58.5z" />
    <glyph glyph-name="k" unicode="k" horiz-adv-x="535" 
d="M50 0v716h150v-358h25c17.333 0 31.333 4.66699 42 14s20.334 22.333 29.001 39l42 84h167l-60 -123c-9.33301 -19.333 -19.333 -35.666 -30 -48.999s-26 -23.666 -46 -30.999c14 -4.66699 25.667 -10.834 35 -18.501s17 -16.167 23 -25.5s11 -19.333 15 -30
s7.66699 -21.334 11 -32.001l62 -186h-166l-49 161c-6.66699 20.667 -15.834 36 -27.501 46s-30.167 15 -55.5 15h-17v-222h-150z" />
    <glyph glyph-name="l" unicode="l" horiz-adv-x="289" 
d="M206 172c0 -10 0.668945 -17.998 2.00195 -23.998s4.16602 -10.833 8.49902 -14.5s10.666 -6.33398 18.999 -8.00098s19.5 -2.83398 33.5 -3.50098l2 -122c-11.333 -2 -22.833 -3.33301 -34.5 -4s-22.167 -1 -31.5 -1c-33.333 0 -59.666 3.5 -78.999 10.5
s-33.833 17 -43.5 30s-15.834 28.5 -18.501 46.5s-4 38 -4 60v574h146v-544z" />
    <glyph glyph-name="m" unicode="m" horiz-adv-x="810" 
d="M616 0l-0.000976562 303.002c0 23.333 -4.83301 39.166 -14.5 47.499s-20.167 12.5 -31.5 12.5c-13.333 0 -26.166 -2.5 -38.499 -7.5s-28.833 -14.833 -49.5 -29.5v-326h-149v303c0 23.333 -4.83301 39.166 -14.5 47.499s-20.167 12.5 -31.5 12.5
c-13.333 0 -26.333 -2.5 -39 -7.5s-29.334 -14.833 -50.001 -29.5v-326h-148v496h132l10 -39c16.667 10.667 31.667 19 45 25s25.5 10.5 36.5 13.5s21 5 30 6s17.5 1.5 25.5 1.5c30.667 0 56.167 -5.66699 76.5 -17s36.166 -26.666 47.499 -45.999
c21.333 14.667 40 26.167 56 34.5s30.333 14.666 43 18.999s23.834 7 33.501 8s18.5 1.5 26.5 1.5c28.667 0 52.834 -5 72.501 -15s35.5 -23.5 47.5 -40.5s20.5 -37 25.5 -60s7.5 -47.833 7.5 -74.5v-313h-149z" />
    <glyph glyph-name="n" unicode="n" horiz-adv-x="545" 
d="M351 0v303.004c0 23.333 -5.33301 39.166 -16 47.499s-23.334 12.5 -38.001 12.5c-13.333 0 -27.166 -2.33301 -41.499 -7s-33.5 -14.667 -57.5 -30v-326h-148v496h132l10 -39c33.333 20.667 63.166 33.5 89.499 38.5s47.833 7.5 64.5 7.5
c28.667 0 52.834 -4.33301 72.501 -13s35.5 -20.834 47.5 -36.501s20.667 -34.334 26 -56.001s8 -45.834 8 -72.501v-325h-149z" />
    <glyph glyph-name="o" unicode="o" horiz-adv-x="525" 
d="M485 187c0 -31.333 -5.33301 -59 -16 -83s-25.834 -44 -45.501 -60s-43.167 -28.167 -70.5 -36.5s-57.333 -12.5 -90 -12.5c-69.333 0 -123.833 16.167 -163.5 48.5s-59.5 80.166 -59.5 143.499v124c0 31.333 5.83301 59 17.5 83s27.667 44 48 60s44 28.167 71 36.5
s55.833 12.5 86.5 12.5c68.667 0 122.834 -16.667 162.501 -50s59.5 -81.666 59.5 -144.999v-121zM338 301c0 26 -8 44.333 -24 55s-33 16 -51 16c-18.667 0 -36 -5.33301 -52 -16s-24 -29 -24 -55v-104c0 -26 8 -44.333 24 -55s33.333 -16 52 -16c18 0 35 5.33301 51 16
s24 29 24 55v104z" />
    <glyph glyph-name="p" unicode="p" horiz-adv-x="536" 
d="M496 173c0 -26.667 -3.49902 -51.001 -10.499 -73.001s-17.667 -41 -32 -57s-32.333 -28.333 -54 -37s-47.167 -13 -76.5 -13c-16.667 0 -36.834 1.66699 -60.501 5s-45.167 11 -64.5 23v-219h-148v694h134l10 -43c22.667 14.667 47 26.334 73 35.001s47.667 13 65 13
c109.333 0 164 -61 164 -183v-145zM347.001 303.999c0 24 -5 40.168 -15 48.501s-21.667 12.5 -35 12.5s-29.5 -3.5 -48.5 -10.5s-35.833 -15.167 -50.5 -24.5v-172c18.667 -9.33301 35 -15.833 49 -19.5s27.667 -5.5 41 -5.5c16.667 0 30.667 4.66699 42 14
s17 25.666 17 48.999v108z" />
    <glyph glyph-name="q" unicode="q" horiz-adv-x="536" 
d="M40 321c0 62 15.168 107.833 45.501 137.5s72.166 44.5 125.499 44.5c17.333 0 38.333 -3.83301 63 -11.5s48 -18.5 70 -32.5l10 37h132v-694h-148v235c-27.333 -16 -52.833 -26.833 -76.5 -32.5s-43.834 -8.5 -60.501 -8.5c-29.333 0 -54.166 4.33301 -74.499 13
s-37 21 -50 37s-22.333 35 -28 57s-8.5 46.333 -8.5 73v145zM189.001 196c0 -23.333 4.83008 -39.166 14.4971 -47.499s21.5 -12.5 35.5 -12.5c13.333 0 28.833 3.5 46.5 10.5s35.167 16.167 52.5 27.5v164c-5.33301 3.33301 -12.166 6.66602 -20.499 9.99902
s-17.166 6.5 -26.499 9.5s-18.666 5.5 -27.999 7.5s-17.333 3 -24 3c-13.333 0 -25 -4.83301 -35 -14.5s-15 -25.167 -15 -46.5v-111z" />
    <glyph glyph-name="r" unicode="r" horiz-adv-x="404" 
d="M392 352c-42.667 -4 -78.333 -10.332 -107 -18.999s-56.334 -21.334 -83.001 -38.001v-295h-147v496h137l9 -73h1c8.66699 8.66699 20.334 17.667 35.001 27s30.5 17.833 47.5 25.5s34.833 14 53.5 19s36.667 7.5 54 7.5v-150z" />
    <glyph glyph-name="s" unicode="s" horiz-adv-x="473" 
d="M240 -5c-16.667 0 -33.6602 0.835938 -50.9932 2.50293s-35.166 5 -53.499 10s-37 12.5 -56 22.5s-38.167 23.667 -57.5 41l78 105c25.333 -20.667 48.166 -34.834 68.499 -42.501s42.166 -11.5 65.499 -11.5c21.333 0 37.5 3.16699 48.5 9.5s16.5 13.833 16.5 22.5
c0 8 -2.83301 15.167 -8.5 21.5s-19.834 11.5 -42.501 15.5c-21.333 4 -43.833 8.5 -67.5 13.5s-45.5 12.667 -65.5 23s-36.5 24.166 -49.5 41.499s-19.5 40.666 -19.5 69.999c0 27.333 5.5 51 16.5 71s25.5 36.667 43.5 50s38.167 23.333 60.5 30s45.166 10 68.499 10
c36.667 0 71.167 -3.5 103.5 -10.5s65.5 -23.167 99.5 -48.5l-69 -111c-26.667 18 -50.334 29.333 -71.001 34s-40.334 7 -59.001 7s-31.167 -3 -37.5 -9s-9.5 -12.333 -9.5 -19c0 -10 6.5 -17.167 19.5 -21.5s29 -8.16602 48 -11.499s39.833 -7.33301 62.5 -12
s43.5 -12.167 62.5 -22.5s35 -25 48 -44s19.5 -44.167 19.5 -75.5c0 -26.667 -5.83301 -50 -17.5 -70s-27.334 -36.833 -47.001 -50.5s-42.334 -23.834 -68.001 -30.501s-52.167 -10 -79.5 -10z" />
    <glyph glyph-name="t" unicode="t" horiz-adv-x="383" 
d="M21 380v116h61l23 125h120v-125h111v-116h-111v-192c0 -24 5.33301 -39.833 16 -47.5s28.667 -11.5 54 -11.5c18.667 0 41.667 1 69 3l12 -119c-22 -8 -44.5 -13.167 -67.5 -15.5s-43.833 -3.5 -62.5 -3.5c-35.333 0 -63.833 4.16699 -85.5 12.5s-38.5 19.833 -50.5 34.5
s-20.167 32.167 -24.5 52.5s-6.5 42.833 -6.5 67.5v219h-58z" />
    <glyph glyph-name="u" unicode="u" horiz-adv-x="545" 
d="M194 496l0.00390625 -302.999c0 -11.333 1.83301 -20.833 5.5 -28.5s8.16699 -13.834 13.5 -18.501s11.166 -8 17.499 -10s12.166 -3 17.499 -3c13.333 0 27.166 2.33301 41.499 7s33.5 14.667 57.5 30v326h148v-496h-132l-10 39c-16.667 -10.667 -32.5 -19 -47.5 -25
s-29 -10.5 -42 -13.5s-25 -5 -36 -6s-20.5 -1.5 -28.5 -1.5c-28.667 0 -52.834 5 -72.501 15s-35.5 23.5 -47.5 40.5s-20.667 37 -26 60s-8 47.833 -8 74.5v313h149z" />
    <glyph glyph-name="v" unicode="v" horiz-adv-x="527" 
d="M268 185l23.5 81.5l24.5 81.5l45 148h161l-179 -496h-158l-180 496h166l44 -148l24.5 -81c8.33301 -28.667 16.833 -56 25.5 -82h3z" />
    <glyph glyph-name="w" unicode="w" horiz-adv-x="737" 
d="M233 208c6.66699 19.333 13.333 40.168 20 62.501s13.667 44.166 21 65.499l36 112h118l38 -121l39 -126h3c6 24 11.833 48.833 17.5 74.5l16.5 75.5l16.5 73l17.5 72h156l-139 -496h-152l-37 115l-35 111l-4 1l-36 -114l-36 -113h-149l-139 496h156l37 -159l29 -129h6z
" />
    <glyph glyph-name="x" unicode="x" horiz-adv-x="519" 
d="M344 0l-85 143l-85 -143h-169l172 253l-165 243h167l80 -136l79 136h168l-165 -243l173 -253h-170z" />
    <glyph glyph-name="y" unicode="y" horiz-adv-x="502" 
d="M93 -198l77 210l-23 16l-137 468h150l39 -172l36 -148h4l48 151l53 169h151l-254 -694h-144z" />
    <glyph glyph-name="z" unicode="z" horiz-adv-x="486" 
d="M35 0v119l239 254h-225v122h402v-114l-238 -253h238v-128h-416z" />
    <glyph glyph-name="braceleft" unicode="{" horiz-adv-x="314" 
d="M207 -93c-33.333 0 -61.5 11.1699 -84.5 33.5029s-34.5 52.5 -34.5 90.5v131c0 58 -25.333 87 -76 87v104c50.667 2 76 32 76 90v129c0 38 11.5 68.167 34.5 90.5s51.167 33.5 84.5 33.5h98v-101h-41c-7.33301 0 -13.666 -1.83301 -18.999 -5.5
s-9.5 -8.33398 -12.5 -14.001s-5.16699 -12 -6.5 -19s-2 -13.5 -2 -19.5v-117c0 -30.667 -7.83301 -55.834 -23.5 -75.501s-33.167 -34.167 -52.5 -43.5c23.333 -8.66699 41.833 -22.834 55.5 -42.501s20.5 -44.5 20.5 -74.5v-118c0 -6 0.166992 -12.5 0.5 -19.5
s1.66602 -13.5 3.99902 -19.5s6.33301 -10.833 12 -14.5s13.5 -5.5 23.5 -5.5h41v-100h-98z" />
    <glyph glyph-name="bar" unicode="|" horiz-adv-x="259" 
d="M67 -228v958h124v-958h-124z" />
    <glyph glyph-name="braceright" unicode="}" horiz-adv-x="314" 
d="M304 249c-51.333 0 -76.999 -29.002 -76.999 -87.002v-131c0 -38 -11.333 -68.167 -34 -90.5s-50.667 -33.5 -84 -33.5h-98v100h41c10 0 17.833 1.83301 23.5 5.5s9.66699 8.5 12 14.5s3.66602 12.5 3.99902 19.5s0.5 13.5 0.5 19.5v118c0 30 6.83301 54.833 20.5 74.5
s32.167 33.834 55.5 42.501c-19.333 9.33301 -36.833 23.833 -52.5 43.5s-23.5 44.834 -23.5 75.501v117c0 12.667 -3 25.5 -9 38.5s-16.333 19.5 -31 19.5h-41v101h98c33.333 0 61.333 -11.167 84 -33.5s34 -52.5 34 -90.5v-129c0 -58 25.667 -88 77 -90v-104v0z" />
    <glyph glyph-name="asciitilde" unicode="~" horiz-adv-x="550" 
d="M170 347c16 0 32.8252 -3.5 50.4922 -10.5s35.334 -14.667 53.001 -23s34.834 -16 51.501 -23s32 -10.5 46 -10.5c4 0 8.5 0.5 13.5 1.5s10.833 3.66699 17.5 8s14.334 11.5 23.001 21.5s18.334 24 29.001 42l93 -63c-21.333 -43.333 -46.833 -75.333 -76.5 -96
s-60.5 -31 -92.5 -31c-19.333 0 -37.5 3.33301 -54.5 10s-33.833 14 -50.5 22s-33.667 15.333 -51 22s-35.666 10 -54.999 10c-13.333 0 -26.666 -3.83301 -39.999 -11.5s-28.666 -23.167 -45.999 -46.5l-79 71c8 14 16.833 27.333 26.5 40s21.334 24 35.001 34
s29.167 18 46.5 24s37.333 9 60 9z" />
    <glyph glyph-name="exclamdown" unicode="&#xa1;" horiz-adv-x="280" 
d="M204 278l8 -480h-143l7 480h128zM139 501c25.333 0 46.666 -8.83301 63.999 -26.5s26 -39.167 26 -64.5c0 -12.667 -2.33301 -24.334 -7 -35.001s-11 -20 -19 -28s-17.333 -14.167 -28 -18.5s-22 -6.5 -34 -6.5s-23.333 2.16699 -34 6.5s-20.167 10.5 -28.5 18.5
s-14.833 17.333 -19.5 28s-7 22.334 -7 35.001c0 24.667 7.83301 46 23.5 64s36.834 27 63.501 27z" />
    <glyph glyph-name="cent" unicode="&#xa2;" horiz-adv-x="465" 
d="M450 74c-25.333 -27.333 -51 -46.332 -77 -56.999s-51.667 -17.334 -77 -20.001v-134h-70v133c-24 2 -47 7 -69 15s-41.167 19.333 -57.5 34s-29.5 32.667 -39.5 54s-15 46.666 -15 75.999v148c0 28 5.33301 52.667 16 74s24.5 39.5 41.5 54.5s36.333 26.667 58 35
s43.5 13.5 65.5 15.5v131h70v-132c25.333 -2 50.5 -7.66699 75.5 -17s50.167 -26.666 75.5 -51.999l-84 -107c-23.333 20.667 -42.666 33 -57.999 37s-28.333 6 -39 6c-18 0 -34.833 -5.5 -50.5 -16.5s-23.5 -29.167 -23.5 -54.5v-95c0 -26 7.33301 -44.333 22 -55
s31 -16 49 -16c12 0 27.167 3 45.5 9s36.166 17.667 53.499 35z" />
    <glyph glyph-name="sterling" unicode="&#xa3;" horiz-adv-x="550" 
d="M400 508c-19.333 25.333 -37.333 41.6689 -54 49.002s-34.667 11 -54 11c-8.66699 0 -17.167 -1.66699 -25.5 -5s-16 -8.16602 -23 -14.499s-12.667 -14 -17 -23s-6.5 -19.167 -6.5 -30.5c0 -8.66699 1.5 -17.334 4.5 -26.001s6.83301 -17.834 11.5 -27.501
s9.16699 -20.334 13.5 -32.001s8.16602 -24.5 11.499 -38.5h141v-104h-140c-2.66699 -25.333 -7.16699 -50.333 -13.5 -75s-14.833 -47 -25.5 -67h284v-125h-472v108c20 26 35.5 51 46.5 75s18.167 52 21.5 84h-73v104h65c-7.33301 24.667 -15.666 47.5 -24.999 68.5
s-14 41.167 -14 60.5c0 26.667 4.33301 52 13 76s22.167 45.167 40.5 63.5s42 33 71 44s63.5 16.5 103.5 16.5c20 0 40 -1.33301 60 -4s39.5 -7.66699 58.5 -15s37.5 -17.5 55.5 -30.5s35 -29.833 51 -50.5z" />
    <glyph glyph-name="currency" unicode="&#xa4;" horiz-adv-x="556" 
d="M168 321c0 -14.667 2.83301 -28.5 8.5 -41.5s13.334 -24.333 23.001 -34s21 -17.334 34 -23.001s26.833 -8.5 41.5 -8.5s28.5 2.83301 41.5 8.5s24.5 13.334 34.5 23.001s17.833 21 23.5 34s8.5 26.833 8.5 41.5c0 15.333 -2.83301 29.5 -8.5 42.5s-13.5 24.333 -23.5 34
s-21.5 17.167 -34.5 22.5s-26.833 8 -41.5 8s-28.5 -2.66699 -41.5 -8s-24.333 -12.833 -34 -22.5s-17.334 -21 -23.001 -34s-8.5 -27.167 -8.5 -42.5zM26 496l73 74l68 -68c18 10 35.833 17.833 53.5 23.5s36.167 8.5 55.5 8.5c20 0 38.833 -2.5 56.5 -7.5
s35.167 -12.5 52.5 -22.5l33.5 33l33.5 33l73 -74l-68 -67c10 -18 17.833 -36 23.5 -54s8.5 -36 8.5 -54c0 -20 -2.33301 -38.5 -7 -55.5s-12.667 -34.833 -24 -53.5c9.33301 -8 20.666 -18.667 33.999 -32l33 -33l-73 -74l-66 67
c-17.333 -10 -35.166 -17.833 -53.499 -23.5s-37.166 -8.5 -56.499 -8.5s-38.333 3 -57 9s-36.334 13.667 -53.001 23l-67 -67l-73 73l67 66c-20 36 -30 72.333 -30 109c0 34.667 10.333 70.667 31 108z" />
    <glyph glyph-name="yen" unicode="&#xa5;" horiz-adv-x="550" 
d="M59 240h135v32l-14 31h-118v95h78l-125 291h169l86 -277h6l86 277h169l-125 -291h86v-95h-126l-13 -31v-32h139v-93h-139v-147h-159v147h-135v93z" />
    <glyph glyph-name="brokenbar" unicode="&#xa6;" horiz-adv-x="259" 
d="M67 284v446h124v-446h-124zM191 219v-447h-124v447h124z" />
    <glyph glyph-name="section" unicode="&#xa7;" horiz-adv-x="447" 
d="M53 536c0 28.667 5.3252 53.335 15.9922 74.002s24.834 37.667 42.501 51s37.834 23.166 60.501 29.499s46.334 9.5 71.001 9.5c28 0 56.5 -3.5 85.5 -10.5s55.167 -19.167 78.5 -36.5l-57 -99c-21.333 13.333 -39.666 22.833 -54.999 28.5s-31.666 8.5 -48.999 8.5
c-13.333 0 -25.166 -3.83301 -35.499 -11.5s-15.5 -19.5 -15.5 -35.5c0 -15.333 5.5 -28.833 16.5 -40.5s30.5 -23.834 58.5 -36.501c20 -8.66699 39.167 -18.167 57.5 -28.5s34.5 -22.166 48.5 -35.499s25.333 -28.666 34 -45.999s13 -37.333 13 -60
c0 -16 -3.5 -33.5 -10.5 -52.5s-19.5 -39.167 -37.5 -60.5c7.33301 -10.667 13.5 -22 18.5 -34s7.5 -25 7.5 -39c0 -28.667 -5.5 -53.334 -16.5 -74.001s-25.667 -37.667 -44 -51s-39.166 -23.166 -62.499 -29.499s-47.333 -9.5 -72 -9.5c-28 0 -56 3.66699 -84 11
s-53.667 19.666 -77 36.999l49 99c18 -13.333 36.833 -23 56.5 -29s38.167 -9 55.5 -9c13.333 0 25.166 3.83301 35.499 11.5s15.5 19.5 15.5 35.5c0 15.333 -5.5 28.833 -16.5 40.5s-30.5 23.834 -58.5 36.501c-20 8.66699 -39.167 18.167 -57.5 28.5
s-34.5 22.166 -48.5 35.499s-25.333 28.666 -34 45.999s-13 37.333 -13 60c0 16 3.33301 33.5 10 52.5s19.334 38.833 38.001 59.5c-7.33301 10.667 -13.166 22 -17.499 34s-6.5 25.333 -6.5 40zM161.992 359.001c0 -18 8.83301 -33.334 26.5 -46.001
s37.834 -24.667 60.501 -36c5.33301 -3.33301 10.666 -6.16602 15.999 -8.49902s10.666 -5.16602 15.999 -8.49902c6 10 9 19.333 9 28c0 18 -8.83301 33.333 -26.5 46s-37.834 24.667 -60.501 36c-5.33301 2.66699 -10.666 5.16699 -15.999 7.5
s-10.666 5.16602 -15.999 8.49902c-6 -9.33301 -9 -18.333 -9 -27z" />
    <glyph glyph-name="dieresis" unicode="&#xa8;" horiz-adv-x="491" 
d="M269 619c0 21.333 7.66699 39.5 23 54.5s33.666 22.5 54.999 22.5s39.5 -7.5 54.5 -22.5s22.5 -33.167 22.5 -54.5s-7.5 -39.666 -22.5 -54.999s-33.167 -23 -54.5 -23s-39.666 7.66699 -54.999 23s-23 33.666 -23 54.999zM71 619c0 21.333 7.5 39.5 22.5 54.5
s33.167 22.5 54.5 22.5s39.666 -7.5 54.999 -22.5s23 -33.167 23 -54.5s-7.66699 -39.666 -23 -54.999s-33.666 -23 -54.999 -23s-39.5 7.66699 -54.5 23s-22.5 33.666 -22.5 54.999z" />
    <glyph glyph-name="copyright" unicode="&#xa9;" horiz-adv-x="820" 
d="M411 -16c-50 0 -96.667 8.66797 -140 26.001s-81 41.666 -113 72.999s-57 69 -75 113s-27 92.667 -27 146c0 52 9 100 27 144s43 82 75 114s69.667 57 113 75s90 27 140 27s96.667 -8.83301 140 -26.5s81 -42.5 113 -74.5s57 -70 75 -114s27 -92.333 27 -145
c0 -52 -9 -99.833 -27 -143.5s-43 -81.5 -75 -113.5s-69.667 -56.833 -113 -74.5s-90 -26.5 -140 -26.5zM411 623.001c-38 0 -73.333 -7.16992 -106 -21.5029s-60.834 -34.166 -84.501 -59.499s-42.334 -55 -56.001 -89s-20.5 -71 -20.5 -111s6.83301 -77 20.5 -111
s32.334 -63.5 56.001 -88.5s51.834 -44.667 84.501 -59s68 -21.5 106 -21.5s73.333 7.16699 106 21.5s60.834 34 84.501 59s42.334 54.5 56.001 88.5s20.5 71 20.5 111c0 41.333 -6.83301 79.333 -20.5 114s-32.334 64.334 -56.001 89.001s-51.834 43.834 -84.501 57.501
s-68 20.5 -106 20.5zM507 435.998c-14.667 12.667 -29.4961 21.1699 -44.4961 25.5029s-29.833 6.5 -44.5 6.5c-8.66699 0 -17.334 -1.33301 -26.001 -4s-16.5 -6.83398 -23.5 -12.501s-12.833 -13 -17.5 -22s-7 -19.833 -7 -32.5v-124c0 -12.667 2.33301 -23.5 7 -32.5
s10.667 -16.333 18 -22s15.333 -9.83398 24 -12.501s17.334 -4 26.001 -4c14 0 28.167 2.33301 42.5 7s29.833 13.334 46.5 26.001l49 -78c-18 -14.667 -39.167 -26.167 -63.5 -34.5s-49.833 -12.5 -76.5 -12.5c-20.667 0 -41.334 2.83301 -62.001 8.5
s-39.334 14.5 -56.001 26.5s-30.167 26.833 -40.5 44.5s-15.5 38.5 -15.5 62.5v159c0 24.667 5 46.167 15 64.5s23.167 33.666 39.5 45.999s34.666 21.666 54.999 27.999s41.166 9.5 62.499 9.5c26 0 52 -3.83301 78 -11.5s47.667 -19.167 65 -34.5z" />
    <glyph glyph-name="ordfeminine" unicode="&#xaa;" horiz-adv-x="372" 
d="M232 311c-10.667 -11.333 -24.6719 -20.334 -42.0049 -27.001s-34.333 -10 -51 -10c-37.333 0 -65.666 9.16699 -84.999 27.5s-29 43.5 -29 75.5c0 18.667 3.83301 34.334 11.5 47.001s17.167 22.834 28.5 30.501s24 13.167 38 16.5s27 5 39 5h86v7
c0 9.33301 -3.5 17.666 -10.5 24.999s-21.167 11 -42.5 11c-9.33301 0 -20.166 -1.5 -32.499 -4.5s-27.166 -9.5 -44.499 -19.5l-45 75c24.667 15.333 47.834 25.5 69.501 30.5s42.834 7.5 63.501 7.5c53.333 0 92.333 -11 117 -33s37 -55.667 37 -101v-197h-102z
M229.995 405.999h-62.001c-9.33301 0 -16.5 -1.33301 -21.5 -4s-7.5 -8.33398 -7.5 -17.001c0 -3.33301 1.83301 -8.16602 5.5 -14.499s10.834 -9.5 21.501 -9.5c12 0 23.333 1.83301 34 5.5s20.667 8.16699 30 13.5v26z" />
    <glyph glyph-name="guillemotleft" unicode="&#xab;" horiz-adv-x="591" 
d="M420 10l-146 214l146 214h140l-142 -214l142 -214h-140zM192 10l-146 214l146 214h140l-143 -214l143 -214h-140z" />
    <glyph glyph-name="logicalnot" unicode="&#xac;" horiz-adv-x="550" 
d="M531 54h-124v186h-389v116h512z" />
    <glyph glyph-name="sfthyphen" unicode="&#xad;" horiz-adv-x="440" 
d="M47 192v131h346v-131h-346z" />
    <glyph glyph-name="registered" unicode="&#xae;" horiz-adv-x="526" 
d="M269 457l-34.999 0.000976562v-93h-52v244h97c21.333 0 39.666 -6.5 54.999 -19.5s23 -31.167 23 -54.5c0 -13.333 -3.16699 -25.833 -9.5 -37.5s-16.5 -21.834 -30.5 -30.501l47 -102h-56zM234.001 558.001l0.000976562 -52h43c9.33301 0 16.666 2.5 21.999 7.5
s8 11.833 8 20.5c0 16 -9.33301 24 -28 24h-45zM265.002 269.001c-31.333 0 -60.332 5.5 -86.999 16.5s-49.834 26 -69.501 45s-35.167 41.667 -46.5 68s-17 54.833 -17 85.5s6 59.334 18 86.001s28 49.667 48 69s43.333 34.5 70 45.5s54.667 16.5 84 16.5
c31.333 0 60.5 -5.5 87.5 -16.5s50.333 -26.167 70 -45.5s35.167 -42.333 46.5 -69s17 -55.334 17 -86.001s-6 -59.167 -18 -85.5s-28.167 -49 -48.5 -68s-43.833 -34 -70.5 -45s-54.667 -16.5 -84 -16.5zM265.003 650.001c-23.333 0 -45 -4.16699 -65 -12.5
s-37.5 -20 -52.5 -35s-26.667 -32.667 -35 -53s-12.5 -42.166 -12.5 -65.499s4.16699 -45 12.5 -65s20 -37.5 35 -52.5s32.5 -26.833 52.5 -35.5s41.667 -13 65 -13s45 4.33301 65 13s37.333 20.5 52 35.5s26.167 32.5 34.5 52.5s12.5 41.667 12.5 65
s-4.16699 45.166 -12.5 65.499s-19.833 38 -34.5 53s-32 26.667 -52 35s-41.667 12.5 -65 12.5z" />
    <glyph glyph-name="macron" unicode="&#xaf;" horiz-adv-x="516" 
d="M92 578v118h333v-118h-333z" />
    <glyph glyph-name="degree" unicode="&#xb0;" horiz-adv-x="433" 
d="M380 548c0 -21.333 -4.33301 -41.333 -13 -60s-20.334 -35 -35.001 -49s-32 -25 -52 -33s-41.333 -12 -64 -12s-43.834 4 -63.501 12s-36.834 19 -51.501 33s-26.334 30.333 -35.001 49s-13 38.667 -13 60c0 20.667 4.33301 40.334 13 59.001s20.334 35 35.001 49
s31.834 25 51.501 33s40.834 12 63.501 12s44 -4 64 -12s37.333 -19 52 -33s26.334 -30.333 35.001 -49s13 -38.334 13 -59.001zM281 548c0 17.333 -6.33301 31.833 -19 43.5s-28 17.5 -46 17.5c-17.333 0 -32.5 -5.83301 -45.5 -17.5s-19.5 -26.167 -19.5 -43.5
s6.5 -32 19.5 -44s28.167 -18 45.5 -18c18 0 33.333 6 46 18s19 26.667 19 44z" />
    <glyph glyph-name="plusminus" unicode="&#xb1;" horiz-adv-x="550" 
d="M337 320v-173h-124v173h-195v116h195v182h124v-182h195v-116h-195zM14 0v113h522v-113h-522z" />
    <glyph glyph-name="twosuperior" unicode="&#xb2;" horiz-adv-x="358" 
d="M327 661c0 -14 -2.66992 -27.1689 -8.00293 -39.502s-12.166 -23.666 -20.499 -33.999s-17.666 -20 -27.999 -29s-20.5 -16.833 -30.5 -23.5l-24.5 -16.5c-9.66699 -6.33301 -19.167 -13 -28.5 -20s-18 -14.333 -26 -22s-13.333 -15.167 -16 -22.5h182v-87h-292v67
c0 19.333 3.5 36.833 10.5 52.5s16 30 27 43s23.167 24.5 36.5 34.5l39 28l50.5 35c14.333 10 21.5 21.333 21.5 34c0 8 -4.5 14.667 -13.5 20s-19.833 8 -32.5 8c-13.333 0 -27.166 -2.16699 -41.499 -6.5s-28.166 -11.833 -41.499 -22.5l-50 77
c19.333 14.667 41.166 25.834 65.499 33.501s49.5 11.5 75.5 11.5c18 0 35.667 -2 53 -6s32.833 -10.833 46.5 -20.5s24.667 -22.167 33 -37.5s12.5 -34.333 12.5 -57z" />
    <glyph glyph-name="threesuperior" unicode="&#xb3;" horiz-adv-x="358" 
d="M175 782c20 0 38.9961 -2.3291 56.9961 -6.99609s33.833 -11.834 47.5 -21.501s24.5 -22.334 32.5 -38.001s12 -34.5 12 -56.5c0 -19.333 -5.5 -36.5 -16.5 -51.5s-25.167 -24.833 -42.5 -29.5c8.66699 -2 16.834 -5.83301 24.501 -11.5s14.334 -12.334 20.001 -20.001
s10 -16 13 -25s4.5 -17.5 4.5 -25.5c0 -24 -4.83301 -44.333 -14.5 -61s-22 -30.334 -37 -41.001s-31.667 -18.5 -50 -23.5s-36.166 -7.5 -53.499 -7.5c-26 0 -50.333 3.33301 -73 10s-43.667 17.667 -63 33l48 78c13.333 -9.33301 27.166 -16.5 41.499 -21.5
s28.166 -7.5 41.499 -7.5c16 0 29.167 3.5 39.5 10.5s15.5 16.167 15.5 27.5s-4.16699 20.833 -12.5 28.5s-17.833 11.5 -28.5 11.5h-67v82h67c10 0 18.833 3.5 26.5 10.5s11.5 16.5 11.5 28.5c0 13.333 -5.5 22.5 -16.5 27.5s-22.5 7.5 -34.5 7.5
c-13.333 0 -27.166 -2.16699 -41.499 -6.5s-28.166 -11.833 -41.499 -22.5l-47 79c19.333 15.333 40.333 26.333 63 33s47.334 10 74.001 10z" />
    <glyph glyph-name="acute" unicode="&#xb4;" horiz-adv-x="516" 
d="M183 567l85 203l133 -43l-135 -190z" />
    <glyph glyph-name="mu" unicode="&#xb5;" horiz-adv-x="539" 
d="M46 494l149.003 0.000976562v-301c0 -11.333 1.83301 -20.833 5.5 -28.5s8.16699 -13.834 13.5 -18.501s11.166 -8 17.499 -10s12.166 -3 17.499 -3c13.333 0 27.166 2.33301 41.499 7s33.5 14.667 57.5 30v324h148v-494h-138l-10 39c-28.667 -18 -53.5 -30 -74.5 -36
s-41.167 -9 -60.5 -9h-9.5c-3 0 -6.16699 0.333008 -9.5 1v-193h-148v692z" />
    <glyph glyph-name="mu" unicode="&#x3bc;" horiz-adv-x="539" 
d="M46 494l149.003 0.000976562v-301c0 -11.333 1.83301 -20.833 5.5 -28.5s8.16699 -13.834 13.5 -18.501s11.166 -8 17.499 -10s12.166 -3 17.499 -3c13.333 0 27.166 2.33301 41.499 7s33.5 14.667 57.5 30v324h148v-494h-138l-10 39c-28.667 -18 -53.5 -30 -74.5 -36
s-41.167 -9 -60.5 -9h-9.5c-3 0 -6.16699 0.333008 -9.5 1v-193h-148v692z" />
    <glyph glyph-name="paragraph" unicode="&#xb6;" horiz-adv-x="563" 
d="M507 60c0 -34 -4 -63.832 -12 -89.499s-21 -47 -39 -64s-41.667 -29.833 -71 -38.5s-65.333 -13.334 -108 -14.001l-10 109c23.333 4 42.5 8.83301 57.5 14.5s26.833 13 35.5 22s14.667 19.833 18 32.5s5 28 5 46v628h124v-646zM230 304.001
c-28.667 0 -55.167 5.16602 -79.5 15.499s-45.333 24.5 -63 42.5s-31.5 39 -41.5 63s-15 50 -15 78s5 54.167 15 78.5s24 45.833 42 64.5s39.167 33.334 63.5 44.001s50.5 16 78.5 16h87v-402h-87z" />
    <glyph glyph-name="periodcentered" unicode="&#xb7;" horiz-adv-x="294" 
d="M150 191c-28 0 -51.502 9.66699 -70.502 29s-28.5 43 -28.5 71c0 14 2.66699 26.833 8 38.5s12.333 21.834 21 30.501s18.834 15.5 30.501 20.5s24.167 7.5 37.5 7.5s25.833 -2.5 37.5 -7.5s22 -11.833 31 -20.5s16.167 -18.834 21.5 -30.501s8 -24.5 8 -38.5
c0 -27.333 -8.66699 -50.833 -26 -70.5s-40.666 -29.5 -69.999 -29.5z" />
    <glyph glyph-name="cedilla" unicode="&#xb8;" horiz-adv-x="463" 
d="M209 49l71.9961 1l-28 -86c34.667 -4 59.334 -15 74.001 -33s22 -37 22 -57c0 -12 -2.66699 -23.5 -8 -34.5s-13.166 -21 -23.499 -30s-23 -16.167 -38 -21.5s-31.833 -8 -50.5 -8c-21.333 0 -41.666 2.5 -60.999 7.5s-36.333 12.167 -51 21.5l25 62
c16.667 -8 30.334 -13 41.001 -15s21.667 -3 33 -3c10.667 0 20 2.5 28 7.5s12 12.5 12 22.5c0 6.66699 -1.83301 12 -5.5 16s-8 6.5 -13 7.5s-10.167 1.16699 -15.5 0.5s-10 -2 -14 -4l-39 20z" />
    <glyph glyph-name="onesuperior" unicode="&#xb9;" horiz-adv-x="358" 
d="M146 367v283l-32 -26l-60 70l104 84h92v-411h-104z" />
    <glyph glyph-name="ordmasculine" unicode="&#xba;" horiz-adv-x="362" 
d="M338 409c0 -42.667 -14.499 -75.834 -43.499 -99.501s-66.833 -35.5 -113.5 -35.5c-22.667 0 -43.5 3 -62.5 9s-35.5 14.833 -49.5 26.5s-24.833 25.834 -32.5 42.501s-11.5 35.667 -11.5 57v64c0 21.333 4.16699 40.333 12.5 57s19.666 30.834 33.999 42.501
s31 20.667 50 27s38.833 9.5 59.5 9.5c46 0 83.667 -12.333 113 -37s44 -58.334 44 -101.001v-62zM226.001 466c0 14.667 -4.66699 25.667 -14 33s-19.666 11 -30.999 11s-21.666 -3.66699 -30.999 -11s-14 -18.333 -14 -33v-49c0 -15.333 4.66699 -26.666 14 -33.999
s19.666 -11 30.999 -11s21.666 3.66699 30.999 11s14 18.666 14 33.999v49z" />
    <glyph glyph-name="guillemotright" unicode="&#xbb;" horiz-adv-x="591" 
d="M46 10l142 214l-142 214h140l146 -214l-146 -214h-140zM274 10l143 214l-143 214h140l146 -214l-146 -214h-140z" />
    <glyph glyph-name="onequarter" unicode="&#xbc;" horiz-adv-x="880" 
d="M174 277v283l-32 -26l-60 70l104 84h92v-411h-104zM263 -17h-102l425 730h103zM761 56v-56h-103v56h-183v73l142 282h110l-135 -269h66v101h103v-101h36v-86h-36z" />
    <glyph glyph-name="onehalf" unicode="&#xbd;" horiz-adv-x="880" 
d="M155 277v283l-32 -26l-60 70l104 84h92v-411h-104zM245 -17h-102l425 730h103zM816 296c0 -14 -2.6709 -27.167 -8.00391 -39.5s-12.166 -24 -20.499 -35s-17.666 -21 -27.999 -30s-20.5 -16.833 -30.5 -23.5l-24.5 -16.5l-29.5 -20c-10 -7 -19 -14.333 -27 -22
s-13.333 -15.167 -16 -22.5h184v-87h-292v67c0 19.333 3.5 36.833 10.5 52.5s16 30 27 43s23.167 24.5 36.5 34.5l39 28l50.5 35c14.333 10 21.5 21.333 21.5 34c0 8 -4.5 14.667 -13.5 20s-19.833 8 -32.5 8c-13.333 0 -27.166 -2.16699 -41.499 -6.5
s-28.166 -11.833 -41.499 -22.5l-51 77c19.333 14.667 41.166 26.167 65.499 34.5s49.5 12.5 75.5 12.5c18 0 35.667 -2 53 -6s32.833 -10.833 46.5 -20.5s24.834 -22.167 33.501 -37.5s13 -34.333 13 -57z" />
    <glyph glyph-name="threequarters" unicode="&#xbe;" horiz-adv-x="880" 
d="M199 692c20 0 38.9961 -2.3291 56.9961 -6.99609s33.833 -11.834 47.5 -21.501s24.5 -22.334 32.5 -38.001s12 -34.5 12 -56.5c0 -19.333 -5.5 -36.5 -16.5 -51.5s-25.167 -24.833 -42.5 -29.5c8.66699 -2 16.834 -5.83301 24.501 -11.5s14.334 -12.334 20.001 -20.001
s10 -16 13 -25s4.5 -17.5 4.5 -25.5c0 -24 -4.83301 -44.333 -14.5 -61s-22 -30.334 -37 -41.001s-31.667 -18.5 -50 -23.5s-36.166 -7.5 -53.499 -7.5c-26 0 -50.333 3.33301 -73 10s-43.667 17.667 -63 33l48 78c13.333 -9.33301 27.166 -16.5 41.499 -21.5
s28.166 -7.5 41.499 -7.5c16 0 29.167 3.5 39.5 10.5s15.5 16.167 15.5 27.5s-4.16699 20.833 -12.5 28.5s-17.833 11.5 -28.5 11.5h-67v82h67c10 0 18.833 3.5 26.5 10.5s11.5 16.5 11.5 28.5c0 13.333 -5.5 22.5 -16.5 27.5s-22.5 7.5 -34.5 7.5
c-13.333 0 -27.166 -2.16699 -41.499 -6.5s-28.166 -11.833 -41.499 -22.5l-47 79c19.333 15.333 40.333 26.333 63 33s47.334 10 74.001 10zM293.996 -16.9961h-102l425 730h103zM782.996 56.0039v-56h-103v56h-183v73l142 282h110l-135 -269h66v101h103v-101h36v-86h-36z
" />
    <glyph glyph-name="questiondown" unicode="&#xbf;" horiz-adv-x="503" 
d="M251 -207c-33.333 0 -63.6709 4.66797 -91.0039 14.001s-50.5 22 -69.5 38s-33.667 35 -44 57s-15.5 45.667 -15.5 71c0 23.333 3.33301 44 10 62s14.834 34.5 24.501 49.5s20.334 29.167 32.001 42.5s22.334 27 32.001 41s17.834 29 24.501 45s10 34 10 54v16h151v-17
c0 -19.333 -1.33301 -36.333 -4 -51s-7.33398 -29.334 -14.001 -44.001s-15.167 -30 -25.5 -46s-23.5 -34.667 -39.5 -56c-5.33301 -7.33301 -11 -17.5 -17 -30.5s-9 -26.5 -9 -40.5c0 -16 5.83301 -30 17.5 -42s31.834 -18 60.501 -18c19.333 0 38.5 3.83301 57.5 11.5
s38.167 20.167 57.5 37.5l72 -120c-30.667 -25.333 -65 -44 -103 -56s-77 -18 -117 -18zM238.995 501.001c25.333 0 46.666 -8.83301 63.999 -26.5s26 -39.167 26 -64.5c0 -12.667 -2.33301 -24.334 -7 -35.001s-11 -20 -19 -28s-17.333 -14.167 -28 -18.5
s-22 -6.5 -34 -6.5s-23.333 2.16699 -34 6.5s-20.167 10.5 -28.5 18.5s-14.833 17.333 -19.5 28s-7 22.334 -7 35.001c0 24.667 7.83301 46 23.5 64s36.834 27 63.501 27z" />
    <glyph glyph-name="Agrave" unicode="&#xc0;" horiz-adv-x="659" 
d="M438 136h-222l-41 -136h-171l243 689h164l239 -689h-170zM256 266h142l-14 47l-55 190h-4l-55 -190zM358 730l-219 93l80 112l190 -133z" />
    <glyph glyph-name="Aacute" unicode="&#xc1;" horiz-adv-x="659" 
d="M438 136h-222l-41 -136h-171l243 689h164l239 -689h-170zM256 266h142l-14 47l-55 190h-4l-55 -190zM259 804l182 131l80 -112l-214 -90z" />
    <glyph glyph-name="Acircumflex" unicode="&#xc2;" horiz-adv-x="659" 
d="M438 136h-222l-41 -136h-171l243 689h164l239 -689h-170zM256 266h142l-14 47l-55 190h-4l-55 -190zM326 805l-150 -78l-48 58l149 120h98l151 -120l-51 -59z" />
    <glyph glyph-name="Atilde" unicode="&#xc3;" horiz-adv-x="659" 
d="M438 136h-222l-41 -136h-171l243 689h164l239 -689h-170zM256 266h142l-14 47l-55 190h-4l-55 -190zM258 888c13.333 -0.666992 26.335 -3.5 39.002 -8.5s24.667 -10.5 36 -16.5l31.5 -16.5c9.66699 -5 18.167 -7.5 25.5 -7.5c11.333 0 21.5 3.33301 30.5 10
s20.167 18.667 33.5 36l71 -42c-18.667 -40 -37.5 -68.333 -56.5 -85s-40.5 -25 -64.5 -25c-14 0 -27.333 2.5 -40 7.5s-24.834 10.333 -36.501 16l-33.5 16c-10.667 5 -20.334 7.5 -29.001 7.5c-11.333 0 -22 -2.5 -32 -7.5s-22.667 -17.5 -38 -37.5l-69 43
c17.333 36.667 36 64.167 56 82.5s45.333 27.5 76 27.5z" />
    <glyph glyph-name="Adieresis" unicode="&#xc4;" horiz-adv-x="659" 
d="M438 136h-222l-41 -136h-171l243 689h164l239 -689h-170zM256 266h142l-14 47l-55 190h-4l-55 -190zM348 812c0 21.333 7.66699 39.5 23 54.5s33.666 22.5 54.999 22.5s39.5 -7.5 54.5 -22.5s22.5 -33.167 22.5 -54.5s-7.5 -39.666 -22.5 -54.999s-33.167 -23 -54.5 -23
s-39.666 7.66699 -54.999 23s-23 33.666 -23 54.999zM150 812c0 21.333 7.5 39.5 22.5 54.5s33.167 22.5 54.5 22.5s39.666 -7.5 54.999 -22.5s23 -33.167 23 -54.5s-7.66699 -39.666 -23 -54.999s-33.666 -23 -54.999 -23s-39.5 7.66699 -54.5 23
s-22.5 33.666 -22.5 54.999z" />
    <glyph glyph-name="Aring" unicode="&#xc5;" horiz-adv-x="659" 
d="M438 136h-222l-41 -136h-171l243 689h164l239 -689h-170zM256 266h142l-14 47l-55 190h-4l-55 -190zM368 831c0 10.667 -3.83301 19.5 -11.5 26.5s-17.167 10.5 -28.5 10.5s-21 -3.5 -29 -10.5s-12 -15.833 -12 -26.5s4 -19.667 12 -27s17.667 -11 29 -11
s20.833 3.66699 28.5 11s11.5 16.333 11.5 27zM203 831c0 16 3.33301 31 10 45s15.667 26.333 27 37s24.5 19 39.5 25s31.167 9 48.5 9c16.667 0 32.667 -3 48 -9s28.5 -14.333 39.5 -25s19.833 -23 26.5 -37s10 -29 10 -45s-3.33301 -31 -10 -45s-15.667 -26.333 -27 -37
s-24.5 -19 -39.5 -25s-31.167 -9 -48.5 -9s-33.5 3 -48.5 9s-28 14.333 -39 25s-19.833 23 -26.5 37s-10 29 -10 45z" />
    <glyph glyph-name="AE" unicode="&#xc6;" horiz-adv-x="1018" 
d="M492 143l-231 1l-82 -144h-180l415 689h559v-142h-322v-129h275v-141h-275v-136h322v-141h-481v143zM489 548l-159 -271l162 -1v272h-3z" />
    <glyph glyph-name="Ccedilla" unicode="&#xc7;" horiz-adv-x="577" 
d="M276 -3c-28 4 -55.0029 11.335 -81.0029 22.002s-49 25 -69 43s-36 39.5 -48 64.5s-18 53.833 -18 86.5v260c0 38 7.83301 70.833 23.5 98.5s36.167 50.667 61.5 69s53.833 32 85.5 41s63.834 13.5 96.501 13.5c40.667 0 80.667 -5.66699 120 -17s72.666 -29 99.999 -53
l-77 -123c-22.667 19.333 -45.834 32.166 -69.501 38.499s-46.5 9.5 -68.5 9.5c-13.333 0 -26.666 -2 -39.999 -6s-25.333 -10.167 -36 -18.5s-19.5 -19.333 -26.5 -33s-10.5 -30.5 -10.5 -50.5v-195c0 -20 3.5 -36.833 10.5 -50.5s16 -24.667 27 -33
s23.167 -14.5 36.5 -18.5s26.666 -6 39.999 -6c21.333 0 43.333 3.16699 66 9.5s46.667 19.166 72 38.499l75 -124c-26 -21.333 -56.333 -38 -91 -50s-71 -18.667 -109 -20l-9 -29c34.667 -4 59.334 -15 74.001 -33s22 -37 22 -57c0 -12 -2.66699 -23.5 -8 -34.5
s-13.166 -21 -23.499 -30s-23 -16.167 -38 -21.5s-31.833 -8 -50.5 -8c-21.333 0 -41.666 2.5 -60.999 7.5s-36.333 12.167 -51 21.5l25 62c16.667 -8 30.334 -13 41.001 -15s21.667 -3 33 -3c10.667 0 20 2.5 28 7.5s12 12.5 12 22.5c0 6.66699 -1.83301 12 -5.5 16
s-8 6.5 -13 7.5s-10.167 1.16699 -15.5 0.5s-10 -2 -14 -4l-39 20z" />
    <glyph glyph-name="Egrave" unicode="&#xc8;" horiz-adv-x="586" 
d="M60 689h481v-142h-322v-129h275v-141h-275v-136h322v-141h-481v689zM347 730l-219 93l80 112l190 -133z" />
    <glyph glyph-name="Eacute" unicode="&#xc9;" horiz-adv-x="586" 
d="M60 689h481v-142h-322v-129h275v-141h-275v-136h322v-141h-481v689zM229 804l182 131l80 -112l-214 -90z" />
    <glyph glyph-name="Ecircumflex" unicode="&#xca;" horiz-adv-x="586" 
d="M60 689h481v-142h-322v-129h275v-141h-275v-136h322v-141h-481v689zM301 805l-150 -78l-48 58l149 120h98l151 -120l-51 -59z" />
    <glyph glyph-name="Edieresis" unicode="&#xcb;" horiz-adv-x="586" 
d="M60 689h481v-142h-322v-129h275v-141h-275v-136h322v-141h-481v689zM326 812c0 21.333 7.66699 39.5 23 54.5s33.666 22.5 54.999 22.5s39.5 -7.5 54.5 -22.5s22.5 -33.167 22.5 -54.5s-7.5 -39.666 -22.5 -54.999s-33.167 -23 -54.5 -23s-39.666 7.66699 -54.999 23
s-23 33.666 -23 54.999zM128 812c0 21.333 7.5 39.5 22.5 54.5s33.167 22.5 54.5 22.5s39.666 -7.5 54.999 -22.5s23 -33.167 23 -54.5s-7.66699 -39.666 -23 -54.999s-33.666 -23 -54.999 -23s-39.5 7.66699 -54.5 23s-22.5 33.666 -22.5 54.999z" />
    <glyph glyph-name="Igrave" unicode="&#xcc;" horiz-adv-x="319" 
d="M239 689v-689h-159v689h159zM173 730l-219 93l80 112l190 -133z" />
    <glyph glyph-name="Iacute" unicode="&#xcd;" horiz-adv-x="319" 
d="M239 689v-689h-159v689h159zM107 804l182 131l80 -112l-214 -90z" />
    <glyph glyph-name="Icircumflex" unicode="&#xce;" horiz-adv-x="319" 
d="M239 689v-689h-159v689h159zM160 805l-150 -78l-48 58l149 120h98l151 -120l-51 -59z" />
    <glyph glyph-name="Idieresis" unicode="&#xcf;" horiz-adv-x="319" 
d="M239 689v-689h-159v689h159zM182 812c0 21.333 7.66699 39.5 23 54.5s33.666 22.5 54.999 22.5s39.5 -7.5 54.5 -22.5s22.5 -33.167 22.5 -54.5s-7.5 -39.666 -22.5 -54.999s-33.167 -23 -54.5 -23s-39.666 7.66699 -54.999 23s-23 33.666 -23 54.999zM-16 812
c0 21.333 7.5 39.5 22.5 54.5s33.167 22.5 54.5 22.5s39.666 -7.5 54.999 -22.5s23 -33.167 23 -54.5s-7.66699 -39.666 -23 -54.999s-33.666 -23 -54.999 -23s-39.5 7.66699 -54.5 23s-22.5 33.666 -22.5 54.999z" />
    <glyph glyph-name="Eth" unicode="&#xd0;" horiz-adv-x="622" 
d="M6 391h54v298h262c35.333 0 68.166 -4.33301 98.499 -13s56.833 -22 79.5 -40s40.334 -40.667 53.001 -68s19 -60 19 -98v-250c0 -38 -7.16699 -70.833 -21.5 -98.5s-33.333 -50.5 -57 -68.5s-50.5 -31.333 -80.5 -40s-60.333 -13 -91 -13h-262v284h-54v107zM412 439
c0 20 -3.33301 36.833 -10 50.5s-15.167 24.667 -25.5 33s-22.166 14.5 -35.499 18.5s-26.333 6 -39 6h-83v-156h94v-107h-94v-144h83c12.667 0 25.667 2 39 6s25.166 10.167 35.499 18.5s18.833 19.5 25.5 33.5s10 31 10 51v190z" />
    <glyph glyph-name="Ntilde" unicode="&#xd1;" horiz-adv-x="690" 
d="M219 396v-396h-159v689h143l115 -167l151 -229h3v396h158v-689h-142l-142 210l-122 186h-5zM277 884c13.333 -0.666992 26.335 -3.5 39.002 -8.5s24.667 -10.5 36 -16.5l31.5 -16.5c9.66699 -5 18.167 -7.5 25.5 -7.5c11.333 0 21.5 3.33301 30.5 10
s20.167 18.667 33.5 36l71 -42c-18.667 -40 -37.5 -68.333 -56.5 -85s-40.5 -25 -64.5 -25c-14 0 -27.333 2.5 -40 7.5s-24.834 10.333 -36.501 16l-33.5 16c-10.667 5 -20.334 7.5 -29.001 7.5c-11.333 0 -22 -2.5 -32 -7.5s-22.667 -17.5 -38 -37.5l-69 43
c17.333 36.667 36 64.167 56 82.5s45.333 27.5 76 27.5z" />
    <glyph glyph-name="Ograve" unicode="&#xd2;" horiz-adv-x="650" 
d="M595 218c0 -38 -7.33203 -71.001 -21.999 -99.001s-34.334 -51.333 -59.001 -70s-53.334 -32.667 -86.001 -42s-67 -14 -103 -14s-70.167 4.66699 -102.5 14s-61 23.333 -86 42s-44.833 42 -59.5 70s-22 61 -22 99v259c0 38 8 70.667 24 98s36.833 50 62.5 68
s54.5 31.333 86.5 40s64.333 13 97 13s65.167 -4.66699 97.5 -14s61.333 -23.166 87 -41.499s46.334 -41.5 62.001 -69.5s23.5 -61 23.5 -99v-254zM435.001 441.999c0 20 -3.33301 36.833 -10 50.5s-15.167 24.667 -25.5 33s-22.166 14.5 -35.499 18.5s-26.333 6 -39 6
c-13.333 0 -26.5 -2 -39.5 -6s-24.833 -10.167 -35.5 -18.5s-19.334 -19.333 -26.001 -33s-10 -30.5 -10 -50.5v-195c0 -20 3.33301 -36.833 10 -50.5s15.334 -24.667 26.001 -33s22.5 -14.5 35.5 -18.5s26.167 -6 39.5 -6c12.667 0 25.667 2 39 6
s25.166 10.167 35.499 18.5s18.833 19.333 25.5 33s10 30.5 10 50.5v195zM389.001 729.999l-219 93l80 112l190 -133z" />
    <glyph glyph-name="Oacute" unicode="&#xd3;" horiz-adv-x="650" 
d="M595 218c0 -38 -7.33203 -71.001 -21.999 -99.001s-34.334 -51.333 -59.001 -70s-53.334 -32.667 -86.001 -42s-67 -14 -103 -14s-70.167 4.66699 -102.5 14s-61 23.333 -86 42s-44.833 42 -59.5 70s-22 61 -22 99v259c0 38 8 70.667 24 98s36.833 50 62.5 68
s54.5 31.333 86.5 40s64.333 13 97 13s65.167 -4.66699 97.5 -14s61.333 -23.166 87 -41.499s46.334 -41.5 62.001 -69.5s23.5 -61 23.5 -99v-254zM435.001 441.999c0 20 -3.33301 36.833 -10 50.5s-15.167 24.667 -25.5 33s-22.166 14.5 -35.499 18.5s-26.333 6 -39 6
c-13.333 0 -26.5 -2 -39.5 -6s-24.833 -10.167 -35.5 -18.5s-19.334 -19.333 -26.001 -33s-10 -30.5 -10 -50.5v-195c0 -20 3.33301 -36.833 10 -50.5s15.334 -24.667 26.001 -33s22.5 -14.5 35.5 -18.5s26.167 -6 39.5 -6c12.667 0 25.667 2 39 6
s25.166 10.167 35.499 18.5s18.833 19.333 25.5 33s10 30.5 10 50.5v195zM229.001 803.999l182 131l80 -112l-214 -90z" />
    <glyph glyph-name="Ocircumflex" unicode="&#xd4;" horiz-adv-x="650" 
d="M595 218c0 -38 -7.33203 -71.001 -21.999 -99.001s-34.334 -51.333 -59.001 -70s-53.334 -32.667 -86.001 -42s-67 -14 -103 -14s-70.167 4.66699 -102.5 14s-61 23.333 -86 42s-44.833 42 -59.5 70s-22 61 -22 99v259c0 38 8 70.667 24 98s36.833 50 62.5 68
s54.5 31.333 86.5 40s64.333 13 97 13s65.167 -4.66699 97.5 -14s61.333 -23.166 87 -41.499s46.334 -41.5 62.001 -69.5s23.5 -61 23.5 -99v-254zM435.001 441.999c0 20 -3.33301 36.833 -10 50.5s-15.167 24.667 -25.5 33s-22.166 14.5 -35.499 18.5s-26.333 6 -39 6
c-13.333 0 -26.5 -2 -39.5 -6s-24.833 -10.167 -35.5 -18.5s-19.334 -19.333 -26.001 -33s-10 -30.5 -10 -50.5v-195c0 -20 3.33301 -36.833 10 -50.5s15.334 -24.667 26.001 -33s22.5 -14.5 35.5 -18.5s26.167 -6 39.5 -6c12.667 0 25.667 2 39 6
s25.166 10.167 35.499 18.5s18.833 19.333 25.5 33s10 30.5 10 50.5v195zM327.001 804.999l-150 -78l-48 58l149 120h98l151 -120l-51 -59z" />
    <glyph glyph-name="Otilde" unicode="&#xd5;" horiz-adv-x="650" 
d="M595 218c0 -38 -7.33203 -71.001 -21.999 -99.001s-34.334 -51.333 -59.001 -70s-53.334 -32.667 -86.001 -42s-67 -14 -103 -14s-70.167 4.66699 -102.5 14s-61 23.333 -86 42s-44.833 42 -59.5 70s-22 61 -22 99v259c0 38 8 70.667 24 98s36.833 50 62.5 68
s54.5 31.333 86.5 40s64.333 13 97 13s65.167 -4.66699 97.5 -14s61.333 -23.166 87 -41.499s46.334 -41.5 62.001 -69.5s23.5 -61 23.5 -99v-254zM435.001 441.999c0 20 -3.33301 36.833 -10 50.5s-15.167 24.667 -25.5 33s-22.166 14.5 -35.499 18.5s-26.333 6 -39 6
c-13.333 0 -26.5 -2 -39.5 -6s-24.833 -10.167 -35.5 -18.5s-19.334 -19.333 -26.001 -33s-10 -30.5 -10 -50.5v-195c0 -20 3.33301 -36.833 10 -50.5s15.334 -24.667 26.001 -33s22.5 -14.5 35.5 -18.5s26.167 -6 39.5 -6c12.667 0 25.667 2 39 6
s25.166 10.167 35.499 18.5s18.833 19.333 25.5 33s10 30.5 10 50.5v195zM258.001 880.999c13.333 -0.666992 26.335 -3.5 39.002 -8.5s24.667 -10.5 36 -16.5l31.5 -16.5c9.66699 -5 18.167 -7.5 25.5 -7.5c11.333 0 21.5 3.33301 30.5 10s20.167 18.667 33.5 36l71 -42
c-18.667 -40 -37.5 -68.333 -56.5 -85s-40.5 -25 -64.5 -25c-14 0 -27.333 2.5 -40 7.5s-24.834 10.333 -36.501 16l-33.5 16c-10.667 5 -20.334 7.5 -29.001 7.5c-11.333 0 -22 -2.5 -32 -7.5s-22.667 -17.5 -38 -37.5l-69 43c17.333 36.667 36 64.167 56 82.5
s45.333 27.5 76 27.5z" />
    <glyph glyph-name="Odieresis" unicode="&#xd6;" horiz-adv-x="650" 
d="M595 218c0 -38 -7.33203 -71.001 -21.999 -99.001s-34.334 -51.333 -59.001 -70s-53.334 -32.667 -86.001 -42s-67 -14 -103 -14s-70.167 4.66699 -102.5 14s-61 23.333 -86 42s-44.833 42 -59.5 70s-22 61 -22 99v259c0 38 8 70.667 24 98s36.833 50 62.5 68
s54.5 31.333 86.5 40s64.333 13 97 13s65.167 -4.66699 97.5 -14s61.333 -23.166 87 -41.499s46.334 -41.5 62.001 -69.5s23.5 -61 23.5 -99v-254zM435.001 441.999c0 20 -3.33301 36.833 -10 50.5s-15.167 24.667 -25.5 33s-22.166 14.5 -35.499 18.5s-26.333 6 -39 6
c-13.333 0 -26.5 -2 -39.5 -6s-24.833 -10.167 -35.5 -18.5s-19.334 -19.333 -26.001 -33s-10 -30.5 -10 -50.5v-195c0 -20 3.33301 -36.833 10 -50.5s15.334 -24.667 26.001 -33s22.5 -14.5 35.5 -18.5s26.167 -6 39.5 -6c12.667 0 25.667 2 39 6
s25.166 10.167 35.499 18.5s18.833 19.333 25.5 33s10 30.5 10 50.5v195zM350.001 811.999c0 21.333 7.66699 39.5 23 54.5s33.666 22.5 54.999 22.5s39.5 -7.5 54.5 -22.5s22.5 -33.167 22.5 -54.5s-7.5 -39.666 -22.5 -54.999s-33.167 -23 -54.5 -23
s-39.666 7.66699 -54.999 23s-23 33.666 -23 54.999zM152.001 811.999c0 21.333 7.5 39.5 22.5 54.5s33.167 22.5 54.5 22.5s39.666 -7.5 54.999 -22.5s23 -33.167 23 -54.5s-7.66699 -39.666 -23 -54.999s-33.666 -23 -54.999 -23s-39.5 7.66699 -54.5 23
s-22.5 33.666 -22.5 54.999z" />
    <glyph glyph-name="multiply" unicode="&#xd7;" horiz-adv-x="550" 
d="M277 213l-160 -160l-87 87l160 160l-166 166l82 82l166 -166l157 158l88 -88l-158 -157l166 -166l-82 -82z" />
    <glyph glyph-name="Oslash" unicode="&#xd8;" horiz-adv-x="650" 
d="M53 26l44.002 60.998c-13.333 17.333 -23.666 36.833 -30.999 58.5s-11 45.834 -11 72.501v259c0 38 8 70.667 24 98s36.833 50 62.5 68s54.5 31.333 86.5 40s64.333 13 97 13c32 0 63.667 -4.5 95 -13.5s59.666 -22.167 84.999 -39.5l41 57l51 -37l-46 -62
c13.333 -17.333 24 -36.666 32 -57.999s12 -45 12 -71v-254c0 -38 -7.33301 -71 -22 -99s-34.334 -51.333 -59.001 -70s-53.334 -32.667 -86.001 -42s-67 -14 -103 -14c-34.667 0 -67.667 4.33301 -99 13s-59.333 21.667 -84 39l-40 -54zM435.002 441.998
l0.000976562 0.999023l-197 -268c11.333 -13.333 24.833 -22.666 40.5 -27.999s31.167 -8 46.5 -8c12.667 0 25.667 2 39 6s25.166 10.167 35.499 18.5s18.833 19.333 25.5 33s10 30.5 10 50.5v195zM214.003 245.997l196 269c-10.667 12 -23.667 20.833 -39 26.5
s-30.666 8.5 -45.999 8.5c-13.333 0 -26.5 -2 -39.5 -6s-24.833 -10.167 -35.5 -18.5s-19.334 -19.333 -26.001 -33s-10 -30.5 -10 -50.5v-195v-1z" />
    <glyph glyph-name="Ugrave" unicode="&#xd9;" horiz-adv-x="660" 
d="M600 219c0 -38 -7.6709 -71 -23.0039 -99s-35.666 -51.5 -60.999 -70.5s-54.166 -33.167 -86.499 -42.5s-65.5 -14 -99.5 -14s-67.167 4.5 -99.5 13.5s-61.166 22.667 -86.499 41s-45.666 41.333 -60.999 69s-23 60.5 -23 98.5v474h159v-444
c0 -20 3.33301 -36.833 10 -50.5s15.334 -24.667 26.001 -33s22.5 -14.5 35.5 -18.5s26.167 -6 39.5 -6c12.667 0 25.667 2 39 6s25.166 10.167 35.499 18.5s18.833 19.333 25.5 33s10 30.5 10 50.5v444h160v-470zM375.996 730l-219 93l80 112l190 -133z" />
    <glyph glyph-name="Uacute" unicode="&#xda;" horiz-adv-x="660" 
d="M600 219c0 -38 -7.6709 -71 -23.0039 -99s-35.666 -51.5 -60.999 -70.5s-54.166 -33.167 -86.499 -42.5s-65.5 -14 -99.5 -14s-67.167 4.5 -99.5 13.5s-61.166 22.667 -86.499 41s-45.666 41.333 -60.999 69s-23 60.5 -23 98.5v474h159v-444
c0 -20 3.33301 -36.833 10 -50.5s15.334 -24.667 26.001 -33s22.5 -14.5 35.5 -18.5s26.167 -6 39.5 -6c12.667 0 25.667 2 39 6s25.166 10.167 35.499 18.5s18.833 19.333 25.5 33s10 30.5 10 50.5v444h160v-470zM228.996 804l182 131l80 -112l-214 -90z" />
    <glyph glyph-name="Ucircumflex" unicode="&#xdb;" horiz-adv-x="660" 
d="M600 219c0 -38 -7.6709 -71 -23.0039 -99s-35.666 -51.5 -60.999 -70.5s-54.166 -33.167 -86.499 -42.5s-65.5 -14 -99.5 -14s-67.167 4.5 -99.5 13.5s-61.166 22.667 -86.499 41s-45.666 41.333 -60.999 69s-23 60.5 -23 98.5v474h159v-444
c0 -20 3.33301 -36.833 10 -50.5s15.334 -24.667 26.001 -33s22.5 -14.5 35.5 -18.5s26.167 -6 39.5 -6c12.667 0 25.667 2 39 6s25.166 10.167 35.499 18.5s18.833 19.333 25.5 33s10 30.5 10 50.5v444h160v-470zM326.996 805l-150 -78l-48 58l149 120h98l151 -120l-51 -59
z" />
    <glyph glyph-name="Udieresis" unicode="&#xdc;" horiz-adv-x="660" 
d="M600 219c0 -38 -7.6709 -71 -23.0039 -99s-35.666 -51.5 -60.999 -70.5s-54.166 -33.167 -86.499 -42.5s-65.5 -14 -99.5 -14s-67.167 4.5 -99.5 13.5s-61.166 22.667 -86.499 41s-45.666 41.333 -60.999 69s-23 60.5 -23 98.5v474h159v-444
c0 -20 3.33301 -36.833 10 -50.5s15.334 -24.667 26.001 -33s22.5 -14.5 35.5 -18.5s26.167 -6 39.5 -6c12.667 0 25.667 2 39 6s25.166 10.167 35.499 18.5s18.833 19.333 25.5 33s10 30.5 10 50.5v444h160v-470zM350.996 812c0 21.333 7.66699 39.5 23 54.5
s33.666 22.5 54.999 22.5s39.5 -7.5 54.5 -22.5s22.5 -33.167 22.5 -54.5s-7.5 -39.666 -22.5 -54.999s-33.167 -23 -54.5 -23s-39.666 7.66699 -54.999 23s-23 33.666 -23 54.999zM152.996 812c0 21.333 7.5 39.5 22.5 54.5s33.167 22.5 54.5 22.5
s39.666 -7.5 54.999 -22.5s23 -33.167 23 -54.5s-7.66699 -39.666 -23 -54.999s-33.666 -23 -54.999 -23s-39.5 7.66699 -54.5 23s-22.5 33.666 -22.5 54.999z" />
    <glyph glyph-name="Yacute" unicode="&#xdd;" horiz-adv-x="596" 
d="M301 420l51 117l65 152h169l-208 -417v-272h-159v272l-209 417h169l66 -155l50 -114h6zM229 804l182 131l80 -112l-214 -90z" />
    <glyph glyph-name="Thorn" unicode="&#xde;" horiz-adv-x="587" 
d="M219 272h122c29.333 0 50.5 7.5 63.5 22.5s19.5 33.167 19.5 54.5s-6.66699 39.5 -20 54.5s-34.333 22.5 -63 22.5h-122v-154zM219 688l-0.000976562 -120h159c34.667 0 64.5 -6.66699 89.5 -20s45.667 -30.5 62 -51.5s28.333 -44.5 36 -70.5s11.5 -51.667 11.5 -77
s-4.5 -51 -13.5 -77s-22.167 -49.5 -39.5 -70.5s-38.666 -38.167 -63.999 -51.5s-54.333 -20 -87 -20h-154v-130h-159v689z" />
    <glyph glyph-name="germandbls" unicode="&#xdf;" horiz-adv-x="539" 
d="M198 0h-148.003v478c0 32 5 62.333 15 91s24.167 53.667 42.5 75s40.833 38.166 67.5 50.499s57 18.5 91 18.5c40.667 0 74.667 -5.83301 102 -17.5s49.166 -26.5 65.499 -44.5s27.833 -37.833 34.5 -59.5s10 -42.5 10 -62.5c0 -9.33301 -1.16699 -20.166 -3.5 -32.499
s-6.16602 -24.5 -11.499 -36.5s-12.333 -23.167 -21 -33.5s-19.334 -18.5 -32.001 -24.5c30.667 -10.667 52.334 -28.334 65.001 -53.001s19.334 -53 20.001 -85l1 -91c0 -26.667 -3.5 -51 -10.5 -73s-17.667 -41 -32 -57s-32.333 -28.333 -54 -37s-47.167 -13 -76.5 -13
c-7.33301 0 -15.833 0.333008 -25.5 1s-19.834 1.66699 -30.501 3v136h21c16.667 0 30.667 4.66699 42 14s17 25.666 17 48.999v59c0 12.667 -2.33301 23.667 -7 33s-10.5 16.833 -17.5 22.5s-15.167 9.83398 -24.5 12.501s-18.333 4 -27 4h-8v116h11
c12 0 22.333 2.66699 31 8s15.834 11.833 21.501 19.5s9.83398 15.834 12.501 24.501s4 16.667 4 24c0 19.333 -5.66699 36.5 -17 51.5s-30.666 22.5 -57.999 22.5c-12.667 0 -23.5 -2.83301 -32.5 -8.5s-16.167 -12.667 -21.5 -21s-9.33301 -17 -12 -26
s-4 -16.833 -4 -23.5v-514z" />
    <glyph glyph-name="agrave" unicode="&#xe0;" horiz-adv-x="539" 
d="M341 38c-26 -15.333 -50.8291 -26.167 -74.4961 -32.5s-45.834 -9.5 -66.501 -9.5c-52 0 -91.667 13.5 -119 40.5s-41 64.167 -41 111.5c0 27.333 5.5 50.5 16.5 69.5s25.333 34.5 43 46.5s37.167 20.833 58.5 26.5s42.333 8.5 63 8.5h120v13
c0 17.333 -5.33301 31.5 -16 42.5s-32.334 16.5 -65.001 16.5c-16 0 -35.333 -2.16699 -58 -6.5s-45.667 -15.833 -69 -34.5l-64 106c36 28 71.667 46 107 54s68.666 12 99.999 12c73.333 0 127.166 -16.5 161.499 -49.5s51.5 -83.833 51.5 -152.5v-300h-136l-9 37z
M342.004 194.999h-94c-12.667 0 -23.5 -2.33301 -32.5 -7s-13.5 -14 -13.5 -28c0 -8 3.16699 -15.333 9.5 -22s17.5 -10 33.5 -10c20 0 38.833 3 56.5 9s31.167 12 40.5 18v40zM270.004 536.999l-146 186l134 46l93 -194z" />
    <glyph glyph-name="aacute" unicode="&#xe1;" horiz-adv-x="539" 
d="M341 38c-26 -15.333 -50.8291 -26.167 -74.4961 -32.5s-45.834 -9.5 -66.501 -9.5c-52 0 -91.667 13.5 -119 40.5s-41 64.167 -41 111.5c0 27.333 5.5 50.5 16.5 69.5s25.333 34.5 43 46.5s37.167 20.833 58.5 26.5s42.333 8.5 63 8.5h120v13
c0 17.333 -5.33301 31.5 -16 42.5s-32.334 16.5 -65.001 16.5c-16 0 -35.333 -2.16699 -58 -6.5s-45.667 -15.833 -69 -34.5l-64 106c36 28 71.667 46 107 54s68.666 12 99.999 12c73.333 0 127.166 -16.5 161.499 -49.5s51.5 -83.833 51.5 -152.5v-300h-136l-9 37z
M342.004 194.999h-94c-12.667 0 -23.5 -2.33301 -32.5 -7s-13.5 -14 -13.5 -28c0 -8 3.16699 -15.333 9.5 -22s17.5 -10 33.5 -10c20 0 38.833 3 56.5 9s31.167 12 40.5 18v40zM226.004 566.999l85 203l133 -43l-135 -190z" />
    <glyph glyph-name="acircumflex" unicode="&#xe2;" horiz-adv-x="539" 
d="M341 38c-26 -15.333 -50.8291 -26.167 -74.4961 -32.5s-45.834 -9.5 -66.501 -9.5c-52 0 -91.667 13.5 -119 40.5s-41 64.167 -41 111.5c0 27.333 5.5 50.5 16.5 69.5s25.333 34.5 43 46.5s37.167 20.833 58.5 26.5s42.333 8.5 63 8.5h120v13
c0 17.333 -5.33301 31.5 -16 42.5s-32.334 16.5 -65.001 16.5c-16 0 -35.333 -2.16699 -58 -6.5s-45.667 -15.833 -69 -34.5l-64 106c36 28 71.667 46 107 54s68.666 12 99.999 12c73.333 0 127.166 -16.5 161.499 -49.5s51.5 -83.833 51.5 -152.5v-300h-136l-9 37z
M342.004 194.999h-94c-12.667 0 -23.5 -2.33301 -32.5 -7s-13.5 -14 -13.5 -28c0 -8 3.16699 -15.333 9.5 -22s17.5 -10 33.5 -10c20 0 38.833 3 56.5 9s31.167 12 40.5 18v40zM279.004 624.999l-72.5 -52l-72.5 -51l-53 48l147 155h103l148 -155l-56 -49z" />
    <glyph glyph-name="atilde" unicode="&#xe3;" horiz-adv-x="539" 
d="M341 38c-26 -15.333 -50.8291 -26.167 -74.4961 -32.5s-45.834 -9.5 -66.501 -9.5c-52 0 -91.667 13.5 -119 40.5s-41 64.167 -41 111.5c0 27.333 5.5 50.5 16.5 69.5s25.333 34.5 43 46.5s37.167 20.833 58.5 26.5s42.333 8.5 63 8.5h120v13
c0 17.333 -5.33301 31.5 -16 42.5s-32.334 16.5 -65.001 16.5c-16 0 -35.333 -2.16699 -58 -6.5s-45.667 -15.833 -69 -34.5l-64 106c36 28 71.667 46 107 54s68.666 12 99.999 12c73.333 0 127.166 -16.5 161.499 -49.5s51.5 -83.833 51.5 -152.5v-300h-136l-9 37z
M342.004 194.999h-94c-12.667 0 -23.5 -2.33301 -32.5 -7s-13.5 -14 -13.5 -28c0 -8 3.16699 -15.333 9.5 -22s17.5 -10 33.5 -10c20 0 38.833 3 56.5 9s31.167 12 40.5 18v40zM202.004 710.999c13.333 -0.666992 26.335 -3.5 39.002 -8.5s24.667 -10.5 36 -16.5l31.5 -16.5
c9.66699 -5 18.167 -7.5 25.5 -7.5c11.333 0 21.5 3.33301 30.5 10s20.167 18.667 33.5 36l71 -42c-18.667 -40 -37.5 -68.333 -56.5 -85s-40.5 -25 -64.5 -25c-14 0 -27.333 2.5 -40 7.5s-24.834 10.333 -36.501 16l-33.5 16c-10.667 5 -20.334 7.5 -29.001 7.5
c-11.333 0 -22 -2.5 -32 -7.5s-22.667 -17.5 -38 -37.5l-69 43c17.333 36.667 36 64.167 56 82.5s45.333 27.5 76 27.5z" />
    <glyph glyph-name="adieresis" unicode="&#xe4;" horiz-adv-x="539" 
d="M341 38c-26 -15.333 -50.8291 -26.167 -74.4961 -32.5s-45.834 -9.5 -66.501 -9.5c-52 0 -91.667 13.5 -119 40.5s-41 64.167 -41 111.5c0 27.333 5.5 50.5 16.5 69.5s25.333 34.5 43 46.5s37.167 20.833 58.5 26.5s42.333 8.5 63 8.5h120v13
c0 17.333 -5.33301 31.5 -16 42.5s-32.334 16.5 -65.001 16.5c-16 0 -35.333 -2.16699 -58 -6.5s-45.667 -15.833 -69 -34.5l-64 106c36 28 71.667 46 107 54s68.666 12 99.999 12c73.333 0 127.166 -16.5 161.499 -49.5s51.5 -83.833 51.5 -152.5v-300h-136l-9 37z
M342.004 194.999h-94c-12.667 0 -23.5 -2.33301 -32.5 -7s-13.5 -14 -13.5 -28c0 -8 3.16699 -15.333 9.5 -22s17.5 -10 33.5 -10c20 0 38.833 3 56.5 9s31.167 12 40.5 18v40zM303.004 618.999c0 21.333 7.66699 39.5 23 54.5s33.666 22.5 54.999 22.5
s39.5 -7.5 54.5 -22.5s22.5 -33.167 22.5 -54.5s-7.5 -39.666 -22.5 -54.999s-33.167 -23 -54.5 -23s-39.666 7.66699 -54.999 23s-23 33.666 -23 54.999zM105.004 618.999c0 21.333 7.5 39.5 22.5 54.5s33.167 22.5 54.5 22.5s39.666 -7.5 54.999 -22.5
s23 -33.167 23 -54.5s-7.66699 -39.666 -23 -54.999s-33.666 -23 -54.999 -23s-39.5 7.66699 -54.5 23s-22.5 33.666 -22.5 54.999z" />
    <glyph glyph-name="aring" unicode="&#xe5;" horiz-adv-x="539" 
d="M341 38c-26 -15.333 -50.8291 -26.167 -74.4961 -32.5s-45.834 -9.5 -66.501 -9.5c-52 0 -91.667 13.5 -119 40.5s-41 64.167 -41 111.5c0 27.333 5.5 50.5 16.5 69.5s25.333 34.5 43 46.5s37.167 20.833 58.5 26.5s42.333 8.5 63 8.5h120v13
c0 17.333 -5.33301 31.5 -16 42.5s-32.334 16.5 -65.001 16.5c-16 0 -35.333 -2.16699 -58 -6.5s-45.667 -15.833 -69 -34.5l-64 106c36 28 71.667 46 107 54s68.666 12 99.999 12c73.333 0 127.166 -16.5 161.499 -49.5s51.5 -83.833 51.5 -152.5v-300h-136l-9 37z
M342.004 194.999h-94c-12.667 0 -23.5 -2.33301 -32.5 -7s-13.5 -14 -13.5 -28c0 -8 3.16699 -15.333 9.5 -22s17.5 -10 33.5 -10c20 0 38.833 3 56.5 9s31.167 12 40.5 18v40zM331.004 642.999c0 10.667 -3.83301 19.5 -11.5 26.5s-17.167 10.5 -28.5 10.5
s-21 -3.5 -29 -10.5s-12 -15.833 -12 -26.5s4 -19.667 12 -27s17.667 -11 29 -11s20.833 3.66699 28.5 11s11.5 16.333 11.5 27zM166.004 642.999c0 16 3.33301 31 10 45s15.667 26.333 27 37s24.5 19 39.5 25s31.167 9 48.5 9c16.667 0 32.667 -3 48 -9
s28.5 -14.333 39.5 -25s19.833 -23 26.5 -37s10 -29 10 -45s-3.33301 -31 -10 -45s-15.667 -26.333 -27 -37s-24.5 -19 -39.5 -25s-31.167 -9 -48.5 -9s-33.5 3 -48.5 9s-28 14.333 -39 25s-19.833 23 -26.5 37s-10 29 -10 45z" />
    <glyph glyph-name="ae" unicode="&#xe6;" horiz-adv-x="817" 
d="M777 207l-287.998 -0.000976562v-10c0.666992 -23.333 8.5 -40.333 23.5 -51s31.833 -16 50.5 -16c12 0 28.167 1.66699 48.5 5s42.833 13.666 67.5 30.999l78 -101c-16.667 -15.333 -32.834 -27.5 -48.501 -36.5s-31.334 -16 -47.001 -21s-31.334 -8.33301 -47.001 -10
s-31.5 -2.5 -47.5 -2.5c-33.333 0 -64.833 4.5 -94.5 13.5s-55.167 23.167 -76.5 42.5c-21.333 -15.333 -42 -27 -62 -35s-38.5 -13.667 -55.5 -17s-32.167 -5.16602 -45.5 -5.49902s-23.666 -0.5 -30.999 -0.5c-52 0 -92 14 -120 42s-42 65.667 -42 113
c0 27.333 5.5 50.5 16.5 69.5s25.333 34.333 43 46s37.167 20.167 58.5 25.5s42.333 8 63 8h120v13c0 17.333 -6.5 31.5 -19.5 42.5s-35.833 16.5 -68.5 16.5c-16 0 -34.167 -2.16699 -54.5 -6.5s-42.166 -15.833 -65.499 -34.5l-68 106c36 28 71.167 46 105.5 54
s67.166 12 98.499 12c66 0 117 -13 153 -39c39.333 26 85 39 137 39c31.333 0 60.333 -4.33301 87 -13s49.667 -21.167 69 -37.5s34.5 -36.666 45.5 -60.999s16.5 -52.5 16.5 -84.5v-97zM342.002 206.999h-88c-14.667 0 -27 -4.33301 -37 -13s-15 -20 -15 -34
c0 -8 3.16699 -15.333 9.5 -22s17.5 -10 33.5 -10c20 0 38.833 3 56.5 9s31.167 12 40.5 18v52zM629.002 302.999c0 20 -7 35.333 -21 46s-30 16 -48 16s-34.167 -5.5 -48.5 -16.5s-21.833 -25.833 -22.5 -44.5v-7h140v6z" />
    <glyph glyph-name="ccedilla" unicode="&#xe7;" horiz-adv-x="465" 
d="M208 -2c-22 3.33301 -43.001 9.33203 -63.001 17.999s-37.333 20.167 -52 34.5s-26.334 31.833 -35.001 52.5s-13 44.667 -13 72v148c0 30.667 6.16699 57.334 18.5 80.001s28.5 41.5 48.5 56.5s42.167 26 66.5 33s48.5 10.5 72.5 10.5c16 0 32.167 -0.666992 48.5 -2
s32.833 -4.33301 49.5 -9s33.167 -11.834 49.5 -21.501s32.5 -22.5 48.5 -38.5l-84 -107c-23.333 20.667 -42.666 33 -57.999 37s-28.333 6 -39 6c-18 0 -34.833 -5.5 -50.5 -16.5s-23.5 -29.167 -23.5 -54.5v-95c0 -26 7.33301 -44.333 22 -55s31 -16 49 -16
c12 0 27.167 3 45.5 9s36.166 17.667 53.499 35l88 -101c-28.667 -30 -57.334 -50.167 -86.001 -60.5s-57.334 -16.166 -86.001 -17.499l-10 -32c34.667 -4 59.334 -15 74.001 -33s22 -37 22 -57c0 -12 -2.66699 -23.5 -8 -34.5s-13.166 -21 -23.499 -30
s-23 -16.167 -38 -21.5s-31.833 -8 -50.5 -8c-21.333 0 -41.666 2.5 -60.999 7.5s-36.333 12.167 -51 21.5l25 62c16.667 -8 30.334 -13 41.001 -15s21.667 -3 33 -3c10.667 0 20 2.5 28 7.5s12 12.5 12 22.5c0 6.66699 -1.83301 12 -5.5 16s-8 6.5 -13 7.5
s-10.167 1.16699 -15.5 0.5s-10 -2 -14 -4l-39 20z" />
    <glyph glyph-name="egrave" unicode="&#xe8;" horiz-adv-x="520" 
d="M480 207l-287.998 0.000976562v-6c0 -24.667 7.5 -42.667 22.5 -54s32.167 -17 51.5 -17c12 0 28.167 1.66699 48.5 5s42.833 13.666 67.5 30.999l78 -101c-16.667 -15.333 -32.834 -27.5 -48.501 -36.5s-31.334 -16 -47.001 -21s-31.334 -8.33301 -47.001 -10
s-31.5 -2.5 -47.5 -2.5c-29.333 0 -57.666 3.66699 -84.999 11s-51.333 18.5 -72 33.5s-37.167 34.167 -49.5 57.5s-18.5 50.666 -18.5 81.999v128c0 32 5.83301 60 17.5 84s27.5 44.333 47.5 61s43 29.167 69 37.5s53.667 12.5 83 12.5c31.333 0 60.333 -4.33301 87 -13
s49.667 -21.167 69 -37.5s34.5 -36.666 45.5 -60.999s16.5 -52.5 16.5 -84.5v-99zM332.002 305.001c0 20 -7 35.333 -21 46s-30 16 -48 16c-18.667 0 -35.167 -5.83301 -49.5 -17.5s-21.5 -27.167 -21.5 -46.5v-4h140v6zM247.002 537.001l-146 186l134 46l93 -194z" />
    <glyph glyph-name="eacute" unicode="&#xe9;" horiz-adv-x="520" 
d="M480 207l-287.998 0.000976562v-6c0 -24.667 7.5 -42.667 22.5 -54s32.167 -17 51.5 -17c12 0 28.167 1.66699 48.5 5s42.833 13.666 67.5 30.999l78 -101c-16.667 -15.333 -32.834 -27.5 -48.501 -36.5s-31.334 -16 -47.001 -21s-31.334 -8.33301 -47.001 -10
s-31.5 -2.5 -47.5 -2.5c-29.333 0 -57.666 3.66699 -84.999 11s-51.333 18.5 -72 33.5s-37.167 34.167 -49.5 57.5s-18.5 50.666 -18.5 81.999v128c0 32 5.83301 60 17.5 84s27.5 44.333 47.5 61s43 29.167 69 37.5s53.667 12.5 83 12.5c31.333 0 60.333 -4.33301 87 -13
s49.667 -21.167 69 -37.5s34.5 -36.666 45.5 -60.999s16.5 -52.5 16.5 -84.5v-99zM332.002 305.001c0 20 -7 35.333 -21 46s-30 16 -48 16c-18.667 0 -35.167 -5.83301 -49.5 -17.5s-21.5 -27.167 -21.5 -46.5v-4h140v6zM205.002 567.001l85 203l133 -43l-135 -190z" />
    <glyph glyph-name="ecircumflex" unicode="&#xea;" horiz-adv-x="520" 
d="M480 207l-287.998 0.000976562v-6c0 -24.667 7.5 -42.667 22.5 -54s32.167 -17 51.5 -17c12 0 28.167 1.66699 48.5 5s42.833 13.666 67.5 30.999l78 -101c-16.667 -15.333 -32.834 -27.5 -48.501 -36.5s-31.334 -16 -47.001 -21s-31.334 -8.33301 -47.001 -10
s-31.5 -2.5 -47.5 -2.5c-29.333 0 -57.666 3.66699 -84.999 11s-51.333 18.5 -72 33.5s-37.167 34.167 -49.5 57.5s-18.5 50.666 -18.5 81.999v128c0 32 5.83301 60 17.5 84s27.5 44.333 47.5 61s43 29.167 69 37.5s53.667 12.5 83 12.5c31.333 0 60.333 -4.33301 87 -13
s49.667 -21.167 69 -37.5s34.5 -36.666 45.5 -60.999s16.5 -52.5 16.5 -84.5v-99zM332.002 305.001c0 20 -7 35.333 -21 46s-30 16 -48 16c-18.667 0 -35.167 -5.83301 -49.5 -17.5s-21.5 -27.167 -21.5 -46.5v-4h140v6zM267.002 625.001l-72.5 -52l-72.5 -51l-53 48
l147 155h103l148 -155l-56 -49z" />
    <glyph glyph-name="edieresis" unicode="&#xeb;" horiz-adv-x="520" 
d="M480 207l-287.998 0.000976562v-6c0 -24.667 7.5 -42.667 22.5 -54s32.167 -17 51.5 -17c12 0 28.167 1.66699 48.5 5s42.833 13.666 67.5 30.999l78 -101c-16.667 -15.333 -32.834 -27.5 -48.501 -36.5s-31.334 -16 -47.001 -21s-31.334 -8.33301 -47.001 -10
s-31.5 -2.5 -47.5 -2.5c-29.333 0 -57.666 3.66699 -84.999 11s-51.333 18.5 -72 33.5s-37.167 34.167 -49.5 57.5s-18.5 50.666 -18.5 81.999v128c0 32 5.83301 60 17.5 84s27.5 44.333 47.5 61s43 29.167 69 37.5s53.667 12.5 83 12.5c31.333 0 60.333 -4.33301 87 -13
s49.667 -21.167 69 -37.5s34.5 -36.666 45.5 -60.999s16.5 -52.5 16.5 -84.5v-99zM332.002 305.001c0 20 -7 35.333 -21 46s-30 16 -48 16c-18.667 0 -35.167 -5.83301 -49.5 -17.5s-21.5 -27.167 -21.5 -46.5v-4h140v6zM286.002 619.001c0 21.333 7.66699 39.5 23 54.5
s33.666 22.5 54.999 22.5s39.5 -7.5 54.5 -22.5s22.5 -33.167 22.5 -54.5s-7.5 -39.666 -22.5 -54.999s-33.167 -23 -54.5 -23s-39.666 7.66699 -54.999 23s-23 33.666 -23 54.999zM88.002 619.001c0 21.333 7.5 39.5 22.5 54.5s33.167 22.5 54.5 22.5
s39.666 -7.5 54.999 -22.5s23 -33.167 23 -54.5s-7.66699 -39.666 -23 -54.999s-33.666 -23 -54.999 -23s-39.5 7.66699 -54.5 23s-22.5 33.666 -22.5 54.999z" />
    <glyph glyph-name="igrave" unicode="&#xec;" horiz-adv-x="269" 
d="M114 537l-146 186l134 46l93 -194zM68 0v493h148v-493h-148z" />
    <glyph glyph-name="iacute" unicode="&#xed;" horiz-adv-x="269" 
d="M66 567l85 203l133 -43l-135 -190zM68 0v493h148v-493h-148z" />
    <glyph glyph-name="icircumflex" unicode="&#xee;" horiz-adv-x="378" 
d="M188 625l-72.5 -52l-72.5 -51l-53 48l147 155h103l148 -155l-56 -49zM115 0v493h148v-493h-148z" />
    <glyph glyph-name="idieresis" unicode="&#xef;" horiz-adv-x="333" 
d="M188 619c0 21.333 7.66699 39.5 23 54.5s33.666 22.5 54.999 22.5s39.5 -7.5 54.5 -22.5s22.5 -33.167 22.5 -54.5s-7.5 -39.666 -22.5 -54.999s-33.167 -23 -54.5 -23s-39.666 7.66699 -54.999 23s-23 33.666 -23 54.999zM-10 619c0 21.333 7.5 39.5 22.5 54.5
s33.167 22.5 54.5 22.5s39.666 -7.5 54.999 -22.5s23 -33.167 23 -54.5s-7.66699 -39.666 -23 -54.999s-33.666 -23 -54.999 -23s-39.5 7.66699 -54.5 23s-22.5 33.666 -22.5 54.999zM94 0v493h148v-493h-148z" />
    <glyph glyph-name="eth" unicode="&#xf0;" horiz-adv-x="532" 
d="M424 621c14 -18.667 25.332 -37.166 33.999 -55.499s15.5 -38 20.5 -59s8.33301 -44 10 -69s2.5 -53.167 2.5 -84.5v-121c0 -35.333 -4.83301 -67.5 -14.5 -96.5s-24.334 -53.833 -44.001 -74.5s-44.167 -36.834 -73.5 -48.501s-64 -17.5 -104 -17.5
c-30 0 -58 3.5 -84 10.5s-48.833 18 -68.5 33s-35 34 -46 57s-16.5 50.167 -16.5 81.5v93c0 31.333 6.33301 59 19 83s28.834 44.167 48.501 60.5s41.5 28.666 65.5 36.999s47.667 12.5 71 12.5c21.333 0 41.833 -2.66699 61.5 -8s36.5 -13.666 50.5 -24.999h2
c0.666992 0 1.33398 0.333008 2.00098 1c-0.666992 23.333 -3.66699 42.333 -9 57s-13 29.667 -23 45l-46 -38l-46 50l43 37c-14 9.33301 -29.5 17.333 -46.5 24s-36.833 11.667 -59.5 15l30 115c72 -12 129.333 -34 172 -66l43 39l49 -51zM337.999 262.001
c0 26 -8.00098 44.333 -24.001 55s-33 16 -51 16c-18.667 0 -36 -6.5 -52 -19.5s-24 -32.5 -24 -58.5v-58c0 -26 8 -44.333 24 -55s33.333 -16 52 -16c20.667 0 38.334 6 53.001 18s22 31 22 57v61z" />
    <glyph glyph-name="ntilde" unicode="&#xf1;" horiz-adv-x="545" 
d="M351 0v303.004c0 23.333 -5.33301 39.166 -16 47.499s-23.334 12.5 -38.001 12.5c-13.333 0 -27.166 -2.33301 -41.499 -7s-33.5 -14.667 -57.5 -30v-326h-148v496h132l10 -39c33.333 20.667 63.166 33.5 89.499 38.5s47.833 7.5 64.5 7.5
c28.667 0 52.834 -4.33301 72.501 -13s35.5 -20.834 47.5 -36.501s20.667 -34.334 26 -56.001s8 -45.834 8 -72.501v-325h-149zM200 711.004c13.333 -0.666992 26.335 -3.5 39.002 -8.5s24.667 -10.5 36 -16.5l31.5 -16.5c9.66699 -5 18.167 -7.5 25.5 -7.5
c11.333 0 21.5 3.33301 30.5 10s20.167 18.667 33.5 36l71 -42c-18.667 -40 -37.5 -68.333 -56.5 -85s-40.5 -25 -64.5 -25c-14 0 -27.333 2.5 -40 7.5s-24.834 10.333 -36.501 16l-33.5 16c-10.667 5 -20.334 7.5 -29.001 7.5c-11.333 0 -22 -2.5 -32 -7.5
s-22.667 -17.5 -38 -37.5l-69 43c17.333 36.667 36 64.167 56 82.5s45.333 27.5 76 27.5z" />
    <glyph glyph-name="ograve" unicode="&#xf2;" horiz-adv-x="525" 
d="M485 187c0 -31.333 -5.33301 -59 -16 -83s-25.834 -44 -45.501 -60s-43.167 -28.167 -70.5 -36.5s-57.333 -12.5 -90 -12.5c-69.333 0 -123.833 16.167 -163.5 48.5s-59.5 80.166 -59.5 143.499v124c0 31.333 5.83301 59 17.5 83s27.667 44 48 60s44 28.167 71 36.5
s55.833 12.5 86.5 12.5c68.667 0 122.834 -16.667 162.501 -50s59.5 -81.666 59.5 -144.999v-121zM338 301c0 26 -8 44.333 -24 55s-33 16 -51 16c-18.667 0 -36 -5.33301 -52 -16s-24 -29 -24 -55v-104c0 -26 8 -44.333 24 -55s33.333 -16 52 -16c18 0 35 5.33301 51 16
s24 29 24 55v104zM258 537l-146 186l134 46l93 -194z" />
    <glyph glyph-name="oacute" unicode="&#xf3;" horiz-adv-x="525" 
d="M485 187c0 -31.333 -5.33301 -59 -16 -83s-25.834 -44 -45.501 -60s-43.167 -28.167 -70.5 -36.5s-57.333 -12.5 -90 -12.5c-69.333 0 -123.833 16.167 -163.5 48.5s-59.5 80.166 -59.5 143.499v124c0 31.333 5.83301 59 17.5 83s27.667 44 48 60s44 28.167 71 36.5
s55.833 12.5 86.5 12.5c68.667 0 122.834 -16.667 162.501 -50s59.5 -81.666 59.5 -144.999v-121zM338 301c0 26 -8 44.333 -24 55s-33 16 -51 16c-18.667 0 -36 -5.33301 -52 -16s-24 -29 -24 -55v-104c0 -26 8 -44.333 24 -55s33.333 -16 52 -16c18 0 35 5.33301 51 16
s24 29 24 55v104zM204 567l85 203l133 -43l-135 -190z" />
    <glyph glyph-name="ocircumflex" unicode="&#xf4;" horiz-adv-x="525" 
d="M485 187c0 -31.333 -5.33301 -59 -16 -83s-25.834 -44 -45.501 -60s-43.167 -28.167 -70.5 -36.5s-57.333 -12.5 -90 -12.5c-69.333 0 -123.833 16.167 -163.5 48.5s-59.5 80.166 -59.5 143.499v124c0 31.333 5.83301 59 17.5 83s27.667 44 48 60s44 28.167 71 36.5
s55.833 12.5 86.5 12.5c68.667 0 122.834 -16.667 162.501 -50s59.5 -81.666 59.5 -144.999v-121zM338 301c0 26 -8 44.333 -24 55s-33 16 -51 16c-18.667 0 -36 -5.33301 -52 -16s-24 -29 -24 -55v-104c0 -26 8 -44.333 24 -55s33.333 -16 52 -16c18 0 35 5.33301 51 16
s24 29 24 55v104zM266 625l-72.5 -52l-72.5 -51l-53 48l147 155h103l148 -155l-56 -49z" />
    <glyph glyph-name="otilde" unicode="&#xf5;" horiz-adv-x="525" 
d="M485 187c0 -31.333 -5.33301 -59 -16 -83s-25.834 -44 -45.501 -60s-43.167 -28.167 -70.5 -36.5s-57.333 -12.5 -90 -12.5c-69.333 0 -123.833 16.167 -163.5 48.5s-59.5 80.166 -59.5 143.499v124c0 31.333 5.83301 59 17.5 83s27.667 44 48 60s44 28.167 71 36.5
s55.833 12.5 86.5 12.5c68.667 0 122.834 -16.667 162.501 -50s59.5 -81.666 59.5 -144.999v-121zM338 301c0 26 -8 44.333 -24 55s-33 16 -51 16c-18.667 0 -36 -5.33301 -52 -16s-24 -29 -24 -55v-104c0 -26 8 -44.333 24 -55s33.333 -16 52 -16c18 0 35 5.33301 51 16
s24 29 24 55v104zM191 711c13.333 -0.666992 26.335 -3.5 39.002 -8.5s24.667 -10.5 36 -16.5l31.5 -16.5c9.66699 -5 18.167 -7.5 25.5 -7.5c11.333 0 21.5 3.33301 30.5 10s20.167 18.667 33.5 36l71 -42c-18.667 -40 -37.5 -68.333 -56.5 -85s-40.5 -25 -64.5 -25
c-14 0 -27.333 2.5 -40 7.5s-24.834 10.333 -36.501 16l-33.5 16c-10.667 5 -20.334 7.5 -29.001 7.5c-11.333 0 -22 -2.5 -32 -7.5s-22.667 -17.5 -38 -37.5l-69 43c17.333 36.667 36 64.167 56 82.5s45.333 27.5 76 27.5z" />
    <glyph glyph-name="odieresis" unicode="&#xf6;" horiz-adv-x="525" 
d="M485 187c0 -31.333 -5.33301 -59 -16 -83s-25.834 -44 -45.501 -60s-43.167 -28.167 -70.5 -36.5s-57.333 -12.5 -90 -12.5c-69.333 0 -123.833 16.167 -163.5 48.5s-59.5 80.166 -59.5 143.499v124c0 31.333 5.83301 59 17.5 83s27.667 44 48 60s44 28.167 71 36.5
s55.833 12.5 86.5 12.5c68.667 0 122.834 -16.667 162.501 -50s59.5 -81.666 59.5 -144.999v-121zM338 301c0 26 -8 44.333 -24 55s-33 16 -51 16c-18.667 0 -36 -5.33301 -52 -16s-24 -29 -24 -55v-104c0 -26 8 -44.333 24 -55s33.333 -16 52 -16c18 0 35 5.33301 51 16
s24 29 24 55v104zM289 619c0 21.333 7.66699 39.5 23 54.5s33.666 22.5 54.999 22.5s39.5 -7.5 54.5 -22.5s22.5 -33.167 22.5 -54.5s-7.5 -39.666 -22.5 -54.999s-33.167 -23 -54.5 -23s-39.666 7.66699 -54.999 23s-23 33.666 -23 54.999zM91 619
c0 21.333 7.5 39.5 22.5 54.5s33.167 22.5 54.5 22.5s39.666 -7.5 54.999 -22.5s23 -33.167 23 -54.5s-7.66699 -39.666 -23 -54.999s-33.666 -23 -54.999 -23s-39.5 7.66699 -54.5 23s-22.5 33.666 -22.5 54.999z" />
    <glyph glyph-name="divide" unicode="&#xf7;" horiz-adv-x="550" 
d="M364 505c0 -23.333 -8.66699 -43 -26 -59s-38.333 -24 -63 -24s-45.667 8 -63 24s-26 35.667 -26 59c0 12 2.33301 23 7 33s11 18.833 19 26.5s17.5 13.667 28.5 18s22.5 6.5 34.5 6.5s23.5 -2.16699 34.5 -6.5s20.5 -10.333 28.5 -18s14.333 -16.5 19 -26.5s7 -21 7 -33
zM18 240v116h514v-116h-514zM364 81c0 -12 -2.33301 -23 -7 -33s-11 -18.833 -19 -26.5s-17.5 -13.667 -28.5 -18s-22.5 -6.5 -34.5 -6.5s-23.5 2.16699 -34.5 6.5s-20.5 10.333 -28.5 18s-14.333 16.5 -19 26.5s-7 21 -7 33c0 23.333 8.66699 43 26 59s38.333 24 63 24
s45.667 -8 63 -24s26 -35.667 26 -59z" />
    <glyph glyph-name="oslash" unicode="&#xf8;" horiz-adv-x="525" 
d="M38 22l39 45c-24.667 30.667 -37 70.667 -37 120v124c0 31.333 5.83301 59 17.5 83s27.667 44 48 60s44 28.167 71 36.5s55.833 12.5 86.5 12.5c64 0 115.333 -14.667 154 -44l36 42l32 -29l-37 -43c24.667 -32 37 -72.333 37 -121v-121c0 -31.333 -5.33301 -59 -16 -83
s-25.834 -44 -45.501 -60s-43.167 -28.167 -70.5 -36.5s-57.333 -12.5 -90 -12.5s-62.167 3.5 -88.5 10.5s-49.166 17.833 -68.499 32.5l-37 -43zM187 194l133.999 155c-7.33301 8 -16.166 13.833 -26.499 17.5s-20.833 5.5 -31.5 5.5c-18.667 0 -36 -5.33301 -52 -16
s-24 -29 -24 -55v-104v-3zM337.999 301v2l-135 -154c7.33301 -8.66699 16.333 -14.667 27 -18s21.667 -5 33 -5c18 0 35 5.33301 51 16s24 29 24 55v104z" />
    <glyph glyph-name="ugrave" unicode="&#xf9;" horiz-adv-x="545" 
d="M194 496l0.00390625 -302.999c0 -11.333 1.83301 -20.833 5.5 -28.5s8.16699 -13.834 13.5 -18.501s11.166 -8 17.499 -10s12.166 -3 17.499 -3c13.333 0 27.166 2.33301 41.499 7s33.5 14.667 57.5 30v326h148v-496h-132l-10 39c-16.667 -10.667 -32.5 -19 -47.5 -25
s-29 -10.5 -42 -13.5s-25 -5 -36 -6s-20.5 -1.5 -28.5 -1.5c-28.667 0 -52.834 5 -72.501 15s-35.5 23.5 -47.5 40.5s-20.667 37 -26 60s-8 47.833 -8 74.5v313h149zM266.004 537.001l-146 186l134 46l93 -194z" />
    <glyph glyph-name="uacute" unicode="&#xfa;" horiz-adv-x="545" 
d="M194 496l0.00390625 -302.999c0 -11.333 1.83301 -20.833 5.5 -28.5s8.16699 -13.834 13.5 -18.501s11.166 -8 17.499 -10s12.166 -3 17.499 -3c13.333 0 27.166 2.33301 41.499 7s33.5 14.667 57.5 30v326h148v-496h-132l-10 39c-16.667 -10.667 -32.5 -19 -47.5 -25
s-29 -10.5 -42 -13.5s-25 -5 -36 -6s-20.5 -1.5 -28.5 -1.5c-28.667 0 -52.834 5 -72.501 15s-35.5 23.5 -47.5 40.5s-20.667 37 -26 60s-8 47.833 -8 74.5v313h149zM198.004 567.001l85 203l133 -43l-135 -190z" />
    <glyph glyph-name="ucircumflex" unicode="&#xfb;" horiz-adv-x="545" 
d="M194 496l0.00390625 -302.999c0 -11.333 1.83301 -20.833 5.5 -28.5s8.16699 -13.834 13.5 -18.501s11.166 -8 17.499 -10s12.166 -3 17.499 -3c13.333 0 27.166 2.33301 41.499 7s33.5 14.667 57.5 30v326h148v-496h-132l-10 39c-16.667 -10.667 -32.5 -19 -47.5 -25
s-29 -10.5 -42 -13.5s-25 -5 -36 -6s-20.5 -1.5 -28.5 -1.5c-28.667 0 -52.834 5 -72.501 15s-35.5 23.5 -47.5 40.5s-20.667 37 -26 60s-8 47.833 -8 74.5v313h149zM270.004 625.001l-72.5 -52l-72.5 -51l-53 48l147 155h103l148 -155l-56 -49z" />
    <glyph glyph-name="udieresis" unicode="&#xfc;" horiz-adv-x="545" 
d="M194 496l0.00390625 -302.999c0 -11.333 1.83301 -20.833 5.5 -28.5s8.16699 -13.834 13.5 -18.501s11.166 -8 17.499 -10s12.166 -3 17.499 -3c13.333 0 27.166 2.33301 41.499 7s33.5 14.667 57.5 30v326h148v-496h-132l-10 39c-16.667 -10.667 -32.5 -19 -47.5 -25
s-29 -10.5 -42 -13.5s-25 -5 -36 -6s-20.5 -1.5 -28.5 -1.5c-28.667 0 -52.834 5 -72.501 15s-35.5 23.5 -47.5 40.5s-20.667 37 -26 60s-8 47.833 -8 74.5v313h149zM292.004 619.001c0 21.333 7.66699 39.5 23 54.5s33.666 22.5 54.999 22.5s39.5 -7.5 54.5 -22.5
s22.5 -33.167 22.5 -54.5s-7.5 -39.666 -22.5 -54.999s-33.167 -23 -54.5 -23s-39.666 7.66699 -54.999 23s-23 33.666 -23 54.999zM94.0039 619.001c0 21.333 7.5 39.5 22.5 54.5s33.167 22.5 54.5 22.5s39.666 -7.5 54.999 -22.5s23 -33.167 23 -54.5
s-7.66699 -39.666 -23 -54.999s-33.666 -23 -54.999 -23s-39.5 7.66699 -54.5 23s-22.5 33.666 -22.5 54.999z" />
    <glyph glyph-name="yacute" unicode="&#xfd;" horiz-adv-x="502" 
d="M93 -198l77 210l-23 16l-137 468h150l39 -172l36 -148h4l48 151l53 169h151l-254 -694h-144zM188 567l85 203l133 -43l-135 -190z" />
    <glyph glyph-name="thorn" unicode="&#xfe;" horiz-adv-x="536" 
d="M496 173c0 -26.667 -3.5 -51.001 -10.5 -73.001s-17.667 -41 -32 -57s-32.333 -28.333 -54 -37s-47.167 -13 -76.5 -13c-16.667 0 -36.834 1.66699 -60.501 5s-45.167 11 -64.5 23v-219h-148v886h148v-237c22.667 14.667 46.334 26.334 71.001 35.001s45.667 13 63 13
c109.333 0 164 -61 164 -183v-143zM347 301.999c0 24 -5 40.168 -15 48.501s-21.667 12.5 -35 12.5s-29.5 -3.5 -48.5 -10.5s-35.833 -15.167 -50.5 -24.5v-170c18.667 -9.33301 35 -15.833 49 -19.5s27.667 -5.5 41 -5.5c16.667 0 30.667 4.66699 42 14
s17 25.666 17 48.999v106z" />
    <glyph glyph-name="ydieresis" unicode="&#xff;" horiz-adv-x="502" 
d="M93 -198l77 210l-23 16l-137 468h150l39 -172l36 -148h4l48 151l53 169h151l-254 -694h-144zM269 619c0 21.333 7.66699 39.5 23 54.5s33.666 22.5 54.999 22.5s39.5 -7.5 54.5 -22.5s22.5 -33.167 22.5 -54.5s-7.5 -39.666 -22.5 -54.999s-33.167 -23 -54.5 -23
s-39.666 7.66699 -54.999 23s-23 33.666 -23 54.999zM71 619c0 21.333 7.5 39.5 22.5 54.5s33.167 22.5 54.5 22.5s39.666 -7.5 54.999 -22.5s23 -33.167 23 -54.5s-7.66699 -39.666 -23 -54.999s-33.666 -23 -54.999 -23s-39.5 7.66699 -54.5 23s-22.5 33.666 -22.5 54.999
z" />
    <glyph glyph-name="Amacron" unicode="&#x100;" horiz-adv-x="659" 
d="M438 136h-222l-41 -136h-171l243 689h164l239 -689h-170zM256 266h142l-14 47l-55 190h-4l-55 -190zM161 758v118h333v-118h-333z" />
    <glyph glyph-name="amacron" unicode="&#x101;" horiz-adv-x="539" 
d="M341 38c-26 -15.333 -50.8291 -26.167 -74.4961 -32.5s-45.834 -9.5 -66.501 -9.5c-52 0 -91.667 13.5 -119 40.5s-41 64.167 -41 111.5c0 27.333 5.5 50.5 16.5 69.5s25.333 34.5 43 46.5s37.167 20.833 58.5 26.5s42.333 8.5 63 8.5h120v13
c0 17.333 -5.33301 31.5 -16 42.5s-32.334 16.5 -65.001 16.5c-16 0 -35.333 -2.16699 -58 -6.5s-45.667 -15.833 -69 -34.5l-64 106c36 28 71.667 46 107 54s68.666 12 99.999 12c73.333 0 127.166 -16.5 161.499 -49.5s51.5 -83.833 51.5 -152.5v-300h-136l-9 37z
M342.004 194.999h-94c-12.667 0 -23.5 -2.33301 -32.5 -7s-13.5 -14 -13.5 -28c0 -8 3.16699 -15.333 9.5 -22s17.5 -10 33.5 -10c20 0 38.833 3 56.5 9s31.167 12 40.5 18v40zM113.004 577.999v118h333v-118h-333z" />
    <glyph glyph-name="Abreve" unicode="&#x102;" horiz-adv-x="659" 
d="M438 136h-222l-41 -136h-171l243 689h164l239 -689h-170zM256 266h142l-14 47l-55 190h-4l-55 -190zM327 731c-28.667 0 -52.665 5.5 -71.998 16.5s-34.833 24.667 -46.5 41s-20.334 33.833 -26.001 52.5s-9.5 35.667 -11.5 51h100
c0 -6.66699 1.16699 -13.834 3.5 -21.501s5.83301 -15 10.5 -22s10.5 -12.833 17.5 -17.5s15.167 -7 24.5 -7s17.5 2.33301 24.5 7s12.833 10.5 17.5 17.5s8.16699 14.333 10.5 22s3.5 14.834 3.5 21.501h100c-2 -15.333 -5.83301 -32.333 -11.5 -51
s-14.334 -36.167 -26.001 -52.5s-27.167 -30 -46.5 -41s-43.333 -16.5 -72 -16.5z" />
    <glyph glyph-name="abreve" unicode="&#x103;" horiz-adv-x="539" 
d="M341 38c-26 -15.333 -50.8291 -26.167 -74.4961 -32.5s-45.834 -9.5 -66.501 -9.5c-52 0 -91.667 13.5 -119 40.5s-41 64.167 -41 111.5c0 27.333 5.5 50.5 16.5 69.5s25.333 34.5 43 46.5s37.167 20.833 58.5 26.5s42.333 8.5 63 8.5h120v13
c0 17.333 -5.33301 31.5 -16 42.5s-32.334 16.5 -65.001 16.5c-16 0 -35.333 -2.16699 -58 -6.5s-45.667 -15.833 -69 -34.5l-64 106c36 28 71.667 46 107 54s68.666 12 99.999 12c73.333 0 127.166 -16.5 161.499 -49.5s51.5 -83.833 51.5 -152.5v-300h-136l-9 37z
M342.004 194.999h-94c-12.667 0 -23.5 -2.33301 -32.5 -7s-13.5 -14 -13.5 -28c0 -8 3.16699 -15.333 9.5 -22s17.5 -10 33.5 -10c20 0 38.833 3 56.5 9s31.167 12 40.5 18v40zM278.004 560.999c-28.667 0 -52.665 5.5 -71.998 16.5s-34.833 24.667 -46.5 41
s-20.334 33.833 -26.001 52.5s-9.5 35.667 -11.5 51h100c0 -6.66699 1.16699 -13.834 3.5 -21.501s5.83301 -15 10.5 -22s10.5 -12.833 17.5 -17.5s15.167 -7 24.5 -7s17.5 2.33301 24.5 7s12.833 10.5 17.5 17.5s8.16699 14.333 10.5 22s3.5 14.834 3.5 21.501h100
c-2 -15.333 -5.83301 -32.333 -11.5 -51s-14.334 -36.167 -26.001 -52.5s-27.167 -30 -46.5 -41s-43.333 -16.5 -72 -16.5z" />
    <glyph glyph-name="Aogonek" unicode="&#x104;" horiz-adv-x="659" 
d="M529 -89c0 -18 10.667 -27.001 32 -27.001c6 0 14.667 1 26 3s24.666 5.66699 39.999 11l26 -79c-17.333 -9.33301 -35.666 -16.166 -54.999 -20.499s-36.333 -6.5 -51 -6.5c-43.333 0 -74.333 8.66699 -93 26s-28 39.333 -28 66c0 17.333 4 36.333 12 57
s20 41.667 36 63h5l-41 132h-222l-41 -136h-171l243 689h164l239 -689h-77c-15.333 -21.333 -26.5 -39 -33.5 -53s-10.5 -26 -10.5 -36zM256 265.999h142l-14 47l-55 190h-4l-55 -190z" />
    <glyph glyph-name="aogonek" unicode="&#x105;" horiz-adv-x="539" 
d="M341 38c-26 -15.333 -50.8291 -26.168 -74.4961 -32.501s-45.834 -9.5 -66.501 -9.5c-52 0 -91.667 13.5 -119 40.5s-41 64.167 -41 111.5c0 27.333 5.5 50.5 16.5 69.5s25.333 34.5 43 46.5s37.167 20.833 58.5 26.5s42.333 8.5 63 8.5h120v13
c0 17.333 -5.33301 31.5 -16 42.5s-32.334 16.5 -65.001 16.5c-16 0 -35.333 -2.16699 -58 -6.5s-45.667 -15.833 -69 -34.5l-64 106c36 28 71.667 46 107 54s68.666 12 99.999 12c73.333 0 127.166 -16.5 161.499 -49.5s51.5 -83.833 51.5 -152.5v-300h-43
c-15.333 -21.333 -26.5 -39 -33.5 -53s-10.5 -26 -10.5 -36c0 -18 10.667 -27 32 -27c6 0 14.667 1 26 3s24.666 5.66699 39.999 11l26 -79c-17.333 -9.33301 -35.666 -16.166 -54.999 -20.499s-36.333 -6.5 -51 -6.5c-43.333 0 -74.333 8.66699 -93 26s-28 39.333 -28 66
c0 17.333 4 36.333 12 57s20 41.667 36 63h5l-8 33zM342.004 194.998h-94c-12.667 0 -23.5 -2.33301 -32.5 -7s-13.5 -14 -13.5 -28c0 -8 3.16699 -15.333 9.5 -22s17.5 -10 33.5 -10c20 0 38.833 3 56.5 9s31.167 12 40.5 18v40z" />
    <glyph glyph-name="Cacute" unicode="&#x106;" horiz-adv-x="577" 
d="M470 502c-22.667 19.333 -45.832 32.168 -69.499 38.501s-46.5 9.5 -68.5 9.5c-13.333 0 -26.666 -2 -39.999 -6s-25.333 -10.167 -36 -18.5s-19.5 -19.333 -26.5 -33s-10.5 -30.5 -10.5 -50.5v-195c0 -20 3.5 -36.833 10.5 -50.5s16 -24.667 27 -33
s23.167 -14.5 36.5 -18.5s26.666 -6 39.999 -6c21.333 0 43.333 3.16699 66 9.5s46.667 19.166 72 38.499l75 -124c-28 -23.333 -60.833 -40.833 -98.5 -52.5s-76.834 -17.5 -117.501 -17.5c-32 0 -64.167 4.33301 -96.5 13s-61.333 22 -87 40s-46.5 40.833 -62.5 68.5
s-24 60.5 -24 98.5v260c0 38 7.83301 70.833 23.5 98.5s36.167 50.667 61.5 69s53.833 32 85.5 41s63.834 13.5 96.501 13.5c40.667 0 80.667 -5.66699 120 -17s72.666 -29 99.999 -53zM229.002 804.002l182 131l80 -112l-214 -90z" />
    <glyph glyph-name="cacute" unicode="&#x107;" horiz-adv-x="465" 
d="M450 74c-16.667 -17.333 -33.3301 -31.167 -49.9971 -41.5s-33.334 -18.333 -50.001 -24s-33.334 -9.33398 -50.001 -11.001s-33 -2.5 -49 -2.5c-26.667 0 -52.334 3.5 -77.001 10.5s-46.5 17.833 -65.5 32.5s-34.333 33.334 -46 56.001s-17.5 49.667 -17.5 81v148
c0 30.667 6.16699 57.334 18.5 80.001s28.5 41.5 48.5 56.5s42.167 26 66.5 33s48.5 10.5 72.5 10.5c16 0 32.167 -0.666992 48.5 -2s32.833 -4.33301 49.5 -9s33.167 -11.834 49.5 -21.501s32.5 -22.5 48.5 -38.5l-84 -107c-23.333 20.667 -42.666 33 -57.999 37
s-28.333 6 -39 6c-18 0 -34.833 -5.5 -50.5 -16.5s-23.5 -29.167 -23.5 -54.5v-95c0 -26 7.33301 -44.333 22 -55s31 -16 49 -16c12 0 27.167 3 45.5 9s36.166 17.667 53.499 35zM187.004 566.999l85 203l133 -43l-135 -190z" />
    <glyph glyph-name="Ccircumflex" unicode="&#x108;" horiz-adv-x="577" 
d="M470 502c-22.667 19.333 -45.832 32.168 -69.499 38.501s-46.5 9.5 -68.5 9.5c-13.333 0 -26.666 -2 -39.999 -6s-25.333 -10.167 -36 -18.5s-19.5 -19.333 -26.5 -33s-10.5 -30.5 -10.5 -50.5v-195c0 -20 3.5 -36.833 10.5 -50.5s16 -24.667 27 -33
s23.167 -14.5 36.5 -18.5s26.666 -6 39.999 -6c21.333 0 43.333 3.16699 66 9.5s46.667 19.166 72 38.499l75 -124c-28 -23.333 -60.833 -40.833 -98.5 -52.5s-76.834 -17.5 -117.501 -17.5c-32 0 -64.167 4.33301 -96.5 13s-61.333 22 -87 40s-46.5 40.833 -62.5 68.5
s-24 60.5 -24 98.5v260c0 38 7.83301 70.833 23.5 98.5s36.167 50.667 61.5 69s53.833 32 85.5 41s63.834 13.5 96.501 13.5c40.667 0 80.667 -5.66699 120 -17s72.666 -29 99.999 -53zM328.002 805.002l-150 -78l-48 58l149 120h98l151 -120l-51 -59z" />
    <glyph glyph-name="ccircumflex" unicode="&#x109;" horiz-adv-x="465" 
d="M450 74c-16.667 -17.333 -33.3301 -31.167 -49.9971 -41.5s-33.334 -18.333 -50.001 -24s-33.334 -9.33398 -50.001 -11.001s-33 -2.5 -49 -2.5c-26.667 0 -52.334 3.5 -77.001 10.5s-46.5 17.833 -65.5 32.5s-34.333 33.334 -46 56.001s-17.5 49.667 -17.5 81v148
c0 30.667 6.16699 57.334 18.5 80.001s28.5 41.5 48.5 56.5s42.167 26 66.5 33s48.5 10.5 72.5 10.5c16 0 32.167 -0.666992 48.5 -2s32.833 -4.33301 49.5 -9s33.167 -11.834 49.5 -21.501s32.5 -22.5 48.5 -38.5l-84 -107c-23.333 20.667 -42.666 33 -57.999 37
s-28.333 6 -39 6c-18 0 -34.833 -5.5 -50.5 -16.5s-23.5 -29.167 -23.5 -54.5v-95c0 -26 7.33301 -44.333 22 -55s31 -16 49 -16c12 0 27.167 3 45.5 9s36.166 17.667 53.499 35zM248.004 624.999l-72.5 -52l-72.5 -51l-53 48l147 155h103l148 -155l-56 -49z" />
    <glyph glyph-name="Cdotaccent" unicode="&#x10a;" horiz-adv-x="577" 
d="M470 502c-22.667 19.333 -45.832 32.168 -69.499 38.501s-46.5 9.5 -68.5 9.5c-13.333 0 -26.666 -2 -39.999 -6s-25.333 -10.167 -36 -18.5s-19.5 -19.333 -26.5 -33s-10.5 -30.5 -10.5 -50.5v-195c0 -20 3.5 -36.833 10.5 -50.5s16 -24.667 27 -33
s23.167 -14.5 36.5 -18.5s26.666 -6 39.999 -6c21.333 0 43.333 3.16699 66 9.5s46.667 19.166 72 38.499l75 -124c-28 -23.333 -60.833 -40.833 -98.5 -52.5s-76.834 -17.5 -117.501 -17.5c-32 0 -64.167 4.33301 -96.5 13s-61.333 22 -87 40s-46.5 40.833 -62.5 68.5
s-24 60.5 -24 98.5v260c0 38 7.83301 70.833 23.5 98.5s36.167 50.667 61.5 69s53.833 32 85.5 41s63.834 13.5 96.501 13.5c40.667 0 80.667 -5.66699 120 -17s72.666 -29 99.999 -53zM327.002 730.002c-12 0 -23 2.16895 -33 6.50195s-18.833 10.333 -26.5 18
s-13.667 16.667 -18 27s-6.5 21.166 -6.5 32.499c0 23.333 8.16699 42.833 24.5 58.5s35.5 23.5 57.5 23.5s41.167 -7.83301 57.5 -23.5s24.5 -35.167 24.5 -58.5c0 -22.667 -7.16699 -42.334 -21.5 -59.001s-33.833 -25 -58.5 -25z" />
    <glyph glyph-name="cdotaccent" unicode="&#x10b;" horiz-adv-x="465" 
d="M450 74c-16.667 -17.333 -33.3301 -31.167 -49.9971 -41.5s-33.334 -18.333 -50.001 -24s-33.334 -9.33398 -50.001 -11.001s-33 -2.5 -49 -2.5c-26.667 0 -52.334 3.5 -77.001 10.5s-46.5 17.833 -65.5 32.5s-34.333 33.334 -46 56.001s-17.5 49.667 -17.5 81v148
c0 30.667 6.16699 57.334 18.5 80.001s28.5 41.5 48.5 56.5s42.167 26 66.5 33s48.5 10.5 72.5 10.5c16 0 32.167 -0.666992 48.5 -2s32.833 -4.33301 49.5 -9s33.167 -11.834 49.5 -21.501s32.5 -22.5 48.5 -38.5l-84 -107c-23.333 20.667 -42.666 33 -57.999 37
s-28.333 6 -39 6c-18 0 -34.833 -5.5 -50.5 -16.5s-23.5 -29.167 -23.5 -54.5v-95c0 -26 7.33301 -44.333 22 -55s31 -16 49 -16c12 0 27.167 3 45.5 9s36.166 17.667 53.499 35zM263.004 549.999c-12 0 -23 2.16895 -33 6.50195s-18.833 10.333 -26.5 18
s-13.667 16.667 -18 27s-6.5 21.166 -6.5 32.499c0 23.333 8.16699 42.833 24.5 58.5s35.5 23.5 57.5 23.5s41.167 -7.83301 57.5 -23.5s24.5 -35.167 24.5 -58.5c0 -22.667 -7.16699 -42.334 -21.5 -59.001s-33.833 -25 -58.5 -25z" />
    <glyph glyph-name="Ccaron" unicode="&#x10c;" horiz-adv-x="577" 
d="M470 502c-22.667 19.333 -45.832 32.168 -69.499 38.501s-46.5 9.5 -68.5 9.5c-13.333 0 -26.666 -2 -39.999 -6s-25.333 -10.167 -36 -18.5s-19.5 -19.333 -26.5 -33s-10.5 -30.5 -10.5 -50.5v-195c0 -20 3.5 -36.833 10.5 -50.5s16 -24.667 27 -33
s23.167 -14.5 36.5 -18.5s26.666 -6 39.999 -6c21.333 0 43.333 3.16699 66 9.5s46.667 19.166 72 38.499l75 -124c-28 -23.333 -60.833 -40.833 -98.5 -52.5s-76.834 -17.5 -117.501 -17.5c-32 0 -64.167 4.33301 -96.5 13s-61.333 22 -87 40s-46.5 40.833 -62.5 68.5
s-24 60.5 -24 98.5v260c0 38 7.83301 70.833 23.5 98.5s36.167 50.667 61.5 69s53.833 32 85.5 41s63.834 13.5 96.501 13.5c40.667 0 80.667 -5.66699 120 -17s72.666 -29 99.999 -53zM455.002 908.002l51 -59l-151 -120h-98l-149 120l48 58l150 -78z" />
    <glyph glyph-name="ccaron" unicode="&#x10d;" horiz-adv-x="465" 
d="M450 74c-16.667 -17.333 -33.3301 -31.167 -49.9971 -41.5s-33.334 -18.333 -50.001 -24s-33.334 -9.33398 -50.001 -11.001s-33 -2.5 -49 -2.5c-26.667 0 -52.334 3.5 -77.001 10.5s-46.5 17.833 -65.5 32.5s-34.333 33.334 -46 56.001s-17.5 49.667 -17.5 81v148
c0 30.667 6.16699 57.334 18.5 80.001s28.5 41.5 48.5 56.5s42.167 26 66.5 33s48.5 10.5 72.5 10.5c16 0 32.167 -0.666992 48.5 -2s32.833 -4.33301 49.5 -9s33.167 -11.834 49.5 -21.501s32.5 -22.5 48.5 -38.5l-84 -107c-23.333 20.667 -42.666 33 -57.999 37
s-28.333 6 -39 6c-18 0 -34.833 -5.5 -50.5 -16.5s-23.5 -29.167 -23.5 -54.5v-95c0 -26 7.33301 -44.333 22 -55s31 -16 49 -16c12 0 27.167 3 45.5 9s36.166 17.667 53.499 35zM399.004 724.999l56 -49l-148 -155h-103l-147 155l53 48l72.5 -51l72.5 -52z" />
    <glyph glyph-name="Dcaron" unicode="&#x10e;" horiz-adv-x="622" 
d="M572 220c0 -38 -7.16699 -70.833 -21.5 -98.5s-33.333 -50.5 -57 -68.5s-50.5 -31.333 -80.5 -40s-60.333 -13 -91 -13h-262v689h262c35.333 0 68.166 -4.33301 98.499 -13s56.833 -22 79.5 -40s40.334 -40.667 53.001 -68s19 -60 19 -98v-250zM412 439
c0 20 -3.33301 36.833 -10 50.5s-15.167 24.667 -25.5 33s-22.166 14.5 -35.499 18.5s-26.333 6 -39 6h-83v-407h83c12.667 0 25.667 2 39 6s25.166 10.167 35.499 18.5s18.833 19.5 25.5 33.5s10 31 10 51v190zM427 908l51 -59l-151 -120h-98l-149 120l48 58l150 -78z" />
    <glyph glyph-name="dcaron" unicode="&#x10f;" horiz-adv-x="704" 
d="M527 499c36.667 21.333 57.333 45.335 62 72.002c-15.333 3.33301 -28.833 11.666 -40.5 24.999s-17.5 30.666 -17.5 51.999c0 12 2.33301 23 7 33s11 18.833 19 26.5s17.167 13.5 27.5 17.5s20.833 6 31.5 6c28 0 50.5 -9.83301 67.5 -29.5s25.5 -45.5 25.5 -77.5
c0 -40 -12.167 -77 -36.5 -111s-56.5 -60.667 -96.5 -80zM39.999 323.002c0 26.667 3.49902 51.001 10.499 73.001s17.667 41 32 57s32.333 28.333 54 37s47.167 13 76.5 13c16.667 0 36.834 -1.66699 60.501 -5s45.167 -11 64.5 -23v241h148v-716h-134l-10 43
c-22.667 -14.667 -46.5 -26.334 -71.5 -35.001s-46.167 -13 -63.5 -13c-111.333 0 -167 61 -167 183v145zM188.998 192.003c0 -24 5 -40.168 15 -48.501s21.667 -12.5 35 -12.5s29.5 3.5 48.5 10.5s35.833 15.167 50.5 24.5v172c-18.667 9.33301 -35 15.833 -49 19.5
s-27.667 5.5 -41 5.5c-16.667 0 -30.667 -4.66699 -42 -14s-17 -25.666 -17 -48.999v-108z" />
    <glyph glyph-name="Dcroat" unicode="&#x110;" horiz-adv-x="622" 
d="M6 391h54v298h262c35.333 0 68.166 -4.33301 98.499 -13s56.833 -22 79.5 -40s40.334 -40.667 53.001 -68s19 -60 19 -98v-250c0 -38 -7.16699 -70.833 -21.5 -98.5s-33.333 -50.5 -57 -68.5s-50.5 -31.333 -80.5 -40s-60.333 -13 -91 -13h-262v284h-54v107zM412 439
c0 20 -3.33301 36.833 -10 50.5s-15.167 24.667 -25.5 33s-22.166 14.5 -35.499 18.5s-26.333 6 -39 6h-83v-156h94v-107h-94v-144h83c12.667 0 25.667 2 39 6s25.166 10.167 35.499 18.5s18.833 19.5 25.5 33.5s10 31 10 51v190z" />
    <glyph glyph-name="dcroat" unicode="&#x111;" horiz-adv-x="536" 
d="M204 637l133.999 0.000976562v79h148v-79h45v-87h-45v-550h-134l-10 43c-22.667 -14.667 -46.5 -26.334 -71.5 -35.001s-46.167 -13 -63.5 -13c-111.333 0 -167 61 -167 183v145c0 26.667 3.5 51 10.5 73s17.667 41 32 57s32.333 28.333 54 37s47.167 13 76.5 13
c16.667 0 36.834 -1.66699 60.501 -5s45.167 -11 64.5 -23v75h-134v87zM188.999 192.001c0 -24 5 -40.168 15 -48.501s21.667 -12.5 35 -12.5s29.5 3.5 48.5 10.5s35.833 15.167 50.5 24.5v172c-18.667 9.33301 -35 15.833 -49 19.5s-27.667 5.5 -41 5.5
c-16.667 0 -30.667 -4.66699 -42 -14s-17 -25.666 -17 -48.999v-108z" />
    <glyph glyph-name="Emacron" unicode="&#x112;" horiz-adv-x="586" 
d="M60 689h481v-142h-322v-129h275v-141h-275v-136h322v-141h-481v689zM137 758v118h333v-118h-333z" />
    <glyph glyph-name="emacron" unicode="&#x113;" horiz-adv-x="520" 
d="M480 207l-287.998 0.000976562v-6c0 -24.667 7.5 -42.667 22.5 -54s32.167 -17 51.5 -17c12 0 28.167 1.66699 48.5 5s42.833 13.666 67.5 30.999l78 -101c-16.667 -15.333 -32.834 -27.5 -48.501 -36.5s-31.334 -16 -47.001 -21s-31.334 -8.33301 -47.001 -10
s-31.5 -2.5 -47.5 -2.5c-29.333 0 -57.666 3.66699 -84.999 11s-51.333 18.5 -72 33.5s-37.167 34.167 -49.5 57.5s-18.5 50.666 -18.5 81.999v128c0 32 5.83301 60 17.5 84s27.5 44.333 47.5 61s43 29.167 69 37.5s53.667 12.5 83 12.5c31.333 0 60.333 -4.33301 87 -13
s49.667 -21.167 69 -37.5s34.5 -36.666 45.5 -60.999s16.5 -52.5 16.5 -84.5v-99zM332.002 305.001c0 20 -7 35.333 -21 46s-30 16 -48 16c-18.667 0 -35.167 -5.83301 -49.5 -17.5s-21.5 -27.167 -21.5 -46.5v-4h140v6zM100.002 578.001v118h333v-118h-333z" />
    <glyph glyph-name="Ebreve" unicode="&#x114;" horiz-adv-x="586" 
d="M60 689h481v-142h-322v-129h275v-141h-275v-136h322v-141h-481v689zM302 731c-28.667 0 -52.665 5.5 -71.998 16.5s-34.833 24.667 -46.5 41s-20.334 33.833 -26.001 52.5s-9.5 35.667 -11.5 51h100c0 -6.66699 1.16699 -13.834 3.5 -21.501s5.83301 -15 10.5 -22
s10.5 -12.833 17.5 -17.5s15.167 -7 24.5 -7s17.5 2.33301 24.5 7s12.833 10.5 17.5 17.5s8.16699 14.333 10.5 22s3.5 14.834 3.5 21.501h100c-2 -15.333 -5.83301 -32.333 -11.5 -51s-14.334 -36.167 -26.001 -52.5s-27.167 -30 -46.5 -41s-43.333 -16.5 -72 -16.5z" />
    <glyph glyph-name="ebreve" unicode="&#x115;" horiz-adv-x="520" 
d="M480 207l-287.998 0.000976562v-6c0 -24.667 7.5 -42.667 22.5 -54s32.167 -17 51.5 -17c12 0 28.167 1.66699 48.5 5s42.833 13.666 67.5 30.999l78 -101c-16.667 -15.333 -32.834 -27.5 -48.501 -36.5s-31.334 -16 -47.001 -21s-31.334 -8.33301 -47.001 -10
s-31.5 -2.5 -47.5 -2.5c-29.333 0 -57.666 3.66699 -84.999 11s-51.333 18.5 -72 33.5s-37.167 34.167 -49.5 57.5s-18.5 50.666 -18.5 81.999v128c0 32 5.83301 60 17.5 84s27.5 44.333 47.5 61s43 29.167 69 37.5s53.667 12.5 83 12.5c31.333 0 60.333 -4.33301 87 -13
s49.667 -21.167 69 -37.5s34.5 -36.666 45.5 -60.999s16.5 -52.5 16.5 -84.5v-99zM332.002 305.001c0 20 -7 35.333 -21 46s-30 16 -48 16c-18.667 0 -35.167 -5.83301 -49.5 -17.5s-21.5 -27.167 -21.5 -46.5v-4h140v6zM268.002 561.001
c-28.667 0 -52.665 5.5 -71.998 16.5s-34.833 24.667 -46.5 41s-20.334 33.833 -26.001 52.5s-9.5 35.667 -11.5 51h100c0 -6.66699 1.16699 -13.834 3.5 -21.501s5.83301 -15 10.5 -22s10.5 -12.833 17.5 -17.5s15.167 -7 24.5 -7s17.5 2.33301 24.5 7
s12.833 10.5 17.5 17.5s8.16699 14.333 10.5 22s3.5 14.834 3.5 21.501h100c-2 -15.333 -5.83301 -32.333 -11.5 -51s-14.334 -36.167 -26.001 -52.5s-27.167 -30 -46.5 -41s-43.333 -16.5 -72 -16.5z" />
    <glyph glyph-name="Edotaccent" unicode="&#x116;" horiz-adv-x="586" 
d="M60 689h481v-142h-322v-129h275v-141h-275v-136h322v-141h-481v689zM313 730c-12 0 -23 2.16895 -33 6.50195s-18.833 10.333 -26.5 18s-13.667 16.667 -18 27s-6.5 21.166 -6.5 32.499c0 23.333 8.16699 42.833 24.5 58.5s35.5 23.5 57.5 23.5
s41.167 -7.83301 57.5 -23.5s24.5 -35.167 24.5 -58.5c0 -22.667 -7.16699 -42.334 -21.5 -59.001s-33.833 -25 -58.5 -25z" />
    <glyph glyph-name="edotaccent" unicode="&#x117;" horiz-adv-x="520" 
d="M480 207l-287.998 0.000976562v-6c0 -24.667 7.5 -42.667 22.5 -54s32.167 -17 51.5 -17c12 0 28.167 1.66699 48.5 5s42.833 13.666 67.5 30.999l78 -101c-16.667 -15.333 -32.834 -27.5 -48.501 -36.5s-31.334 -16 -47.001 -21s-31.334 -8.33301 -47.001 -10
s-31.5 -2.5 -47.5 -2.5c-29.333 0 -57.666 3.66699 -84.999 11s-51.333 18.5 -72 33.5s-37.167 34.167 -49.5 57.5s-18.5 50.666 -18.5 81.999v128c0 32 5.83301 60 17.5 84s27.5 44.333 47.5 61s43 29.167 69 37.5s53.667 12.5 83 12.5c31.333 0 60.333 -4.33301 87 -13
s49.667 -21.167 69 -37.5s34.5 -36.666 45.5 -60.999s16.5 -52.5 16.5 -84.5v-99zM332.002 305.001c0 20 -7 35.333 -21 46s-30 16 -48 16c-18.667 0 -35.167 -5.83301 -49.5 -17.5s-21.5 -27.167 -21.5 -46.5v-4h140v6zM268.002 550.001c-12 0 -23 2.16895 -33 6.50195
s-18.833 10.333 -26.5 18s-13.667 16.667 -18 27s-6.5 21.166 -6.5 32.499c0 23.333 8.16699 42.833 24.5 58.5s35.5 23.5 57.5 23.5s41.167 -7.83301 57.5 -23.5s24.5 -35.167 24.5 -58.5c0 -22.667 -7.16699 -42.334 -21.5 -59.001s-33.833 -25 -58.5 -25z" />
    <glyph glyph-name="Eogonek" unicode="&#x118;" horiz-adv-x="586" 
d="M60 689l481.001 -0.00195312v-142h-322v-129h275v-141h-275v-136h322v-141c-15.333 -21.333 -26.5 -39 -33.5 -53s-10.5 -26 -10.5 -36c0 -18 10.667 -27 32 -27c6 0 14.667 1 26 3s24.666 5.66699 39.999 11l26 -79c-17.333 -9.33301 -35.666 -16.166 -54.999 -20.499
s-36.333 -6.5 -51 -6.5c-43.333 0 -74.333 8.66699 -93 26s-28 39.333 -28 66c0 17.333 3.66699 35.833 11 55.5s18.666 39.834 33.999 60.501h-379v689z" />
    <glyph glyph-name="eogonek" unicode="&#x119;" horiz-adv-x="520" 
d="M376 -55c0 -18 10.666 -27 31.999 -27c6 0 14.667 1 26 3s24.666 5.66699 39.999 11l26 -79c-17.333 -9.33301 -35.666 -16.166 -54.999 -20.499s-36.333 -6.5 -51 -6.5c-43.333 0 -74.333 8.66699 -93 26s-28 39.333 -28 66c0 24 7 50 21 78c-4 -0.666992 -8 -1 -12 -1
h-12c-29.333 0 -57.666 3.66699 -84.999 11s-51.333 18.5 -72 33.5s-37.167 34.167 -49.5 57.5s-18.5 50.666 -18.5 81.999v128c0 32 5.83301 60 17.5 84s27.5 44.333 47.5 61s43 29.167 69 37.5s53.667 12.5 83 12.5c31.333 0 60.333 -4.33301 87 -13
s49.667 -21.167 69 -37.5s34.5 -36.666 45.5 -60.999s16.5 -52.5 16.5 -84.5v-99h-288v-6c0 -24.667 7.5 -42.667 22.5 -54s32.167 -17 51.5 -17c12 0 28.167 1.66699 48.5 5s42.833 13.666 67.5 30.999l78 -101c-13.333 -12 -27 -23 -41 -33
c-15.333 -20 -26.333 -37 -33 -51s-10 -26 -10 -36zM331.999 305c0 20 -7 35.333 -21 46s-30 16 -48 16c-18.667 0 -35.167 -5.83301 -49.5 -17.5s-21.5 -27.167 -21.5 -46.5v-4h140v6z" />
    <glyph glyph-name="Ecaron" unicode="&#x11a;" horiz-adv-x="586" 
d="M60 689h481v-142h-322v-129h275v-141h-275v-136h322v-141h-481v689zM452 908l51 -59l-151 -120h-98l-149 120l48 58l150 -78z" />
    <glyph glyph-name="ecaron" unicode="&#x11b;" horiz-adv-x="520" 
d="M480 207l-287.998 0.000976562v-6c0 -24.667 7.5 -42.667 22.5 -54s32.167 -17 51.5 -17c12 0 28.167 1.66699 48.5 5s42.833 13.666 67.5 30.999l78 -101c-16.667 -15.333 -32.834 -27.5 -48.501 -36.5s-31.334 -16 -47.001 -21s-31.334 -8.33301 -47.001 -10
s-31.5 -2.5 -47.5 -2.5c-29.333 0 -57.666 3.66699 -84.999 11s-51.333 18.5 -72 33.5s-37.167 34.167 -49.5 57.5s-18.5 50.666 -18.5 81.999v128c0 32 5.83301 60 17.5 84s27.5 44.333 47.5 61s43 29.167 69 37.5s53.667 12.5 83 12.5c31.333 0 60.333 -4.33301 87 -13
s49.667 -21.167 69 -37.5s34.5 -36.666 45.5 -60.999s16.5 -52.5 16.5 -84.5v-99zM332.002 305.001c0 20 -7 35.333 -21 46s-30 16 -48 16c-18.667 0 -35.167 -5.83301 -49.5 -17.5s-21.5 -27.167 -21.5 -46.5v-4h140v6zM408.002 725.001l56 -49l-148 -155h-103l-147 155
l53 48l72.5 -51l72.5 -52z" />
    <glyph glyph-name="Gcircumflex" unicode="&#x11c;" horiz-adv-x="618" 
d="M563 95c-15.333 -19.333 -32.834 -35.498 -52.501 -48.498s-39.834 -23.5 -60.501 -31.5s-41.334 -13.667 -62.001 -17s-40 -5 -58 -5c-31.333 0 -63 4.33301 -95 13s-61 22 -87 40s-47.167 40.833 -63.5 68.5s-24.5 60.5 -24.5 98.5v257c0 38 7.83301 71 23.5 99
s36.334 51.5 62.001 70.5s54.5 33.167 86.5 42.5s64.667 14 98 14c40.667 0 81.5 -5.83301 122.5 -17.5s75.167 -29.5 102.5 -53.5l-77 -123c-22.667 19.333 -46.834 32.166 -72.501 38.499s-49.5 9.5 -71.5 9.5c-13.333 0 -26.666 -2 -39.999 -6
s-25.666 -10.167 -36.999 -18.5s-20.5 -19.333 -27.5 -33s-10.5 -30.5 -10.5 -50.5v-195c0 -20 3.33301 -36.833 10 -50.5s15.334 -24.667 26.001 -33s22.5 -14.5 35.5 -18.5s26.167 -6 39.5 -6c12 0 24.5 1.66699 37.5 5s25.167 9.66602 36.5 18.999v93h-95v134h254v-295z
M322.999 805.002l-150 -78l-48 58l149 120h98l151 -120l-51 -59z" />
    <glyph glyph-name="gcircumflex" unicode="&#x11d;" horiz-adv-x="536" 
d="M486 -26c0 -31.333 -7.66406 -58.3311 -22.9971 -80.998s-34.666 -41.334 -57.999 -56.001s-48.833 -25.5 -76.5 -32.5s-53.834 -10.5 -78.501 -10.5c-16 0 -33.167 1.16699 -51.5 3.5s-36.5 6.83301 -54.5 13.5s-35.833 15.667 -53.5 27s-33.834 25.666 -48.501 42.999
l95 95c8 -10 17.333 -18 28 -24s21.167 -10.667 31.5 -14s20.333 -5.5 30 -6.5s17.5 -1.5 23.5 -1.5c25.333 0 46.333 5.16699 63 15.5s25 28.833 25 55.5v43c-27.333 -16 -52.833 -26.833 -76.5 -32.5s-43.834 -8.5 -60.501 -8.5c-29.333 0 -54.166 4.33301 -74.499 13
s-37 21 -50 37s-22.333 35 -28 57s-8.5 46.333 -8.5 73v135c0 59.333 14.5 104.833 43.5 136.5s70.167 47.5 123.5 47.5c17.333 0 37.666 -3.33301 60.999 -10s46.666 -17.667 69.999 -33l10 37h138v-522zM189.003 203.002c0 -23.333 4.83301 -39.167 14.5 -47.5
s21.5 -12.5 35.5 -12.5c13.333 0 28.833 3.5 46.5 10.5s35.167 16.167 52.5 27.5v149c-13.333 9.33301 -29.333 17.5 -48 24.5s-35.667 10.5 -51 10.5c-13.333 0 -25 -4.83301 -35 -14.5s-15 -25.167 -15 -46.5v-101zM263.003 625.001l-72.5 -52l-72.5 -51l-53 48l147 155
h103l148 -155l-56 -49z" />
    <glyph glyph-name="Gbreve" unicode="&#x11e;" horiz-adv-x="618" 
d="M563 95c-15.333 -19.333 -32.834 -35.498 -52.501 -48.498s-39.834 -23.5 -60.501 -31.5s-41.334 -13.667 -62.001 -17s-40 -5 -58 -5c-31.333 0 -63 4.33301 -95 13s-61 22 -87 40s-47.167 40.833 -63.5 68.5s-24.5 60.5 -24.5 98.5v257c0 38 7.83301 71 23.5 99
s36.334 51.5 62.001 70.5s54.5 33.167 86.5 42.5s64.667 14 98 14c40.667 0 81.5 -5.83301 122.5 -17.5s75.167 -29.5 102.5 -53.5l-77 -123c-22.667 19.333 -46.834 32.166 -72.501 38.499s-49.5 9.5 -71.5 9.5c-13.333 0 -26.666 -2 -39.999 -6
s-25.666 -10.167 -36.999 -18.5s-20.5 -19.333 -27.5 -33s-10.5 -30.5 -10.5 -50.5v-195c0 -20 3.33301 -36.833 10 -50.5s15.334 -24.667 26.001 -33s22.5 -14.5 35.5 -18.5s26.167 -6 39.5 -6c12 0 24.5 1.66699 37.5 5s25.167 9.66602 36.5 18.999v93h-95v134h254v-295z
M323.999 731.002c-28.667 0 -52.665 5.5 -71.998 16.5s-34.833 24.667 -46.5 41s-20.334 33.833 -26.001 52.5s-9.5 35.667 -11.5 51h100c0 -6.66699 1.16699 -13.834 3.5 -21.501s5.83301 -15 10.5 -22s10.5 -12.833 17.5 -17.5s15.167 -7 24.5 -7s17.5 2.33301 24.5 7
s12.833 10.5 17.5 17.5s8.16699 14.333 10.5 22s3.5 14.834 3.5 21.501h100c-2 -15.333 -5.83301 -32.333 -11.5 -51s-14.334 -36.167 -26.001 -52.5s-27.167 -30 -46.5 -41s-43.333 -16.5 -72 -16.5z" />
    <glyph glyph-name="gbreve" unicode="&#x11f;" horiz-adv-x="536" 
d="M486 -26c0 -31.333 -7.66406 -58.3311 -22.9971 -80.998s-34.666 -41.334 -57.999 -56.001s-48.833 -25.5 -76.5 -32.5s-53.834 -10.5 -78.501 -10.5c-16 0 -33.167 1.16699 -51.5 3.5s-36.5 6.83301 -54.5 13.5s-35.833 15.667 -53.5 27s-33.834 25.666 -48.501 42.999
l95 95c8 -10 17.333 -18 28 -24s21.167 -10.667 31.5 -14s20.333 -5.5 30 -6.5s17.5 -1.5 23.5 -1.5c25.333 0 46.333 5.16699 63 15.5s25 28.833 25 55.5v43c-27.333 -16 -52.833 -26.833 -76.5 -32.5s-43.834 -8.5 -60.501 -8.5c-29.333 0 -54.166 4.33301 -74.499 13
s-37 21 -50 37s-22.333 35 -28 57s-8.5 46.333 -8.5 73v135c0 59.333 14.5 104.833 43.5 136.5s70.167 47.5 123.5 47.5c17.333 0 37.666 -3.33301 60.999 -10s46.666 -17.667 69.999 -33l10 37h138v-522zM189.003 203.002c0 -23.333 4.83301 -39.167 14.5 -47.5
s21.5 -12.5 35.5 -12.5c13.333 0 28.833 3.5 46.5 10.5s35.167 16.167 52.5 27.5v149c-13.333 9.33301 -29.333 17.5 -48 24.5s-35.667 10.5 -51 10.5c-13.333 0 -25 -4.83301 -35 -14.5s-15 -25.167 -15 -46.5v-101zM279.003 561.001c-28.667 0 -52.665 5.5 -71.998 16.5
s-34.833 24.667 -46.5 41s-20.334 33.833 -26.001 52.5s-9.5 35.667 -11.5 51h100c0 -6.66699 1.16699 -13.834 3.5 -21.501s5.83301 -15 10.5 -22s10.5 -12.833 17.5 -17.5s15.167 -7 24.5 -7s17.5 2.33301 24.5 7s12.833 10.5 17.5 17.5s8.16699 14.333 10.5 22
s3.5 14.834 3.5 21.501h100c-2 -15.333 -5.83301 -32.333 -11.5 -51s-14.334 -36.167 -26.001 -52.5s-27.167 -30 -46.5 -41s-43.333 -16.5 -72 -16.5z" />
    <glyph glyph-name="Gdotaccent" unicode="&#x120;" horiz-adv-x="618" 
d="M563 95c-15.333 -19.333 -32.834 -35.498 -52.501 -48.498s-39.834 -23.5 -60.501 -31.5s-41.334 -13.667 -62.001 -17s-40 -5 -58 -5c-31.333 0 -63 4.33301 -95 13s-61 22 -87 40s-47.167 40.833 -63.5 68.5s-24.5 60.5 -24.5 98.5v257c0 38 7.83301 71 23.5 99
s36.334 51.5 62.001 70.5s54.5 33.167 86.5 42.5s64.667 14 98 14c40.667 0 81.5 -5.83301 122.5 -17.5s75.167 -29.5 102.5 -53.5l-77 -123c-22.667 19.333 -46.834 32.166 -72.501 38.499s-49.5 9.5 -71.5 9.5c-13.333 0 -26.666 -2 -39.999 -6
s-25.666 -10.167 -36.999 -18.5s-20.5 -19.333 -27.5 -33s-10.5 -30.5 -10.5 -50.5v-195c0 -20 3.33301 -36.833 10 -50.5s15.334 -24.667 26.001 -33s22.5 -14.5 35.5 -18.5s26.167 -6 39.5 -6c12 0 24.5 1.66699 37.5 5s25.167 9.66602 36.5 18.999v93h-95v134h254v-295z
M331.999 730.002c-12 0 -23 2.16895 -33 6.50195s-18.833 10.333 -26.5 18s-13.667 16.667 -18 27s-6.5 21.166 -6.5 32.499c0 23.333 8.16699 42.833 24.5 58.5s35.5 23.5 57.5 23.5s41.167 -7.83301 57.5 -23.5s24.5 -35.167 24.5 -58.5
c0 -22.667 -7.16699 -42.334 -21.5 -59.001s-33.833 -25 -58.5 -25z" />
    <glyph glyph-name="gdotaccent" unicode="&#x121;" horiz-adv-x="536" 
d="M486 -26c0 -31.333 -7.66406 -58.3311 -22.9971 -80.998s-34.666 -41.334 -57.999 -56.001s-48.833 -25.5 -76.5 -32.5s-53.834 -10.5 -78.501 -10.5c-16 0 -33.167 1.16699 -51.5 3.5s-36.5 6.83301 -54.5 13.5s-35.833 15.667 -53.5 27s-33.834 25.666 -48.501 42.999
l95 95c8 -10 17.333 -18 28 -24s21.167 -10.667 31.5 -14s20.333 -5.5 30 -6.5s17.5 -1.5 23.5 -1.5c25.333 0 46.333 5.16699 63 15.5s25 28.833 25 55.5v43c-27.333 -16 -52.833 -26.833 -76.5 -32.5s-43.834 -8.5 -60.501 -8.5c-29.333 0 -54.166 4.33301 -74.499 13
s-37 21 -50 37s-22.333 35 -28 57s-8.5 46.333 -8.5 73v135c0 59.333 14.5 104.833 43.5 136.5s70.167 47.5 123.5 47.5c17.333 0 37.666 -3.33301 60.999 -10s46.666 -17.667 69.999 -33l10 37h138v-522zM189.003 203.002c0 -23.333 4.83301 -39.167 14.5 -47.5
s21.5 -12.5 35.5 -12.5c13.333 0 28.833 3.5 46.5 10.5s35.167 16.167 52.5 27.5v149c-13.333 9.33301 -29.333 17.5 -48 24.5s-35.667 10.5 -51 10.5c-13.333 0 -25 -4.83301 -35 -14.5s-15 -25.167 -15 -46.5v-101zM282.003 550.001c-12 0 -23 2.16895 -33 6.50195
s-18.833 10.333 -26.5 18s-13.667 16.667 -18 27s-6.5 21.166 -6.5 32.499c0 23.333 8.16699 42.833 24.5 58.5s35.5 23.5 57.5 23.5s41.167 -7.83301 57.5 -23.5s24.5 -35.167 24.5 -58.5c0 -22.667 -7.16699 -42.334 -21.5 -59.001s-33.833 -25 -58.5 -25z" />
    <glyph glyph-name="Gcommaaccent" unicode="&#x122;" horiz-adv-x="618" 
d="M563 95c-15.333 -19.333 -32.834 -35.498 -52.501 -48.498s-39.834 -23.5 -60.501 -31.5s-41.334 -13.667 -62.001 -17s-40 -5 -58 -5c-31.333 0 -63 4.33301 -95 13s-61 22 -87 40s-47.167 40.833 -63.5 68.5s-24.5 60.5 -24.5 98.5v257c0 38 7.83301 71 23.5 99
s36.334 51.5 62.001 70.5s54.5 33.167 86.5 42.5s64.667 14 98 14c40.667 0 81.5 -5.83301 122.5 -17.5s75.167 -29.5 102.5 -53.5l-77 -123c-22.667 19.333 -46.834 32.166 -72.501 38.499s-49.5 9.5 -71.5 9.5c-13.333 0 -26.666 -2 -39.999 -6
s-25.666 -10.167 -36.999 -18.5s-20.5 -19.333 -27.5 -33s-10.5 -30.5 -10.5 -50.5v-195c0 -20 3.33301 -36.833 10 -50.5s15.334 -24.667 26.001 -33s22.5 -14.5 35.5 -18.5s26.167 -6 39.5 -6c12 0 24.5 1.66699 37.5 5s25.167 9.66602 36.5 18.999v93h-95v134h254v-295z
M234.999 -270.998c36.667 21.333 57.333 45.335 62 72.002c-15.333 3.33301 -28.833 11.666 -40.5 24.999s-17.5 30.666 -17.5 51.999c0 12 2.33301 23 7 33s11 18.833 19 26.5s17.167 13.5 27.5 17.5s20.833 6 31.5 6c28 0 50.5 -9.83301 67.5 -29.5s25.5 -45.5 25.5 -77.5
c0 -40 -12.167 -77 -36.5 -111s-56.5 -60.667 -96.5 -80z" />
    <glyph glyph-name="gcommaaccent" unicode="&#x123;" horiz-adv-x="536" 
d="M380 766c-36.667 -21.333 -57.333 -45.335 -62 -72.002c15.333 -3.33301 28.833 -11.666 40.5 -24.999s17.5 -30.666 17.5 -51.999c0 -12 -2.33301 -23 -7 -33s-11 -18.833 -19 -26.5s-17.167 -13.5 -27.5 -17.5s-20.833 -6 -31.5 -6c-28 0 -50.5 9.83301 -67.5 29.5
s-25.5 45.5 -25.5 77.5c0 40 12.167 77 36.5 111s56.5 60.667 96.5 80zM486.001 -26.002c0 -31.333 -7.66406 -58.3311 -22.9971 -80.998s-34.666 -41.334 -57.999 -56.001s-48.833 -25.5 -76.5 -32.5s-53.834 -10.5 -78.501 -10.5c-16 0 -33.167 1.16699 -51.5 3.5
s-36.5 6.83301 -54.5 13.5s-35.833 15.667 -53.5 27s-33.834 25.666 -48.501 42.999l95 95c8 -10 17.333 -18 28 -24s21.167 -10.667 31.5 -14s20.333 -5.5 30 -6.5s17.5 -1.5 23.5 -1.5c25.333 0 46.333 5.16699 63 15.5s25 28.833 25 55.5v43
c-27.333 -16 -52.833 -26.833 -76.5 -32.5s-43.834 -8.5 -60.501 -8.5c-29.333 0 -54.166 4.33301 -74.499 13s-37 21 -50 37s-22.333 35 -28 57s-8.5 46.333 -8.5 73v135c0 59.333 14.5 104.833 43.5 136.5s70.167 47.5 123.5 47.5c17.333 0 37.666 -3.33301 60.999 -10
s46.666 -17.667 69.999 -33l10 37h138v-522zM189.004 203c0 -23.333 4.83301 -39.167 14.5 -47.5s21.5 -12.5 35.5 -12.5c13.333 0 28.833 3.5 46.5 10.5s35.167 16.167 52.5 27.5v149c-13.333 9.33301 -29.333 17.5 -48 24.5s-35.667 10.5 -51 10.5
c-13.333 0 -25 -4.83301 -35 -14.5s-15 -25.167 -15 -46.5v-101z" />
    <glyph glyph-name="Hcircumflex" unicode="&#x124;" horiz-adv-x="660" 
d="M439 0v279h-220v-279h-159v689h159v-267h220v267h161v-689h-161zM330 805l-150 -78l-48 58l149 120h98l151 -120l-51 -59z" />
    <glyph glyph-name="hcircumflex" unicode="&#x125;" horiz-adv-x="545" 
d="M351 0v302.999c0 22.667 -5.83301 38.334 -17.5 47.001s-23.834 13 -36.501 13c-13.333 0 -27.166 -2.33301 -41.499 -7s-33.5 -14.667 -57.5 -30v-326h-148v716h148v-259c33.333 20.667 62.166 33.5 86.499 38.5s44.833 7.5 61.5 7.5c28.667 0 52.834 -4.5 72.501 -13.5
s35.5 -21.5 47.5 -37.5s20.667 -35 26 -57s8 -46.333 8 -73v-322h-149zM122 804.999l-150 -78l-48 58l149 120h98l151 -120l-51 -59z" />
    <glyph glyph-name="Hbar" unicode="&#x126;" horiz-adv-x="660" 
d="M439 0v279h-220v-279h-159v502h-40v93h40v94h159v-94h220v94h161v-94h53v-93h-53v-502h-161zM439 422v80h-220v-80h220z" />
    <glyph glyph-name="hbar" unicode="&#x127;" horiz-adv-x="545" 
d="M351 0v302.999c0 22.667 -5.83301 38.334 -17.5 47.001s-23.834 13 -36.501 13c-13.333 0 -27.166 -2.33301 -41.499 -7s-33.5 -14.667 -57.5 -30v-326h-148v558h-50v93h50v65h148v-65h168v-93h-168v-101c33.333 20.667 62.166 33.5 86.499 38.5s44.833 7.5 61.5 7.5
c28.667 0 52.834 -4.5 72.501 -13.5s35.5 -21.5 47.5 -37.5s20.667 -35 26 -57s8 -46.333 8 -73v-322h-149z" />
    <glyph glyph-name="Itilde" unicode="&#x128;" horiz-adv-x="319" 
d="M239 689v-689h-159v689h159zM94 881c13.333 -0.666992 26.335 -3.5 39.002 -8.5s24.667 -10.5 36 -16.5l31.5 -16.5c9.66699 -5 18.167 -7.5 25.5 -7.5c11.333 0 21.5 3.33301 30.5 10s20.167 18.667 33.5 36l71 -42c-18.667 -40 -37.5 -68.333 -56.5 -85
s-40.5 -25 -64.5 -25c-14 0 -27.333 2.5 -40 7.5s-24.834 10.333 -36.501 16l-33.5 16c-10.667 5 -20.334 7.5 -29.001 7.5c-11.333 0 -22 -2.5 -32 -7.5s-22.667 -17.5 -38 -37.5l-69 43c17.333 36.667 36 64.167 56 82.5s45.333 27.5 76 27.5z" />
    <glyph glyph-name="itilde" unicode="&#x129;" horiz-adv-x="333" 
d="M92 711c13.333 -0.666992 26.335 -3.5 39.002 -8.5s24.667 -10.5 36 -16.5l31.5 -16.5c9.66699 -5 18.167 -7.5 25.5 -7.5c11.333 0 21.5 3.33301 30.5 10s20.167 18.667 33.5 36l71 -42c-18.667 -40 -37.5 -68.333 -56.5 -85s-40.5 -25 -64.5 -25
c-14 0 -27.333 2.5 -40 7.5s-24.834 10.333 -36.501 16l-33.5 16c-10.667 5 -20.334 7.5 -29.001 7.5c-11.333 0 -22 -2.5 -32 -7.5s-22.667 -17.5 -38 -37.5l-69 43c17.333 36.667 36 64.167 56 82.5s45.333 27.5 76 27.5zM94.002 0v493h148v-493h-148z" />
    <glyph glyph-name="Imacron" unicode="&#x12a;" horiz-adv-x="319" 
d="M239 689v-689h-159v689h159zM-4 758v118h333v-118h-333z" />
    <glyph glyph-name="imacron" unicode="&#x12b;" horiz-adv-x="300" 
d="M85 0v493h148v-493h-148zM-16 578v118h333v-118h-333z" />
    <glyph glyph-name="Ibreve" unicode="&#x12c;" horiz-adv-x="319" 
d="M163 731c-28.667 0 -52.665 5.5 -71.998 16.5s-34.833 24.667 -46.5 41s-20.334 33.833 -26.001 52.5s-9.5 35.667 -11.5 51h100c0 -6.66699 1.16699 -13.834 3.5 -21.501s5.83301 -15 10.5 -22s10.5 -12.833 17.5 -17.5s15.167 -7 24.5 -7s17.5 2.33301 24.5 7
s12.833 10.5 17.5 17.5s8.16699 14.333 10.5 22s3.5 14.834 3.5 21.501h100c-2 -15.333 -5.83301 -32.333 -11.5 -51s-14.334 -36.167 -26.001 -52.5s-27.167 -30 -46.5 -41s-43.333 -16.5 -72 -16.5zM239.002 689v-689h-159v689h159z" />
    <glyph glyph-name="ibreve" unicode="&#x12d;" horiz-adv-x="293" 
d="M78 0v493h148v-493h-148zM146 567c-28.667 0 -52.665 5.5 -71.998 16.5s-34.833 24.667 -46.5 41s-20.334 33.833 -26.001 52.5s-9.5 35.667 -11.5 51h100c0 -6.66699 1.16699 -13.834 3.5 -21.501s5.83301 -15 10.5 -22s10.5 -12.833 17.5 -17.5s15.167 -7 24.5 -7
s17.5 2.33301 24.5 7s12.833 10.5 17.5 17.5s8.16699 14.333 10.5 22s3.5 14.834 3.5 21.501h100c-2 -15.333 -5.83301 -32.333 -11.5 -51s-14.334 -36.167 -26.001 -52.5s-27.167 -30 -46.5 -41s-43.333 -16.5 -72 -16.5z" />
    <glyph glyph-name="Iogonek" unicode="&#x12e;" horiz-adv-x="319" 
d="M164 -89c0 -18 10.668 -27.002 32.001 -27.002c6 0 14.667 1 26 3s24.666 5.66699 39.999 11l26 -79c-17.333 -9.33301 -35.666 -16.166 -54.999 -20.499s-36.333 -6.5 -51 -6.5c-43.333 0 -74.333 8.66699 -93 26s-28 39.333 -28 66c0 17.333 3.66699 35.833 11 55.5
s18.666 39.834 33.999 60.501h-26v689h159v-689h-31c-15.333 -21.333 -26.5 -39 -33.5 -53s-10.5 -26 -10.5 -36z" />
    <glyph glyph-name="iogonek" unicode="&#x12f;" horiz-adv-x="283" 
d="M147 -88c0 -18 10.667 -27 32 -27c6 0 14.667 1 26 3s24.666 5.66699 39.999 11l26 -79c-17.333 -9.33301 -35.666 -16.166 -54.999 -20.499s-36.333 -6.5 -51 -6.5c-43.333 0 -74.333 8.66699 -93 26s-28 39.333 -28 66c0 17.333 3.5 35.666 10.5 54.999
s18.167 39.333 33.5 60h-20v496h148v-496h-26c-15.333 -20.667 -26.333 -38 -33 -52s-10 -26 -10 -36zM60 623c0 22.667 7.83301 41.834 23.5 57.501s34.834 23.5 57.501 23.5s42 -7.83301 58 -23.5s24 -34.834 24 -57.501c0 -23.333 -8 -42.833 -24 -58.5
s-35.333 -23.5 -58 -23.5s-41.834 7.83301 -57.501 23.5s-23.5 35.167 -23.5 58.5z" />
    <glyph glyph-name="Idotaccent" unicode="&#x130;" horiz-adv-x="319" 
d="M239 689v-689h-159v689h159zM161 730c-12 0 -23 2.16895 -33 6.50195s-18.833 10.333 -26.5 18s-13.667 16.667 -18 27s-6.5 21.166 -6.5 32.499c0 23.333 8.16699 42.833 24.5 58.5s35.5 23.5 57.5 23.5s41.167 -7.83301 57.5 -23.5s24.5 -35.167 24.5 -58.5
c0 -22.667 -7.16699 -42.334 -21.5 -59.001s-33.833 -25 -58.5 -25z" />
    <glyph glyph-name="dotlessi" unicode="&#x131;" horiz-adv-x="283" 
d="M68 0v493h148v-493h-148z" />
    <glyph glyph-name="IJ" unicode="&#x132;" horiz-adv-x="840" 
d="M239 689v-689h-159v689h159zM764 213c0 -38 -7.16797 -70.668 -21.501 -98.001s-33.166 -50 -56.499 -68s-50 -31.333 -80 -40s-60.667 -13 -92 -13c-42 0 -82.833 5.66699 -122.5 17s-73.167 28.666 -100.5 51.999l74 122c23.333 -18 45.666 -30.333 66.999 -37
s42 -10 62 -10c16 0 30.667 1.83301 44 5.5s24.833 9.83398 34.5 18.501s17.334 20.334 23.001 35.001s8.5 33 8.5 55v437h160v-476z" />
    <glyph glyph-name="ij" unicode="&#x133;" horiz-adv-x="544" 
d="M68 0v496h148v-496h-148zM60 623c0 22.667 7.83301 41.834 23.5 57.501s34.834 23.5 57.501 23.5s42 -7.83301 58 -23.5s24 -34.834 24 -57.501c0 -23.333 -8 -42.833 -24 -58.5s-35.333 -23.5 -58 -23.5s-41.834 7.83301 -57.501 23.5s-23.5 35.167 -23.5 58.5zM476 -52
c0 -22 -4.16602 -42.1689 -12.499 -60.502s-19.833 -34 -34.5 -47s-32.167 -23 -52.5 -30s-42.166 -10.5 -65.499 -10.5h-60v124h29c10 0 18.167 1.66699 24.5 5s11.166 7.33301 14.499 12s5.66602 9.83398 6.99902 15.501s2 10.834 2 15.501v524h148v-548zM321.001 622.998
c0 22.667 7.83301 41.834 23.5 57.501s34.834 23.5 57.501 23.5s42 -7.83301 58 -23.5s24 -34.834 24 -57.501c0 -23.333 -8 -42.833 -24 -58.5s-35.333 -23.5 -58 -23.5s-41.834 7.83301 -57.501 23.5s-23.5 35.167 -23.5 58.5z" />
    <glyph glyph-name="Jcircumflex" unicode="&#x134;" horiz-adv-x="538" 
d="M473 214c0 -38 -7.16797 -70.668 -21.501 -98.001s-33.166 -50 -56.499 -68s-50 -31.333 -80 -40s-60.667 -13 -92 -13c-42 0 -82.833 5.66699 -122.5 17s-73.167 28.666 -100.5 51.999l74 122c23.333 -18 45.666 -30.333 66.999 -37s42 -10 62 -10
c16 0 30.667 1.83301 44 5.5s24.833 9.83398 34.5 18.501s17.334 20.334 23.001 35.001s8.5 33 8.5 55v437h160v-476zM393.999 806.999l-150 -78l-48 58l149 120h98l151 -120l-51 -59z" />
    <glyph glyph-name="jcircumflex" unicode="&#x135;" horiz-adv-x="378" 
d="M264 -52c0 -22 -4.16602 -42.1689 -12.499 -60.502s-19.833 -34 -34.5 -47s-32.167 -23 -52.5 -30s-42.166 -10.5 -65.499 -10.5h-60v124h29c10 0 18.167 1.66699 24.5 5s11.166 7.33301 14.499 12s5.66602 9.83398 6.99902 15.501s2 10.834 2 15.501v522h148v-546z
M188.001 624.998l-72.5 -52l-72.5 -51l-53 48l147 155h103l148 -155l-56 -49z" />
    <glyph glyph-name="Kcommaaccent" unicode="&#x136;" horiz-adv-x="647" 
d="M298 284l-79 -91v-193h-159v689h159v-269l228 269h188l-232 -280l244 -409h-186zM244 -251c36.667 21.333 57.333 45.335 62 72.002c-15.333 3.33301 -28.833 11.666 -40.5 24.999s-17.5 30.666 -17.5 51.999c0 12 2.33301 23 7 33s11 18.833 19 26.5
s17.167 13.5 27.5 17.5s20.833 6 31.5 6c28 0 50.5 -9.83301 67.5 -29.5s25.5 -45.5 25.5 -77.5c0 -40 -12.167 -77 -36.5 -111s-56.5 -60.667 -96.5 -80z" />
    <glyph glyph-name="kcommaaccent" unicode="&#x137;" horiz-adv-x="535" 
d="M50 0v716h150v-358h25c17.333 0 31.333 4.66699 42 14s20.334 22.333 29.001 39l42 84h167l-60 -123c-9.33301 -19.333 -19.333 -35.666 -30 -48.999s-26 -23.666 -46 -30.999c14 -4.66699 25.667 -10.834 35 -18.501s17 -16.167 23 -25.5s11 -19.333 15 -30
s7.66699 -21.334 11 -32.001l62 -186h-166l-49 161c-6.66699 20.667 -15.834 36 -27.501 46s-30.167 15 -55.5 15h-17v-222h-150zM166 -271c36.667 21.333 57.333 45.335 62 72.002c-15.333 3.33301 -28.833 11.666 -40.5 24.999s-17.5 30.666 -17.5 51.999
c0 12 2.33301 23 7 33s11 18.833 19 26.5s17.167 13.5 27.5 17.5s20.833 6 31.5 6c28 0 50.5 -9.83301 67.5 -29.5s25.5 -45.5 25.5 -77.5c0 -40 -12.167 -77 -36.5 -111s-56.5 -60.667 -96.5 -80z" />
    <glyph glyph-name="kgreenlandic" unicode="&#x138;" horiz-adv-x="544" 
d="M50 0l-0.000976562 495.998h149v-171h20c21.333 0 39.5 5 54.5 15s27.167 27 36.5 51l41 105h159l-53 -144c-8.66699 -23.333 -18.5 -42.333 -29.5 -57s-27.167 -26.667 -48.5 -36c12.667 -4.66699 23.334 -10 32.001 -16s16 -13 22 -21s11.333 -17.167 16 -27.5
s9 -21.5 13 -33.5l57 -161h-167l-38 128c-4 14.667 -9.16699 26.334 -15.5 35.001s-13.5 15.334 -21.5 20.001s-17.167 7.66699 -27.5 9s-21.5 2 -33.5 2h-17v-194h-149z" />
    <glyph glyph-name="Lacute" unicode="&#x139;" horiz-adv-x="549" 
d="M60 0v689h157v-547h327v-142h-484zM80 804l182 131l80 -112l-214 -90z" />
    <glyph glyph-name="lacute" unicode="&#x13a;" horiz-adv-x="289" 
d="M206 172c0 -10 0.668945 -17.998 2.00195 -23.998s4.16602 -10.833 8.49902 -14.5s10.666 -6.33398 18.999 -8.00098s19.5 -2.83398 33.5 -3.50098l2 -122c-11.333 -2 -22.833 -3.33301 -34.5 -4s-22.167 -1 -31.5 -1c-33.333 0 -59.666 3.5 -78.999 10.5
s-33.833 17 -43.5 30s-15.834 28.5 -18.501 46.5s-4 38 -4 60v574h146v-544zM82.002 816.002l182 131l80 -112l-214 -90z" />
    <glyph glyph-name="Lcommaaccent" unicode="&#x13b;" horiz-adv-x="549" 
d="M60 0v689h157v-547h327v-142h-484zM203 -271c36.667 21.333 57.333 45.335 62 72.002c-15.333 3.33301 -28.833 11.666 -40.5 24.999s-17.5 30.666 -17.5 51.999c0 12 2.33301 23 7 33s11 18.833 19 26.5s17.167 13.5 27.5 17.5s20.833 6 31.5 6
c28 0 50.5 -9.83301 67.5 -29.5s25.5 -45.5 25.5 -77.5c0 -40 -12.167 -77 -36.5 -111s-56.5 -60.667 -96.5 -80z" />
    <glyph glyph-name="lcommaaccent" unicode="&#x13c;" horiz-adv-x="289" 
d="M206 172c0 -10 0.668945 -17.998 2.00195 -23.998s4.16602 -10.833 8.49902 -14.5s10.666 -6.33398 18.999 -8.00098s19.5 -2.83398 33.5 -3.50098l2 -122c-11.333 -2 -22.833 -3.33301 -34.5 -4s-22.167 -1 -31.5 -1c-33.333 0 -59.666 3.5 -78.999 10.5
s-33.833 17 -43.5 30s-15.834 28.5 -18.501 46.5s-4 38 -4 60v574h146v-544zM59.002 -265.998c36.667 21.333 57.333 45.335 62 72.002c-15.333 3.33301 -28.833 11.666 -40.5 24.999s-17.5 30.666 -17.5 51.999c0 12 2.33301 23 7 33s11 18.833 19 26.5
s17.167 13.5 27.5 17.5s20.833 6 31.5 6c28 0 50.5 -9.83301 67.5 -29.5s25.5 -45.5 25.5 -77.5c0 -40 -12.167 -77 -36.5 -111s-56.5 -60.667 -96.5 -80z" />
    <glyph glyph-name="Lcaron" unicode="&#x13d;" horiz-adv-x="549" 
d="M60 0v689h157v-547h327v-142h-484zM301 459c36.667 21.333 57.333 45.335 62 72.002c-15.333 3.33301 -28.833 11.666 -40.5 24.999s-17.5 30.666 -17.5 51.999c0 12 2.33301 23 7 33s11 18.833 19 26.5s17.167 13.5 27.5 17.5s20.833 6 31.5 6
c28 0 50.5 -9.83301 67.5 -29.5s25.5 -45.5 25.5 -77.5c0 -40 -12.167 -77 -36.5 -111s-56.5 -60.667 -96.5 -80z" />
    <glyph glyph-name="lcaron" unicode="&#x13e;" horiz-adv-x="436" 
d="M254 485c36.667 21.333 57.333 45.335 62 72.002c-15.333 3.33301 -28.833 11.666 -40.5 24.999s-17.5 30.666 -17.5 51.999c0 12 2.33301 23 7 33s11 18.833 19 26.5s17.167 13.5 27.5 17.5s20.833 6 31.5 6c28 0 50.5 -9.83301 67.5 -29.5s25.5 -45.5 25.5 -77.5
c0 -40 -12.167 -77 -36.5 -111s-56.5 -60.667 -96.5 -80zM205.999 172.002c0 -10 0.668945 -17.998 2.00195 -23.998s4.16602 -10.833 8.49902 -14.5s10.666 -6.33398 18.999 -8.00098s19.5 -2.83398 33.5 -3.50098l2 -122c-11.333 -2 -22.833 -3.33301 -34.5 -4
s-22.167 -1 -31.5 -1c-33.333 0 -59.666 3.5 -78.999 10.5s-33.833 17 -43.5 30s-15.834 28.5 -18.501 46.5s-4 38 -4 60v574h146v-544z" />
    <glyph glyph-name="Ldot" unicode="&#x13f;" horiz-adv-x="549" 
d="M60 0v689h157v-547h327v-142h-484zM391 284c-12 0 -23 2.16895 -33 6.50195s-18.833 10.333 -26.5 18s-13.667 16.667 -18 27s-6.5 21.166 -6.5 32.499c0 23.333 8.16699 42.833 24.5 58.5s35.5 23.5 57.5 23.5s41.167 -7.83301 57.5 -23.5s24.5 -35.167 24.5 -58.5
c0 -22.667 -7.16699 -42.334 -21.5 -59.001s-33.833 -25 -58.5 -25z" />
    <glyph glyph-name="ldot" unicode="&#x140;" horiz-adv-x="425" 
d="M337 291c-12 0 -23 2.16895 -33 6.50195s-18.833 10.333 -26.5 18s-13.667 16.667 -18 27s-6.5 21.166 -6.5 32.499c0 23.333 8.16699 42.833 24.5 58.5s35.5 23.5 57.5 23.5s41.167 -7.83301 57.5 -23.5s24.5 -35.167 24.5 -58.5
c0 -22.667 -7.16699 -42.334 -21.5 -59.001s-33.833 -25 -58.5 -25zM206 172.002c0 -10 0.668945 -17.998 2.00195 -23.998s4.16602 -10.833 8.49902 -14.5s10.666 -6.33398 18.999 -8.00098s19.5 -2.83398 33.5 -3.50098l2 -122c-11.333 -2 -22.833 -3.33301 -34.5 -4
s-22.167 -1 -31.5 -1c-33.333 0 -59.666 3.5 -78.999 10.5s-33.833 17 -43.5 30s-15.834 28.5 -18.501 46.5s-4 38 -4 60v574h146v-544z" />
    <glyph glyph-name="Lslash" unicode="&#x141;" horiz-adv-x="566" 
d="M77 0v196l-32 -18l-50 87l82 47v377h157v-285l105 61l50 -87l-155 -90v-146h327v-142h-484z" />
    <glyph glyph-name="lslash" unicode="&#x142;" horiz-adv-x="318" 
d="M235 462l46.002 29.002l50 -87l-96 -61v-171c0 -10 0.666992 -18 2 -24s4.16602 -10.833 8.49902 -14.5s10.666 -6.33398 18.999 -8.00098s19.5 -2.83398 33.5 -3.50098l2 -122c-11.333 -2 -22.833 -3.33301 -34.5 -4s-22.167 -1 -31.5 -1
c-33.333 0 -59.666 3.5 -78.999 10.5s-33.833 17 -43.5 30s-15.834 28.5 -18.501 46.5s-4 38 -4 60v109l-41 -26l-51 87l92 58v346h146v-254z" />
    <glyph glyph-name="Nacute" unicode="&#x143;" horiz-adv-x="690" 
d="M219 396v-396h-159v689h143l115 -167l151 -229h3v396h158v-689h-142l-142 210l-122 186h-5zM249 804l182 131l80 -112l-214 -90z" />
    <glyph glyph-name="nacute" unicode="&#x144;" horiz-adv-x="545" 
d="M351 0v303.004c0 23.333 -5.33301 39.166 -16 47.499s-23.334 12.5 -38.001 12.5c-13.333 0 -27.166 -2.33301 -41.499 -7s-33.5 -14.667 -57.5 -30v-326h-148v496h132l10 -39c33.333 20.667 63.166 33.5 89.499 38.5s47.833 7.5 64.5 7.5
c28.667 0 52.834 -4.33301 72.501 -13s35.5 -20.834 47.5 -36.501s20.667 -34.334 26 -56.001s8 -45.834 8 -72.501v-325h-149zM203 567.004l85 203l133 -43l-135 -190z" />
    <glyph glyph-name="Ncommaaccent" unicode="&#x145;" horiz-adv-x="690" 
d="M219 396v-396h-159v689h143l115 -167l151 -229h3v396h158v-689h-142l-142 210l-122 186h-5zM265 -251c36.667 21.333 57.333 45.335 62 72.002c-15.333 3.33301 -28.833 11.666 -40.5 24.999s-17.5 30.666 -17.5 51.999c0 12 2.33301 23 7 33s11 18.833 19 26.5
s17.167 13.5 27.5 17.5s20.833 6 31.5 6c28 0 50.5 -9.83301 67.5 -29.5s25.5 -45.5 25.5 -77.5c0 -40 -12.167 -77 -36.5 -111s-56.5 -60.667 -96.5 -80z" />
    <glyph glyph-name="ncommaaccent" unicode="&#x146;" horiz-adv-x="545" 
d="M351 0v303.004c0 23.333 -5.33301 39.166 -16 47.499s-23.334 12.5 -38.001 12.5c-13.333 0 -27.166 -2.33301 -41.499 -7s-33.5 -14.667 -57.5 -30v-326h-148v496h132l10 -39c33.333 20.667 63.166 33.5 89.499 38.5s47.833 7.5 64.5 7.5
c28.667 0 52.834 -4.33301 72.501 -13s35.5 -20.834 47.5 -36.501s20.667 -34.334 26 -56.001s8 -45.834 8 -72.501v-325h-149zM186 -270.996c36.667 21.333 57.333 45.335 62 72.002c-15.333 3.33301 -28.833 11.666 -40.5 24.999s-17.5 30.666 -17.5 51.999
c0 12 2.33301 23 7 33s11 18.833 19 26.5s17.167 13.5 27.5 17.5s20.833 6 31.5 6c28 0 50.5 -9.83301 67.5 -29.5s25.5 -45.5 25.5 -77.5c0 -40 -12.167 -77 -36.5 -111s-56.5 -60.667 -96.5 -80z" />
    <glyph glyph-name="Ncaron" unicode="&#x147;" horiz-adv-x="690" 
d="M219 396v-396h-159v689h143l115 -167l151 -229h3v396h158v-689h-142l-142 210l-122 186h-5zM487 908l51 -59l-151 -120h-98l-149 120l48 58l150 -78z" />
    <glyph glyph-name="ncaron" unicode="&#x148;" horiz-adv-x="545" 
d="M351 0v303.004c0 23.333 -5.33301 39.166 -16 47.499s-23.334 12.5 -38.001 12.5c-13.333 0 -27.166 -2.33301 -41.499 -7s-33.5 -14.667 -57.5 -30v-326h-148v496h132l10 -39c33.333 20.667 63.166 33.5 89.499 38.5s47.833 7.5 64.5 7.5
c28.667 0 52.834 -4.33301 72.501 -13s35.5 -20.834 47.5 -36.501s20.667 -34.334 26 -56.001s8 -45.834 8 -72.501v-325h-149zM411 725.004l56 -49l-148 -155h-103l-147 155l53 48l72.5 -51l72.5 -52z" />
    <glyph glyph-name="napostrophe" unicode="&#x149;" horiz-adv-x="672" 
d="M478 0v303.004c0 23.333 -5.33301 39.166 -16 47.499s-23.334 12.5 -38.001 12.5c-13.333 0 -27.166 -2.33301 -41.499 -7s-33.5 -14.667 -57.5 -30v-326h-148v496h132l10 -39c33.333 20.667 63.166 33.5 89.499 38.5s47.833 7.5 64.5 7.5
c28.667 0 52.834 -4.33301 72.501 -13s35.5 -20.834 47.5 -36.501s20.667 -34.334 26 -56.001s8 -45.834 8 -72.501v-325h-149zM-4 456.004c36.667 21.333 57.333 45.335 62 72.002c-15.333 3.33301 -28.833 11.666 -40.5 24.999s-17.5 30.666 -17.5 51.999
c-0 12 2.33301 23 7 33s11 18.833 19 26.5s17.167 13.5 27.5 17.5s20.833 6 31.5 6c28 0 50.5 -9.83301 67.5 -29.5s25.5 -45.5 25.5 -77.5c0 -40 -12.167 -77 -36.5 -111s-56.5 -60.667 -96.5 -80z" />
    <glyph glyph-name="Eng" unicode="&#x14a;" horiz-adv-x="690" 
d="M219 396l0.000976562 -396.001h-159v689h143l115 -167l151 -229h3v396h158l-1 -780c0 -22.667 -3.66699 -41.667 -11 -57s-17.333 -27.833 -30 -37.5s-27.334 -16.5 -44.001 -20.5s-34 -6 -52 -6c-20 0 -40.333 2 -61 6s-40.334 9.66699 -59.001 17l28 120
c6.66699 -1.33301 12.834 -2.33301 18.501 -3s11.167 -1 16.5 -1c14.667 0 26 3.33301 34 10s12 18.334 12 35.001v38l-135 200l-122 186h-5z" />
    <glyph glyph-name="eng" unicode="&#x14b;" horiz-adv-x="545" 
d="M500 -91c0 -22.667 -3.66602 -41.6641 -10.999 -56.9971s-17.333 -27.833 -30 -37.5s-27.334 -16.5 -44.001 -20.5s-34 -6 -52 -6c-20 0 -40.333 2 -61 6s-40.334 9.66699 -59.001 17l28 120c6.66699 -1.33301 12.834 -2.33301 18.501 -3s11.167 -1 16.5 -1
c14.667 0 26 3.33301 34 10s12 18.334 12 35.001l-1 329c0 23.333 -5.33301 39.166 -16 47.499s-23.334 12.5 -38.001 12.5c-13.333 0 -27.166 -2.33301 -41.499 -7s-33.5 -14.667 -57.5 -30v-324h-148v494h132l10 -39c33.333 20.667 63.166 33.5 89.499 38.5
s47.833 7.5 64.5 7.5c28.667 0 52.834 -4.33301 72.501 -13s35.5 -20.834 47.5 -36.501s20.667 -34.334 26 -56.001s8 -45.834 8 -72.501v-414v0z" />
    <glyph glyph-name="Omacron" unicode="&#x14c;" horiz-adv-x="650" 
d="M595 218c0 -38 -7.33203 -71.001 -21.999 -99.001s-34.334 -51.333 -59.001 -70s-53.334 -32.667 -86.001 -42s-67 -14 -103 -14s-70.167 4.66699 -102.5 14s-61 23.333 -86 42s-44.833 42 -59.5 70s-22 61 -22 99v259c0 38 8 70.667 24 98s36.833 50 62.5 68
s54.5 31.333 86.5 40s64.333 13 97 13s65.167 -4.66699 97.5 -14s61.333 -23.166 87 -41.499s46.334 -41.5 62.001 -69.5s23.5 -61 23.5 -99v-254zM435.001 441.999c0 20 -3.33301 36.833 -10 50.5s-15.167 24.667 -25.5 33s-22.166 14.5 -35.499 18.5s-26.333 6 -39 6
c-13.333 0 -26.5 -2 -39.5 -6s-24.833 -10.167 -35.5 -18.5s-19.334 -19.333 -26.001 -33s-10 -30.5 -10 -50.5v-195c0 -20 3.33301 -36.833 10 -50.5s15.334 -24.667 26.001 -33s22.5 -14.5 35.5 -18.5s26.167 -6 39.5 -6c12.667 0 25.667 2 39 6
s25.166 10.167 35.499 18.5s18.833 19.333 25.5 33s10 30.5 10 50.5v195zM167.001 757.999v118h333v-118h-333z" />
    <glyph glyph-name="omacron" unicode="&#x14d;" horiz-adv-x="525" 
d="M485 187c0 -31.333 -5.33301 -59 -16 -83s-25.834 -44 -45.501 -60s-43.167 -28.167 -70.5 -36.5s-57.333 -12.5 -90 -12.5c-69.333 0 -123.833 16.167 -163.5 48.5s-59.5 80.166 -59.5 143.499v124c0 31.333 5.83301 59 17.5 83s27.667 44 48 60s44 28.167 71 36.5
s55.833 12.5 86.5 12.5c68.667 0 122.834 -16.667 162.501 -50s59.5 -81.666 59.5 -144.999v-121zM338 301c0 26 -8 44.333 -24 55s-33 16 -51 16c-18.667 0 -36 -5.33301 -52 -16s-24 -29 -24 -55v-104c0 -26 8 -44.333 24 -55s33.333 -16 52 -16c18 0 35 5.33301 51 16
s24 29 24 55v104zM99 578v118h333v-118h-333z" />
    <glyph glyph-name="Obreve" unicode="&#x14e;" horiz-adv-x="650" 
d="M595 218c0 -38 -7.33203 -71.001 -21.999 -99.001s-34.334 -51.333 -59.001 -70s-53.334 -32.667 -86.001 -42s-67 -14 -103 -14s-70.167 4.66699 -102.5 14s-61 23.333 -86 42s-44.833 42 -59.5 70s-22 61 -22 99v259c0 38 8 70.667 24 98s36.833 50 62.5 68
s54.5 31.333 86.5 40s64.333 13 97 13s65.167 -4.66699 97.5 -14s61.333 -23.166 87 -41.499s46.334 -41.5 62.001 -69.5s23.5 -61 23.5 -99v-254zM435.001 441.999c0 20 -3.33301 36.833 -10 50.5s-15.167 24.667 -25.5 33s-22.166 14.5 -35.499 18.5s-26.333 6 -39 6
c-13.333 0 -26.5 -2 -39.5 -6s-24.833 -10.167 -35.5 -18.5s-19.334 -19.333 -26.001 -33s-10 -30.5 -10 -50.5v-195c0 -20 3.33301 -36.833 10 -50.5s15.334 -24.667 26.001 -33s22.5 -14.5 35.5 -18.5s26.167 -6 39.5 -6c12.667 0 25.667 2 39 6
s25.166 10.167 35.499 18.5s18.833 19.333 25.5 33s10 30.5 10 50.5v195zM327.001 730.999c-28.667 0 -52.665 5.5 -71.998 16.5s-34.833 24.667 -46.5 41s-20.334 33.833 -26.001 52.5s-9.5 35.667 -11.5 51h100c0 -6.66699 1.16699 -13.834 3.5 -21.501
s5.83301 -15 10.5 -22s10.5 -12.833 17.5 -17.5s15.167 -7 24.5 -7s17.5 2.33301 24.5 7s12.833 10.5 17.5 17.5s8.16699 14.333 10.5 22s3.5 14.834 3.5 21.501h100c-2 -15.333 -5.83301 -32.333 -11.5 -51s-14.334 -36.167 -26.001 -52.5s-27.167 -30 -46.5 -41
s-43.333 -16.5 -72 -16.5z" />
    <glyph glyph-name="obreve" unicode="&#x14f;" horiz-adv-x="525" 
d="M485 187c0 -31.333 -5.33301 -59 -16 -83s-25.834 -44 -45.501 -60s-43.167 -28.167 -70.5 -36.5s-57.333 -12.5 -90 -12.5c-69.333 0 -123.833 16.167 -163.5 48.5s-59.5 80.166 -59.5 143.499v124c0 31.333 5.83301 59 17.5 83s27.667 44 48 60s44 28.167 71 36.5
s55.833 12.5 86.5 12.5c68.667 0 122.834 -16.667 162.501 -50s59.5 -81.666 59.5 -144.999v-121zM338 301c0 26 -8 44.333 -24 55s-33 16 -51 16c-18.667 0 -36 -5.33301 -52 -16s-24 -29 -24 -55v-104c0 -26 8 -44.333 24 -55s33.333 -16 52 -16c18 0 35 5.33301 51 16
s24 29 24 55v104zM263 561c-28.667 0 -52.665 5.5 -71.998 16.5s-34.833 24.667 -46.5 41s-20.334 33.833 -26.001 52.5s-9.5 35.667 -11.5 51h100c0 -6.66699 1.16699 -13.834 3.5 -21.501s5.83301 -15 10.5 -22s10.5 -12.833 17.5 -17.5s15.167 -7 24.5 -7
s17.5 2.33301 24.5 7s12.833 10.5 17.5 17.5s8.16699 14.333 10.5 22s3.5 14.834 3.5 21.501h100c-2 -15.333 -5.83301 -32.333 -11.5 -51s-14.334 -36.167 -26.001 -52.5s-27.167 -30 -46.5 -41s-43.333 -16.5 -72 -16.5z" />
    <glyph glyph-name="Ohungarumlaut" unicode="&#x150;" horiz-adv-x="650" 
d="M595 218c0 -38 -7.33203 -71.001 -21.999 -99.001s-34.334 -51.333 -59.001 -70s-53.334 -32.667 -86.001 -42s-67 -14 -103 -14s-70.167 4.66699 -102.5 14s-61 23.333 -86 42s-44.833 42 -59.5 70s-22 61 -22 99v259c0 38 8 70.667 24 98s36.833 50 62.5 68
s54.5 31.333 86.5 40s64.333 13 97 13s65.167 -4.66699 97.5 -14s61.333 -23.166 87 -41.499s46.334 -41.5 62.001 -69.5s23.5 -61 23.5 -99v-254zM435.001 441.999c0 20 -3.33301 36.833 -10 50.5s-15.167 24.667 -25.5 33s-22.166 14.5 -35.499 18.5s-26.333 6 -39 6
c-13.333 0 -26.5 -2 -39.5 -6s-24.833 -10.167 -35.5 -18.5s-19.334 -19.333 -26.001 -33s-10 -30.5 -10 -50.5v-195c0 -20 3.33301 -36.833 10 -50.5s15.334 -24.667 26.001 -33s22.5 -14.5 35.5 -18.5s26.167 -6 39.5 -6c12.667 0 25.667 2 39 6
s25.166 10.167 35.499 18.5s18.833 19.333 25.5 33s10 30.5 10 50.5v195zM127.001 783.999l161 151l104 -94l-200 -118zM347.001 783.999l161 151l104 -94l-200 -118z" />
    <glyph glyph-name="ohungarumlaut" unicode="&#x151;" horiz-adv-x="525" 
d="M485 187c0 -31.333 -5.33301 -59 -16 -83s-25.834 -44 -45.501 -60s-43.167 -28.167 -70.5 -36.5s-57.333 -12.5 -90 -12.5c-69.333 0 -123.833 16.167 -163.5 48.5s-59.5 80.166 -59.5 143.499v124c0 31.333 5.83301 59 17.5 83s27.667 44 48 60s44 28.167 71 36.5
s55.833 12.5 86.5 12.5c68.667 0 122.834 -16.667 162.501 -50s59.5 -81.666 59.5 -144.999v-121zM338 301c0 26 -8 44.333 -24 55s-33 16 -51 16c-18.667 0 -36 -5.33301 -52 -16s-24 -29 -24 -55v-104c0 -26 8 -44.333 24 -55s33.333 -16 52 -16c18 0 35 5.33301 51 16
s24 29 24 55v104zM115 567l85 203l133 -43l-135 -190zM302 567l85 203l133 -43l-135 -190z" />
    <glyph glyph-name="OE" unicode="&#x152;" horiz-adv-x="923" 
d="M325 696c12 0 24 -0.666992 36 -2s24 -3 36 -5h481v-142h-322v-129h275v-141h-275v-136h322v-141h-479c-12 -2 -24.167 -3.66699 -36.5 -5s-24.833 -2 -37.5 -2c-36 0 -70.167 4.66699 -102.5 14s-61 23.333 -86 42s-44.833 42 -59.5 70s-22 61 -22 99v259
c0 38 8 70.667 24 98s36.833 50 62.5 68s54.5 31.333 86.5 40s64.333 13 97 13zM325 139c12.667 0 25 1.33301 37 4s23.667 8 35 16v368c-10.667 8 -22.167 13.833 -34.5 17.5s-24.833 5.5 -37.5 5.5c-13.333 0 -26.5 -2 -39.5 -6s-24.833 -10.167 -35.5 -18.5
s-19.334 -19.333 -26.001 -33s-10 -30.5 -10 -50.5v-195c0 -20 3.33301 -36.833 10 -50.5s15.334 -24.667 26.001 -33s22.5 -14.5 35.5 -18.5s26.167 -6 39.5 -6z" />
    <glyph glyph-name="oe" unicode="&#x153;" horiz-adv-x="817" 
d="M776 207l-287.995 0.00195312v-6c0 -24.667 7.5 -42.667 22.5 -54s32.167 -17 51.5 -17c12 0 28.167 1.66699 48.5 5s42.833 13.666 67.5 30.999l78 -101c-16.667 -15.333 -32.834 -27.5 -48.501 -36.5s-31.334 -16 -47.001 -21s-31.334 -8.33301 -47.001 -10
s-31.5 -2.5 -47.5 -2.5c-28.667 0 -56 3.5 -82 10.5s-49.333 17.5 -70 31.5c-21.333 -14.667 -44.833 -25.334 -70.5 -32.001s-51.834 -10 -78.501 -10c-28 0 -55.333 3.5 -82 10.5s-50.5 18 -71.5 33s-37.833 34 -50.5 57s-19 50.167 -19 81.5v142
c0 31.333 6.5 58.5 19.5 81.5s30 42 51 57s44.833 26 71.5 33s53.667 10.5 81 10.5c28.667 0 56 -3.5 82 -10.5s49 -17.833 69 -32.5c19.333 13.333 41.166 23.666 65.499 30.999s49.833 11 76.5 11c31.333 0 60.333 -4.33301 87 -13s49.667 -21.167 69 -37.5
s34.5 -36.666 45.5 -60.999s16.5 -52.5 16.5 -84.5v-97zM340.005 294.002c0 26 -8 44.333 -24 55s-33 16 -51 16c-18.667 0 -36 -5.33301 -52 -16s-24 -29 -24 -55v-92c0 -26 8 -44.333 24 -55s33.333 -16 52 -16c18 0 35 5.33301 51 16s24 29 24 55v92zM628.005 303.002
c0 20 -7 35.333 -21 46s-30 16 -48 16c-18.667 0 -35.167 -5.83301 -49.5 -17.5s-21.5 -27.167 -21.5 -46.5v-4h140v6z" />
    <glyph glyph-name="Racute" unicode="&#x154;" horiz-adv-x="605" 
d="M370 689c38 0 70.333 -6.33398 97 -19.001s48.5 -29.334 65.5 -50.001s29.333 -44.167 37 -70.5s11.5 -52.833 11.5 -79.5c0 -18 -2.66699 -36.167 -8 -54.5s-12.833 -35.666 -22.5 -51.999s-21.5 -31.666 -35.5 -45.999s-29.667 -26.5 -47 -36.5l123 -281h-170l-104 254
h-98v-254h-159v689h310zM219 392.999h118c29.333 0 50.5 7.5 63.5 22.5s19.5 33.167 19.5 54.5s-6.66699 39.5 -20 54.5s-34.333 22.5 -63 22.5h-118v-154zM220 803.999l182 131l80 -112l-214 -90z" />
    <glyph glyph-name="racute" unicode="&#x155;" horiz-adv-x="404" 
d="M392 352c-42.667 -4 -78.333 -10.332 -107 -18.999s-56.334 -21.334 -83.001 -38.001v-295h-147v496h137l9 -73h1c8.66699 8.66699 20.334 17.667 35.001 27s30.5 17.833 47.5 25.5s34.833 14 53.5 19s36.667 7.5 54 7.5v-150zM130.001 567.001l85 203l133 -43l-135 -190
z" />
    <glyph glyph-name="Rcommaaccent" unicode="&#x156;" horiz-adv-x="605" 
d="M370 689c38 0 70.333 -6.33398 97 -19.001s48.5 -29.334 65.5 -50.001s29.333 -44.167 37 -70.5s11.5 -52.833 11.5 -79.5c0 -18 -2.66699 -36.167 -8 -54.5s-12.833 -35.666 -22.5 -51.999s-21.5 -31.666 -35.5 -45.999s-29.667 -26.5 -47 -36.5l123 -281h-170l-104 254
h-98v-254h-159v689h310zM219 392.999h118c29.333 0 50.5 7.5 63.5 22.5s19.5 33.167 19.5 54.5s-6.66699 39.5 -20 54.5s-34.333 22.5 -63 22.5h-118v-154zM228 -251.001c36.667 21.333 57.333 45.335 62 72.002c-15.333 3.33301 -28.833 11.666 -40.5 24.999
s-17.5 30.666 -17.5 51.999c0 12 2.33301 23 7 33s11 18.833 19 26.5s17.167 13.5 27.5 17.5s20.833 6 31.5 6c28 0 50.5 -9.83301 67.5 -29.5s25.5 -45.5 25.5 -77.5c0 -40 -12.167 -77 -36.5 -111s-56.5 -60.667 -96.5 -80z" />
    <glyph glyph-name="rcommaaccent" unicode="&#x157;" horiz-adv-x="404" 
d="M392 352c-42.667 -4 -78.333 -10.332 -107 -18.999s-56.334 -21.334 -83.001 -38.001v-295h-147v496h137l9 -73h1c8.66699 8.66699 20.334 17.667 35.001 27s30.5 17.833 47.5 25.5s34.833 14 53.5 19s36.667 7.5 54 7.5v-150zM39.001 -270.999
c36.667 21.333 57.333 45.335 62 72.002c-15.333 3.33301 -28.833 11.666 -40.5 24.999s-17.5 30.666 -17.5 51.999c0 12 2.33301 23 7 33s11 18.833 19 26.5s17.167 13.5 27.5 17.5s20.833 6 31.5 6c28 0 50.5 -9.83301 67.5 -29.5s25.5 -45.5 25.5 -77.5
c0 -40 -12.167 -77 -36.5 -111s-56.5 -60.667 -96.5 -80z" />
    <glyph glyph-name="Rcaron" unicode="&#x158;" horiz-adv-x="605" 
d="M370 689c38 0 70.333 -6.33398 97 -19.001s48.5 -29.334 65.5 -50.001s29.333 -44.167 37 -70.5s11.5 -52.833 11.5 -79.5c0 -18 -2.66699 -36.167 -8 -54.5s-12.833 -35.666 -22.5 -51.999s-21.5 -31.666 -35.5 -45.999s-29.667 -26.5 -47 -36.5l123 -281h-170l-104 254
h-98v-254h-159v689h310zM219 392.999h118c29.333 0 50.5 7.5 63.5 22.5s19.5 33.167 19.5 54.5s-6.66699 39.5 -20 54.5s-34.333 22.5 -63 22.5h-118v-154zM449 907.999l51 -59l-151 -120h-98l-149 120l48 58l150 -78z" />
    <glyph glyph-name="rcaron" unicode="&#x159;" horiz-adv-x="404" 
d="M392 352c-42.667 -4 -78.333 -10.332 -107 -18.999s-56.334 -21.334 -83.001 -38.001v-295h-147v496h137l9 -73h1c8.66699 8.66699 20.334 17.667 35.001 27s30.5 17.833 47.5 25.5s34.833 14 53.5 19s36.667 7.5 54 7.5v-150zM337.001 725.001l56 -49l-148 -155h-103
l-147 155l53 48l72.5 -51l72.5 -52z" />
    <glyph glyph-name="Sacute" unicode="&#x15a;" horiz-adv-x="620" 
d="M585 202c0 -34.667 -7.33203 -64.835 -21.999 -90.502s-34.5 -47.167 -59.5 -64.5s-54.333 -30.333 -88 -39s-69.167 -13 -106.5 -13c-25.333 0 -49.833 1.33301 -73.5 4s-46.5 7.5 -68.5 14.5s-43.833 16.667 -65.5 29s-43.167 27.833 -64.5 46.5l89 117
c29.333 -23.333 58.833 -40.5 88.5 -51.5s59.5 -16.5 89.5 -16.5c22 0 40.333 2 55 6s26.5 9.16699 35.5 15.5s15.333 13.166 19 20.499s5.5 14.333 5.5 21c0 10 -2.5 18.833 -7.5 26.5s-13.5 14.834 -25.5 21.501s-27.833 13.334 -47.5 20.001s-44.167 14 -73.5 22
c-32 8.66699 -60.333 18.5 -85 29.5s-45.5 24.333 -62.5 40s-29.833 34.167 -38.5 55.5s-13 47 -13 77c0 31.333 6.16699 59.5 18.5 84.5s29.666 46.333 51.999 64s49 31.167 80 40.5s64.833 14 101.5 14c40 0 79.5 -3.66699 118.5 -11s79.5 -25 121.5 -53l-71 -128
c-32.667 20.667 -62.5 33.667 -89.5 39s-54.167 8 -81.5 8c-25.333 0 -45.833 -4.16699 -61.5 -12.5s-23.5 -22.166 -23.5 -41.499c0 -8.66699 2.5 -16.5 7.5 -23.5s13.5 -13.833 25.5 -20.5s27.667 -13.167 47 -19.5s43 -13.5 71 -21.5c44 -12 79.333 -25.5 106 -40.5
s47.167 -31.333 61.5 -49s23.833 -36.667 28.5 -57s7 -41.5 7 -63.5zM229.001 803.999l182 131l80 -112l-214 -90z" />
    <glyph glyph-name="sacute" unicode="&#x15b;" horiz-adv-x="473" 
d="M240 -5c-16.667 0 -33.6602 0.835938 -50.9932 2.50293s-35.166 5 -53.499 10s-37 12.5 -56 22.5s-38.167 23.667 -57.5 41l78 105c25.333 -20.667 48.166 -34.834 68.499 -42.501s42.166 -11.5 65.499 -11.5c21.333 0 37.5 3.16699 48.5 9.5s16.5 13.833 16.5 22.5
c0 8 -2.83301 15.167 -8.5 21.5s-19.834 11.5 -42.501 15.5c-21.333 4 -43.833 8.5 -67.5 13.5s-45.5 12.667 -65.5 23s-36.5 24.166 -49.5 41.499s-19.5 40.666 -19.5 69.999c0 27.333 5.5 51 16.5 71s25.5 36.667 43.5 50s38.167 23.333 60.5 30s45.166 10 68.499 10
c36.667 0 71.167 -3.5 103.5 -10.5s65.5 -23.167 99.5 -48.5l-69 -111c-26.667 18 -50.334 29.333 -71.001 34s-40.334 7 -59.001 7s-31.167 -3 -37.5 -9s-9.5 -12.333 -9.5 -19c0 -10 6.5 -17.167 19.5 -21.5s29 -8.16602 48 -11.499s39.833 -7.33301 62.5 -12
s43.5 -12.167 62.5 -22.5s35 -25 48 -44s19.5 -44.167 19.5 -75.5c0 -26.667 -5.83301 -50 -17.5 -70s-27.334 -36.833 -47.001 -50.5s-42.334 -23.834 -68.001 -30.501s-52.167 -10 -79.5 -10zM173.007 567.003l85 203l133 -43l-135 -190z" />
    <glyph glyph-name="Scircumflex" unicode="&#x15c;" horiz-adv-x="620" 
d="M585 202c0 -34.667 -7.33203 -64.835 -21.999 -90.502s-34.5 -47.167 -59.5 -64.5s-54.333 -30.333 -88 -39s-69.167 -13 -106.5 -13c-25.333 0 -49.833 1.33301 -73.5 4s-46.5 7.5 -68.5 14.5s-43.833 16.667 -65.5 29s-43.167 27.833 -64.5 46.5l89 117
c29.333 -23.333 58.833 -40.5 88.5 -51.5s59.5 -16.5 89.5 -16.5c22 0 40.333 2 55 6s26.5 9.16699 35.5 15.5s15.333 13.166 19 20.499s5.5 14.333 5.5 21c0 10 -2.5 18.833 -7.5 26.5s-13.5 14.834 -25.5 21.501s-27.833 13.334 -47.5 20.001s-44.167 14 -73.5 22
c-32 8.66699 -60.333 18.5 -85 29.5s-45.5 24.333 -62.5 40s-29.833 34.167 -38.5 55.5s-13 47 -13 77c0 31.333 6.16699 59.5 18.5 84.5s29.666 46.333 51.999 64s49 31.167 80 40.5s64.833 14 101.5 14c40 0 79.5 -3.66699 118.5 -11s79.5 -25 121.5 -53l-71 -128
c-32.667 20.667 -62.5 33.667 -89.5 39s-54.167 8 -81.5 8c-25.333 0 -45.833 -4.16699 -61.5 -12.5s-23.5 -22.166 -23.5 -41.499c0 -8.66699 2.5 -16.5 7.5 -23.5s13.5 -13.833 25.5 -20.5s27.667 -13.167 47 -19.5s43 -13.5 71 -21.5c44 -12 79.333 -25.5 106 -40.5
s47.167 -31.333 61.5 -49s23.833 -36.667 28.5 -57s7 -41.5 7 -63.5zM314.001 804.999l-150 -78l-48 58l149 120h98l151 -120l-51 -59z" />
    <glyph glyph-name="scircumflex" unicode="&#x15d;" horiz-adv-x="473" 
d="M240 -5c-16.667 0 -33.6602 0.835938 -50.9932 2.50293s-35.166 5 -53.499 10s-37 12.5 -56 22.5s-38.167 23.667 -57.5 41l78 105c25.333 -20.667 48.166 -34.834 68.499 -42.501s42.166 -11.5 65.499 -11.5c21.333 0 37.5 3.16699 48.5 9.5s16.5 13.833 16.5 22.5
c0 8 -2.83301 15.167 -8.5 21.5s-19.834 11.5 -42.501 15.5c-21.333 4 -43.833 8.5 -67.5 13.5s-45.5 12.667 -65.5 23s-36.5 24.166 -49.5 41.499s-19.5 40.666 -19.5 69.999c0 27.333 5.5 51 16.5 71s25.5 36.667 43.5 50s38.167 23.333 60.5 30s45.166 10 68.499 10
c36.667 0 71.167 -3.5 103.5 -10.5s65.5 -23.167 99.5 -48.5l-69 -111c-26.667 18 -50.334 29.333 -71.001 34s-40.334 7 -59.001 7s-31.167 -3 -37.5 -9s-9.5 -12.333 -9.5 -19c0 -10 6.5 -17.167 19.5 -21.5s29 -8.16602 48 -11.499s39.833 -7.33301 62.5 -12
s43.5 -12.167 62.5 -22.5s35 -25 48 -44s19.5 -44.167 19.5 -75.5c0 -26.667 -5.83301 -50 -17.5 -70s-27.334 -36.833 -47.001 -50.5s-42.334 -23.834 -68.001 -30.501s-52.167 -10 -79.5 -10zM243.007 625.003l-72.5 -52l-72.5 -51l-53 48l147 155h103l148 -155l-56 -49z
" />
    <glyph glyph-name="Scedilla" unicode="&#x15e;" horiz-adv-x="620" 
d="M265 -3c-42 2.66699 -81.335 10.665 -118.002 23.998s-73.334 36 -110.001 68l89 117c29.333 -23.333 58.833 -40.5 88.5 -51.5s59.5 -16.5 89.5 -16.5c22 0 40.333 2 55 6s26.5 9.16699 35.5 15.5s15.333 13.166 19 20.499s5.5 14.333 5.5 21
c0 10 -2.5 18.833 -7.5 26.5s-13.5 14.834 -25.5 21.501s-27.833 13.334 -47.5 20.001s-44.167 14 -73.5 22c-32 8.66699 -60.333 18.5 -85 29.5s-45.5 24.333 -62.5 40s-29.833 34.167 -38.5 55.5s-13 47 -13 77c0 31.333 6.16699 59.5 18.5 84.5s29.666 46.333 51.999 64
s49 31.167 80 40.5s64.833 14 101.5 14c40 0 79.5 -3.66699 118.5 -11s79.5 -25 121.5 -53l-71 -128c-32.667 20.667 -62.5 33.667 -89.5 39s-54.167 8 -81.5 8c-25.333 0 -45.833 -4.16699 -61.5 -12.5s-23.5 -22.166 -23.5 -41.499c0 -8.66699 2.5 -16.5 7.5 -23.5
s13.5 -13.833 25.5 -20.5s27.667 -13.167 47 -19.5s43 -13.5 71 -21.5c44 -12 79.333 -25.5 106 -40.5s47.167 -31.333 61.5 -49s23.833 -36.667 28.5 -57s7 -41.5 7 -63.5c0 -32.667 -6.5 -61.334 -19.5 -86.001s-30.833 -45.667 -53.5 -63s-49 -30.666 -79 -39.999
s-62.333 -15 -97 -17l-10 -32c34.667 -4 59.334 -15 74.001 -33s22 -37 22 -57c0 -12 -2.66699 -23.5 -8 -34.5s-13.166 -21 -23.499 -30s-23 -16.167 -38 -21.5s-31.833 -8 -50.5 -8c-21.333 0 -41.666 2.5 -60.999 7.5s-36.333 12.167 -51 21.5l25 62
c16.667 -8 30.334 -13 41.001 -15s21.667 -3 33 -3c10.667 0 20 2.5 28 7.5s12 12.5 12 22.5c0 6.66699 -1.83301 12 -5.5 16s-8 6.5 -13 7.5s-10.167 1.16699 -15.5 0.5s-10 -2 -14 -4l-39 20z" />
    <glyph glyph-name="scedilla" unicode="&#x15f;" horiz-adv-x="473" 
d="M202 -4c-28 2 -56.998 8.00195 -86.998 18.002s-61 29 -93 57l78 105c25.333 -20.667 48.166 -34.834 68.499 -42.501s42.166 -11.5 65.499 -11.5c21.333 0 37.5 3.16699 48.5 9.5s16.5 13.833 16.5 22.5c0 8 -2.83301 15.167 -8.5 21.5s-19.834 11.5 -42.501 15.5
c-21.333 4 -43.833 8.5 -67.5 13.5s-45.5 12.667 -65.5 23s-36.5 24.166 -49.5 41.499s-19.5 40.666 -19.5 69.999c0 27.333 5.5 51 16.5 71s25.5 36.667 43.5 50s38.167 23.333 60.5 30s45.166 10 68.499 10c36.667 0 71.167 -3.5 103.5 -10.5s65.5 -23.167 99.5 -48.5
l-69 -111c-26.667 18 -50.334 29.333 -71.001 34s-40.334 7 -59.001 7s-31.167 -3 -37.5 -9s-9.5 -12.333 -9.5 -19c0 -10 6.5 -17.167 19.5 -21.5s29 -8.16602 48 -11.499s39.833 -7.33301 62.5 -12s43.5 -12.167 62.5 -22.5s35 -25 48 -44s19.5 -44.167 19.5 -75.5
c0 -24 -4.83301 -45.333 -14.5 -64s-22.667 -34.667 -39 -48s-35.333 -24 -57 -32s-44.5 -13 -68.5 -15l-10 -33c34.667 -4 59.334 -15 74.001 -33s22 -37 22 -57c0 -12 -2.66699 -23.5 -8 -34.5s-13.166 -21 -23.499 -30s-23 -16.167 -38 -21.5s-31.833 -8 -50.5 -8
c-21.333 0 -41.666 2.5 -60.999 7.5s-36.333 12.167 -51 21.5l25 62c16.667 -8 30.334 -13 41.001 -15s21.667 -3 33 -3c10.667 0 20 2.5 28 7.5s12 12.5 12 22.5c0 6.66699 -1.83301 12 -5.5 16s-8 6.5 -13 7.5s-10.167 1.16699 -15.5 0.5s-10 -2 -14 -4l-39 20z" />
    <glyph glyph-name="Scaron" unicode="&#x160;" horiz-adv-x="620" 
d="M585 202c0 -34.667 -7.33203 -64.835 -21.999 -90.502s-34.5 -47.167 -59.5 -64.5s-54.333 -30.333 -88 -39s-69.167 -13 -106.5 -13c-25.333 0 -49.833 1.33301 -73.5 4s-46.5 7.5 -68.5 14.5s-43.833 16.667 -65.5 29s-43.167 27.833 -64.5 46.5l89 117
c29.333 -23.333 58.833 -40.5 88.5 -51.5s59.5 -16.5 89.5 -16.5c22 0 40.333 2 55 6s26.5 9.16699 35.5 15.5s15.333 13.166 19 20.499s5.5 14.333 5.5 21c0 10 -2.5 18.833 -7.5 26.5s-13.5 14.834 -25.5 21.501s-27.833 13.334 -47.5 20.001s-44.167 14 -73.5 22
c-32 8.66699 -60.333 18.5 -85 29.5s-45.5 24.333 -62.5 40s-29.833 34.167 -38.5 55.5s-13 47 -13 77c0 31.333 6.16699 59.5 18.5 84.5s29.666 46.333 51.999 64s49 31.167 80 40.5s64.833 14 101.5 14c40 0 79.5 -3.66699 118.5 -11s79.5 -25 121.5 -53l-71 -128
c-32.667 20.667 -62.5 33.667 -89.5 39s-54.167 8 -81.5 8c-25.333 0 -45.833 -4.16699 -61.5 -12.5s-23.5 -22.166 -23.5 -41.499c0 -8.66699 2.5 -16.5 7.5 -23.5s13.5 -13.833 25.5 -20.5s27.667 -13.167 47 -19.5s43 -13.5 71 -21.5c44 -12 79.333 -25.5 106 -40.5
s47.167 -31.333 61.5 -49s23.833 -36.667 28.5 -57s7 -41.5 7 -63.5zM464.001 907.999l51 -59l-151 -120h-98l-149 120l48 58l150 -78z" />
    <glyph glyph-name="scaron" unicode="&#x161;" horiz-adv-x="473" 
d="M240 -5c-16.667 0 -33.6602 0.835938 -50.9932 2.50293s-35.166 5 -53.499 10s-37 12.5 -56 22.5s-38.167 23.667 -57.5 41l78 105c25.333 -20.667 48.166 -34.834 68.499 -42.501s42.166 -11.5 65.499 -11.5c21.333 0 37.5 3.16699 48.5 9.5s16.5 13.833 16.5 22.5
c0 8 -2.83301 15.167 -8.5 21.5s-19.834 11.5 -42.501 15.5c-21.333 4 -43.833 8.5 -67.5 13.5s-45.5 12.667 -65.5 23s-36.5 24.166 -49.5 41.499s-19.5 40.666 -19.5 69.999c0 27.333 5.5 51 16.5 71s25.5 36.667 43.5 50s38.167 23.333 60.5 30s45.166 10 68.499 10
c36.667 0 71.167 -3.5 103.5 -10.5s65.5 -23.167 99.5 -48.5l-69 -111c-26.667 18 -50.334 29.333 -71.001 34s-40.334 7 -59.001 7s-31.167 -3 -37.5 -9s-9.5 -12.333 -9.5 -19c0 -10 6.5 -17.167 19.5 -21.5s29 -8.16602 48 -11.499s39.833 -7.33301 62.5 -12
s43.5 -12.167 62.5 -22.5s35 -25 48 -44s19.5 -44.167 19.5 -75.5c0 -26.667 -5.83301 -50 -17.5 -70s-27.334 -36.833 -47.001 -50.5s-42.334 -23.834 -68.001 -30.501s-52.167 -10 -79.5 -10zM387.007 725.003l56 -49l-148 -155h-103l-147 155l53 48l72.5 -51l72.5 -52z
" />
    <glyph glyph-name="Tcommaaccent" unicode="&#x162;" horiz-adv-x="528" 
d="M344 546v-546h-159v546h-175v143h508v-143h-174zM172 -271c36.667 21.333 57.333 45.335 62 72.002c-15.333 3.33301 -28.833 11.666 -40.5 24.999s-17.5 30.666 -17.5 51.999c0 12 2.33301 23 7 33s11 18.833 19 26.5s17.167 13.5 27.5 17.5s20.833 6 31.5 6
c28 0 50.5 -9.83301 67.5 -29.5s25.5 -45.5 25.5 -77.5c0 -40 -12.167 -77 -36.5 -111s-56.5 -60.667 -96.5 -80z" />
    <glyph glyph-name="tcommaaccent" unicode="&#x163;" horiz-adv-x="383" 
d="M21 380v116h61l23 125h120v-125h111v-116h-111v-192c0 -24 5.33301 -39.833 16 -47.5s28.667 -11.5 54 -11.5c18.667 0 41.667 1 69 3l12 -119c-22 -8 -44.5 -13.167 -67.5 -15.5s-43.833 -3.5 -62.5 -3.5c-35.333 0 -63.833 4.16699 -85.5 12.5s-38.5 19.833 -50.5 34.5
s-20.167 32.167 -24.5 52.5s-6.5 42.833 -6.5 67.5v219h-58zM79 -271c36.667 21.333 57.333 45.335 62 72.002c-15.333 3.33301 -28.833 11.666 -40.5 24.999s-17.5 30.666 -17.5 51.999c0 12 2.33301 23 7 33s11 18.833 19 26.5s17.167 13.5 27.5 17.5s20.833 6 31.5 6
c28 0 50.5 -9.83301 67.5 -29.5s25.5 -45.5 25.5 -77.5c0 -40 -12.167 -77 -36.5 -111s-56.5 -60.667 -96.5 -80z" />
    <glyph glyph-name="Tcaron" unicode="&#x164;" horiz-adv-x="528" 
d="M344 546v-546h-159v546h-175v143h508v-143h-174zM414 908l51 -59l-151 -120h-98l-149 120l48 58l150 -78z" />
    <glyph glyph-name="tcaron" unicode="&#x165;" horiz-adv-x="448" 
d="M280 609c36.667 21.333 57.333 45.335 62 72.002c-15.333 3.33301 -28.833 11.666 -40.5 24.999s-17.5 30.666 -17.5 51.999c0 12 2.33301 23 7 33s11 18.833 19 26.5s17.167 13.5 27.5 17.5s20.833 6 31.5 6c28 0 50.5 -9.83301 67.5 -29.5s25.5 -45.5 25.5 -77.5
c0 -40 -12.167 -77 -36.5 -111s-56.5 -60.667 -96.5 -80zM20.999 380.002v116h61l23 125h120v-125h111v-116h-111v-192c0 -24 5.33301 -39.833 16 -47.5s28.667 -11.5 54 -11.5c18.667 0 41.667 1 69 3l12 -119c-22 -8 -44.5 -13.167 -67.5 -15.5s-43.833 -3.5 -62.5 -3.5
c-35.333 0 -63.833 4.16699 -85.5 12.5s-38.5 19.833 -50.5 34.5s-20.167 32.167 -24.5 52.5s-6.5 42.833 -6.5 67.5v219h-58z" />
    <glyph glyph-name="Tbar" unicode="&#x166;" horiz-adv-x="528" 
d="M344 546v-143h160v-99h-160v-304h-159v304h-155v99h155v143h-175v143h508v-143h-174z" />
    <glyph glyph-name="tbar" unicode="&#x167;" horiz-adv-x="383" 
d="M21 380v116h61l23 125h120v-125h111v-116h-111v-69h111v-93h-111v-30c0 -24 5.33301 -39.833 16 -47.5s28.667 -11.5 54 -11.5c18.667 0 41.667 1 69 3l12 -119c-22 -8 -44.5 -13.167 -67.5 -15.5s-43.833 -3.5 -62.5 -3.5c-35.333 0 -63.833 4.16699 -85.5 12.5
s-38.5 19.833 -50.5 34.5s-20.167 32.167 -24.5 52.5s-6.5 42.833 -6.5 67.5v57h-57v93h57v69h-58z" />
    <glyph glyph-name="Utilde" unicode="&#x168;" horiz-adv-x="660" 
d="M600 219c0 -38 -7.6709 -71 -23.0039 -99s-35.666 -51.5 -60.999 -70.5s-54.166 -33.167 -86.499 -42.5s-65.5 -14 -99.5 -14s-67.167 4.5 -99.5 13.5s-61.166 22.667 -86.499 41s-45.666 41.333 -60.999 69s-23 60.5 -23 98.5v474h159v-444
c0 -20 3.33301 -36.833 10 -50.5s15.334 -24.667 26.001 -33s22.5 -14.5 35.5 -18.5s26.167 -6 39.5 -6c12.667 0 25.667 2 39 6s25.166 10.167 35.499 18.5s18.833 19.333 25.5 33s10 30.5 10 50.5v444h160v-470zM263.996 881c13.333 -0.666992 26.335 -3.5 39.002 -8.5
s24.667 -10.5 36 -16.5l31.5 -16.5c9.66699 -5 18.167 -7.5 25.5 -7.5c11.333 0 21.5 3.33301 30.5 10s20.167 18.667 33.5 36l71 -42c-18.667 -40 -37.5 -68.333 -56.5 -85s-40.5 -25 -64.5 -25c-14 0 -27.333 2.5 -40 7.5s-24.834 10.333 -36.501 16l-33.5 16
c-10.667 5 -20.334 7.5 -29.001 7.5c-11.333 0 -22 -2.5 -32 -7.5s-22.667 -17.5 -38 -37.5l-69 43c17.333 36.667 36 64.167 56 82.5s45.333 27.5 76 27.5z" />
    <glyph glyph-name="utilde" unicode="&#x169;" horiz-adv-x="545" 
d="M194 496l0.00390625 -302.999c0 -11.333 1.83301 -20.833 5.5 -28.5s8.16699 -13.834 13.5 -18.501s11.166 -8 17.499 -10s12.166 -3 17.499 -3c13.333 0 27.166 2.33301 41.499 7s33.5 14.667 57.5 30v326h148v-496h-132l-10 39c-16.667 -10.667 -32.5 -19 -47.5 -25
s-29 -10.5 -42 -13.5s-25 -5 -36 -6s-20.5 -1.5 -28.5 -1.5c-28.667 0 -52.834 5 -72.501 15s-35.5 23.5 -47.5 40.5s-20.667 37 -26 60s-8 47.833 -8 74.5v313h149zM199.004 711.001c13.333 -0.666992 26.335 -3.5 39.002 -8.5s24.667 -10.5 36 -16.5l31.5 -16.5
c9.66699 -5 18.167 -7.5 25.5 -7.5c11.333 0 21.5 3.33301 30.5 10s20.167 18.667 33.5 36l71 -42c-18.667 -40 -37.5 -68.333 -56.5 -85s-40.5 -25 -64.5 -25c-14 0 -27.333 2.5 -40 7.5s-24.834 10.333 -36.501 16l-33.5 16c-10.667 5 -20.334 7.5 -29.001 7.5
c-11.333 0 -22 -2.5 -32 -7.5s-22.667 -17.5 -38 -37.5l-69 43c17.333 36.667 36 64.167 56 82.5s45.333 27.5 76 27.5z" />
    <glyph glyph-name="Umacron" unicode="&#x16a;" horiz-adv-x="660" 
d="M600 219c0 -38 -7.6709 -71 -23.0039 -99s-35.666 -51.5 -60.999 -70.5s-54.166 -33.167 -86.499 -42.5s-65.5 -14 -99.5 -14s-67.167 4.5 -99.5 13.5s-61.166 22.667 -86.499 41s-45.666 41.333 -60.999 69s-23 60.5 -23 98.5v474h159v-444
c0 -20 3.33301 -36.833 10 -50.5s15.334 -24.667 26.001 -33s22.5 -14.5 35.5 -18.5s26.167 -6 39.5 -6c12.667 0 25.667 2 39 6s25.166 10.167 35.499 18.5s18.833 19.333 25.5 33s10 30.5 10 50.5v444h160v-470zM164.996 758v118h333v-118h-333z" />
    <glyph glyph-name="umacron" unicode="&#x16b;" horiz-adv-x="545" 
d="M194 496l0.00390625 -302.999c0 -11.333 1.83301 -20.833 5.5 -28.5s8.16699 -13.834 13.5 -18.501s11.166 -8 17.499 -10s12.166 -3 17.499 -3c13.333 0 27.166 2.33301 41.499 7s33.5 14.667 57.5 30v326h148v-496h-132l-10 39c-16.667 -10.667 -32.5 -19 -47.5 -25
s-29 -10.5 -42 -13.5s-25 -5 -36 -6s-20.5 -1.5 -28.5 -1.5c-28.667 0 -52.834 5 -72.501 15s-35.5 23.5 -47.5 40.5s-20.667 37 -26 60s-8 47.833 -8 74.5v313h149zM112.004 578.001v118h333v-118h-333z" />
    <glyph glyph-name="Ubreve" unicode="&#x16c;" horiz-adv-x="660" 
d="M600 219c0 -38 -7.6709 -71 -23.0039 -99s-35.666 -51.5 -60.999 -70.5s-54.166 -33.167 -86.499 -42.5s-65.5 -14 -99.5 -14s-67.167 4.5 -99.5 13.5s-61.166 22.667 -86.499 41s-45.666 41.333 -60.999 69s-23 60.5 -23 98.5v474h159v-444
c0 -20 3.33301 -36.833 10 -50.5s15.334 -24.667 26.001 -33s22.5 -14.5 35.5 -18.5s26.167 -6 39.5 -6c12.667 0 25.667 2 39 6s25.166 10.167 35.499 18.5s18.833 19.333 25.5 33s10 30.5 10 50.5v444h160v-470zM332.996 731c-28.667 0 -52.665 5.5 -71.998 16.5
s-34.833 24.667 -46.5 41s-20.334 33.833 -26.001 52.5s-9.5 35.667 -11.5 51h100c0 -6.66699 1.16699 -13.834 3.5 -21.501s5.83301 -15 10.5 -22s10.5 -12.833 17.5 -17.5s15.167 -7 24.5 -7s17.5 2.33301 24.5 7s12.833 10.5 17.5 17.5s8.16699 14.333 10.5 22
s3.5 14.834 3.5 21.501h100c-2 -15.333 -5.83301 -32.333 -11.5 -51s-14.334 -36.167 -26.001 -52.5s-27.167 -30 -46.5 -41s-43.333 -16.5 -72 -16.5z" />
    <glyph glyph-name="ubreve" unicode="&#x16d;" horiz-adv-x="545" 
d="M194 496l0.00390625 -302.999c0 -11.333 1.83301 -20.833 5.5 -28.5s8.16699 -13.834 13.5 -18.501s11.166 -8 17.499 -10s12.166 -3 17.499 -3c13.333 0 27.166 2.33301 41.499 7s33.5 14.667 57.5 30v326h148v-496h-132l-10 39c-16.667 -10.667 -32.5 -19 -47.5 -25
s-29 -10.5 -42 -13.5s-25 -5 -36 -6s-20.5 -1.5 -28.5 -1.5c-28.667 0 -52.834 5 -72.501 15s-35.5 23.5 -47.5 40.5s-20.667 37 -26 60s-8 47.833 -8 74.5v313h149zM277.004 561.001c-28.667 0 -52.665 5.5 -71.998 16.5s-34.833 24.667 -46.5 41
s-20.334 33.833 -26.001 52.5s-9.5 35.667 -11.5 51h100c0 -6.66699 1.16699 -13.834 3.5 -21.501s5.83301 -15 10.5 -22s10.5 -12.833 17.5 -17.5s15.167 -7 24.5 -7s17.5 2.33301 24.5 7s12.833 10.5 17.5 17.5s8.16699 14.333 10.5 22s3.5 14.834 3.5 21.501h100
c-2 -15.333 -5.83301 -32.333 -11.5 -51s-14.334 -36.167 -26.001 -52.5s-27.167 -30 -46.5 -41s-43.333 -16.5 -72 -16.5z" />
    <glyph glyph-name="Uring" unicode="&#x16e;" horiz-adv-x="660" 
d="M600 219c0 -38 -7.6709 -71 -23.0039 -99s-35.666 -51.5 -60.999 -70.5s-54.166 -33.167 -86.499 -42.5s-65.5 -14 -99.5 -14s-67.167 4.5 -99.5 13.5s-61.166 22.667 -86.499 41s-45.666 41.333 -60.999 69s-23 60.5 -23 98.5v474h159v-444
c0 -20 3.33301 -36.833 10 -50.5s15.334 -24.667 26.001 -33s22.5 -14.5 35.5 -18.5s26.167 -6 39.5 -6c12.667 0 25.667 2 39 6s25.166 10.167 35.499 18.5s18.833 19.333 25.5 33s10 30.5 10 50.5v444h160v-470zM370.996 813c0 10.667 -3.83301 19.5 -11.5 26.5
s-17.167 10.5 -28.5 10.5s-21 -3.5 -29 -10.5s-12 -15.833 -12 -26.5s4 -19.667 12 -27s17.667 -11 29 -11s20.833 3.66699 28.5 11s11.5 16.333 11.5 27zM205.996 813c0 16 3.33301 31 10 45s15.667 26.333 27 37s24.5 19 39.5 25s31.167 9 48.5 9
c16.667 0 32.667 -3 48 -9s28.5 -14.333 39.5 -25s19.833 -23 26.5 -37s10 -29 10 -45s-3.33301 -31 -10 -45s-15.667 -26.333 -27 -37s-24.5 -19 -39.5 -25s-31.167 -9 -48.5 -9s-33.5 3 -48.5 9s-28 14.333 -39 25s-19.833 23 -26.5 37s-10 29 -10 45z" />
    <glyph glyph-name="uring" unicode="&#x16f;" horiz-adv-x="545" 
d="M194 496l0.00390625 -302.999c0 -11.333 1.83301 -20.833 5.5 -28.5s8.16699 -13.834 13.5 -18.501s11.166 -8 17.499 -10s12.166 -3 17.499 -3c13.333 0 27.166 2.33301 41.499 7s33.5 14.667 57.5 30v326h148v-496h-132l-10 39c-16.667 -10.667 -32.5 -19 -47.5 -25
s-29 -10.5 -42 -13.5s-25 -5 -36 -6s-20.5 -1.5 -28.5 -1.5c-28.667 0 -52.834 5 -72.501 15s-35.5 23.5 -47.5 40.5s-20.667 37 -26 60s-8 47.833 -8 74.5v313h149zM317.004 643.001c0 10.667 -3.83301 19.5 -11.5 26.5s-17.167 10.5 -28.5 10.5s-21 -3.5 -29 -10.5
s-12 -15.833 -12 -26.5s4 -19.667 12 -27s17.667 -11 29 -11s20.833 3.66699 28.5 11s11.5 16.333 11.5 27zM152.004 643.001c0 16 3.33301 31 10 45s15.667 26.333 27 37s24.5 19 39.5 25s31.167 9 48.5 9c16.667 0 32.667 -3 48 -9s28.5 -14.333 39.5 -25
s19.833 -23 26.5 -37s10 -29 10 -45s-3.33301 -31 -10 -45s-15.667 -26.333 -27 -37s-24.5 -19 -39.5 -25s-31.167 -9 -48.5 -9s-33.5 3 -48.5 9s-28 14.333 -39 25s-19.833 23 -26.5 37s-10 29 -10 45z" />
    <glyph glyph-name="Uhungarumlaut" unicode="&#x170;" horiz-adv-x="660" 
d="M600 219c0 -38 -7.6709 -71 -23.0039 -99s-35.666 -51.5 -60.999 -70.5s-54.166 -33.167 -86.499 -42.5s-65.5 -14 -99.5 -14s-67.167 4.5 -99.5 13.5s-61.166 22.667 -86.499 41s-45.666 41.333 -60.999 69s-23 60.5 -23 98.5v474h159v-444
c0 -20 3.33301 -36.833 10 -50.5s15.334 -24.667 26.001 -33s22.5 -14.5 35.5 -18.5s26.167 -6 39.5 -6c12.667 0 25.667 2 39 6s25.166 10.167 35.499 18.5s18.833 19.333 25.5 33s10 30.5 10 50.5v444h160v-470zM118.996 784l161 151l104 -94l-200 -118zM338.996 784
l161 151l104 -94l-200 -118z" />
    <glyph glyph-name="uhungarumlaut" unicode="&#x171;" horiz-adv-x="545" 
d="M194 496l0.00390625 -302.999c0 -11.333 1.83301 -20.833 5.5 -28.5s8.16699 -13.834 13.5 -18.501s11.166 -8 17.499 -10s12.166 -3 17.499 -3c13.333 0 27.166 2.33301 41.499 7s33.5 14.667 57.5 30v326h148v-496h-132l-10 39c-16.667 -10.667 -32.5 -19 -47.5 -25
s-29 -10.5 -42 -13.5s-25 -5 -36 -6s-20.5 -1.5 -28.5 -1.5c-28.667 0 -52.834 5 -72.501 15s-35.5 23.5 -47.5 40.5s-20.667 37 -26 60s-8 47.833 -8 74.5v313h149zM91.0039 567.001l85 203l133 -43l-135 -190zM278.004 567.001l85 203l133 -43l-135 -190z" />
    <glyph glyph-name="Uogonek" unicode="&#x172;" horiz-adv-x="660" 
d="M345 -87c0 -18 10.668 -26.999 32.001 -26.999c6 0 14.667 1 26 3s24.666 5.66699 39.999 11l26 -79c-17.333 -9.33301 -35.666 -16.166 -54.999 -20.499s-36.333 -6.5 -51 -6.5c-43.333 0 -74.333 8.66699 -93 26s-28 39.333 -28 66c0 16 3.33301 33.5 10 52.5
s16.667 38.167 30 57.5c-29.333 4 -57.5 11.333 -84.5 22s-50.667 25 -71 43s-36.5 39.833 -48.5 65.5s-18 55.167 -18 88.5v474h159v-444c0 -20 3.33301 -36.833 10 -50.5s15.334 -24.667 26.001 -33s22.5 -14.5 35.5 -18.5s26.167 -6 39.5 -6c12.667 0 25.667 2 39 6
s25.166 10.167 35.499 18.5s18.833 19.333 25.5 33s10 30.5 10 50.5v444h160v-470c0 -32.667 -5.83301 -61.834 -17.5 -87.501s-27.334 -47.834 -47.001 -66.501s-42.5 -33.667 -68.5 -45s-53.333 -19 -82 -23c-14.667 -19.333 -25 -35.833 -31 -49.5s-9 -25.167 -9 -34.5z
" />
    <glyph glyph-name="uogonek" unicode="&#x173;" horiz-adv-x="545" 
d="M407 -87c0 -18 10.6699 -26.999 32.0029 -26.999c6 0 14.667 1 26 3s24.666 5.66699 39.999 11l26 -79c-17.333 -9.33301 -35.666 -16.166 -54.999 -20.499s-36.333 -6.5 -51 -6.5c-43.333 0 -74.333 8.66699 -93 26s-28 39.333 -28 66c0 17.333 4 36.333 12 57
s20 41.667 36 63h9l-8 33c-16.667 -10.667 -32.5 -19 -47.5 -25s-29 -10.5 -42 -13.5s-25 -5 -36 -6s-20.5 -1.5 -28.5 -1.5c-28.667 0 -52.834 5 -72.501 15s-35.5 23.5 -47.5 40.5s-20.667 37 -26 60s-8 47.833 -8 74.5v313h149v-303c0 -11.333 1.83301 -20.833 5.5 -28.5
s8.16699 -13.834 13.5 -18.501s11.166 -8 17.499 -10s12.166 -3 17.499 -3c13.333 0 27.166 2.33301 41.499 7s33.5 14.667 57.5 30v326h148v-496h-46c-15.333 -20.667 -26.166 -37.834 -32.499 -51.501s-9.5 -25.5 -9.5 -35.5z" />
    <glyph glyph-name="Wcircumflex" unicode="&#x174;" horiz-adv-x="931" 
d="M460 420l-47 -186l-56 -234h-173l-174 689h169l51 -250l42 -205h7l52 208l63 247h143l67 -263l48 -192h7l39 193l54 262h169l-175 -689h-172l-56 234l-50 186h-8zM463 805l-150 -78l-48 58l149 120h98l151 -120l-51 -59z" />
    <glyph glyph-name="wcircumflex" unicode="&#x175;" horiz-adv-x="755" 
d="M240 208c6.66699 19.333 13.333 40.168 20 62.501s13.667 44.166 21 65.499l36 112h118l38 -121l39 -126h3c6 24 11.833 48.833 17.5 74.5l16.5 75.5l16.5 73l17.5 72h156l-139 -496h-152l-37 115l-35 111l-4 1l-36 -114l-36 -113h-149l-139 496h156l37 -159l29 -129h6z
M374.999 625.002l-72.5 -52l-72.5 -51l-53 48l147 155h103l148 -155l-56 -49z" />
    <glyph glyph-name="Ycircumflex" unicode="&#x176;" horiz-adv-x="596" 
d="M301 420l51 117l65 152h169l-208 -417v-272h-159v272l-209 417h169l66 -155l50 -114h6zM296 805l-150 -78l-48 58l149 120h98l151 -120l-51 -59z" />
    <glyph glyph-name="ycircumflex" unicode="&#x177;" horiz-adv-x="502" 
d="M93 -198l77 210l-23 16l-137 468h150l39 -172l36 -148h4l48 151l53 169h151l-254 -694h-144zM246 625l-72.5 -52l-72.5 -51l-53 48l147 155h103l148 -155l-56 -49z" />
    <glyph glyph-name="Ydieresis" unicode="&#x178;" horiz-adv-x="596" 
d="M301 420l51 117l65 152h169l-208 -417v-272h-159v272l-209 417h169l66 -155l50 -114h6zM319 812c0 21.333 7.66699 39.5 23 54.5s33.666 22.5 54.999 22.5s39.5 -7.5 54.5 -22.5s22.5 -33.167 22.5 -54.5s-7.5 -39.666 -22.5 -54.999s-33.167 -23 -54.5 -23
s-39.666 7.66699 -54.999 23s-23 33.666 -23 54.999zM121 812c0 21.333 7.5 39.5 22.5 54.5s33.167 22.5 54.5 22.5s39.666 -7.5 54.999 -22.5s23 -33.167 23 -54.5s-7.66699 -39.666 -23 -54.999s-33.666 -23 -54.999 -23s-39.5 7.66699 -54.5 23
s-22.5 33.666 -22.5 54.999z" />
    <glyph glyph-name="Zacute" unicode="&#x179;" horiz-adv-x="548" 
d="M30 137l296 411h-284v141h476v-132l-301 -416h301v-141h-488v137zM189 804l182 131l80 -112l-214 -90z" />
    <glyph glyph-name="zacute" unicode="&#x17a;" horiz-adv-x="486" 
d="M35 0v119l239 254h-225v122h402v-114l-238 -253h238v-128h-416zM173 567l85 203l133 -43l-135 -190z" />
    <glyph glyph-name="Zdotaccent" unicode="&#x17b;" horiz-adv-x="548" 
d="M30 137l296 411h-284v141h476v-132l-301 -416h301v-141h-488v137zM301 730c-12 0 -23 2.16895 -33 6.50195s-18.833 10.333 -26.5 18s-13.667 16.667 -18 27s-6.5 21.166 -6.5 32.499c0 23.333 8.16699 42.833 24.5 58.5s35.5 23.5 57.5 23.5s41.167 -7.83301 57.5 -23.5
s24.5 -35.167 24.5 -58.5c0 -22.667 -7.16699 -42.334 -21.5 -59.001s-33.833 -25 -58.5 -25z" />
    <glyph glyph-name="zdotaccent" unicode="&#x17c;" horiz-adv-x="486" 
d="M35 0v119l239 254h-225v122h402v-114l-238 -253h238v-128h-416zM266 550c-12 0 -23 2.16895 -33 6.50195s-18.833 10.333 -26.5 18s-13.667 16.667 -18 27s-6.5 21.166 -6.5 32.499c0 23.333 8.16699 42.833 24.5 58.5s35.5 23.5 57.5 23.5s41.167 -7.83301 57.5 -23.5
s24.5 -35.167 24.5 -58.5c0 -22.667 -7.16699 -42.334 -21.5 -59.001s-33.833 -25 -58.5 -25z" />
    <glyph glyph-name="Zcaron" unicode="&#x17d;" horiz-adv-x="548" 
d="M30 137l296 411h-284v141h476v-132l-301 -416h301v-141h-488v137zM432 908l51 -59l-151 -120h-98l-149 120l48 58l150 -78z" />
    <glyph glyph-name="zcaron" unicode="&#x17e;" horiz-adv-x="486" 
d="M35 0v119l239 254h-225v122h402v-114l-238 -253h238v-128h-416zM396 725l56 -49l-148 -155h-103l-147 155l53 48l72.5 -51l72.5 -52z" />
    <glyph glyph-name="florin" unicode="&#x192;" horiz-adv-x="550" 
d="M128 431l93.001 -0.000976562l7 55c2.66699 24.667 7.83398 49.667 15.501 75s19 48.333 34 69s34.5 37.5 58.5 50.5s53.667 19.5 89 19.5c17.333 -0.666992 34.5 -2.16699 51.5 -4.5s36.5 -7.83301 58.5 -16.5l-30 -117c-17.333 7.33301 -31.5 11.5 -42.5 12.5
s-20.5 1.5 -28.5 1.5c-10.667 0 -19.834 -3.16699 -27.501 -9.5s-14 -14.166 -19 -23.499s-9 -20 -12 -32s-5.16699 -23.333 -6.5 -34l-6 -46h92l2 -125h-107l-25 -188c-4 -29.333 -10 -57.333 -18 -84s-19.167 -50.167 -33.5 -70.5s-32.166 -36.5 -53.499 -48.5
s-47 -18 -77 -18c-16.667 0 -37.667 2.66699 -63 8s-47.333 12.333 -66 21l36 118c21.333 -8.66699 37.166 -13.5 47.499 -14.5s19.166 -1.5 26.499 -1.5c15.333 0 27.833 8.83301 37.5 26.5s16.5 43.167 20.5 76.5l22 175h-74z" />
    <glyph glyph-name="Ohorn" unicode="&#x1a0;" horiz-adv-x="694" 
d="M595 218c0 -38 -7.3291 -71 -21.9961 -99s-34.334 -51.333 -59.001 -70s-53.334 -32.667 -86.001 -42s-67 -14 -103 -14s-70.167 4.66699 -102.5 14s-61 23.333 -86 42s-44.833 42 -59.5 70s-22 61 -22 99v259c0 38 8 70.667 24 98s36.833 50 62.5 68
s54.5 31.333 86.5 40s64.333 13 97 13c34 0 67.5 -5 100.5 -15s62.167 -24.667 87.5 -44c9.33301 0.666992 17.666 2.5 24.999 5.5s13.666 7.83301 18.999 14.5s9.33301 15.667 12 27s4 25.666 4 42.999v41h104v-45c0 -42 -7.33301 -78.833 -22 -110.5
s-39 -53.834 -73 -66.501c4 -11.333 7.16699 -23.166 9.5 -35.499s3.5 -25.166 3.5 -38.499v-254zM435.004 442c0 20 -3.33301 36.833 -10 50.5s-15.167 24.667 -25.5 33s-22.166 14.5 -35.499 18.5s-26.333 6 -39 6c-13.333 0 -26.5 -2 -39.5 -6
s-24.833 -10.167 -35.5 -18.5s-19.334 -19.333 -26.001 -33s-10 -30.5 -10 -50.5v-195c0 -20 3.33301 -36.833 10 -50.5s15.334 -24.667 26.001 -33s22.5 -14.5 35.5 -18.5s26.167 -6 39.5 -6c12.667 0 25.667 2 39 6s25.166 10.167 35.499 18.5s18.833 19.333 25.5 33
s10 30.5 10 50.5v195z" />
    <glyph glyph-name="ohorn" unicode="&#x1a1;" horiz-adv-x="573" 
d="M485 187c0 -31.333 -5.33203 -58.9971 -15.999 -82.9971s-25.834 -44 -45.501 -60s-43.167 -28.167 -70.5 -36.5s-57.333 -12.5 -90 -12.5c-69.333 0 -123.833 16.167 -163.5 48.5s-59.5 80.166 -59.5 143.499v124c0 31.333 5.83301 59 17.5 83s27.667 44 48 60
s44 28.167 71 36.5s55.833 12.5 86.5 12.5c64 0 115.333 -14.667 154 -44c16 2.66699 28.667 10.167 38 22.5s14 34.5 14 66.5v41h104v-45c0 -42 -7.33301 -78.833 -22 -110.5s-39 -53.834 -73 -66.501c2 -9.33301 3.66699 -18.833 5 -28.5s2 -19.834 2 -30.501v-121z
M338.001 301.003c0 26 -8 44.333 -24 55s-33 16 -51 16c-18.667 0 -36 -5.33301 -52 -16s-24 -29 -24 -55v-104c0 -26 8 -44.333 24 -55s33.333 -16 52 -16c18 0 35 5.33301 51 16s24 29 24 55v104z" />
    <glyph glyph-name="Uhorn" unicode="&#x1af;" horiz-adv-x="748" 
d="M600 219c0 -38 -7.67188 -70.9971 -23.0049 -98.9971s-35.666 -51.5 -60.999 -70.5s-54.166 -33.167 -86.499 -42.5s-65.5 -14 -99.5 -14s-67.167 4.5 -99.5 13.5s-61.166 22.667 -86.499 41s-45.666 41.333 -60.999 69s-23 60.5 -23 98.5v474h159v-444
c0 -20 3.33301 -36.833 10 -50.5s15.334 -24.667 26.001 -33s22.5 -14.5 35.5 -18.5s26.167 -6 39.5 -6c12.667 0 25.667 2 39 6s25.166 10.167 35.499 18.5s18.833 19.333 25.5 33s10 30.5 10 50.5v444h160v-52c19.333 0.666992 34.666 7 45.999 19s17 35.667 17 71v41h104
v-45c0 -26.667 -2.83301 -51.334 -8.5 -74.001s-14.667 -42.334 -27 -59.001s-28.666 -29.834 -48.999 -39.501s-45.166 -14.5 -74.499 -14.5h-8v-317v0z" />
    <glyph glyph-name="uhorn" unicode="&#x1b0;" horiz-adv-x="648" 
d="M194 496l0.00390625 -302.996c0 -11.333 1.83301 -20.833 5.5 -28.5s8.16699 -13.834 13.5 -18.501s11.166 -8 17.499 -10s12.166 -3 17.499 -3c13.333 0 27.166 2.33301 41.499 7s33.5 14.667 57.5 30v326h148v-37c16 2.66699 28.5 10.167 37.5 22.5
s13.5 34.5 13.5 66.5v41h104v-45c0 -26 -2.66699 -50.333 -8 -73s-14.166 -42.334 -26.499 -59.001s-28.333 -29.834 -48 -39.501s-43.834 -14.834 -72.501 -15.501v-357h-132l-10 39c-16.667 -10.667 -32.5 -19 -47.5 -25s-29 -10.5 -42 -13.5s-25 -5 -36 -6
s-20.5 -1.5 -28.5 -1.5c-28.667 0 -52.834 5 -72.501 15s-35.5 23.5 -47.5 40.5s-20.667 37 -26 60s-8 47.833 -8 74.5v313h149z" />
    <glyph glyph-name="AEacute" unicode="&#x1fc;" horiz-adv-x="1018" 
d="M492 143l-231 1l-82 -144h-180l415 689h559v-142h-322v-129h275v-141h-275v-136h322v-141h-481v143zM489 548l-159 -271l162 -1v272h-3zM628 804l182 131l80 -112l-214 -90z" />
    <glyph glyph-name="aeacute" unicode="&#x1fd;" horiz-adv-x="817" 
d="M777 207l-287.998 -0.000976562v-10c0.666992 -23.333 8.5 -40.333 23.5 -51s31.833 -16 50.5 -16c12 0 28.167 1.66699 48.5 5s42.833 13.666 67.5 30.999l78 -101c-16.667 -15.333 -32.834 -27.5 -48.501 -36.5s-31.334 -16 -47.001 -21s-31.334 -8.33301 -47.001 -10
s-31.5 -2.5 -47.5 -2.5c-33.333 0 -64.833 4.5 -94.5 13.5s-55.167 23.167 -76.5 42.5c-21.333 -15.333 -42 -27 -62 -35s-38.5 -13.667 -55.5 -17s-32.167 -5.16602 -45.5 -5.49902s-23.666 -0.5 -30.999 -0.5c-52 0 -92 14 -120 42s-42 65.667 -42 113
c0 27.333 5.5 50.5 16.5 69.5s25.333 34.333 43 46s37.167 20.167 58.5 25.5s42.333 8 63 8h120v13c0 17.333 -6.5 31.5 -19.5 42.5s-35.833 16.5 -68.5 16.5c-16 0 -34.167 -2.16699 -54.5 -6.5s-42.166 -15.833 -65.499 -34.5l-68 106c36 28 71.167 46 105.5 54
s67.166 12 98.499 12c66 0 117 -13 153 -39c39.333 26 85 39 137 39c31.333 0 60.333 -4.33301 87 -13s49.667 -21.167 69 -37.5s34.5 -36.666 45.5 -60.999s16.5 -52.5 16.5 -84.5v-97zM368.002 566.999l85 203l133 -43l-135 -190zM342.002 206.999h-88
c-14.667 0 -27 -4.33301 -37 -13s-15 -20 -15 -34c0 -8 3.16699 -15.333 9.5 -22s17.5 -10 33.5 -10c20 0 38.833 3 56.5 9s31.167 12 40.5 18v52zM629.002 302.999c0 20 -7 35.333 -21 46s-30 16 -48 16s-34.167 -5.5 -48.5 -16.5s-21.833 -25.833 -22.5 -44.5v-7h140v6z
" />
    <glyph glyph-name="Oslashacute" unicode="&#x1fe;" horiz-adv-x="650" 
d="M52 26l45.001 60.999c-28 35.333 -42 79 -42 131v259c0 38 8 70.667 24 98s36.833 50 62.5 68s54.5 31.333 86.5 40s64.333 13 97 13c32 0 63.5 -4.33301 94.5 -13s59.167 -21.667 84.5 -39l41 56l51 -37l-45 -62c13.333 -17.333 24 -36.666 32 -57.999s12 -45 12 -71
v-254c0 -38 -7.33301 -71 -22 -99s-34.334 -51.333 -59.001 -70s-53.334 -32.667 -86.001 -42s-67 -14 -103 -14c-35.333 0 -68.666 4.33301 -99.999 13s-59.333 21.667 -84 39l-40 -54zM435.001 441.999l0.000976562 2l-198 -268c11.333 -13.333 24.833 -22.833 40.5 -28.5
s31.5 -8.5 47.5 -8.5c12.667 0 25.667 2 39 6s25.166 10.167 35.499 18.5s18.833 19.333 25.5 33s10 30.5 10 50.5v195zM214.002 246.999l196.001 268c-11.333 12.667 -24.5 21.667 -39.5 27s-30.167 8 -45.5 8c-13.333 0 -26.5 -2 -39.5 -6s-24.833 -10.167 -35.5 -18.5
s-19.334 -19.333 -26.001 -33s-10 -30.5 -10 -50.5v-195zM229.003 803.999l182 131l80 -112l-214 -90z" />
    </font>
</defs>
</svg>
