<?xml version="1.0" standalone="no"?>
<!DOCTYPE svg PUBLIC "-//W3C//DTD SVG 1.1//EN" "http://www.w3.org/Graphics/SVG/1.1/DTD/svg11.dtd" >
<svg xmlns="../../../../external.html?link=http://www.w3.org/2000/svg">
<metadata></metadata>
<defs>
<font id="din_round_promedium" horiz-adv-x="650" >
<font-face units-per-em="2000" ascent="1528" descent="-472" />
<missing-glyph horiz-adv-x="480" />
<glyph unicode="&#xd;" horiz-adv-x="480" />
<glyph unicode=" "  horiz-adv-x="480" />
<glyph unicode="&#x09;" horiz-adv-x="480" />
<glyph unicode="&#xa0;" horiz-adv-x="480" />
<glyph unicode="!" horiz-adv-x="665" d="M259 1285q0 42 2.5 60t13.5 38q27 49 92 49t92 -49q11 -20 13.5 -38t2.5 -60v-722q0 -42 -2.5 -60t-13.5 -38q-27 -49 -92 -49t-92 49q-11 20 -13.5 38t-2.5 60v722zM237 124q0 54 38 92t92 38t92 -38t38 -92t-38 -92t-92 -38t-92 38t-38 92z" />
<glyph unicode="&#x22;" horiz-adv-x="855" d="M237 1436q59 0 86 -45q16 -29 16 -93v-211q0 -64 -16 -93q-26 -45 -86 -45t-86 45q-16 29 -16 93v211q0 64 16 93q27 45 86 45zM618 1436q59 0 86 -45q16 -29 16 -93v-211q0 -64 -16 -93q-26 -45 -86 -45t-86 45q-16 29 -16 93v211q0 64 16 93q27 45 86 45z" />
<glyph unicode="#" horiz-adv-x="1398" d="M1102 413h-133l-62 -310q-13 -64 -37 -88q-23 -23 -63 -23q-43 0 -71 27q-23 22 -26 54.5t7 67.5l54 272h-270l-62 -310q-13 -64 -37 -88q-23 -23 -63 -23q-43 0 -71 27q-23 22 -26 54.5t7 67.5l54 272h-74q-58 0 -83 14q-42 25 -42 78t42 78q23 14 83 14h111l52 261h-96 q-58 0 -83 14q-42 25 -42 78t42 78q23 14 83 14h133l58 287q13 64 37 88q23 23 63 23q43 0 71 -27q23 -22 26 -54.5t-7 -67.5l-50 -249h270l58 287q13 64 37 88q23 23 63 23q43 0 71 -27q23 -22 26 -54.5t-7 -67.5l-50 -249h74q60 0 83 -14q42 -25 42 -78t-42 -78 q-25 -14 -83 -14h-111l-52 -261h96q60 0 83 -14q42 -25 42 -78t-42 -78q-25 -14 -83 -14zM590 858l-52 -261h270l52 261h-270z" />
<glyph unicode="$" horiz-adv-x="1182" d="M216 747q-105 96 -105 273q0 164 99 273.5t274 135.5v67q0 58 14 83q25 42 78 42t78 -42q14 -23 14 -83v-63q117 -10 254 -81q87 -45 87 -109q0 -37 -25 -66q-26 -31 -66 -31q-37 0 -87 31q-94 57 -190 67v-431l58 -9q97 -15 157 -39.5t107 -66.5q116 -107 116 -292 q0 -171 -112 -279.5t-299 -132.5v-106q0 -60 -14 -83q-25 -42 -78 -42t-78 42q-14 25 -14 83v103q-164 12 -300 93q-57 34 -79 61t-22 65q0 41 30 71q26 26 63 26q40 0 92 -36q115 -79 245 -89v446l-28 4q-172 25 -269 115zM865 400q0 100 -56 148q-51 45 -168 62v-426 q108 14 166 69.5t58 146.5zM321 1026q0 -88 52 -132q50 -45 140 -61v409q-93 -15 -142.5 -72.5t-49.5 -143.5z" />
<glyph unicode="%" horiz-adv-x="1681" d="M1237 1365q1 -24 -19 -65l-622 -1242q-21 -42 -40 -54t-36 -12t-35 9q-39 19 -40 58q-1 24 19 65l622 1242q21 42 40 54t36 12t35 -9q39 -19 40 -58zM524 966v192q0 142 -128 142t-128 -142v-192q0 -142 128 -142t128 142zM677 1163v-203q0 -127 -79.5 -199t-201.5 -72 q-121 0 -201 72.5t-80 198.5v203q0 127 80 200t201 73q122 0 201.5 -73t79.5 -200zM1413 265v192q0 142 -128 142t-128 -142v-192q0 -142 128 -142t128 142zM1566 462v-203q0 -127 -79.5 -199t-201.5 -72q-121 0 -201 72.5t-80 198.5v203q0 127 80 200t201 73 q122 0 201.5 -73t79.5 -200z" />
<glyph unicode="&#x26;" horiz-adv-x="1428" d="M1262 95q0 -45 -39 -78q-30 -25 -67 -25q-28 0 -49 15t-50 50l-68 81q-33 -29 -59.5 -47.5t-77 -46t-115.5 -42t-140 -14.5q-219 0 -339.5 114t-120.5 310q0 57 16.5 109t41.5 91t65 78t75 65.5t84 58.5q-32 37 -51.5 62.5t-45 67t-38.5 85.5t-13 91q0 138 95.5 227 t252.5 89q150 0 244 -90t94 -228q0 -147 -152 -252l-104 -72l300 -358q62 86 73 224q4 43 19 69q25 43 78 43q57 0 82 -44q15 -26 15 -72q0 -33 -12 -97t-29 -110q-34 -92 -95 -163l82 -98q27 -33 37.5 -52t10.5 -41zM869 284l-338 402q-48 -33 -75 -55t-57.5 -56t-44 -73 t-13.5 -86q0 -107 72.5 -175.5t183.5 -68.5q76 0 140 25t132 87zM761 1116q0 61 -40 101.5t-102 40.5q-65 0 -102.5 -39.5t-37.5 -100.5q0 -41 25.5 -84t84.5 -112l68 46q49 33 76.5 68t27.5 80z" />
<glyph unicode="'" horiz-adv-x="474" d="M237 1436q59 0 86 -45q16 -29 16 -93v-211q0 -64 -16 -93q-26 -45 -86 -45t-86 45q-16 29 -16 93v211q0 64 16 93q27 45 86 45z" />
<glyph unicode="(" horiz-adv-x="635" d="M379 247q0 -98 31 -159q24 -48 62 -84q56 -50 56 -101q0 -38 -28 -66q-29 -30 -73 -30q-45 0 -100 55q-77 79 -112 150q-40 81 -40 223v955q0 142 40 223q35 71 112 150q55 55 100 55q44 0 73 -30q28 -28 28 -66q0 -51 -56 -101q-38 -36 -62 -84q-31 -61 -31 -159v-931z " />
<glyph unicode=")" horiz-adv-x="635" d="M256 247v931q0 98 -31 159q-24 48 -62 84q-56 50 -56 101q0 38 28 66q29 30 73 30q45 0 100 -55q77 -79 112 -150q40 -81 40 -223v-955q0 -142 -40 -223q-35 -71 -112 -150q-55 -55 -100 -55q-44 0 -73 30q-28 28 -28 66q0 51 56 101q38 36 62 84q31 61 31 159z" />
<glyph unicode="*" horiz-adv-x="954" d="M271 1263l133 -80v155q0 46 11 66q20 34 62 34t62 -34q11 -20 11 -66v-155l133 80q38 23 64 24q38 2 61 -35q21 -36 2 -70q-12 -20 -52 -44l-140 -84l140 -84q40 -24 52 -44q19 -34 -2 -70q-23 -37 -61 -35q-26 1 -64 24l-133 80v-155q0 -46 -11 -66q-20 -34 -62 -34 t-62 34q-11 20 -11 66v155l-133 -80q-38 -23 -64 -24q-38 -2 -61 35q-21 36 -2 70q12 20 52 44l140 84l-140 84q-40 24 -52 44q-19 34 2 70q23 37 61 35q26 -1 64 -24z" />
<glyph unicode="+" horiz-adv-x="1066" d="M441 241v222h-222q-58 0 -83 14q-42 25 -42 78t42 78q23 14 83 14h222v222q0 58 14 83q25 42 78 42t78 -42q14 -23 14 -83v-222h222q60 0 83 -14q42 -25 42 -78t-42 -78q-25 -14 -83 -14h-222v-222q0 -60 -14 -83q-25 -42 -78 -42t-78 42q-14 25 -14 83z" />
<glyph unicode="," horiz-adv-x="518" d="M367 115l-88 -264q-20 -61 -44 -82q-26 -23 -61 -23q-34 0 -66 20.5t-38 58.5q-5 32 14 91l88 264q20 61 44 82q26 23 61 23q34 0 66 -20.5t38 -58.5q5 -32 -14 -91z" />
<glyph unicode="-" horiz-adv-x="854" d="M602 463h-350q-58 0 -83 14q-42 25 -42 78t42 78q23 14 83 14h350q60 0 83 -14q42 -25 42 -78t-42 -78q-25 -14 -83 -14z" />
<glyph unicode="." horiz-adv-x="558" d="M425 140q0 -60 -43 -103t-103 -43t-103 43t-43 103t43 102t103 42t103 -42t43 -102z" />
<glyph unicode="/" horiz-adv-x="761" d="M719 1421l-494 -1479q-16 -49 -36.5 -73.5t-62.5 -24.5q-33 0 -60 18.5t-35 42.5q-11 33 11 98l494 1479q16 49 36.5 73.5t62.5 24.5q33 0 60 -18.5t35 -42.5q11 -33 -11 -98z" />
<glyph unicode="0" horiz-adv-x="1066" d="M944 396q0 -186 -118 -297t-294 -111q-175 0 -292.5 111.5t-117.5 296.5v632q0 185 117.5 296.5t292.5 111.5q176 0 294 -111t118 -297v-632zM740 404v616q0 104 -56 168t-152 64q-95 0 -150.5 -64.5t-55.5 -167.5v-616q0 -103 55.5 -167.5t150.5 -64.5q96 0 152 64 t56 168z" />
<glyph unicode="1" horiz-adv-x="1066" d="M231 1116l261 261q55 55 112 55q47 0 77 -30q30 -31 30 -107v-1164q0 -61 -15 -91q-25 -48 -87 -48t-87 48q-15 30 -15 91v991l-141 -141q-26 -26 -40.5 -36.5t-30.5 -14.5q-49 -13 -89 27q-39 39 -26 87q8 29 51 72z" />
<glyph unicode="2" horiz-adv-x="1066" d="M385 184h452q60 0 83 -14q42 -23 42 -78t-42 -78q-25 -14 -83 -14h-576q-46 0 -71.5 5t-45.5 25q-27 29 -27 71q0 30 12.5 53t44.5 64l476 596q50 63 73.5 117t23.5 121q0 89 -54.5 144.5t-151.5 55.5q-79 0 -131.5 -38t-81.5 -125q-16 -48 -40 -70q-21 -21 -62 -21 q-48 0 -73 32q-24 30 -24 73q0 54 30 119t84 113q115 101 294 101q190 0 302.5 -100.5t112.5 -279.5q0 -101 -34 -174t-110 -168z" />
<glyph unicode="3" horiz-adv-x="1066" d="M522 1436q183 0 300.5 -105t117.5 -286q0 -220 -184 -309q94 -38 147 -122t53 -211q0 -132 -60.5 -228t-158 -141.5t-218.5 -45.5q-221 0 -340 134q-78 89 -78 185q0 47 32 79q31 31 76 31q39 0 61 -28q10 -12 23 -50t25 -61q52 -106 202 -106q102 0 167 62.5t65 172.5 q0 109 -59.5 170t-170.5 63q-43 2 -64 14q-41 23 -41 75t41 75q24 14 64 14q102 2 157.5 59.5t55.5 158.5t-59 158.5t-154 57.5q-81 0 -128.5 -34t-72.5 -110q-16 -48 -41 -70q-24 -19 -55 -19q-42 0 -73 28q-32 29 -32 78q0 90 75 174q119 137 327 137z" />
<glyph unicode="4" horiz-adv-x="1066" d="M609 131v88h-422q-73 0 -105 26q-36 27 -36 76q0 31 27 85l469 940q26 52 52 71q21 15 48 15q37 0 66.5 -26.5t29.5 -63.5q0 -29 -26 -81l-424 -850h321v208q0 61 15 91q25 48 87 48t87 -48q15 -30 15 -91v-208h68q62 0 88 -14q44 -25 44 -82t-44 -82q-26 -14 -88 -14 h-68v-88q0 -61 -15 -91q-25 -48 -87 -48t-87 48q-15 30 -15 91z" />
<glyph unicode="5" horiz-adv-x="1066" d="M535 -12q-189 0 -299 99q-46 42 -74.5 99t-28.5 116q0 48 28 78q26 29 72 29q41 0 64 -21q24 -23 46 -89q41 -127 192 -127q98 0 153 55q41 41 54 101.5t13 147.5q0 67 -9.5 118t-32 93.5t-64.5 65t-103 22.5q-65 0 -108.5 -19t-81.5 -66q-17 -21 -41 -36 q-21 -14 -57 -14q-44 0 -71 27q-29 28 -29 88v553q0 63 27 90q26 26 88 26h536q60 0 83 -14q42 -25 42 -78t-42 -78q-25 -14 -83 -14h-466v-373q83 83 236 83q164 0 256 -92q73 -73 98.5 -167.5t25.5 -214.5q0 -129 -24.5 -217t-96.5 -160q-111 -111 -303 -111z" />
<glyph unicode="6" horiz-adv-x="1066" d="M680 1261l-225 -449q52 22 126 22q158 0 266 -114t108 -298q0 -195 -117 -314.5t-303 -119.5q-187 0 -304.5 115.5t-117.5 310.5q0 138 100 338l297 594q26 52 52 71q21 15 48 15q37 0 66.5 -26.5t29.5 -63.5q0 -29 -26 -81zM751 418q0 107 -59 176.5t-159 69.5 q-97 0 -156.5 -66t-59.5 -180q0 -113 59.5 -179.5t156.5 -66.5t157.5 66.5t60.5 179.5z" />
<glyph unicode="7" horiz-adv-x="1066" d="M964 1232l-429 -1144q-22 -58 -43 -77q-22 -19 -54 -19q-35 0 -65.5 21.5t-34.5 54.5q-4 31 17 87l407 1085h-434v-91q0 -61 -15 -91q-25 -48 -87 -48t-87 48q-15 30 -15 91v150q0 67 29 96t96 29h593q46 0 70.5 -5.5t44.5 -23.5q30 -27 30 -74q0 -29 -23 -89z" />
<glyph unicode="8" horiz-adv-x="1066" d="M972 402q0 -189 -126 -301.5t-314 -112.5t-313 112.5t-125 301.5q0 216 196 334q-76 46 -124 123.5t-48 182.5q0 176 118.5 285t295.5 109t296.5 -109.5t119.5 -284.5q0 -105 -48 -182.5t-124 -123.5q196 -118 196 -334zM533 821q91 0 151.5 60.5t60.5 154.5 q0 93 -60 154.5t-152 61.5t-152 -61.5t-60 -154.5t60 -154t152 -61zM767 408q0 100 -67.5 167.5t-166.5 67.5t-167 -68t-68 -167q0 -100 68 -168t167 -68t166.5 68t67.5 168z" />
<glyph unicode="9" horiz-adv-x="1066" d="M386 163l225 449q-52 -22 -126 -22q-158 0 -266 114t-108 298q0 195 117 314.5t303 119.5q187 0 304.5 -115.5t117.5 -310.5q0 -138 -100 -338l-297 -594q-26 -52 -52 -71q-21 -15 -48 -15q-37 0 -66.5 26.5t-29.5 63.5q0 29 26 81zM315 1006q0 -107 59 -176.5t159 -69.5 q97 0 156.5 66t59.5 180q0 113 -59.5 179.5t-156.5 66.5t-157.5 -66.5t-60.5 -179.5z" />
<glyph unicode=":" horiz-adv-x="608" d="M476 140q0 -60 -43 -103t-103 -43t-103 43t-43 103t43 102t103 42t103 -42t43 -102zM476 695q0 -60 -43 -103t-103 -43t-103 43t-43 103t43 102t103 42t103 -42t43 -102z" />
<glyph unicode=";" horiz-adv-x="608" d="M444 115l-88 -264q-20 -61 -44 -82q-26 -23 -61 -23q-34 0 -66 20.5t-38 58.5q-5 32 14 91l88 264q20 61 44 82q26 23 61 23q34 0 66 -20.5t38 -58.5q5 -32 -14 -91zM504 694q0 -60 -43 -103t-103 -43t-103 43t-43 103t43 102t103 42t103 -42t43 -102z" />
<glyph unicode="&#x3c;" horiz-adv-x="1066" d="M151 555q0 25 8 45t25.5 35t32 24t41.5 22l469 234q52 26 81 26q37 0 63.5 -29.5t26.5 -66.5q0 -27 -15 -48q-19 -26 -71 -52l-380 -190l380 -190q52 -26 71 -52q15 -21 15 -48q0 -37 -26.5 -66.5t-63.5 -29.5q-29 0 -81 26l-469 234q-27 13 -41.5 22t-32 24t-25.5 35 t-8 45z" />
<glyph unicode="=" horiz-adv-x="1066" d="M847 660h-628q-58 0 -83 14q-42 25 -42 78t42 78q23 14 83 14h628q60 0 83 -14q42 -25 42 -78t-42 -78q-25 -14 -83 -14zM847 265h-628q-58 0 -83 14q-42 25 -42 78t42 78q23 14 83 14h628q60 0 83 -14q42 -25 42 -78t-42 -78q-25 -14 -83 -14z" />
<glyph unicode="&#x3e;" horiz-adv-x="1066" d="M915 555q0 -25 -8 -45t-25.5 -35t-32 -24t-41.5 -22l-469 -234q-52 -26 -81 -26q-37 0 -63.5 29.5t-26.5 66.5q0 27 15 48q19 26 71 52l380 190l-380 190q-52 26 -71 52q-15 21 -15 48q0 37 26.5 66.5t63.5 29.5q29 0 81 -26l469 -234q27 -13 41.5 -22t32 -24t25.5 -35 t8 -45z" />
<glyph unicode="?" horiz-adv-x="1021" d="M422 124q0 54 38 92t92 38t92 -38t38 -92t-38 -92t-92 -38t-92 38t-38 92zM940 1060q0 -73 -23 -127.5t-71 -120.5l-137 -189q-39 -54 -50 -129q-6 -41 -29 -67q-28 -31 -77 -31q-47 0 -77 33q-26 29 -26 77q0 55 14 95t54 94l156 210q61 82 61 155q0 83 -54 138t-139 55 q-88 0 -143 -55q-37 -37 -58 -118q-11 -43 -28 -61q-27 -30 -74 -30q-42 0 -69 30q-24 27 -24 75q0 56 28.5 120.5t79.5 113.5q114 108 287 108q170 0 284.5 -104t114.5 -272z" />
<glyph unicode="@" horiz-adv-x="1473" d="M1147 468q0 70 -8.5 122t-30 96.5t-63 68t-102.5 23.5t-102 -23.5t-62 -68t-29.5 -96.5t-8.5 -122t8.5 -121.5t29.5 -96t62 -67.5t102 -23t102.5 23t63 67.5t30 96t8.5 121.5zM1144 96q-54 -60 -113.5 -84t-138.5 -24q-151 0 -237 86q-65 65 -88.5 160.5t-23.5 233.5 q0 139 23.5 234.5t88.5 160.5q86 86 236 86q81 0 142.5 -25t112.5 -87l1 117q0 76 -15.5 125t-57.5 91q-75 75 -210 75h-255q-135 0 -210 -75q-42 -42 -57.5 -91t-15.5 -125v-618q0 -73 13 -108t50 -75q38 -43 38 -78q0 -43 -34 -74q-30 -26 -68 -26q-28 0 -48.5 14 t-49.5 47q-53 59 -76 121t-23 170v635q0 231 118 350q116 117 343 117h296q226 0 342 -117q118 -119 118 -350v-831q0 -61 -15 -91q-25 -48 -87 -48q-45 0 -72 27q-25 25 -27 77z" />
<glyph unicode="A" horiz-adv-x="1246" d="M851 470l-228 623l-228 -623h456zM918 286h-590l-71 -191q-14 -37 -23 -53.5t-24 -28.5q-26 -21 -59 -21q-49 0 -79 32q-19 20 -24 44.5t-0.5 45t17.5 53.5l436 1161q19 51 43 74q32 30 79 30t79 -30q24 -23 43 -74l436 -1161q13 -33 17.5 -53.5t-0.5 -45t-24 -44.5 q-30 -32 -79 -32q-33 0 -59 21q-15 12 -24 28.5t-23 53.5z" />
<glyph unicode="B" horiz-adv-x="1326" d="M761 0h-444q-70 0 -101 31t-31 101v1160q0 70 31 101t101 31h422q198 0 314 -105t116 -285q0 -109 -56.5 -190t-135.5 -112q92 -37 153 -120.5t61 -209.5q0 -192 -118 -297t-312 -105zM741 629h-340v-437h340q110 0 172 61t62 159q0 97 -62 157t-172 60zM401 821h320 q106 0 169 54t63 151q0 98 -63 152t-169 54h-320v-411z" />
<glyph unicode="C" horiz-adv-x="1253" d="M135 712q0 107 1.5 164t9 127t22.5 113t42 88.5t68 86.5q145 145 367 145q129 0 216.5 -36.5t156.5 -110.5q55 -59 82 -122t27 -107q0 -52 -29 -81q-32 -30 -75 -30q-38 0 -64 21q-27 21 -53 81q-41 95 -104.5 144t-160.5 49q-122 0 -205 -89q-54 -59 -69.5 -145 t-15.5 -298t15.5 -298t69.5 -145q83 -89 205 -89q97 0 160.5 49t104.5 144q26 60 53 81q26 21 64 21q43 0 75 -30q29 -29 29 -81q0 -44 -27 -107t-82 -122q-69 -74 -156.5 -110.5t-216.5 -36.5q-222 0 -367 145q-41 41 -68 86.5t-42 88.5t-22.5 113t-9 127t-1.5 164z" />
<glyph unicode="D" horiz-adv-x="1332" d="M216 1393q31 31 101 31h369q262 0 406 -181q69 -88 87 -199.5t18 -331.5q0 -217 -19 -330.5t-88 -202.5q-139 -179 -404 -179h-369q-70 0 -101 31t-31 101v1160q0 70 31 101zM401 1232v-1040h260q161 0 245 97q49 55 62 147t13 276t-13 276t-62 147q-84 97 -245 97h-260z " />
<glyph unicode="E" horiz-adv-x="1203" d="M401 1232v-418h470q62 0 88 -14q44 -25 44 -82t-44 -82q-26 -14 -88 -14h-470v-430h572q62 0 88 -14q44 -25 44 -82t-44 -82q-26 -14 -88 -14h-656q-70 0 -101 31t-31 101v1160q0 70 31 101t101 31h656q62 0 88 -14q44 -25 44 -82t-44 -82q-26 -14 -88 -14h-572z" />
<glyph unicode="F" horiz-adv-x="1168" d="M401 1232v-437h470q62 0 88 -14q44 -25 44 -82t-44 -82q-26 -14 -88 -14h-470v-464q0 -42 -2.5 -60t-13.5 -38q-27 -49 -92 -49t-92 49q-11 20 -13.5 38t-2.5 60v1153q0 70 31 101t101 31h656q62 0 88 -14q44 -25 44 -82t-44 -82q-26 -14 -88 -14h-572z" />
<glyph unicode="G" horiz-adv-x="1282" d="M351 712q0 -215 16 -301.5t68 -141.5q83 -89 212 -89q125 0 211 86q48 49 64.5 113.5t16.5 181.5h-180q-62 0 -88 14q-44 25 -44 82t44 82q26 14 88 14h256q70 0 101 -31t31 -101v-21q0 -182 -27.5 -283.5t-107.5 -181.5q-147 -147 -365 -147q-224 0 -369 145 q-41 41 -68 86.5t-42 88.5t-22.5 113t-9 127t-1.5 164t1.5 164t9 127t22.5 113t42 88.5t68 86.5q145 145 367 145q129 0 216.5 -36.5t156.5 -110.5q55 -59 82 -122t27 -107q0 -52 -29 -81q-32 -30 -75 -30q-38 0 -64 21q-27 21 -53 81q-41 95 -104.5 144t-160.5 49 q-122 0 -205 -89q-54 -59 -69.5 -145t-15.5 -298z" />
<glyph unicode="H" horiz-adv-x="1380" d="M401 815h578v470q0 42 2.5 60t13.5 38q27 49 92 49t92 -49q11 -20 13.5 -38t2.5 -60v-1146q0 -42 -2.5 -60t-13.5 -38q-27 -49 -92 -49t-92 49q-11 20 -13.5 38t-2.5 60v484h-578v-484q0 -42 -2.5 -60t-13.5 -38q-27 -49 -92 -49t-92 49q-11 20 -13.5 38t-2.5 60v1146 q0 42 2.5 60t13.5 38q27 49 92 49t92 -49q11 -20 13.5 -38t2.5 -60v-470z" />
<glyph unicode="I" horiz-adv-x="586" d="M401 139q0 -42 -2.5 -60t-13.5 -38q-27 -49 -92 -49t-92 49q-11 20 -13.5 38t-2.5 60v1146q0 42 2.5 60t13.5 38q27 49 92 49t92 -49q11 -20 13.5 -38t2.5 -60v-1146z" />
<glyph unicode="J" horiz-adv-x="1012" d="M375 -12q-162 0 -274 81q-51 37 -51 89q0 41 29 70q26 25 61 25t82 -29q70 -44 153 -44q123 0 190.5 74t67.5 214v817q0 42 2.5 60t13.5 38q27 49 92 49t92 -49q11 -20 13.5 -38t2.5 -60v-835q0 -143 -64.5 -249.5t-171 -159.5t-238.5 -53z" />
<glyph unicode="K" horiz-adv-x="1294" d="M401 139q0 -42 -2.5 -60t-13.5 -38q-27 -49 -92 -49t-92 49q-11 20 -13.5 38t-2.5 60v1146q0 42 2.5 60t13.5 38q27 49 92 49t92 -49q11 -20 13.5 -38t2.5 -60v-572l539 654q29 35 50 50t49 15q37 0 67 -25q39 -33 39 -78q0 -22 -10.5 -41t-37.5 -52l-303 -366l390 -685 q33 -58 34 -89q2 -57 -53 -89q-25 -15 -58 -15q-37 0 -59.5 21.5t-47.5 66.5l-356 627l-243 -292v-276z" />
<glyph unicode="L" horiz-adv-x="1145" d="M317 0q-70 0 -101 31t-31 101v1153q0 42 2.5 60t13.5 38q27 49 92 49t92 -49q11 -20 13.5 -38t2.5 -60v-1093h562q62 0 88 -14q44 -25 44 -82t-44 -82q-26 -14 -88 -14h-646z" />
<glyph unicode="M" horiz-adv-x="1626" d="M1225 952l-301 -630q-19 -40 -44.5 -60t-65.5 -20t-65.5 19.5t-45.5 60.5l-302 630v-813q0 -42 -2.5 -60t-13.5 -38q-27 -49 -92 -49t-92 49q-11 20 -13.5 38t-2.5 60v1160q0 68 32 101q32 32 79 32q36 0 61 -14q29 -17 53 -65l404 -824l402 824q24 48 53 65q25 14 61 14 q47 0 79 -32q32 -33 32 -101v-1160q0 -42 -2.5 -60t-13.5 -38q-27 -49 -92 -49t-92 49q-11 20 -13.5 38t-2.5 60v813z" />
<glyph unicode="N" horiz-adv-x="1443" d="M401 1000v-861q0 -42 -2.5 -60t-13.5 -38q-27 -49 -92 -49t-92 49q-11 20 -13.5 38t-2.5 60v1155q0 73 31 104q34 34 82 34q37 0 64.5 -22t61.5 -73l618 -913v861q0 42 2.5 60t13.5 38q27 49 92 49t92 -49q11 -20 13.5 -38t2.5 -60v-1156q0 -72 -31 -103q-34 -34 -82 -34 q-37 0 -64.5 22t-61.5 73z" />
<glyph unicode="O" horiz-adv-x="1294" d="M278 133q-41 41 -68 86.5t-42 88.5t-22.5 113t-9 127t-1.5 164t1.5 164t9 127t22.5 113t42 88.5t68 86.5q145 145 369 145q223 0 368 -145q41 -41 68 -86.5t42.5 -89t23 -112.5t9 -127t1.5 -164t-1.5 -164t-9 -127t-23 -112.5t-42.5 -89t-68 -86.5q-145 -145 -368 -145 q-224 0 -369 145zM435 270q84 -90 212 -90q127 0 212 90q52 56 68 142t16 300t-16 300.5t-68 142.5q-84 89 -212 89q-129 0 -212 -89q-52 -55 -68 -141.5t-16 -301.5t16 -301t68 -141z" />
<glyph unicode="P" horiz-adv-x="1257" d="M201 41q-11 20 -13.5 38t-2.5 60v1153q0 70 31 101t101 31h408q206 0 331 -121.5t125 -310.5t-125 -309.5t-331 -120.5h-324v-423q0 -42 -2.5 -60t-13.5 -38q-27 -49 -92 -49t-92 49zM401 1232v-478h312q115 0 183.5 63.5t68.5 174.5q0 113 -68 176.5t-184 63.5h-312z " />
<glyph unicode="Q" horiz-adv-x="1294" d="M278 133q-41 41 -68 86.5t-42 88.5t-22.5 113t-9 127t-1.5 164t1.5 164t9 127t22.5 113t42 88.5t68 86.5q145 145 369 145q223 0 368 -145q41 -41 68 -86.5t42.5 -89t23 -112.5t9 -127t1.5 -164q0 -220 -15.5 -327.5t-76.5 -191.5l72 -72q38 -38 45 -63q11 -43 -24 -78 t-78 -24q-25 7 -63 45l-74 74q-126 -87 -298 -87q-224 0 -369 145zM697 324q-39 37 -46 63q-11 43 24 78t78 24q25 -7 63 -45l85 -85q26 52 34 128t8 225q0 214 -16 300.5t-68 142.5q-84 89 -212 89q-129 0 -212 -89q-52 -55 -68 -141.5t-16 -301.5t16 -301t68 -141 q84 -90 212 -90q84 0 146 47z" />
<glyph unicode="R" horiz-adv-x="1313" d="M201 41q-11 20 -13.5 38t-2.5 60v1153q0 70 31 101t101 31h420q200 0 321 -116t121 -300q0 -146 -78.5 -244t-203.5 -134l255 -445q33 -58 34 -89q2 -57 -53 -89q-25 -15 -58 -15q-37 0 -59.5 21.5t-47.5 66.5l-297 520h-270v-461q0 -42 -2.5 -60t-13.5 -38 q-27 -49 -92 -49t-92 49zM721 1232h-320v-448h320q110 0 176 59t66 163q0 105 -66.5 165.5t-175.5 60.5z" />
<glyph unicode="S" horiz-adv-x="1182" d="M571 180q141 0 217.5 57.5t76.5 162.5q0 100 -56 148q-51 45 -155 60l-169 24q-172 25 -269 115q-105 96 -105 273q0 188 128 302t348 114q100 0 172.5 -18.5t162.5 -65.5q87 -45 87 -109q0 -37 -25 -66q-26 -31 -66 -31q-37 0 -87 31q-63 39 -120 54.5t-132 15.5 q-123 0 -190.5 -60.5t-67.5 -160.5q0 -88 52 -132q54 -48 156 -64l170 -26q97 -15 157 -39.5t107 -66.5q116 -107 116 -292q0 -193 -141.5 -305.5t-370.5 -112.5q-124 0 -212.5 23.5t-170.5 72.5q-57 34 -79 61t-22 65q0 41 30 71q26 26 63 26q40 0 92 -36q72 -49 141.5 -70 t161.5 -21z" />
<glyph unicode="T" horiz-adv-x="1116" d="M1066 1328q0 -57 -44 -82q-26 -14 -88 -14h-268v-1093q0 -42 -2.5 -60t-13.5 -38q-27 -49 -92 -49t-92 49q-11 20 -13.5 38t-2.5 60v1093h-268q-62 0 -88 14q-44 25 -44 82t44 82q26 14 88 14h752q62 0 88 -14q44 -25 44 -82z" />
<glyph unicode="U" horiz-adv-x="1346" d="M673 -12q-220 0 -365 137t-145 355v805q0 42 2.5 60t13.5 38q27 49 92 49t92 -49q11 -20 13.5 -38t2.5 -60v-795q0 -143 80 -226.5t214 -83.5t214 83.5t80 226.5v795q0 42 2.5 60t13.5 38q27 49 92 49t92 -49q11 -20 13.5 -38t2.5 -60v-805q0 -218 -145 -355t-365 -137z " />
<glyph unicode="V" horiz-adv-x="1112" d="M1060 1262l-386 -1160q-20 -61 -44 -82q-29 -28 -74 -28t-74 28q-24 21 -44 82l-386 1160q-19 59 -14 91q6 38 38 58.5t66 20.5q35 0 61 -23q24 -21 44 -82l309 -950l309 950q20 61 44 82q26 23 61 23q34 0 66 -20.5t38 -58.5q5 -32 -14 -91z" />
<glyph unicode="W" horiz-adv-x="1730" d="M865 1431q47 0 74 -26q23 -23 37 -72l260 -931l228 916q16 64 36 86q26 28 69 28q35 0 64 -20t36 -50q7 -28 -9 -93l-288 -1156q-17 -66 -50 -94q-33 -27 -77 -27t-77 27q-31 26 -50 94l-253 902l-253 -902q-19 -68 -50 -94q-33 -27 -77 -27t-77 27q-33 28 -50 94 l-288 1156q-16 65 -9 93q7 30 36 50t64 20q43 0 69 -28q20 -22 36 -86l228 -916l260 931q14 49 37 72q27 26 74 26z" />
<glyph unicode="X" horiz-adv-x="1114" d="M209 1432q37 0 59.5 -21.5t47.5 -66.5l241 -431l241 431q25 45 47.5 66.5t59.5 21.5q33 0 58 -15q55 -32 53 -89q-1 -31 -34 -89l-292 -507l314 -547q33 -58 34 -89q2 -57 -53 -89q-25 -15 -58 -15q-37 0 -59.5 21.5t-47.5 66.5l-263 467l-263 -467q-25 -45 -47.5 -66.5 t-59.5 -21.5q-33 0 -58 15q-55 32 -53 89q1 31 34 89l314 546l-292 508q-33 58 -34 89q-2 57 53 89q25 15 58 15z" />
<glyph unicode="Y" horiz-adv-x="1046" d="M44 1340q2 53 56 80q24 12 51 12q26 0 49 -15q24 -17 53 -75l270 -541l270 541q29 58 53 75q22 15 49 15t51 -12q54 -27 56 -80q1 -33 -27 -89l-344 -684v-428q0 -42 -2.5 -60t-13.5 -38q-27 -49 -92 -49t-92 49q-11 20 -13.5 38t-2.5 60v428l-344 684q-28 57 -27 89z " />
<glyph unicode="Z" horiz-adv-x="1115" d="M247 1424h628q83 0 114 -32q32 -32 32 -79q0 -37 -36 -96l-631 -1025h536q62 0 88 -14q44 -25 44 -82t-44 -82q-26 -14 -88 -14h-657q-82 0 -114 32t-32 79q0 36 37 96l630 1025h-507q-62 0 -88 14q-44 25 -44 82t44 82q26 14 88 14z" />
<glyph unicode="[" horiz-adv-x="693" d="M172 1447q0 67 29 96t96 29h194q60 0 83 -14q42 -25 42 -78t-42 -78q-25 -14 -83 -14h-115v-1352h115q60 0 83 -14q42 -25 42 -78t-42 -78q-25 -14 -83 -14h-194q-67 0 -96 29t-29 96v1470z" />
<glyph unicode="\" horiz-adv-x="763" d="M537 -56l-494 1479q-22 65 -11 98q8 24 35 42.5t60 18.5q42 0 62.5 -24.5t36.5 -73.5l494 -1479q22 -65 11 -98q-8 -24 -35 -42.5t-60 -18.5q-42 0 -62.5 24.5t-36.5 73.5z" />
<glyph unicode="]" horiz-adv-x="693" d="M521 1447v-1470q0 -67 -29 -96t-96 -29h-194q-58 0 -83 14q-42 25 -42 78t42 78q23 14 83 14h115v1352h-115q-58 0 -83 14q-42 25 -42 78t42 78q23 14 83 14h194q67 0 96 -29t29 -96z" />
<glyph unicode="^" horiz-adv-x="1059" d="M655 1325l234 -469q26 -52 26 -81q0 -37 -29.5 -63.5t-66.5 -26.5q-27 0 -48 15q-26 19 -52 71l-190 380l-189 -380q-26 -52 -52 -71q-21 -15 -48 -15q-37 0 -66.5 26.5t-29.5 63.5q0 29 26 81l234 469q13 27 22 41.5t24 32t35 25.5t45 8t44.5 -8t34.5 -25.5t24 -32 t22 -41.5z" />
<glyph unicode="_" horiz-adv-x="1143" d="M1002 -360h-861q-49 0 -71 12q-36 20 -36 66t36 66q22 12 71 12h861q49 0 71 -12q36 -20 36 -66t-36 -66q-22 -12 -71 -12z" />
<glyph unicode="`" horiz-adv-x="1076" d="M428 1250l-93 149q-30 49 -31 74q-3 47 43 77q24 15 49 15t47 -16q17 -12 44 -55l93 -149q30 -49 31 -74q3 -47 -43 -77q-24 -15 -49 -15t-47 16q-17 12 -44 55z" />
<glyph unicode="a" horiz-adv-x="1060" d="M83 298q0 132 91.5 213t259.5 81h269v63q0 101 -50.5 149.5t-161.5 48.5q-105 0 -194 -68q-35 -27 -74 -27q-37 0 -59 27q-24 27 -24 63q0 62 95 117q106 61 258 61q204 0 309.5 -88.5t105.5 -260.5v-546q0 -65 -15 -92q-25 -47 -87 -47q-47 0 -74 29q-21 24 -23 73 q-60 -59 -119.5 -82t-152.5 -23q-184 0 -273 92q-81 83 -81 217zM282 301q0 -143 191 -143q62 0 105.5 11.5t79.5 46.5q45 42 45 151v80h-240q-89 0 -135 -37.5t-46 -108.5z" />
<glyph unicode="b" horiz-adv-x="1105" d="M162 132v1161q0 61 15 91q25 48 87 48t87 -48q15 -30 15 -91v-381q53 63 116.5 88.5t149.5 25.5q156 0 246 -90q67 -68 89.5 -173.5t22.5 -254.5q0 -150 -22.5 -256t-89.5 -174q-90 -90 -248 -90q-84 0 -147.5 26t-117.5 90q-2 -51 -18 -72q-28 -40 -83 -40q-57 0 -84 43 q-18 30 -18 97zM786 507q0 60 -4 104.5t-17 90.5t-35.5 74.5t-61 47t-92.5 18.5t-93 -18.5t-61.5 -47t-35.5 -74.5t-17 -90.5t-4 -104.5t4 -104.5t17 -90.5t35.5 -74.5t61.5 -47t93 -18.5t92.5 18.5t61 47t35.5 74.5t17 90.5t4 104.5z" />
<glyph unicode="c" horiz-adv-x="969" d="M110 507q0 137 37.5 240.5t102 162.5t142.5 87.5t168 28.5q123 0 222 -64q48 -31 73.5 -59t25.5 -63q0 -36 -29 -67q-26 -26 -63 -26q-34 0 -81 39q-70 56 -148 56q-119 0 -185 -87q-61 -80 -61 -248t61 -247q66 -88 185 -88q75 0 148 57q49 39 81 39q36 0 63 -27 q29 -31 29 -67q0 -35 -26.5 -63.5t-72.5 -58.5q-100 -64 -222 -64q-90 0 -168 28.5t-142.5 87.5t-102 162.5t-37.5 240.5z" />
<glyph unicode="d" horiz-adv-x="1105" d="M943 1293v-1161q0 -67 -18 -97q-27 -43 -84 -43q-55 0 -83 40q-16 21 -18 72q-54 -64 -117.5 -90t-147.5 -26q-158 0 -248 90q-67 68 -89.5 174t-22.5 256q0 149 22.5 254.5t89.5 173.5q90 90 246 90q86 0 149.5 -25.5t116.5 -88.5v381q0 61 15 91q25 48 87 48t87 -48 q15 -30 15 -91zM319 507q0 -60 4 -104.5t17 -90.5t35.5 -74.5t61 -47t92.5 -18.5t93 18.5t61.5 47t35.5 74.5t17 90.5t4 104.5t-4 104.5t-17 90.5t-35.5 74.5t-61.5 47t-93 18.5t-92.5 -18.5t-61 -47t-35.5 -74.5t-17 -90.5t-4 -104.5z" />
<glyph unicode="e" horiz-adv-x="1075" d="M110 507q0 247 116 383t314 136q195 0 309.5 -128t119.5 -333q2 -61 -28 -91q-26 -26 -90 -26h-539q0 -132 67.5 -209t192.5 -77q115 0 195 64q46 37 83 37q32 0 58 -26.5t26 -60.5q0 -58 -102 -123q-99 -65 -265 -65q-99 0 -179 27.5t-144 86.5t-99 162t-35 243z M768 590q-6 89 -28 138q-26 59 -78 93.5t-122 34.5q-71 0 -123.5 -34.5t-78.5 -93.5q-23 -51 -26 -138h456z" />
<glyph unicode="f" horiz-adv-x="669" d="M207 1153q0 78 28 139.5t91.5 101.5t155.5 40h20q57 0 86 -16q41 -22 41 -71q0 -50 -41 -72q-22 -12 -74 -14q-103 -3 -103 -117v-130h111q49 0 71 -12q36 -20 36 -66t-36 -66q-22 -12 -71 -12h-111v-727q0 -61 -15 -91q-25 -48 -87 -48t-87 48q-15 30 -15 91v727h-47 q-49 0 -71 12q-36 20 -36 66t36 66q22 12 71 12h47v139z" />
<glyph unicode="g" horiz-adv-x="1099" d="M501 -421q-144 0 -240 53q-104 58 -104 120q0 38 26 63.5t57 25.5t92 -39q77 -50 163 -50q122 0 180 73t58 185v130q-53 -63 -116.5 -89.5t-145.5 -26.5q-152 0 -242 90q-68 68 -91 166.5t-23 245.5t23 245.5t91 166.5q88 88 244 88q83 0 145 -25.5t116 -88.5q2 47 18 70 q28 40 83 40q57 0 84 -43q18 -30 18 -97v-876q0 -188 -118.5 -307.5t-317.5 -119.5zM733 526q0 45 -2.5 79.5t-10 73.5t-22 66.5t-36.5 51t-56 35.5t-79 12q-53 0 -92 -18.5t-61 -47t-34.5 -72.5t-16.5 -85t-4 -95t4 -95t16.5 -85t34.5 -72.5t61 -47t92 -18.5t92 18.5 t60.5 46.5t34 72.5t16 85t3.5 95.5z" />
<glyph unicode="h" horiz-adv-x="1137" d="M366 618v-487q0 -61 -15 -91q-25 -48 -87 -48t-87 48q-15 30 -15 91v1162q0 61 15 91q25 48 87 48t87 -48q15 -30 15 -91v-381q103 114 266 114q156 0 250 -92q103 -100 103 -286v-517q0 -61 -15 -91q-25 -48 -87 -48t-87 48q-15 30 -15 91v487q0 113 -56.5 168.5 t-149.5 55.5q-92 0 -150.5 -56t-58.5 -168z" />
<glyph unicode="i" horiz-adv-x="528" d="M366 131q0 -61 -15 -91q-25 -48 -87 -48t-87 48q-15 30 -15 91v752q0 61 15 91q25 48 87 48t87 -48q15 -30 15 -91v-752zM141 1345q0 51 36 87t87 36t87 -36t36 -87t-36 -87t-87 -36t-87 36t-36 87z" />
<glyph unicode="j" horiz-adv-x="528" d="M141 1345q0 51 36 87t87 36t87 -36t36 -87t-36 -87t-87 -36t-87 36t-36 87zM162 -124v1007q0 61 15 91q25 48 87 48t87 -48q15 -30 15 -91v-1016q0 -78 -28 -139.5t-91.5 -101.5t-155.5 -40h-20q-57 0 -86 16q-41 22 -41 71q0 50 41 72q22 12 74 14q103 3 103 117z" />
<glyph unicode="k" horiz-adv-x="1040" d="M970 88q0 -49 -48 -79q-27 -17 -56 -17q-32 0 -52.5 17.5t-46.5 59.5l-246 392l-155 -180v-150q0 -61 -15 -91q-25 -48 -87 -48t-87 48q-15 30 -15 91v1162q0 61 15 91q25 48 87 48t87 -48q15 -30 15 -91v-747l366 417q29 33 49 46t44 13q36 0 63 -24q32 -28 32 -66 t-47 -92l-209 -238l271 -428q35 -56 35 -86z" />
<glyph unicode="l" horiz-adv-x="613" d="M157 281v1014q0 61 15 91q25 48 87 48t87 -48q15 -30 15 -91v-1005q0 -114 103 -117q52 -2 74 -14q41 -22 41 -72q0 -49 -41 -71q-29 -16 -86 -16h-20q-92 0 -155.5 40t-91.5 101.5t-28 139.5z" />
<glyph unicode="m" horiz-adv-x="1754" d="M1602 648v-517q0 -61 -15 -91q-25 -48 -87 -48t-87 48q-15 30 -15 91v487q0 113 -56.5 168.5t-147.5 55.5q-89 0 -149.5 -55t-60.5 -159v-497q0 -61 -15 -91q-25 -48 -87 -48t-87 48q-15 30 -15 91v487q0 113 -56.5 168.5t-147.5 55.5q-92 0 -151 -56.5t-59 -167.5v-487 q0 -61 -15 -91q-25 -48 -87 -48t-87 48q-15 30 -15 91v751q0 67 18 97q27 43 84 43q55 0 83 -40q16 -23 18 -67q51 53 120.5 82t146.5 29q191 0 288 -148q121 148 318 148q161 0 256 -92q108 -105 108 -286z" />
<glyph unicode="n" horiz-adv-x="1136" d="M366 618v-487q0 -61 -15 -91q-25 -48 -87 -48t-87 48q-15 30 -15 91v751q0 67 18 97q27 43 84 43q55 0 83 -40q16 -23 18 -67q105 111 267 111q155 0 250 -92q102 -99 102 -286v-517q0 -61 -15 -91q-25 -48 -87 -48t-87 48q-15 30 -15 91v487q0 113 -56.5 168.5 t-147.5 55.5q-92 0 -151 -56.5t-59 -167.5z" />
<glyph unicode="o" horiz-adv-x="1074" d="M319 507q0 -99 14 -167t56 -110q57 -58 148 -58t148 58q42 42 56 110t14 167q0 98 -14 166.5t-56 110.5q-57 58 -148 58t-148 -58q-42 -42 -56 -110.5t-14 -166.5zM115 507q0 141 24.5 234t94.5 165q116 120 303 120t303 -120q69 -72 94 -165.5t25 -233.5t-25 -233.5 t-94 -165.5q-116 -120 -303 -120t-303 120q-70 72 -94.5 165t-24.5 234z" />
<glyph unicode="p" horiz-adv-x="1105" d="M177 -369q-15 30 -15 91v1161q0 67 18 97q27 43 84 43q55 0 83 -40q16 -23 18 -72q54 64 117 90t148 26q158 0 248 -90q67 -68 89.5 -174t22.5 -256q0 -149 -22.5 -254.5t-89.5 -173.5q-91 -91 -246 -91q-85 0 -149 26t-117 89v-381q0 -61 -15 -91q-25 -48 -87 -48 t-87 48zM786 508q0 60 -4 104.5t-17 90.5t-35.5 74.5t-61 47t-92.5 18.5t-93 -18.5t-61.5 -47t-35.5 -74.5t-17 -90.5t-4 -104.5t4 -104.5t17 -90.5t35.5 -75t61.5 -47.5t93 -18.5t92.5 18.5t61 47.5t35.5 75t17 90.5t4 104.5z" />
<glyph unicode="q" horiz-adv-x="1105" d="M943 883v-1161q0 -61 -15 -91q-25 -48 -87 -48t-87 48q-15 30 -15 91v381q-53 -63 -116.5 -88.5t-149.5 -25.5q-156 0 -246 90q-67 68 -89.5 173.5t-22.5 254.5q0 150 22.5 256t89.5 174q90 90 248 90q84 0 147.5 -26t117.5 -90q2 51 18 72q28 40 83 40q57 0 84 -43 q18 -30 18 -97zM319 508q0 -60 4 -104.5t17 -90.5t35.5 -74.5t61 -47t92.5 -18.5t93 18.5t61.5 47t35.5 74.5t17 90.5t4 104.5t-4 104.5t-17 90.5t-35.5 74.5t-61.5 47t-93 18.5t-92.5 -18.5t-61 -47t-35.5 -74.5t-17 -90.5t-4 -104.5z" />
<glyph unicode="r" horiz-adv-x="880" d="M365 908q44 54 112 86t146 32q108 0 178 -47q61 -40 61 -92q0 -44 -30 -74q-28 -28 -70 -28q-32 0 -79 27q-54 30 -110 30q-89 0 -148 -62t-59 -165v-484q0 -61 -15 -91q-25 -48 -87 -48t-87 48q-15 30 -15 91v751q0 67 18 97q27 43 84 43q55 0 83 -40q16 -23 18 -74z " />
<glyph unicode="s" horiz-adv-x="999" d="M489 -12q-218 0 -353 92q-56 38 -56 85q0 43 33 70q24 21 56 21q31 0 76 -29q105 -68 245 -68q102 0 162.5 36.5t60.5 106.5q0 107 -137 120l-163 15q-300 27 -300 278q0 145 109 228t274 83q153 0 273 -56q46 -22 66 -43q19 -23 19 -56t-25 -60q-26 -26 -60 -26 q-22 0 -66 21q-109 53 -211 53q-88 0 -135 -36.5t-47 -96.5q0 -55 34.5 -82.5t105.5 -33.5l160 -15q301 -29 301 -286q0 -154 -117 -237.5t-305 -83.5z" />
<glyph unicode="t" horiz-adv-x="703" d="M204 281v577h-47q-49 0 -71 12q-36 20 -36 66t36 66q22 12 71 12h47v159q0 61 15 91q25 48 87 48t87 -48q15 -30 15 -91v-159h110q49 0 71 -12q36 -20 36 -66t-36 -66q-22 -12 -71 -12h-110v-568q0 -114 103 -117q52 -2 74 -14q41 -22 41 -72q0 -49 -41 -71 q-29 -16 -86 -16h-20q-92 0 -155.5 40t-91.5 101.5t-28 139.5z" />
<glyph unicode="u" horiz-adv-x="1136" d="M770 396v487q0 61 15 91q25 48 87 48t87 -48q15 -30 15 -91v-751q0 -67 -18 -97q-27 -43 -84 -43q-55 0 -83 40q-16 23 -18 67q-105 -111 -267 -111q-155 0 -250 92q-102 99 -102 286v517q0 61 15 91q25 48 87 48t87 -48q15 -30 15 -91v-487q0 -113 56.5 -168.5 t147.5 -55.5q92 0 151 56.5t59 167.5z" />
<glyph unicode="v" horiz-adv-x="898" d="M525 18q-30 -26 -76 -26t-76 26q-30 27 -50 88l-259 757q-22 65 -11 98q8 24 35 42.5t60 18.5q42 0 62.5 -24.5t36.5 -73.5l202 -609l202 609q16 49 36.5 73.5t62.5 24.5q33 0 60 -18.5t35 -42.5q11 -33 -11 -98l-259 -757q-21 -62 -50 -88z" />
<glyph unicode="w" horiz-adv-x="1466" d="M733 717l-186 -599q-23 -77 -52 -99q-32 -27 -75 -27q-44 0 -76 27q-29 22 -52 99l-222 747q-17 59 -10 88t34.5 49t61.5 20q38 0 65 -27q18 -18 35 -77l175 -615l183 599q22 72 50 95q28 25 69 25t69 -25q28 -23 50 -95l183 -599l175 615q17 59 35 77q27 27 65 27 q34 0 61.5 -20t34.5 -49t-10 -88l-222 -747q-23 -77 -52 -99q-32 -27 -76 -27q-43 0 -75 27q-29 22 -52 99z" />
<glyph unicode="x" horiz-adv-x="900" d="M819 926q0 -30 -35 -86l-210 -330l215 -336q35 -56 35 -86q0 -49 -48 -79q-27 -17 -56 -17q-32 0 -52.5 17.5t-46.5 59.5l-170 280l-172 -280q-26 -42 -46.5 -59.5t-52.5 -17.5q-29 0 -56 17q-48 30 -48 79q0 30 35 86l216 335l-211 331q-35 56 -35 86q0 49 48 79 q27 17 56 17q32 0 52.5 -17.5t46.5 -59.5l167 -273l165 273q26 42 46.5 59.5t52.5 17.5q29 0 56 -17q48 -30 48 -79z" />
<glyph unicode="y" horiz-adv-x="898" d="M834 863l-369 -1066q-29 -82 -74 -126q-76 -75 -199 -75q-67 0 -94 24q-29 26 -29 69q0 48 31 72q24 19 68 19q48 0 79.5 24t51.5 84l49 149l-284 826q-22 65 -11 98q8 24 35 42.5t60 18.5q42 0 62.5 -24.5t36.5 -73.5l200 -621l204 621q16 49 36.5 73.5t62.5 24.5 q33 0 60 -18.5t35 -42.5q12 -36 -11 -98z" />
<glyph unicode="z" horiz-adv-x="926" d="M224 1014h497q59 0 88 -17q41 -24 41 -71q0 -43 -41 -99l-467 -643h385q60 0 83 -14q42 -25 42 -78t-42 -78q-25 -14 -83 -14h-525q-60 0 -88 17q-40 22 -40 72q0 26 8.5 46t32.5 53l465 642h-356q-58 0 -83 14q-42 25 -42 78t42 78q23 14 83 14z" />
<glyph unicode="{" horiz-adv-x="812" d="M84 712q0 40 25 65q19 20 82 29q41 6 69 34q35 35 35 120v334q0 73 16.5 121.5t55.5 88.5q66 67 195 67h42q59 0 84 -13q20 -9 32 -30.5t12 -48.5q0 -56 -42 -78q-25 -14 -69 -14q-66 -1 -91 -26q-31 -30 -31 -128v-321q0 -87 -35.5 -130t-96.5 -70q28 -13 48 -25.5 t41 -35.5t32 -58t11 -81v-321q0 -98 31 -128q25 -25 91 -26q44 0 69 -14q42 -22 42 -78q0 -27 -12 -48.5t-32 -30.5q-25 -13 -84 -13h-42q-129 0 -195 67q-39 40 -55.5 88.5t-16.5 121.5v334q0 85 -35 120q-28 28 -69 34q-63 9 -82 29q-25 25 -25 65z" />
<glyph unicode="|" horiz-adv-x="676" d="M440 1441v-1458q0 -61 -15 -91q-25 -48 -87 -48t-87 48q-15 30 -15 91v1458q0 61 15 91q25 48 87 48t87 -48q15 -30 15 -91z" />
<glyph unicode="}" horiz-adv-x="812" d="M728 712q0 -40 -25 -65q-19 -20 -82 -29q-41 -6 -69 -34q-35 -35 -35 -120v-334q0 -73 -16.5 -121.5t-55.5 -88.5q-66 -67 -195 -67h-42q-59 0 -84 13q-20 9 -32 30.5t-12 48.5q0 56 42 78q25 14 69 14q66 1 91 26q31 30 31 128v321q0 87 35.5 130t96.5 70 q-28 13 -48 25.5t-41 35.5t-32 58t-11 81v321q0 98 -31 128q-25 25 -91 26q-44 0 -69 14q-42 22 -42 78q0 27 12 48.5t32 30.5q25 13 84 13h42q129 0 195 -67q39 -40 55.5 -88.5t16.5 -121.5v-334q0 -85 35 -120q28 -28 69 -34q63 -9 82 -29q25 -25 25 -65z" />
<glyph unicode="~" horiz-adv-x="1147" d="M998 498q-58 -53 -110.5 -73t-120.5 -20q-91 0 -223 64q-98 48 -159 48q-37 0 -66.5 -12t-66.5 -43q-33 -29 -66 -29q-38 0 -66 32q-24 27 -24 60q0 47 53 95q58 53 111 73t120 20q91 0 223 -64q98 -48 160 -48q37 0 66.5 12t65.5 44q34 28 67 28q37 0 65 -32 q24 -28 24 -60q0 -47 -53 -95z" />
<glyph unicode="&#xa1;" horiz-adv-x="665" d="M192 -271v722q0 42 2.5 60t13.5 38q27 49 92 49t92 -49q11 -20 13.5 -38t2.5 -60v-722q0 -42 -2.5 -60t-13.5 -38q-27 -49 -92 -49t-92 49q-11 20 -13.5 38t-2.5 60zM170 890q0 54 38 92t92 38t92 -38t38 -92t-38 -92t-92 -38t-92 38t-38 92z" />
<glyph unicode="&#xa2;" horiz-adv-x="969" d="M110 732q0 119 28 212.5t78.5 153.5t113 95.5t137.5 49.5v64q0 58 14 83q25 42 78 42t78 -42q14 -23 14 -83v-64q67 -14 131 -56q48 -31 73.5 -59t25.5 -63q0 -36 -29 -67q-26 -26 -63 -26q-34 0 -81 39q-47 37 -91 49v-656q42 11 91 50t81 39q36 0 63 -27q29 -31 29 -67 q0 -35 -26.5 -63.5t-72.5 -58.5q-68 -43 -131 -56v-104q0 -60 -14 -83q-25 -42 -78 -42t-78 42q-14 25 -14 83v104q-75 13 -137.5 48.5t-113 96t-78.5 154t-28 212.5zM493 405v654q-72 -18 -118 -79q-61 -80 -61 -248q0 -89 14 -146t47 -101q47 -62 118 -80z" />
<glyph unicode="&#xa3;" horiz-adv-x="1161" d="M126 637q-36 20 -36 66q0 47 36 67q20 12 72 12h46v192q0 214 135 338t339 124q165 0 275 -78q65 -46 65 -103q0 -41 -27 -70q-24 -26 -56 -26q-33 0 -79 29q-48 31 -87 43.5t-90 12.5q-122 0 -190.5 -73.5t-68.5 -212.5v-176h184q51 0 71 -12q36 -20 36 -67 q0 -46 -36 -66q-20 -12 -71 -12h-184v-433h481q62 0 88 -14q44 -25 44 -82t-44 -82q-26 -14 -88 -14h-565q-70 0 -101 31t-31 101v493h-46q-52 0 -72 12z" />
<glyph unicode="&#xa4;" horiz-adv-x="1329" d="M1131 889l-84 -84q75 -112 75 -247q0 -137 -76 -248l85 -84q43 -43 51 -72q13 -48 -26 -87q-40 -40 -89 -27q-16 4 -30.5 14.5t-40.5 36.5l-85 84q-109 -75 -247 -75t-247 75l-84 -84q-43 -43 -71 -51q-49 -13 -89 27q-39 39 -26 87q8 29 51 72l84 84q-76 111 -76 248 q0 138 75 247l-83 84q-43 43 -51 72q-13 48 26 87q40 40 89 27q16 -4 30.5 -14.5t40.5 -36.5l83 -84q108 74 248 74t248 -74l84 84q44 44 71 51q49 13 89 -27q39 -39 26 -87q-8 -29 -51 -72zM392 557q0 -113 80 -192.5t192 -79.5t192 79.5t80 192.5t-80 192.5t-192 79.5 t-192 -79.5t-80 -192.5z" />
<glyph unicode="&#xa5;" horiz-adv-x="1070" d="M67 1340q2 53 56 80q24 12 51 12q26 0 49 -15q24 -17 53 -75l259 -523l259 523q29 58 53 75q23 15 49 15q27 0 51 -12q54 -27 56 -80q1 -33 -27 -89l-212 -424h94q49 0 71 -12q36 -20 36 -66t-36 -66q-22 -12 -71 -12h-172l-43 -86v-91h215q49 0 71 -12q36 -20 36 -66 t-36 -66q-22 -12 -71 -12h-215v-199q0 -42 -2.5 -60t-13.5 -38q-27 -49 -92 -49t-92 49q-11 20 -13.5 38t-2.5 60v199h-216q-49 0 -71 12q-36 20 -36 66t36 66q22 12 71 12h216v91l-43 86h-173q-49 0 -71 12q-36 20 -36 66t36 66q22 12 71 12h95l-212 424q-28 57 -27 89z " />
<glyph unicode="&#xa6;" horiz-adv-x="676" d="M440 421v-438q0 -61 -15 -91q-25 -48 -87 -48t-87 48q-15 30 -15 91v438q0 61 15 91q25 48 87 48t87 -48q15 -30 15 -91zM440 1441v-438q0 -61 -15 -91q-25 -48 -87 -48t-87 48q-15 30 -15 91v438q0 61 15 91q25 48 87 48t87 -48q15 -30 15 -91z" />
<glyph unicode="&#xa7;" horiz-adv-x="1090" d="M570 101l-127 39q-149 45 -222.5 136t-73.5 235q0 110 58.5 193t137.5 124q-169 83 -169 271q0 145 100 241t272 96q216 0 317 -137q52 -71 52 -144q0 -34 -16 -62q-24 -42 -81 -42q-45 0 -72 30q-17 20 -24 55q-22 126 -176 126q-83 0 -129.5 -40.5t-46.5 -115.5 q0 -64 38.5 -104t120.5 -65l126 -39q144 -44 216 -134t72 -233q0 -111 -57.5 -194t-135.5 -124q177 -76 177 -280q0 -164 -111.5 -259t-271.5 -95q-197 0 -303 119q-71 79 -71 166q0 38 17 65q26 41 80 41q42 0 68 -26q20 -20 27 -60q23 -127 182 -127q86 0 134.5 44 t48.5 124q0 127 -157 176zM347 521q0 -100 55 -158q54 -57 143 -57t143 57q55 58 55 158t-55 158q-54 57 -143 57t-143 -57q-55 -58 -55 -158z" />
<glyph unicode="&#xa8;" horiz-adv-x="1076" d="M872 1314q0 -47 -33 -80.5t-79 -33.5t-80 34t-34 80t33.5 79t80.5 33q46 0 79 -33t33 -79zM432 1314q0 -46 -34 -80t-80 -34t-79 33.5t-33 80.5q0 46 33 79t79 33q47 0 80.5 -33t33.5 -79z" />
<glyph unicode="&#xa9;" horiz-adv-x="1724" d="M1586 712q0 -197 -97 -363.5t-263.5 -263.5t-363.5 -97t-363.5 97t-263.5 263.5t-97 363.5t97 363.5t263.5 263.5t363.5 97t363.5 -97t263.5 -263.5t97 -363.5zM1447 712q0 123 -46 233t-124 189.5t-186.5 126t-228.5 46.5t-228.5 -46.5t-187 -126t-124.5 -189.5 t-46 -233t46 -233t124.5 -189.5t187 -126t228.5 -46.5t228.5 46.5t186.5 126t124 189.5t46 233zM544 712q0 171 90.5 270.5t242.5 99.5q122 0 194 -68q36 -34 36 -63q0 -25 -17 -42q-18 -18 -43 -18t-59 27q-51 42 -111 42q-100 0 -148.5 -67t-48.5 -181t48.5 -181 t148.5 -67q60 0 111 42q34 27 59 27t43 -18q17 -17 17 -42q0 -29 -36 -63q-72 -68 -194 -68q-152 0 -242.5 99.5t-90.5 270.5z" />
<glyph unicode="&#xaa;" horiz-adv-x="903" d="M753 1154v-433q0 -49 -12 -71q-20 -36 -66 -36t-66 36q-11 20 -12 43q-50 -44 -97.5 -62t-118.5 -18q-146 0 -218 79q-59 65 -59 164q0 100 72 163.5t205 63.5h216v60q0 82 -42.5 118t-133.5 36q-51 0 -85.5 -14t-70.5 -45q-27 -24 -60 -24q-26 0 -43 18q-18 21 -18 49 q0 51 84 102q78 47 193 47q332 0 332 -276zM597 909v65h-195q-73 0 -110 -30.5t-37 -87.5q0 -115 150 -115q55 0 91.5 9t64.5 37q36 36 36 122z" />
<glyph unicode="&#xab;" horiz-adv-x="1218" d="M532 714l-189 -189l189 -189q43 -43 51 -72q13 -48 -26 -87q-40 -40 -89 -27q-28 8 -71 51l-324 324l324 324q43 43 71 51q49 13 89 -27q39 -39 26 -87q-8 -29 -51 -72zM1037 714l-189 -189l189 -189q43 -43 51 -72q13 -48 -26 -87q-40 -40 -89 -27q-16 4 -30.5 14.5 t-40.5 36.5l-324 324l324 324q26 26 40.5 36.5t30.5 14.5q49 13 89 -27q39 -39 26 -87q-8 -29 -51 -72z" />
<glyph unicode="&#xac;" horiz-adv-x="1066" d="M783 477h-569q-58 0 -83 14q-42 25 -42 78t42 78q23 14 83 14h628q67 0 96 -29t29 -96v-221q0 -58 -14 -83q-25 -42 -78 -42t-78 42q-14 23 -14 83v162z" />
<glyph unicode="&#xad;" horiz-adv-x="854" d="M601 463h-350q-58 0 -83 14q-42 25 -42 78t42 78q23 14 83 14h350q60 0 83 -14q42 -25 42 -78t-42 -78q-25 -14 -83 -14z" />
<glyph unicode="&#xae;" horiz-adv-x="1724" d="M1586 712q0 -197 -97 -363.5t-263.5 -263.5t-363.5 -97t-363.5 97t-263.5 263.5t-97 363.5t97 363.5t263.5 263.5t363.5 97t363.5 -97t263.5 -263.5t97 -363.5zM1447 712q0 123 -46 233t-124 189.5t-186.5 126t-228.5 46.5q-161 0 -295.5 -78.5t-212.5 -215.5t-78 -301 t78 -301t212.5 -215.5t295.5 -78.5q120 0 228.5 46.5t186.5 126t124 189.5t46 233zM765 638v-201q0 -44 -10 -63q-19 -31 -58 -31t-58 31q-10 19 -10 63v554q0 46 19 65t65 19h189q103 0 169 -64t66 -158q0 -75 -38.5 -124.5t-101.5 -71.5l112 -192q21 -34 22 -58 q2 -34 -34 -54q-16 -10 -35 -10q-22 0 -35.5 13t-31.5 43l-139 239h-91zM885 959h-120v-213h120q51 0 83.5 28.5t32.5 78.5q0 49 -32.5 77.5t-83.5 28.5z" />
<glyph unicode="&#xaf;" horiz-adv-x="1076" d="M848 1319q0 -49 -37 -69q-23 -13 -74 -13h-399q-51 0 -74 13q-38 21 -38 69t38 69q23 13 74 13h399q51 0 74 -13q37 -20 37 -69z" />
<glyph unicode="&#xb0;" horiz-adv-x="941" d="M471 750q-145 0 -247 102t-102 247t102 247t247 102t247 -102t102 -247t-102 -247t-247 -102zM471 914q77 0 129 53t52 132t-52 132t-129 53t-129 -53t-52 -132t52 -132t129 -53z" />
<glyph unicode="&#xb1;" horiz-adv-x="1066" d="M441 411v222h-222q-58 0 -83 14q-42 25 -42 78t42 78q23 14 83 14h222v222q0 58 14 83q25 42 78 42t78 -42q14 -23 14 -83v-222h222q60 0 83 -14q42 -25 42 -78t-42 -78q-25 -14 -83 -14h-222v-222q0 -60 -14 -83q-25 -42 -78 -42t-78 42q-14 25 -14 83zM847 0h-628 q-58 0 -83 14q-42 25 -42 78t42 78q23 14 83 14h628q60 0 83 -14q42 -25 42 -78t-42 -78q-25 -14 -83 -14z" />
<glyph unicode="&#xb2;" d="M166 570q-58 0 -79 22q-19 21 -19 52q0 32 37 77l284 352q49 60 49 114q0 49 -29 78t-79 29q-86 0 -109 -83q-8 -29 -27 -48q-18 -16 -46 -16q-40 0 -59 29q-13 19 -13 46q0 60 52 122q75 88 202 88q120 0 190.5 -65t70.5 -180q0 -51 -19 -93t-71 -106l-229 -280h237 q43 0 63 -12q30 -16 30 -57q0 -40 -30 -58q-18 -11 -63 -11h-343z" />
<glyph unicode="&#xb3;" d="M593 1185q0 -123 -98 -175q110 -58 110 -194q0 -123 -77.5 -189.5t-194.5 -66.5q-132 0 -212 85q-50 53 -50 124q0 43 22 65q19 19 51 19q28 0 47 -17q18 -18 24 -45q19 -91 118 -91q51 0 83.5 32t32.5 88q0 53 -30.5 84.5t-86.5 33.5q-35 2 -52 19q-19 19 -19 48t19 48 q17 17 52 19q52 2 79 32t27 76q0 51 -31 80.5t-74 29.5q-77 0 -102 -65q-13 -38 -21 -52q-16 -28 -57 -28q-32 0 -51 23t-19 58q0 75 56 131q73 73 194 73q115 0 187.5 -68t72.5 -177z" />
<glyph unicode="&#xb4;" horiz-adv-x="1076" d="M741 1399l-93 -149q-27 -43 -44 -55q-22 -16 -47 -16t-49 15q-46 30 -43 77q1 25 31 74l93 149q27 43 44 55q22 16 47 16t49 -15q46 -30 43 -77q-1 -25 -31 -74z" />
<glyph unicode="&#xb5;" horiz-adv-x="1146" d="M780 396v487q0 61 15 91q25 48 87 48t87 -48q15 -30 15 -91v-751q0 -67 -18 -97q-27 -43 -84 -43q-55 0 -83 40q-16 21 -18 67q-105 -111 -267 -111q-94 0 -148 51v-318q0 -61 -15 -91q-25 -48 -87 -48t-87 48q-15 30 -15 91v1162q0 61 15 91q25 48 87 48t87 -48 q15 -30 15 -91v-487q0 -113 56.5 -168.5t147.5 -55.5q92 0 151 56.5t59 167.5z" />
<glyph unicode="&#xb6;" horiz-adv-x="1274" d="M1088 -279q0 -61 -15 -91q-25 -48 -87 -48t-87 48q-15 30 -15 91v1511h-216v-1511q0 -61 -15 -91q-25 -48 -87 -48t-87 48q-15 30 -15 91v912q-163 0 -275.5 116.5t-112.5 276.5q0 179 122.5 288.5t327.5 109.5h437q67 0 96 -29t29 -96v-1578z" />
<glyph unicode="&#xb7;" horiz-adv-x="636" d="M172 555q0 60 43 102t103 42t103 -42t43 -102t-43 -102t-103 -42t-103 42t-43 102z" />
<glyph unicode="&#xb8;" horiz-adv-x="1076" d="M352 -478q-47 29 -44 77q1 26 32 74l93 149q28 44 44 55q22 16 47 16t49 -15q46 -30 43 -77q-1 -25 -31 -74l-93 -149q-27 -43 -44 -56q-23 -15 -47 -15q-27 0 -49 15z" />
<glyph unicode="&#xb9;" d="M451 1332v-663q0 -49 -12 -71q-20 -36 -66 -36t-66 36q-12 22 -12 71v530l-59 -59q-31 -32 -55 -39q-38 -11 -68 20q-32 32 -21 68q7 21 40 55l144 145q43 43 90 43q39 0 61 -23q24 -25 24 -77z" />
<glyph unicode="&#xba;" horiz-adv-x="916" d="M458 608q-144 0 -235 91q-56 56 -77.5 131.5t-21.5 188.5t21.5 188.5t77.5 131.5q91 91 235 91t235 -91q56 -56 77.5 -131.5t21.5 -188.5t-21.5 -188.5t-77.5 -131.5q-91 -91 -235 -91zM458 747q74 0 124 50q34 34 44 87.5t10 134.5t-10 134.5t-44 87.5q-50 50 -124 50 t-124 -50q-34 -34 -44 -87.5t-10 -134.5t10 -134.5t44 -87.5q50 -50 124 -50z" />
<glyph unicode="&#xbb;" horiz-adv-x="1218" d="M370 525l-189 189q-43 43 -51 72q-13 48 26 87q40 40 89 27q28 -8 71 -51l324 -324l-324 -324q-26 -26 -40.5 -36.5t-30.5 -14.5q-49 -13 -89 27q-39 39 -26 87q8 29 51 72zM875 525l-189 189q-43 43 -51 72q-13 48 26 87q40 40 89 27q28 -8 71 -51l324 -324l-324 -324 q-43 -43 -71 -51q-49 -13 -89 27q-39 39 -26 87q8 29 51 72z" />
<glyph unicode="&#xbc;" horiz-adv-x="1654" d="M451 1332v-663q0 -49 -12 -71q-20 -36 -66 -36t-66 36q-12 22 -12 71v530l-59 -59q-31 -32 -55 -39q-38 -11 -68 20q-32 32 -21 68q7 21 40 55l144 145q43 43 90 43q39 0 61 -23q24 -25 24 -77zM1223 1365q1 -24 -19 -65l-622 -1242q-21 -42 -40 -54t-36 -12t-35 9 q-39 19 -40 58q-1 24 19 65l622 1242q21 42 40 54t36 12t35 -9q39 -19 40 -58zM1462 731l-235 -470h160v70q0 49 12 71q20 36 66 36t66 -36q12 -22 12 -71v-70h4q43 0 63 -12q30 -17 30 -57t-30 -58q-18 -11 -63 -11h-4v-24q0 -49 -12 -71q-20 -36 -66 -36t-66 36 q-12 22 -12 71v24h-257q-40 0 -60 11q-33 20 -33 57q0 20 19 58l274 548q33 66 78 66q29 0 51 -20t22 -49q0 -25 -19 -63z" />
<glyph unicode="&#xbd;" horiz-adv-x="1654" d="M451 1332v-663q0 -49 -12 -71q-20 -36 -66 -36t-66 36q-12 22 -12 71v530l-59 -59q-31 -32 -55 -39q-38 -11 -68 20q-32 32 -21 68q7 21 40 55l144 145q43 43 90 43q39 0 61 -23q24 -25 24 -77zM1223 1365q1 -24 -19 -65l-622 -1242q-21 -42 -40 -54t-36 -12t-35 9 q-39 19 -40 58q-1 24 19 65l622 1242q21 42 40 54t36 12t35 -9q39 -19 40 -58zM1170 0q-58 0 -79 22q-19 21 -19 52q0 32 37 77l284 352q49 60 49 114q0 49 -29 78t-79 29q-86 0 -109 -83q-8 -29 -27 -48q-18 -16 -46 -16q-40 0 -59 29q-13 19 -13 46q0 60 52 122 q75 88 202 88q120 0 190.5 -65t70.5 -180q0 -51 -19 -93t-71 -106l-229 -280h237q43 0 63 -12q30 -17 30 -57t-30 -58q-18 -11 -63 -11h-343z" />
<glyph unicode="&#xbe;" horiz-adv-x="1654" d="M593 1187q0 -123 -98 -175q110 -58 110 -194q0 -123 -77.5 -189.5t-194.5 -66.5q-132 0 -212 85q-50 53 -50 124q0 43 22 65q19 19 51 19q28 0 47 -17q18 -18 24 -45q19 -91 118 -91q51 0 83.5 32t32.5 88q0 53 -30.5 84.5t-86.5 33.5q-35 2 -52 19q-19 19 -19 48t19 48 q17 17 52 19q52 2 79 32t27 76q0 51 -31 80.5t-74 29.5q-77 0 -102 -65q-13 -38 -21 -52q-16 -28 -57 -28q-32 0 -51 23t-19 58q0 75 56 131q73 73 194 73q115 0 187.5 -68t72.5 -177zM1223 1365q1 -24 -19 -65l-622 -1242q-21 -42 -40 -54t-36 -12t-35 9q-39 19 -40 58 q-1 24 19 65l622 1242q21 42 40 54t36 12t35 -9q39 -19 40 -58zM1462 731l-235 -470h160v70q0 49 12 71q20 36 66 36t66 -36q12 -22 12 -71v-70h4q43 0 63 -12q30 -17 30 -57t-30 -58q-18 -11 -63 -11h-4v-24q0 -49 -12 -71q-20 -36 -66 -36t-66 36q-12 22 -12 71v24h-257 q-40 0 -60 11q-33 20 -33 57q0 20 19 58l274 548q33 66 78 66q29 0 51 -20t22 -49q0 -25 -19 -63z" />
<glyph unicode="&#xbf;" horiz-adv-x="1021" d="M599 890q0 -54 -38 -92t-92 -38t-92 38t-38 92t38 92t92 38t92 -38t38 -92zM81 -46q0 73 23 127.5t71 120.5l137 189q39 54 50 129q6 41 29 67q28 31 77 31q47 0 77 -33q26 -29 26 -77q0 -55 -14 -95t-54 -94l-156 -210q-61 -82 -61 -155q0 -83 54 -138t139 -55 q88 0 143 55q37 37 58 118q11 43 28 61q27 30 74 30q42 0 69 -30q24 -27 24 -75q0 -56 -28.5 -120.5t-79.5 -113.5q-114 -108 -287 -108q-170 0 -284.5 104t-114.5 272z" />
<glyph unicode="&#xc0;" horiz-adv-x="1246" d="M851 470l-228 623l-228 -623h456zM918 286h-590l-71 -191q-14 -37 -23 -53.5t-24 -28.5q-26 -21 -59 -21q-49 0 -79 32q-19 20 -24 44.5t-0.5 45t17.5 53.5l436 1161q19 51 43 74q32 30 79 30t79 -30q24 -23 43 -74l436 -1161q13 -33 17.5 -53.5t-0.5 -45t-24 -44.5 q-30 -32 -79 -32q-33 0 -59 21q-15 12 -24 28.5t-23 53.5zM514 1611l-93 149q-30 49 -31 74q-3 47 43 77q24 15 49 15t47 -16q17 -12 44 -55l93 -149q30 -49 31 -74q3 -47 -43 -77q-24 -15 -49 -15t-47 16q-17 12 -44 55z" />
<glyph unicode="&#xc1;" horiz-adv-x="1246" d="M851 470l-228 623l-228 -623h456zM918 286h-590l-71 -191q-14 -37 -23 -53.5t-24 -28.5q-26 -21 -59 -21q-49 0 -79 32q-19 20 -24 44.5t-0.5 45t17.5 53.5l436 1161q19 51 43 74q32 30 79 30t79 -30q24 -23 43 -74l436 -1161q13 -33 17.5 -53.5t-0.5 -45t-24 -44.5 q-30 -32 -79 -32q-33 0 -59 21q-15 12 -24 28.5t-23 53.5zM825 1760l-93 -149q-27 -43 -44 -55q-22 -16 -47 -16t-49 15q-46 30 -43 77q1 25 31 74l93 149q27 43 44 55q22 16 47 16t49 -15q46 -30 43 -77q-1 -25 -31 -74z" />
<glyph unicode="&#xc2;" horiz-adv-x="1246" d="M851 470l-228 623l-228 -623h456zM918 286h-590l-71 -191q-14 -37 -23 -53.5t-24 -28.5q-26 -21 -59 -21q-49 0 -79 32q-19 20 -24 44.5t-0.5 45t17.5 53.5l436 1161q19 51 43 74q32 30 79 30t79 -30q24 -23 43 -74l436 -1161q13 -33 17.5 -53.5t-0.5 -45t-24 -44.5 q-30 -32 -79 -32q-33 0 -59 21q-15 12 -24 28.5t-23 53.5zM623 1913q40 0 88 -48l166 -166q37 -37 43 -61q13 -42 -22 -77q-36 -34 -76 -22q-26 7 -62 43l-137 138l-137 -138q-36 -36 -62 -43q-40 -12 -76 22q-35 35 -22 77q6 24 43 61l166 166q48 48 88 48z" />
<glyph unicode="&#xc3;" horiz-adv-x="1246" d="M851 470l-228 623l-228 -623h456zM918 286h-590l-71 -191q-14 -37 -23 -53.5t-24 -28.5q-26 -21 -59 -21q-49 0 -79 32q-19 20 -24 44.5t-0.5 45t17.5 53.5l436 1161q19 51 43 74q32 30 79 30t79 -30q24 -23 43 -74l436 -1161q13 -33 17.5 -53.5t-0.5 -45t-24 -44.5 q-30 -32 -79 -32q-33 0 -59 21q-15 12 -24 28.5t-23 53.5zM604 1619q-66 37 -107 37q-46 0 -88 -34q-32 -26 -59 -26q-34 0 -54 23q-17 20 -17 52q0 38 46 77q75 62 167 62q43 0 74.5 -10t75.5 -35q66 -37 107 -37q46 0 88 34q32 26 59 26q34 0 54 -23q17 -20 17 -52 q0 -38 -46 -77q-75 -62 -167 -62q-43 0 -74.5 10t-75.5 35z" />
<glyph unicode="&#xc4;" horiz-adv-x="1246" d="M851 470l-228 623l-228 -623h456zM918 286h-590l-71 -191q-14 -37 -23 -53.5t-24 -28.5q-26 -21 -59 -21q-49 0 -79 32q-19 20 -24 44.5t-0.5 45t17.5 53.5l436 1161q19 51 43 74q32 30 79 30t79 -30q24 -23 43 -74l436 -1161q13 -33 17.5 -53.5t-0.5 -45t-24 -44.5 q-30 -32 -79 -32q-33 0 -59 21q-15 12 -24 28.5t-23 53.5zM955 1678q0 -47 -33 -80.5t-79 -33.5q-47 0 -80.5 34t-33.5 80t33.5 79t80.5 33t79.5 -33t32.5 -79zM517 1678q0 -46 -33.5 -80t-80.5 -34q-46 0 -79 33.5t-33 80.5q0 46 32.5 79t79.5 33t80.5 -33t33.5 -79z" />
<glyph unicode="&#xc5;" horiz-adv-x="1246" d="M851 470l-228 623l-228 -623h456zM918 286h-590l-71 -191q-14 -37 -23 -53.5t-24 -28.5q-26 -21 -59 -21q-49 0 -79 32q-19 20 -24 44.5t-0.5 45t17.5 53.5l436 1161q19 51 43 74q32 30 79 30t79 -30q24 -23 43 -74l436 -1161q13 -33 17.5 -53.5t-0.5 -45t-24 -44.5 q-30 -32 -79 -32q-33 0 -59 21q-15 12 -24 28.5t-23 53.5zM373 1749q0 103 73.5 176.5t176.5 73.5t176.5 -73.5t73.5 -176.5t-73.5 -176.5t-176.5 -73.5t-176.5 73.5t-73.5 176.5zM496 1749q0 -53 37 -90t90 -37t90 37t37 90t-37 90t-90 37t-90 -37t-37 -90z" />
<glyph unicode="&#xc6;" horiz-adv-x="1852" d="M73 173l560 1122q35 71 71 100t87 29h831q62 0 88 -14q44 -25 44 -82t-44 -82q-26 -14 -88 -14h-572v-418h470q62 0 88 -14q44 -25 44 -82t-44 -82q-26 -14 -88 -14h-470v-430h572q62 0 88 -14q44 -25 44 -82t-44 -82q-26 -14 -88 -14h-656q-70 0 -101 31t-31 101v193 h-458l-121 -243q-29 -58 -53 -75q-22 -15 -49 -15t-51 12q-54 27 -56 80q-1 33 27 89zM834 1243l-366 -735h366v735z" />
<glyph unicode="&#xc7;" horiz-adv-x="1253" d="M135 712q0 107 1.5 164t9 127t22.5 113t42 88.5t68 86.5q145 145 367 145q129 0 216.5 -36.5t156.5 -110.5q55 -59 82 -122t27 -107q0 -52 -29 -81q-32 -30 -75 -30q-38 0 -64 21q-27 21 -53 81q-41 95 -104.5 144t-160.5 49q-122 0 -205 -89q-54 -59 -69.5 -145 t-15.5 -298t15.5 -298t69.5 -145q83 -89 205 -89q97 0 160.5 49t104.5 144q26 60 53 81q26 21 64 21q43 0 75 -30q29 -29 29 -81q0 -44 -27 -107t-82 -122q-69 -74 -156.5 -110.5t-216.5 -36.5q-222 0 -367 145q-41 41 -68 86.5t-42 88.5t-22.5 113t-9 127t-1.5 164z M487 -478q-47 29 -44 77q1 26 32 74l93 149q28 44 44 55q22 16 47 16t49 -15q46 -30 43 -77q-1 -25 -31 -74l-93 -149q-27 -43 -44 -56q-23 -15 -47 -15q-27 0 -49 15z" />
<glyph unicode="&#xc8;" horiz-adv-x="1203" d="M401 1232v-418h470q62 0 88 -14q44 -25 44 -82t-44 -82q-26 -14 -88 -14h-470v-430h572q62 0 88 -14q44 -25 44 -82t-44 -82q-26 -14 -88 -14h-656q-70 0 -101 31t-31 101v1160q0 70 31 101t101 31h656q62 0 88 -14q44 -25 44 -82t-44 -82q-26 -14 -88 -14h-572z M519 1611l-93 149q-30 49 -31 74q-3 47 43 77q24 15 49 15t47 -16q17 -12 44 -55l93 -149q30 -49 31 -74q3 -47 -43 -77q-24 -15 -49 -15t-47 16q-17 12 -44 55z" />
<glyph unicode="&#xc9;" horiz-adv-x="1203" d="M401 1232v-418h470q62 0 88 -14q44 -25 44 -82t-44 -82q-26 -14 -88 -14h-470v-430h572q62 0 88 -14q44 -25 44 -82t-44 -82q-26 -14 -88 -14h-656q-70 0 -101 31t-31 101v1160q0 70 31 101t101 31h656q62 0 88 -14q44 -25 44 -82t-44 -82q-26 -14 -88 -14h-572z M830 1760l-93 -149q-27 -43 -44 -55q-22 -16 -47 -16t-49 15q-46 30 -43 77q1 25 31 74l93 149q27 43 44 55q22 16 47 16t49 -15q46 -30 43 -77q-1 -25 -31 -74z" />
<glyph unicode="&#xca;" horiz-adv-x="1203" d="M401 1232v-418h470q62 0 88 -14q44 -25 44 -82t-44 -82q-26 -14 -88 -14h-470v-430h572q62 0 88 -14q44 -25 44 -82t-44 -82q-26 -14 -88 -14h-656q-70 0 -101 31t-31 101v1160q0 70 31 101t101 31h656q62 0 88 -14q44 -25 44 -82t-44 -82q-26 -14 -88 -14h-572z M628 1913q40 0 88 -48l166 -166q37 -37 43 -61q13 -42 -22 -77q-36 -34 -76 -22q-26 7 -62 43l-137 138l-137 -138q-36 -36 -62 -43q-40 -12 -76 22q-35 35 -22 77q6 24 43 61l166 166q48 48 88 48z" />
<glyph unicode="&#xcb;" horiz-adv-x="1203" d="M401 1232v-418h470q62 0 88 -14q44 -25 44 -82t-44 -82q-26 -14 -88 -14h-470v-430h572q62 0 88 -14q44 -25 44 -82t-44 -82q-26 -14 -88 -14h-656q-70 0 -101 31t-31 101v1160q0 70 31 101t101 31h656q62 0 88 -14q44 -25 44 -82t-44 -82q-26 -14 -88 -14h-572z M960 1678q0 -47 -33 -80.5t-79 -33.5t-80 34t-34 80t33.5 79t80.5 33q46 0 79 -33t33 -79zM522 1678q0 -46 -34 -80t-80 -34t-79 33.5t-33 80.5q0 46 33 79t79 33q47 0 80.5 -33t33.5 -79z" />
<glyph unicode="&#xcc;" horiz-adv-x="586" d="M401 139q0 -42 -2.5 -60t-13.5 -38q-27 -49 -92 -49t-92 49q-11 20 -13.5 38t-2.5 60v1146q0 42 2.5 60t13.5 38q27 49 92 49t92 -49q11 -20 13.5 -38t2.5 -60v-1146zM185 1611l-93 149q-30 49 -31 74q-3 47 43 77q24 15 49 15t47 -16q17 -12 44 -55l93 -149 q30 -49 31 -74q3 -47 -43 -77q-24 -15 -49 -15t-47 16q-17 12 -44 55z" />
<glyph unicode="&#xcd;" horiz-adv-x="586" d="M401 139q0 -42 -2.5 -60t-13.5 -38q-27 -49 -92 -49t-92 49q-11 20 -13.5 38t-2.5 60v1146q0 42 2.5 60t13.5 38q27 49 92 49t92 -49q11 -20 13.5 -38t2.5 -60v-1146zM496 1760l-93 -149q-27 -43 -44 -55q-22 -16 -47 -16t-49 15q-46 30 -43 77q1 25 31 74l93 149 q27 43 44 55q22 16 47 16t49 -15q46 -30 43 -77q-1 -25 -31 -74z" />
<glyph unicode="&#xce;" horiz-adv-x="586" d="M401 139q0 -42 -2.5 -60t-13.5 -38q-27 -49 -92 -49t-92 49q-11 20 -13.5 38t-2.5 60v1146q0 42 2.5 60t13.5 38q27 49 92 49t92 -49q11 -20 13.5 -38t2.5 -60v-1146zM294 1913q40 0 88 -48l166 -166q37 -37 43 -61q13 -42 -22 -77q-36 -34 -76 -22q-26 7 -62 43 l-137 138l-137 -138q-36 -36 -62 -43q-40 -12 -76 22q-35 35 -22 77q6 24 43 61l166 166q48 48 88 48z" />
<glyph unicode="&#xcf;" horiz-adv-x="586" d="M606 1688q0 -47 -33 -80.5t-79 -33.5t-80 34t-34 80t33.5 79t80.5 33q46 0 79 -33t33 -79zM210 1688q0 -46 -34 -80t-80 -34t-79 33.5t-33 80.5q0 46 33 79t79 33q47 0 80.5 -33t33.5 -79zM401 139q0 -42 -2.5 -60t-13.5 -38q-27 -49 -92 -49t-92 49q-11 20 -13.5 38 t-2.5 60v1146q0 42 2.5 60t13.5 38q27 49 92 49t92 -49q11 -20 13.5 -38t2.5 -60v-1146z" />
<glyph unicode="&#xd0;" horiz-adv-x="1372" d="M165 632q-56 0 -78 13q-39 23 -39 73t39 73q22 13 78 13h60v488q0 70 31 101t101 31h369q262 0 406 -181q69 -88 87 -199.5t18 -331.5q0 -217 -19 -330.5t-88 -202.5q-139 -179 -404 -179h-369q-70 0 -101 31t-31 101v500h-60zM441 1232v-428h180q57 0 79 -13 q39 -23 39 -73t-39 -73q-22 -13 -79 -13h-180v-440h260q161 0 245 97q49 55 62 147t13 276t-13 276t-62 147q-84 97 -245 97h-260z" />
<glyph unicode="&#xd1;" horiz-adv-x="1443" d="M401 1000v-861q0 -42 -2.5 -60t-13.5 -38q-27 -49 -92 -49t-92 49q-11 20 -13.5 38t-2.5 60v1155q0 73 31 104q34 34 82 34q37 0 64.5 -22t61.5 -73l618 -913v861q0 42 2.5 60t13.5 38q27 49 92 49t92 -49q11 -20 13.5 -38t2.5 -60v-1156q0 -72 -31 -103q-34 -34 -82 -34 q-37 0 -64.5 22t-61.5 73zM702 1619q-66 37 -107 37q-46 0 -88 -34q-33 -26 -59 -26q-34 0 -54 23q-17 20 -17 52q0 38 46 77q75 62 167 62q43 0 74.5 -10t75.5 -35q66 -37 107 -37q46 0 88 34q33 26 59 26q34 0 54 -23q17 -20 17 -52q0 -38 -46 -77q-75 -62 -167 -62 q-43 0 -74.5 10t-75.5 35z" />
<glyph unicode="&#xd2;" horiz-adv-x="1294" d="M278 133q-41 41 -68 86.5t-42 88.5t-22.5 113t-9 127t-1.5 164t1.5 164t9 127t22.5 113t42 88.5t68 86.5q145 145 369 145q223 0 368 -145q41 -41 68 -86.5t42.5 -89t23 -112.5t9 -127t1.5 -164t-1.5 -164t-9 -127t-23 -112.5t-42.5 -89t-68 -86.5q-145 -145 -368 -145 q-224 0 -369 145zM435 270q84 -90 212 -90q127 0 212 90q52 56 68 142t16 300t-16 300.5t-68 142.5q-84 89 -212 89q-129 0 -212 -89q-52 -55 -68 -141.5t-16 -301.5t16 -301t68 -141zM537 1611l-93 149q-30 49 -31 74q-3 47 43 77q24 15 49 15t47 -16q17 -12 44 -55 l93 -149q30 -49 31 -74q3 -47 -43 -77q-24 -15 -49 -15t-47 16q-17 12 -44 55z" />
<glyph unicode="&#xd3;" horiz-adv-x="1294" d="M278 133q-41 41 -68 86.5t-42 88.5t-22.5 113t-9 127t-1.5 164t1.5 164t9 127t22.5 113t42 88.5t68 86.5q145 145 369 145q223 0 368 -145q41 -41 68 -86.5t42.5 -89t23 -112.5t9 -127t1.5 -164t-1.5 -164t-9 -127t-23 -112.5t-42.5 -89t-68 -86.5q-145 -145 -368 -145 q-224 0 -369 145zM435 270q84 -90 212 -90q127 0 212 90q52 56 68 142t16 300t-16 300.5t-68 142.5q-84 89 -212 89q-129 0 -212 -89q-52 -55 -68 -141.5t-16 -301.5t16 -301t68 -141zM848 1760l-93 -149q-27 -43 -44 -55q-22 -16 -47 -16t-49 15q-46 30 -43 77q1 25 31 74 l93 149q27 43 44 55q22 16 47 16t49 -15q46 -30 43 -77q-1 -25 -31 -74z" />
<glyph unicode="&#xd4;" horiz-adv-x="1294" d="M278 133q-41 41 -68 86.5t-42 88.5t-22.5 113t-9 127t-1.5 164t1.5 164t9 127t22.5 113t42 88.5t68 86.5q145 145 369 145q223 0 368 -145q41 -41 68 -86.5t42.5 -89t23 -112.5t9 -127t1.5 -164t-1.5 -164t-9 -127t-23 -112.5t-42.5 -89t-68 -86.5q-145 -145 -368 -145 q-224 0 -369 145zM435 270q84 -90 212 -90q127 0 212 90q52 56 68 142t16 300t-16 300.5t-68 142.5q-84 89 -212 89q-129 0 -212 -89q-52 -55 -68 -141.5t-16 -301.5t16 -301t68 -141zM646 1913q40 0 88 -48l166 -166q37 -37 43 -61q13 -42 -22 -77q-36 -34 -76 -22 q-26 7 -62 43l-137 138l-137 -138q-36 -36 -62 -43q-40 -12 -76 22q-35 35 -22 77q6 24 43 61l166 166q48 48 88 48z" />
<glyph unicode="&#xd5;" horiz-adv-x="1294" d="M278 133q-41 41 -68 86.5t-42 88.5t-22.5 113t-9 127t-1.5 164t1.5 164t9 127t22.5 113t42 88.5t68 86.5q145 145 369 145q223 0 368 -145q41 -41 68 -86.5t42.5 -89t23 -112.5t9 -127t1.5 -164t-1.5 -164t-9 -127t-23 -112.5t-42.5 -89t-68 -86.5q-145 -145 -368 -145 q-224 0 -369 145zM435 270q84 -90 212 -90q127 0 212 90q52 56 68 142t16 300t-16 300.5t-68 142.5q-84 89 -212 89q-129 0 -212 -89q-52 -55 -68 -141.5t-16 -301.5t16 -301t68 -141zM627 1619q-66 37 -107 37q-46 0 -88 -34q-33 -26 -59 -26q-34 0 -54 23q-17 20 -17 52 q0 38 46 77q75 62 167 62q43 0 74.5 -10t75.5 -35q66 -37 107 -37q46 0 88 34q32 26 59 26q34 0 54 -23q17 -20 17 -52q0 -38 -46 -77q-75 -62 -167 -62q-43 0 -74.5 10t-75.5 35z" />
<glyph unicode="&#xd6;" horiz-adv-x="1294" d="M278 133q-41 41 -68 86.5t-42 88.5t-22.5 113t-9 127t-1.5 164t1.5 164t9 127t22.5 113t42 88.5t68 86.5q145 145 369 145q223 0 368 -145q41 -41 68 -86.5t42.5 -89t23 -112.5t9 -127t1.5 -164t-1.5 -164t-9 -127t-23 -112.5t-42.5 -89t-68 -86.5q-145 -145 -368 -145 q-224 0 -369 145zM435 270q84 -90 212 -90q127 0 212 90q52 56 68 142t16 300t-16 300.5t-68 142.5q-84 89 -212 89q-129 0 -212 -89q-52 -55 -68 -141.5t-16 -301.5t16 -301t68 -141zM978 1678q0 -47 -33 -80.5t-79 -33.5t-80 34t-34 80t33.5 79t80.5 33q46 0 79 -33 t33 -79zM540 1678q0 -46 -34 -80t-80 -34t-79 33.5t-33 80.5q0 46 33 79t79 33q47 0 80.5 -33t33.5 -79z" />
<glyph unicode="&#xd7;" horiz-adv-x="1066" d="M398 555l-194 193q-43 43 -51 72q-13 48 26 87q40 40 89 27q16 -4 30.5 -14.5t40.5 -36.5l194 -193l194 193q43 43 71 51q49 13 89 -27q39 -39 26 -87q-8 -29 -51 -72l-194 -193l194 -194q43 -43 51 -72q13 -48 -26 -87q-40 -40 -89 -27q-28 7 -71 51l-194 194l-194 -194 q-43 -44 -71 -51q-49 -13 -89 27q-39 39 -26 87q8 29 51 72z" />
<glyph unicode="&#xd8;" horiz-adv-x="1294" d="M1054 1370l-39 -79q41 -41 68 -86.5t42.5 -89t23 -112.5t9 -127t1.5 -164t-1.5 -164t-9 -127t-23 -112.5t-42.5 -89t-68 -86.5q-145 -145 -368 -145q-129 0 -230 51l-29 -60q-24 -48 -47 -63q-36 -24 -80 -2q-45 22 -45 69q0 25 23 71l40 79q-41 41 -68 86.5t-42.5 89 t-23 112.5t-9 127t-1.5 164q0 107 1.5 164t9 127t22.5 113t42 88.5t68 86.5q145 145 369 145q122 0 228 -50l30 59q24 48 47 63q36 24 80 2q45 -22 45 -69q0 -25 -23 -71zM351 712q0 -159 9 -232.5t43 -126.5l403 846q-70 45 -159 45q-129 0 -212 -89q-52 -55 -68 -141.5 t-16 -301.5zM487 226q71 -46 160 -46q127 0 212 90q52 56 68 142t16 300q0 157 -9.5 231.5t-43.5 126.5z" />
<glyph unicode="&#xd9;" horiz-adv-x="1346" d="M673 -12q-220 0 -365 137t-145 355v805q0 42 2.5 60t13.5 38q27 49 92 49t92 -49q11 -20 13.5 -38t2.5 -60v-795q0 -143 80 -226.5t214 -83.5t214 83.5t80 226.5v795q0 42 2.5 60t13.5 38q27 49 92 49t92 -49q11 -20 13.5 -38t2.5 -60v-805q0 -218 -145 -355t-365 -137z M564 1611l-93 149q-30 49 -31 74q-3 47 43 77q24 15 49 15t47 -16q17 -12 44 -55l93 -149q30 -49 31 -74q3 -47 -43 -77q-24 -15 -49 -15t-47 16q-17 12 -44 55z" />
<glyph unicode="&#xda;" horiz-adv-x="1346" d="M673 -12q-220 0 -365 137t-145 355v805q0 42 2.5 60t13.5 38q27 49 92 49t92 -49q11 -20 13.5 -38t2.5 -60v-795q0 -143 80 -226.5t214 -83.5t214 83.5t80 226.5v795q0 42 2.5 60t13.5 38q27 49 92 49t92 -49q11 -20 13.5 -38t2.5 -60v-805q0 -218 -145 -355t-365 -137z M875 1760l-93 -149q-27 -43 -44 -55q-22 -16 -47 -16t-49 15q-46 30 -43 77q1 25 31 74l93 149q27 43 44 55q22 16 47 16t49 -15q46 -30 43 -77q-1 -25 -31 -74z" />
<glyph unicode="&#xdb;" horiz-adv-x="1346" d="M673 -12q-220 0 -365 137t-145 355v805q0 42 2.5 60t13.5 38q27 49 92 49t92 -49q11 -20 13.5 -38t2.5 -60v-795q0 -143 80 -226.5t214 -83.5t214 83.5t80 226.5v795q0 42 2.5 60t13.5 38q27 49 92 49t92 -49q11 -20 13.5 -38t2.5 -60v-805q0 -218 -145 -355t-365 -137z M673 1913q40 0 88 -48l166 -166q37 -37 43 -61q13 -42 -22 -77q-36 -34 -76 -22q-26 7 -62 43l-137 138l-137 -138q-36 -36 -62 -43q-40 -12 -76 22q-35 35 -22 77q6 24 43 61l166 166q48 48 88 48z" />
<glyph unicode="&#xdc;" horiz-adv-x="1346" d="M673 -12q-220 0 -365 137t-145 355v805q0 42 2.5 60t13.5 38q27 49 92 49t92 -49q11 -20 13.5 -38t2.5 -60v-795q0 -143 80 -226.5t214 -83.5t214 83.5t80 226.5v795q0 42 2.5 60t13.5 38q27 49 92 49t92 -49q11 -20 13.5 -38t2.5 -60v-805q0 -218 -145 -355t-365 -137z M1005 1678q0 -47 -33 -80.5t-79 -33.5q-47 0 -80.5 34t-33.5 80t33.5 79t80.5 33t79.5 -33t32.5 -79zM567 1678q0 -46 -33.5 -80t-80.5 -34q-46 0 -79 33.5t-33 80.5q0 46 32.5 79t79.5 33t80.5 -33t33.5 -79z" />
<glyph unicode="&#xdd;" horiz-adv-x="1046" d="M44 1340q2 53 56 80q24 12 51 12q26 0 49 -15q24 -17 53 -75l270 -541l270 541q29 58 53 75q22 15 49 15t51 -12q54 -27 56 -80q1 -33 -27 -89l-344 -684v-428q0 -42 -2.5 -60t-13.5 -38q-27 -49 -92 -49t-92 49q-11 20 -13.5 38t-2.5 60v428l-344 684q-28 57 -27 89z M724 1760l-93 -149q-27 -43 -44 -55q-22 -16 -47 -16t-49 15q-46 30 -43 77q1 25 31 74l93 149q27 43 44 55q22 16 47 16t49 -15q46 -30 43 -77q-1 -25 -31 -74z" />
<glyph unicode="&#xde;" horiz-adv-x="1274" d="M401 1150h324q206 0 331 -121.5t125 -310.5t-125 -309.5t-331 -120.5h-324v-149q0 -42 -2.5 -60t-13.5 -38q-27 -49 -92 -49t-92 49q-11 20 -13.5 38t-2.5 60v1146q0 42 2.5 60t13.5 38q27 49 92 49t92 -49q11 -20 13.5 -38t2.5 -60v-135zM966 719q0 112 -68.5 175.5 t-184.5 63.5h-312v-478h312q116 0 184.5 63.5t68.5 175.5z" />
<glyph unicode="&#xdf;" horiz-adv-x="1128" d="M669 778q-50 1 -71 13q-36 20 -36 66t36 66q21 12 71 13q57 2 92 40.5t35 107.5q0 75 -50 123q-52 51 -164 51q-115 0 -165.5 -58.5t-50.5 -167.5v-901q0 -61 -15 -91q-25 -48 -87 -48t-87 48q-15 30 -15 91v913q0 194 115 294t311 100q119 0 210 -35.5t146.5 -114.5 t55.5 -193q0 -153 -124 -232q66 -35 95 -85.5t29 -143.5v-343q0 -135 -80 -212q-82 -79 -211 -79h-20q-57 0 -86 16q-41 22 -41 71q0 50 41 72q22 12 74 14q57 2 86 34q33 34 33 105v334q0 67 -34 101q-29 29 -93 31z" />
<glyph unicode="&#xe0;" horiz-adv-x="1060" d="M83 298q0 132 91.5 213t259.5 81h269v63q0 101 -50.5 149.5t-161.5 48.5q-105 0 -194 -68q-35 -27 -74 -27q-37 0 -59 27q-24 27 -24 63q0 62 95 117q106 61 258 61q204 0 309.5 -88.5t105.5 -260.5v-546q0 -65 -15 -92q-25 -47 -87 -47q-47 0 -74 29q-21 24 -23 73 q-60 -59 -119.5 -82t-152.5 -23q-184 0 -273 92q-81 83 -81 217zM282 301q0 -143 191 -143q62 0 105.5 11.5t79.5 46.5q45 42 45 151v80h-240q-89 0 -135 -37.5t-46 -108.5zM403 1250l-93 149q-30 49 -31 74q-3 47 43 77q24 15 49 15t47 -16q17 -12 44 -55l93 -149 q30 -49 31 -74q3 -47 -43 -77q-24 -15 -49 -15t-47 16q-17 12 -44 55z" />
<glyph unicode="&#xe1;" horiz-adv-x="1060" d="M83 298q0 132 91.5 213t259.5 81h269v63q0 101 -50.5 149.5t-161.5 48.5q-105 0 -194 -68q-35 -27 -74 -27q-37 0 -59 27q-24 27 -24 63q0 62 95 117q106 61 258 61q204 0 309.5 -88.5t105.5 -260.5v-546q0 -65 -15 -92q-25 -47 -87 -47q-47 0 -74 29q-21 24 -23 73 q-60 -59 -119.5 -82t-152.5 -23q-184 0 -273 92q-81 83 -81 217zM282 301q0 -143 191 -143q62 0 105.5 11.5t79.5 46.5q45 42 45 151v80h-240q-89 0 -135 -37.5t-46 -108.5zM716 1399l-93 -149q-27 -43 -44 -55q-22 -16 -47 -16t-49 15q-46 30 -43 77q1 25 31 74l93 149 q27 43 44 55q22 16 47 16t49 -15q46 -30 43 -77q-1 -25 -31 -74z" />
<glyph unicode="&#xe2;" horiz-adv-x="1060" d="M83 298q0 132 91.5 213t259.5 81h269v63q0 101 -50.5 149.5t-161.5 48.5q-105 0 -194 -68q-35 -27 -74 -27q-37 0 -59 27q-24 27 -24 63q0 62 95 117q106 61 258 61q204 0 309.5 -88.5t105.5 -260.5v-546q0 -65 -15 -92q-25 -47 -87 -47q-47 0 -74 29q-21 24 -23 73 q-60 -59 -119.5 -82t-152.5 -23q-184 0 -273 92q-81 83 -81 217zM282 301q0 -143 191 -143q62 0 105.5 11.5t79.5 46.5q45 42 45 151v80h-240q-89 0 -135 -37.5t-46 -108.5zM513 1548q40 0 88 -48l166 -166q37 -37 43 -61q13 -42 -22 -77q-36 -34 -76 -22q-26 7 -62 43 l-137 138l-137 -138q-36 -36 -62 -43q-40 -12 -76 22q-35 35 -22 77q6 24 43 61l166 166q48 48 88 48z" />
<glyph unicode="&#xe3;" horiz-adv-x="1060" d="M83 298q0 132 91.5 213t259.5 81h269v63q0 101 -50.5 149.5t-161.5 48.5q-105 0 -194 -68q-35 -27 -74 -27q-37 0 -59 27q-24 27 -24 63q0 62 95 117q106 61 258 61q204 0 309.5 -88.5t105.5 -260.5v-546q0 -65 -15 -92q-25 -47 -87 -47q-47 0 -74 29q-21 24 -23 73 q-60 -59 -119.5 -82t-152.5 -23q-184 0 -273 92q-81 83 -81 217zM282 301q0 -143 191 -143q62 0 105.5 11.5t79.5 46.5q45 42 45 151v80h-240q-89 0 -135 -37.5t-46 -108.5zM494 1261q-66 37 -107 37q-46 0 -88 -34q-32 -26 -59 -26q-34 0 -54 23q-17 20 -17 52q0 38 46 77 q75 62 167 62q43 0 74.5 -10t75.5 -35q66 -37 107 -37q46 0 88 34q33 26 59 26q34 0 54 -23q17 -20 17 -52q0 -38 -46 -77q-75 -62 -167 -62q-43 0 -74.5 10t-75.5 35z" />
<glyph unicode="&#xe4;" horiz-adv-x="1060" d="M83 298q0 132 91.5 213t259.5 81h269v63q0 101 -50.5 149.5t-161.5 48.5q-105 0 -194 -68q-35 -27 -74 -27q-37 0 -59 27q-24 27 -24 63q0 62 95 117q106 61 258 61q204 0 309.5 -88.5t105.5 -260.5v-546q0 -65 -15 -92q-25 -47 -87 -47q-47 0 -74 29q-21 24 -23 73 q-60 -59 -119.5 -82t-152.5 -23q-184 0 -273 92q-81 83 -81 217zM282 301q0 -143 191 -143q62 0 105.5 11.5t79.5 46.5q45 42 45 151v80h-240q-89 0 -135 -37.5t-46 -108.5zM847 1314q0 -47 -33 -80.5t-79 -33.5q-47 0 -80.5 34t-33.5 80t33.5 79t80.5 33t79.5 -33t32.5 -79 zM407 1314q0 -46 -33.5 -80t-80.5 -34q-46 0 -79 33.5t-33 80.5q0 46 32.5 79t79.5 33t80.5 -33t33.5 -79z" />
<glyph unicode="&#xe5;" horiz-adv-x="1060" d="M83 298q0 132 91.5 213t259.5 81h269v63q0 101 -50.5 149.5t-161.5 48.5q-105 0 -194 -68q-35 -27 -74 -27q-37 0 -59 27q-24 27 -24 63q0 62 95 117q106 61 258 61q204 0 309.5 -88.5t105.5 -260.5v-546q0 -65 -15 -92q-25 -47 -87 -47q-47 0 -74 29q-21 24 -23 73 q-60 -59 -119.5 -82t-152.5 -23q-184 0 -273 92q-81 83 -81 217zM282 301q0 -143 191 -143q62 0 105.5 11.5t79.5 46.5q45 42 45 151v80h-240q-89 0 -135 -37.5t-46 -108.5zM263 1402q0 104 73.5 177t176.5 73t176.5 -73t73.5 -177t-73.5 -177t-176.5 -73t-176.5 73 t-73.5 177zM386 1402q0 -52 37 -89.5t90 -37.5t90 37.5t37 89.5t-37 89.5t-90 37.5t-90 -37.5t-37 -89.5z" />
<glyph unicode="&#xe6;" horiz-adv-x="1668" d="M282 301q0 -143 191 -143q62 0 105.5 11.5t79.5 46.5q45 42 45 151v80h-240q-89 0 -135 -37.5t-46 -108.5zM1361 590q-6 89 -28 138q-26 59 -78 93.5t-122 34.5q-71 0 -123.5 -34.5t-78.5 -93.5q-23 -51 -26 -138h456zM1133 1027q195 -1 309.5 -129t119.5 -333 q2 -61 -28 -91q-26 -26 -90 -26h-539q0 -132 67.5 -209t192.5 -77q115 0 195 64q46 37 83 37q31 0 57.5 -26.5t26.5 -60.5q0 -58 -102 -123q-99 -65 -265 -65q-244 0 -361 157q-73 -90 -155.5 -123t-206.5 -33q-184 0 -273 92q-81 83 -81 217q0 132 91.5 213t259.5 81h269 v63q0 101 -50.5 149.5t-161.5 48.5q-105 0 -194 -68q-35 -27 -74 -27q-37 0 -59 27q-24 27 -24 63q0 62 95 117q107 62 258 62q243 0 339 -133q109 133 301 133z" />
<glyph unicode="&#xe7;" horiz-adv-x="969" d="M110 507q0 137 37.5 240.5t102 162.5t142.5 87.5t168 28.5q123 0 222 -64q48 -31 73.5 -59t25.5 -63q0 -36 -29 -67q-26 -26 -63 -26q-34 0 -81 39q-70 56 -148 56q-119 0 -185 -87q-61 -80 -61 -248t61 -247q66 -88 185 -88q75 0 148 57q49 39 81 39q36 0 63 -27 q29 -31 29 -67q0 -35 -26.5 -63.5t-72.5 -58.5q-100 -64 -222 -64q-90 0 -168 28.5t-142.5 87.5t-102 162.5t-37.5 240.5zM375 -478q-47 29 -44 77q1 26 32 74l93 149q28 44 44 55q22 16 47 16t49 -15q46 -30 43 -77q-1 -25 -31 -74l-93 -149q-27 -43 -44 -56 q-23 -15 -47 -15q-26 0 -49 15z" />
<glyph unicode="&#xe8;" horiz-adv-x="1075" d="M110 507q0 247 116 383t314 136q195 0 309.5 -128t119.5 -333q2 -61 -28 -91q-26 -26 -90 -26h-539q0 -132 67.5 -209t192.5 -77q115 0 195 64q46 37 83 37q32 0 58 -26.5t26 -60.5q0 -58 -102 -123q-99 -65 -265 -65q-99 0 -179 27.5t-144 86.5t-99 162t-35 243z M768 590q-6 89 -28 138q-26 59 -78 93.5t-122 34.5q-71 0 -123.5 -34.5t-78.5 -93.5q-23 -51 -26 -138h456zM432 1250l-93 149q-30 49 -31 74q-3 47 43 77q24 15 49 15t47 -16q17 -12 44 -55l93 -149q30 -49 31 -74q3 -47 -43 -77q-24 -15 -49 -15t-47 16q-17 12 -44 55z " />
<glyph unicode="&#xe9;" horiz-adv-x="1075" d="M110 507q0 247 116 383t314 136q195 0 309.5 -128t119.5 -333q2 -61 -28 -91q-26 -26 -90 -26h-539q0 -132 67.5 -209t192.5 -77q115 0 195 64q46 37 83 37q32 0 58 -26.5t26 -60.5q0 -58 -102 -123q-99 -65 -265 -65q-99 0 -179 27.5t-144 86.5t-99 162t-35 243z M768 590q-6 89 -28 138q-26 59 -78 93.5t-122 34.5q-71 0 -123.5 -34.5t-78.5 -93.5q-23 -51 -26 -138h456zM745 1399l-93 -149q-27 -43 -44 -55q-22 -16 -47 -16t-49 15q-46 30 -43 77q1 25 31 74l93 149q27 43 44 55q22 16 47 16t49 -15q46 -30 43 -77q-1 -25 -31 -74z " />
<glyph unicode="&#xea;" horiz-adv-x="1075" d="M110 507q0 247 116 383t314 136q195 0 309.5 -128t119.5 -333q2 -61 -28 -91q-26 -26 -90 -26h-539q0 -132 67.5 -209t192.5 -77q115 0 195 64q46 37 83 37q32 0 58 -26.5t26 -60.5q0 -58 -102 -123q-99 -65 -265 -65q-99 0 -179 27.5t-144 86.5t-99 162t-35 243z M768 590q-6 89 -28 138q-26 59 -78 93.5t-122 34.5q-71 0 -123.5 -34.5t-78.5 -93.5q-23 -51 -26 -138h456zM542 1548q40 0 88 -48l166 -166q37 -37 43 -61q13 -42 -22 -77q-36 -34 -76 -22q-26 7 -62 43l-137 138l-137 -138q-36 -36 -62 -43q-40 -12 -76 22q-35 35 -22 77 q6 24 43 61l166 166q48 48 88 48z" />
<glyph unicode="&#xeb;" horiz-adv-x="1075" d="M110 507q0 247 116 383t314 136q195 0 309.5 -128t119.5 -333q2 -61 -28 -91q-26 -26 -90 -26h-539q0 -132 67.5 -209t192.5 -77q115 0 195 64q46 37 83 37q32 0 58 -26.5t26 -60.5q0 -58 -102 -123q-99 -65 -265 -65q-99 0 -179 27.5t-144 86.5t-99 162t-35 243z M768 590q-6 89 -28 138q-26 59 -78 93.5t-122 34.5q-71 0 -123.5 -34.5t-78.5 -93.5q-23 -51 -26 -138h456zM876 1314q0 -47 -33 -80.5t-79 -33.5t-80 34t-34 80t33.5 79t80.5 33q46 0 79 -33t33 -79zM436 1314q0 -46 -34 -80t-80 -34t-79 33.5t-33 80.5q0 46 33 79t79 33 q47 0 80.5 -33t33.5 -79z" />
<glyph unicode="&#xec;" horiz-adv-x="528" d="M366 131q0 -61 -15 -91q-25 -48 -87 -48t-87 48q-15 30 -15 91v752q0 61 15 91q25 48 87 48t87 -48q15 -30 15 -91v-752zM155 1250l-93 149q-30 49 -31 74q-3 47 43 77q24 15 49 15t47 -16q17 -12 44 -55l93 -149q30 -49 31 -74q3 -47 -43 -77q-24 -15 -49 -15t-47 16 q-17 12 -44 55z" />
<glyph unicode="&#xed;" horiz-adv-x="528" d="M366 131q0 -61 -15 -91q-25 -48 -87 -48t-87 48q-15 30 -15 91v752q0 61 15 91q25 48 87 48t87 -48q15 -30 15 -91v-752zM468 1399l-93 -149q-27 -43 -44 -55q-22 -16 -47 -16t-49 15q-46 30 -43 77q1 25 31 74l93 149q27 43 44 55q22 16 47 16t49 -15q46 -30 43 -77 q-1 -25 -31 -74z" />
<glyph unicode="&#xee;" horiz-adv-x="528" d="M366 131q0 -61 -15 -91q-25 -48 -87 -48t-87 48q-15 30 -15 91v752q0 61 15 91q25 48 87 48t87 -48q15 -30 15 -91v-752zM265 1548q40 0 88 -48l166 -166q37 -37 43 -61q13 -42 -22 -77q-36 -34 -76 -22q-26 7 -62 43l-137 138l-137 -138q-36 -36 -62 -43q-40 -12 -76 22 q-35 35 -22 77q6 24 43 61l166 166q48 48 88 48z" />
<glyph unicode="&#xef;" horiz-adv-x="528" d="M573 1314q0 -47 -33 -80.5t-79 -33.5q-47 0 -80.5 34t-33.5 80t33.5 79t80.5 33t79.5 -33t32.5 -79zM181 1314q0 -46 -33.5 -80t-80.5 -34q-46 0 -79 33.5t-33 80.5q0 46 32.5 79t79.5 33t80.5 -33t33.5 -79zM366 131q0 -61 -15 -91q-25 -48 -87 -48t-87 48 q-15 30 -15 91v752q0 61 15 91q25 48 87 48t87 -48q15 -30 15 -91v-752z" />
<glyph unicode="&#xf0;" horiz-adv-x="1074" d="M952 498q0 -138 -24 -228t-94 -164q-111 -118 -298 -118q-185 0 -296 118q-70 74 -94 164t-24 228q0 137 25 230t93 162q78 81 208 102q33 6 68 6q41 0 84 -10l-70 139h-161q-52 0 -72 12q-36 20 -36 66q0 47 36 67q20 12 72 12h83q-19 39 -19 68q0 37 29.5 63.5 t66.5 26.5q27 0 48 -15q26 -19 52 -71l36 -72h108q51 0 71 -12q36 -20 36 -67q0 -46 -36 -66q-20 -12 -71 -12h-28l85 -165q74 -145 98 -235.5t24 -228.5zM748 498q0 97 -12.5 162.5t-53.5 107.5q-58 58 -146 58q-86 0 -144 -58q-41 -42 -53.5 -107.5t-12.5 -162.5 q0 -98 12.5 -164t53.5 -108q58 -58 144 -58q88 0 146 58q41 42 53.5 108t12.5 164z" />
<glyph unicode="&#xf1;" horiz-adv-x="1136" d="M366 618v-487q0 -61 -15 -91q-25 -48 -87 -48t-87 48q-15 30 -15 91v751q0 67 18 97q27 43 84 43q55 0 83 -40q16 -23 18 -67q105 111 267 111q155 0 250 -92q102 -99 102 -286v-517q0 -61 -15 -91q-25 -48 -87 -48t-87 48q-15 30 -15 91v487q0 113 -56.5 168.5 t-147.5 55.5q-92 0 -151 -56.5t-59 -167.5zM557 1261q-66 37 -107 37q-46 0 -88 -34q-32 -26 -59 -26q-34 0 -54 23q-17 20 -17 52q0 38 46 77q75 62 167 62q43 0 74.5 -10t75.5 -35q66 -37 107 -37q46 0 88 34q32 26 59 26q34 0 54 -23q17 -20 17 -52q0 -38 -46 -77 q-75 -62 -167 -62q-43 0 -74.5 10t-75.5 35z" />
<glyph unicode="&#xf2;" horiz-adv-x="1074" d="M319 507q0 -99 14 -167t56 -110q57 -58 148 -58t148 58q42 42 56 110t14 167q0 98 -14 166.5t-56 110.5q-57 58 -148 58t-148 -58q-42 -42 -56 -110.5t-14 -166.5zM115 507q0 141 24.5 234t94.5 165q116 120 303 120t303 -120q69 -72 94 -165.5t25 -233.5t-25 -233.5 t-94 -165.5q-116 -120 -303 -120t-303 120q-70 72 -94.5 165t-24.5 234zM428 1250l-93 149q-30 49 -31 74q-3 47 43 77q24 15 49 15t47 -16q17 -12 44 -55l93 -149q30 -49 31 -74q3 -47 -43 -77q-24 -15 -49 -15t-47 16q-17 12 -44 55z" />
<glyph unicode="&#xf3;" horiz-adv-x="1074" d="M319 507q0 -99 14 -167t56 -110q57 -58 148 -58t148 58q42 42 56 110t14 167q0 98 -14 166.5t-56 110.5q-57 58 -148 58t-148 -58q-42 -42 -56 -110.5t-14 -166.5zM115 507q0 141 24.5 234t94.5 165q116 120 303 120t303 -120q69 -72 94 -165.5t25 -233.5t-25 -233.5 t-94 -165.5q-116 -120 -303 -120t-303 120q-70 72 -94.5 165t-24.5 234zM741 1399l-93 -149q-27 -43 -44 -55q-22 -16 -47 -16t-49 15q-46 30 -43 77q1 25 31 74l93 149q27 43 44 55q22 16 47 16t49 -15q46 -30 43 -77q-1 -25 -31 -74z" />
<glyph unicode="&#xf4;" horiz-adv-x="1074" d="M319 507q0 -99 14 -167t56 -110q57 -58 148 -58t148 58q42 42 56 110t14 167q0 98 -14 166.5t-56 110.5q-57 58 -148 58t-148 -58q-42 -42 -56 -110.5t-14 -166.5zM115 507q0 141 24.5 234t94.5 165q116 120 303 120t303 -120q69 -72 94 -165.5t25 -233.5t-25 -233.5 t-94 -165.5q-116 -120 -303 -120t-303 120q-70 72 -94.5 165t-24.5 234zM538 1548q40 0 88 -48l166 -166q37 -37 43 -61q13 -42 -22 -77q-36 -34 -76 -22q-26 7 -62 43l-137 138l-137 -138q-36 -36 -62 -43q-40 -12 -76 22q-35 35 -22 77q6 24 43 61l166 166q48 48 88 48z " />
<glyph unicode="&#xf5;" horiz-adv-x="1074" d="M319 507q0 -99 14 -167t56 -110q57 -58 148 -58t148 58q42 42 56 110t14 167q0 98 -14 166.5t-56 110.5q-57 58 -148 58t-148 -58q-42 -42 -56 -110.5t-14 -166.5zM115 507q0 141 24.5 234t94.5 165q116 120 303 120t303 -120q69 -72 94 -165.5t25 -233.5t-25 -233.5 t-94 -165.5q-116 -120 -303 -120t-303 120q-70 72 -94.5 165t-24.5 234zM519 1261q-66 37 -107 37q-46 0 -88 -34q-32 -26 -59 -26q-34 0 -54 23q-17 20 -17 52q0 38 46 77q75 62 167 62q43 0 74.5 -10t75.5 -35q66 -37 107 -37q46 0 88 34q32 26 59 26q34 0 54 -23 q17 -20 17 -52q0 -38 -46 -77q-75 -62 -167 -62q-43 0 -74.5 10t-75.5 35z" />
<glyph unicode="&#xf6;" horiz-adv-x="1074" d="M319 507q0 -99 14 -167t56 -110q57 -58 148 -58t148 58q42 42 56 110t14 167q0 98 -14 166.5t-56 110.5q-57 58 -148 58t-148 -58q-42 -42 -56 -110.5t-14 -166.5zM115 507q0 141 24.5 234t94.5 165q116 120 303 120t303 -120q69 -72 94 -165.5t25 -233.5t-25 -233.5 t-94 -165.5q-116 -120 -303 -120t-303 120q-70 72 -94.5 165t-24.5 234zM872 1314q0 -47 -33 -80.5t-79 -33.5t-80 34t-34 80t33.5 79t80.5 33q46 0 79 -33t33 -79zM432 1314q0 -46 -34 -80t-80 -34t-79 33.5t-33 80.5q0 46 33 79t79 33q47 0 80.5 -33t33.5 -79z" />
<glyph unicode="&#xf7;" horiz-adv-x="1066" d="M679 169q0 -60 -43 -103t-103 -43t-103 43t-43 103t43 102t103 42t103 -42t43 -102zM679 943q0 -60 -43 -103t-103 -43t-103 43t-43 103t43 102t103 42t103 -42t43 -102zM847 464h-628q-58 0 -83 14q-42 25 -42 78t42 78q23 14 83 14h628q60 0 83 -14q42 -25 42 -78 t-42 -78q-25 -14 -83 -14z" />
<glyph unicode="&#xf8;" horiz-adv-x="1074" d="M221 122q-60 69 -83 157t-23 229q0 138 25.5 232.5t93.5 165.5q116 120 302 120q108 0 198 -45l40 68q28 46 51 55q33 13 64 -6q39 -22 37 -63q-3 -24 -25 -61l-49 -82q61 -69 84 -160.5t23 -223.5q0 -140 -25.5 -234.5t-93.5 -165.5q-116 -120 -304 -120q-108 0 -198 45 l-41 -69q-28 -46 -51 -55q-33 -13 -64 6q-39 23 -36 63q1 23 24 61zM355 300l300 510q-50 32 -118 32q-93 0 -150 -57q-42 -43 -55 -110t-13 -168q0 -147 36 -207zM718 716l-300 -510q53 -34 118 -34q91 0 150 59q42 43 55.5 110.5t13.5 167.5q0 145 -37 207z" />
<glyph unicode="&#xf9;" horiz-adv-x="1136" d="M770 396v487q0 61 15 91q25 48 87 48t87 -48q15 -30 15 -91v-751q0 -67 -18 -97q-27 -43 -84 -43q-55 0 -83 40q-16 23 -18 67q-105 -111 -267 -111q-155 0 -250 92q-102 99 -102 286v517q0 61 15 91q25 48 87 48t87 -48q15 -30 15 -91v-487q0 -113 56.5 -168.5 t147.5 -55.5q92 0 151 56.5t59 167.5zM451 1250l-93 149q-30 49 -31 74q-3 47 43 77q24 15 49 15t47 -16q17 -12 44 -55l93 -149q30 -49 31 -74q3 -47 -43 -77q-24 -15 -49 -15t-47 16q-17 12 -44 55z" />
<glyph unicode="&#xfa;" horiz-adv-x="1136" d="M770 396v487q0 61 15 91q25 48 87 48t87 -48q15 -30 15 -91v-751q0 -67 -18 -97q-27 -43 -84 -43q-55 0 -83 40q-16 23 -18 67q-105 -111 -267 -111q-155 0 -250 92q-102 99 -102 286v517q0 61 15 91q25 48 87 48t87 -48q15 -30 15 -91v-487q0 -113 56.5 -168.5 t147.5 -55.5q92 0 151 56.5t59 167.5zM764 1399l-93 -149q-27 -43 -44 -55q-22 -16 -47 -16t-49 15q-46 30 -43 77q1 25 31 74l93 149q27 43 44 55q22 16 47 16t49 -15q46 -30 43 -77q-1 -25 -31 -74z" />
<glyph unicode="&#xfb;" horiz-adv-x="1136" d="M770 396v487q0 61 15 91q25 48 87 48t87 -48q15 -30 15 -91v-751q0 -67 -18 -97q-27 -43 -84 -43q-55 0 -83 40q-16 23 -18 67q-105 -111 -267 -111q-155 0 -250 92q-102 99 -102 286v517q0 61 15 91q25 48 87 48t87 -48q15 -30 15 -91v-487q0 -113 56.5 -168.5 t147.5 -55.5q92 0 151 56.5t59 167.5zM561 1548q40 0 88 -48l166 -166q37 -37 43 -61q13 -42 -22 -77q-36 -34 -76 -22q-26 7 -62 43l-137 138l-137 -138q-36 -36 -62 -43q-40 -12 -76 22q-35 35 -22 77q6 24 43 61l166 166q48 48 88 48z" />
<glyph unicode="&#xfc;" horiz-adv-x="1136" d="M770 396v487q0 61 15 91q25 48 87 48t87 -48q15 -30 15 -91v-751q0 -67 -18 -97q-27 -43 -84 -43q-55 0 -83 40q-16 23 -18 67q-105 -111 -267 -111q-155 0 -250 92q-102 99 -102 286v517q0 61 15 91q25 48 87 48t87 -48q15 -30 15 -91v-487q0 -113 56.5 -168.5 t147.5 -55.5q92 0 151 56.5t59 167.5zM895 1314q0 -47 -33 -80.5t-79 -33.5q-47 0 -80.5 34t-33.5 80t33.5 79t80.5 33t79.5 -33t32.5 -79zM455 1314q0 -46 -33.5 -80t-80.5 -34q-46 0 -79 33.5t-33 80.5q0 46 32.5 79t79.5 33t80.5 -33t33.5 -79z" />
<glyph unicode="&#xfd;" horiz-adv-x="898" d="M834 863l-369 -1066q-29 -82 -74 -126q-76 -75 -199 -75q-67 0 -94 24q-29 26 -29 69q0 48 31 72q24 19 68 19q48 0 79.5 24t51.5 84l49 149l-284 826q-22 65 -11 98q8 24 35 42.5t60 18.5q42 0 62.5 -24.5t36.5 -73.5l200 -621l204 621q16 49 36.5 73.5t62.5 24.5 q33 0 60 -18.5t35 -42.5q12 -36 -11 -98zM650 1399l-93 -149q-27 -43 -44 -55q-22 -16 -47 -16t-49 15q-46 30 -43 77q1 25 31 74l93 149q27 43 44 55q22 16 47 16t49 -15q46 -30 43 -77q-1 -25 -31 -74z" />
<glyph unicode="&#xfe;" horiz-adv-x="1106" d="M366 103v-381q0 -61 -15 -91q-25 -48 -87 -48t-87 48q-15 30 -15 91v1571q0 61 15 91q25 48 87 48t87 -48q15 -30 15 -91v-381q53 63 116.5 88.5t149.5 25.5q156 0 246 -90q67 -68 89.5 -173.5t22.5 -254.5q0 -150 -22.5 -256t-89.5 -174q-90 -90 -248 -90q-84 0 -147 26 t-117 89zM786 507q0 60 -4 104.5t-17 90.5t-35.5 74.5t-61 47t-92.5 18.5t-93 -18.5t-61 -47t-35 -74.5t-17 -90.5t-4 -104.5t4 -104.5t17 -90.5t35 -74.5t61 -47t93 -18.5t92.5 18.5t61 47t35.5 74.5t17 90.5t4 104.5z" />
<glyph unicode="&#xff;" horiz-adv-x="898" d="M834 863l-369 -1066q-29 -82 -74 -126q-76 -75 -199 -75q-67 0 -94 24q-29 26 -29 69q0 48 31 72q24 19 68 19q48 0 79.5 24t51.5 84l49 149l-284 826q-22 65 -11 98q8 24 35 42.5t60 18.5q42 0 62.5 -24.5t36.5 -73.5l200 -621l204 621q16 49 36.5 73.5t62.5 24.5 q33 0 60 -18.5t35 -42.5q12 -36 -11 -98zM781 1314q0 -47 -33 -80.5t-79 -33.5q-47 0 -80.5 34t-33.5 80t33.5 79t80.5 33t79.5 -33t32.5 -79zM341 1314q0 -46 -33.5 -80t-80.5 -34q-46 0 -79 33.5t-33 80.5q0 46 32.5 79t79.5 33t80.5 -33t33.5 -79z" />
<glyph unicode="&#x100;" horiz-adv-x="1246" d="M851 470l-228 623l-228 -623h456zM918 286h-590l-71 -191q-14 -37 -23 -53.5t-24 -28.5q-26 -21 -59 -21q-49 0 -79 32q-19 20 -24 44.5t-0.5 45t17.5 53.5l436 1161q19 51 43 74q32 30 79 30t79 -30q24 -23 43 -74l436 -1161q13 -33 17.5 -53.5t-0.5 -45t-24 -44.5 q-30 -32 -79 -32q-33 0 -59 21q-15 12 -24 28.5t-23 53.5zM312 1684q0 48 38 69q23 13 74 13h399q52 0 74 -13q38 -21 38 -69t-38 -69q-22 -13 -74 -13h-399q-51 0 -74 13q-38 21 -38 69z" />
<glyph unicode="&#x101;" horiz-adv-x="1060" d="M83 298q0 132 91.5 213t259.5 81h269v63q0 101 -50.5 149.5t-161.5 48.5q-105 0 -194 -68q-35 -27 -74 -27q-37 0 -59 27q-24 27 -24 63q0 62 95 117q106 61 258 61q204 0 309.5 -88.5t105.5 -260.5v-546q0 -65 -15 -92q-25 -47 -87 -47q-47 0 -74 29q-21 24 -23 73 q-60 -59 -119.5 -82t-152.5 -23q-184 0 -273 92q-81 83 -81 217zM282 301q0 -143 191 -143q62 0 105.5 11.5t79.5 46.5q45 42 45 151v80h-240q-89 0 -135 -37.5t-46 -108.5zM823 1319q0 -49 -37 -69q-23 -13 -74 -13h-399q-51 0 -74 13q-38 21 -38 69t38 69q23 13 74 13h399 q51 0 74 -13q37 -20 37 -69z" />
<glyph unicode="&#x102;" horiz-adv-x="1246" d="M851 470l-228 623l-228 -623h456zM918 286h-590l-71 -191q-14 -37 -23 -53.5t-24 -28.5q-26 -21 -59 -21q-49 0 -79 32q-19 20 -24 44.5t-0.5 45t17.5 53.5l436 1161q19 51 43 74q32 30 79 30t79 -30q24 -23 43 -74l436 -1161q13 -33 17.5 -53.5t-0.5 -45t-24 -44.5 q-30 -32 -79 -32q-33 0 -59 21q-15 12 -24 28.5t-23 53.5zM623 1714q81 0 163 72q29 25 54 26q34 2 59 -26q23 -26 21 -56q-1 -37 -45 -75q-111 -102 -252 -102t-252 102q-44 38 -45 75q-2 30 21 56q25 28 59 26q25 -1 54 -26q82 -72 163 -72z" />
<glyph unicode="&#x103;" horiz-adv-x="1060" d="M83 298q0 132 91.5 213t259.5 81h269v63q0 101 -50.5 149.5t-161.5 48.5q-105 0 -194 -68q-35 -27 -74 -27q-37 0 -59 27q-24 27 -24 63q0 62 95 117q106 61 258 61q204 0 309.5 -88.5t105.5 -260.5v-546q0 -65 -15 -92q-25 -47 -87 -47q-47 0 -74 29q-21 24 -23 73 q-60 -59 -119.5 -82t-152.5 -23q-184 0 -273 92q-81 83 -81 217zM282 301q0 -143 191 -143q62 0 105.5 11.5t79.5 46.5q45 42 45 151v80h-240q-89 0 -135 -37.5t-46 -108.5zM513 1349q81 0 163 72q29 25 54 26q34 2 59 -26q23 -26 21 -56q-1 -37 -45 -75 q-111 -102 -252 -102t-252 102q-44 38 -45 75q-2 30 21 56q25 28 59 26q25 -1 54 -26q82 -72 163 -72z" />
<glyph unicode="&#x104;" horiz-adv-x="1246" d="M851 470l-228 623l-228 -623h456zM918 286h-590l-71 -191q-14 -37 -23 -53.5t-24 -28.5q-26 -21 -59 -21q-49 0 -79 32q-19 20 -24 44.5t-0.5 45t17.5 53.5l436 1161q19 51 43 74q32 30 79 30t79 -30q24 -23 43 -74l436 -1161q13 -33 17.5 -53.5t-0.5 -45t-24 -44.5 q-30 -32 -79 -32q-33 0 -59 21q-15 12 -24 28.5t-23 53.5zM929 -478q-47 29 -44 77q1 26 32 74l93 149q28 44 44 55q22 16 47 16t49 -15q46 -30 43 -77q-1 -25 -31 -74l-93 -149q-27 -43 -44 -56q-23 -15 -47 -15q-27 0 -49 15z" />
<glyph unicode="&#x105;" horiz-adv-x="1060" d="M83 298q0 132 91.5 213t259.5 81h269v63q0 101 -50.5 149.5t-161.5 48.5q-105 0 -194 -68q-35 -27 -74 -27q-37 0 -59 27q-24 27 -24 63q0 62 95 117q106 61 258 61q204 0 309.5 -88.5t105.5 -260.5v-546q0 -65 -15 -92q-25 -47 -87 -47q-47 0 -74 29q-21 24 -23 73 q-60 -59 -119.5 -82t-152.5 -23q-184 0 -273 92q-81 83 -81 217zM282 301q0 -143 191 -143q62 0 105.5 11.5t79.5 46.5q45 42 45 151v80h-240q-89 0 -135 -37.5t-46 -108.5zM606 -478q-47 29 -44 77q1 26 32 74l93 149q28 44 44 55q22 16 47 16t49 -15q46 -30 43 -77 q-1 -25 -31 -74l-93 -149q-27 -43 -44 -56q-22 -15 -47 -15q-27 0 -49 15z" />
<glyph unicode="&#x106;" horiz-adv-x="1253" d="M135 712q0 107 1.5 164t9 127t22.5 113t42 88.5t68 86.5q145 145 367 145q129 0 216.5 -36.5t156.5 -110.5q55 -59 82 -122t27 -107q0 -52 -29 -81q-32 -30 -75 -30q-38 0 -64 21q-27 21 -53 81q-41 95 -104.5 144t-160.5 49q-122 0 -205 -89q-54 -59 -69.5 -145 t-15.5 -298t15.5 -298t69.5 -145q83 -89 205 -89q97 0 160.5 49t104.5 144q26 60 53 81q26 21 64 21q43 0 75 -30q29 -29 29 -81q0 -44 -27 -107t-82 -122q-69 -74 -156.5 -110.5t-216.5 -36.5q-222 0 -367 145q-41 41 -68 86.5t-42 88.5t-22.5 113t-9 127t-1.5 164z M849 1760l-93 -149q-27 -43 -44 -55q-22 -16 -47 -16t-49 15q-46 30 -43 77q1 25 31 74l93 149q27 43 44 55q22 16 47 16t49 -15q46 -30 43 -77q-1 -25 -31 -74z" />
<glyph unicode="&#x107;" horiz-adv-x="969" d="M110 507q0 137 37.5 240.5t102 162.5t142.5 87.5t168 28.5q123 0 222 -64q48 -31 73.5 -59t25.5 -63q0 -36 -29 -67q-26 -26 -63 -26q-34 0 -81 39q-70 56 -148 56q-119 0 -185 -87q-61 -80 -61 -248t61 -247q66 -88 185 -88q75 0 148 57q49 39 81 39q36 0 63 -27 q29 -31 29 -67q0 -35 -26.5 -63.5t-72.5 -58.5q-100 -64 -222 -64q-90 0 -168 28.5t-142.5 87.5t-102 162.5t-37.5 240.5zM764 1399l-93 -149q-27 -43 -44 -55q-22 -16 -47 -16t-49 15q-46 30 -43 77q1 25 31 74l93 149q27 43 44 55q22 16 47 16t49 -15q46 -30 43 -77 q-1 -25 -31 -74z" />
<glyph unicode="&#x108;" horiz-adv-x="1253" d="M135 712q0 107 1.5 164t9 127t22.5 113t42 88.5t68 86.5q145 145 367 145q129 0 216.5 -36.5t156.5 -110.5q55 -59 82 -122t27 -107q0 -52 -29 -81q-32 -30 -75 -30q-38 0 -64 21q-27 21 -53 81q-41 95 -104.5 144t-160.5 49q-122 0 -205 -89q-54 -59 -69.5 -145 t-15.5 -298t15.5 -298t69.5 -145q83 -89 205 -89q97 0 160.5 49t104.5 144q26 60 53 81q26 21 64 21q43 0 75 -30q29 -29 29 -81q0 -44 -27 -107t-82 -122q-69 -74 -156.5 -110.5t-216.5 -36.5q-222 0 -367 145q-41 41 -68 86.5t-42 88.5t-22.5 113t-9 127t-1.5 164z M647 1913q40 0 88 -48l166 -166q37 -37 43 -61q13 -42 -22 -77q-36 -34 -76 -22q-26 7 -62 43l-137 138l-137 -138q-36 -36 -62 -43q-40 -12 -76 22q-35 35 -22 77q6 24 43 61l166 166q48 48 88 48z" />
<glyph unicode="&#x109;" horiz-adv-x="969" d="M110 507q0 137 37.5 240.5t102 162.5t142.5 87.5t168 28.5q123 0 222 -64q48 -31 73.5 -59t25.5 -63q0 -36 -29 -67q-26 -26 -63 -26q-34 0 -81 39q-70 56 -148 56q-119 0 -185 -87q-61 -80 -61 -248t61 -247q66 -88 185 -88q75 0 148 57q49 39 81 39q36 0 63 -27 q29 -31 29 -67q0 -35 -26.5 -63.5t-72.5 -58.5q-100 -64 -222 -64q-90 0 -168 28.5t-142.5 87.5t-102 162.5t-37.5 240.5zM561 1548q40 0 88 -48l166 -166q37 -37 43 -61q13 -42 -22 -77q-36 -34 -76 -22q-26 7 -62 43l-137 138l-137 -138q-36 -36 -62 -43q-40 -12 -76 22 q-35 35 -22 77q6 24 43 61l166 166q48 48 88 48z" />
<glyph unicode="&#x10a;" horiz-adv-x="1253" d="M135 712q0 107 1.5 164t9 127t22.5 113t42 88.5t68 86.5q145 145 367 145q129 0 216.5 -36.5t156.5 -110.5q55 -59 82 -122t27 -107q0 -52 -29 -81q-32 -30 -75 -30q-38 0 -64 21q-27 21 -53 81q-41 95 -104.5 144t-160.5 49q-122 0 -205 -89q-54 -59 -69.5 -145 t-15.5 -298t15.5 -298t69.5 -145q83 -89 205 -89q97 0 160.5 49t104.5 144q26 60 53 81q26 21 64 21q43 0 75 -30q29 -29 29 -81q0 -44 -27 -107t-82 -122q-69 -74 -156.5 -110.5t-216.5 -36.5q-222 0 -367 145q-41 41 -68 86.5t-42 88.5t-22.5 113t-9 127t-1.5 164z M535 1688q0 46 33.5 79.5t79.5 33.5t79.5 -33.5t33.5 -79.5t-33.5 -79.5t-79.5 -33.5t-79.5 33.5t-33.5 79.5z" />
<glyph unicode="&#x10b;" horiz-adv-x="969" d="M110 507q0 137 37.5 240.5t102 162.5t142.5 87.5t168 28.5q123 0 222 -64q48 -31 73.5 -59t25.5 -63q0 -36 -29 -67q-26 -26 -63 -26q-34 0 -81 39q-70 56 -148 56q-119 0 -185 -87q-61 -80 -61 -248t61 -247q66 -88 185 -88q75 0 148 57q49 39 81 39q36 0 63 -27 q29 -31 29 -67q0 -35 -26.5 -63.5t-72.5 -58.5q-100 -64 -222 -64q-90 0 -168 28.5t-142.5 87.5t-102 162.5t-37.5 240.5zM448 1323q0 47 33 80t80 33t80 -33t33 -80t-33 -80t-80 -33t-80 33t-33 80z" />
<glyph unicode="&#x10c;" horiz-adv-x="1253" d="M135 712q0 107 1.5 164t9 127t22.5 113t42 88.5t68 86.5q145 145 367 145q129 0 216.5 -36.5t156.5 -110.5q55 -59 82 -122t27 -107q0 -52 -29 -81q-32 -30 -75 -30q-38 0 -64 21q-27 21 -53 81q-41 95 -104.5 144t-160.5 49q-122 0 -205 -89q-54 -59 -69.5 -145 t-15.5 -298t15.5 -298t69.5 -145q83 -89 205 -89q97 0 160.5 49t104.5 144q26 60 53 81q26 21 64 21q43 0 75 -30q29 -29 29 -81q0 -44 -27 -107t-82 -122q-69 -74 -156.5 -110.5t-216.5 -36.5q-222 0 -367 145q-41 41 -68 86.5t-42 88.5t-22.5 113t-9 127t-1.5 164z M349 1807q-11 42 23 76q33 34 76 23q26 -8 61 -43l138 -138l138 138q35 35 61 43q42 11 76 -23t23 -76q-8 -26 -43 -61l-167 -167q-47 -47 -88 -47t-88 47l-167 167q-35 35 -43 61z" />
<glyph unicode="&#x10d;" horiz-adv-x="969" d="M110 507q0 137 37.5 240.5t102 162.5t142.5 87.5t168 28.5q123 0 222 -64q48 -31 73.5 -59t25.5 -63q0 -36 -29 -67q-26 -26 -63 -26q-34 0 -81 39q-70 56 -148 56q-119 0 -185 -87q-61 -80 -61 -248t61 -247q66 -88 185 -88q75 0 148 57q49 39 81 39q36 0 63 -27 q29 -31 29 -67q0 -35 -26.5 -63.5t-72.5 -58.5q-100 -64 -222 -64q-90 0 -168 28.5t-142.5 87.5t-102 162.5t-37.5 240.5zM263 1442q-11 42 23 76q33 34 76 23q26 -8 61 -43l138 -138l138 138q35 35 61 43q42 11 76 -23t23 -76q-8 -26 -43 -61l-167 -167q-47 -47 -88 -47 t-88 47l-167 167q-35 35 -43 61z" />
<glyph unicode="&#x10e;" horiz-adv-x="1332" d="M216 1393q31 31 101 31h369q262 0 406 -181q69 -88 87 -199.5t18 -331.5q0 -217 -19 -330.5t-88 -202.5q-139 -179 -404 -179h-369q-70 0 -101 31t-31 101v1160q0 70 31 101zM401 1232v-1040h260q161 0 245 97q49 55 62 147t13 276t-13 276t-62 147q-84 97 -245 97h-260z M367 1807q-11 42 23 76q33 34 76 23q26 -8 61 -43l138 -138l138 138q35 35 61 43q42 11 76 -23t23 -76q-8 -26 -43 -61l-167 -167q-47 -47 -88 -47t-88 47l-167 167q-35 35 -43 61z" />
<glyph unicode="&#x10f;" horiz-adv-x="1105" d="M943 1293v-1161q0 -67 -18 -97q-27 -43 -84 -43q-55 0 -83 40q-16 21 -18 72q-54 -64 -117.5 -90t-147.5 -26q-158 0 -248 90q-67 68 -89.5 174t-22.5 256q0 149 22.5 254.5t89.5 173.5q90 90 246 90q86 0 149.5 -25.5t116.5 -88.5v381q0 61 15 91q25 48 87 48t87 -48 q15 -30 15 -91zM319 507q0 -60 4 -104.5t17 -90.5t35.5 -74.5t61 -47t92.5 -18.5t93 18.5t61.5 47t35.5 74.5t17 90.5t4 104.5t-4 104.5t-17 90.5t-35.5 74.5t-61.5 47t-93 18.5t-92.5 -18.5t-61 -47t-35.5 -74.5t-17 -90.5t-4 -104.5zM1313 1378l-54 -162q-17 -52 -35 -70 q-24 -22 -56 -22t-57 17t-32 44q-8 28 11 87l54 162q18 52 35 70q24 22 56 22t57 -17t32 -44q8 -28 -11 -87z" />
<glyph unicode="&#x110;" horiz-adv-x="1372" d="M165 632q-56 0 -78 13q-39 23 -39 73t39 73q22 13 78 13h60v488q0 70 31 101t101 31h369q262 0 406 -181q69 -88 87 -199.5t18 -331.5q0 -217 -19 -330.5t-88 -202.5q-139 -179 -404 -179h-369q-70 0 -101 31t-31 101v500h-60zM441 1232v-428h180q57 0 79 -13 q39 -23 39 -73t-39 -73q-22 -13 -79 -13h-180v-440h260q161 0 245 97q49 55 62 147t13 276t-13 276t-62 147q-84 97 -245 97h-260z" />
<glyph unicode="&#x111;" horiz-adv-x="1112" d="M608 1283h131v10q0 61 15 91q25 48 87 48t87 -48q15 -30 15 -91v-10h23q49 0 71 -12q36 -20 36 -66t-36 -66q-22 -12 -71 -12h-23v-996q0 -66 -18 -96q-27 -43 -84 -43q-55 0 -83 40q-16 21 -18 72q-54 -64 -117.5 -90t-147.5 -26q-158 0 -248 90q-67 68 -89.5 174 t-22.5 256q0 149 22.5 254.5t89.5 173.5q90 90 246 90q86 0 149.5 -25.5t116.5 -88.5v215h-131q-49 0 -71 12q-36 20 -36 66t36 66q22 12 71 12zM319 507q0 -60 4 -104.5t17 -90.5t35.5 -74.5t61 -47t92.5 -18.5t93 18.5t61.5 47t35.5 74.5t17 90.5t4 104.5t-4 104.5 t-17 90.5t-35.5 74.5t-61.5 47t-93 18.5t-92.5 -18.5t-61 -47t-35.5 -74.5t-17 -90.5t-4 -104.5z" />
<glyph unicode="&#x112;" horiz-adv-x="1203" d="M401 1232v-418h470q62 0 88 -14q44 -25 44 -82t-44 -82q-26 -14 -88 -14h-470v-430h572q62 0 88 -14q44 -25 44 -82t-44 -82q-26 -14 -88 -14h-656q-70 0 -101 31t-31 101v1160q0 70 31 101t101 31h656q62 0 88 -14q44 -25 44 -82t-44 -82q-26 -14 -88 -14h-572z M317 1684q0 48 38 69q23 13 74 13h399q52 0 74 -13q38 -21 38 -69t-38 -69q-22 -13 -74 -13h-399q-51 0 -74 13q-38 21 -38 69z" />
<glyph unicode="&#x113;" horiz-adv-x="1075" d="M110 507q0 247 116 383t314 136q195 0 309.5 -128t119.5 -333q2 -61 -28 -91q-26 -26 -90 -26h-539q0 -132 67.5 -209t192.5 -77q115 0 195 64q46 37 83 37q32 0 58 -26.5t26 -60.5q0 -58 -102 -123q-99 -65 -265 -65q-99 0 -179 27.5t-144 86.5t-99 162t-35 243z M768 590q-6 89 -28 138q-26 59 -78 93.5t-122 34.5q-71 0 -123.5 -34.5t-78.5 -93.5q-23 -51 -26 -138h456zM852 1319q0 -49 -37 -69q-23 -13 -74 -13h-399q-51 0 -74 13q-38 21 -38 69t38 69q23 13 74 13h399q51 0 74 -13q37 -20 37 -69z" />
<glyph unicode="&#x114;" horiz-adv-x="1203" d="M401 1232v-418h470q62 0 88 -14q44 -25 44 -82t-44 -82q-26 -14 -88 -14h-470v-430h572q62 0 88 -14q44 -25 44 -82t-44 -82q-26 -14 -88 -14h-656q-70 0 -101 31t-31 101v1160q0 70 31 101t101 31h656q62 0 88 -14q44 -25 44 -82t-44 -82q-26 -14 -88 -14h-572z M628 1714q81 0 163 72q29 25 54 26q34 2 59 -26q23 -26 21 -56q-1 -37 -45 -75q-111 -102 -252 -102t-252 102q-44 38 -45 75q-2 30 21 56q25 28 59 26q25 -1 54 -26q82 -72 163 -72z" />
<glyph unicode="&#x115;" horiz-adv-x="1075" d="M110 507q0 247 116 383t314 136q195 0 309.5 -128t119.5 -333q2 -61 -28 -91q-26 -26 -90 -26h-539q0 -132 67.5 -209t192.5 -77q115 0 195 64q46 37 83 37q32 0 58 -26.5t26 -60.5q0 -58 -102 -123q-99 -65 -265 -65q-99 0 -179 27.5t-144 86.5t-99 162t-35 243z M768 590q-6 89 -28 138q-26 59 -78 93.5t-122 34.5q-71 0 -123.5 -34.5t-78.5 -93.5q-23 -51 -26 -138h456zM542 1349q81 0 163 72q29 25 54 26q34 2 59 -26q23 -26 21 -56q-1 -37 -45 -75q-111 -102 -252 -102t-252 102q-44 38 -45 75q-2 30 21 56q25 28 59 26 q25 -1 54 -26q82 -72 163 -72z" />
<glyph unicode="&#x116;" horiz-adv-x="1203" d="M401 1232v-418h470q62 0 88 -14q44 -25 44 -82t-44 -82q-26 -14 -88 -14h-470v-430h572q62 0 88 -14q44 -25 44 -82t-44 -82q-26 -14 -88 -14h-656q-70 0 -101 31t-31 101v1160q0 70 31 101t101 31h656q62 0 88 -14q44 -25 44 -82t-44 -82q-26 -14 -88 -14h-572z M516 1688q0 46 33 79.5t80 33.5t80 -33.5t33 -79.5t-33 -79.5t-80 -33.5t-80 33.5t-33 79.5z" />
<glyph unicode="&#x117;" horiz-adv-x="1075" d="M110 507q0 247 116 383t314 136q195 0 309.5 -128t119.5 -333q2 -61 -28 -91q-26 -26 -90 -26h-539q0 -132 67.5 -209t192.5 -77q115 0 195 64q46 37 83 37q32 0 58 -26.5t26 -60.5q0 -58 -102 -123q-99 -65 -265 -65q-99 0 -179 27.5t-144 86.5t-99 162t-35 243z M768 590q-6 89 -28 138q-26 59 -78 93.5t-122 34.5q-71 0 -123.5 -34.5t-78.5 -93.5q-23 -51 -26 -138h456zM429 1323q0 47 33.5 80t79.5 33t79.5 -33t33.5 -80t-33.5 -80t-79.5 -33t-79.5 33t-33.5 80z" />
<glyph unicode="&#x118;" horiz-adv-x="1203" d="M401 1232v-418h470q62 0 88 -14q44 -25 44 -82t-44 -82q-26 -14 -88 -14h-470v-430h572q62 0 88 -14q44 -25 44 -82t-44 -82q-26 -14 -88 -14h-656q-70 0 -101 31t-31 101v1160q0 70 31 101t101 31h656q62 0 88 -14q44 -25 44 -82t-44 -82q-26 -14 -88 -14h-572z M817 -478q-47 29 -44 77q1 26 32 74l93 149q28 44 44 55q22 16 47 16t49 -15q46 -30 43 -77q-1 -25 -31 -74l-93 -149q-27 -43 -44 -56q-23 -15 -47 -15q-26 0 -49 15z" />
<glyph unicode="&#x119;" horiz-adv-x="1075" d="M110 507q0 247 116 383t314 136q195 0 309.5 -128t119.5 -333q2 -61 -28 -91q-26 -26 -90 -26h-539q0 -132 67.5 -209t192.5 -77q115 0 195 64q46 37 83 37q32 0 58 -26.5t26 -60.5q0 -58 -102 -123q-99 -65 -265 -65q-99 0 -179 27.5t-144 86.5t-99 162t-35 243z M768 590q-6 89 -28 138q-26 59 -78 93.5t-122 34.5q-71 0 -123.5 -34.5t-78.5 -93.5q-23 -51 -26 -138h456zM516 -478q-47 29 -44 77q1 26 32 74l93 149q28 44 44 55q22 16 47 16t49 -15q46 -30 43 -77q-1 -25 -31 -74l-93 -149q-27 -43 -44 -56q-22 -15 -47 -15 q-27 0 -49 15z" />
<glyph unicode="&#x11a;" horiz-adv-x="1203" d="M401 1232v-418h470q62 0 88 -14q44 -25 44 -82t-44 -82q-26 -14 -88 -14h-470v-430h572q62 0 88 -14q44 -25 44 -82t-44 -82q-26 -14 -88 -14h-656q-70 0 -101 31t-31 101v1160q0 70 31 101t101 31h656q62 0 88 -14q44 -25 44 -82t-44 -82q-26 -14 -88 -14h-572z M330 1807q-11 42 23 76q33 34 76 23q26 -8 61 -43l138 -138l138 138q35 35 61 43q42 11 76 -23t23 -76q-8 -26 -43 -61l-167 -167q-47 -47 -88 -47t-88 47l-167 167q-35 35 -43 61z" />
<glyph unicode="&#x11b;" horiz-adv-x="1075" d="M110 507q0 247 116 383t314 136q195 0 309.5 -128t119.5 -333q2 -61 -28 -91q-26 -26 -90 -26h-539q0 -132 67.5 -209t192.5 -77q115 0 195 64q46 37 83 37q32 0 58 -26.5t26 -60.5q0 -58 -102 -123q-99 -65 -265 -65q-99 0 -179 27.5t-144 86.5t-99 162t-35 243z M768 590q-6 89 -28 138q-26 59 -78 93.5t-122 34.5q-71 0 -123.5 -34.5t-78.5 -93.5q-23 -51 -26 -138h456zM244 1442q-11 42 23 76q33 34 76 23q26 -8 61 -43l138 -138l138 138q35 35 61 43q42 11 76 -23t23 -76q-8 -26 -43 -61l-167 -167q-47 -47 -88 -47t-88 47l-167 167 q-35 35 -43 61z" />
<glyph unicode="&#x11c;" horiz-adv-x="1282" d="M351 712q0 -215 16 -301.5t68 -141.5q83 -89 212 -89q125 0 211 86q48 49 64.5 113.5t16.5 181.5h-180q-62 0 -88 14q-44 25 -44 82t44 82q26 14 88 14h256q70 0 101 -31t31 -101v-21q0 -182 -27.5 -283.5t-107.5 -181.5q-147 -147 -365 -147q-224 0 -369 145 q-41 41 -68 86.5t-42 88.5t-22.5 113t-9 127t-1.5 164t1.5 164t9 127t22.5 113t42 88.5t68 86.5q145 145 367 145q129 0 216.5 -36.5t156.5 -110.5q55 -59 82 -122t27 -107q0 -52 -29 -81q-32 -30 -75 -30q-38 0 -64 21q-27 21 -53 81q-41 95 -104.5 144t-160.5 49 q-122 0 -205 -89q-54 -59 -69.5 -145t-15.5 -298zM646 1913q40 0 88 -48l166 -166q37 -37 43 -61q13 -42 -22 -77q-36 -34 -76 -22q-26 7 -62 43l-137 138l-137 -138q-36 -36 -62 -43q-40 -12 -76 22q-35 35 -22 77q6 24 43 61l166 166q48 48 88 48z" />
<glyph unicode="&#x11d;" horiz-adv-x="1099" d="M501 -421q-144 0 -240 53q-104 58 -104 120q0 38 26 63.5t57 25.5t92 -39q77 -50 163 -50q122 0 180 73t58 185v130q-53 -63 -116.5 -89.5t-145.5 -26.5q-152 0 -242 90q-68 68 -91 166.5t-23 245.5t23 245.5t91 166.5q88 88 244 88q83 0 145 -25.5t116 -88.5q2 47 18 70 q28 40 83 40q57 0 84 -43q18 -30 18 -97v-876q0 -188 -118.5 -307.5t-317.5 -119.5zM733 526q0 45 -2.5 79.5t-10 73.5t-22 66.5t-36.5 51t-56 35.5t-79 12q-53 0 -92 -18.5t-61 -47t-34.5 -72.5t-16.5 -85t-4 -95t4 -95t16.5 -85t34.5 -72.5t61 -47t92 -18.5t92 18.5 t60.5 46.5t34 72.5t16 85t3.5 95.5zM528 1548q40 0 88 -48l166 -166q37 -37 43 -61q13 -42 -22 -77q-36 -34 -76 -22q-26 7 -62 43l-137 138l-137 -138q-36 -36 -62 -43q-40 -12 -76 22q-35 35 -22 77q6 24 43 61l166 166q48 48 88 48z" />
<glyph unicode="&#x11e;" horiz-adv-x="1282" d="M351 712q0 -215 16 -301.5t68 -141.5q83 -89 212 -89q125 0 211 86q48 49 64.5 113.5t16.5 181.5h-180q-62 0 -88 14q-44 25 -44 82t44 82q26 14 88 14h256q70 0 101 -31t31 -101v-21q0 -182 -27.5 -283.5t-107.5 -181.5q-147 -147 -365 -147q-224 0 -369 145 q-41 41 -68 86.5t-42 88.5t-22.5 113t-9 127t-1.5 164t1.5 164t9 127t22.5 113t42 88.5t68 86.5q145 145 367 145q129 0 216.5 -36.5t156.5 -110.5q55 -59 82 -122t27 -107q0 -52 -29 -81q-32 -30 -75 -30q-38 0 -64 21q-27 21 -53 81q-41 95 -104.5 144t-160.5 49 q-122 0 -205 -89q-54 -59 -69.5 -145t-15.5 -298zM646 1714q81 0 163 72q29 25 54 26q34 2 59 -26q23 -26 21 -56q-1 -37 -45 -75q-111 -102 -252 -102t-252 102q-44 38 -45 75q-2 30 21 56q25 28 59 26q25 -1 54 -26q82 -72 163 -72z" />
<glyph unicode="&#x11f;" horiz-adv-x="1099" d="M501 -421q-144 0 -240 53q-104 58 -104 120q0 38 26 63.5t57 25.5t92 -39q77 -50 163 -50q122 0 180 73t58 185v130q-53 -63 -116.5 -89.5t-145.5 -26.5q-152 0 -242 90q-68 68 -91 166.5t-23 245.5t23 245.5t91 166.5q88 88 244 88q83 0 145 -25.5t116 -88.5q2 47 18 70 q28 40 83 40q57 0 84 -43q18 -30 18 -97v-876q0 -188 -118.5 -307.5t-317.5 -119.5zM733 526q0 45 -2.5 79.5t-10 73.5t-22 66.5t-36.5 51t-56 35.5t-79 12q-53 0 -92 -18.5t-61 -47t-34.5 -72.5t-16.5 -85t-4 -95t4 -95t16.5 -85t34.5 -72.5t61 -47t92 -18.5t92 18.5 t60.5 46.5t34 72.5t16 85t3.5 95.5zM528 1349q81 0 163 72q29 25 54 26q34 2 59 -26q23 -26 21 -56q-1 -37 -45 -75q-111 -102 -252 -102t-252 102q-44 38 -45 75q-2 30 21 56q25 28 59 26q25 -1 54 -26q82 -72 163 -72z" />
<glyph unicode="&#x120;" horiz-adv-x="1282" d="M351 712q0 -215 16 -301.5t68 -141.5q83 -89 212 -89q125 0 211 86q48 49 64.5 113.5t16.5 181.5h-180q-62 0 -88 14q-44 25 -44 82t44 82q26 14 88 14h256q70 0 101 -31t31 -101v-21q0 -182 -27.5 -283.5t-107.5 -181.5q-147 -147 -365 -147q-224 0 -369 145 q-41 41 -68 86.5t-42 88.5t-22.5 113t-9 127t-1.5 164t1.5 164t9 127t22.5 113t42 88.5t68 86.5q145 145 367 145q129 0 216.5 -36.5t156.5 -110.5q55 -59 82 -122t27 -107q0 -52 -29 -81q-32 -30 -75 -30q-38 0 -64 21q-27 21 -53 81q-41 95 -104.5 144t-160.5 49 q-122 0 -205 -89q-54 -59 -69.5 -145t-15.5 -298zM534 1688q0 46 33 79.5t80 33.5t80 -33.5t33 -79.5t-33 -79.5t-80 -33.5t-80 33.5t-33 79.5z" />
<glyph unicode="&#x121;" horiz-adv-x="1099" d="M501 -421q-144 0 -240 53q-104 58 -104 120q0 38 26 63.5t57 25.5t92 -39q77 -50 163 -50q122 0 180 73t58 185v130q-53 -63 -116.5 -89.5t-145.5 -26.5q-152 0 -242 90q-68 68 -91 166.5t-23 245.5t23 245.5t91 166.5q88 88 244 88q83 0 145 -25.5t116 -88.5q2 47 18 70 q28 40 83 40q57 0 84 -43q18 -30 18 -97v-876q0 -188 -118.5 -307.5t-317.5 -119.5zM733 526q0 45 -2.5 79.5t-10 73.5t-22 66.5t-36.5 51t-56 35.5t-79 12q-53 0 -92 -18.5t-61 -47t-34.5 -72.5t-16.5 -85t-4 -95t4 -95t16.5 -85t34.5 -72.5t61 -47t92 -18.5t92 18.5 t60.5 46.5t34 72.5t16 85t3.5 95.5zM415 1323q0 47 33.5 80t79.5 33t79.5 -33t33.5 -80t-33.5 -80t-79.5 -33t-79.5 33t-33.5 80z" />
<glyph unicode="&#x122;" horiz-adv-x="1282" d="M351 712q0 -215 16 -301.5t68 -141.5q83 -89 212 -89q125 0 211 86q48 49 64.5 113.5t16.5 181.5h-180q-62 0 -88 14q-44 25 -44 82t44 82q26 14 88 14h256q70 0 101 -31t31 -101v-21q0 -182 -27.5 -283.5t-107.5 -181.5q-147 -147 -365 -147q-224 0 -369 145 q-41 41 -68 86.5t-42 88.5t-22.5 113t-9 127t-1.5 164t1.5 164t9 127t22.5 113t42 88.5t68 86.5q145 145 367 145q129 0 216.5 -36.5t156.5 -110.5q55 -59 82 -122t27 -107q0 -52 -29 -81q-32 -30 -75 -30q-38 0 -64 21q-27 21 -53 81q-41 95 -104.5 144t-160.5 49 q-122 0 -205 -89q-54 -59 -69.5 -145t-15.5 -298zM720 -273l-93 -149q-27 -43 -44 -55q-22 -16 -47 -16t-49 15q-46 30 -43 77q1 25 31 74l93 149q27 43 44 55q22 16 47 16t49 -15q46 -30 43 -77q-1 -25 -31 -74z" />
<glyph unicode="&#x123;" horiz-adv-x="1099" d="M501 -421q-144 0 -240 53q-104 58 -104 120q0 38 26 63.5t57 25.5t92 -39q77 -50 163 -50q122 0 180 73t58 185v130q-53 -63 -116.5 -89.5t-145.5 -26.5q-152 0 -242 90q-68 68 -91 166.5t-23 245.5t23 245.5t91 166.5q88 88 244 88q83 0 145 -25.5t116 -88.5q2 47 18 70 q28 40 83 40q57 0 84 -43q18 -30 18 -97v-876q0 -188 -118.5 -307.5t-317.5 -119.5zM733 526q0 45 -2.5 79.5t-10 73.5t-22 66.5t-36.5 51t-56 35.5t-79 12q-53 0 -92 -18.5t-61 -47t-34.5 -72.5t-16.5 -85t-4 -95t4 -95t16.5 -85t34.5 -72.5t61 -47t92 -18.5t92 18.5 t60.5 46.5t34 72.5t16 85t3.5 95.5zM731 1399l-93 -149q-27 -43 -44 -55q-22 -16 -47 -16t-49 15q-46 30 -43 77q1 25 31 74l93 149q27 43 44 55q22 16 47 16t49 -15q46 -30 43 -77q-1 -25 -31 -74z" />
<glyph unicode="&#x124;" horiz-adv-x="1380" d="M401 815h578v470q0 42 2.5 60t13.5 38q27 49 92 49t92 -49q11 -20 13.5 -38t2.5 -60v-1146q0 -42 -2.5 -60t-13.5 -38q-27 -49 -92 -49t-92 49q-11 20 -13.5 38t-2.5 60v484h-578v-484q0 -42 -2.5 -60t-13.5 -38q-27 -49 -92 -49t-92 49q-11 20 -13.5 38t-2.5 60v1146 q0 42 2.5 60t13.5 38q27 49 92 49t92 -49q11 -20 13.5 -38t2.5 -60v-470zM690 1913q40 0 88 -48l166 -166q37 -37 43 -61q13 -42 -22 -77q-36 -34 -76 -22q-26 7 -62 43l-137 138l-137 -138q-36 -36 -62 -43q-40 -12 -76 22q-35 35 -22 77q6 24 43 61l166 166q48 48 88 48z " />
<glyph unicode="&#x125;" horiz-adv-x="1137" d="M366 618v-487q0 -61 -15 -91q-25 -48 -87 -48t-87 48q-15 30 -15 91v1162q0 61 15 91q25 48 87 48t87 -48q15 -30 15 -91v-381q103 114 266 114q156 0 250 -92q103 -100 103 -286v-517q0 -61 -15 -91q-25 -48 -87 -48t-87 48q-15 30 -15 91v487q0 113 -56.5 168.5 t-149.5 55.5q-92 0 -150.5 -56t-58.5 -168zM265 1905q40 0 88 -48l166 -166q37 -37 43 -61q13 -42 -22 -77q-36 -34 -76 -22q-26 7 -62 43l-137 138l-137 -138q-36 -36 -62 -43q-40 -12 -76 22q-35 35 -22 77q6 24 43 61l166 166q48 48 88 48z" />
<glyph unicode="&#x126;" horiz-adv-x="1461" d="M165 1192h60v93q0 42 2.5 60t13.5 38q27 49 92 49t92 -49q11 -20 13.5 -38t2.5 -60v-93h578v93q0 42 2.5 60t13.5 38q27 49 92 49t92 -49q11 -20 13.5 -38t2.5 -60v-93h60q57 0 79 -13q39 -23 39 -73t-39 -73q-22 -13 -79 -13h-60v-881q0 -42 -2.5 -60t-13.5 -38 q-27 -49 -92 -49t-92 49q-11 20 -13.5 38t-2.5 60v484h-578v-484q0 -42 -2.5 -60t-13.5 -38q-27 -49 -92 -49t-92 49q-11 20 -13.5 38t-2.5 60v881h-60q-56 0 -78 13q-39 23 -39 73t39 73q22 13 78 13zM441 815h578v205h-578v-205z" />
<glyph unicode="&#x127;" horiz-adv-x="1138" d="M498 1127h-131v-215q103 114 266 114q156 0 250 -92q103 -100 103 -286v-517q0 -61 -15 -91q-25 -48 -87 -48t-87 48q-15 30 -15 91v487q0 113 -56.5 168.5t-149.5 55.5q-92 0 -150 -56t-58 -168l-1 -487q0 -61 -15 -91q-25 -48 -87 -48t-87 48q-15 30 -15 91v996h-23 q-49 0 -71 12q-36 20 -36 66t36 66q22 12 71 12h23v10q0 61 15 91q25 48 87 48t87 -48q15 -30 15 -91v-10h131q49 0 71 -12q36 -20 36 -66t-36 -66q-22 -12 -71 -12z" />
<glyph unicode="&#x128;" horiz-adv-x="586" d="M401 139q0 -42 -2.5 -60t-13.5 -38q-27 -49 -92 -49t-92 49q-11 20 -13.5 38t-2.5 60v1146q0 42 2.5 60t13.5 38q27 49 92 49t92 -49q11 -20 13.5 -38t2.5 -60v-1146zM275 1619q-66 37 -107 37q-46 0 -88 -34q-32 -26 -59 -26q-34 0 -54 23q-17 20 -17 52q0 38 46 77 q75 62 167 62q43 0 74.5 -10t75.5 -35q66 -37 107 -37q46 0 88 34q33 26 59 26q34 0 54 -23q17 -20 17 -52q0 -38 -46 -77q-75 -62 -167 -62q-43 0 -74.5 10t-75.5 35z" />
<glyph unicode="&#x129;" horiz-adv-x="528" d="M366 131q0 -61 -15 -91q-25 -48 -87 -48t-87 48q-15 30 -15 91v752q0 61 15 91q25 48 87 48t87 -48q15 -30 15 -91v-752zM246 1261q-66 37 -107 37q-46 0 -88 -34q-33 -26 -59 -26q-34 0 -54 23q-17 20 -17 52q0 38 46 77q75 62 167 62q43 0 74.5 -10t75.5 -35 q66 -37 107 -37q46 0 88 34q33 26 59 26q34 0 54 -23q17 -20 17 -52q0 -38 -46 -77q-75 -62 -167 -62q-43 0 -74.5 10t-75.5 35z" />
<glyph unicode="&#x12a;" horiz-adv-x="586" d="M401 139q0 -42 -2.5 -60t-13.5 -38q-27 -49 -92 -49t-92 49q-11 20 -13.5 38t-2.5 60v1146q0 42 2.5 60t13.5 38q27 49 92 49t92 -49q11 -20 13.5 -38t2.5 -60v-1146zM-17 1684q0 48 38 69q23 13 74 13h399q52 0 74 -13q38 -21 38 -69t-38 -69q-22 -13 -74 -13h-399 q-51 0 -74 13q-38 21 -38 69z" />
<glyph unicode="&#x12b;" horiz-adv-x="528" d="M366 131q0 -61 -15 -91q-25 -48 -87 -48t-87 48q-15 30 -15 91v752q0 61 15 91q25 48 87 48t87 -48q15 -30 15 -91v-752zM575 1319q0 -49 -37 -69q-23 -13 -74 -13h-399q-51 0 -74 13q-38 21 -38 69t38 69q23 13 74 13h399q51 0 74 -13q37 -20 37 -69z" />
<glyph unicode="&#x12c;" horiz-adv-x="586" d="M401 139q0 -42 -2.5 -60t-13.5 -38q-27 -49 -92 -49t-92 49q-11 20 -13.5 38t-2.5 60v1146q0 42 2.5 60t13.5 38q27 49 92 49t92 -49q11 -20 13.5 -38t2.5 -60v-1146zM294 1714q81 0 163 72q29 25 54 26q34 2 59 -26q23 -26 21 -56q-1 -37 -45 -75q-111 -102 -252 -102 t-252 102q-44 38 -45 75q-2 30 21 56q25 28 59 26q25 -1 54 -26q82 -72 163 -72z" />
<glyph unicode="&#x12d;" horiz-adv-x="528" d="M367 131q0 -61 -15 -91q-25 -48 -87 -48t-87 48q-15 30 -15 91v752q0 61 15 91q25 48 87 48t87 -48q15 -30 15 -91v-752zM265 1349q81 0 163 72q29 25 54 26q34 2 59 -26q23 -26 21 -56q-1 -37 -45 -75q-111 -102 -252 -102t-252 102q-44 38 -45 75q-2 30 21 56 q25 28 59 26q25 -1 54 -26q82 -72 163 -72z" />
<glyph unicode="&#x12e;" horiz-adv-x="586" d="M401 139q0 -42 -2.5 -60t-13.5 -38q-27 -49 -92 -49t-92 49q-11 20 -13.5 38t-2.5 60v1146q0 42 2.5 60t13.5 38q27 49 92 49t92 -49q11 -20 13.5 -38t2.5 -60v-1146zM114 -478q-47 29 -44 77q1 26 32 74l93 149q28 44 44 55q22 16 47 16t49 -15q46 -30 43 -77 q-1 -25 -31 -74l-93 -149q-27 -43 -44 -56q-22 -15 -47 -15q-27 0 -49 15z" />
<glyph unicode="&#x12f;" horiz-adv-x="528" d="M366 131q0 -61 -15 -91q-25 -48 -87 -48t-87 48q-15 30 -15 91v752q0 61 15 91q25 48 87 48t87 -48q15 -30 15 -91v-752zM141 1345q0 51 36 87t87 36t87 -36t36 -87t-36 -87t-87 -36t-87 36t-36 87zM80 -478q-47 29 -44 77q1 26 32 74l93 149q28 44 44 55q22 16 47 16 t49 -15q46 -30 43 -77q-1 -25 -31 -74l-93 -149q-27 -43 -44 -56q-22 -15 -47 -15q-27 0 -49 15z" />
<glyph unicode="&#x130;" horiz-adv-x="586" d="M401 139q0 -42 -2.5 -60t-13.5 -38q-27 -49 -92 -49t-92 49q-11 20 -13.5 38t-2.5 60v1146q0 42 2.5 60t13.5 38q27 49 92 49t92 -49q11 -20 13.5 -38t2.5 -60v-1146zM182 1688q0 46 33 79.5t80 33.5t80 -33.5t33 -79.5t-33 -79.5t-80 -33.5t-80 33.5t-33 79.5z" />
<glyph unicode="&#x131;" horiz-adv-x="528" d="M366 131q0 -61 -15 -91q-25 -48 -87 -48t-87 48q-15 30 -15 91v752q0 61 15 91q25 48 87 48t87 -48q15 -30 15 -91v-752z" />
<glyph unicode="&#x132;" horiz-adv-x="1599" d="M401 139q0 -42 -2.5 -60t-13.5 -38q-27 -49 -92 -49t-92 49q-11 20 -13.5 38t-2.5 60v1146q0 42 2.5 60t13.5 38q27 49 92 49t92 -49q11 -20 13.5 -38t2.5 -60v-1146zM960 -12q-162 0 -274 81q-51 38 -51 89q0 41 29 70q26 25 61 25t82 -29q70 -44 153 -44 q123 0 190.5 74t67.5 214v817q0 42 2.5 60t13.5 38q27 49 92 49t92 -49q11 -20 13.5 -38t2.5 -60v-835q0 -143 -64.5 -249.5t-171 -159.5t-238.5 -53z" />
<glyph unicode="&#x133;" horiz-adv-x="1056" d="M366 131q0 -61 -15 -91q-25 -48 -87 -48t-87 48q-15 30 -15 91v752q0 61 15 91q25 48 87 48t87 -48q15 -30 15 -91v-752zM141 1345q0 51 36 87t87 36t87 -36t36 -87t-36 -87t-87 -36t-87 36t-36 87zM669 1345q0 51 36 87t87 36t87 -36t36 -87t-36 -87t-87 -36t-87 36 t-36 87zM690 -124v1007q0 61 15 91q25 48 87 48t87 -48q15 -30 15 -91v-1016q0 -78 -28 -139.5t-91.5 -101.5t-155.5 -40h-20q-57 0 -86 16q-41 22 -41 71q0 50 41 72q22 12 74 14q103 3 103 117z" />
<glyph unicode="&#x134;" horiz-adv-x="1012" d="M375 -12q-162 0 -274 81q-51 37 -51 89q0 41 29 70q26 25 61 25t82 -29q70 -44 153 -44q123 0 190.5 74t67.5 214v817q0 42 2.5 60t13.5 38q27 49 92 49t92 -49q11 -20 13.5 -38t2.5 -60v-835q0 -143 -64.5 -249.5t-171 -159.5t-238.5 -53zM741 1913q40 0 88 -48 l166 -166q37 -37 43 -61q13 -42 -22 -77q-36 -34 -76 -22q-26 7 -62 43l-137 138l-137 -138q-36 -36 -62 -43q-40 -12 -76 22q-35 35 -22 77q6 24 43 61l166 166q48 48 88 48z" />
<glyph unicode="&#x135;" horiz-adv-x="528" d="M161 -124v1007q0 61 15 91q25 48 87 48t87 -48q15 -30 15 -91v-1016q0 -78 -28 -139.5t-91.5 -101.5t-155.5 -40h-20q-57 0 -86 16q-41 22 -41 71q0 50 41 72q22 12 74 14q103 3 103 117zM265 1548q40 0 88 -48l166 -166q37 -37 43 -61q13 -42 -22 -77q-36 -34 -76 -22 q-26 7 -62 43l-137 138l-137 -138q-36 -36 -62 -43q-40 -12 -76 22q-35 35 -22 77q6 24 43 61l166 166q48 48 88 48z" />
<glyph unicode="&#x136;" horiz-adv-x="1294" d="M401 139q0 -42 -2.5 -60t-13.5 -38q-27 -49 -92 -49t-92 49q-11 20 -13.5 38t-2.5 60v1146q0 42 2.5 60t13.5 38q27 49 92 49t92 -49q11 -20 13.5 -38t2.5 -60v-572l539 654q29 35 50 50t49 15q37 0 67 -25q39 -33 39 -78q0 -22 -10.5 -41t-37.5 -52l-303 -366l390 -685 q33 -58 34 -89q2 -57 -53 -89q-25 -15 -58 -15q-37 0 -59.5 21.5t-47.5 66.5l-356 627l-243 -292v-276zM757 -273l-93 -149q-27 -43 -44 -55q-22 -16 -47 -16t-49 15q-46 30 -43 77q1 25 31 74l93 149q27 43 44 55q22 16 47 16t49 -15q46 -30 43 -77q-1 -25 -31 -74z" />
<glyph unicode="&#x137;" horiz-adv-x="1040" d="M970 88q0 -49 -48 -79q-27 -17 -56 -17q-32 0 -52.5 17.5t-46.5 59.5l-246 392l-155 -180v-150q0 -61 -15 -91q-25 -48 -87 -48t-87 48q-15 30 -15 91v1162q0 61 15 91q25 48 87 48t87 -48q15 -30 15 -91v-747l366 417q29 33 49 46t44 13q36 0 63 -24q32 -28 32 -66 t-47 -92l-209 -238l271 -428q35 -56 35 -86zM624 -273l-93 -149q-27 -43 -44 -55q-22 -16 -47 -16t-49 15q-46 30 -43 77q1 25 31 74l93 149q27 43 44 55q22 16 47 16t49 -15q46 -30 43 -77q-1 -25 -31 -74z" />
<glyph unicode="&#x138;" horiz-adv-x="1041" d="M971 88q0 -49 -48 -79q-27 -17 -56 -17q-32 0 -52.5 17.5t-46.5 59.5l-246 389l-156 -180v-147q0 -61 -15 -91q-25 -48 -87 -48t-87 48q-15 30 -15 91v752q0 61 15 91q25 48 87 48t87 -48q15 -30 15 -91v-337l366 417q29 33 49 46t44 13q36 0 63 -24q32 -28 32 -66 t-47 -92l-209 -238l272 -428q35 -56 35 -86z" />
<glyph unicode="&#x139;" horiz-adv-x="1145" d="M317 0q-70 0 -101 31t-31 101v1153q0 42 2.5 60t13.5 38q27 49 92 49t92 -49q11 -20 13.5 -38t2.5 -60v-1093h562q62 0 88 -14q44 -25 44 -82t-44 -82q-26 -14 -88 -14h-646zM502 1760l-93 -149q-27 -43 -44 -55q-22 -16 -47 -16t-49 15q-46 30 -43 77q1 25 31 74l93 149 q27 43 44 55q22 16 47 16t49 -15q46 -30 43 -77q-1 -25 -31 -74z" />
<glyph unicode="&#x13a;" horiz-adv-x="613" d="M157 281v1014q0 61 15 91q25 48 87 48t87 -48q15 -30 15 -91v-1005q0 -114 103 -117q52 -2 74 -14q41 -22 41 -72q0 -49 -41 -71q-29 -16 -86 -16h-20q-92 0 -155.5 40t-91.5 101.5t-28 139.5zM460 1752l-93 -149q-27 -43 -44 -55q-22 -16 -47 -16t-49 15q-46 30 -43 77 q1 25 31 74l93 149q27 43 44 55q22 16 47 16t49 -15q46 -30 43 -77q-1 -25 -31 -74z" />
<glyph unicode="&#x13b;" horiz-adv-x="1145" d="M317 0q-70 0 -101 31t-31 101v1153q0 42 2.5 60t13.5 38q27 49 92 49t92 -49q11 -20 13.5 -38t2.5 -60v-1093h562q62 0 88 -14q44 -25 44 -82t-44 -82q-26 -14 -88 -14h-646zM685 -273l-93 -149q-27 -43 -44 -55q-22 -16 -47 -16t-49 15q-46 30 -43 77q1 25 31 74l93 149 q27 43 44 55q22 16 47 16t49 -15q46 -30 43 -77q-1 -25 -31 -74z" />
<glyph unicode="&#x13c;" horiz-adv-x="613" d="M157 281v1014q0 61 15 91q25 48 87 48t87 -48q15 -30 15 -91v-1005q0 -114 103 -117q52 -2 74 -14q41 -22 41 -72q0 -49 -41 -71q-29 -16 -86 -16h-20q-92 0 -155.5 40t-91.5 101.5t-28 139.5zM424 -273l-93 -149q-27 -43 -44 -55q-22 -16 -47 -16t-49 15q-46 30 -43 77 q1 25 31 74l93 149q27 43 44 55q22 16 47 16t49 -15q46 -30 43 -77q-1 -25 -31 -74z" />
<glyph unicode="&#x13d;" horiz-adv-x="1145" d="M317 0q-70 0 -101 31t-31 101v1153q0 42 2.5 60t13.5 38q27 49 92 49t92 -49q11 -20 13.5 -38t2.5 -60v-1093h562q62 0 88 -14q44 -25 44 -82t-44 -82q-26 -14 -88 -14h-646zM853 1378l-54 -162q-17 -52 -35 -70q-24 -22 -56 -22t-57 17t-32 44q-8 28 11 87l54 162 q18 52 35 70q24 22 56 22t57 -17t32 -44q8 -28 -11 -87z" />
<glyph unicode="&#x13e;" horiz-adv-x="613" d="M157 281v1014q0 61 15 91q25 48 87 48t87 -48q15 -30 15 -91v-1005q0 -114 103 -117q52 -2 74 -14q41 -22 41 -72q0 -49 -41 -71q-29 -16 -86 -16h-20q-92 0 -155.5 40t-91.5 101.5t-28 139.5zM714 1378l-54 -162q-18 -52 -35 -70q-24 -22 -56 -22t-57 17t-32 44 q-8 28 11 87l54 162q17 52 35 70q24 22 56 22t57 -17t32 -44q8 -28 -11 -87z" />
<glyph unicode="&#x13f;" horiz-adv-x="1148" d="M764 712q0 46 33 79.5t80 33.5t80 -33.5t33 -79.5t-33 -79.5t-80 -33.5t-80 33.5t-33 79.5zM317 0q-70 0 -101 31t-31 101v1153q0 42 2.5 60t13.5 38q27 49 92 49t92 -49q11 -20 13.5 -38t2.5 -60v-1093h562q62 0 88 -14q44 -25 44 -82t-44 -82q-26 -14 -88 -14h-646z " />
<glyph unicode="&#x140;" horiz-adv-x="779" d="M157 281v1014q0 61 15 91q25 48 87 48t87 -48q15 -30 15 -91v-1005q0 -114 103 -117q52 -2 74 -14q41 -22 41 -72q0 -49 -41 -71q-29 -16 -86 -16h-20q-92 0 -155.5 40t-91.5 101.5t-28 139.5zM535 547q0 47 33.5 80t79.5 33t79.5 -33t33.5 -80t-33.5 -80t-79.5 -33 t-79.5 33t-33.5 80z" />
<glyph unicode="&#x141;" horiz-adv-x="1185" d="M357 0q-70 0 -101 31t-31 101v413l-23 -11q-46 -23 -72 -23q-31 0 -55 24q-27 25 -27 65q0 31 18.5 50.5t58.5 38.5l100 50v546q0 42 2.5 60t13.5 38q27 49 92 49t92 -49q11 -20 13.5 -38t2.5 -60v-438l176 89q46 23 72 23q31 0 55 -24q27 -25 27 -65q0 -31 -18.5 -50.5 t-58.5 -38.5l-253 -127v-462h562q62 0 88 -14q44 -25 44 -82t-44 -82q-26 -14 -88 -14h-646z" />
<glyph unicode="&#x142;" horiz-adv-x="673" d="M405 750v-460q0 -114 103 -117q52 -2 74 -14q41 -22 41 -72q0 -49 -41 -71q-29 -16 -86 -16h-20q-92 0 -155.5 40t-91.5 101.5t-28 139.5v367l-19 -9q-42 -21 -66 -21q-44 0 -66 44q-9 18 -9 39q0 23 14 40q14 18 57 40l89 44v468q0 61 15 91q25 48 87 48t87 -48 q15 -30 15 -91v-366l67 34q42 21 66 21q44 0 66 -44q9 -18 9 -39q0 -23 -14 -40q-14 -18 -57 -40z" />
<glyph unicode="&#x143;" horiz-adv-x="1443" d="M401 1000v-861q0 -42 -2.5 -60t-13.5 -38q-27 -49 -92 -49t-92 49q-11 20 -13.5 38t-2.5 60v1155q0 73 31 104q34 34 82 34q37 0 64.5 -22t61.5 -73l618 -913v861q0 42 2.5 60t13.5 38q27 49 92 49t92 -49q11 -20 13.5 -38t2.5 -60v-1156q0 -72 -31 -103q-34 -34 -82 -34 q-37 0 -64.5 22t-61.5 73zM923 1760l-93 -149q-27 -43 -44 -55q-22 -16 -47 -16t-49 15q-46 30 -43 77q1 25 31 74l93 149q27 43 44 55q22 16 47 16t49 -15q46 -30 43 -77q-1 -25 -31 -74z" />
<glyph unicode="&#x144;" horiz-adv-x="1136" d="M366 618v-487q0 -61 -15 -91q-25 -48 -87 -48t-87 48q-15 30 -15 91v751q0 67 18 97q27 43 84 43q55 0 83 -40q16 -23 18 -67q105 111 267 111q155 0 250 -92q102 -99 102 -286v-517q0 -61 -15 -91q-25 -48 -87 -48t-87 48q-15 30 -15 91v487q0 113 -56.5 168.5 t-147.5 55.5q-92 0 -151 -56.5t-59 -167.5zM779 1399l-93 -149q-27 -43 -44 -55q-22 -16 -47 -16t-49 15q-46 30 -43 77q1 25 31 74l93 149q27 43 44 55q22 16 47 16t49 -15q46 -30 43 -77q-1 -25 -31 -74z" />
<glyph unicode="&#x145;" horiz-adv-x="1443" d="M401 1000v-861q0 -42 -2.5 -60t-13.5 -38q-27 -49 -92 -49t-92 49q-11 20 -13.5 38t-2.5 60v1155q0 73 31 104q34 34 82 34q37 0 64.5 -22t61.5 -73l618 -913v861q0 42 2.5 60t13.5 38q27 49 92 49t92 -49q11 -20 13.5 -38t2.5 -60v-1156q0 -72 -31 -103q-34 -34 -82 -34 q-37 0 -64.5 22t-61.5 73zM796 -273l-93 -149q-27 -43 -44 -55q-22 -16 -47 -16t-49 15q-46 30 -43 77q1 25 31 74l93 149q27 43 44 55q22 16 47 16t49 -15q46 -30 43 -77q-1 -25 -31 -74z" />
<glyph unicode="&#x146;" horiz-adv-x="1136" d="M366 618v-487q0 -61 -15 -91q-25 -48 -87 -48t-87 48q-15 30 -15 91v751q0 67 18 97q27 43 84 43q55 0 83 -40q16 -23 18 -67q105 111 267 111q155 0 250 -92q102 -99 102 -286v-517q0 -61 -15 -91q-25 -48 -87 -48t-87 48q-15 30 -15 91v487q0 113 -56.5 168.5 t-147.5 55.5q-92 0 -151 -56.5t-59 -167.5zM649 -273l-93 -149q-27 -43 -44 -55q-22 -16 -47 -16t-49 15q-46 30 -43 77q1 25 31 74l93 149q27 43 44 55q22 16 47 16t49 -15q46 -30 43 -77q-1 -25 -31 -74z" />
<glyph unicode="&#x147;" horiz-adv-x="1443" d="M401 1000v-861q0 -42 -2.5 -60t-13.5 -38q-27 -49 -92 -49t-92 49q-11 20 -13.5 38t-2.5 60v1155q0 73 31 104q34 34 82 34q37 0 64.5 -22t61.5 -73l618 -913v861q0 42 2.5 60t13.5 38q27 49 92 49t92 -49q11 -20 13.5 -38t2.5 -60v-1156q0 -72 -31 -103q-34 -34 -82 -34 q-37 0 -64.5 22t-61.5 73zM423 1807q-11 42 23 76q33 34 76 23q26 -8 61 -43l138 -138l138 138q35 35 61 43q42 11 76 -23t23 -76q-8 -26 -43 -61l-167 -167q-47 -47 -88 -47t-88 47l-167 167q-35 35 -43 61z" />
<glyph unicode="&#x148;" horiz-adv-x="1136" d="M366 618v-487q0 -61 -15 -91q-25 -48 -87 -48t-87 48q-15 30 -15 91v751q0 67 18 97q27 43 84 43q55 0 83 -40q16 -23 18 -67q105 111 267 111q155 0 250 -92q102 -99 102 -286v-517q0 -61 -15 -91q-25 -48 -87 -48t-87 48q-15 30 -15 91v487q0 113 -56.5 168.5 t-147.5 55.5q-92 0 -151 -56.5t-59 -167.5zM278 1442q-11 42 23 76q33 34 76 23q26 -8 61 -43l138 -138l138 138q35 35 61 43q42 11 76 -23t23 -76q-8 -26 -43 -61l-167 -167q-47 -47 -88 -47t-88 47l-167 167q-35 35 -43 61z" />
<glyph unicode="&#x149;" horiz-adv-x="1529" d="M759 618v-487q0 -61 -15 -91q-25 -48 -87 -48t-87 48q-15 30 -15 91v751q0 67 18 97q27 43 84 43q55 0 83 -40q16 -23 18 -67q105 111 267 111q155 0 250 -92q102 -99 102 -286v-517q0 -61 -15 -91q-25 -48 -87 -48t-87 48q-15 30 -15 91v487q0 113 -56.5 168.5 t-147.5 55.5q-92 0 -151 -56.5t-59 -167.5zM397 1267l-71 -211q-20 -61 -41 -81q-25 -24 -64 -24q-33 0 -65 20.5t-38 57.5q-6 31 14 91l71 211q20 61 41 81q26 24 64 24q33 0 65 -20.5t38 -57.5q6 -31 -14 -91z" />
<glyph unicode="&#x14a;" horiz-adv-x="1443" d="M1258 1285v-1418q0 -78 -28 -139.5t-91.5 -101.5t-155.5 -40h-20q-57 0 -86 16q-41 22 -41 71q0 50 41 72q22 12 74 14q103 3 103 117v164l-653 958v-859q0 -42 -2.5 -60t-13.5 -38q-27 -49 -92 -49t-92 49q-11 20 -13.5 38t-2.5 60v1156q0 71 32 104q31 33 80 33 q38 0 65.5 -21.5t62.5 -73.5l617 -911v859q0 42 2.5 60t13.5 38q27 49 92 49t92 -49q11 -20 13.5 -38t2.5 -60z" />
<glyph unicode="&#x14b;" horiz-adv-x="1136" d="M984 648v-781q0 -78 -28 -139.5t-91.5 -101.5t-155.5 -40h-20q-57 0 -86 16q-41 22 -41 71q0 50 41 72q22 12 74 14q103 3 103 117v742q0 113 -56.5 168.5t-147.5 55.5q-92 0 -151 -56.5t-59 -167.5v-487q0 -61 -15 -91q-25 -48 -87 -48t-87 48q-15 30 -15 91v751 q0 67 18 97q27 43 84 43q55 0 83 -40q16 -23 18 -67q105 111 267 111q155 0 250 -92q102 -99 102 -286z" />
<glyph unicode="&#x14c;" horiz-adv-x="1294" d="M278 133q-41 41 -68 86.5t-42 88.5t-22.5 113t-9 127t-1.5 164t1.5 164t9 127t22.5 113t42 88.5t68 86.5q145 145 369 145q223 0 368 -145q41 -41 68 -86.5t42.5 -89t23 -112.5t9 -127t1.5 -164t-1.5 -164t-9 -127t-23 -112.5t-42.5 -89t-68 -86.5q-145 -145 -368 -145 q-224 0 -369 145zM435 270q84 -90 212 -90q127 0 212 90q52 56 68 142t16 300t-16 300.5t-68 142.5q-84 89 -212 89q-129 0 -212 -89q-52 -55 -68 -141.5t-16 -301.5t16 -301t68 -141zM335 1684q0 48 38 69q23 13 74 13h399q52 0 74 -13q38 -21 38 -69t-38 -69 q-22 -13 -74 -13h-399q-51 0 -74 13q-38 21 -38 69z" />
<glyph unicode="&#x14d;" horiz-adv-x="1074" d="M319 507q0 -99 14 -167t56 -110q57 -58 148 -58t148 58q42 42 56 110t14 167q0 98 -14 166.5t-56 110.5q-57 58 -148 58t-148 -58q-42 -42 -56 -110.5t-14 -166.5zM115 507q0 141 24.5 234t94.5 165q116 120 303 120t303 -120q69 -72 94 -165.5t25 -233.5t-25 -233.5 t-94 -165.5q-116 -120 -303 -120t-303 120q-70 72 -94.5 165t-24.5 234zM848 1319q0 -49 -37 -69q-23 -13 -74 -13h-399q-51 0 -74 13q-38 21 -38 69t38 69q23 13 74 13h399q51 0 74 -13q37 -20 37 -69z" />
<glyph unicode="&#x14e;" horiz-adv-x="1294" d="M278 133q-41 41 -68 86.5t-42 88.5t-22.5 113t-9 127t-1.5 164t1.5 164t9 127t22.5 113t42 88.5t68 86.5q145 145 369 145q223 0 368 -145q41 -41 68 -86.5t42.5 -89t23 -112.5t9 -127t1.5 -164t-1.5 -164t-9 -127t-23 -112.5t-42.5 -89t-68 -86.5q-145 -145 -368 -145 q-224 0 -369 145zM435 270q84 -90 212 -90q127 0 212 90q52 56 68 142t16 300t-16 300.5t-68 142.5q-84 89 -212 89q-129 0 -212 -89q-52 -55 -68 -141.5t-16 -301.5t16 -301t68 -141zM646 1714q81 0 163 72q29 25 54 26q34 2 59 -26q23 -26 21 -56q-1 -37 -45 -75 q-111 -102 -252 -102t-252 102q-44 38 -45 75q-2 30 21 56q25 28 59 26q25 -1 54 -26q82 -72 163 -72z" />
<glyph unicode="&#x14f;" horiz-adv-x="1074" d="M319 507q0 -99 14 -167t56 -110q57 -58 148 -58t148 58q42 42 56 110t14 167q0 98 -14 166.5t-56 110.5q-57 58 -148 58t-148 -58q-42 -42 -56 -110.5t-14 -166.5zM115 507q0 141 24.5 234t94.5 165q116 120 303 120t303 -120q69 -72 94 -165.5t25 -233.5t-25 -233.5 t-94 -165.5q-116 -120 -303 -120t-303 120q-70 72 -94.5 165t-24.5 234zM538 1349q81 0 163 72q29 25 54 26q34 2 59 -26q23 -26 21 -56q-1 -37 -45 -75q-111 -102 -252 -102t-252 102q-44 38 -45 75q-2 30 21 56q25 28 59 26q25 -1 54 -26q82 -72 163 -72z" />
<glyph unicode="&#x150;" horiz-adv-x="1294" d="M278 133q-41 41 -68 86.5t-42 88.5t-22.5 113t-9 127t-1.5 164t1.5 164t9 127t22.5 113t42 88.5t68 86.5q145 145 369 145q223 0 368 -145q41 -41 68 -86.5t42.5 -89t23 -112.5t9 -127t1.5 -164t-1.5 -164t-9 -127t-23 -112.5t-42.5 -89t-68 -86.5q-145 -145 -368 -145 q-224 0 -369 145zM435 270q84 -90 212 -90q127 0 212 90q52 56 68 142t16 300t-16 300.5t-68 142.5q-84 89 -212 89q-129 0 -212 -89q-52 -55 -68 -141.5t-16 -301.5t16 -301t68 -141zM665 1760l-93 -149q-27 -43 -44 -55q-22 -16 -47 -16t-49 15q-46 30 -43 77q1 25 31 74 l93 149q27 43 44 55q22 16 47 16t49 -15q46 -30 43 -77q-1 -25 -31 -74zM1034 1760l-93 -149q-27 -43 -44 -55q-22 -16 -47 -16t-49 15q-46 30 -43 77q1 25 31 74l93 149q27 43 44 55q22 16 47 16t49 -15q46 -30 43 -77q-1 -25 -31 -74z" />
<glyph unicode="&#x151;" horiz-adv-x="1074" d="M319 507q0 -99 14 -167t56 -110q57 -58 148 -58t148 58q42 42 56 110t14 167q0 98 -14 166.5t-56 110.5q-57 58 -148 58t-148 -58q-42 -42 -56 -110.5t-14 -166.5zM115 507q0 141 24.5 234t94.5 165q116 120 303 120t303 -120q69 -72 94 -165.5t25 -233.5t-25 -233.5 t-94 -165.5q-116 -120 -303 -120t-303 120q-70 72 -94.5 165t-24.5 234zM556 1399l-93 -149q-27 -43 -44 -55q-22 -16 -47 -16t-49 15q-46 30 -43 77q1 25 31 74l93 149q27 43 44 55q22 16 47 16t49 -15q46 -30 43 -77q-1 -25 -31 -74zM927 1399l-93 -149q-27 -43 -44 -55 q-22 -16 -47 -16t-49 15q-46 30 -43 77q1 25 31 74l93 149q27 43 44 55q22 16 47 16t49 -15q46 -30 43 -77q-1 -25 -31 -74z" />
<glyph unicode="&#x152;" horiz-adv-x="1960" d="M435 270q84 -90 212 -90q127 0 212 90q52 56 68 142t16 300t-16 300.5t-68 142.5q-84 89 -212 89q-129 0 -212 -89q-52 -55 -68 -141.5t-16 -301.5t16 -301t68 -141zM1730 0h-662q-69 0 -100 31q-26 26 -31 56q-120 -99 -290 -99q-224 0 -369 145q-41 41 -68 86.5 t-42 88.5t-22.5 113t-9 127t-1.5 164t1.5 164t9 127t22.5 113t42 88.5t68 86.5q145 145 369 145q170 0 290 -99q5 30 31 56q31 31 100 31h662q62 0 88 -14q44 -25 44 -82t-44 -82q-26 -14 -88 -14h-572v-418h470q62 0 88 -14q44 -25 44 -82t-44 -82q-26 -14 -88 -14h-470 v-430h572q62 0 88 -14q44 -25 44 -82t-44 -82q-26 -14 -88 -14z" />
<glyph unicode="&#x153;" horiz-adv-x="1721" d="M320 507q0 -99 14 -167t56 -110q57 -58 148 -58t148 58q42 42 56 110t14 167q0 98 -14 166.5t-56 110.5q-57 58 -148 58t-148 -58q-42 -42 -56 -110.5t-14 -166.5zM1415 590q-6 89 -28 138q-26 59 -78 93t-122 34q-72 0 -124 -34t-78 -93q-23 -51 -26 -138h456z M1187 1027q195 -1 309.5 -129t119.5 -333v-8q0 -55 -28 -83q-26 -26 -90 -26h-539q0 -132 67.5 -209t192.5 -77q115 0 195 64q46 37 83 37q31 0 57.5 -26.5t26.5 -60.5q0 -58 -102 -123q-99 -65 -266 -65q-238 0 -351 160q-50 -75 -133.5 -117.5t-190.5 -42.5 q-187 0 -303 120q-70 72 -95 165.5t-25 233.5t25 233.5t95 165.5q117 121 303 121q109 0 192.5 -43t134.5 -120q109 163 322 163z" />
<glyph unicode="&#x154;" horiz-adv-x="1313" d="M201 41q-11 20 -13.5 38t-2.5 60v1153q0 70 31 101t101 31h420q200 0 321 -116t121 -300q0 -146 -78.5 -244t-203.5 -134l255 -445q33 -58 34 -89q2 -57 -53 -89q-25 -15 -58 -15q-37 0 -59.5 21.5t-47.5 66.5l-297 520h-270v-461q0 -42 -2.5 -60t-13.5 -38 q-27 -49 -92 -49t-92 49zM721 1232h-320v-448h320q110 0 176 59t66 163q0 105 -66.5 165.5t-175.5 60.5zM856 1760l-93 -149q-27 -43 -44 -55q-22 -16 -47 -16t-49 15q-46 30 -43 77q1 25 31 74l93 149q27 43 44 55q22 16 47 16t49 -15q46 -30 43 -77q-1 -25 -31 -74z" />
<glyph unicode="&#x155;" horiz-adv-x="880" d="M365 908q44 54 112 86t146 32q108 0 178 -47q61 -40 61 -92q0 -44 -30 -74q-28 -28 -70 -28q-32 0 -79 27q-54 30 -110 30q-89 0 -148 -62t-59 -165v-484q0 -61 -15 -91q-25 -48 -87 -48t-87 48q-15 30 -15 91v751q0 67 18 97q27 43 84 43q55 0 83 -40q16 -23 18 -74z M640 1399l-93 -149q-27 -43 -44 -55q-22 -16 -47 -16t-49 15q-46 30 -43 77q1 25 31 74l93 149q27 43 44 55q22 16 47 16t49 -15q46 -30 43 -77q-1 -25 -31 -74z" />
<glyph unicode="&#x156;" horiz-adv-x="1313" d="M201 41q-11 20 -13.5 38t-2.5 60v1153q0 70 31 101t101 31h420q200 0 321 -116t121 -300q0 -146 -78.5 -244t-203.5 -134l255 -445q33 -58 34 -89q2 -57 -53 -89q-25 -15 -58 -15q-37 0 -59.5 21.5t-47.5 66.5l-297 520h-270v-461q0 -42 -2.5 -60t-13.5 -38 q-27 -49 -92 -49t-92 49zM721 1232h-320v-448h320q110 0 176 59t66 163q0 105 -66.5 165.5t-175.5 60.5zM741 -273l-93 -149q-27 -43 -44 -55q-22 -16 -47 -16t-49 15q-46 30 -43 77q1 25 31 74l93 149q27 43 44 55q22 16 47 16t49 -15q46 -30 43 -77q-1 -25 -31 -74z" />
<glyph unicode="&#x157;" horiz-adv-x="880" d="M365 908q44 54 112 86t146 32q108 0 178 -47q61 -40 61 -92q0 -44 -30 -74q-28 -28 -70 -28q-32 0 -79 27q-54 30 -110 30q-89 0 -148 -62t-59 -165v-484q0 -61 -15 -91q-25 -48 -87 -48t-87 48q-15 30 -15 91v751q0 67 18 97q27 43 84 43q55 0 83 -40q16 -23 18 -74z M312 -273l-93 -149q-27 -43 -44 -55q-22 -16 -47 -16t-49 15q-46 30 -43 77q1 25 31 74l93 149q27 43 44 55q22 16 47 16t49 -15q46 -30 43 -77q-1 -25 -31 -74z" />
<glyph unicode="&#x158;" horiz-adv-x="1313" d="M201 41q-11 20 -13.5 38t-2.5 60v1153q0 70 31 101t101 31h420q200 0 321 -116t121 -300q0 -146 -78.5 -244t-203.5 -134l255 -445q33 -58 34 -89q2 -57 -53 -89q-25 -15 -58 -15q-37 0 -59.5 21.5t-47.5 66.5l-297 520h-270v-461q0 -42 -2.5 -60t-13.5 -38 q-27 -49 -92 -49t-92 49zM721 1232h-320v-448h320q110 0 176 59t66 163q0 105 -66.5 165.5t-175.5 60.5zM356 1807q-11 42 23 76q33 34 76 23q26 -8 61 -43l138 -138l138 138q35 35 61 43q42 11 76 -23t23 -76q-8 -26 -43 -61l-167 -167q-47 -47 -88 -47t-88 47l-167 167 q-35 35 -43 61z" />
<glyph unicode="&#x159;" horiz-adv-x="880" d="M365 908q44 54 112 86t146 32q108 0 178 -47q61 -40 61 -92q0 -44 -30 -74q-28 -28 -70 -28q-32 0 -79 27q-54 30 -110 30q-89 0 -148 -62t-59 -165v-484q0 -61 -15 -91q-25 -48 -87 -48t-87 48q-15 30 -15 91v751q0 67 18 97q27 43 84 43q55 0 83 -40q16 -23 18 -74z M139 1442q-11 42 23 76q33 34 76 23q26 -8 61 -43l138 -138l138 138q35 35 61 43q42 11 76 -23t23 -76q-8 -26 -43 -61l-167 -167q-47 -47 -88 -47t-88 47l-167 167q-35 35 -43 61z" />
<glyph unicode="&#x15a;" horiz-adv-x="1182" d="M571 180q141 0 217.5 57.5t76.5 162.5q0 100 -56 148q-51 45 -155 60l-169 24q-172 25 -269 115q-105 96 -105 273q0 188 128 302t348 114q100 0 172.5 -18.5t162.5 -65.5q87 -45 87 -109q0 -37 -25 -66q-26 -31 -66 -31q-37 0 -87 31q-63 39 -120 54.5t-132 15.5 q-123 0 -190.5 -60.5t-67.5 -160.5q0 -88 52 -132q54 -48 156 -64l170 -26q97 -15 157 -39.5t107 -66.5q116 -107 116 -292q0 -193 -141.5 -305.5t-370.5 -112.5q-124 0 -212.5 23.5t-170.5 72.5q-57 34 -79 61t-22 65q0 41 30 71q26 26 63 26q40 0 92 -36q72 -49 141.5 -70 t161.5 -21zM792 1760l-93 -149q-27 -43 -44 -55q-22 -16 -47 -16t-49 15q-46 30 -43 77q1 25 31 74l93 149q27 43 44 55q22 16 47 16t49 -15q46 -30 43 -77q-1 -25 -31 -74z" />
<glyph unicode="&#x15b;" horiz-adv-x="999" d="M489 -12q-218 0 -353 92q-56 38 -56 85q0 43 33 70q24 21 56 21q31 0 76 -29q105 -68 245 -68q102 0 162.5 36.5t60.5 106.5q0 107 -137 120l-163 15q-300 27 -300 278q0 145 109 228t274 83q153 0 273 -56q46 -22 66 -43q19 -23 19 -56t-25 -60q-26 -26 -60 -26 q-22 0 -66 21q-109 53 -211 53q-88 0 -135 -36.5t-47 -96.5q0 -55 34.5 -82.5t105.5 -33.5l160 -15q301 -29 301 -286q0 -154 -117 -237.5t-305 -83.5zM714 1399l-93 -149q-27 -43 -44 -55q-22 -16 -47 -16t-49 15q-46 30 -43 77q1 25 31 74l93 149q27 43 44 55q22 16 47 16 t49 -15q46 -30 43 -77q-1 -25 -31 -74z" />
<glyph unicode="&#x15c;" horiz-adv-x="1182" d="M571 180q141 0 217.5 57.5t76.5 162.5q0 100 -56 148q-51 45 -155 60l-169 24q-172 25 -269 115q-105 96 -105 273q0 188 128 302t348 114q100 0 172.5 -18.5t162.5 -65.5q87 -45 87 -109q0 -37 -25 -66q-26 -31 -66 -31q-37 0 -87 31q-63 39 -120 54.5t-132 15.5 q-123 0 -190.5 -60.5t-67.5 -160.5q0 -88 52 -132q54 -48 156 -64l170 -26q97 -15 157 -39.5t107 -66.5q116 -107 116 -292q0 -193 -141.5 -305.5t-370.5 -112.5q-124 0 -212.5 23.5t-170.5 72.5q-57 34 -79 61t-22 65q0 41 30 71q26 26 63 26q40 0 92 -36q72 -49 141.5 -70 t161.5 -21zM590 1913q40 0 88 -48l166 -166q37 -37 43 -61q13 -42 -22 -77q-36 -34 -76 -22q-26 7 -62 43l-137 138l-137 -138q-36 -36 -62 -43q-40 -12 -76 22q-35 35 -22 77q6 24 43 61l166 166q48 48 88 48z" />
<glyph unicode="&#x15d;" horiz-adv-x="999" d="M489 -12q-218 0 -353 92q-56 38 -56 85q0 43 33 70q24 21 56 21q31 0 76 -29q105 -68 245 -68q102 0 162.5 36.5t60.5 106.5q0 107 -137 120l-163 15q-300 27 -300 278q0 145 109 228t274 83q153 0 273 -56q46 -22 66 -43q19 -23 19 -56t-25 -60q-26 -26 -60 -26 q-22 0 -66 21q-109 53 -211 53q-88 0 -135 -36.5t-47 -96.5q0 -55 34.5 -82.5t105.5 -33.5l160 -15q301 -29 301 -286q0 -154 -117 -237.5t-305 -83.5zM511 1548q40 0 88 -48l166 -166q37 -37 43 -61q13 -42 -22 -77q-36 -34 -76 -22q-26 7 -62 43l-137 138l-137 -138 q-36 -36 -62 -43q-40 -12 -76 22q-35 35 -22 77q6 24 43 61l166 166q48 48 88 48z" />
<glyph unicode="&#x15e;" horiz-adv-x="1182" d="M571 180q141 0 217.5 57.5t76.5 162.5q0 100 -56 148q-51 45 -155 60l-169 24q-172 25 -269 115q-105 96 -105 273q0 188 128 302t348 114q100 0 172.5 -18.5t162.5 -65.5q87 -45 87 -109q0 -37 -25 -66q-26 -31 -66 -31q-37 0 -87 31q-63 39 -120 54.5t-132 15.5 q-123 0 -190.5 -60.5t-67.5 -160.5q0 -88 52 -132q54 -48 156 -64l170 -26q97 -15 157 -39.5t107 -66.5q116 -107 116 -292q0 -193 -141.5 -305.5t-370.5 -112.5q-124 0 -212.5 23.5t-170.5 72.5q-57 34 -79 61t-22 65q0 41 30 71q26 26 63 26q40 0 92 -36q72 -49 141.5 -70 t161.5 -21zM385 -478q-47 29 -44 77q1 26 32 74l93 149q28 44 44 55q22 16 47 16t49 -15q46 -30 43 -77q-1 -25 -31 -74l-93 -149q-27 -43 -44 -56q-23 -15 -47 -15q-27 0 -49 15z" />
<glyph unicode="&#x15f;" horiz-adv-x="999" d="M489 -12q-218 0 -353 92q-56 38 -56 85q0 43 33 70q24 21 56 21q31 0 76 -29q105 -68 245 -68q102 0 162.5 36.5t60.5 106.5q0 107 -137 120l-163 15q-300 27 -300 278q0 145 109 228t274 83q153 0 273 -56q46 -22 66 -43q19 -23 19 -56t-25 -60q-26 -26 -60 -26 q-22 0 -66 21q-109 53 -211 53q-88 0 -135 -36.5t-47 -96.5q0 -55 34.5 -82.5t105.5 -33.5l160 -15q301 -29 301 -286q0 -154 -117 -237.5t-305 -83.5zM325 -478q-47 29 -44 77q1 26 32 74l93 149q28 44 44 55q22 16 47 16t49 -15q46 -30 43 -77q-1 -25 -31 -74l-93 -149 q-27 -43 -44 -56q-23 -15 -47 -15q-26 0 -49 15z" />
<glyph unicode="&#x160;" horiz-adv-x="1182" d="M571 180q141 0 217.5 57.5t76.5 162.5q0 100 -56 148q-51 45 -155 60l-169 24q-172 25 -269 115q-105 96 -105 273q0 188 128 302t348 114q100 0 172.5 -18.5t162.5 -65.5q87 -45 87 -109q0 -37 -25 -66q-26 -31 -66 -31q-37 0 -87 31q-63 39 -120 54.5t-132 15.5 q-123 0 -190.5 -60.5t-67.5 -160.5q0 -88 52 -132q54 -48 156 -64l170 -26q97 -15 157 -39.5t107 -66.5q116 -107 116 -292q0 -193 -141.5 -305.5t-370.5 -112.5q-124 0 -212.5 23.5t-170.5 72.5q-57 34 -79 61t-22 65q0 41 30 71q26 26 63 26q40 0 92 -36q72 -49 141.5 -70 t161.5 -21zM292 1807q-11 42 23 76q33 34 76 23q26 -8 61 -43l138 -138l138 138q35 35 61 43q42 11 76 -23t23 -76q-8 -26 -43 -61l-167 -167q-47 -47 -88 -47t-88 47l-167 167q-35 35 -43 61z" />
<glyph unicode="&#x161;" horiz-adv-x="999" d="M489 -12q-218 0 -353 92q-56 38 -56 85q0 43 33 70q24 21 56 21q31 0 76 -29q105 -68 245 -68q102 0 162.5 36.5t60.5 106.5q0 107 -137 120l-163 15q-300 27 -300 278q0 145 109 228t274 83q153 0 273 -56q46 -22 66 -43q19 -23 19 -56t-25 -60q-26 -26 -60 -26 q-22 0 -66 21q-109 53 -211 53q-88 0 -135 -36.5t-47 -96.5q0 -55 34.5 -82.5t105.5 -33.5l160 -15q301 -29 301 -286q0 -154 -117 -237.5t-305 -83.5zM213 1442q-11 42 23 76q33 34 76 23q26 -8 61 -43l138 -138l138 138q35 35 61 43q42 11 76 -23t23 -76q-8 -26 -43 -61 l-167 -167q-47 -47 -88 -47t-88 47l-167 167q-35 35 -43 61z" />
<glyph unicode="&#x162;" horiz-adv-x="1116" d="M1066 1328q0 -57 -44 -82q-26 -14 -88 -14h-268v-1093q0 -42 -2.5 -60t-13.5 -38q-27 -49 -92 -49t-92 49q-11 20 -13.5 38t-2.5 60v1093h-268q-62 0 -88 14q-44 25 -44 82t44 82q26 14 88 14h752q62 0 88 -14q44 -25 44 -82zM374 -478q-47 29 -44 77q1 26 32 74l93 149 q28 44 44 55q22 16 47 16t49 -15q46 -30 43 -77q-1 -25 -31 -74l-93 -149q-27 -43 -44 -56q-23 -15 -47 -15q-27 0 -49 15z" />
<glyph unicode="&#x163;" horiz-adv-x="703" d="M204 281v577h-47q-49 0 -71 12q-36 20 -36 66t36 66q22 12 71 12h47v159q0 61 15 91q25 48 87 48t87 -48q15 -30 15 -91v-159h110q49 0 71 -12q36 -20 36 -66t-36 -66q-22 -12 -71 -12h-110v-568q0 -114 103 -117q52 -2 74 -14q41 -22 41 -72q0 -49 -41 -71 q-29 -16 -86 -16h-20q-92 0 -155.5 40t-91.5 101.5t-28 139.5zM446 -273l-93 -149q-27 -43 -44 -55q-22 -16 -47 -16t-49 15q-46 30 -43 77q1 25 31 74l93 149q27 43 44 55q22 16 47 16t49 -15q46 -30 43 -77q-1 -25 -31 -74z" />
<glyph unicode="&#x164;" horiz-adv-x="1116" d="M1066 1328q0 -57 -44 -82q-26 -14 -88 -14h-268v-1093q0 -42 -2.5 -60t-13.5 -38q-27 -49 -92 -49t-92 49q-11 20 -13.5 38t-2.5 60v1093h-268q-62 0 -88 14q-44 25 -44 82t44 82q26 14 88 14h752q62 0 88 -14q44 -25 44 -82zM259 1807q-11 42 23 76q33 34 76 23 q26 -8 61 -43l138 -138l138 138q35 35 61 43q42 11 76 -23t23 -76q-8 -26 -43 -61l-167 -167q-47 -47 -88 -47t-88 47l-167 167q-35 35 -43 61z" />
<glyph unicode="&#x165;" horiz-adv-x="703" d="M204 281v577h-47q-49 0 -71 12q-36 20 -36 66t36 66q22 12 71 12h47v159q0 61 15 91q25 48 87 48t87 -48q15 -30 15 -91v-159h110q49 0 71 -12q36 -20 36 -66t-36 -66q-22 -12 -71 -12h-110v-568q0 -114 103 -117q52 -2 74 -14q41 -22 41 -72q0 -49 -41 -71 q-29 -16 -86 -16h-20q-92 0 -155.5 40t-91.5 101.5t-28 139.5zM754 1378l-54 -162q-18 -52 -35 -70q-24 -22 -56 -22t-57 17t-32 44q-8 28 11 87l54 162q17 52 35 70q24 22 56 22t57 -17t32 -44q8 -28 -11 -87z" />
<glyph unicode="&#x166;" horiz-adv-x="1116" d="M328 804h122v428h-268q-62 0 -88 14q-44 25 -44 82t44 82q26 14 88 14h752q62 0 88 -14q44 -25 44 -82t-44 -82q-26 -14 -88 -14h-268v-428h122q57 0 79 -13q39 -23 39 -73t-39 -73q-22 -13 -79 -13h-122v-493q0 -42 -2.5 -60t-13.5 -38q-27 -49 -92 -49t-92 49 q-11 20 -13.5 38t-2.5 60v493h-122q-56 0 -78 13q-39 23 -39 73t39 73q22 13 78 13z" />
<glyph unicode="&#x167;" horiz-adv-x="703" d="M496 479h-88v-189q0 -114 103 -117q52 -2 74 -14q41 -22 41 -72q0 -49 -41 -71q-29 -16 -86 -16h-20q-92 0 -155.5 40t-91.5 101.5t-28 139.5v198h-47q-49 0 -71 12q-36 20 -36 66t36 66q22 12 71 12h47v223h-47q-49 0 -71 12q-36 20 -36 66t36 66q22 12 71 12h47v159 q0 61 15 91q25 48 87 48t87 -48q15 -30 15 -91v-159h111q49 0 71 -12q36 -20 36 -66t-36 -66q-22 -12 -71 -12h-111v-223h88q49 0 71 -12q36 -20 36 -66t-36 -66q-22 -12 -71 -12z" />
<glyph unicode="&#x168;" horiz-adv-x="1346" d="M673 -12q-220 0 -365 137t-145 355v805q0 42 2.5 60t13.5 38q27 49 92 49t92 -49q11 -20 13.5 -38t2.5 -60v-795q0 -143 80 -226.5t214 -83.5t214 83.5t80 226.5v795q0 42 2.5 60t13.5 38q27 49 92 49t92 -49q11 -20 13.5 -38t2.5 -60v-805q0 -218 -145 -355t-365 -137z M654 1619q-66 37 -107 37q-46 0 -88 -34q-32 -26 -59 -26q-34 0 -54 23q-17 20 -17 52q0 38 46 77q75 62 167 62q43 0 74.5 -10t75.5 -35q66 -37 107 -37q46 0 88 34q32 26 59 26q34 0 54 -23q17 -20 17 -52q0 -38 -46 -77q-75 -62 -167 -62q-43 0 -74.5 10t-75.5 35z" />
<glyph unicode="&#x169;" horiz-adv-x="1136" d="M770 396v487q0 61 15 91q25 48 87 48t87 -48q15 -30 15 -91v-751q0 -67 -18 -97q-27 -43 -84 -43q-55 0 -83 40q-16 23 -18 67q-105 -111 -267 -111q-155 0 -250 92q-102 99 -102 286v517q0 61 15 91q25 48 87 48t87 -48q15 -30 15 -91v-487q0 -113 56.5 -168.5 t147.5 -55.5q92 0 151 56.5t59 167.5zM542 1261q-66 37 -107 37q-46 0 -88 -34q-33 -26 -59 -26q-34 0 -54 23q-17 20 -17 52q0 38 46 77q75 62 167 62q43 0 74.5 -10t75.5 -35q66 -37 107 -37q46 0 88 34q33 26 59 26q34 0 54 -23q17 -20 17 -52q0 -38 -46 -77 q-75 -62 -167 -62q-43 0 -74.5 10t-75.5 35z" />
<glyph unicode="&#x16a;" horiz-adv-x="1346" d="M673 -12q-220 0 -365 137t-145 355v805q0 42 2.5 60t13.5 38q27 49 92 49t92 -49q11 -20 13.5 -38t2.5 -60v-795q0 -143 80 -226.5t214 -83.5t214 83.5t80 226.5v795q0 42 2.5 60t13.5 38q27 49 92 49t92 -49q11 -20 13.5 -38t2.5 -60v-805q0 -218 -145 -355t-365 -137z M362 1684q0 48 38 69q23 13 74 13h399q52 0 74 -13q38 -21 38 -69t-38 -69q-22 -13 -74 -13h-399q-51 0 -74 13q-38 21 -38 69z" />
<glyph unicode="&#x16b;" horiz-adv-x="1136" d="M770 396v487q0 61 15 91q25 48 87 48t87 -48q15 -30 15 -91v-751q0 -67 -18 -97q-27 -43 -84 -43q-55 0 -83 40q-16 23 -18 67q-105 -111 -267 -111q-155 0 -250 92q-102 99 -102 286v517q0 61 15 91q25 48 87 48t87 -48q15 -30 15 -91v-487q0 -113 56.5 -168.5 t147.5 -55.5q92 0 151 56.5t59 167.5zM871 1319q0 -49 -37 -69q-23 -13 -74 -13h-399q-51 0 -74 13q-38 21 -38 69t38 69q23 13 74 13h399q51 0 74 -13q37 -20 37 -69z" />
<glyph unicode="&#x16c;" horiz-adv-x="1346" d="M673 -12q-220 0 -365 137t-145 355v805q0 42 2.5 60t13.5 38q27 49 92 49t92 -49q11 -20 13.5 -38t2.5 -60v-795q0 -143 80 -226.5t214 -83.5t214 83.5t80 226.5v795q0 42 2.5 60t13.5 38q27 49 92 49t92 -49q11 -20 13.5 -38t2.5 -60v-805q0 -218 -145 -355t-365 -137z M673 1714q81 0 163 72q29 25 54 26q34 2 59 -26q23 -26 21 -56q-1 -37 -45 -75q-111 -102 -252 -102t-252 102q-44 38 -45 75q-2 30 21 56q25 28 59 26q25 -1 54 -26q82 -72 163 -72z" />
<glyph unicode="&#x16d;" horiz-adv-x="1136" d="M770 396v487q0 61 15 91q25 48 87 48t87 -48q15 -30 15 -91v-751q0 -67 -18 -97q-27 -43 -84 -43q-55 0 -83 40q-16 23 -18 67q-105 -111 -267 -111q-155 0 -250 92q-102 99 -102 286v517q0 61 15 91q25 48 87 48t87 -48q15 -30 15 -91v-487q0 -113 56.5 -168.5 t147.5 -55.5q92 0 151 56.5t59 167.5zM561 1349q81 0 163 72q29 25 54 26q34 2 59 -26q23 -26 21 -56q-1 -37 -45 -75q-111 -102 -252 -102t-252 102q-44 38 -45 75q-2 30 21 56q25 28 59 26q25 -1 54 -26q82 -72 163 -72z" />
<glyph unicode="&#x16e;" horiz-adv-x="1346" d="M673 -12q-220 0 -365 137t-145 355v805q0 42 2.5 60t13.5 38q27 49 92 49t92 -49q11 -20 13.5 -38t2.5 -60v-795q0 -143 80 -226.5t214 -83.5t214 83.5t80 226.5v795q0 42 2.5 60t13.5 38q27 49 92 49t92 -49q11 -20 13.5 -38t2.5 -60v-805q0 -218 -145 -355t-365 -137z M423 1749q0 103 73.5 176.5t176.5 73.5t176.5 -73.5t73.5 -176.5t-73.5 -176.5t-176.5 -73.5t-176.5 73.5t-73.5 176.5zM546 1749q0 -53 37 -90t90 -37t90 37t37 90t-37 90t-90 37t-90 -37t-37 -90z" />
<glyph unicode="&#x16f;" horiz-adv-x="1136" d="M770 396v487q0 61 15 91q25 48 87 48t87 -48q15 -30 15 -91v-751q0 -67 -18 -97q-27 -43 -84 -43q-55 0 -83 40q-16 23 -18 67q-105 -111 -267 -111q-155 0 -250 92q-102 99 -102 286v517q0 61 15 91q25 48 87 48t87 -48q15 -30 15 -91v-487q0 -113 56.5 -168.5 t147.5 -55.5q92 0 151 56.5t59 167.5zM311 1402q0 104 73.5 177t176.5 73t176.5 -73t73.5 -177t-73.5 -177t-176.5 -73t-176.5 73t-73.5 177zM434 1402q0 -52 37 -89.5t90 -37.5t90 37.5t37 89.5t-37 89.5t-90 37.5t-90 -37.5t-37 -89.5z" />
<glyph unicode="&#x170;" horiz-adv-x="1346" d="M673 -12q-220 0 -365 137t-145 355v805q0 42 2.5 60t13.5 38q27 49 92 49t92 -49q11 -20 13.5 -38t2.5 -60v-795q0 -143 80 -226.5t214 -83.5t214 83.5t80 226.5v795q0 42 2.5 60t13.5 38q27 49 92 49t92 -49q11 -20 13.5 -38t2.5 -60v-805q0 -218 -145 -355t-365 -137z M692 1760l-93 -149q-27 -43 -44 -55q-22 -16 -47 -16t-49 15q-46 30 -43 77q1 25 31 74l93 149q27 43 44 55q22 16 47 16t49 -15q46 -30 43 -77q-1 -25 -31 -74zM1061 1760l-93 -149q-27 -43 -44 -55q-22 -16 -47 -16t-49 15q-46 30 -43 77q1 25 31 74l93 149q27 43 44 55 q22 16 47 16t49 -15q46 -30 43 -77q-1 -25 -31 -74z" />
<glyph unicode="&#x171;" horiz-adv-x="1136" d="M770 396v487q0 61 15 91q25 48 87 48t87 -48q15 -30 15 -91v-751q0 -67 -18 -97q-27 -43 -84 -43q-55 0 -83 40q-16 23 -18 67q-105 -111 -267 -111q-155 0 -250 92q-102 99 -102 286v517q0 61 15 91q25 48 87 48t87 -48q15 -30 15 -91v-487q0 -113 56.5 -168.5 t147.5 -55.5q92 0 151 56.5t59 167.5zM579 1399l-93 -149q-27 -43 -44 -55q-22 -16 -47 -16t-49 15q-46 30 -43 77q1 25 31 74l93 149q27 43 44 55q22 16 47 16t49 -15q46 -30 43 -77q-1 -25 -31 -74zM950 1399l-93 -149q-27 -43 -44 -55q-22 -16 -47 -16t-49 15 q-46 30 -43 77q1 25 31 74l93 149q27 43 44 55q22 16 47 16t49 -15q46 -30 43 -77q-1 -25 -31 -74z" />
<glyph unicode="&#x172;" horiz-adv-x="1346" d="M673 -12q-220 0 -365 137t-145 355v805q0 42 2.5 60t13.5 38q27 49 92 49t92 -49q11 -20 13.5 -38t2.5 -60v-795q0 -143 80 -226.5t214 -83.5t214 83.5t80 226.5v795q0 42 2.5 60t13.5 38q27 49 92 49t92 -49q11 -20 13.5 -38t2.5 -60v-805q0 -218 -145 -355t-365 -137z M723 -478q-47 29 -44 77q1 26 32 74l93 149q28 44 44 55q22 16 47 16t49 -15q46 -30 43 -77q-1 -25 -31 -74l-93 -149q-27 -43 -44 -56q-23 -15 -47 -15q-26 0 -49 15z" />
<glyph unicode="&#x173;" horiz-adv-x="1136" d="M770 396v487q0 61 15 91q25 48 87 48t87 -48q15 -30 15 -91v-751q0 -67 -18 -97q-27 -43 -84 -43q-55 0 -83 40q-16 23 -18 67q-105 -111 -267 -111q-155 0 -250 92q-102 99 -102 286v517q0 61 15 91q25 48 87 48t87 -48q15 -30 15 -91v-487q0 -113 56.5 -168.5 t147.5 -55.5q92 0 151 56.5t59 167.5zM673 -478q-47 29 -44 77q1 26 32 74l93 149q28 44 44 55q22 16 47 16t49 -15q46 -30 43 -77q-1 -25 -31 -74l-93 -149q-27 -43 -44 -56q-23 -15 -47 -15q-26 0 -49 15z" />
<glyph unicode="&#x174;" horiz-adv-x="1730" d="M865 1431q47 0 74 -26q23 -23 37 -72l260 -931l228 916q16 64 36 86q26 28 69 28q35 0 64 -20t36 -50q7 -28 -9 -93l-288 -1156q-17 -66 -50 -94q-33 -27 -77 -27t-77 27q-31 26 -50 94l-253 902l-253 -902q-19 -68 -50 -94q-33 -27 -77 -27t-77 27q-33 28 -50 94 l-288 1156q-16 65 -9 93q7 30 36 50t64 20q43 0 69 -28q20 -22 36 -86l228 -916l260 931q14 49 37 72q27 26 74 26zM863 1913q40 0 88 -48l166 -166q37 -37 43 -61q13 -42 -22 -77q-36 -34 -76 -22q-26 7 -62 43l-137 138l-137 -138q-36 -36 -62 -43q-40 -12 -76 22 q-35 35 -22 77q6 24 43 61l166 166q48 48 88 48z" />
<glyph unicode="&#x175;" horiz-adv-x="1466" d="M733 717l-186 -599q-23 -77 -52 -99q-32 -27 -75 -27q-44 0 -76 27q-29 22 -52 99l-222 747q-17 59 -10 88t34.5 49t61.5 20q38 0 65 -27q18 -18 35 -77l175 -615l183 599q22 72 50 95q28 25 69 25t69 -25q28 -23 50 -95l183 -599l175 615q17 59 35 77q27 27 65 27 q34 0 61.5 -20t34.5 -49t-10 -88l-222 -747q-23 -77 -52 -99q-32 -27 -76 -27q-43 0 -75 27q-29 22 -52 99zM734 1548q40 0 88 -48l166 -166q37 -37 43 -61q13 -42 -22 -77q-36 -34 -76 -22q-26 7 -62 43l-137 138l-137 -138q-36 -36 -62 -43q-40 -12 -76 22q-35 35 -22 77 q6 24 43 61l166 166q48 48 88 48z" />
<glyph unicode="&#x176;" horiz-adv-x="1046" d="M44 1340q2 53 56 80q24 12 51 12q26 0 49 -15q24 -17 53 -75l270 -541l270 541q29 58 53 75q22 15 49 15t51 -12q54 -27 56 -80q1 -33 -27 -89l-344 -684v-428q0 -42 -2.5 -60t-13.5 -38q-27 -49 -92 -49t-92 49q-11 20 -13.5 38t-2.5 60v428l-344 684q-28 57 -27 89z M522 1913q40 0 88 -48l166 -166q37 -37 43 -61q13 -42 -22 -77q-36 -34 -76 -22q-26 7 -62 43l-137 138l-137 -138q-36 -36 -62 -43q-40 -12 -76 22q-35 35 -22 77q6 24 43 61l166 166q48 48 88 48z" />
<glyph unicode="&#x177;" horiz-adv-x="898" d="M834 863l-369 -1066q-29 -82 -74 -126q-76 -75 -199 -75q-67 0 -94 24q-29 26 -29 69q0 48 31 72q24 19 68 19q48 0 79.5 24t51.5 84l49 149l-284 826q-22 65 -11 98q8 24 35 42.5t60 18.5q42 0 62.5 -24.5t36.5 -73.5l200 -621l204 621q16 49 36.5 73.5t62.5 24.5 q33 0 60 -18.5t35 -42.5q12 -36 -11 -98zM447 1548q40 0 88 -48l166 -166q37 -37 43 -61q13 -42 -22 -77q-36 -34 -76 -22q-26 7 -62 43l-137 138l-137 -138q-36 -36 -62 -43q-40 -12 -76 22q-35 35 -22 77q6 24 43 61l166 166q48 48 88 48z" />
<glyph unicode="&#x178;" horiz-adv-x="1046" d="M44 1340q2 53 56 80q24 12 51 12q26 0 49 -15q24 -17 53 -75l270 -541l270 541q29 58 53 75q22 15 49 15t51 -12q54 -27 56 -80q1 -33 -27 -89l-344 -684v-428q0 -42 -2.5 -60t-13.5 -38q-27 -49 -92 -49t-92 49q-11 20 -13.5 38t-2.5 60v428l-344 684q-28 57 -27 89z M854 1678q0 -47 -33 -80.5t-79 -33.5t-80 34t-34 80t33.5 79t80.5 33q46 0 79 -33t33 -79zM416 1678q0 -46 -34 -80t-80 -34t-79 33.5t-33 80.5q0 46 33 79t79 33q47 0 80.5 -33t33.5 -79z" />
<glyph unicode="&#x179;" horiz-adv-x="1115" d="M247 1424h628q83 0 114 -32q32 -32 32 -79q0 -37 -36 -96l-631 -1025h536q62 0 88 -14q44 -25 44 -82t-44 -82q-26 -14 -88 -14h-657q-82 0 -114 32t-32 79q0 36 37 96l630 1025h-507q-62 0 -88 14q-44 25 -44 82t44 82q26 14 88 14zM768 1760l-93 -149q-27 -43 -44 -55 q-22 -16 -47 -16t-49 15q-46 30 -43 77q1 25 31 74l93 149q27 43 44 55q22 16 47 16t49 -15q46 -30 43 -77q-1 -25 -31 -74z" />
<glyph unicode="&#x17a;" horiz-adv-x="926" d="M224 1014h497q59 0 88 -17q41 -24 41 -71q0 -43 -41 -99l-467 -643h385q60 0 83 -14q42 -25 42 -78t-42 -78q-25 -14 -83 -14h-525q-60 0 -88 17q-40 22 -40 72q0 26 8.5 46t32.5 53l465 642h-356q-58 0 -83 14q-42 25 -42 78t42 78q23 14 83 14zM685 1399l-93 -149 q-27 -43 -44 -55q-22 -16 -47 -16t-49 15q-46 30 -43 77q1 25 31 74l93 149q27 43 44 55q22 16 47 16t49 -15q46 -30 43 -77q-1 -25 -31 -74z" />
<glyph unicode="&#x17b;" horiz-adv-x="1115" d="M247 1424h628q83 0 114 -32q32 -32 32 -79q0 -37 -36 -96l-631 -1025h536q62 0 88 -14q44 -25 44 -82t-44 -82q-26 -14 -88 -14h-657q-82 0 -114 32t-32 79q0 36 37 96l630 1025h-507q-62 0 -88 14q-44 25 -44 82t44 82q26 14 88 14zM454 1688q0 46 33 79.5t80 33.5 t80 -33.5t33 -79.5t-33 -79.5t-80 -33.5t-80 33.5t-33 79.5z" />
<glyph unicode="&#x17c;" horiz-adv-x="926" d="M224 1014h497q59 0 88 -17q41 -24 41 -71q0 -43 -41 -99l-467 -643h385q60 0 83 -14q42 -25 42 -78t-42 -78q-25 -14 -83 -14h-525q-60 0 -88 17q-40 22 -40 72q0 26 8.5 46t32.5 53l465 642h-356q-58 0 -83 14q-42 25 -42 78t42 78q23 14 83 14zM369 1323q0 47 33.5 80 t79.5 33t79.5 -33t33.5 -80t-33.5 -80t-79.5 -33t-79.5 33t-33.5 80z" />
<glyph unicode="&#x17d;" horiz-adv-x="1115" d="M247 1424h628q83 0 114 -32q32 -32 32 -79q0 -37 -36 -96l-631 -1025h536q62 0 88 -14q44 -25 44 -82t-44 -82q-26 -14 -88 -14h-657q-82 0 -114 32t-32 79q0 36 37 96l630 1025h-507q-62 0 -88 14q-44 25 -44 82t44 82q26 14 88 14zM268 1807q-11 42 23 76q33 34 76 23 q26 -8 61 -43l138 -138l138 138q35 35 61 43q42 11 76 -23t23 -76q-8 -26 -43 -61l-167 -167q-47 -47 -88 -47t-88 47l-167 167q-35 35 -43 61z" />
<glyph unicode="&#x17e;" horiz-adv-x="926" d="M224 1014h497q59 0 88 -17q41 -24 41 -71q0 -43 -41 -99l-467 -643h385q60 0 83 -14q42 -25 42 -78t-42 -78q-25 -14 -83 -14h-525q-60 0 -88 17q-40 22 -40 72q0 26 8.5 46t32.5 53l465 642h-356q-58 0 -83 14q-42 25 -42 78t42 78q23 14 83 14zM184 1442q-11 42 23 76 q33 34 76 23q26 -8 61 -43l138 -138l138 138q35 35 61 43q42 11 76 -23t23 -76q-8 -26 -43 -61l-167 -167q-47 -47 -88 -47t-88 47l-167 167q-35 35 -43 61z" />
<glyph unicode="&#x17f;" horiz-adv-x="528" d="M366 1144v-1013q0 -61 -15 -91q-25 -48 -87 -48t-87 48q-15 30 -15 91v1022q0 78 28 139.5t91.5 101.5t155.5 40h20q57 0 86 -16q41 -22 41 -71q0 -50 -41 -72q-22 -12 -74 -14q-103 -3 -103 -117z" />
<glyph unicode="&#x18f;" horiz-adv-x="1285" d="M1150 712q0 -107 -1.5 -164t-9 -127t-22.5 -113t-42 -88.5t-68 -86.5q-145 -145 -369 -145q-220 0 -365 145q-81 81 -109.5 185t-28.5 286v21q0 70 31 101t101 31h667q-2 182 -18 262t-67 136q-83 89 -205 89q-97 0 -160.5 -49t-104.5 -144q-26 -60 -53 -81 q-26 -21 -64 -21q-44 0 -75 30q-29 29 -29 81q0 44 27 107t82 122q69 74 156.5 110.5t216.5 36.5q222 0 367 -145q41 -41 68 -86.5t42 -88.5t22.5 -113t9 -127t1.5 -164zM342 587v-22q0 -117 17.5 -183.5t65.5 -115.5q86 -86 213 -86q129 0 212 89q44 47 61.5 113.5 t20.5 204.5h-590z" />
<glyph unicode="&#x192;" horiz-adv-x="875" d="M370 1153q29 140 108.5 210.5t199.5 70.5h18q60 0 87 -15q41 -21 41 -72t-40 -74q-19 -12 -58 -13h-19q-118 -3 -143 -127l-70 -351h118q49 0 71 -12q36 -20 36 -66t-36 -66q-22 -12 -71 -12h-149l-186 -931q-12 -64 -39 -90q-24 -22 -61 -22q-40 0 -70 28 q-23 22 -26 54.5t7 67.5l177 893h-91q-49 0 -71 12q-36 20 -36 66t36 66q22 12 71 12h122z" />
<glyph unicode="&#x1b5;" horiz-adv-x="1115" d="M317 804h174l263 428h-507q-62 0 -88 14q-44 25 -44 82t44 82q26 14 88 14h628q83 0 114 -32q32 -32 32 -79q0 -37 -36 -96l-254 -413h62q57 0 79 -13q39 -23 39 -73t-39 -73q-22 -13 -79 -13h-168l-271 -440h536q62 0 88 -14q44 -25 44 -82t-44 -82q-26 -14 -88 -14 h-657q-82 0 -114 32t-32 79q0 36 37 96l261 425h-68q-56 0 -78 13q-39 23 -39 73t39 73q22 13 78 13z" />
<glyph unicode="&#x1b6;" horiz-adv-x="926" d="M224 1014h497q59 0 88 -17q41 -24 41 -71q0 -43 -41 -99l-162 -223h32q51 0 71 -12q36 -20 36 -67q0 -46 -36 -66q-20 -12 -71 -12h-146l-191 -263h385q60 0 83 -14q42 -25 42 -78t-42 -78q-25 -14 -83 -14h-525q-60 0 -88 17q-40 22 -40 72q0 26 8.5 46t32.5 53l187 259 h-46q-52 0 -72 12q-36 20 -36 66q0 47 36 67q20 12 72 12h160l164 226h-356q-58 0 -83 14q-42 25 -42 78t42 78q23 14 83 14z" />
<glyph unicode="&#x1c4;" horiz-adv-x="2444" d="M216 1393q31 31 101 31h369q262 0 406 -181q69 -88 87 -199.5t18 -331.5q0 -217 -19 -330.5t-88 -202.5q-139 -179 -404 -179h-369q-70 0 -101 31t-31 101v1160q0 70 31 101zM401 1232v-1040h260q161 0 245 97q49 55 62 147t13 276t-13 276t-62 147q-84 97 -245 97h-260z M1576 1424h628q83 0 114 -32q32 -32 32 -79q0 -37 -36 -96l-631 -1025h536q62 0 88 -14q44 -25 44 -82t-44 -82q-26 -14 -88 -14h-657q-82 0 -114 32t-32 79q0 36 37 96l630 1025h-507q-62 0 -88 14q-44 25 -44 82t44 82q26 14 88 14zM1597 1807q-11 42 23 76q33 34 76 23 q26 -8 61 -43l138 -138l138 138q35 35 61 43q42 11 76 -23t23 -76q-8 -26 -43 -61l-167 -167q-47 -47 -88 -47t-88 47l-167 167q-35 35 -43 61z" />
<glyph unicode="&#x1c5;" horiz-adv-x="2259" d="M216 1393q31 31 101 31h369q262 0 406 -181q69 -88 87 -199.5t18 -331.5q0 -217 -19 -330.5t-88 -202.5q-139 -179 -404 -179h-369q-70 0 -101 31t-31 101v1160q0 70 31 101zM401 1232v-1040h260q161 0 245 97q49 55 62 147t13 276t-13 276t-62 147q-84 97 -245 97h-260z M1557 1014h497q59 0 88 -17q41 -24 41 -71q0 -43 -41 -99l-467 -643h385q60 0 83 -14q42 -25 42 -78t-42 -78q-25 -14 -83 -14h-525q-60 0 -88 17q-40 22 -40 72q0 26 8.5 46t32.5 53l465 642h-356q-58 0 -83 14q-42 25 -42 78t42 78q23 14 83 14zM1517 1442q-11 42 23 76 q33 34 76 23q26 -8 61 -43l138 -138l138 138q35 35 61 43q42 11 76 -23t23 -76q-8 -26 -43 -61l-167 -167q-47 -47 -88 -47t-88 47l-167 167q-35 35 -43 61z" />
<glyph unicode="&#x1c6;" horiz-adv-x="2035" d="M942 1293v-1161q0 -67 -18 -97q-27 -43 -84 -43q-55 0 -83 40q-16 21 -18 72q-54 -64 -117.5 -90t-147.5 -26q-158 0 -248 90q-67 68 -89.5 174t-22.5 256q0 149 22.5 254.5t89.5 173.5q90 90 246 90q86 0 149.5 -25.5t116.5 -88.5v381q0 61 15 91q25 48 87 48t87 -48 q15 -30 15 -91zM318 507q0 -60 4 -104.5t17 -90.5t35.5 -74.5t61 -47t92.5 -18.5t93 18.5t61.5 47t35.5 74.5t17 90.5t4 104.5t-4 104.5t-17 90.5t-35.5 74.5t-61.5 47t-93 18.5t-92.5 -18.5t-61 -47t-35.5 -74.5t-17 -90.5t-4 -104.5zM1333 1014h497q59 0 88 -17 q41 -24 41 -71q0 -43 -41 -99l-467 -643h385q60 0 83 -14q42 -25 42 -78t-42 -78q-25 -14 -83 -14h-525q-60 0 -88 17q-40 22 -40 72q0 26 8.5 46t32.5 53l465 642h-356q-58 0 -83 14q-42 25 -42 78t42 78q23 14 83 14zM1293 1442q-11 42 23 76q33 34 76 23q26 -8 61 -43 l138 -138l138 138q35 35 61 43q42 11 76 -23t23 -76q-8 -26 -43 -61l-167 -167q-47 -47 -88 -47t-88 47l-167 167q-35 35 -43 61z" />
<glyph unicode="&#x1c7;" horiz-adv-x="2159" d="M1520 -12q-162 0 -274 81q-51 37 -51 89q0 41 29 70q26 25 61 25t82 -29q70 -44 153 -44q123 0 190.5 74t67.5 214v817q0 42 2.5 60t13.5 38q27 49 92 49t92 -49q11 -20 13.5 -38t2.5 -60v-835q0 -143 -64.5 -249.5t-171 -159.5t-238.5 -53zM317 0q-70 0 -101 31t-31 101 v1153q0 42 2.5 60t13.5 38q27 49 92 49t92 -49q11 -20 13.5 -38t2.5 -60v-1093h562q62 0 88 -14q44 -25 44 -82t-44 -82q-26 -14 -88 -14h-646z" />
<glyph unicode="&#x1c8;" horiz-adv-x="1678" d="M317 0q-70 0 -101 31t-31 101v1153q0 42 2.5 60t13.5 38q27 49 92 49t92 -49q11 -20 13.5 -38t2.5 -60v-1093h562q62 0 88 -14q44 -25 44 -82t-44 -82q-26 -14 -88 -14h-646zM1289 1345q0 51 36 87t87 36t87 -36t36 -87t-36 -87t-87 -36t-87 36t-36 87zM1310 -124v1007 q0 61 15 91q25 48 87 48t87 -48q15 -30 15 -91v-1016q0 -78 -28 -139.5t-91.5 -101.5t-155.5 -40h-20q-57 0 -86 16q-41 22 -41 71q0 50 41 72q22 12 74 14q103 3 103 117z" />
<glyph unicode="&#x1c9;" horiz-adv-x="1152" d="M157 281v1014q0 61 15 91q25 48 87 48t87 -48q15 -30 15 -91v-1005q0 -114 103 -117q52 -2 74 -14q41 -22 41 -72q0 -49 -41 -71q-29 -16 -86 -16h-20q-92 0 -155.5 40t-91.5 101.5t-28 139.5zM763 1345q0 51 36 87t87 36t87 -36t36 -87t-36 -87t-87 -36t-87 36t-36 87z M784 -124v1007q0 61 15 91q25 48 87 48t87 -48q15 -30 15 -91v-1016q0 -78 -28 -139.5t-91.5 -101.5t-155.5 -40h-20q-57 0 -86 16q-41 22 -41 71q0 50 41 72q22 12 74 14q103 3 103 117z" />
<glyph unicode="&#x1ca;" horiz-adv-x="2455" d="M1816 -12q-162 0 -274 81q-51 37 -51 89q0 41 29 70q26 25 61 25t82 -29q70 -44 153 -44q123 0 190.5 74t67.5 214v817q0 42 2.5 60t13.5 38q27 49 92 49t92 -49q11 -20 13.5 -38t2.5 -60v-835q0 -143 -64.5 -249.5t-171 -159.5t-238.5 -53zM401 1000v-861 q0 -42 -2.5 -60t-13.5 -38q-27 -49 -92 -49t-92 49q-11 20 -13.5 38t-2.5 60v1155q0 73 31 104q34 34 82 34q37 0 64.5 -22t61.5 -73l618 -913v861q0 42 2.5 60t13.5 38q27 49 92 49t92 -49q11 -20 13.5 -38t2.5 -60v-1156q0 -72 -31 -103q-34 -34 -82 -34q-37 0 -64.5 22 t-61.5 73z" />
<glyph unicode="&#x1cb;" horiz-adv-x="1974" d="M1585 1345q0 51 36 87t87 36t87 -36t36 -87t-36 -87t-87 -36t-87 36t-36 87zM1606 -124v1007q0 61 15 91q25 48 87 48t87 -48q15 -30 15 -91v-1016q0 -78 -28 -139.5t-91.5 -101.5t-155.5 -40h-20q-57 0 -86 16q-41 22 -41 71q0 50 41 72q22 12 74 14q103 3 103 117z M401 1000v-861q0 -42 -2.5 -60t-13.5 -38q-27 -49 -92 -49t-92 49q-11 20 -13.5 38t-2.5 60v1155q0 73 31 104q34 34 82 34q37 0 64.5 -22t61.5 -73l618 -913v861q0 42 2.5 60t13.5 38q27 49 92 49t92 -49q11 -20 13.5 -38t2.5 -60v-1156q0 -72 -31 -103q-34 -34 -82 -34 q-37 0 -64.5 22t-61.5 73z" />
<glyph unicode="&#x1cc;" horiz-adv-x="1669" d="M366 618v-487q0 -61 -15 -91q-25 -48 -87 -48t-87 48q-15 30 -15 91v751q0 67 18 97q27 43 84 43q55 0 83 -40q16 -23 18 -67q105 111 267 111q155 0 250 -92q102 -99 102 -286v-517q0 -61 -15 -91q-25 -48 -87 -48t-87 48q-15 30 -15 91v487q0 113 -56.5 168.5 t-147.5 55.5q-92 0 -151 -56.5t-59 -167.5zM1280 1345q0 51 36 87t87 36t87 -36t36 -87t-36 -87t-87 -36t-87 36t-36 87zM1301 -124v1007q0 61 15 91q25 48 87 48t87 -48q15 -30 15 -91v-1016q0 -78 -28 -139.5t-91.5 -101.5t-155.5 -40h-20q-57 0 -86 16q-41 22 -41 71 q0 50 41 72q22 12 74 14q103 3 103 117z" />
<glyph unicode="&#x1f1;" horiz-adv-x="2441" d="M216 1393q31 31 101 31h369q262 0 406 -181q69 -88 87 -199.5t18 -331.5q0 -217 -19 -330.5t-88 -202.5q-139 -179 -404 -179h-369q-70 0 -101 31t-31 101v1160q0 70 31 101zM401 1232v-1040h260q161 0 245 97q49 55 62 147t13 276t-13 276t-62 147q-84 97 -245 97h-260z M1573 1424h628q83 0 114 -32q32 -32 32 -79q0 -37 -36 -96l-631 -1025h536q62 0 88 -14q44 -25 44 -82t-44 -82q-26 -14 -88 -14h-657q-82 0 -114 32t-32 79q0 36 37 96l630 1025h-507q-62 0 -88 14q-44 25 -44 82t44 82q26 14 88 14z" />
<glyph unicode="&#x1f2;" horiz-adv-x="2258" d="M1556 1014h497q59 0 88 -17q41 -24 41 -71q0 -43 -41 -99l-467 -643h385q60 0 83 -14q42 -25 42 -78t-42 -78q-25 -14 -83 -14h-525q-60 0 -88 17q-40 22 -40 72q0 26 8.5 46t32.5 53l465 642h-356q-58 0 -83 14q-42 25 -42 78t42 78q23 14 83 14zM216 1393q31 31 101 31 h369q262 0 406 -181q69 -88 87 -199.5t18 -331.5q0 -217 -19 -330.5t-88 -202.5q-139 -179 -404 -179h-369q-70 0 -101 31t-31 101v1160q0 70 31 101zM401 1232v-1040h260q161 0 245 97q49 55 62 147t13 276t-13 276t-62 147q-84 97 -245 97h-260z" />
<glyph unicode="&#x1f3;" horiz-adv-x="2032" d="M1330 1014h497q59 0 88 -17q41 -24 41 -71q0 -43 -41 -99l-467 -643h385q60 0 83 -14q42 -25 42 -78t-42 -78q-25 -14 -83 -14h-525q-60 0 -88 17q-40 22 -40 72q0 26 8.5 46t32.5 53l465 642h-356q-58 0 -83 14q-42 25 -42 78t42 78q23 14 83 14zM942 1293v-1161 q0 -67 -18 -97q-27 -43 -84 -43q-55 0 -83 40q-16 21 -18 72q-54 -64 -117.5 -90t-147.5 -26q-158 0 -248 90q-67 68 -89.5 174t-22.5 256q0 149 22.5 254.5t89.5 173.5q90 90 246 90q86 0 149.5 -25.5t116.5 -88.5v381q0 61 15 91q25 48 87 48t87 -48q15 -30 15 -91z M318 507q0 -60 4 -104.5t17 -90.5t35.5 -74.5t61 -47t92.5 -18.5t93 18.5t61.5 47t35.5 74.5t17 90.5t4 104.5t-4 104.5t-17 90.5t-35.5 74.5t-61.5 47t-93 18.5t-92.5 -18.5t-61 -47t-35.5 -74.5t-17 -90.5t-4 -104.5z" />
<glyph unicode="&#x1fa;" horiz-adv-x="1246" d="M918 286h-590l-71 -191q-14 -37 -23 -53.5t-24 -28.5q-26 -21 -59 -21q-49 0 -79 32q-19 20 -24 44.5t-0.5 45t17.5 53.5l416 1107q-50 34 -79 88.5t-29 117.5q0 104 73.5 177t176.5 73t176.5 -73t73.5 -177q0 -63 -29 -117.5t-79 -88.5l416 -1107q13 -33 17.5 -53.5 t-0.5 -45t-24 -44.5q-30 -32 -79 -32q-33 0 -59 21q-15 12 -24 28.5t-23 53.5zM851 470l-228 623l-228 -623h456zM799 1922l-98 -99q-36 -36 -62 -43q-40 -12 -76 22q-35 35 -22 77q6 24 43 61l98 99q36 36 62 43q40 12 76 -22q35 -35 22 -77q-6 -24 -43 -61zM496 1480 q0 -52 37 -89.5t90 -37.5t90 37.5t37 89.5t-37 89.5t-90 37.5t-90 -37.5t-37 -89.5z" />
<glyph unicode="&#x1fb;" horiz-adv-x="1060" d="M689 1844l-98 -99q-36 -36 -62 -43q-40 -12 -76 22q-35 35 -22 77q6 24 43 61l98 99q36 36 62 43q40 12 76 -22q35 -35 22 -77q-6 -24 -43 -61zM83 298q0 132 91.5 213t259.5 81h269v63q0 101 -50.5 149.5t-161.5 48.5q-105 0 -194 -68q-35 -27 -74 -27q-37 0 -59 27 q-24 27 -24 63q0 62 95 117q106 61 258 61q204 0 309.5 -88.5t105.5 -260.5v-546q0 -65 -15 -92q-25 -47 -87 -47q-47 0 -74 29q-21 24 -23 73q-60 -59 -119.5 -82t-152.5 -23q-184 0 -273 92q-81 83 -81 217zM282 301q0 -143 191 -143q62 0 105.5 11.5t79.5 46.5 q45 42 45 151v80h-240q-89 0 -135 -37.5t-46 -108.5zM263 1402q0 104 73.5 177t176.5 73t176.5 -73t73.5 -177t-73.5 -177t-176.5 -73t-176.5 73t-73.5 177zM386 1402q0 -52 37 -89.5t90 -37.5t90 37.5t37 89.5t-37 89.5t-90 37.5t-90 -37.5t-37 -89.5z" />
<glyph unicode="&#x1fc;" horiz-adv-x="1852" d="M73 173l560 1122q35 71 71 100t87 29h831q62 0 88 -14q44 -25 44 -82t-44 -82q-26 -14 -88 -14h-572v-418h470q62 0 88 -14q44 -25 44 -82t-44 -82q-26 -14 -88 -14h-470v-430h572q62 0 88 -14q44 -25 44 -82t-44 -82q-26 -14 -88 -14h-656q-70 0 -101 31t-31 101v193 h-458l-121 -243q-29 -58 -53 -75q-22 -15 -49 -15t-51 12q-54 27 -56 80q-1 33 27 89zM834 1243l-366 -735h366v735zM1165 1760l-93 -149q-27 -43 -44 -55q-22 -16 -47 -16t-49 15q-46 30 -43 77q1 25 31 74l93 149q27 43 44 55q22 16 47 16t49 -15q46 -30 43 -77 q-1 -25 -31 -74z" />
<glyph unicode="&#x1fd;" horiz-adv-x="1668" d="M282 301q0 -143 191 -143q62 0 105.5 11.5t79.5 46.5q45 42 45 151v80h-240q-89 0 -135 -37.5t-46 -108.5zM1361 590q-6 89 -28 138q-26 59 -78 93.5t-122 34.5q-71 0 -123.5 -34.5t-78.5 -93.5q-23 -51 -26 -138h456zM1133 1027q195 -1 309.5 -129t119.5 -333 q2 -61 -28 -91q-26 -26 -90 -26h-539q0 -132 67.5 -209t192.5 -77q115 0 195 64q46 37 83 37q31 0 57.5 -26.5t26.5 -60.5q0 -58 -102 -123q-99 -65 -265 -65q-244 0 -361 157q-73 -90 -155.5 -123t-206.5 -33q-184 0 -273 92q-81 83 -81 217q0 132 91.5 213t259.5 81h269 v63q0 101 -50.5 149.5t-161.5 48.5q-105 0 -194 -68q-35 -27 -74 -27q-37 0 -59 27q-24 27 -24 63q0 62 95 117q107 62 258 62q243 0 339 -133q109 133 301 133zM1003 1399l-93 -149q-27 -43 -44 -55q-22 -16 -47 -16t-49 15q-46 30 -43 77q1 25 31 74l93 149q27 43 44 55 q22 16 47 16t49 -15q46 -30 43 -77q-1 -25 -31 -74z" />
<glyph unicode="&#x1fe;" horiz-adv-x="1294" d="M1054 1370l-39 -79q41 -41 68 -86.5t42.5 -89t23 -112.5t9 -127t1.5 -164t-1.5 -164t-9 -127t-23 -112.5t-42.5 -89t-68 -86.5q-145 -145 -368 -145q-129 0 -230 51l-29 -60q-24 -48 -47 -63q-36 -24 -80 -2q-45 22 -45 69q0 25 23 71l40 79q-41 41 -68 86.5t-42.5 89 t-23 112.5t-9 127t-1.5 164q0 107 1.5 164t9 127t22.5 113t42 88.5t68 86.5q145 145 369 145q122 0 228 -50l30 59q24 48 47 63q36 24 80 2q45 -22 45 -69q0 -25 -23 -71zM351 712q0 -159 9 -232.5t43 -126.5l403 846q-70 45 -159 45q-129 0 -212 -89q-52 -55 -68 -141.5 t-16 -301.5zM487 226q71 -46 160 -46q127 0 212 90q52 56 68 142t16 300q0 157 -9.5 231.5t-43.5 126.5zM848 1760l-93 -149q-27 -43 -44 -55q-22 -16 -47 -16t-49 15q-46 30 -43 77q1 25 31 74l93 149q27 43 44 55q22 16 47 16t49 -15q46 -30 43 -77q-1 -25 -31 -74z" />
<glyph unicode="&#x1ff;" horiz-adv-x="1074" d="M221 122q-60 69 -83 157t-23 229q0 138 25.5 232.5t93.5 165.5q116 120 302 120q108 0 198 -45l40 68q28 46 51 55q33 13 64 -6q39 -22 37 -63q-3 -24 -25 -61l-49 -82q61 -69 84 -160.5t23 -223.5q0 -140 -25.5 -234.5t-93.5 -165.5q-116 -120 -304 -120q-108 0 -198 45 l-41 -69q-28 -46 -51 -55q-33 -13 -64 6q-39 23 -36 63q1 23 24 61zM355 300l300 510q-50 32 -118 32q-93 0 -150 -57q-42 -43 -55 -110t-13 -168q0 -147 36 -207zM718 716l-300 -510q53 -34 118 -34q91 0 150 59q42 43 55.5 110.5t13.5 167.5q0 145 -37 207zM740 1399 l-93 -149q-27 -43 -44 -55q-22 -16 -47 -16t-49 15q-46 30 -43 77q1 25 31 74l93 149q27 43 44 55q22 16 47 16t49 -15q46 -30 43 -77q-1 -25 -31 -74z" />
<glyph unicode="&#x218;" horiz-adv-x="1182" d="M571 180q141 0 217.5 57.5t76.5 162.5q0 100 -56 148q-51 45 -155 60l-169 24q-172 25 -269 115q-105 96 -105 273q0 188 128 302t348 114q100 0 172.5 -18.5t162.5 -65.5q87 -45 87 -109q0 -37 -25 -66q-26 -31 -66 -31q-37 0 -87 31q-63 39 -120 54.5t-132 15.5 q-123 0 -190.5 -60.5t-67.5 -160.5q0 -88 52 -132q54 -48 156 -64l170 -26q97 -15 157 -39.5t107 -66.5q116 -107 116 -292q0 -193 -141.5 -305.5t-370.5 -112.5q-124 0 -212.5 23.5t-170.5 72.5q-57 34 -79 61t-22 65q0 41 30 71q26 26 63 26q40 0 92 -36q72 -49 141.5 -70 t161.5 -21zM631 -273l-93 -149q-27 -43 -44 -55q-22 -16 -47 -16t-49 15q-46 30 -43 77q1 25 31 74l93 149q27 43 44 55q22 16 47 16t49 -15q46 -30 43 -77q-1 -25 -31 -74z" />
<glyph unicode="&#x219;" horiz-adv-x="999" d="M489 -12q-218 0 -353 92q-56 38 -56 85q0 43 33 70q24 21 56 21q31 0 76 -29q105 -68 245 -68q102 0 162.5 36.5t60.5 106.5q0 107 -137 120l-163 15q-300 27 -300 278q0 145 109 228t274 83q153 0 273 -56q46 -22 66 -43q19 -23 19 -56t-25 -60q-26 -26 -60 -26 q-22 0 -66 21q-109 53 -211 53q-88 0 -135 -36.5t-47 -96.5q0 -55 34.5 -82.5t105.5 -33.5l160 -15q301 -29 301 -286q0 -154 -117 -237.5t-305 -83.5zM558 -273l-93 -149q-27 -43 -44 -55q-22 -16 -47 -16t-49 15q-46 30 -43 77q1 25 31 74l93 149q27 43 44 55q22 16 47 16 t49 -15q46 -30 43 -77q-1 -25 -31 -74z" />
<glyph unicode="&#x21a;" horiz-adv-x="1116" d="M1066 1328q0 -57 -44 -82q-26 -14 -88 -14h-268v-1093q0 -42 -2.5 -60t-13.5 -38q-27 -49 -92 -49t-92 49q-11 20 -13.5 38t-2.5 60v1093h-268q-62 0 -88 14q-44 25 -44 82t44 82q26 14 88 14h752q62 0 88 -14q44 -25 44 -82zM606 -273l-93 -149q-27 -43 -44 -55 q-22 -16 -47 -16t-49 15q-46 30 -43 77q1 25 31 74l93 149q27 43 44 55q22 16 47 16t49 -15q46 -30 43 -77q-1 -25 -31 -74z" />
<glyph unicode="&#x21b;" horiz-adv-x="703" d="M204 281v577h-47q-49 0 -71 12q-36 20 -36 66t36 66q22 12 71 12h47v159q0 61 15 91q25 48 87 48t87 -48q15 -30 15 -91v-159h110q49 0 71 -12q36 -20 36 -66t-36 -66q-22 -12 -71 -12h-110v-568q0 -114 103 -117q52 -2 74 -14q41 -22 41 -72q0 -49 -41 -71 q-29 -16 -86 -16h-20q-92 0 -155.5 40t-91.5 101.5t-28 139.5zM446 -273l-93 -149q-27 -43 -44 -55q-22 -16 -47 -16t-49 15q-46 30 -43 77q1 25 31 74l93 149q27 43 44 55q22 16 47 16t49 -15q46 -30 43 -77q-1 -25 -31 -74z" />
<glyph unicode="&#x237;" horiz-adv-x="528" d="M161 -124v1007q0 61 15 91q25 48 87 48t87 -48q15 -30 15 -91v-1016q0 -78 -28 -139.5t-91.5 -101.5t-155.5 -40h-20q-57 0 -86 16q-41 22 -41 71q0 50 41 72q22 12 74 14q103 3 103 117z" />
<glyph unicode="&#x259;" horiz-adv-x="1075" d="M965 507q0 -247 -116 -383t-314 -136q-195 0 -309.5 128t-119.5 333q-2 61 28 91q26 26 90 26h539q0 132 -67.5 209t-192.5 77q-115 0 -195 -64q-46 -37 -83 -37q-31 0 -57.5 26.5t-26.5 60.5q0 58 102 123q99 65 265 65q99 0 179 -27.5t144 -86.5t99 -162t35 -243z M307 424q6 -89 28 -138q26 -59 78 -93.5t122 -34.5q71 0 123.5 34.5t78.5 93.5q23 51 26 138h-456z" />
<glyph unicode="&#x2bb;" horiz-adv-x="527" d="M396 1267l-71 -211q-20 -61 -41 -81q-26 -24 -64 -24q-33 0 -65 20.5t-38 57.5q-6 31 14 91l71 211q20 61 41 81q26 24 64 24q33 0 65 -20.5t38 -57.5q6 -31 -14 -91z" />
<glyph unicode="&#x2bc;" horiz-adv-x="527" d="M396 1267l-71 -211q-20 -61 -41 -81q-26 -24 -64 -24q-33 0 -65 20.5t-38 57.5q-6 31 14 91l71 211q20 61 41 81q26 24 64 24q33 0 65 -20.5t38 -57.5q6 -31 -14 -91z" />
<glyph unicode="&#x2c6;" horiz-adv-x="1076" d="M538 1548q40 0 88 -48l166 -166q37 -37 43 -61q13 -42 -22 -77q-36 -34 -76 -22q-26 7 -62 43l-137 138l-137 -138q-36 -36 -62 -43q-40 -12 -76 22q-35 35 -22 77q6 24 43 61l166 166q48 48 88 48z" />
<glyph unicode="&#x2c7;" horiz-adv-x="1076" d="M240 1442q-11 42 23 76q33 34 76 23q26 -8 61 -43l138 -138l138 138q35 35 61 43q42 11 76 -23t23 -76q-8 -26 -43 -61l-167 -167q-47 -47 -88 -47t-88 47l-167 167q-35 35 -43 61z" />
<glyph unicode="&#x2d8;" horiz-adv-x="1076" d="M538 1349q81 0 163 72q29 25 54 26q34 2 59 -26q23 -26 21 -56q-1 -37 -45 -75q-111 -102 -252 -102t-252 102q-44 38 -45 75q-2 30 21 56q25 28 59 26q25 -1 54 -26q82 -72 163 -72z" />
<glyph unicode="&#x2d9;" horiz-adv-x="1076" d="M425 1323q0 47 33.5 80t79.5 33t79.5 -33t33.5 -80t-33.5 -80t-79.5 -33t-79.5 33t-33.5 80z" />
<glyph unicode="&#x2da;" horiz-adv-x="1076" d="M288 1402q0 104 73 177t177 73t177 -73t73 -177t-73 -177t-177 -73t-177 73t-73 177zM411 1402q0 -52 37.5 -89.5t89.5 -37.5t89.5 37.5t37.5 89.5t-37.5 89.5t-89.5 37.5t-89.5 -37.5t-37.5 -89.5z" />
<glyph unicode="&#x2db;" horiz-adv-x="1000" d="M352 -478q-47 29 -44 77q1 26 32 74l93 149q28 44 44 55q22 16 47 16t49 -15q46 -30 43 -77q-1 -25 -31 -74l-93 -149q-27 -43 -44 -56q-23 -15 -47 -15q-27 0 -49 15z" />
<glyph unicode="&#x2dc;" horiz-adv-x="1076" d="M519 1261q-66 37 -107 37q-46 0 -88 -34q-32 -26 -59 -26q-34 0 -54 23q-17 20 -17 52q0 38 46 77q75 62 167 62q43 0 74.5 -10t75.5 -35q66 -37 107 -37q46 0 88 34q32 26 59 26q34 0 54 -23q17 -20 17 -52q0 -38 -46 -77q-75 -62 -167 -62q-43 0 -74.5 10t-75.5 35z " />
<glyph unicode="&#x2dd;" horiz-adv-x="1076" d="M556 1405l-93 -149q-27 -43 -44 -55q-22 -16 -47 -16t-49 15q-46 30 -43 77q1 25 31 74l93 149q27 43 44 55q22 16 47 16t49 -15q46 -30 43 -77q-1 -25 -31 -74zM927 1405l-93 -149q-27 -43 -44 -55q-22 -16 -47 -16t-49 15q-46 30 -43 77q1 25 31 74l93 149q27 43 44 55 q22 16 47 16t49 -15q46 -30 43 -77q-1 -25 -31 -74z" />
<glyph unicode="&#x394;" horiz-adv-x="1234" d="M68 192l427 1136q19 51 43 74q32 30 79 30t79 -30q24 -23 43 -74l427 -1136q23 -60 23 -89q0 -47 -30 -74q-20 -18 -44.5 -23.5t-70.5 -5.5h-854q-46 0 -70.5 5.5t-44.5 23.5q-30 27 -30 74q0 29 23 89zM617 1093l-334 -901h665z" />
<glyph unicode="&#x3a9;" horiz-adv-x="1346" d="M673 1244q-129 0 -212 -89q-52 -55 -68 -141.5t-16 -301.5q0 -166 9.5 -260.5t35.5 -145.5q39 -75 123 -129q53 -35 53 -85q0 -46 -27 -71q-23 -21 -81 -21h-257q-62 0 -88 14q-44 25 -44 82t44 82q26 14 88 14h75q-65 59 -95 122q-31 68 -41.5 159t-10.5 239 q0 107 1.5 164t9 127t22.5 113t42 88.5t68 86.5q145 145 369 145t369 -145q41 -41 68 -86.5t42 -88.5t22.5 -113t9 -127t1.5 -164q0 -148 -10.5 -239t-41.5 -159q-30 -63 -95 -122h75q62 0 88 -14q44 -25 44 -82t-44 -82q-26 -14 -88 -14h-257q-58 0 -81 21q-27 25 -27 71 q0 50 53 85q84 54 123 129q26 51 35.5 145.5t9.5 260.5q0 215 -16 301.5t-68 141.5q-83 89 -212 89z" />
<glyph unicode="&#x3bc;" horiz-adv-x="1146" d="M780 396v487q0 61 15 91q25 48 87 48t87 -48q15 -30 15 -91v-751q0 -67 -18 -97q-27 -43 -84 -43q-55 0 -83 40q-16 21 -18 67q-105 -111 -267 -111q-94 0 -148 51v-318q0 -61 -15 -91q-25 -48 -87 -48t-87 48q-15 30 -15 91v1162q0 61 15 91q25 48 87 48t87 -48 q15 -30 15 -91v-487q0 -113 56.5 -168.5t147.5 -55.5q92 0 151 56.5t59 167.5z" />
<glyph unicode="&#x3c0;" horiz-adv-x="1156" d="M366 131q0 -61 -15 -91q-25 -48 -87 -48t-87 48q-15 30 -15 91v758q0 67 29 96t96 29h582q67 0 96 -29t29 -96v-758q0 -61 -15 -91q-25 -48 -87 -48t-87 48q-15 30 -15 91v699h-424v-699z" />
<glyph unicode="&#x400;" horiz-adv-x="1203" d="M401 1232v-418h470q62 0 88 -14q44 -25 44 -82t-44 -82q-26 -14 -88 -14h-470v-430h572q62 0 88 -14q44 -25 44 -82t-44 -82q-26 -14 -88 -14h-656q-70 0 -101 31t-31 101v1160q0 70 31 101t101 31h656q62 0 88 -14q44 -25 44 -82t-44 -82q-26 -14 -88 -14h-572z M519 1611l-93 149q-30 49 -31 74q-3 47 43 77q24 15 49 15t47 -16q17 -12 44 -55l93 -149q30 -49 31 -74q3 -47 -43 -77q-24 -15 -49 -15t-47 16q-17 12 -44 55z" />
<glyph unicode="&#x401;" horiz-adv-x="1203" d="M401 1232v-418h470q62 0 88 -14q44 -25 44 -82t-44 -82q-26 -14 -88 -14h-470v-430h572q62 0 88 -14q44 -25 44 -82t-44 -82q-26 -14 -88 -14h-656q-70 0 -101 31t-31 101v1160q0 70 31 101t101 31h656q62 0 88 -14q44 -25 44 -82t-44 -82q-26 -14 -88 -14h-572z M960 1678q0 -47 -33 -80.5t-79 -33.5t-80 34t-34 80t33.5 79t80.5 33q46 0 79 -33t33 -79zM522 1678q0 -46 -34 -80t-80 -34t-79 33.5t-33 80.5q0 46 33 79t79 33q47 0 80.5 -33t33.5 -79z" />
<glyph unicode="&#x402;" horiz-adv-x="1478" d="M1128 442q-1 124 -67.5 189t-185.5 65h-271v-557q0 -42 -2.5 -60t-13.5 -38q-27 -49 -92 -49t-92 49q-11 20 -13.5 38t-2.5 60v1093h-206q-62 0 -88 14q-44 25 -44 82t44 82q26 14 88 14h751q62 0 88 -14q44 -25 44 -82t-44 -82q-26 -14 -88 -14h-329v-348h289 q205 0 327.5 -116.5t123.5 -323.5q0 -204 -119 -325t-315 -123h-13q-37 0 -63 14q-48 26 -48 85q0 54 38 79q16 12 53 13h7q115 4 179.5 69.5t64.5 185.5z" />
<glyph unicode="&#x403;" horiz-adv-x="1121" d="M401 139q0 -42 -2.5 -60t-13.5 -38q-27 -49 -92 -49t-92 49q-11 20 -13.5 38t-2.5 60v1153q0 70 31 101t101 31h622q62 0 88 -14q44 -25 44 -82t-44 -82q-26 -14 -88 -14h-538v-1093zM770 1760l-93 -149q-27 -43 -44 -55q-22 -16 -47 -16t-49 15q-46 30 -43 77 q1 25 31 74l93 149q27 43 44 55q22 16 47 16t49 -15q46 -30 43 -77q-1 -25 -31 -74z" />
<glyph unicode="&#x404;" horiz-adv-x="1253" d="M135 712q0 107 1.5 164t9 127t22.5 113t42 88.5t68 86.5q145 145 367 145q129 0 216.5 -36.5t156.5 -110.5q55 -59 82 -122t27 -107q0 -52 -29 -81q-32 -30 -75 -30q-38 0 -64 21q-27 21 -53 81q-41 95 -104.5 144t-160.5 49q-122 0 -205 -89q-48 -51 -65 -122t-20 -219 h357q62 0 88 -14q44 -25 44 -82t-44 -82q-26 -14 -88 -14h-357q2 -155 19 -228t66 -125q83 -89 205 -89q97 0 160.5 49t104.5 144q26 60 53 81q26 21 64 21q43 0 75 -30q29 -29 29 -81q0 -44 -27 -107t-82 -122q-69 -74 -156.5 -110.5t-216.5 -36.5q-222 0 -367 145 q-41 41 -68 86.5t-42 88.5t-22.5 113t-9 127t-1.5 164z" />
<glyph unicode="&#x405;" horiz-adv-x="1182" d="M571 180q141 0 217.5 57.5t76.5 162.5q0 100 -56 148q-51 45 -155 60l-169 24q-172 25 -269 115q-105 96 -105 273q0 188 128 302t348 114q100 0 172.5 -18.5t162.5 -65.5q87 -45 87 -109q0 -37 -25 -66q-26 -31 -66 -31q-37 0 -87 31q-63 39 -120 54.5t-132 15.5 q-123 0 -190.5 -60.5t-67.5 -160.5q0 -88 52 -132q54 -48 156 -64l170 -26q97 -15 157 -39.5t107 -66.5q116 -107 116 -292q0 -193 -141.5 -305.5t-370.5 -112.5q-124 0 -212.5 23.5t-170.5 72.5q-57 34 -79 61t-22 65q0 41 30 71q26 26 63 26q40 0 92 -36q72 -49 141.5 -70 t161.5 -21z" />
<glyph unicode="&#x406;" horiz-adv-x="586" d="M401 139q0 -42 -2.5 -60t-13.5 -38q-27 -49 -92 -49t-92 49q-11 20 -13.5 38t-2.5 60v1146q0 42 2.5 60t13.5 38q27 49 92 49t92 -49q11 -20 13.5 -38t2.5 -60v-1146z" />
<glyph unicode="&#x407;" horiz-adv-x="586" d="M606 1688q0 -47 -33 -80.5t-79 -33.5t-80 34t-34 80t33.5 79t80.5 33q46 0 79 -33t33 -79zM210 1688q0 -46 -34 -80t-80 -34t-79 33.5t-33 80.5q0 46 33 79t79 33q47 0 80.5 -33t33.5 -79zM401 139q0 -42 -2.5 -60t-13.5 -38q-27 -49 -92 -49t-92 49q-11 20 -13.5 38 t-2.5 60v1146q0 42 2.5 60t13.5 38q27 49 92 49t92 -49q11 -20 13.5 -38t2.5 -60v-1146z" />
<glyph unicode="&#x408;" horiz-adv-x="1012" d="M375 -12q-162 0 -274 81q-51 37 -51 89q0 41 29 70q26 25 61 25t82 -29q70 -44 153 -44q123 0 190.5 74t67.5 214v817q0 42 2.5 60t13.5 38q27 49 92 49t92 -49q11 -20 13.5 -38t2.5 -60v-835q0 -143 -64.5 -249.5t-171 -159.5t-238.5 -53z" />
<glyph unicode="&#x409;" horiz-adv-x="2114" d="M1254 1292v-430h327q206 0 331 -120.5t125 -309.5t-125 -310.5t-331 -121.5h-411q-70 0 -101 31t-31 101v1100h-420v-451q0 -222 -26.5 -374t-82.5 -241.5t-133.5 -127.5t-188.5 -38q-67 0 -92 14q-45 25 -45 83q0 57 45 82q21 13 55 14q137 3 198 153t61 478v468 q0 70 31 101t101 31h581q70 0 101 -31t31 -101zM1254 670v-478h315q116 0 184 63.5t68 176.5q0 111 -68.5 174.5t-183.5 63.5h-315z" />
<glyph unicode="&#x40a;" horiz-adv-x="2055" d="M995 1383q27 49 92 49t92 -49q11 -20 13.5 -38t2.5 -60v-423h327q206 0 331 -120.5t125 -309.5t-125 -310.5t-331 -121.5h-411q-70 0 -101 31t-31 101v538h-578v-531q0 -42 -2.5 -60t-13.5 -38q-27 -49 -92 -49t-92 49q-11 20 -13.5 38t-2.5 60v1146q0 42 2.5 60t13.5 38 q27 49 92 49t92 -49q11 -20 13.5 -38t2.5 -60v-423h578v423q0 42 2.5 60t13.5 38zM1195 670v-478h315q116 0 184 63.5t68 176.5q0 111 -68.5 174.5t-183.5 63.5h-315z" />
<glyph unicode="&#x40b;" horiz-adv-x="1492" d="M1066 1328q0 -57 -44 -82q-26 -14 -88 -14h-332v-348h288q202 0 326 -117t124 -309v-319q0 -42 -2.5 -60t-13.5 -38q-27 -49 -92 -49t-92 49q-11 20 -13.5 38t-2.5 60v319q0 109 -67.5 171.5t-184.5 62.5h-270v-553q0 -42 -2.5 -60t-13.5 -38q-27 -49 -92 -49t-92 49 q-11 20 -13.5 38t-2.5 60v1093h-204q-62 0 -88 14q-44 25 -44 82t44 82q26 14 88 14h752q62 0 88 -14q44 -25 44 -82z" />
<glyph unicode="&#x40c;" horiz-adv-x="1234" d="M401 139q0 -42 -2.5 -60t-13.5 -38q-27 -49 -92 -49t-92 49q-11 20 -13.5 38t-2.5 60v1146q0 42 2.5 60t13.5 38q27 49 92 49t92 -49q11 -20 13.5 -38t2.5 -60v-451h75l439 533q29 35 50 50t49 15q37 0 67 -25q39 -33 39 -78q0 -22 -10.5 -41t-37.5 -52l-418 -491 l460 -557q27 -33 37.5 -52t10.5 -41q0 -45 -39 -78q-30 -25 -67 -25q-28 0 -49 15t-50 50l-476 577h-80v-495zM833 1760l-93 -149q-27 -43 -44 -55q-22 -16 -47 -16t-49 15q-46 30 -43 77q1 25 31 74l93 149q27 43 44 55q22 16 47 16t49 -15q46 -30 43 -77q-1 -25 -31 -74z " />
<glyph unicode="&#x40d;" horiz-adv-x="1421" d="M1236 139q0 -42 -2.5 -60t-13.5 -38q-27 -49 -92 -49t-92 49q-11 20 -13.5 38t-2.5 60v886l-598 -938q-32 -49 -60.5 -72t-65.5 -23q-47 0 -80 33q-31 31 -31 104v1156q0 42 2.5 60t13.5 38q27 49 92 49t92 -49q11 -20 13.5 -38t2.5 -60v-886l599 938q32 50 60.5 72.5 t66.5 22.5q46 0 79 -33q30 -30 30 -104v-1156zM602 1611l-93 149q-30 49 -31 74q-3 47 43 77q24 15 49 15t47 -16q17 -12 44 -55l93 -149q30 -49 31 -74q3 -47 -43 -77q-24 -15 -49 -15t-47 16q-17 12 -44 55z" />
<glyph unicode="&#x40e;" horiz-adv-x="1039" d="M57 1258q-13 33 -17.5 53.5t0.5 45t24 44.5q30 32 79 32q33 0 59 -21q15 -12 24 -28.5t23 -53.5l276 -721l265 721q14 37 23 53.5t24 28.5q26 21 59 21q49 0 79 -32q19 -20 24 -44.5t0.5 -45t-17.5 -53.5l-369 -984q-51 -136 -130 -205t-194 -69h-33q-61 0 -88 14 q-44 24 -44 82t44 82q25 14 86 14q51 0 80.5 21t56.5 73l24 47zM532 1714q81 0 163 72q29 25 54 26q34 2 59 -26q23 -26 21 -56q-1 -37 -45 -75q-111 -102 -252 -102t-252 102q-44 38 -45 75q-2 30 21 56q25 28 59 26q25 -1 54 -26q82 -72 163 -72z" />
<glyph unicode="&#x40f;" horiz-adv-x="1378" d="M797 -182q0 -42 -2.5 -60t-13.5 -38q-27 -49 -92 -49t-92 49q-11 20 -13.5 38t-2.5 60v182h-264q-70 0 -101 31t-31 101v1153q0 42 2.5 60t13.5 38q27 49 92 49t92 -49q11 -20 13.5 -38t2.5 -60v-1093h576v1093q0 42 2.5 60t13.5 38q27 49 92 49t92 -49q11 -20 13.5 -38 t2.5 -60v-1153q0 -70 -31 -101t-101 -31h-264v-182z" />
<glyph unicode="&#x410;" horiz-adv-x="1246" d="M851 470l-228 623l-228 -623h456zM918 286h-590l-71 -191q-14 -37 -23 -53.5t-24 -28.5q-26 -21 -59 -21q-49 0 -79 32q-19 20 -24 44.5t-0.5 45t17.5 53.5l436 1161q19 51 43 74q32 30 79 30t79 -30q24 -23 43 -74l436 -1161q13 -33 17.5 -53.5t-0.5 -45t-24 -44.5 q-30 -32 -79 -32q-33 0 -59 21q-15 12 -24 28.5t-23 53.5z" />
<glyph unicode="&#x411;" horiz-adv-x="1261" d="M401 1232v-370h327q206 0 331 -120.5t125 -309.5t-125 -310.5t-331 -121.5h-411q-70 0 -101 31t-31 101v1160q0 70 31 101t101 31h659q62 0 88 -14q44 -25 44 -82t-44 -82q-26 -14 -88 -14h-575zM401 670v-478h315q116 0 184 63.5t68 176.5q0 111 -68.5 174.5 t-183.5 63.5h-315z" />
<glyph unicode="&#x412;" horiz-adv-x="1326" d="M761 0h-444q-70 0 -101 31t-31 101v1160q0 70 31 101t101 31h422q198 0 314 -105t116 -285q0 -109 -56.5 -190t-135.5 -112q92 -37 153 -120.5t61 -209.5q0 -192 -118 -297t-312 -105zM741 629h-340v-437h340q110 0 172 61t62 159q0 97 -62 157t-172 60zM401 821h320 q106 0 169 54t63 151q0 98 -63 152t-169 54h-320v-411z" />
<glyph unicode="&#x413;" horiz-adv-x="1121" d="M401 139q0 -42 -2.5 -60t-13.5 -38q-27 -49 -92 -49t-92 49q-11 20 -13.5 38t-2.5 60v1153q0 70 31 101t101 31h622q62 0 88 -14q44 -25 44 -82t-44 -82q-26 -14 -88 -14h-538v-1093z" />
<glyph unicode="&#x414;" horiz-adv-x="1399" d="M38 -182v242q0 70 31 101t101 31h3q165 323 165 849v258q0 67 30 97q13 13 30 19.5t28.5 7.5t32.5 1h575q70 0 101 -31t31 -101v-1100h35q70 0 101 -31t31 -101v-242q0 -42 -2.5 -60t-13.5 -38q-27 -49 -92 -49t-92 49q-11 20 -13.5 38t-2.5 60v182h-863v-182 q0 -42 -2.5 -60t-13.5 -38q-27 -49 -92 -49t-92 49q-11 20 -13.5 38t-2.5 60zM397 192h553v1040h-403v-305q0 -435 -150 -735z" />
<glyph unicode="&#x415;" horiz-adv-x="1203" d="M401 1232v-418h470q62 0 88 -14q44 -25 44 -82t-44 -82q-26 -14 -88 -14h-470v-430h572q62 0 88 -14q44 -25 44 -82t-44 -82q-26 -14 -88 -14h-656q-70 0 -101 31t-31 101v1160q0 70 31 101t101 31h656q62 0 88 -14q44 -25 44 -82t-44 -82q-26 -14 -88 -14h-572z" />
<glyph unicode="&#x416;" horiz-adv-x="1862" d="M823 834v451q0 42 2.5 60t13.5 38q27 49 92 49t92 -49q11 -20 13.5 -38t2.5 -60v-451h65l439 533q29 35 50 50t49 15q37 0 67 -25q39 -33 39 -78q0 -22 -10.5 -41t-37.5 -52l-418 -491l460 -557q27 -33 37.5 -52t10.5 -41q0 -45 -39 -78q-30 -25 -67 -25q-28 0 -49 15 t-50 50l-476 577h-70v-495q0 -42 -2.5 -60t-13.5 -38q-27 -49 -92 -49t-92 49q-11 20 -13.5 38t-2.5 60v495h-70l-476 -577q-29 -35 -50 -50t-49 -15q-37 0 -67 25q-39 33 -39 78q0 22 10.5 41t37.5 52l460 557l-418 491q-27 33 -37.5 52t-10.5 41q0 45 39 78q30 25 67 25 q28 0 49 -15t50 -50l439 -533h65z" />
<glyph unicode="&#x417;" horiz-adv-x="1242" d="M125 1064q0 49 27.5 107.5t74.5 109.5q142 155 392 155q206 0 336 -105.5t130 -280.5q0 -109 -50 -189t-145 -126q105 -42 161.5 -126.5t56.5 -206.5q0 -187 -138 -300.5t-352 -113.5q-257 0 -399 155q-101 110 -101 217q0 49 29 78q31 29 73 29q41 0 72 -24 q26 -20 56 -90q73 -176 274 -176q121 0 195 63.5t74 168.5q0 112 -64.5 170.5t-187.5 58.5h-76q-58 0 -83 13q-41 25 -41 77t41 77q25 13 83 13h79q108 0 168 57.5t60 161.5q0 99 -67 155.5t-179 56.5q-207 0 -278 -194q-18 -48 -47 -73q-28 -23 -72 -23q-40 0 -72 29 q-30 28 -30 76z" />
<glyph unicode="&#x418;" horiz-adv-x="1421" d="M1236 139q0 -42 -2.5 -60t-13.5 -38q-27 -49 -92 -49t-92 49q-11 20 -13.5 38t-2.5 60v886l-598 -938q-32 -49 -60.5 -72t-65.5 -23q-47 0 -80 33q-31 31 -31 104v1156q0 42 2.5 60t13.5 38q27 49 92 49t92 -49q11 -20 13.5 -38t2.5 -60v-886l599 938q32 50 60.5 72.5 t66.5 22.5q46 0 79 -33q30 -30 30 -104v-1156z" />
<glyph unicode="&#x419;" horiz-adv-x="1421" d="M1236 139q0 -42 -2.5 -60t-13.5 -38q-27 -49 -92 -49t-92 49q-11 20 -13.5 38t-2.5 60v886l-598 -938q-32 -49 -60.5 -72t-65.5 -23q-47 0 -80 33q-31 31 -31 104v1156q0 42 2.5 60t13.5 38q27 49 92 49t92 -49q11 -20 13.5 -38t2.5 -60v-886l599 938q32 50 60.5 72.5 t66.5 22.5q46 0 79 -33q30 -30 30 -104v-1156zM711 1714q81 0 163 72q29 25 54 26q34 2 59 -26q23 -26 21 -56q-1 -37 -45 -75q-111 -102 -252 -102t-252 102q-44 38 -45 75q-2 30 21 56q25 28 59 26q25 -1 54 -26q82 -72 163 -72z" />
<glyph unicode="&#x41a;" horiz-adv-x="1234" d="M401 139q0 -42 -2.5 -60t-13.5 -38q-27 -49 -92 -49t-92 49q-11 20 -13.5 38t-2.5 60v1146q0 42 2.5 60t13.5 38q27 49 92 49t92 -49q11 -20 13.5 -38t2.5 -60v-451h75l439 533q29 35 50 50t49 15q37 0 67 -25q39 -33 39 -78q0 -22 -10.5 -41t-37.5 -52l-418 -491 l460 -557q27 -33 37.5 -52t10.5 -41q0 -45 -39 -78q-30 -25 -67 -25q-28 0 -49 15t-50 50l-476 577h-80v-495z" />
<glyph unicode="&#x41b;" horiz-adv-x="1439" d="M409 824v468q0 70 31 101t101 31h581q70 0 101 -31t31 -101v-1153q0 -42 -2.5 -60t-13.5 -38q-27 -49 -92 -49t-92 49q-11 20 -13.5 38t-2.5 60v1093h-420v-451q0 -222 -26.5 -374t-82.5 -241.5t-133.5 -127.5t-188.5 -38q-67 0 -92 14q-45 25 -45 83q0 57 45 82 q21 13 56 14q137 3 197.5 153t60.5 478z" />
<glyph unicode="&#x41c;" horiz-adv-x="1626" d="M1225 952l-301 -630q-19 -40 -44.5 -60t-65.5 -20t-65.5 19.5t-45.5 60.5l-302 630v-813q0 -42 -2.5 -60t-13.5 -38q-27 -49 -92 -49t-92 49q-11 20 -13.5 38t-2.5 60v1160q0 68 32 101q32 32 79 32q36 0 61 -14q29 -17 53 -65l404 -824l402 824q24 48 53 65q25 14 61 14 q47 0 79 -32q32 -33 32 -101v-1160q0 -42 -2.5 -60t-13.5 -38q-27 -49 -92 -49t-92 49q-11 20 -13.5 38t-2.5 60v813z" />
<glyph unicode="&#x41d;" horiz-adv-x="1380" d="M401 815h578v470q0 42 2.5 60t13.5 38q27 49 92 49t92 -49q11 -20 13.5 -38t2.5 -60v-1146q0 -42 -2.5 -60t-13.5 -38q-27 -49 -92 -49t-92 49q-11 20 -13.5 38t-2.5 60v484h-578v-484q0 -42 -2.5 -60t-13.5 -38q-27 -49 -92 -49t-92 49q-11 20 -13.5 38t-2.5 60v1146 q0 42 2.5 60t13.5 38q27 49 92 49t92 -49q11 -20 13.5 -38t2.5 -60v-470z" />
<glyph unicode="&#x41e;" horiz-adv-x="1294" d="M278 133q-41 41 -68 86.5t-42 88.5t-22.5 113t-9 127t-1.5 164t1.5 164t9 127t22.5 113t42 88.5t68 86.5q145 145 369 145q223 0 368 -145q41 -41 68 -86.5t42.5 -89t23 -112.5t9 -127t1.5 -164t-1.5 -164t-9 -127t-23 -112.5t-42.5 -89t-68 -86.5q-145 -145 -368 -145 q-224 0 -369 145zM435 270q84 -90 212 -90q127 0 212 90q52 56 68 142t16 300t-16 300.5t-68 142.5q-84 89 -212 89q-129 0 -212 -89q-52 -55 -68 -141.5t-16 -301.5t16 -301t68 -141z" />
<glyph unicode="&#x41f;" horiz-adv-x="1380" d="M401 139q0 -42 -2.5 -60t-13.5 -38q-27 -49 -92 -49t-92 49q-11 20 -13.5 38t-2.5 60v1153q0 70 31 101t101 31h746q70 0 101 -31t31 -101v-1153q0 -42 -2.5 -60t-13.5 -38q-27 -49 -92 -49t-92 49q-11 20 -13.5 38t-2.5 60v1093h-578v-1093z" />
<glyph unicode="&#x420;" horiz-adv-x="1257" d="M201 41q-11 20 -13.5 38t-2.5 60v1153q0 70 31 101t101 31h408q206 0 331 -121.5t125 -310.5t-125 -309.5t-331 -120.5h-324v-423q0 -42 -2.5 -60t-13.5 -38q-27 -49 -92 -49t-92 49zM401 1232v-478h312q115 0 183.5 63.5t68.5 174.5q0 113 -68 176.5t-184 63.5h-312z " />
<glyph unicode="&#x421;" horiz-adv-x="1257" d="M135 712q0 107 1.5 164t9 127t22.5 113t42 88.5t68 86.5q145 145 367 145q129 0 216.5 -36.5t156.5 -110.5q55 -59 82 -122t27 -107q0 -52 -29 -81q-32 -30 -75 -30q-38 0 -64 21q-27 21 -53 81q-41 95 -104.5 144t-160.5 49q-122 0 -205 -89q-54 -59 -69.5 -145 t-15.5 -298t15.5 -298t69.5 -145q83 -89 205 -89q97 0 160.5 49t104.5 144q26 60 53 81q26 21 64 21q43 0 75 -30q29 -29 29 -81q0 -44 -27 -107t-82 -122q-69 -74 -156.5 -110.5t-216.5 -36.5q-222 0 -367 145q-41 41 -68 86.5t-42 88.5t-22.5 113t-9 127t-1.5 164z" />
<glyph unicode="&#x422;" horiz-adv-x="1116" d="M1066 1328q0 -57 -44 -82q-26 -14 -88 -14h-268v-1093q0 -42 -2.5 -60t-13.5 -38q-27 -49 -92 -49t-92 49q-11 20 -13.5 38t-2.5 60v1093h-268q-62 0 -88 14q-44 25 -44 82t44 82q26 14 88 14h752q62 0 88 -14q44 -25 44 -82z" />
<glyph unicode="&#x423;" horiz-adv-x="1039" d="M57 1258q-13 33 -17.5 53.5t0.5 45t24 44.5q30 32 79 32q33 0 59 -21q15 -12 24 -28.5t23 -53.5l276 -721l265 721q14 37 23 53.5t24 28.5q26 21 59 21q49 0 79 -32q19 -20 24 -44.5t0.5 -45t-17.5 -53.5l-369 -984q-51 -136 -130 -205t-194 -69h-33q-61 0 -88 14 q-44 24 -44 82t44 82q25 14 86 14q51 0 80.5 21t56.5 73l24 47z" />
<glyph unicode="&#x424;" horiz-adv-x="1610" d="M913 130q0 -42 -2.5 -60t-13.5 -38q-27 -49 -92 -49t-92 49q-11 20 -13.5 38t-2.5 60v40q-311 10 -455 158t-144 429t144 429t455 158q0 42 2.5 59.5t13.5 37.5q27 49 92 49t92 -49q11 -20 13.5 -37.5t2.5 -59.5q311 -10 455 -158t144 -429t-144 -429t-455 -158v-40z M1296 757q0 199 -87 297.5t-296 105.5v-806q209 6 296 105t87 298zM314 757q0 -99 19.5 -170t63.5 -123.5t118.5 -79.5t181.5 -30v806q-209 -7 -296 -105.5t-87 -297.5z" />
<glyph unicode="&#x425;" horiz-adv-x="1114" d="M209 1432q37 0 59.5 -21.5t47.5 -66.5l241 -431l241 431q25 45 47.5 66.5t59.5 21.5q33 0 58 -15q55 -32 53 -89q-1 -31 -34 -89l-292 -507l314 -547q33 -58 34 -89q2 -57 -53 -89q-25 -15 -58 -15q-37 0 -59.5 21.5t-47.5 66.5l-263 467l-263 -467q-25 -45 -47.5 -66.5 t-59.5 -21.5q-33 0 -58 15q-55 32 -53 89q1 31 34 89l314 546l-292 508q-33 58 -34 89q-2 57 53 89q25 15 58 15z" />
<glyph unicode="&#x426;" horiz-adv-x="1429" d="M1363 -182q0 -42 -2.5 -60t-13.5 -38q-27 -49 -92 -49t-92 49q-11 20 -13.5 38t-2.5 60v182h-830q-70 0 -101 31t-31 101v1153q0 42 2.5 60t13.5 38q27 49 92 49t92 -49q11 -20 13.5 -38t2.5 -60v-1093h576v1093q0 42 2.5 60t13.5 38q27 49 92 49t92 -49q11 -20 13.5 -38 t2.5 -60v-1093h38q70 0 101 -31t31 -101v-242z" />
<glyph unicode="&#x427;" horiz-adv-x="1293" d="M892 139v419q-247 -47 -381 -47q-58 0 -111 12t-101 39.5t-83.5 67.5t-56 99.5t-20.5 132.5v423q0 42 2.5 60t13.5 38q27 49 92 49t92 -49q11 -20 13.5 -38t2.5 -60v-371q0 -209 220 -209q125 0 317 39v541q0 42 2.5 60t13.5 38q27 49 92 49t92 -49q11 -20 13.5 -38 t2.5 -60v-1146q0 -42 -2.5 -60t-13.5 -38q-27 -49 -92 -49t-92 49q-11 20 -13.5 38t-2.5 60z" />
<glyph unicode="&#x428;" horiz-adv-x="1984" d="M1799 132q0 -70 -31 -101t-101 -31h-1350q-70 0 -101 31t-31 101v1153q0 42 2.5 60t13.5 38q27 49 92 49t92 -49q11 -20 13.5 -38t2.5 -60v-1093h483v1093q0 42 2.5 60t13.5 38q27 49 92 49t92 -49q11 -20 13.5 -38t2.5 -60v-1093h483v1093q0 42 2.5 60t13.5 38 q27 49 92 49t92 -49q11 -20 13.5 -38t2.5 -60v-1153z" />
<glyph unicode="&#x429;" horiz-adv-x="2033" d="M1967 -182q0 -42 -2.5 -60t-13.5 -38q-27 -49 -92 -49t-92 49q-11 20 -13.5 38t-2.5 60v182h-1434q-70 0 -101 31t-31 101v1153q0 42 2.5 60t13.5 38q27 49 92 49t92 -49q11 -20 13.5 -38t2.5 -60v-1093h483v1093q0 42 2.5 60t13.5 38q27 49 92 49t92 -49 q11 -20 13.5 -38t2.5 -60v-1093h483v1093q0 42 2.5 60t13.5 38q27 49 92 49t92 -49q11 -20 13.5 -38t2.5 -60v-1093h36q70 0 101 -31t31 -101v-242z" />
<glyph unicode="&#x42a;" horiz-adv-x="1479" d="M403 1232h-221q-62 0 -88 14q-44 25 -44 82t44 82q26 14 88 14h305q70 0 101 -31t31 -101v-430h327q206 0 331 -120.5t125 -309.5t-125 -310.5t-331 -121.5h-411q-70 0 -101 31t-31 101v1100zM619 670v-478h315q116 0 184 63.5t68 176.5q0 111 -68.5 174.5t-183.5 63.5 h-315z" />
<glyph unicode="&#x42b;" horiz-adv-x="1756" d="M1571 139q0 -42 -2.5 -60t-13.5 -38q-27 -49 -92 -49t-92 49q-11 20 -13.5 38t-2.5 60v1146q0 42 2.5 60t13.5 38q27 49 92 49t92 -49q11 -20 13.5 -38t2.5 -60v-1146zM201 1383q27 49 92 49t92 -49q11 -20 13.5 -38t2.5 -60v-423h327q206 0 331 -120.5t125 -309.5 t-125 -310.5t-331 -121.5h-411q-70 0 -101 31t-31 101v1153q0 42 2.5 60t13.5 38zM401 670v-478h315q116 0 184 63.5t68 176.5q0 111 -68.5 174.5t-183.5 63.5h-315z" />
<glyph unicode="&#x42c;" horiz-adv-x="1261" d="M201 1383q27 49 92 49t92 -49q11 -20 13.5 -38t2.5 -60v-423h327q206 0 331 -120.5t125 -309.5t-125 -310.5t-331 -121.5h-411q-70 0 -101 31t-31 101v1153q0 42 2.5 60t13.5 38zM401 670v-478h315q116 0 184 63.5t68 176.5q0 111 -68.5 174.5t-183.5 63.5h-315z" />
<glyph unicode="&#x42d;" horiz-adv-x="1253" d="M1118 712q0 -107 -1.5 -164t-9 -127t-22.5 -113t-42 -88.5t-68 -86.5q-145 -145 -367 -145q-129 0 -216.5 36.5t-156.5 110.5q-55 59 -82 122t-27 107q0 52 29 81q31 30 75 30q38 0 64 -21q27 -21 53 -81q41 -95 104.5 -144t160.5 -49q122 0 205 89q49 52 66 125t19 228 h-357q-62 0 -88 14q-44 25 -44 82t44 82q26 14 88 14h357q-3 148 -20 219t-65 122q-83 89 -205 89q-97 0 -160.5 -49t-104.5 -144q-26 -60 -53 -81q-26 -21 -64 -21q-44 0 -75 30q-29 29 -29 81q0 44 27 107t82 122q69 74 156.5 110.5t216.5 36.5q222 0 367 -145 q41 -41 68 -86.5t42 -88.5t22.5 -113t9 -127t1.5 -164z" />
<glyph unicode="&#x42e;" horiz-adv-x="1818" d="M401 139q0 -42 -2.5 -60t-13.5 -38q-27 -49 -92 -49t-92 49q-11 20 -13.5 38t-2.5 60v1146q0 42 2.5 60t13.5 38q27 49 92 49t92 -49q11 -20 13.5 -38t2.5 -60v-469h259q2 187 29.5 288t113.5 187q145 145 369 145q223 0 368 -145q41 -41 68 -86.5t42.5 -89t23 -112.5 t9 -127t1.5 -164t-1.5 -164t-9 -127t-23 -112.5t-42.5 -89t-68 -86.5q-145 -145 -368 -145q-224 0 -369 145q-88 87 -114.5 190.5t-28.5 298.5h-259v-483zM960 270q84 -90 212 -90q127 0 212 90q52 56 68 142t16 300t-16 300.5t-68 142.5q-84 89 -212 89q-129 0 -212 -89 q-52 -55 -68 -141.5t-16 -301.5t16 -301t68 -141z" />
<glyph unicode="&#x42f;" horiz-adv-x="1305" d="M904 1232h-312q-117 0 -184.5 -63.5t-67.5 -174.5q0 -110 67.5 -175t184.5 -65h312v478zM150 185l238 417q-123 46 -193.5 149t-70.5 242q0 189 125 310t330 121h409q70 0 101 -31t31 -101v-1153q0 -42 -2.5 -60t-13.5 -38q-27 -49 -92 -49t-92 49q-11 20 -13.5 38 t-2.5 60v423h-295l-275 -482q-25 -45 -47.5 -66.5t-59.5 -21.5q-33 0 -58 15q-55 32 -53 89q1 31 34 89z" />
<glyph unicode="&#x430;" horiz-adv-x="1060" d="M83 298q0 132 91.5 213t259.5 81h269v63q0 101 -50.5 149.5t-161.5 48.5q-105 0 -194 -68q-35 -27 -74 -27q-37 0 -59 27q-24 27 -24 63q0 62 95 117q106 61 258 61q204 0 309.5 -88.5t105.5 -260.5v-546q0 -65 -15 -92q-25 -47 -87 -47q-47 0 -74 29q-21 24 -23 73 q-60 -59 -119.5 -82t-152.5 -23q-184 0 -273 92q-81 83 -81 217zM282 301q0 -143 191 -143q62 0 105.5 11.5t79.5 46.5q45 42 45 151v80h-240q-89 0 -135 -37.5t-46 -108.5z" />
<glyph unicode="&#x431;" horiz-adv-x="1082" d="M305 864q38 61 114 97.5t171 36.5q159 0 249 -84q133 -123 133 -410q0 -147 -30.5 -241t-93.5 -160q-110 -115 -293 -115q-132 0 -225.5 58t-136.5 162q-64 113 -64 365q0 114 1 181.5t4.5 144t10.5 121t18.5 93t30 80t43 62.5t59.5 59q77 63 207.5 92.5t271.5 29.5 q60 0 85 -14q43 -25 43 -80q0 -54 -43 -79q-25 -14 -85 -14q-279 0 -383 -94q-50 -47 -68.5 -118t-18.5 -173zM704 233q35 38 49.5 99t14.5 167q0 189 -63 262q-57 64 -152 64q-97 0 -153 -63q-67 -78 -67 -263q0 -190 70 -268q56 -60 150 -60q96 0 151 62z" />
<glyph unicode="&#x432;" horiz-adv-x="1093" d="M366 440v-284h252q72 0 113 39t41 105t-41 103t-113 37h-252zM606 858h-240v-260h240q73 0 111.5 33.5t38.5 96.5q0 62 -39 96t-111 34zM667 0h-380q-67 0 -96 29t-29 96v764q0 67 29 96t96 29h365q140 0 224 -74t84 -198q0 -150 -144 -219q160 -71 160 -237 q0 -131 -83.5 -208.5t-225.5 -77.5z" />
<glyph unicode="&#x433;" horiz-adv-x="864" d="M366 131q0 -61 -15 -91q-25 -48 -87 -48t-87 48q-15 30 -15 91v758q0 67 29 96t96 29h418q60 0 83 -14q42 -25 42 -78t-42 -78q-25 -14 -83 -14h-339v-699z" />
<glyph unicode="&#x434;" horiz-adv-x="1169" d="M907 0h-661v-137q0 -61 -15 -91q-25 -48 -87 -48t-87 48q-15 30 -15 91v196q0 67 29 96t90 29q49 92 77.5 193.5t37.5 265.5q2 44 2 246q0 67 29 96t96 29h432q67 0 96 -29t29 -96v-705h26q67 0 96 -29t29 -96v-196q0 -61 -15 -91q-25 -48 -87 -48t-87 48q-15 30 -15 91 v137zM373 184h383v646h-283v-126q-1 -188 -27 -306.5t-73 -213.5z" />
<glyph unicode="&#x435;" horiz-adv-x="1075" d="M110 507q0 247 116 383t314 136q195 0 309.5 -128t119.5 -333q2 -61 -28 -91q-26 -26 -90 -26h-539q0 -132 67.5 -209t192.5 -77q115 0 195 64q46 37 83 37q32 0 58 -26.5t26 -60.5q0 -58 -102 -123q-99 -65 -265 -65q-99 0 -179 27.5t-144 86.5t-99 162t-35 243z M768 590q-6 89 -28 138q-26 59 -78 93.5t-122 34.5q-71 0 -123.5 -34.5t-78.5 -93.5q-23 -51 -26 -138h456z" />
<glyph unicode="&#x436;" horiz-adv-x="1476" d="M70 82q0 38 47 92l311 355l-282 311q-47 51 -47 92q0 38 32 66q27 24 63 24q24 0 44 -13t49 -46l306 -352h43v272q0 61 15 91q25 48 87 48t87 -48q15 -30 15 -91v-272h43l306 352q29 33 49 46t44 13q36 0 63 -24q32 -28 32 -66q0 -41 -47 -92l-282 -311l311 -355 q47 -54 47 -92t-32 -66q-27 -24 -63 -24q-24 0 -44 13t-49 46l-335 382h-43v-302q0 -61 -15 -91q-25 -48 -87 -48t-87 48q-15 30 -15 91v302h-43l-335 -382q-29 -33 -49 -46t-44 -13q-36 0 -63 24q-32 28 -32 66z" />
<glyph unicode="&#x437;" horiz-adv-x="978" d="M484 441h-59q-49 0 -71 12q-36 20 -36 66t36 66q22 12 71 12h57q75 0 118.5 34t43.5 97q0 131 -190 131q-55 0 -93.5 -11.5t-83.5 -38.5q-44 -27 -75 -27t-53 24q-24 24 -24 60q0 51 61 90q57 37 122.5 53.5t157.5 16.5q172 0 275.5 -73.5t103.5 -200.5q0 -74 -40 -134 t-110 -88q76 -28 121 -91t45 -146q0 -138 -110 -221.5t-287 -83.5q-101 0 -170 18.5t-133 60.5q-67 44 -67 97q0 35 26 61q24 26 58 26q36 0 77 -28q49 -33 93.5 -47t103.5 -14q98 0 153 37t55 106q0 67 -47 101.5t-129 34.5z" />
<glyph unicode="&#x438;" horiz-adv-x="1155" d="M789 680l-394 -591q-35 -52 -63 -74.5t-64 -22.5q-45 0 -73 28q-33 32 -33 104v759q0 61 15 91q25 48 87 48t87 -48q15 -30 15 -91v-548l395 590q35 53 63 75.5t64 22.5q45 0 73 -28q32 -33 32 -104v-760q0 -61 -15 -91q-25 -48 -87 -48t-87 48q-15 30 -15 91v549z" />
<glyph unicode="&#x439;" horiz-adv-x="1155" d="M789 680l-394 -591q-35 -52 -63 -74.5t-64 -22.5q-45 0 -73 28q-33 32 -33 104v759q0 61 15 91q25 48 87 48t87 -48q15 -30 15 -91v-548l395 590q35 53 63 75.5t64 22.5q45 0 73 -28q32 -33 32 -104v-760q0 -61 -15 -91q-25 -48 -87 -48t-87 48q-15 30 -15 91v549z M578 1349q81 0 163 72q29 25 54 26q34 2 59 -26q23 -26 21 -56q-1 -37 -45 -75q-111 -102 -252 -102t-252 102q-44 38 -45 75q-2 30 21 56q25 28 59 26q25 -1 54 -26q82 -72 163 -72z" />
<glyph unicode="&#x43a;" horiz-adv-x="1007" d="M937 82q0 -38 -32 -66q-27 -24 -63 -24q-24 0 -44 13t-49 46l-335 382h-48v-302q0 -61 -15 -91q-25 -48 -87 -48t-87 48q-15 30 -15 91v752q0 61 15 91q25 48 87 48t87 -48q15 -30 15 -91v-272h48l306 352q29 33 49 46t44 13q36 0 63 -24q32 -28 32 -66q0 -41 -47 -92 l-282 -311l311 -355q47 -54 47 -92z" />
<glyph unicode="&#x43b;" horiz-adv-x="1127" d="M468 830v-288q0 -125 -14.5 -219t-41 -155t-67.5 -99t-89 -53.5t-110 -15.5q-44 0 -71 14q-41 23 -41 75t40 76q13 8 42 12q34 5 59 23.5t48 61t35.5 124t12.5 199.5v304q0 67 29 96t96 29h444q67 0 96 -29t29 -96v-758q0 -61 -15 -91q-25 -48 -87 -48t-87 48 q-15 30 -15 91v699h-293z" />
<glyph unicode="&#x43c;" horiz-adv-x="1336" d="M668 187q-37 0 -62.5 21t-50.5 69l-189 353v-499q0 -61 -15 -91q-25 -48 -87 -48t-87 48q-15 30 -15 91v760q0 70 33 103q30 28 72 28q40 0 69.5 -26t61.5 -82l270 -487l270 487q32 56 61.5 82t69.5 26q42 0 72 -28q33 -33 33 -103v-760q0 -61 -15 -91q-25 -48 -87 -48 t-87 48q-15 30 -15 91v499l-189 -353q-25 -48 -50.5 -69t-62.5 -21z" />
<glyph unicode="&#x43d;" horiz-adv-x="1138" d="M976 131q0 -61 -15 -91q-25 -48 -87 -48t-87 48q-15 30 -15 91v301h-406v-301q0 -61 -15 -91q-25 -48 -87 -48t-87 48q-15 30 -15 91v752q0 61 15 91q25 48 87 48t87 -48q15 -30 15 -91v-273h406v273q0 61 15 91q25 48 87 48t87 -48q15 -30 15 -91v-752z" />
<glyph unicode="&#x43e;" horiz-adv-x="1074" d="M319 507q0 -99 14 -167t56 -110q57 -58 148 -58t148 58q42 42 56 110t14 167q0 98 -14 166.5t-56 110.5q-57 58 -148 58t-148 -58q-42 -42 -56 -110.5t-14 -166.5zM115 507q0 141 24.5 234t94.5 165q116 120 303 120t303 -120q69 -72 94 -165.5t25 -233.5t-25 -233.5 t-94 -165.5q-116 -120 -303 -120t-303 120q-70 72 -94.5 165t-24.5 234z" />
<glyph unicode="&#x43f;" horiz-adv-x="1137" d="M366 131q0 -61 -15 -91q-25 -48 -87 -48t-87 48q-15 30 -15 91v758q0 67 29 96t96 29h563q67 0 96 -29t29 -96v-758q0 -61 -15 -91q-25 -48 -87 -48t-87 48q-15 30 -15 91v699h-405v-699z" />
<glyph unicode="&#x440;" horiz-adv-x="1105" d="M177 -369q-15 30 -15 91v1161q0 67 18 97q27 43 84 43q55 0 83 -40q16 -23 18 -72q54 64 117 90t148 26q158 0 248 -90q67 -68 89.5 -174t22.5 -256q0 -149 -22.5 -254.5t-89.5 -173.5q-91 -91 -246 -91q-85 0 -149 26t-117 89v-381q0 -61 -15 -91q-25 -48 -87 -48 t-87 48zM786 508q0 60 -4 104.5t-17 90.5t-35.5 74.5t-61 47t-92.5 18.5t-93 -18.5t-61.5 -47t-35.5 -74.5t-17 -90.5t-4 -104.5t4 -104.5t17 -90.5t35.5 -75t61.5 -47.5t93 -18.5t92.5 18.5t61 47.5t35.5 75t17 90.5t4 104.5z" />
<glyph unicode="&#x441;" horiz-adv-x="969" d="M110 507q0 137 37.5 240.5t102 162.5t142.5 87.5t168 28.5q123 0 222 -64q48 -31 73.5 -59t25.5 -63q0 -36 -29 -67q-26 -26 -63 -26q-34 0 -81 39q-70 56 -148 56q-119 0 -185 -87q-61 -80 -61 -248t61 -247q66 -88 185 -88q75 0 148 57q49 39 81 39q36 0 63 -27 q29 -31 29 -67q0 -35 -26.5 -63.5t-72.5 -58.5q-100 -64 -222 -64q-90 0 -168 28.5t-142.5 87.5t-102 162.5t-37.5 240.5z" />
<glyph unicode="&#x442;" horiz-adv-x="910" d="M751 830h-194v-699q0 -61 -15 -91q-25 -48 -87 -48t-87 48q-15 30 -15 91v699h-194q-58 0 -83 14q-42 25 -42 78t42 78q23 14 83 14h592q60 0 83 -14q42 -25 42 -78t-42 -78q-25 -14 -83 -14z" />
<glyph unicode="&#x443;" horiz-adv-x="898" d="M834 863l-369 -1066q-29 -82 -74 -126q-76 -75 -199 -75q-67 0 -94 24q-29 26 -29 69q0 48 31 72q24 19 68 19q48 0 79.5 24t51.5 84l49 149l-284 826q-22 65 -11 98q8 24 35 42.5t60 18.5q42 0 62.5 -24.5t36.5 -73.5l200 -621l204 621q16 49 36.5 73.5t62.5 24.5 q33 0 60 -18.5t35 -42.5q12 -36 -11 -98z" />
<glyph unicode="&#x444;" horiz-adv-x="1416" d="M810 -9v-270q0 -61 -15 -91q-25 -48 -87 -48t-87 48q-15 30 -15 91v270q-238 15 -370 142.5t-132 372.5q0 246 132 374t370 143v270q0 61 15 91q25 48 87 48t87 -48q15 -30 15 -91v-270q238 -15 370 -143t132 -373t-132 -373t-370 -143zM608 165v684 q-147 -5 -223.5 -92.5t-76.5 -250.5t76.5 -249.5t223.5 -91.5zM808 849v-684q147 5 223.5 92t76.5 250t-76.5 250t-223.5 92z" />
<glyph unicode="&#x445;" horiz-adv-x="900" d="M819 926q0 -30 -35 -86l-210 -330l215 -336q35 -56 35 -86q0 -49 -48 -79q-27 -17 -56 -17q-32 0 -52.5 17.5t-46.5 59.5l-170 280l-172 -280q-26 -42 -46.5 -59.5t-52.5 -17.5q-29 0 -56 17q-48 30 -48 79q0 30 35 86l216 335l-211 331q-35 56 -35 86q0 49 48 79 q27 17 56 17q32 0 52.5 -17.5t46.5 -59.5l167 -273l165 273q26 42 46.5 59.5t52.5 17.5q29 0 56 -17q48 -30 48 -79z" />
<glyph unicode="&#x446;" horiz-adv-x="1184" d="M922 0h-635q-67 0 -96 29t-29 96v758q0 61 15 91q25 48 87 48t87 -48q15 -30 15 -91v-699h404v699q0 61 15 91q25 48 87 48t87 -48q15 -30 15 -91v-699h27q67 0 96 -29t29 -96v-196q0 -61 -15 -91q-25 -48 -87 -48t-87 48q-15 30 -15 91v137z" />
<glyph unicode="&#x447;" horiz-adv-x="1079" d="M713 550v333q0 61 15 91q25 48 87 48t87 -48q15 -30 15 -91v-752q0 -61 -15 -91q-25 -48 -87 -48t-87 48q-15 30 -15 91v244q-165 -33 -297 -33q-131 0 -211 73t-80 209v259q0 61 15 91q25 48 87 48t87 -48q15 -30 15 -91v-207q0 -152 156 -152q91 0 228 26z" />
<glyph unicode="&#x448;" horiz-adv-x="1622" d="M1460 125q0 -67 -29 -96t-96 -29h-1048q-67 0 -96 29t-29 96v758q0 61 15 91q25 48 87 48t87 -48q15 -30 15 -91v-699h343v699q0 61 15 91q25 48 87 48t87 -48q15 -30 15 -91v-699h343v699q0 61 15 91q25 48 87 48t87 -48q15 -30 15 -91v-758z" />
<glyph unicode="&#x449;" horiz-adv-x="1672" d="M1410 0h-1123q-67 0 -96 29t-29 96v758q0 61 15 91q25 48 87 48t87 -48q15 -30 15 -91v-699h343v699q0 61 15 91q25 48 87 48t87 -48q15 -30 15 -91v-699h343v699q0 61 15 91q25 48 87 48t87 -48q15 -30 15 -91v-699h29q67 0 96 -29t29 -96v-196q0 -61 -15 -91 q-25 -48 -87 -48t-87 48q-15 30 -15 91v137z" />
<glyph unicode="&#x44a;" horiz-adv-x="1165" d="M289 830h-130q-58 0 -83 14q-42 25 -42 78t42 78q23 14 83 14h209q67 0 96 -29t29 -96v-258h272q148 0 239 -87.5t91 -227.5q0 -141 -91.5 -228.5t-238.5 -87.5h-351q-67 0 -96 29t-29 96v705zM493 165h235q79 0 121 39.5t42 111.5t-42 111.5t-121 39.5h-235v-302z" />
<glyph unicode="&#x44b;" horiz-adv-x="1470" d="M366 165h235q79 0 121 39.5t42 111.5t-42 111.5t-121 39.5h-235v-302zM638 0h-351q-67 0 -96 29t-29 96v758q0 61 15 91q25 48 87 48t87 -48q15 -30 15 -91v-252h272q148 0 239 -87.5t91 -227.5q0 -141 -91.5 -228.5t-238.5 -87.5zM1308 131q0 -61 -15 -91 q-25 -48 -87 -48t-87 48q-15 30 -15 91v752q0 61 15 91q25 48 87 48t87 -48q15 -30 15 -91v-752z" />
<glyph unicode="&#x44c;" horiz-adv-x="1038" d="M366 165h235q79 0 121 39.5t42 111.5t-42 111.5t-121 39.5h-235v-302zM638 0h-351q-67 0 -96 29t-29 96v758q0 61 15 91q25 48 87 48t87 -48q15 -30 15 -91v-252h272q148 0 239 -87.5t91 -227.5q0 -141 -91.5 -228.5t-238.5 -87.5z" />
<glyph unicode="&#x44d;" horiz-adv-x="970" d="M860 507q0 -137 -37.5 -240.5t-102.5 -162.5t-143 -87.5t-168 -28.5q-122 0 -222 64q-46 30 -72.5 58.5t-26.5 63.5q0 36 29 67q27 27 63 27q32 0 81 -39q73 -57 148 -57q119 0 185 88q48 63 57 166h-232q-58 0 -83 14q-42 25 -42 78t42 78q23 14 83 14h230 q-11 86 -55 145q-66 87 -185 87q-78 0 -148 -56q-47 -39 -81 -39q-37 0 -63 26q-29 31 -29 67q0 35 25.5 63t73.5 59q99 64 222 64q90 0 168 -28.5t143 -87.5t102.5 -162.5t37.5 -240.5z" />
<glyph unicode="&#x44e;" horiz-adv-x="1504" d="M366 131q0 -61 -15 -91q-25 -48 -87 -48t-87 48q-15 30 -15 91v752q0 61 15 91q25 48 87 48t87 -48q15 -30 15 -91v-276h182q6 97 32.5 169t83.5 130q116 120 303 120t303 -120q69 -72 94 -165.5t25 -233.5t-25 -233.5t-94 -165.5q-116 -120 -303 -120t-303 120 q-60 61 -86 138.5t-32 184.5h-180v-300zM749 507q0 -99 14 -167t56 -110q57 -58 148 -58t148 58q42 42 56 110t14 167q0 98 -14 166.5t-56 110.5q-57 58 -148 58t-148 -58q-42 -42 -56 -110.5t-14 -166.5z" />
<glyph unicode="&#x44f;" horiz-adv-x="1097" d="M142 174l158 250q-83 36 -130.5 109.5t-47.5 169.5q0 138 91.5 224.5t238.5 86.5h353q67 0 96 -29t29 -96v-758q0 -61 -15 -91q-25 -48 -87 -48t-87 48q-15 30 -15 91v249h-221l-195 -311q-26 -42 -46.5 -59.5t-52.5 -17.5q-29 0 -56 17q-48 30 -48 79q0 30 35 86z M725 542v308h-237q-77 0 -120.5 -41t-43.5 -113q0 -71 43.5 -112.5t116.5 -41.5h241z" />
<glyph unicode="&#x450;" horiz-adv-x="1075" d="M110 507q0 247 116 383t314 136q195 0 309.5 -128t119.5 -333q2 -61 -28 -91q-26 -26 -90 -26h-539q0 -132 67.5 -209t192.5 -77q115 0 195 64q46 37 83 37q32 0 58 -26.5t26 -60.5q0 -58 -102 -123q-99 -65 -265 -65q-99 0 -179 27.5t-144 86.5t-99 162t-35 243z M768 590q-6 89 -28 138q-26 59 -78 93.5t-122 34.5q-71 0 -123.5 -34.5t-78.5 -93.5q-23 -51 -26 -138h456zM434 1250l-93 149q-30 49 -31 74q-3 47 43 77q24 15 49 15t47 -16q17 -12 44 -55l93 -149q30 -49 31 -74q3 -47 -43 -77q-24 -15 -49 -15t-47 16q-17 12 -44 55z " />
<glyph unicode="&#x451;" horiz-adv-x="1075" d="M110 507q0 247 116 383t314 136q195 0 309.5 -128t119.5 -333q2 -61 -28 -91q-26 -26 -90 -26h-539q0 -132 67.5 -209t192.5 -77q115 0 195 64q46 37 83 37q32 0 58 -26.5t26 -60.5q0 -58 -102 -123q-99 -65 -265 -65q-99 0 -179 27.5t-144 86.5t-99 162t-35 243z M768 590q-6 89 -28 138q-26 59 -78 93.5t-122 34.5q-71 0 -123.5 -34.5t-78.5 -93.5q-23 -51 -26 -138h456zM878 1314q0 -47 -33 -80.5t-79 -33.5t-80 34t-34 80t33.5 79t80.5 33q46 0 79 -33t33 -79zM438 1314q0 -46 -34 -80t-80 -34t-79 33.5t-33 80.5q0 46 33 79t79 33 q47 0 80.5 -33t33.5 -79z" />
<glyph unicode="&#x452;" horiz-adv-x="1137" d="M695 1117h-328v-234q105 111 265 111q156 0 250 -92q103 -99 103 -286v-749q0 -78 -28 -139.5t-91.5 -101.5t-155.5 -40h-20q-57 0 -86 16q-41 22 -41 71q0 50 41 72q22 12 74 14q103 3 103 117v709q0 113 -56.5 169t-149.5 56q-91 0 -149.5 -55.5t-58.5 -166.5v-457 q0 -61 -15 -91q-25 -48 -87 -48t-87 48q-15 30 -15 91v986h-23q-49 0 -71 12q-36 20 -36 66t36 66q22 12 71 12h23v20q0 61 15 91q25 48 87 48t87 -48q15 -30 15 -91v-20h328q49 0 71 -12q36 -20 36 -66t-36 -66q-22 -12 -71 -12z" />
<glyph unicode="&#x453;" horiz-adv-x="864" d="M366 131q0 -61 -15 -91q-25 -48 -87 -48t-87 48q-15 30 -15 91v758q0 67 29 96t96 29h418q60 0 83 -14q42 -25 42 -78t-42 -78q-25 -14 -83 -14h-339v-699zM642 1399l-93 -149q-27 -43 -44 -55q-22 -16 -47 -16t-49 15q-46 30 -43 77q1 25 31 74l93 149q27 43 44 55 q22 16 47 16t49 -15q46 -30 43 -77q-1 -25 -31 -74z" />
<glyph unicode="&#x454;" horiz-adv-x="970" d="M110 507q0 137 37.5 240.5t102.5 162.5t143 87.5t168 28.5q123 0 222 -64q48 -31 73.5 -59t25.5 -63q0 -36 -29 -67q-26 -26 -63 -26q-34 0 -81 39q-70 56 -148 56q-119 0 -185 -87q-44 -59 -55 -145h230q60 0 83 -14q42 -25 42 -78t-42 -78q-25 -14 -83 -14h-232 q9 -103 57 -166q66 -88 185 -88q75 0 148 57q49 39 81 39q36 0 63 -27q29 -31 29 -67q0 -35 -26.5 -63.5t-72.5 -58.5q-100 -64 -222 -64q-90 0 -168 28.5t-143 87.5t-102.5 162.5t-37.5 240.5z" />
<glyph unicode="&#x455;" horiz-adv-x="999" d="M489 -12q-218 0 -353 92q-56 38 -56 85q0 43 33 70q24 21 56 21q31 0 76 -29q105 -68 245 -68q102 0 162.5 36.5t60.5 106.5q0 107 -137 120l-163 15q-300 27 -300 278q0 145 109 228t274 83q153 0 273 -56q46 -22 66 -43q19 -23 19 -56t-25 -60q-26 -26 -60 -26 q-22 0 -66 21q-109 53 -211 53q-88 0 -135 -36.5t-47 -96.5q0 -55 34.5 -82.5t105.5 -33.5l160 -15q301 -29 301 -286q0 -154 -117 -237.5t-305 -83.5z" />
<glyph unicode="&#x456;" horiz-adv-x="528" d="M366 131q0 -61 -15 -91q-25 -48 -87 -48t-87 48q-15 30 -15 91v752q0 61 15 91q25 48 87 48t87 -48q15 -30 15 -91v-752zM141 1345q0 51 36 87t87 36t87 -36t36 -87t-36 -87t-87 -36t-87 36t-36 87z" />
<glyph unicode="&#x457;" horiz-adv-x="528" d="M573 1314q0 -47 -33 -80.5t-79 -33.5q-47 0 -80.5 34t-33.5 80t33.5 79t80.5 33t79.5 -33t32.5 -79zM181 1314q0 -46 -33.5 -80t-80.5 -34q-46 0 -79 33.5t-33 80.5q0 46 32.5 79t79.5 33t80.5 -33t33.5 -79zM366 131q0 -61 -15 -91q-25 -48 -87 -48t-87 48 q-15 30 -15 91v752q0 61 15 91q25 48 87 48t87 -48q15 -30 15 -91v-752z" />
</font>
</defs>
</svg>
