<?xml version="1.0" encoding="UTF-8"?>
<svg width="584px" height="612px" viewBox="0 0 584 612" version="1.1" xmlns="http://www.w3.org/2000/svg" xmlns:xlink="http://www.w3.org/1999/xlink">
    <!-- Generator: Sketch 49 (51002) - http://www.bohemiancoding.com/sketch -->
    <title>icon4</title>
    <desc>Created with Sketch.</desc>
    <defs></defs>
    <g id="Page-1" stroke="none" stroke-width="1" fill="none" fill-rule="evenodd">
        <g id="icon4" fill="#000000" fill-rule="nonzero">
            <path d="M536.4,281.817 C518.015,302.454 500.005,324.685 487.435,355.357 C481.714,369.521 468.113,378.714 452.822,378.714 C437.439,378.714 423.838,369.521 418.023,355.264 C403.482,319.618 381.439,295.325 360.052,271.874 C354.706,265.965 349.359,260.055 344.107,253.958 C343.826,254.052 343.636,254.146 343.357,254.239 C322.533,260.523 306.492,288.101 316.154,310.52 C322.72,325.903 368.777,322.996 364.838,356.107 C361.555,383.215 397.01,390.344 409.58,389.032 C422.15,387.531 441.473,409.669 431.717,419.424 C422.057,429.18 403.764,429.555 406.578,454.694 C407.328,462.01 429.467,461.073 429.467,472.141 C429.467,483.303 418.024,495.967 426.84,508.818 C428.717,511.631 430.686,513.789 432.75,515.477 C390.352,554.499 333.789,578.418 271.786,578.418 C140.745,578.418 34.186,471.859 34.186,340.818 C34.186,301.047 44.036,263.525 61.389,230.507 C61.295,273.187 84.089,308.644 94.782,319.337 C129.676,354.137 180.236,343.162 186.707,372.334 C193.273,401.413 152,401.507 154.721,423.737 C157.534,446.062 211.283,451.972 199.277,472.514 C183.424,499.81 209.97,501.78 202.279,535.454 C198.152,553.84 224.697,557.404 234.547,543.428 C242.051,532.735 240.55,519.602 255.652,503.563 C274.131,483.864 316.999,480.675 312.214,448.125 C304.054,394.096 251.525,385.653 228.637,372.989 C202.654,358.732 209.033,324.494 203.404,308.173 C195.525,285.004 168.791,314.646 154.533,301.138 C131.083,279.001 158.754,247.671 178.452,248.328 C220.006,249.641 232.763,290.07 248.052,288.662 C262.967,287.349 272.629,266.525 275.255,255.457 C280.79,231.35 265.875,242.137 259.872,229.567 C251.805,212.777 288.2,196.737 302.27,184.355 C304.428,182.479 306.022,180.697 306.866,179.008 C311.089,170.754 305.554,164.469 296.173,158.747 C277.414,147.396 243.176,138.392 241.582,120.664 C240.643,109.782 261.468,104.53 285.199,103.592 C289.138,103.78 292.984,104.155 296.925,104.53 C298.894,93.367 302.083,82.392 306.398,71.887 C295.048,70.386 283.511,69.635 271.785,69.635 C122.265,69.635 0.605,191.295 0.605,340.815 C0.604,490.34 122.265,612 271.785,612 C421.305,612 542.967,490.339 542.967,340.819 C542.967,320.558 540.715,300.766 536.4,281.817 Z M440.062,0.603 C363.51,7.839 311.078,82.016 324.439,157.741 C338.007,234.662 408.929,258.339 444.125,344.683 C447.297,352.464 458.252,352.503 461.422,344.721 C500.438,248.955 583.397,230.266 583.397,130.615 C583.396,54.282 517.916,-6.756 440.062,0.603 Z M452.781,199.593 C414.685,199.593 383.802,168.711 383.802,130.615 C383.802,92.52 414.685,61.638 452.781,61.638 C490.877,61.638 521.758,92.52 521.758,130.615 C521.758,168.71 490.875,199.593 452.781,199.593 Z" id="Shape"></path>
        </g>
    </g>
</svg>