<?xml version="1.0" encoding="UTF-8"?>
<svg width="787px" height="378px" viewBox="0 0 787 378" version="1.1" xmlns="http://www.w3.org/2000/svg" xmlns:xlink="http://www.w3.org/1999/xlink">
    <!-- Generator: Sketch 49 (51002) - http://www.bohemiancoding.com/sketch -->
    <title>icon1</title>
    <desc>Created with Sketch.</desc>
    <defs></defs>
    <g id="Page-1" stroke="none" stroke-width="1" fill="none" fill-rule="evenodd">
        <g id="icon1" fill="#000000" fill-rule="nonzero">
            <path d="M566,345.2 C565.801,343.6 565.4,341.999 564.9,340.499 C561.099,325.899 552.4,299.2 548.4,287.3 C548,285.2 547.3,283.2 546.4,281.3 C546.4,281.3 540,271.7 535.199,268.8 C535.199,268.8 532.801,267.499 532.5,267.4 C523,262.9 493.6,251.101 493.6,251.101 C478.901,244.701 463.7,239.3 448.2,233.8 C445.401,245.3 419.1,321.9 414.901,332.601 L411.6,261.4 C412.7,259.701 413.5,257.8 414.401,256 L425.401,234.301 C417.7,240.701 406.1,244.801 393.101,244.801 C380.401,244.801 369.101,240.901 361.401,234.701 L372.101,255.9 C373.001,257.701 373.801,259.701 374.901,261.3 L371.601,332.499 C367.401,321.899 341.101,245.3 338.301,233.7 C322.801,239.2 307.601,244.7 292.901,250.999 C292.901,250.999 263.501,262.8 254.001,267.3 C253.701,267.499 251.601,268.499 251.301,268.7 C251.301,268.7 242.501,275.999 240.101,281.1 C240.101,281.1 238.501,284.998 238.101,287.1 C234.201,298.998 225.501,325.6 221.601,340.299 C221.101,341.799 220.701,343.399 220.501,344.998 C220.301,346.398 220.201,347.898 220.201,349.299 C220.201,364.998 232.901,377.699 248.601,377.699 L275.701,377.699 C314.501,377.699 353.201,377.699 392.001,377.699 C392.501,377.699 393.001,377.699 393.501,377.699 C394.001,377.699 394.501,377.699 395.001,377.699 C433.802,377.699 472.501,377.699 511.302,377.699 L538.402,377.699 C554.101,377.699 566.802,364.998 566.802,349.299 C566.301,348.101 566.199,346.601 566,345.2 Z" id="Shape"></path>
            <path d="M467.199,102.2 C467.199,97.2 468.199,79 468.199,74.9 C468.199,34.4 435.301,1.5 394.8,1.5 L394.7,1.5 L394.6,1.5 C394.1,1.5 393.7,1.5 393.2,1.5 C392.7,1.5 392.301,1.5 391.801,1.5 L391.7,1.5 L391.6,1.5 C351.1,1.5 318.2,34.4 318.2,74.9 C318.2,79.1 319.2,97.2 319.2,102.2 C317.4,102.3 301.001,98.3 302.801,118 C306.501,159.7 322.501,151.7 322.901,151.7 C330.701,176.9 342.901,192.9 354.801,203.101 C373.401,218.999 391.401,220.8 391.801,220.8 C392.301,220.8 392.801,220.8 393.301,220.8 C393.801,220.8 394.301,220.8 394.801,220.8 C395.1,220.8 413.001,219.101 431.501,203.3 C443.501,193.101 455.7,177 463.601,151.7 C464.101,151.7 480.001,159.8 483.701,118 C485.4,98.3 469,102.3 467.199,102.2 Z" id="Shape"></path>
            <path d="M218.3,272.8 L218.5,272.2 L218.8,271.6 C221,266.799 224.6,262.1 230.1,256.7 C231.3,255.6 234.9,251.999 237.8,249.999 C238,249.899 238.2,249.7 238.4,249.601 C238.5,249.499 238.6,249.4 238.8,249.4 C240.8,248.101 243.2,247 244,246.601 C250.5,243.499 264.5,237.8 274.2,233.8 C273.9,233.7 273.6,233.499 273.2,233.3 C272.9,233.2 272.6,232.999 272.3,232.9 C264,229 238.4,218.701 238.4,218.701 C225.6,213.201 212.3,208.4 198.8,203.601 C196.4,213.701 173.4,280.4 169.8,289.701 L166.9,227.601 C167.9,226.101 168.5,224.499 169.3,222.9 L178.9,204 C172.2,209.602 162.1,213.201 150.8,213.201 C139.8,213.201 129.9,209.801 123.1,204.4 L132.5,222.9 C133.3,224.5 133.9,226.201 134.9,227.601 L132,289.701 C128.4,280.5 105.4,213.701 103,203.601 C89.5,208.4 76.2,213.101 63.4,218.701 C63.4,218.701 37.8,229 29.5,232.9 C29.2,233 28.9,233.201 28.6,233.3 C27.9,233.7 27.4,233.9 27.1,234.101 C22.8,236.601 19.4,240.4 17.3,244.9 C17.3,244.9 17.3,244.9 17.3,245 C16.5,246.602 15.9,248.4 15.6,250.201 C12.2,260.601 4.6,283.801 1.3,296.5 C0.9,297.801 0.5,299.201 0.3,300.602 C0.1,301.801 0,303.102 0,304.401 C0,318.102 11.1,329.102 24.7,329.102 L48.3,329.102 C82.1,329.102 115.9,329.102 149.7,329.102 C150.1,329.102 150.6,329.102 151,329.102 C151.4,329.102 151.9,329.102 152.3,329.102 C168.4,329.102 184.5,329.102 200.6,329.102 C204.8,314.301 211.5,293.5 215.7,281 C216.3,277.899 217.5,274.601 218.3,272.8 Z" id="Shape"></path>
            <path d="M89.4,131.8 C96.2,153.7 106.8,167.7 117.2,176.6 C133.4,190.499 149.1,191.999 149.4,191.999 C149.8,191.999 150.3,191.999 150.7,191.999 C151.1,191.999 151.6,191.999 152,191.999 C152.3,191.999 167.9,190.499 184,176.7 C194.5,167.8 205.1,153.8 212,131.7 C212.4,131.7 226.3,138.8 229.6,102.4 C231.1,85.2 216.8,88.7 215.3,88.6 C215.3,84.2 216.2,68.4 216.2,64.8 C216.2,29.5 187.5,0.8 152.2,0.8 L152.1,0.8 L152,0.8 C151.6,0.8 151.2,0.8 150.8,0.8 C150.4,0.8 150,0.8 149.6,0.8 L149.5,0.8 L149.4,0.8 C114.1,0.8 85.4,29.5 85.4,64.8 C85.4,68.4 86.3,84.3 86.3,88.6 C84.7,88.7 70.4,85.2 72,102.4 C75.1,138.9 89,131.8 89.4,131.8 Z" id="Shape"></path>
            <path d="M786,279.399 C785.801,277.1 785.5,274.799 785.199,272.499 C785.199,272.499 783.9,265.101 783.599,263.899 C780.599,250.799 772.499,241.299 761.499,233.799 C759.399,232.399 757.3,231.199 755.198,230.1 C752.399,228.6 709.399,214.498 708.3,214.1 C708.599,215.6 708.698,217.2 708.8,218.998 C714.8,223.199 732.4,238.398 724.4,266.699 C724.4,266.699 711.699,251.599 698.8,249.699 C686.499,271.099 665.599,298.299 654.3,305.398 C643,298.3 622.1,271.2 609.801,249.7 C596.901,251.6 584.199,266.7 584.199,266.7 C576.199,238.3 593.801,223.2 599.801,218.999 C599.901,217.2 600,215.601 600.301,214.101 C599.199,214.499 556.199,228.601 553.401,230.101 C551.2,231.201 549.1,232.4 547.1,233.8 C542.801,236.7 539,239.9 535.7,243.499 C538.302,244.601 540.501,245.601 542.302,246.399 C543.001,246.7 545.101,247.7 547.001,248.899 C551.501,251.6 555.901,255.7 560.7,261.7 C565.501,267.8 567.1,270.7 567.901,272.6 C569.1,275.299 570.1,278.2 570.801,281.1 C574.901,293.6 581.699,314.399 585.801,329.1 C608.6,329.1 631.5,329.1 654.301,329.1 C687.401,329.1 720.5,329.1 753.6,329.1 C763.5,329.1 771.901,326.1 778.901,318.7 C784.301,312.899 785.901,305.999 786.301,298.499 C786.401,297.2 786.5,291.499 786.5,291.499 C786.5,291.499 786,279.499 786,279.399 Z" id="Shape"></path>
            <path d="M576.4,144.4 C577.4,148.1 578.099,151.6 578.099,154.9 C578.099,156 577.999,157.1 577.8,158.2 C576.9,161.3 570.3,171.9 569.198,173.7 C580.899,186.3 596.3,189.2 611.499,192.4 C615.999,193.3 620.599,193.9 625.499,194.5 C627.099,194.801 628.698,195.102 630.3,195.4 L622.599,218 C622.599,218 622.4,251 654.3,271.102 L654.499,271.102 C686.399,251 686.198,218 686.198,218 L678.499,195.4 C680.099,195.101 681.698,194.8 683.3,194.5 C688.198,193.9 692.8,193.301 697.3,192.4 C712.5,189.2 728,186.3 739.6,173.7 C738.5,171.9 731.901,161.3 731,158.2 C730.801,157.1 730.699,156 730.699,154.9 C730.699,151.6 731.301,148.1 732.4,144.4 C733.4,140.9 734.5,137.4 735.599,133.8 C740.8,122.3 743.599,109.6 743.599,96.1 C743.599,46.2 703.9,5.6 654.599,4.7 L654.499,4.7 L654.399,4.7 C605.098,5.6 565.399,46.2 565.399,96.1 C565.399,109.5 568.299,122.3 573.399,133.8 C574.301,137.4 575.4,140.9 576.4,144.4 Z" id="Shape"></path>
        </g>
    </g>
</svg>