<?xml version="1.0" encoding="iso-8859-1"?>
<!-- Generator: Adobe Illustrator 19.0.0, SVG Export Plug-In . SVG Version: 6.00 Build 0)  -->
<svg version="1.1" id="Capa_1" xmlns="http://www.w3.org/2000/svg" xmlns:xlink="http://www.w3.org/1999/xlink" x="0px" y="0px"
	 viewBox="0 0 522.462 522.462" style="enable-background:new 0 0 522.462 522.462;" xml:space="preserve">
<g>
	<g>
		<path d="M108.846,413.615h108.846v21.769H108.846V413.615z M174.154,185.038h43.538v206.808h-43.538V185.038z M173.218,71.795
			c-1.742-3.962-5.66-6.487-9.949-6.487s-8.207,2.525-9.949,6.487l-40.643,91.474h101.183
			C213.861,163.269,173.218,71.795,173.218,71.795z M108.846,468.038c0,29.998,24.403,54.423,54.423,54.423
			s54.423-24.425,54.423-54.423v-10.885H108.846V468.038z M108.846,185.038h43.538v206.808h-43.538V185.038z M402.731,0H272.115
			c-5.987,0-10.885,4.876-10.885,10.885v54.423h54.423c5.987,0,10.885,4.876,10.885,10.885c0,6.03-4.898,10.885-10.885,10.885
			h-54.423v65.308h54.423c5.987,0,10.885,4.876,10.885,10.885c0,6.03-4.898,10.885-10.885,10.885h-54.423v65.308h54.423
			c5.987,0,10.885,4.876,10.885,10.885c0,6.03-4.898,10.885-10.885,10.885h-54.423v65.308h54.423
			c5.987,0,10.885,4.876,10.885,10.885c0,6.03-4.898,10.885-10.885,10.885h-54.423v65.308h54.423
			c5.987,0,10.885,4.876,10.885,10.885c0,6.03-4.898,10.885-10.885,10.885h-54.423v76.192c0,6.03,4.898,10.885,10.885,10.885
			h130.615c5.987,0,10.885-4.855,10.885-10.885V10.885C413.615,4.876,408.717,0,402.731,0z"/>
	</g>
</g>
<g>
</g>
<g>
</g>
<g>
</g>
<g>
</g>
<g>
</g>
<g>
</g>
<g>
</g>
<g>
</g>
<g>
</g>
<g>
</g>
<g>
</g>
<g>
</g>
<g>
</g>
<g>
</g>
<g>
</g>
</svg>
