<svg xmlns="http://www.w3.org/2000/svg" viewBox="0 0 475.902 475.902"><g fill="#010002"><path d="M13.734 51.167l.016.016c.26.61.545.878.545.878l.179-.187 121.847 116.539v307.488h327.663V18.669H136.321v53.405L61.855.86l-.366.382C59.018.34 45.094-4.806 25.707 15.467s-12.981 33.27-11.973 35.7zM353.354 336.7h69.987v98.559h-69.987V336.7zm0-184.925h69.987v176.796h-69.987V151.775zm0-92.463h11.177v84.334h-11.177V59.312zm37.529 0h11.177v84.334h-11.177V59.312zm32.458 84.334h-13.152V59.312h13.152v84.334zm-40.586 0h-10.096V59.312h10.096v84.334zm-37.53 0h-10.161V59.312h10.161v84.334zm-29.466-84.334h11.177v84.334h-11.177V59.312zm-138.795 0h130.667v84.334h-42.675v8.129h80.27v283.484h-53.852v-18.85h-16.257v18.85h-98.153V283.864h12.803v-16.257h-12.803v-60.322l7.34 7.023c1.796-8.99 8.348-20.053 16.639-29.515 10.006-11.437 21.573-19.622 30.376-21.858l-54.356-51.99V59.312z"/><path d="M204.455 187.191c-11.453 13.315-15.818 24.768-16.038 30.539-.065 1.756 3.877 3.983 4.576 3.983h.041l9.307 1.114 6.934.829 31.653 3.796c0-.016-.016-.033-.016-.057-.187-2.365.894-5.121 2.967-7.56 1.008-1.179 3.65-3.796 6.942-4.032l-9.031-30.807-1.951-6.657-2.43-8.307c.146-1.829-1.951-4.178-2.536-4.178-5.862.008-18.51 7.486-30.418 21.337zm26.125-11.559l1.463 4.999 1.951 6.657 7.064 24.093a21.87 21.87 0 0 0-3.365 3.195 23.036 23.036 0 0 0-2.731 3.975l-24.719-2.959-6.934-.829-5.918-.707c1.626-4.991 5.69-12.794 13.225-21.557 7.99-9.307 15.379-14.485 19.964-16.867zm15.647 51.95c.041.057.041.146.089.195l7.332 6.137c.471.39 2.203.951 3.853.951 1.105 0 2.17-.252 2.788-.967 1.544-1.78-.26-5.788-1.049-6.446l-7.332-6.137c-.171-.146-.398-.211-.667-.211-.049 0-.106.024-.154.033-.935.081-2.26.902-3.398 2.219-1.445 1.665-2.023 3.454-1.462 4.226zm28.889 65.988h16.257v-25.963h-27.539v16.257h11.282zm-60.054-25.963h23.475v16.257h-23.475zm60.054 51.259h16.257v23.475h-16.257zm0 48.771h16.257v23.475h-16.257z"/></g></svg>