<svg width="35" height="35" viewBox="0 0 35 35" xmlns="http://www.w3.org/2000/svg"><title>Artboard</title><path d="M24.297 9.73H11.432v6.606h12.865V9.729zm-12.518 6.258v-5.911h5.42l-4.975 5.911h-.445zm2.044 0l4.975-5.911h1.283l-4.973 5.911h-1.285zm10.125 0h-7.99l4.973-5.911h3.018v5.911z"/><path d="M30.382 9.616V6.52c0-6.258-6.259-6.258-6.259-6.258H11.605s-6.259 0-6.259 6.258v3.097H4.158v1.97h1.188v16.84c0 6.258 12.518 6.258 12.518 6.258s12.518 0 12.518-6.259V11.587h1.188v-1.97h-1.188zm-5.562 7.242H10.91v-7.65h13.91v7.65z"/></svg>