<svg xmlns="http://www.w3.org/2000/svg" viewBox="0 0 490.3 490.3"><path d="M303.75 304.1c-4.5 4.5-4.5 11.8 0 16.2l106.3 106.3 9.1-9.1 7.1-7.1-106.2-106.3c-4.5-4.5-11.8-4.5-16.3 0z"/><path d="M489.95 245.1v-22.9c0-8.5-6.2-15.9-14.6-17.3l-45.6-7.6c-4.5-17.5-11.4-34-20.4-49.3l26.8-37.7c4.9-7 4.1-16.5-1.9-22.5l-16.1-16.1-16.1-16.1c-6-6-15.5-6.8-22.5-1.8l-37.7 26.8c-15.3-9.1-31.8-15.8-49.3-20.4l-7.7-45.6c-1.4-8.5-8.7-14.6-17.3-14.6h-45.8c-8.2.4-15.5 6.6-16.9 14.9l-7.6 45.6c-17.5 4.5-34 11.4-49.3 20.4l-37.7-26.8c-7-4.9-16.5-4.1-22.5 1.9l-16 16.3-16.1 16.1c-6 6-6.8 15.5-1.8 22.5l26.8 37.7c-9.3 15.5-16.3 32.4-20.6 50.5l-45.1 7.7c-8.4 1.4-14.6 8.7-14.6 17.3v45.8c0 8.5 6.2 15.9 14.6 17.3l46 7.8c4.5 17.5 11.8 34 20.6 49l-27 37.1c-4.9 7-4.1 16.5 1.9 22.5l16.1 16.1 16.1 16.1c6 6 15.5 6.8 22.5 1.8l37.9-27c15.3 8.9 31.8 15.6 49.3 20l7.7 45.1c1.5 8.5 8.7 14.6 17.3 14.6h45.8c8.5 0 15.9-6.2 17.3-14.6l7.8-46c4-1 7.9-2.2 11.7-3.5 1-.3 2.1-.7 3.1-1.1 3.2-1.1 6.3-2.3 9.4-3.6l2.1-.9a216 216 0 0 0 10.9-5.1c.1-.1.2-.1.3-.2 3.6-1.8 7.2-3.8 10.6-5.8 2.2-1.3 4.4-2.7 6.5-4.1l-58.8-58.8c-10.5-10.5-25.1-15.6-40-14.6-25.2 1.7-51-7-70.2-26.3-23.3-23.3-31.2-56.3-23.7-86.2.5-2.2 3.3-2.9 4.8-1.3l36.7 36.7c10.9 10.9 28.9 10.9 39.8-.1l16.7-16.7c11-11 11-28.9.1-39.8l-38.6-38.6c-1.5-1.5-.9-4.1 1.1-4.8 31.3-10 67-2.7 91.8 22.1 20.2 20.2 28.8 47.6 25.9 74-1.7 15.7 3.4 31.4 14.6 42.6l55.7 55.7c1.8-2.8 3.5-5.6 5.2-8.4 1.9-3.3 3.7-6.6 5.4-10l1.5-3c1.1-2.3 2.1-4.6 3.2-7 .8-1.8 1.6-3.7 2.3-5.5.5-1.2.9-2.5 1.4-3.8 1-2.6 1.9-5.2 2.8-7.9 1.1-3.6 2.2-7.1 3.2-10.7l45.6-7.7c8.5-1.4 14.6-8.7 14.6-17.3v-22.9z"/></svg>