<?xml version="1.0" encoding="UTF-8"?>
<svg width="719px" height="78px" viewBox="0 0 719 78" version="1.1" xmlns="http://www.w3.org/2000/svg" xmlns:xlink="http://www.w3.org/1999/xlink">
    <!-- Generator: Sketch 47.1 (45422) - http://www.bohemiancoding.com/sketch -->
    <title>Artboard</title>
    <desc>Created with Sketch.</desc>
    <defs></defs>
    <g id="Page-1" stroke="none" stroke-width="1" fill="none" fill-rule="evenodd">
        <g id="Artboard" fill="#3278BE">
            <g id="logo_siegenia">
                <path d="M445,2 C446,2 447,3 448,4 L451,19 L403,19 C402,19 400,20 400,22 L400,32 L446,32 L446,47 L400,47 L400,57 C400,58 402,60 403,60 L451,60 L448,74 C447,76 446,77 445,77 L373,77 C367,77 361,71 361,64 L361,14 C361,8 367,2 373,2 L445,2 Z" id="Shape" fill-rule="nonzero"></path>
                <path d="M235,2 C236,2 238,3 238,4 L241,19 L194,19 C192,19 191,20 191,22 L191,32 L237,32 L237,47 L191,47 L191,57 C191,58 192,60 194,60 L241,60 L238,74 C238,76 236,77 235,77 L164,77 C157,77 152,71 152,64 L152,14 C152,8 157,2 164,2 L235,2 Z" id="Shape" fill-rule="nonzero"></path>
                <path d="M639,2 L678,2 C679,2 680,3 680,4 L714,77 L674,77 L667,61 L629,61 L622,77 L605,77 L636,4 C637,3 638,2 639,2 Z M647,18 L635,47 L660,47 L647,18 Z" id="Shape" fill-rule="nonzero"></path>
                <polygon id="Shape" points="100 2 139 2 139 77 100 77"></polygon>
                <path d="M88,4 L85,20 C76,18 66,17 56,17 C38,17 35,19 35,24 C35,28 38,30 43,30 L66,32 C80,33 91,40 91,54 C91,68 80,74 73,76 C68,77 58,78 44,78 C28,78 13,77 1,74 L3,59 C12,61 24,62 35,62 C51,62 57,61 57,54 C57,50 54,48 49,48 L23,46 C10,44 0,37 0,24 C0,7 14,0 46,0 C61,0 76,2 88,4 Z" id="Shape" fill-rule="nonzero"></path>
                <path d="M350,32 L350,73 C337,76 319,78 301,78 C255,78 248,61 248,39 C248,22 254,0 301,0 C316,0 332,2 344,4 L342,20 C333,18 323,17 312,17 C312,17 285,15 285,40 C285,62 298,63 304,63 C307,63 311,63 314,62 L314,44 L304,44 L304,32 L350,32 Z" id="Shape" fill-rule="nonzero"></path>
                <polygon id="Shape" points="560 2 599 2 599 77 560 77"></polygon>
                <path d="M547,2 L547,72 C547,74 545,77 542,77 L501,77 L477,26 L477,77 L460,77 L460,7 C460,4 462,2 465,2 L506,2 L530,53 L530,2 L547,2 Z" id="Shape" fill-rule="nonzero"></path>
                <path d="M710,10 C711,10 712,9 712,8 C712,7 711,7 710,7 L710,7 L710,10 L710,10 Z M714,15 L712,15 L710,12 L710,15 L708,15 L708,5 L710,5 C711,5 712,5 712,6 C713,6 713,7 713,8 C713,10 712,11 711,11 L714,15 Z M705,5 C704,7 703,8 703,10 C703,14 706,18 710,18 C714,18 718,14 718,10 C718,6 714,3 710,3 C708,3 706,4 705,5 Z M719,10 C719,15 715,19 710,19 C705,19 702,15 702,10 C702,5 705,1 710,1 C715,1 719,5 719,10 Z" id="Shape" fill-rule="nonzero"></path>
            </g>
        </g>
    </g>
</svg>