<?xml version="1.0" encoding="UTF-8"?>
<svg width="719px" height="247px" viewBox="0 0 719 247" version="1.1" xmlns="http://www.w3.org/2000/svg" xmlns:xlink="http://www.w3.org/1999/xlink">
    <!-- Generator: Sketch 47.1 (45422) - http://www.bohemiancoding.com/sketch -->
    <title>Artboard</title>
    <desc>Created with Sketch.</desc>
    <defs></defs>
    <g id="Page-1" stroke="none" stroke-width="1" fill="none" fill-rule="evenodd">
        <g id="Artboard">
            <g id="logo_grunder">
                <path d="M0,106 C4,107 25,107 31,106 C33,106 33,107 35,107 C37,126 36,184 36,203 L36,239 C36,246 34,247 40,247 C57,247 73,247 89,247 C284,247 478,247 673,247 C674,243 674,237 672,233 C666,231 608,232 596,232 C416,232 236,232 56,232 C53,221 58,95 55,93 C51,91 43,93 39,91 C39,88 50,81 53,78 L96,39 C98,38 99,36 101,35 C103,33 104,33 106,31 C107,30 115,23 116,23 C118,23 144,47 149,51 L172,71 C177,76 175,76 184,76 C190,76 196,79 200,76 C200,73 187,64 185,62 C183,60 182,58 180,57 C178,55 177,54 175,52 L140,21 C137,18 118,0 116,0 C114,0 96,17 94,19 L48,61 C48,61 47,61 47,61 C47,62 47,62 47,62 L21,85 C20,87 19,88 18,89 C16,90 15,90 14,92 C12,93 12,94 10,96 L1,104 C0,105 0,104 0,106 Z" id="Shape" fill="#C90689"></path>
                <path d="M103,147 C103,160 103,169 106,181 C108,187 110,191 113,196 L119,205 C137,226 176,225 200,213 C203,211 205,211 205,206 C205,199 206,156 204,150 C199,148 166,148 160,150 L160,169 C170,172 182,168 182,172 C182,202 184,199 175,200 C165,202 154,203 145,197 C140,194 137,191 134,187 C126,174 125,150 129,135 C131,127 134,119 139,113 L141,111 C141,111 141,111 141,111 C151,101 169,101 177,111 C183,117 182,122 183,128 C187,128 192,128 196,128 C203,128 208,132 203,113 C197,88 167,81 142,88 C140,89 138,90 137,91 C129,93 121,100 116,107 C113,112 110,116 108,122 C106,129 103,138 103,147 Z" id="Shape" fill="#174EA4"></path>
                <path d="M492,203 C484,203 481,201 478,192 C476,188 474,182 474,176 C474,167 475,155 481,148 C487,141 506,140 507,173 C507,174 507,182 507,183 C505,191 501,203 492,203 Z M507,90 L507,138 C498,125 480,122 467,131 C464,134 462,137 459,141 C446,162 449,221 484,221 C502,221 505,204 507,208 C509,211 505,219 509,219 C524,219 529,221 529,215 L529,92 C529,86 524,88 509,88 C507,88 507,88 507,90 Z" id="Shape" fill="#174EA4"></path>
                <path d="M388,140 C387,137 388,132 388,128 C382,127 375,128 369,128 C365,128 366,136 366,139 C366,163 367,187 367,211 C367,221 363,219 389,219 C392,206 387,162 391,154 C392,150 393,150 395,148 C403,142 413,145 415,155 C417,162 416,198 416,209 C416,221 413,219 436,219 C438,219 438,218 438,217 L438,158 C438,138 429,123 411,126 C393,128 394,136 388,140 Z" id="Shape" fill="#174EA4"></path>
                <path d="M279,128 C278,130 278,131 278,133 C278,145 276,193 281,205 C286,220 294,221 306,221 C322,221 322,210 329,207 C329,211 328,215 329,219 C351,219 351,221 350,212 C348,204 349,139 349,128 C344,127 332,127 327,128 C327,140 328,181 326,190 C324,202 306,208 301,193 C299,186 299,141 300,134 C301,131 300,131 300,128 C296,128 282,127 279,128 Z" id="Shape" fill="#174EA4"></path>
                <path d="M579,142 C583,142 587,146 589,149 C589,150 593,162 589,162 C564,162 563,164 565,157 C565,154 566,152 567,150 C569,146 573,142 579,142 Z M543,170 C543,184 543,198 552,209 C553,211 555,213 557,214 C570,224 589,224 602,213 C606,210 612,198 611,191 C583,191 595,190 588,200 C584,205 564,210 564,180 C570,178 599,179 608,179 C614,179 613,181 613,167 C613,150 607,135 593,128 C580,122 562,125 551,139 C546,146 543,158 543,170 Z" id="Shape" fill="#174EA4"></path>
                <path d="M241,142 C241,125 245,128 223,128 C219,128 221,133 221,136 C221,162 222,188 222,214 C222,220 221,219 242,219 C246,219 245,213 245,210 L245,164 C245,162 247,158 249,156 C250,154 253,153 256,152 C259,150 262,151 267,151 C268,144 268,135 268,127 C263,126 255,129 252,131 C243,137 246,141 241,142 Z" id="Shape" fill="#1550A4"></path>
                <path d="M647,142 C645,137 649,128 645,128 C619,128 628,125 627,148 L627,214 C627,220 626,219 648,219 C651,219 650,212 650,206 C650,196 649,168 651,162 C654,153 661,151 669,151 C673,151 673,151 673,148 C673,143 674,130 672,127 C664,127 657,130 652,136 C651,138 649,141 647,142 Z" id="Shape" fill="#1550A4"></path>
                <path d="M161,32 C161,34 171,41 173,42 C177,40 188,28 189,28 C193,28 195,31 197,33 L229,63 C241,75 243,73 260,73 C262,73 260,73 262,72 C262,69 262,71 258,67 L252,61 C252,61 252,61 252,61 C246,56 232,42 227,38 L208,21 C207,20 206,19 204,17 C202,15 201,15 199,13 C190,4 192,3 184,10 L164,28 C163,29 161,30 161,32 Z" id="Shape" fill="#1550A4"></path>
                <path d="M318,89 C317,95 318,101 318,107 C318,112 321,110 333,110 C335,110 335,110 335,109 C335,87 339,87 318,89 Z" id="Shape" fill="#174EA4"></path>
                <path d="M292,91 L292,108 C292,112 299,110 307,110 C310,110 309,104 309,101 C309,97 309,93 309,89 C306,89 292,88 292,91 Z" id="Shape" fill="#174EA4"></path>
                <path d="M703,137 C684,137 685,109 702,109 C707,109 710,111 712,113 C713,115 714,115 715,117 C720,129 710,137 703,137 Z M686,123 C686,132 693,139 701,140 C710,141 719,133 719,125 L719,121 C719,110 702,99 690,112 C690,112 689,113 689,113 C687,116 686,120 686,123 Z" id="Shape" fill="#174EA4"></path>
                <path d="M704,122 C700,122 701,122 701,118 C705,118 706,117 706,119 C706,121 705,122 704,122 Z M697,117 C697,119 697,120 697,121 C697,126 695,129 699,132 C701,130 701,131 701,125 C707,125 706,125 707,132 L710,132 C710,125 708,126 708,124 C708,121 714,114 702,114 C700,114 697,115 697,117 Z" id="Shape" fill="#174EA4"></path>
            </g>
        </g>
    </g>
</svg>