<?xml version="1.0" encoding="iso-8859-1"?>
<!-- Generator: Adobe Illustrator 19.0.0, SVG Export Plug-In . SVG Version: 6.00 Build 0)  -->
<svg version="1.1" id="Capa_1" xmlns="http://www.w3.org/2000/svg" xmlns:xlink="http://www.w3.org/1999/xlink" x="0px" y="0px"
	 viewBox="0 0 501.888 501.888" style="enable-background:new 0 0 501.888 501.888;" xml:space="preserve">
<g>
	<g>
		<g>
			<path d="M250.944,0L221.68,14.688l14.304,28.624l14.96-7.536l176,88v118.112c-0.13,55.366-26.185,107.476-70.4,140.8l-105.6,79.2
				l-105.6-79.2c-44.215-33.324-70.27-85.434-70.4-140.8V123.776l17.936-8.96L78.576,86.192L42.944,104v137.888
				c0.155,65.433,30.947,127.016,83.2,166.4l124.8,93.6l124.8-93.6c52.253-39.384,83.045-100.967,83.2-166.4V104L250.944,0z"/>
			<rect x="169.892" y="34.37" transform="matrix(0.4472 0.8944 -0.8944 0.4472 147.8119 -138.4238)" width="32" height="32"/>
			<rect x="112.655" y="63.026" transform="matrix(0.4472 0.8944 -0.8944 0.4472 141.8029 -71.3881)" width="32" height="32"/>
			<path d="M130.944,306.592l120,73.856l120-73.856v-137.6l-120-73.888l-120,73.84V306.592z M338.944,288.72l-72,44.368v-82.256
				l72-44.32V288.72z M250.944,132.672l73.472,45.216l-73.472,45.216l-73.472-45.216L250.944,132.672z M162.944,206.512l72,44.32
				v82.256l-72-44.304V206.512z"/>
		</g>
	</g>
</g>
<g>
</g>
<g>
</g>
<g>
</g>
<g>
</g>
<g>
</g>
<g>
</g>
<g>
</g>
<g>
</g>
<g>
</g>
<g>
</g>
<g>
</g>
<g>
</g>
<g>
</g>
<g>
</g>
<g>
</g>
</svg>
