<svg height="448pt" viewBox="0 -1 448 448" width="448pt" xmlns="http://www.w3.org/2000/svg"><path d="m43.789062 299.4375c36.09375 36.078125 93.558594 39.195312 133.339844 7.230469 39.777344-31.964844 49.109375-88.757813 21.648438-131.769531l-75.847656-118.753907c-1.839844-2.875-5.015626-4.617187-8.429688-4.617187s-6.589844 1.742187-8.429688 4.617187l-75.847656 118.753907c-25.257812 39.554687-19.617187 91.351562 13.566406 124.539062zm3.289063-113.773438 67.421875-105.558593 67.421875 105.558593c21.964844 34.410157 14.5 79.839844-17.324219 105.410157-31.820312 25.570312-77.792968 23.078125-106.664062-5.78125-26.546875-26.546875-31.0625-67.984375-10.855469-99.628907zm0 0"/><path d="m129.878906 285.414062c1.140625-.003906 2.273438-.199218 3.347656-.582031 28.429688-10.128906 43.296876-41.363281 33.230469-69.816406-1.808593-5.222656-7.507812-7.984375-12.726562-6.175781-5.21875 1.8125-7.980469 7.507812-6.171875 12.726562.015625.046875.03125.09375.046875.136719 6.386719 18.046875-3.042969 37.859375-21.078125 44.28125-4.589844 1.625-7.34375 6.324219-6.515625 11.125.824219 4.800781 4.992187 8.308594 9.863281 8.304687zm0 0"/><path d="m288.398438 209.4375c30.679687 30.65625 79.519531 33.304688 113.332031 6.136719 33.808593-27.167969 41.738281-75.433594 18.402343-111.996094l-63.203124-98.960937c-1.839844-2.875-5.015626-4.617188-8.429688-4.617188s-6.589844 1.742188-8.429688 4.617188l-63.203124 98.960937c-21.472657 33.621094-16.675782 77.652344 11.53125 105.859375zm5.324218-95.089844 54.777344-85.769531 54.777344 85.769531c17.378906 27.203125 12.15625 63.035156-12.257813 84.152344-24.414062 21.113281-60.625 21.113281-85.039062 0-24.414063-21.117188-29.636719-56.949219-12.257813-84.152344zm0 0"/><path d="m352.039062 192.632812c1.140626 0 2.273438-.195312 3.347657-.578124 29.710937-10.554688 45.246093-43.191407 34.699219-72.90625-1.164063-3.398438-4.054688-5.910157-7.582032-6.585938-3.523437-.675781-7.140625.589844-9.476562 3.316406-2.332032 2.726563-3.027344 6.496094-1.820313 9.875l.03125.085938c6.855469 19.304687-3.242187 40.511718-22.546875 47.367187-4.59375 1.625-7.34375 6.320313-6.519531 11.125.828125 4.800781 4.996094 8.304688 9.867187 8.300781zm0 0"/><path d="m384 401.109375c-19.335938 0-29.683594 7.761719-38 14-7.449219 5.589844-13.335938 10-26 10s-18.550781-4.410156-26-10c-8.316406-6.238281-18.667969-14-38-14s-29.683594 7.761719-38 14c-7.449219 5.589844-13.332031 10-26 10s-18.550781-4.410156-26-10c-8.316406-6.238281-18.664062-14-38-14s-29.683594 7.761719-38 14c-7.449219 5.589844-13.332031 10-26 10s-18.550781-4.410156-26-10c-8.316406-6.238281-18.667969-14-38-14v20c12.664062 0 18.550781 4.414063 26 10 8.316406 6.238281 18.667969 14 38 14s29.683594-7.761719 38-14c7.449219-5.585937 13.332031-10 26-10s18.550781 4.414063 26 10c8.316406 6.238281 18.664062 14 38 14s29.683594-7.761719 38-14c7.449219-5.585937 13.332031-10 26-10s18.550781 4.414063 26 10c8.316406 6.238281 18.667969 14 38 14s29.683594-7.761719 38-14c7.449219-5.585937 13.335938-10 26-10s18.550781 4.414063 26 10c8.316406 6.238281 18.667969 14 38 14v-20c-12.667969 0-18.550781-4.410156-26-10-8.320312-6.238281-18.671875-14-38-14zm0 0"/><path d="m384 341.109375c-19.335938 0-29.683594 7.761719-38 14-7.449219 5.589844-13.335938 10-26 10s-18.550781-4.410156-26-10c-8.316406-6.238281-18.667969-14-38-14s-29.683594 7.761719-38 14c-7.449219 5.589844-13.332031 10-26 10s-18.550781-4.410156-26-10c-8.316406-6.238281-18.664062-14-38-14s-29.683594 7.761719-38 14c-7.449219 5.589844-13.332031 10-26 10s-18.550781-4.410156-26-10c-8.316406-6.238281-18.667969-14-38-14v20c12.664062 0 18.550781 4.414063 26 10 8.316406 6.238281 18.667969 14 38 14s29.683594-7.761719 38-14c7.449219-5.585937 13.332031-10 26-10s18.550781 4.414063 26 10c8.316406 6.238281 18.664062 14 38 14s29.683594-7.761719 38-14c7.449219-5.585937 13.332031-10 26-10s18.550781 4.414063 26 10c8.316406 6.238281 18.667969 14 38 14s29.683594-7.761719 38-14c7.449219-5.585937 13.335938-10 26-10s18.550781 4.414063 26 10c8.316406 6.238281 18.667969 14 38 14v-20c-12.667969 0-18.550781-4.410156-26-10-8.320312-6.238281-18.671875-14-38-14zm0 0"/></svg>