<svg xmlns="http://www.w3.org/2000/svg" viewBox="0 0 512.009 512.009"><path d="M506.275 171.877l-245.333-128a10.734 10.734 0 0 0-9.875 0l-245.333 128a10.676 10.676 0 0 0-5.427 12 10.674 10.674 0 0 0 10.365 8.125h10.667v266.667a10.66 10.66 0 0 0 10.667 10.667h64a10.66 10.66 0 0 0 10.667-10.667V213.335H405.34v245.333a10.66 10.66 0 0 0 10.667 10.667h64a10.66 10.66 0 0 0 10.667-10.667V192.002h10.667c4.917 0 9.188-3.354 10.365-8.125a10.684 10.684 0 0 0-5.431-12z"/><path d="M373.338 320.002h-42.667a10.66 10.66 0 0 0-10.667 10.667v42.667c0 5.885-4.781 10.667-10.667 10.667-5.885 0-10.667-4.781-10.667-10.667v-42.667a10.66 10.66 0 0 0-10.667-10.667h-42.667a10.66 10.66 0 0 0-10.667 10.667v10.667h-21.333a10.66 10.66 0 0 0-10.667 10.667v32c0 5.885-4.781 10.667-10.667 10.667s-10.667-4.781-10.667-10.667v-32a10.66 10.66 0 0 0-10.667-10.667h-32a10.66 10.66 0 0 0-10.667 10.667V458.67a10.66 10.66 0 0 0 10.667 10.667h234.667a10.66 10.66 0 0 0 10.667-10.667v-128a10.657 10.657 0 0 0-10.664-10.668z"/></svg>