<svg xmlns="http://www.w3.org/2000/svg" viewBox="0 0 261.038 261.038"><path d="M252.741 93.74c-.877 0-1.777.125-2.677.373l-10.172 2.802-10.563-25.73c-2.992-7.289-11.837-13.219-19.716-13.219h-98.851c-7.879 0-16.724 5.93-19.717 13.219l-7.89 19.225c.116-1.276.181-2.563.181-3.861 0-14.912-8.05-28.779-21.01-36.192a4.653 4.653 0 0 0-2.309-.602c-2.613 0-4.584 2.039-4.584 4.729 0 0-.081 20.859-.079 27.811-.001.729-.872 1.597-1.235 1.859l-.261.196c-4.17 3.469-9.428 7.377-11.752 8.586-.146-.001-.288-.005-.438-.005-.16 0-.311.004-.467.005-2.357-1.211-7.7-5.187-11.932-8.722l-.265-.2c-.011-.007-1.025-.82-1.025-2.386 0-7.236-.073-27.128-.073-27.128-.003-3.134-2.248-4.774-4.464-4.774a5.11 5.11 0 0 0-2.498.668C8.025 57.817 0 71.67 0 86.548c0 17.45 10.787 32.42 26.04 38.616l-.002 70.949c0 8.38 6.817 15.197 15.197 15.197h.865c8.38 0 15.197-6.817 15.197-15.197l.002-70.922a41.593 41.593 0 0 0 13.833-9.179 42.25 42.25 0 0 0 2.761-3.043l-4.254 10.362c-2.78 6.771-5.043 18.236-5.043 25.558v51.115c0 5.906 4.806 10.712 10.712 10.712h13.99c5.906 0 10.712-4.805 10.712-10.712v-12.765h120.357v12.765c0 5.906 4.806 10.712 10.712 10.712h13.988c5.906 0 10.712-4.805 10.712-10.712v-51.115c0-7.321-2.262-18.786-5.042-25.558l-1.705-4.153h1.293c5.906 0 10.712-4.805 10.712-10.712v-5.996c.001-5.058-3.488-8.73-8.296-8.73zM88.18 113.363l15.978-38.919c1.789-4.36 7.11-7.927 11.823-7.927h88.418c4.713 0 10.034 3.567 11.823 7.927l15.978 38.919c1.789 4.36-.603 7.927-5.315 7.927H93.495c-4.713 0-7.104-3.567-5.315-7.927zm35.667 49.226a4.298 4.298 0 0 1-4.284 4.285H89.21a4.297 4.297 0 0 1-4.284-4.285v-14.566a4.298 4.298 0 0 1 4.284-4.285h30.353a4.297 4.297 0 0 1 4.284 4.285v14.566zm111.318 0a4.298 4.298 0 0 1-4.284 4.285h-30.352a4.297 4.297 0 0 1-4.284-4.285v-14.566a4.298 4.298 0 0 1 4.284-4.285h30.352a4.297 4.297 0 0 1 4.284 4.285v14.566z"/></svg>