<svg xmlns="http://www.w3.org/2000/svg" width="476.518" height="476.518" viewBox="0 0 476.518 476.518"><path d="M276.619 38.115c-2.046-3.158-2.703-5.292-2.703-5.292l.975-.897s1.896.788 5.21 2.146c1.564.624 3.479 1.39 5.674 2.254 2.162.783 4.515 1.696 7.037 2.308 1.242.385 2.507.768 3.814.915.658.087 1.285.268 1.937.388.646.044 1.294.065 1.938.147 2.605.35 5 .067 7.626-.07 1.218-.448 2.572-.574 3.897-1.144 1.214-.717 2.801-1.133 3.928-2.052.597-.41 1.217-.837 1.882-1.259.69-.388 1.424-.695 2.157-1.488l4.64-3.896c.044-.06-.271.399-.12.185l.032-.033.079-.07.153-.131.305-.273.612-.547 1.217-1.067 2.297-2.178c1.444-1.488 3.261-2.648 4.717-4.082 1.434-1.484 3.361-2.392 4.894-3.831 1.64-1.292 3.557-2.26 5.406-3.513 3.885-1.828 8.425-3.185 12.49-2.615 1.019.109 2.009.268 2.983.448.942.262 1.827.586 2.703.914 1.794.592 3.339 1.439 4.795 2.276 2.909 1.681 5.221 3.628 7.069 5.511 1.837 1.888 3.218 3.727 4.212 5.33 1.042 1.569 1.644 2.955 2.068 3.902.351.974.536 1.499.536 1.499l-.974.908s-2.089-.706-5.297-2.047c-1.563-.623-3.459-1.405-5.635-2.281-2.101-.865-4.412-1.817-6.853-2.643-1.215-.449-2.472-.914-3.742-1.221-.645-.158-1.279-.411-1.927-.596a16.997 16.997 0 0 1-1.938-.509c-2.621-.854-5.329-1.696-8.682-2.046-1.54.203-3.379.137-4.981.805-1.541.782-3.311 1.384-4.548 2.774-1.247 1.34-2.67 2.512-3.544 4.219l-1.271 2.544-.584 1.281-.284.635-.14.328-.07.147-.033.077-.022.049c.126-.186-.196.296-.174.268l-2.501 5.516c-.821 1.779-2.704 3.787-4.241 5.554-1.56 1.926-3.649 3.032-5.509 4.542-1.947 1.368-4.324 2.156-6.5 3.146-4.631 1.323-9.469 1.56-13.54.471-2.079-.459-3.992-1.062-5.678-1.937-1.765-.745-3.286-1.674-4.72-2.572-2.85-1.887-5.109-3.885-6.894-5.844a33.439 33.439 0 0 1-4.178-5.353zM476.518 351.03v113.6H0v-113.6h32.459V223.42l91.47-64.177v64.177l91.456-64.177v64.177l91.475-64.177v126.143h31.56l17.14-223.139h52.313l15.002 223.139h35.196v65.653h18.446v-.009zm-327.143-49.055H77.461v66.387h71.914v-66.387zm123.918 0h-71.916v66.387h71.916v-66.387zm125.475 0h-71.914v66.387h71.914v-66.387z"/></svg>