<?xml version="1.0" encoding="iso-8859-1"?>
<!-- Generator: Adobe Illustrator 19.0.0, SVG Export Plug-In . SVG Version: 6.00 Build 0)  -->
<svg xmlns="http://www.w3.org/2000/svg" xmlns:xlink="http://www.w3.org/1999/xlink" version="1.1" id="Layer_1" x="0px" y="0px" viewBox="0 0 173.727 173.727" style="enable-background:new 0 0 173.727 173.727;" xml:space="preserve" width="512px" height="512px">
<g>
	<g>
		<g>
			<path d="M115.112,95.032c-1.216-1.222-3.14-1.364-4.523-0.336l-4.986,3.688c-4.284,3.163-11.099,2.643-14.874-1.137     L76.277,82.796c-3.78-3.78-4.301-10.59-1.135-14.872l3.688-4.988c1.023-1.384,0.879-3.308-0.338-4.523L62.947,42.869     c-1.311-1.313-3.41-1.368-4.781-0.125l-10.818,9.735c-8.661,7.794-9.838,21.492-2.669,30.63     c0.876,1.357,5.073,7.173,21.818,23.918c16.667,16.667,22.508,20.902,23.9,21.804c3.994,3.203,8.887,4.767,13.786,4.767     c6.221,0,12.453-2.525,16.862-7.424l9.735-10.817c1.237-1.374,1.181-3.475-0.125-4.781L115.112,95.032z M115.882,121.525     c-5.483,6.098-15.02,6.898-21.255,1.788c-0.122-0.098-0.295-0.217-0.429-0.302c-0.2-0.122-5.086-3.2-22.787-20.898     c-17.7-17.702-20.78-22.588-20.869-22.734c-0.09-0.156-0.194-0.309-0.307-0.451c-5.052-6.315-4.261-15.863,1.763-21.285     l8.367-7.529L71.462,61.21l-1.909,2.582c-5.181,7.01-4.369,17.743,1.81,23.918l14.451,14.451     c6.279,6.281,16.786,7.082,23.918,1.809l2.581-1.907l11.097,11.096L115.882,121.525z" fill="#FFFFFF"/>
			<path d="M166.778,27.797h-17.373V3.475c0-1.92-1.556-3.475-3.475-3.475H17.371c-1.919,0-3.475,1.554-3.475,3.475v17.373H3.473     v6.949h10.424v6.949H3.473v6.949h10.424v6.949H3.473v6.949h10.424v6.949H3.473v6.949h10.424v6.949H3.473v6.949h10.424v6.949     H3.473v6.949h10.424v6.949H3.473v6.949h10.424v6.949H3.473v6.949h10.424v6.949H3.473v6.949h10.424v6.949H3.473v6.949h10.424     v17.373c0,1.92,1.556,3.475,3.475,3.475h128.559c1.919,0,3.475-1.554,3.475-3.475V83.39h17.373c1.919,0,3.475-1.554,3.475-3.475     V55.593V31.271C170.252,29.351,168.696,27.797,166.778,27.797z M20.845,166.78v-13.898h6.949v-6.949h-6.949v-6.949h6.949v-6.949     h-6.949v-6.949h6.949v-6.949h-6.949v-6.949h6.949v-6.949h-6.949V97.29h6.949v-6.949h-6.949V83.39h6.949v-6.949h-6.949v-6.949     h6.949v-6.949h-6.949v-6.949h6.949v-6.949h-6.949v-6.949h6.949v-6.949h-6.949v-6.949h6.949v-6.949h-6.949v-13.9h121.61v24.322     v24.322v24.322v86.865H20.845z M163.303,76.441h-13.898V59.068h13.898V76.441z M163.303,52.119h-13.898V34.746h13.898V52.119z" fill="#FFFFFF"/>
		</g>
	</g>
</g>
<g>
</g>
<g>
</g>
<g>
</g>
<g>
</g>
<g>
</g>
<g>
</g>
<g>
</g>
<g>
</g>
<g>
</g>
<g>
</g>
<g>
</g>
<g>
</g>
<g>
</g>
<g>
</g>
<g>
</g>
</svg>
