<?xml version="1.0" encoding="UTF-8"?>
<svg width="407px" height="251px" viewBox="0 0 407 251" version="1.1" xmlns="http://www.w3.org/2000/svg" xmlns:xlink="http://www.w3.org/1999/xlink">
    <!-- Generator: Sketch 49 (51002) - http://www.bohemiancoding.com/sketch -->
    <title>icon4</title>
    <desc>Created with Sketch.</desc>
    <defs></defs>
    <g id="Page-1" stroke="none" stroke-width="1" fill="none" fill-rule="evenodd">
        <g id="icon4" fill="#000000" fill-rule="nonzero">
            <path d="M127.12,178.572 C107.378,178.572 91.379,194.565 91.379,214.309 C91.379,234.054 107.378,250.047 127.12,250.047 C146.869,250.047 162.864,234.054 162.864,214.309 C162.864,194.565 146.869,178.572 127.12,178.572 Z M127.12,229.846 C118.538,229.846 111.584,222.891 111.584,214.309 C111.584,205.723 118.538,198.772 127.12,198.772 C135.703,198.772 142.662,205.723 142.662,214.309 C142.662,222.891 135.703,229.846 127.12,229.846 Z" id="Shape"></path>
            <path d="M315.588,178.572 C295.846,178.572 279.848,194.565 279.848,214.309 C279.848,234.054 295.846,250.047 315.588,250.047 C335.338,250.047 351.332,234.054 351.332,214.309 C351.332,194.565 335.338,178.572 315.588,178.572 Z M315.588,229.846 C307.006,229.846 300.053,222.891 300.053,214.309 C300.053,205.723 307.006,198.772 315.588,198.772 C324.172,198.772 331.131,205.723 331.131,214.309 C331.131,222.891 324.172,229.846 315.588,229.846 Z" id="Shape"></path>
            <path d="M167.329,68.759 C167.329,73.767 163.231,77.864 158.224,77.864 L32.579,77.864 C27.571,77.864 23.475,73.767 23.475,68.759 L23.475,63.296 C23.475,58.289 27.572,54.192 32.579,54.192 L158.224,54.192 C163.232,54.192 167.329,58.289 167.329,63.296 L167.329,68.759 Z" id="Shape"></path>
            <path d="M385.623,122.066 C372.518,118.659 365.019,116.517 359.873,106.579 L342.666,71.74 C337.518,61.802 324.148,53.67 312.959,53.67 L289.424,53.67 C289.424,53.67 286.258,53.736 286.258,50.55 C286.258,43.245 286.258,21.331 286.258,21.331 C286.258,10.004 279.848,0.736 266.213,0.736 L74.405,0.736 C54.884,0.736 45.616,10.005 45.616,21.331 L45.616,39.642 C45.616,39.642 45.616,45.088 50.887,45.088 C77.721,45.088 158.224,45.088 158.224,45.088 C168.265,45.088 176.434,53.256 176.434,63.297 L176.434,68.76 C176.434,78.801 168.265,86.969 158.224,86.969 L50.887,86.969 C50.887,86.969 45.616,86.531 45.616,92.221 C45.616,95.047 45.616,96.944 45.616,98.518 C45.616,103.526 52.48,103.523 52.48,103.523 L124.734,103.523 C134.775,103.523 142.944,111.692 142.944,121.732 L142.944,127.195 C142.944,137.236 134.775,145.404 124.734,145.404 L53.62,145.404 C53.62,145.404 45.616,145.256 45.616,151.629 C45.616,162.691 45.616,195.875 45.616,195.875 C45.616,207.201 54.884,216.47 66.211,216.47 C66.211,216.47 74.743,216.47 77.587,216.47 C80.167,216.47 80.547,215.033 80.547,214.311 C80.547,188.632 101.441,167.743 127.121,167.743 C152.803,167.743 173.696,188.634 173.696,214.311 C173.696,215.036 173.49,216.47 175.463,216.47 C198.013,216.47 267.269,216.47 267.269,216.47 C269.089,216.47 269.015,214.936 269.015,214.311 C269.015,188.632 289.908,167.743 315.589,167.743 C341.27,167.743 362.163,188.634 362.163,214.311 C362.163,215.036 362.145,216.47 363.284,216.47 C373.624,216.47 386.43,216.47 386.43,216.47 C397.625,216.47 406.782,207.313 406.782,196.119 L406.782,157.455 C406.783,124.894 396.502,124.894 385.623,122.066 Z M346.896,120.255 C346.896,120.255 303.677,120.255 288.968,120.255 C286.575,120.255 286.257,117.925 286.257,117.925 L286.257,69.67 C286.257,69.67 286.122,67.817 289.195,67.817 C293.328,67.817 305.724,67.817 305.724,67.817 C315.683,67.817 327.579,75.053 332.158,83.896 L347.47,114.896 C348.115,116.144 348.804,117.252 349.542,118.245 C350.086,118.973 349.174,120.255 346.896,120.255 Z" id="Shape"></path>
            <path d="M133.838,127.195 C133.838,132.203 129.741,136.3 124.734,136.3 L9.104,136.3 C4.096,136.3 0,132.203 0,127.195 L0,121.732 C0,116.725 4.097,112.628 9.104,112.628 L124.734,112.628 C129.742,112.628 133.838,116.725 133.838,121.732 L133.838,127.195 Z" id="Shape"></path>
        </g>
    </g>
</svg>