<?xml version="1.0" encoding="iso-8859-1"?>
<!-- Generator: Adobe Illustrator 19.0.0, SVG Export Plug-In . SVG Version: 6.00 Build 0)  -->
<svg xmlns="http://www.w3.org/2000/svg" xmlns:xlink="http://www.w3.org/1999/xlink" version="1.1" id="Capa_1" x="0px" y="0px" viewBox="0 0 512 512" style="enable-background:new 0 0 512 512;" xml:space="preserve" width="512px" height="512px">
<g>
	<g>
		<path d="M467,0H45C20.187,0,0,20.187,0,45v422c0,24.813,20.187,45,45,45h422c24.813,0,45-20.187,45-45V45    C512,20.187,491.813,0,467,0z M240,482H45c-8.271,0-15-6.729-15-15V271h210V482z M240,241H30V45c0-8.271,6.729-15,15-15h195V241z     M482,467c0,8.271-6.729,15-15,15H270V271h212V467z M482,241H270V30h197c8.271,0,15,6.729,15,15V241z" fill="#e31e24"/>
	</g>
</g>
<g>
	<g>
		<path d="M205.607,426.394L156.213,377l49.393-49.393c5.858-5.858,5.858-15.355,0-21.213c-5.857-5.858-15.355-5.858-21.213,0    L135,355.787l-49.394-49.394c-5.857-5.858-15.355-5.858-21.213,0c-5.858,5.858-5.858,15.355,0,21.213L113.787,377l-49.393,49.393    c-5.858,5.858-5.858,15.355,0,21.213c5.857,5.857,15.355,5.858,21.213,0L135,398.213l49.394,49.394    c5.857,5.857,15.355,5.858,21.213,0C211.465,441.749,211.465,432.252,205.607,426.394z" fill="#e31e24"/>
	</g>
</g>
<g>
	<g>
		<path d="M195,120h-45V75c0-8.284-6.716-15-15-15s-15,6.716-15,15v45H75c-8.284,0-15,6.716-15,15s6.716,15,15,15h45v45    c0,8.284,6.716,15,15,15s15-6.716,15-15v-45h45c8.284,0,15-6.716,15-15S203.284,120,195,120z" fill="#e31e24"/>
	</g>
</g>
<g>
	<g>
		<path d="M437,120H317c-8.284,0-15,6.716-15,15s6.716,15,15,15h120c8.284,0,15-6.716,15-15S445.284,120,437,120z" fill="#e31e24"/>
	</g>
</g>
<g>
	<g>
		<path d="M437,332H317c-8.284,0-15,6.716-15,15s6.716,15,15,15h120c8.284,0,15-6.716,15-15S445.284,332,437,332z" fill="#e31e24"/>
	</g>
</g>
<g>
	<g>
		<path d="M437,392H317c-8.284,0-15,6.716-15,15s6.716,15,15,15h120c8.284,0,15-6.716,15-15S445.284,392,437,392z" fill="#e31e24"/>
	</g>
</g>
<g>
</g>
<g>
</g>
<g>
</g>
<g>
</g>
<g>
</g>
<g>
</g>
<g>
</g>
<g>
</g>
<g>
</g>
<g>
</g>
<g>
</g>
<g>
</g>
<g>
</g>
<g>
</g>
<g>
</g>
</svg>
