<?xml version="1.0" encoding="UTF-8"?>
<!DOCTYPE svg PUBLIC "-//W3C//DTD SVG 1.1//EN" "http://www.w3.org/Graphics/SVG/1.1/DTD/svg11.dtd">
<!-- Creator: CorelDRAW X8 -->
<svg xmlns="http://www.w3.org/2000/svg" xml:space="preserve" width="0.67732cm" height="0.67732cm" version="1.1" style="shape-rendering:geometricPrecision; text-rendering:geometricPrecision; image-rendering:optimizeQuality; fill-rule:evenodd; clip-rule:evenodd"
viewBox="0 0 677 677"
 xmlns:xlink="http://www.w3.org/1999/xlink">
 <defs>
  <style type="text/css">
   <![CDATA[
    .fil0 {fill:#E41E24}
   ]]>
  </style>
 </defs>
 <g id="Слой_x0020_1">
  <metadata id="CorelCorpID_0Corel-Layer"/>
  <path class="fil0" d="M517 449l5 -31 -20 -55 -82 0 5 -37 -190 0 -20 153 14 0c-1,2 -1,4 -1,6 0,24 19,43 43,43 24,0 43,-19 43,-43 0,-2 0,-4 -1,-6l81 0c-1,2 -1,4 -1,6 0,24 19,43 43,43 24,0 43,-19 43,-43l37 0c6,0 12,-5 12,-12l0 -12c0,-6 -5,-12 -11,-12l0 0zm-69 -43l5 -31 40 0 14 37 -54 0c-2,0 -5,-2 -5,-5 0,0 0,-1 0,-1l0 0zm-202 -67l165 0 -5 36 -165 0 5 -36zm25 177c-17,0 -31,-14 -31,-31 0,-16 14,-30 31,-30 17,0 31,14 31,30 0,17 -14,31 -31,31zm130 -104l-142 0 0 12 141 0 -6 43 -84 0c-7,-14 -22,-24 -39,-24 -17,0 -32,10 -39,24l-3 0 6 -43 11 0 0 -12 -10 0 3 -24 165 0 -3 24zm35 104c-17,0 -30,-14 -30,-31 0,-16 13,-30 30,-30 17,0 31,14 31,30 0,17 -14,31 -31,31zm31 -67l0 7c-8,-8 -19,-13 -31,-13 -11,0 -20,4 -28,10l10 -78 23 0 -5 29c0,1 0,2 0,3 0,9 8,17 17,17l55 0 -4 25 -37 0 0 0 0 0zm49 24l-37 0 0 -12 37 0 0 12z"/>
  <rect class="fil0" x="149" y="326" width="12.2685" height="12.2685"/>
  <rect class="fil0" x="173" y="326" width="48.9255" height="12.2685"/>
  <rect class="fil0" x="149" y="394" width="12.2685" height="12.2685"/>
  <rect class="fil0" x="173" y="394" width="42.7912" height="12.2685"/>
  <rect class="fil0" x="149" y="455" width="55.059" height="12.2685"/>
  <path class="fil0" d="M338 320c47,0 86,-38 86,-85 0,-38 -24,-70 -59,-82l-4 12c30,10 51,38 51,70 0,40 -33,73 -74,73 -40,0 -73,-33 -73,-73 0,-18 6,-35 18,-49l0 18 12 0 0 -37 -42 0 0 13 20 0c-13,15 -20,34 -20,55 0,47 38,85 85,85l0 0z"/>
  <path class="fil0" d="M351 150c-4,-1 -9,-1 -13,-1l0 12c4,0 7,1 11,1l2 -12 0 0z"/>
  <g id="_914333904">
  </g>
  <g id="_914332432">
  </g>
  <g id="_914334992">
  </g>
  <g id="_914330544">
  </g>
  <g id="_914330672">
  </g>
  <g id="_914332112">
  </g>
  <g id="_914330416">
  </g>
  <g id="_914330320">
  </g>
  <g id="_914330736">
  </g>
  <g id="_914332208">
  </g>
  <g id="_914329040">
  </g>
  <g id="_914328016">
  </g>
  <g id="_914329232">
  </g>
  <g id="_914327248">
  </g>
  <g id="_914329264">
  </g>
 </g>
</svg>
