<?xml version="1.0" encoding="UTF-8"?>
<!DOCTYPE svg PUBLIC "-//W3C//DTD SVG 1.1//EN" "http://www.w3.org/Graphics/SVG/1.1/DTD/svg11.dtd">
<!-- Creator: CorelDRAW X8 -->
<svg xmlns="http://www.w3.org/2000/svg" xml:space="preserve" width="0.67732cm" height="0.67732cm" version="1.1" style="shape-rendering:geometricPrecision; text-rendering:geometricPrecision; image-rendering:optimizeQuality; fill-rule:evenodd; clip-rule:evenodd"
viewBox="0 0 677 677"
 xmlns:xlink="http://www.w3.org/1999/xlink">
 <defs>
  <style type="text/css">
   <![CDATA[
    .fil0 {fill:#E31E24}
   ]]>
  </style>
 </defs>
 <g id="Слой_x0020_1">
  <metadata id="CorelCorpID_0Corel-Layer"/>
  <g id="_1429151472">
   <g>
    <g>
     <path class="fil0" d="M528 150l-378 0 0 305 215 0 -9 73 16 0 14 -19 10 19 22 0 6 -86c0,0 0,0 0,0 0,0 0,0 0,0l7 86 21 0 10 -19 14 19 16 0 -9 -73 45 0 0 -305zm-122 366l-3 0 -14 -30 -18 24 9 -81c9,6 20,10 32,12l-6 75zm18 -86c-37,0 -67,-30 -67,-67 0,-37 30,-67 67,-67 37,0 67,30 67,67 0,37 -30,67 -67,67zm-67 -24l-153 0c-3,0 -6,-3 -6,-6l0 -196c0,-3 3,-6 6,-6l269 0c3,0 6,3 6,6l0 102c-14,-14 -34,-22 -55,-22 -44,0 -79,35 -79,79 0,16 4,30 12,43zm103 80l-15 30 -3 0 -5 -75c11,-2 22,-6 31,-12l10 81 -18 -24zm56 -44l-34 0 -3 -22c15,-15 24,-35 24,-57 0,-15 -4,-30 -12,-42l0 -117c0,-10 -8,-18 -18,-18l-269 0c-10,0 -18,8 -18,18l0 196c0,10 8,18 18,18l163 0c1,1 1,1 2,2l-3 22 -204 0 0 -280 354 0 0 280z"/>
     <path class="fil0" d="M211 296l122 0 0 -85 -122 0 0 85zm12 -73l97 0 0 61 -97 0 0 -61z"/>
     <rect class="fil0" x="345" y="211" width="122.013" height="12.2013"/>
     <rect class="fil0" x="345" y="235" width="97.6103" height="12.2013"/>
     <rect class="fil0" x="455" y="235" width="12.2013" height="12.2013"/>
     <rect class="fil0" x="211" y="320" width="109.812" height="12.2013"/>
     <rect class="fil0" x="211" y="345" width="109.812" height="12.2013"/>
     <rect class="fil0" x="211" y="369" width="85.409" height="12.2013"/>
     <rect class="fil0" x="308" y="369" width="12.2013" height="12.2013"/>
     <path class="fil0" d="M467 397c8,-10 12,-21 12,-34 0,-30 -25,-55 -55,-55 -30,0 -55,25 -55,55 0,30 25,55 55,55 12,0 24,-4 34,-11l-8 -10c-7,6 -16,9 -26,9 -23,0 -43,-19 -43,-43 0,-23 20,-43 43,-43 24,0 43,20 43,43 0,10 -3,19 -9,27l9 7z"/>
    </g>
   </g>
  </g>
  <g id="_1429149840">
  </g>
  <g id="_1429145616">
  </g>
  <g id="_1429151376">
  </g>
  <g id="_1429151088">
  </g>
  <g id="_1429152752">
  </g>
  <g id="_1429153488">
  </g>
  <g id="_1429168176">
  </g>
  <g id="_1429150096">
  </g>
  <g id="_1429169232">
  </g>
  <g id="_1429147504">
  </g>
  <g id="_1429152464">
  </g>
  <g id="_1429153712">
  </g>
  <g id="_1429148880">
  </g>
  <g id="_1429150896">
  </g>
  <g id="_1429146320">
  </g>
 </g>
</svg>
