<?xml version="1.0" encoding="UTF-8"?>
<!DOCTYPE svg PUBLIC "-//W3C//DTD SVG 1.1//EN" "http://www.w3.org/Graphics/SVG/1.1/DTD/svg11.dtd">
<!-- Creator: CorelDRAW X8 -->
<svg xmlns="http://www.w3.org/2000/svg" xml:space="preserve" width="0.67732cm" height="0.67732cm" version="1.1" style="shape-rendering:geometricPrecision; text-rendering:geometricPrecision; image-rendering:optimizeQuality; fill-rule:evenodd; clip-rule:evenodd"
viewBox="0 0 677 677"
 xmlns:xlink="http://www.w3.org/1999/xlink">
 <defs>
  <style type="text/css">
   <![CDATA[
    .fil0 {fill:#E31E24}
   ]]>
  </style>
 </defs>
 <g id="Слой_x0020_1">
  <metadata id="CorelCorpID_0Corel-Layer"/>
  <g id="_1297413168">
   <g>
    <g>
     <polygon class="fil0" points="196,178 159,178 159,147 147,147 147,530 159,530 159,190 196,190 196,196 209,196 209,172 196,172 "/>
     <path class="fil0" d="M425 462l0 7c0,10 -8,18 -18,18l-46 0c2,-3 2,-6 2,-9 0,-6 -2,-12 -6,-16 4,-4 6,-9 6,-15 0,-6 -2,-12 -6,-16 4,-3 6,-9 6,-15 0,-6 -2,-12 -6,-15 4,-4 6,-10 6,-16 0,-3 0,-6 -2,-9l17 0 -21 -21 0 -44c1,0 2,1 2,1l64 64 107 0 0 -13 -102 0 -60 -59c-3,-3 -7,-6 -11,-7l0 -45 5 0 6 -31 6 0c8,0 16,2 23,6l47 28c3,2 6,3 10,3l1 0c11,0 20,-8 20,-19 0,-5 -2,-10 -6,-14l-39 -39c-17,-17 -41,-27 -65,-27l-72 0 -6 6 -8 0 -6 -6 -46 0 0 62 46 0 6 -6 8 0 6 6 3 0 7 31 5 0 0 111 -16 0c-12,0 -21,10 -21,22 0,6 2,12 6,16 -4,3 -6,9 -6,15 0,6 2,12 6,15 -4,4 -6,10 -6,16 0,6 2,11 6,15 -4,4 -6,10 -6,16 0,12 9,22 21,22l16 0 0 30 49 0 0 -30 50 0c15,0 27,-11 30,-25l93 0 0 -13 -105 0zm-80 56l-25 0 0 -18 19 0 3 0 3 0 0 18zm-3 -31l-3 0 -31 0 -16 0c-5,0 -9,-4 -9,-9 0,-5 4,-9 9,-9l50 0c5,0 9,4 9,9 0,5 -4,9 -9,9zm0 -31l-50 0c-5,0 -9,-4 -9,-9 0,-5 4,-9 9,-9l50 0c5,0 9,4 9,9 0,5 -4,9 -9,9zm0 -31l-50 0c-5,0 -9,-4 -9,-9 0,-5 4,-9 9,-9l50 0c5,0 9,4 9,9 0,5 -4,9 -9,9zm0 -31l-50 0c-5,0 -9,-4 -9,-9 0,-5 4,-9 9,-9l40 0 10 0c5,0 9,4 9,9 0,5 -4,9 -9,9zm-22 -31l0 -111 25 0 0 43 0 65 0 3 -3 0 -10 0 -12 0zm-7 -123l-6 -31 -9 0 -6 -6 -18 0 -6 6 -28 0 0 -37 28 0 6 6 18 0 6 -6 67 0c21,0 41,8 57,23l38 39c2,1 2,3 2,5 0,4 -3,7 -7,7l-1 0c-2,0 -3,0 -4,-1l-47 -28c-9,-6 -18,-8 -29,-8l-16 0 -6 31 -39 0z"/>
     <rect class="fil0" x="302" y="184" width="43.3066" height="12.3737"/>
     <rect class="fil0" x="357" y="184" width="12.3737" height="12.3737"/>
    </g>
   </g>
  </g>
  <g id="_1297404272">
  </g>
  <g id="_1297408496">
  </g>
  <g id="_1297414544">
  </g>
  <g id="_1297410064">
  </g>
  <g id="_1297419024">
  </g>
  <g id="_1297416656">
  </g>
  <g id="_1297404304">
  </g>
  <g id="_1297416528">
  </g>
  <g id="_1297415408">
  </g>
  <g id="_1297411984">
  </g>
  <g id="_1297405328">
  </g>
  <g id="_1297417168">
  </g>
  <g id="_1297419088">
  </g>
  <g id="_1297407728">
  </g>
  <g id="_1297408464">
  </g>
 </g>
</svg>
