<?xml version="1.0" encoding="UTF-8"?>
<!DOCTYPE svg PUBLIC "-//W3C//DTD SVG 1.1//EN" "http://www.w3.org/Graphics/SVG/1.1/DTD/svg11.dtd">
<!-- Creator: CorelDRAW X8 -->
<svg xmlns="http://www.w3.org/2000/svg" xml:space="preserve" width="0.67732cm" height="0.67732cm" version="1.1" style="shape-rendering:geometricPrecision; text-rendering:geometricPrecision; image-rendering:optimizeQuality; fill-rule:evenodd; clip-rule:evenodd"
viewBox="0 0 677 677"
 xmlns:xlink="http://www.w3.org/1999/xlink">
 <defs>
  <style type="text/css">
   <![CDATA[
    .fil0 {fill:#E31E24}
   ]]>
  </style>
 </defs>
 <g id="Слой_x0020_1">
  <metadata id="CorelCorpID_0Corel-Layer"/>
  <g id="_1220791680">
   <g>
    <g>
     <path class="fil0" d="M490 267l-21 -6c14,-10 23,-27 23,-45l0 -13c0,-30 -25,-55 -55,-55 -31,0 -55,25 -55,55l0 13c0,18 9,35 23,45l-21 6c-23,7 -39,28 -39,53l0 43c0,10 8,19 18,19l19 0 0 6 0 12 0 129 110 0 0 -129 0 -12 0 -6 19 0c10,0 18,-9 18,-19l0 -43c0,-25 -16,-46 -39,-53zm-96 -51l0 -13c0,-23 19,-43 43,-43 24,0 43,20 43,43l0 13c0,23 -19,43 -43,43 -24,0 -43,-20 -43,-43zm60 52l0 2c-2,8 -9,13 -17,13 -8,0 -15,-5 -17,-13l0 -2c5,2 11,3 17,3 6,0 12,-1 17,-3zm26 249l-37 0 0 -105 -12 0 0 105 -37 0 0 -117 86 0 0 117zm0 -129l-86 0 0 -6 9 0c6,0 11,-3 15,-6l38 0c4,3 9,6 15,6l9 0 0 6zm-30 -25l-26 0c1,-1 1,-2 1,-3 0,-8 -5,-16 -13,-19l0 -21c0,-3 3,-6 7,-6l36 0c4,0 7,3 7,6l0 21c-8,3 -13,11 -13,19 0,1 0,2 1,3zm67 0c0,4 -3,6 -6,6l-40 0c-5,0 -9,-4 -9,-9 0,-5 4,-9 9,-9l27 0 0 -31 -12 0 0 19 -12 0 0 -19c0,-10 -8,-18 -19,-18l-36 0c-11,0 -19,8 -19,18l0 19 -12 0 0 -19 -12 0 0 31 27 0c5,0 9,4 9,9 0,5 -4,9 -9,9l-40 0c-3,0 -6,-2 -6,-6l0 -43c0,-19 12,-36 31,-41l20 -6 0 0c3,13 15,23 29,23 14,0 26,-10 29,-23l0 0 20 6c19,5 31,22 31,41l0 43z"/>
     <path class="fil0" d="M197 246l67 0 59 38 -8 -41c18,-8 30,-26 30,-46 0,-27 -22,-49 -49,-49l-99 0c-27,0 -49,22 -49,49 0,27 22,49 49,49zm0 -86l99 0c20,0 37,17 37,37 0,17 -11,31 -27,36l-6 1 5 24 -37 -24 -71 0c-20,0 -37,-16 -37,-37 0,-20 17,-37 37,-37z"/>
     <rect class="fil0" x="240" y="191" width="12.2903" height="12.2903"/>
     <rect class="fil0" x="283" y="191" width="12.2903" height="12.2903"/>
     <rect class="fil0" x="197" y="191" width="12.2903" height="12.2903"/>
     <path class="fil0" d="M274 419c13,-10 22,-26 22,-43l0 -13c0,-30 -25,-55 -56,-55 -30,0 -55,25 -55,55l0 13c0,17 9,33 22,43 -33,5 -59,33 -59,67l0 43 185 0 0 -43c0,-34 -26,-62 -59,-67zm-77 -43l0 -13c0,-23 20,-43 43,-43 24,0 43,20 43,43l0 13c0,23 -19,43 -43,43 -23,0 -43,-20 -43,-43zm62 52l0 3c0,10 -8,18 -19,18 -10,0 -18,-8 -18,-18l0 -3c6,2 12,3 18,3 7,0 13,-1 19,-3zm61 89l-24 0 0 -37 -13 0 0 37 -86 0 0 -37 -12 0 0 37 -25 0 0 -31c0,-28 22,-52 50,-55 0,17 14,31 30,31 17,0 31,-14 31,-31 28,3 49,27 49,55l0 31z"/>
    </g>
   </g>
  </g>
  <g id="_1220794496">
  </g>
  <g id="_1220793216">
  </g>
  <g id="_1227746096">
  </g>
  <g id="_1227745584">
  </g>
  <g id="_1227745456">
  </g>
  <g id="_1227745552">
  </g>
  <g id="_1227744848">
  </g>
  <g id="_1227745296">
  </g>
  <g id="_1221342288">
  </g>
  <g id="_1221339856">
  </g>
  <g id="_1221339536">
  </g>
  <g id="_1221342192">
  </g>
  <g id="_1221339664">
  </g>
  <g id="_1221342032">
  </g>
  <g id="_1221340880">
  </g>
 </g>
</svg>
