<?xml version="1.0" encoding="UTF-8"?>
<!DOCTYPE svg PUBLIC "-//W3C//DTD SVG 1.1//EN" "http://www.w3.org/Graphics/SVG/1.1/DTD/svg11.dtd">
<!-- Creator: CorelDRAW X8 -->
<svg xmlns="http://www.w3.org/2000/svg" xml:space="preserve" width="0.67732cm" height="0.67732cm" version="1.1" style="shape-rendering:geometricPrecision; text-rendering:geometricPrecision; image-rendering:optimizeQuality; fill-rule:evenodd; clip-rule:evenodd"
viewBox="0 0 677 677"
 xmlns:xlink="http://www.w3.org/1999/xlink">
 <defs>
  <style type="text/css">
   <![CDATA[
    .fil0 {fill:#E41E24}
   ]]>
  </style>
 </defs>
 <g id="Слой_x0020_1">
  <metadata id="CorelCorpID_0Corel-Layer"/>
  <g id="_1355500208">
   <g>
    <g>
     <path class="fil0" d="M339 326c-44,0 -80,36 -80,80 0,45 36,80 80,80 44,0 80,-35 80,-80 0,-44 -36,-80 -80,-80zm0 148c-38,0 -68,-30 -68,-68 0,-37 30,-67 68,-67 37,0 67,30 67,67 0,38 -30,68 -67,68z"/>
     <path class="fil0" d="M376 148l0 141c-12,-4 -24,-6 -37,-6 -68,0 -124,55 -124,123 0,68 56,124 124,124l104 0c11,0 19,-9 19,-19l0 -105 0 -258 -86 0zm74 363c0,4 -3,6 -7,6l-104 0c-61,0 -111,-49 -111,-111 0,-61 50,-110 111,-110 61,0 111,49 111,110l0 105zm0 -289l-13 0 0 12 13 0 0 25 -25 0 0 12 25 0 0 25 -13 0 0 12 13 0 0 45c-13,-26 -35,-48 -62,-59l0 -98c8,8 19,13 31,13 12,0 23,-5 31,-13l0 26zm0 -56c0,17 -14,31 -31,31 -17,0 -31,-14 -31,-31l0 -6 62 0 0 6z"/>
     <rect class="fil0" x="333" y="400" width="12.3181" height="12.3181"/>
     <rect class="fil0" x="357" y="400" width="12.3181" height="12.3181"/>
     <rect class="fil0" x="308" y="400" width="12.3181" height="12.3181"/>
    </g>
   </g>
  </g>
  <g id="_1355503600">
  </g>
  <g id="_1355503472">
  </g>
  <g id="_1355493488">
  </g>
  <g id="_1355493616">
  </g>
  <g id="_1355501488">
  </g>
  <g id="_1355501200">
  </g>
  <g id="_1355500784">
  </g>
  <g id="_974321856">
  </g>
  <g id="_1220847536">
  </g>
  <g id="_1220849392">
  </g>
  <g id="_1297050816">
  </g>
  <g id="_1297055872">
  </g>
  <g id="_1297054656">
  </g>
  <g id="_1297048480">
  </g>
  <g id="_1297053248">
  </g>
 </g>
</svg>
