<?xml version="1.0" encoding="UTF-8"?>
<!DOCTYPE svg PUBLIC "-//W3C//DTD SVG 1.1//EN" "http://www.w3.org/Graphics/SVG/1.1/DTD/svg11.dtd">
<!-- Creator: CorelDRAW X8 -->
<svg xmlns="http://www.w3.org/2000/svg" xml:space="preserve" width="0.67732cm" height="0.67732cm" version="1.1" style="shape-rendering:geometricPrecision; text-rendering:geometricPrecision; image-rendering:optimizeQuality; fill-rule:evenodd; clip-rule:evenodd"
viewBox="0 0 677 677"
 xmlns:xlink="http://www.w3.org/1999/xlink">
 <defs>
  <style type="text/css">
   <![CDATA[
    .fil0 {fill:#E31E24}
   ]]>
  </style>
 </defs>
 <g id="Слой_x0020_1">
  <metadata id="CorelCorpID_0Corel-Layer"/>
  <g id="_1209046064">
  </g>
  <g id="_1209045744">
  </g>
  <g id="_1209045424">
  </g>
  <g id="_1209045104">
  </g>
  <g id="_1209044784">
  </g>
  <g id="_1209044464">
  </g>
  <g id="_1209044144">
  </g>
  <g id="_1209043824">
  </g>
  <g id="_1209043504">
  </g>
  <g id="_1209043184">
  </g>
  <g id="_1209042864">
  </g>
  <g id="_1209042544">
  </g>
  <g id="_1209042224">
  </g>
  <g id="_1035754640">
  </g>
  <g id="_1035751920">
  </g>
  <path class="fil0" d="M344 522c-77,0 -139,-32 -159,-83l-4 0c-19,0 -31,-15 -31,-39l0 -23c0,-24 12,-39 31,-39l9 0c3,-20 5,-34 22,-51 -1,-2 -2,-5 -3,-8 -4,-11 -7,-21 -16,-25 -3,-1 -5,-5 -5,-9 1,-4 4,-6 8,-7 16,-2 34,2 62,13 5,-2 12,-4 20,-7l5 -2 3 7c4,11 10,21 19,29 27,-17 62,-18 91,-4 6,-6 10,-13 13,-20l2 -5 7 2c31,16 54,42 66,74l2 5 -6 3c-6,3 -10,8 -10,14 0,9 7,16 16,16 0,0 0,0 1,0l6 0 1 6c1,9 1,17 1,26 1,75 -61,127 -151,127zm-163 -171c-15,0 -18,14 -18,26l0 23c0,12 3,26 18,26l13 0 1 4c17,48 76,80 148,80 82,0 140,-47 140,-115 0,-7 0,-13 0,-19 -14,-2 -25,-14 -25,-29 0,-9 5,-18 12,-23 -11,-25 -28,-45 -53,-59 -4,8 -10,15 -16,21l-3 4 -4 -2c-28,-15 -61,-13 -87,3l-4 3 -3 -3c-12,-8 -20,-20 -25,-32 -6,2 -12,4 -16,5l-2 2 -3 -2c-20,-8 -34,-12 -46,-13 6,7 9,16 12,24 2,4 3,8 5,11l2 4 -3 3c-18,17 -19,29 -23,52l-1 6 -19 0 0 0z"/>
  <path class="fil0" d="M241 357c-12,0 -22,-10 -22,-22 0,-12 10,-22 22,-22 12,0 22,10 22,22 0,12 -9,22 -22,22zm0 -32c-5,0 -9,5 -9,10 0,5 4,9 9,9 5,0 10,-4 10,-9 0,-5 -5,-10 -10,-10z"/>
  <path class="fil0" d="M490 395c-4,0 -7,-3 -7,-7 0,-3 3,-6 7,-6 13,0 25,-11 25,-25 0,-4 2,-6 6,-6 4,0 6,2 6,6 0,21 -17,38 -37,38z"/>
  <path class="fil0" d="M521 363c-4,0 -6,-2 -6,-6 0,-14 -12,-25 -25,-25 -4,0 -7,-3 -7,-7 0,-3 3,-6 7,-6 20,0 37,17 37,38 0,4 -2,6 -6,6z"/>
  <path class="fil0" d="M486 376c-15,0 -28,-13 -28,-29 0,-15 13,-28 28,-28 16,0 29,13 29,28 0,16 -13,29 -29,29zm0 -44c-8,0 -15,7 -15,15 0,9 7,16 15,16 9,0 16,-7 16,-16 0,-8 -7,-15 -16,-15z"/>
  <path class="fil0" d="M508 351c0,0 -1,0 -2,-1 -3,-1 -4,-5 -3,-8 4,-8 4,-18 0,-26 -1,-3 0,-7 3,-8 3,-1 7,0 8,3 5,11 5,25 0,36 -1,2 -3,4 -6,4z"/>
  <path class="fil0" d="M420 305c-2,0 -3,-1 -5,-2 -16,-17 -38,-25 -61,-25 -22,0 -44,8 -61,25 -2,2 -6,2 -8,0 -3,-3 -3,-6 0,-9 18,-19 43,-29 69,-29 27,0 52,10 70,29 3,3 3,6 0,9 -1,1 -3,2 -4,2z"/>
  <path class="fil0" d="M303 293l-3 -2c-20,-15 -31,-38 -31,-62 0,-44 36,-79 79,-79 43,0 79,35 79,79 0,22 -10,42 -25,57l-4 4 -3 -2c-28,-15 -61,-13 -87,4l-5 1zm45 -130c-36,0 -66,29 -66,66 0,18 8,37 23,49 27,-16 62,-17 91,-3 12,-13 18,-29 18,-46 0,-37 -29,-66 -66,-66z"/>
  <path class="fil0" d="M320 269c-1,0 -3,-1 -4,-1 -13,-10 -21,-26 -21,-42 0,-29 24,-53 53,-53 29,0 53,24 53,53 0,15 -6,29 -17,38 -3,3 -6,3 -9,0 -2,-3 -2,-6 1,-9 8,-8 13,-18 13,-30 0,-22 -18,-40 -40,-40 -22,0 -41,18 -41,40 0,13 6,24 16,32 3,2 3,6 1,9 -1,2 -3,3 -5,3z"/>
  <path class="fil0" d="M451 527l-38 0c-7,0 -13,-5 -15,-12l-4 -12 6 -1c24,-8 44,-21 58,-38l7 -8 12 35c3,9 2,17 -4,25 -5,8 -12,11 -22,11zm-41 -15l0 0c0,1 2,3 3,3l38 0c5,0 10,-3 12,-7 3,-3 4,-8 2,-13l-5 -14c-13,12 -31,23 -50,31z"/>
  <path class="fil0" d="M263 527l-42 0c-9,0 -16,-4 -21,-11 -5,-7 -6,-16 -3,-24l13 -34 7 7c15,15 35,27 59,35l6 2 -7 17c-2,5 -7,8 -12,8zm-48 -47l-7 17c-1,4 -1,9 2,12 2,4 6,6 10,6l43 0 2 -6c-19,-7 -36,-17 -50,-29z"/>
  <path class="fil0" d="M335 497c-23,0 -45,-5 -66,-14 -3,-2 -5,-5 -3,-8 1,-4 5,-5 8,-4 24,11 48,15 77,12 3,0 6,3 7,6 0,3 -3,6 -6,7 -6,1 -11,1 -17,1z"/>
  <g id="_1035761008">
  </g>
  <g id="_1297418320">
  </g>
  <g id="_1017804080">
  </g>
  <g id="_921399184">
  </g>
  <g id="_921398672">
  </g>
  <g id="_921385168">
  </g>
  <g id="_921389200">
  </g>
  <g id="_921391664">
  </g>
  <g id="_921388432">
  </g>
  <g id="_921385456">
  </g>
  <g id="_921389360">
  </g>
  <g id="_921389616">
  </g>
  <g id="_921409904">
  </g>
  <g id="_921393456">
  </g>
  <g id="_921392368">
  </g>
 </g>
</svg>
