<?xml version="1.0" encoding="UTF-8"?>
<!DOCTYPE svg PUBLIC "-//W3C//DTD SVG 1.1//EN" "http://www.w3.org/Graphics/SVG/1.1/DTD/svg11.dtd">
<!-- Creator: CorelDRAW X8 -->
<svg xmlns="http://www.w3.org/2000/svg" xml:space="preserve" width="0.67732cm" height="0.67732cm" version="1.1" style="shape-rendering:geometricPrecision; text-rendering:geometricPrecision; image-rendering:optimizeQuality; fill-rule:evenodd; clip-rule:evenodd"
viewBox="0 0 677 677"
 xmlns:xlink="http://www.w3.org/1999/xlink">
 <defs>
  <style type="text/css">
   <![CDATA[
    .fil0 {fill:#E31E24}
   ]]>
  </style>
 </defs>
 <g id="Слой_x0020_1">
  <metadata id="CorelCorpID_0Corel-Layer"/>
  <g id="_1221213664">
   <g>
    <g>
     <path class="fil0" d="M394 407l-86 0 0 86 86 0 0 -86zm-49 74l-25 0 0 -25 25 0 0 25zm0 -37l-25 0 0 -25 25 0 0 25zm37 37l-25 0 0 -25 25 0 0 25zm0 -37l-25 0 0 -25 25 0 0 25z"/>
     <path class="fil0" d="M493 407l-86 0 0 86 86 0 0 -86zm-49 74l-25 0 0 -25 25 0 0 25zm0 -37l-25 0 0 -25 25 0 0 25zm37 37l-25 0 0 -25 25 0 0 25zm0 -37l-25 0 0 -25 25 0 0 25z"/>
     <path class="fil0" d="M506 345l-124 0 0 37 -37 0 -20 -74 -47 0 -20 72 0 2 -12 0 -20 -124 -47 0 -20 123 0 1 -12 0 0 148 383 0 0 -148 -24 0 0 -37zm-37 12l24 0 0 25 -24 0 0 -25zm-38 0l25 0 0 25 -25 0 0 -25zm-37 0l25 0 0 25 -25 0 0 -25zm-106 -37l27 0 4 12 -35 0 4 -12zm-7 25l41 0 10 37 -61 0 10 -37zm-92 -74l27 0 4 24 -35 0 4 -24zm-6 37l39 0 2 12 -43 0 2 -12zm-4 24l47 0 7 50 -61 0 7 -50zm48 186l-31 0 0 -62 31 0 0 62zm44 0l-31 0 0 -62 31 0 0 62zm0 -74l-75 0 0 -13 75 0 0 13zm247 -50l0 124 -235 0 0 -99 -99 0 0 99 -25 0 0 -124 359 0z"/>
     <path class="fil0" d="M501 215l0 0c0,-1 -1,-2 -1,-3l21 -20 -35 -35 -21 20c-1,0 -2,0 -3,-1l0 -29 -49 0 0 29c-1,1 -2,1 -3,1l-20 -20 -35 35 20 20c0,1 0,2 -1,3l-29 0 0 49 29 0c1,1 1,2 1,3l-20 21 35 35 20 -21c1,0 2,1 3,1l0 29 49 0 0 -29c1,0 2,-1 3,-1l21 21 35 -35 -21 -21c0,-1 1,-2 1,-3l29 0 0 -49 -29 0zm17 37l-26 0 -1 4c-1,3 -2,6 -4,9l-2 4 18 19 -17 17 -19 -18 -4 2c-3,2 -6,3 -9,4l-4 1 0 26 -25 0 0 -26 -4 -1c-3,-1 -6,-2 -9,-4l-4 -2 -18 18 -18 -17 18 -19 -2 -4c-1,-3 -3,-6 -3,-9l-2 -4 -26 0 0 -25 26 0 2 -4c0,-3 2,-6 3,-9l2 -4 -18 -18 18 -18 18 18 4 -2c3,-1 6,-3 9,-3l4 -2 0 -26 25 0 0 26 4 2c3,0 6,2 9,3l4 2 19 -18 17 18 -18 18 2 4c2,3 3,6 4,9l1 4 26 0 0 25z"/>
     <path class="fil0" d="M438 209c-17,0 -31,14 -31,31 0,17 14,31 31,31 17,0 31,-14 31,-31 0,-17 -14,-31 -31,-31zm0 49c-11,0 -19,-8 -19,-18 0,-11 8,-19 19,-19 10,0 18,8 18,19 0,10 -8,18 -18,18z"/>
     <path class="fil0" d="M178 209c10,0 18,8 18,18l0 19 13 0 0 -19c0,-17 -14,-31 -31,-31 -10,0 -19,-8 -19,-18 0,-10 9,-19 19,-19l142 0 0 -12 -142 0c-17,0 -31,14 -31,31 0,17 14,31 31,31z"/>
     <path class="fil0" d="M277 196l55 0 0 -12 -55 0c-17,0 -31,14 -31,31 0,17 14,31 31,31 10,0 18,8 18,18l0 31 13 0 0 -31c0,-17 -14,-31 -31,-31 -10,0 -19,-8 -19,-18 0,-10 9,-19 19,-19z"/>
    </g>
   </g>
  </g>
  <g id="_1297407824">
  </g>
  <g id="_1297410096">
  </g>
  <g id="_1297408240">
  </g>
  <g id="_1297412944">
  </g>
  <g id="_1297408016">
  </g>
  <g id="_1297410064">
  </g>
  <g id="_1297412624">
  </g>
  <g id="_1297411600">
  </g>
  <g id="_1297413328">
  </g>
  <g id="_1297414128">
  </g>
  <g id="_1297407472">
  </g>
  <g id="_1297412208">
  </g>
  <g id="_1297411504">
  </g>
  <g id="_1297413008">
  </g>
  <g id="_1297418672">
  </g>
 </g>
</svg>
