<?xml version="1.0" encoding="UTF-8" standalone="no"?>
<svg width="30px" height="17px" viewBox="0 0 30 17" version="1.1" xmlns="http://www.w3.org/2000/svg" xmlns:xlink="http://www.w3.org/1999/xlink">
    <!-- Generator: Sketch 40.1 (33804) - http://www.bohemiancoding.com/sketch -->
    <title>iconMenu</title>
    <desc>Created with Sketch.</desc>
    <defs></defs>
    <g id="For-Whom" stroke="none" stroke-width="1" fill="none" fill-rule="evenodd">
        <g transform="translate(-45.000000, -36.000000)" id="Menu" fill="#2F2F2F">
            <g>
                <g id="iconMenu" transform="translate(45.000000, 36.000000)">
                    <path d="M0,1.5 C0,0.671572875 0.66865487,0 1.50826408,0 L28.4917359,0 C29.3247272,0 30,0.665797234 30,1.5 C30,2.32842712 29.3313451,3 28.4917359,3 L1.50826408,3 C0.675272828,3 0,2.33420277 0,1.5 Z M0,8.5 C0,7.67157288 0.668689609,7 1.50756198,7 L23.492438,7 C24.3250415,7 25,7.66579723 25,8.5 C25,9.32842712 24.3313104,10 23.492438,10 L1.50756198,10 C0.674958489,10 0,9.33420277 0,8.5 Z M0,15.5 C0,14.6715729 0.665435791,14 1.5032506,14 L18.4967494,14 C19.3269718,14 20,14.6657972 20,15.5 C20,16.3284271 19.3345642,17 18.4967494,17 L1.5032506,17 C0.673028218,17 0,16.3342028 0,15.5 Z"></path>
                </g>
            </g>
        </g>
    </g>
</svg>