<?xml version="1.0" standalone="no"?>
<!DOCTYPE svg PUBLIC "-//W3C//DTD SVG 1.1//EN" "http://www.w3.org/Graphics/SVG/1.1/DTD/svg11.dtd" >
<svg xmlns="http://www.w3.org/2000/svg" xmlns:xlink="http://www.w3.org/1999/xlink" version="1.1">
<metadata>
Created by FontForge 20161003 at Wed Nov 23 10:13:54 2016
 By www-data
Copyright 1999, 2001 Double Alex Font Studio.
</metadata>
<defs>
<font id="plumbregular" horiz-adv-x="522" >
  <font-face 
    font-family="plumbregular"
    font-weight="400"
    font-stretch="normal"
    units-per-em="1000"
    panose-1="0 0 0 0 0 0 0 0 0 0"
    ascent="800"
    descent="-200"
    x-height="492"
    cap-height="712"
    bbox="-27 -226 1115 927"
    underline-thickness="50"
    underline-position="-150"
    unicode-range="U+0020-2265"
  />
<missing-glyph horiz-adv-x="1000" 
 />
    <glyph glyph-name=".notdef" horiz-adv-x="1000" 
 />
    <glyph glyph-name=".null" horiz-adv-x="0" 
 />
    <glyph glyph-name="nonmarkingreturn" horiz-adv-x="333" 
 />
    <glyph glyph-name="space" unicode=" " horiz-adv-x="249" 
 />
    <glyph glyph-name="exclam" unicode="!" horiz-adv-x="316" 
d="M216 712l-13 -512h-58l-13 512h84zM224 48q0 -22 -14.5 -36.5t-35.5 -14.5t-36 14.5t-15 35.5t15 35.5t36 14.5q20 0 35 -14.5t15 -34.5z" />
    <glyph glyph-name="quotedbl" unicode="&#x22;" horiz-adv-x="423" 
d="M335 542h-79v170h79v-170zM167 542h-79v170h79v-170z" />
    <glyph glyph-name="numbersign" unicode="#" horiz-adv-x="653" 
d="M602 432h-96l-23 -141h89v-64h-99l-36 -227h-74l36 227h-160l-35 -227h-74l36 227h-89v64h100l23 141h-92v66h101l34 215h75l-35 -215h159l34 215h73l-34 -215h87v-66zM432 432h-159l-23 -141h159z" />
    <glyph glyph-name="dollar" unicode="$" horiz-adv-x="596" 
d="M540 196q0 -76 -48 -129q-55 -59 -170 -71v-110h-60v108q-75 5 -124 26q-45 19 -96 68l52 52q43 -40 80 -57q36 -16 92 -20v265l-20 2q-85 8 -135 59t-50 128q0 80 49 134q48 53 152 66v89h60v-89q61 -5 98 -20t88 -57l-49 -49q-38 31 -66 43q-27 12 -74 17v-259l31 -5
q85 -13 129 -50q61 -52 61 -141zM266 399v252q-41 -5 -63 -16q-67 -32 -67 -115q0 -52 31 -81t99 -40zM464 194q0 57 -35 89q-9 8 -19 14t-22.5 9.5t-20.5 5.5t-25 4.5t-23 3.5v-257q82 10 114 46q31 36 31 85z" />
    <glyph glyph-name="percent" unicode="%" horiz-adv-x="833" 
d="M769 128q0 -60 -37.5 -97.5t-97.5 -37.5t-97.5 37.5t-37.5 97.5v105q0 60 37.5 97.5t97.5 37.5q59 0 97 -37.5t38 -97.5v-105zM614 712l-334 -712h-60l334 712h60zM335 479q0 -59 -38 -96.5t-97 -37.5q-60 0 -97.5 37.5t-37.5 96.5v105q0 60 37.5 97.5t97.5 37.5
q59 0 97 -37.5t38 -97.5v-105zM712 130v101q0 87 -78 87t-78 -87v-101q0 -87 78 -87t78 87zM278 481v101q0 87 -78 87t-78 -87v-101q0 -86 79 -86q77 0 77 86z" />
    <glyph glyph-name="ampersand" unicode="&#x26;" horiz-adv-x="739" 
d="M671 0h-95l-64 78q-35 -31 -59 -45q-69 -39 -152 -39q-101 0 -162.5 56.5t-61.5 148.5q0 69 40 120q31 40 114 95q-38 45 -54 73q-23 40 -23 83q0 63 44.5 105.5t111.5 42.5q66 0 111 -42.5t45 -105.5q0 -17 -3.5 -32.5t-13 -29.5t-16.5 -24t-23 -23t-23.5 -19
t-27.5 -19.5t-25 -17.5l182 -219q18 29 27 56q12 38 13 107h72q-2 -87 -23 -142q-12 -35 -43 -76zM395 569q0 35 -24.5 59.5t-59.5 24.5q-36 0 -59 -23t-23 -59q0 -26 13 -48q13 -23 51 -70l38 26q35 24 49.5 44.5t14.5 45.5zM469 130l-196 236q-59 -40 -87 -71
q-35 -38 -35 -94q0 -62 42.5 -101t110.5 -39q42 0 81 15q38 15 84 54z" />
    <glyph glyph-name="quotesingle" unicode="'" horiz-adv-x="255" 
d="M167 542h-79v170h79v-170z" />
    <glyph glyph-name="parenleft" unicode="(" horiz-adv-x="298" 
d="M234 -45l-49 -49q-39 39 -55 59q-38 52 -38 130v522q0 62 21 103q14 28 72 86l49 -49q-43 -43 -54 -65q-16 -31 -16 -81v-510q0 -50 16 -81q11 -22 54 -65z" />
    <glyph glyph-name="parenright" unicode=")" horiz-adv-x="298" 
d="M205 95q0 -66 -20 -103q-16 -30 -72 -86l-51 51q2 2 14.5 14t17 17t12 15t11.5 19q14 30 14 79v510q0 49 -14 79q-4 9 -11.5 19t-12 15t-17 17t-14.5 14l51 51q39 -39 55 -59q21 -29 29 -56.5t8 -73.5v-522z" />
    <glyph glyph-name="asterisk" unicode="*" horiz-adv-x="474" 
d="M407 472l-28 -49l-117 71l4 -137h-58l4 137l-116 -71l-29 49l120 65l-120 66l29 48l116 -71l-4 137h58l-4 -137l117 71l28 -48l-120 -66z" />
    <glyph glyph-name="plus" unicode="+" 
d="M470 234h-175v-176h-67v176h-176v67h176v174h67v-174h175v-67z" />
    <glyph glyph-name="comma" unicode="," horiz-adv-x="264" 
d="M185 111l-96 -225h-60l59 225h97z" />
    <glyph glyph-name="hyphen" unicode="-" horiz-adv-x="426" 
d="M350 236h-274v67h274v-67z" />
    <glyph glyph-name="period" unicode="." horiz-adv-x="264" 
d="M189 55q0 -24 -17 -41t-40 -17t-40 17t-17 40t17 40t40 17t40 -17t17 -39z" />
    <glyph glyph-name="slash" unicode="/" horiz-adv-x="355" 
d="M356 786l-285 -860h-71l285 860h71z" />
    <glyph glyph-name="zero" unicode="0" 
d="M456 190q0 -86 -54.5 -141t-140.5 -55t-140.5 55t-54.5 141v332q0 86 54.5 141t140.5 55t140.5 -55t54.5 -141v-332zM384 194v324q0 62 -33.5 99t-89.5 37t-89.5 -37t-33.5 -99v-324q0 -62 33.5 -99t89.5 -37t89.5 37t33.5 99z" />
    <glyph glyph-name="one" unicode="1" 
d="M330 0h-72v632l-133 -117v82l133 115h72v-712z" />
    <glyph glyph-name="two" unicode="2" 
d="M461 0h-393v64l281 357q40 50 40 106q0 58 -33.5 92.5t-90.5 34.5q-118 0 -124 -129h-72q3 51 16 82q23 53 70 82t111 29q88 0 141.5 -53t53.5 -139q0 -40 -12.5 -71.5t-44.5 -72.5l-249 -318h306v-64z" />
    <glyph glyph-name="three" unicode="3" 
d="M460 195q0 -92 -57 -147t-153 -55t-153 54q-28 26 -39.5 57t-15.5 77h72q14 -124 136 -124q63 0 100.5 38.5t37.5 102.5q0 66 -36 100.5t-104 34.5h-15v63h15q62 0 94.5 33t32.5 94t-33.5 96.5t-91.5 35.5q-110 0 -127 -119h-72q5 48 19 77q25 50 72.5 78t108.5 28
q88 0 142 -53.5t54 -140.5q0 -75 -43 -121q-19 -19 -53 -36q38 -16 58 -36q51 -48 51 -137z" />
    <glyph glyph-name="four" unicode="4" 
d="M482 113h-87v-113h-71v113h-284v65l257 534h77l-257 -534h207v202h71v-202h87v-65z" />
    <glyph glyph-name="five" unicode="5" 
d="M462 233q0 -70 -13 -113t-44 -74q-53 -53 -142 -53q-59 0 -106.5 24t-68.5 74q-13 32 -18 77h72q10 -59 38 -85t81 -26q57 0 90 33q22 22 30.5 54t8.5 91q0 91 -29 132t-94 41q-61 0 -96 -37q-10 -11 -19 -33h-65v374h360v-64h-295v-226q23 23 47 33q33 16 80 16
q79 0 124 -45q59 -58 59 -193z" />
    <glyph glyph-name="six" unicode="6" 
d="M460 204q0 -94 -55 -152t-143 -58q-89 0 -143 56t-54 147q0 71 45 162l175 353h74l-159 -320q34 15 74 15q82 0 134 -56.5t52 -146.5zM388 199q0 67 -34 107t-92 40q-57 0 -91 -39t-34 -105q0 -65 34 -104.5t91 -39.5q56 0 91 39t35 102z" />
    <glyph glyph-name="seven" unicode="7" 
d="M471 648l-247 -648h-76l247 648h-248v-112h-71v176h395v-64z" />
    <glyph glyph-name="eight" unicode="8" 
d="M471 195q0 -87 -59.5 -144t-150.5 -57t-150.5 57t-59.5 144q0 72 44 123q21 25 63 51q-35 23 -53 43q-40 47 -40 115q0 83 55.5 137t140.5 54t140.5 -54t55.5 -137q0 -69 -40 -116q-19 -22 -52 -42q43 -27 62 -50q44 -53 44 -124zM385 524q0 58 -34.5 94t-89.5 36
t-89.5 -36t-34.5 -92t34.5 -91.5t89.5 -35.5q54 0 89 35t35 90zM399 194q0 61 -39.5 101.5t-98.5 40.5t-98.5 -40t-39.5 -99t39.5 -99t98.5 -40q58 0 98 39.5t40 96.5z" />
    <glyph glyph-name="nine" unicode="9" 
d="M457 514q0 -70 -45 -161l-175 -353h-75l160 320q-35 -15 -75 -15q-82 0 -133.5 56t-51.5 146q0 94 54.5 152.5t143.5 58.5q88 0 142.5 -56t54.5 -148zM385 507q0 67 -34 107t-92 40q-57 0 -91 -39t-34 -104q0 -66 34 -105.5t91 -39.5q56 0 91 39t35 102z" />
    <glyph glyph-name="colon" unicode=":" horiz-adv-x="264" 
d="M189 409q0 -24 -17 -41t-40 -17t-40 17t-17 40t17 40t40 17t40 -17t17 -39zM189 55q0 -24 -17 -41t-40 -17t-40 17t-17 40t17 40t40 17t40 -17t17 -39z" />
    <glyph glyph-name="semicolon" unicode=";" horiz-adv-x="264" 
d="M189 409q0 -24 -17 -41t-40 -17t-40 17t-17 40t17 40t40 17t40 -17t17 -39zM185 111l-96 -225h-60l59 225h97z" />
    <glyph glyph-name="less" unicode="&#x3c;" 
d="M482 57l-443 177v73l443 178v-74l-360 -140l360 -140v-74z" />
    <glyph glyph-name="equal" unicode="=" 
d="M470 320h-418v67h418v-67zM470 151h-418v66h418v-66z" />
    <glyph glyph-name="greater" unicode="&#x3e;" 
d="M482 234l-443 -177v74l361 140l-361 140v74l443 -178v-73z" />
    <glyph glyph-name="question" unicode="?" horiz-adv-x="497" 
d="M451 537q0 -57 -45 -122l-82 -118q-18 -27 -18 -58v-39h-72v40q0 50 31 94l81 117q33 48 33 86q0 50 -33 83.5t-82 33.5q-51 0 -82 -32t-34 -87h-72q4 84 55 133.5t133 49.5q80 0 133.5 -52t53.5 -129zM319 48q0 -22 -14.5 -36.5t-35.5 -14.5t-35.5 14.5t-14.5 35.5
t14.5 35.5t35.5 14.5q20 0 35 -14.5t15 -34.5z" />
    <glyph glyph-name="at" unicode="@" horiz-adv-x="713" 
d="M641 0h-69v55q-28 -33 -55 -46q-34 -16 -77 -16q-89 0 -138 61q-25 30 -34.5 71t-9.5 113q0 129 41 183q48 62 139 62q40 0 75 -16q28 -13 58 -47v78q0 75 -38.5 114.5t-111.5 39.5h-130q-69 0 -109 -40q-22 -22 -31 -47.5t-9 -66.5v-337q0 -48 11 -71t46 -50l-49 -49
q-46 35 -60 64q-18 36 -18 105v336q0 103 55 160t155 57h148q100 0 155.5 -57t55.5 -160v-496zM571 237q0 97 -28.5 140.5t-92.5 43.5t-92.5 -43.5t-28.5 -139.5t28.5 -139.5t92.5 -43.5q63 0 92 43.5t29 138.5z" />
    <glyph glyph-name="A" unicode="A" horiz-adv-x="611" 
d="M599 0h-81l-57 161h-311l-57 -161h-81l262 712h64zM439 227l-132 376l-134 -376h266z" />
    <glyph glyph-name="B" unicode="B" horiz-adv-x="668" 
d="M592 195q0 -91 -56.5 -143t-155.5 -52h-277v712h268q94 0 152 -51.5t58 -135.5q0 -77 -52 -126q-17 -17 -53 -33q42 -18 63 -39q53 -51 53 -132zM505 521q0 58 -37 90.5t-103 32.5h-186v-247h186q66 0 103 33t37 91zM516 199q0 60 -38.5 95t-104.5 35h-194v-261h194
q66 0 104.5 35.5t38.5 95.5z" />
    <glyph glyph-name="C" unicode="C" horiz-adv-x="587" 
d="M525 81q-51 -46 -94 -66.5t-104 -20.5q-110 0 -184 74q-25 26 -40 55.5t-20.5 76.5t-6 68.5t-0.5 87.5q0 57 0.5 77.5t3.5 60.5t9.5 60t20 45t33.5 45q74 74 183 74q62 0 105 -20.5t94 -66.5l-51 -51q-37 36 -69.5 53t-77.5 17q-75 0 -125 -50q-33 -33 -41.5 -86.5
t-8.5 -157.5v-27q0 -99 10 -143t40 -74q48 -50 125 -50q45 0 77.5 17t69.5 53z" />
    <glyph glyph-name="D" unicode="D" horiz-adv-x="673" 
d="M597 366q0 -131 -11 -183q-17 -73 -59 -117q-64 -66 -180 -66h-244v712h244q114 0 180 -66q70 -70 70 -222v-58zM521 310v54q0 105 -9.5 151.5t-37.5 76.5q-49 52 -140 52h-155v-576h155q93 0 140 52q47 51 47 190z" />
    <glyph glyph-name="E" unicode="E" horiz-adv-x="600" 
d="M545 0h-442v712h442v-68h-366v-251h312v-68h-312v-257h366v-68z" />
    <glyph glyph-name="F" unicode="F" horiz-adv-x="580" 
d="M545 644h-366v-262h312v-68h-312v-314h-76v712h442v-68z" />
    <glyph glyph-name="G" unicode="G" horiz-adv-x="645" 
d="M574 260q0 -117 -61 -184q-76 -82 -188 -82q-108 0 -182 74q-46 46 -56.5 104.5t-10.5 183.5q0 65 1 95.5t7 72t20.5 69t38.5 51.5q74 74 184 74q66 0 111.5 -22.5t99.5 -74.5l-51 -51q-41 41 -75.5 60.5t-83.5 19.5q-75 0 -126 -51q-19 -19 -30 -43t-15 -62.5t-4.5 -60
t-0.5 -77.5v-27q0 -99 10 -143t40 -74q50 -50 123 -50q84 0 134 61q39 46 39 130v53h-173v67h249v-113z" />
    <glyph glyph-name="H" unicode="H" horiz-adv-x="696" 
d="M593 0h-76v325h-338v-325h-76v712h76v-319h338v319h76v-712z" />
    <glyph glyph-name="I" unicode="I" horiz-adv-x="282" 
d="M179 0h-76v712h76v-712z" />
    <glyph glyph-name="J" unicode="J" horiz-adv-x="501" 
d="M408 216q0 -101 -61 -161.5t-162 -60.5q-51 0 -93 17q-34 14 -69 47l51 51q27 -26 51 -36.5t60 -10.5q71 0 109 42.5t38 121.5v486h76v-496z" />
    <glyph glyph-name="K" unicode="K" horiz-adv-x="650" 
d="M636 0h-90l-217 379l-150 -180v-199h-76v712h76v-409l332 409h93l-224 -275z" />
    <glyph glyph-name="L" unicode="L" horiz-adv-x="573" 
d="M543 0h-440v712h76v-644h364v-68z" />
    <glyph glyph-name="M" unicode="M" horiz-adv-x="816" 
d="M713 0h-76v541l-195 -429h-65l-198 429v-541h-76v712h76l232 -505l226 505h76v-712z" />
    <glyph glyph-name="N" unicode="N" horiz-adv-x="732" 
d="M629 0h-72l-378 571v-571h-76v712h72l378 -569v569h76v-712z" />
    <glyph glyph-name="O" unicode="O" horiz-adv-x="650" 
d="M574 356q0 -124 -11 -183.5t-56 -104.5q-74 -74 -182 -74t-182 74q-45 45 -56 104.5t-11 183.5v33.5v36t1 33t3 36t5 31.5t8 34t12 29t16.5 30t21.5 25q74 74 182 74t182 -74q12 -12 21.5 -25t16.5 -30t12 -29t8 -34t5 -31.5t3 -36t1 -33v-36v-33.5zM498 356v19
q0 60 -1.5 90.5t-13 70t-35.5 63.5q-51 51 -123 51t-123 -51q-24 -24 -35.5 -61.5t-13 -67.5t-1.5 -93v-21v-31v-32t0.5 -29t2 -30.5t3.5 -27t6 -27.5t9 -23t12.5 -23.5t16.5 -19.5q51 -51 123 -51t123 51q9 9 16.5 19.5t12.5 23.5t9 23t6 27.5t3.5 27t2 30.5t0.5 29v32v31z
" />
    <glyph glyph-name="P" unicode="P" horiz-adv-x="630" 
d="M588 503q0 -95 -60.5 -152.5t-159.5 -57.5h-189v-293h-76v712h265q99 0 159.5 -57.5t60.5 -151.5zM512 503q0 67 -40 104t-111 37h-182v-283h182q71 0 111 37.5t40 104.5z" />
    <glyph glyph-name="Q" unicode="Q" horiz-adv-x="649" 
d="M603 11l-46 -46l-79 79q-72 -50 -153 -50q-108 0 -182 74q-31 31 -46.5 81t-18 90.5t-2.5 116.5v36q0 110 13.5 161t53.5 91q74 74 182 74t182 -74q50 -52 58 -108q9 -65 9 -180v-34q0 -127 -18 -177q-9 -25 -31 -56zM498 356q2 118 -8 164.5t-42 78.5q-49 51 -123 51
t-123 -51q-37 -39 -42 -82q-8 -58 -8 -161v-27q0 -98 10 -141.5t40 -74.5q49 -51 123 -51q51 0 101 34l-90 90l46 46l87 -87q12 20 17 38q9 36 11 111z" />
    <glyph glyph-name="R" unicode="R" horiz-adv-x="656" 
d="M601 0h-89l-162 316h-171v-316h-76v712h273q95 0 153 -54t58 -144q0 -98 -70 -153q-29 -23 -85 -38zM511 513q0 62 -37.5 96.5t-104.5 34.5h-190v-261h190q67 0 104.5 34.5t37.5 95.5z" />
    <glyph glyph-name="S" unicode="S" horiz-adv-x="588" 
d="M532 196q0 -94 -68 -148t-187 -54q-74 0 -135 25q-46 19 -100 69l52 52q44 -42 85 -59q48 -19 105 -19q82 0 127 35t45 98q0 58 -34 88q-16 14 -34.5 21t-58.5 13l-83 13q-185 29 -185 186q0 95 62.5 148.5t171.5 53.5q63 0 114 -20q42 -15 92 -58l-49 -49q-39 33 -71 45
q-39 16 -91 16q-73 0 -113.5 -35t-40.5 -98q0 -101 128 -120l78 -12q88 -14 130 -50q60 -51 60 -141z" />
    <glyph glyph-name="T" unicode="T" horiz-adv-x="548" 
d="M518 644h-206v-644h-76v644h-206v68h488v-68z" />
    <glyph glyph-name="U" unicode="U" horiz-adv-x="683" 
d="M590 235q0 -106 -70 -173.5t-179 -67.5t-178.5 67.5t-69.5 173.5v477h76v-471q0 -81 47 -130t125 -49t125.5 49t47.5 130v471h76v-477z" />
    <glyph glyph-name="V" unicode="V" horiz-adv-x="546" 
d="M538 712l-234 -712h-62l-234 712h80l185 -576l185 576h80z" />
    <glyph glyph-name="W" unicode="W" horiz-adv-x="854" 
d="M838 712l-182 -712h-71l-158 570l-158 -570h-71l-182 712h81l139 -574l157 574h68l157 -574l139 574h81z" />
    <glyph glyph-name="X" unicode="X" horiz-adv-x="551" 
d="M536 0h-88l-173 299l-174 -299h-86l218 365l-204 347h88l158 -281l158 281h88l-205 -347z" />
    <glyph glyph-name="Y" unicode="Y" horiz-adv-x="514" 
d="M506 712l-210 -418v-294h-76v294l-212 418h82l168 -341l166 341h82z" />
    <glyph glyph-name="Z" unicode="Z" horiz-adv-x="556" 
d="M499 0h-442v72l356 572h-342v68h428v-64l-359 -580h359v-68z" />
    <glyph glyph-name="bracketleft" unicode="[" horiz-adv-x="313" 
d="M269 -74h-177v860h177v-64h-105v-732h105v-64z" />
    <glyph glyph-name="backslash" unicode="\" horiz-adv-x="355" 
d="M355 -74h-71l-284 857h71z" />
    <glyph glyph-name="bracketright" unicode="]" horiz-adv-x="313" 
d="M221 -74h-177v62h108v736h-108v62h177v-860z" />
    <glyph glyph-name="asciicircum" unicode="^" 
d="M457 413h-74l-122 228l-123 -228h-74l164 305h66z" />
    <glyph glyph-name="underscore" unicode="_" horiz-adv-x="600" 
d="M600 -165h-600v51h600v-51z" />
    <glyph glyph-name="grave" unicode="`" horiz-adv-x="500" 
d="M299 594h-66l-108 153h86z" />
    <glyph glyph-name="a" unicode="a" horiz-adv-x="526" 
d="M441 0h-72v47q-32 -30 -56 -40q-30 -13 -87 -13q-85 0 -130 37t-45 108q0 67 45 104.5t125 37.5h148v47q0 56 -31 82t-98 26q-46 0 -76 -15q-22 -10 -45 -41l-49 45q34 39 62 53q40 20 110 20q199 0 199 -164v-334zM369 174v53h-138q-110 0 -110 -87q0 -44 28.5 -64
t90.5 -20q69 0 99 27.5t30 90.5z" />
    <glyph glyph-name="b" unicode="b" horiz-adv-x="545" 
d="M481 245q0 -128 -44.5 -189.5t-138.5 -61.5q-46 0 -79 16q-25 12 -57 49v-59h-72v712h72v-277q29 34 56 47q32 16 79 16q95 0 139.5 -61t44.5 -192zM409 245q0 101 -29 145t-95 44q-64 0 -93.5 -45t-29.5 -143q0 -99 29.5 -143.5t94.5 -44.5t94 44.5t29 142.5z" />
    <glyph glyph-name="c" unicode="c" horiz-adv-x="490" 
d="M443 67q-41 -43 -76 -58q-36 -15 -83 -15q-103 0 -162 67t-59 185t59 185t162 67q47 0 83 -15q35 -15 76 -58l-49 -46q-33 34 -56 44q-25 11 -55 11q-148 0 -148 -188t147 -188q31 0 54 10q24 11 58 46z" />
    <glyph glyph-name="d" unicode="d" horiz-adv-x="545" 
d="M455 0h-71v59q-32 -37 -57 -49q-33 -16 -80 -16q-94 0 -138.5 61t-44.5 191t44.5 191t138.5 61q47 0 80 -16q27 -13 56 -47v277h72v-712zM383 245q0 101 -29 145t-95 44q-64 0 -93.5 -45t-29.5 -143q0 -99 29.5 -143.5t94.5 -44.5t94 44.5t29 142.5z" />
    <glyph glyph-name="e" unicode="e" horiz-adv-x="530" 
d="M467 227h-332q3 -59 15 -89q34 -81 134 -81q32 0 63 12q28 12 62 44l49 -43q-45 -44 -83 -59q-42 -17 -95 -17q-107 0 -162 65t-55 190q0 116 54 182.5t148 66.5t148 -64t54 -174v-33zM395 281q-2 45 -9 65q-13 43 -45 67t-76 24q-39 0 -69.5 -19.5t-45.5 -54.5
q-13 -28 -15 -82h260z" />
    <glyph glyph-name="f" unicode="f" horiz-adv-x="314" 
d="M283 434h-105v-434h-72v434h-63v55h63v93q0 61 33.5 96.5t91.5 35.5h52v-62h-39q-66 0 -66 -72v-91h105v-55z" />
    <glyph glyph-name="g" unicode="g" horiz-adv-x="543" 
d="M453 -15q0 -97 -56.5 -154t-152.5 -57q-47 0 -84 14q-33 12 -79 52l47 46q37 -32 59 -40q24 -9 57 -9q65 0 101 39.5t36 111.5v77q-30 -35 -58 -48q-32 -16 -76 -16q-93 0 -138 61t-45 188t44.5 187.5t138.5 60.5q46 0 79 -16q28 -14 56 -48v58h71v-507zM381 249
q0 98 -29 141.5t-94 43.5q-64 0 -93 -44t-29 -140q0 -97 29 -140.5t94 -43.5q64 0 93 43.5t29 139.5z" />
    <glyph glyph-name="h" unicode="h" horiz-adv-x="562" 
d="M477 0h-72v304q0 62 -31 96t-89 34t-90.5 -34.5t-32.5 -95.5v-304h-72v712h72v-274q30 31 59 44q35 16 80 16q81 0 128.5 -49t47.5 -133v-316z" />
    <glyph glyph-name="i" unicode="i" horiz-adv-x="253" 
d="M176 678q0 -21 -14.5 -35.5t-35.5 -14.5q-20 0 -34.5 14.5t-14.5 34.5t14.5 34.5t34.5 14.5t35 -14.5t15 -33.5zM162 0h-72v492h72v-492z" />
    <glyph glyph-name="j" unicode="j" horiz-adv-x="253" 
d="M176 678q0 -21 -14.5 -35.5t-35.5 -14.5q-20 0 -34.5 14.5t-14.5 34.5t14.5 34.5t34.5 14.5t35 -14.5t15 -33.5zM162 -89q0 -62 -33 -97t-92 -35h-52v63h39q35 0 50.5 17t15.5 55v578h72v-581z" />
    <glyph glyph-name="k" unicode="k" horiz-adv-x="536" 
d="M503 0h-89l-156 252l-96 -110v-142h-72v712h72v-476l222 256h90l-167 -188z" />
    <glyph glyph-name="l" unicode="l" horiz-adv-x="253" 
d="M162 0h-72v712h72v-712z" />
    <glyph glyph-name="m" unicode="m" horiz-adv-x="879" 
d="M794 0h-72v303q0 62 -31.5 96.5t-88.5 34.5t-90.5 -33.5t-33.5 -89.5v-311h-72v303q0 62 -31.5 96.5t-89.5 34.5t-90.5 -34.5t-32.5 -96.5v-303h-72v492h72v-54q31 31 58 43q39 17 82 17q70 0 115 -39q18 -16 35 -43q35 44 68 61q39 21 94 21q82 0 131 -50t49 -133v-315z
" />
    <glyph glyph-name="n" unicode="n" horiz-adv-x="562" 
d="M477 0h-72v303q0 62 -31.5 96.5t-89.5 34.5t-90 -34.5t-32 -96.5v-303h-72v492h72v-54q29 30 58 44q36 16 81 16q81 0 128.5 -49t47.5 -134v-315z" />
    <glyph glyph-name="o" unicode="o" horiz-adv-x="530" 
d="M466 249q0 -138 -60 -199q-56 -56 -141 -56t-141 56q-60 61 -60 196t60 196q56 56 141 56t141 -56q60 -60 60 -193zM394 243q0 63 -8.5 98t-30.5 57q-34 36 -90 36q-55 0 -89 -36q-40 -40 -40 -152q0 -111 40 -152q34 -36 89 -36q56 0 90 36q39 40 39 149z" />
    <glyph glyph-name="p" unicode="p" horiz-adv-x="545" 
d="M481 245q0 -128 -44.5 -189.5t-138.5 -61.5q-46 0 -79 16q-27 13 -57 48v-278h-72v712h72v-58q29 34 56 48q32 16 79 16q95 0 139.5 -61t44.5 -192zM409 245q0 101 -29 145t-95 44q-64 0 -93.5 -45t-29.5 -143q0 -99 29.5 -143.5t94.5 -44.5t94 44.5t29 142.5z" />
    <glyph glyph-name="q" unicode="q" horiz-adv-x="545" 
d="M455 -220h-72v278q-30 -35 -57 -48q-32 -16 -79 -16q-94 0 -138.5 61t-44.5 191t44.5 191t138.5 61q48 0 81 -16q25 -12 56 -48v58h71v-712zM383 245q0 101 -29 145t-95 44q-64 0 -93.5 -45t-29.5 -143q0 -99 29.5 -143.5t94.5 -44.5t94 44.5t29 142.5z" />
    <glyph glyph-name="r" unicode="r" horiz-adv-x="421" 
d="M418 452l-53 -54q-37 36 -82 36q-55 0 -88 -36.5t-33 -95.5v-302h-72v492h72v-60q50 66 141 66q37 0 66 -12q22 -9 49 -34z" />
    <glyph glyph-name="s" unicode="s" horiz-adv-x="496" 
d="M445 145q0 -71 -54.5 -111t-152.5 -40q-67 0 -119 21q-36 15 -76 50l48 48q31 -28 56 -39q43 -18 98 -18q63 0 96.5 22.5t33.5 65.5q0 64 -82 71l-81 7q-147 12 -147 131q0 67 50 106t135 39q55 0 109 -18q33 -12 64 -35l-47 -47q-26 19 -51 27q-36 12 -79 12
q-53 0 -82 -21t-29 -61q0 -64 86 -71l79 -7q145 -13 145 -132z" />
    <glyph glyph-name="t" unicode="t" horiz-adv-x="332" 
d="M279 0h-51q-58 0 -92 35.5t-34 96.5v302h-62v55h62v154h72v-154h105v-55h-105v-300q0 -72 67 -72h38v-62z" />
    <glyph glyph-name="u" unicode="u" horiz-adv-x="562" 
d="M472 0h-71v55q-30 -31 -60 -45q-36 -16 -81 -16q-82 0 -128.5 49t-46.5 135v314h72v-303q0 -63 31 -97t89 -34t90.5 34.5t32.5 96.5v303h72v-492z" />
    <glyph glyph-name="v" unicode="v" horiz-adv-x="447" 
d="M436 492l-181 -492h-64l-180 492h78l134 -395l135 395h78z" />
    <glyph glyph-name="w" unicode="w" horiz-adv-x="724" 
d="M713 492l-155 -492h-67l-129 382l-128 -382h-67l-156 492h78l113 -395l129 395h62l130 -395l112 395h78z" />
    <glyph glyph-name="x" unicode="x" horiz-adv-x="478" 
d="M445 0h-87l-118 191l-120 -191h-87l167 251l-160 241h87l113 -182l111 182h87l-160 -241z" />
    <glyph glyph-name="y" unicode="y" horiz-adv-x="447" 
d="M436 492l-224 -611q-34 -92 -131 -92h-31v64h22q35 0 51.5 12t29.5 49l35 96l-177 482h78l135 -395l134 395h78z" />
    <glyph glyph-name="z" unicode="z" horiz-adv-x="459" 
d="M407 0h-357v62l274 366h-259v64h342v-61l-275 -367h275v-64z" />
    <glyph glyph-name="braceleft" unicode="{" horiz-adv-x="354" 
d="M305 -74h-37q-72 0 -101.5 29t-29.5 100v191q0 78 -63 78h-26v64h26q63 0 63 78v191q0 70 30 99.5t101 29.5h37v-64h-23q-47 0 -60 -14t-13 -64v-188q0 -38 -14 -60t-49 -40q35 -18 49 -40t14 -60v-188q0 -50 13 -64t60 -14h23v-64z" />
    <glyph glyph-name="bar" unicode="|" horiz-adv-x="326" 
d="M199 -74h-72v860h72v-860z" />
    <glyph glyph-name="braceright" unicode="}" horiz-adv-x="354" 
d="M305 324h-25q-63 0 -63 -78v-191q0 -70 -30 -99.5t-101 -29.5h-38v64h24q46 0 59.5 14t13.5 64v188q0 38 14 60t49 40q-35 18 -49 40t-14 60v188q0 50 -13.5 64t-59.5 14h-24v64h38q72 0 101.5 -29t29.5 -100v-191q0 -78 63 -78h25v-64z" />
    <glyph glyph-name="asciitilde" unicode="~" 
d="M482 278q-46 -45 -78 -59q-20 -9 -48 -9q-39 0 -109 31l-16 7q-40 17 -64 17q-22 0 -38 -8.5t-44 -36.5l-44 45q46 45 78 59q19 9 48 9q46 0 108 -31l16 -8q31 -16 64 -16q22 0 38 8.5t44 36.5z" />
    <glyph glyph-name="nbspace" unicode="&#xa0;" horiz-adv-x="249" 
 />
    <glyph glyph-name="sterling" unicode="&#xa3;" 
d="M485 0h-386v330h-63v54h63v112q0 100 61.5 161t162.5 61q51 0 93 -17q34 -14 69 -47l-52 -51q-27 27 -50.5 37t-59.5 10q-71 0 -109 -42.5t-38 -121.5v-102h146v-54h-146v-262h309v-68z" />
    <glyph glyph-name="currency" unicode="&#xa4;" 
d="M483 58q-67 -64 -162 -64q-101 0 -162.5 60.5t-61.5 161.5v66h-62v54h62v54h-62v54h62v52q0 101 61.5 161.5t162.5 60.5q91 0 154 -57l-45 -58q-29 25 -50.5 35.5t-54.5 10.5q-151 0 -151 -163v-42h199l-16 -54h-183v-54h166l-16 -54h-150v-56q0 -75 36.5 -119.5
t109.5 -44.5q36 0 60 10.5t51 36.5z" />
    <glyph glyph-name="brokenbar" unicode="&#xa6;" horiz-adv-x="335" 
d="M199 436h-72v350h72v-350zM199 -74h-72v350h72v-350z" />
    <glyph glyph-name="section" unicode="&#xa7;" horiz-adv-x="557" 
d="M470 256q0 -71 -47 -123q-19 -22 -57 -43q36 -16 52 -32q45 -43 45 -112q0 -76 -52 -124t-134 -48q-86 0 -138 50q-43 42 -49 111h73q13 -95 115 -95q52 0 82 27.5t30 74.5q0 37 -23.5 65t-64.5 40l-78 22q-65 18 -101 65.5t-36 114.5q0 73 47 124q18 20 58 43
q-38 18 -57 39q-36 37 -36 97q0 74 50 120t131 46q84 0 135 -49q20 -20 32 -45q10 -24 14 -63h-72q-6 50 -32 71.5t-79 21.5q-50 0 -78.5 -26t-28.5 -72q0 -73 84 -97l78 -22q64 -18 100.5 -66.5t36.5 -114.5zM397 252q0 59 -32 94t-86 35q-53 0 -86 -35.5t-33 -91.5
q0 -58 33 -93.5t86 -35.5t85.5 35t32.5 92z" />
    <glyph glyph-name="copyright" unicode="&#xa9;" horiz-adv-x="881" 
d="M802 363q0 -155 -105 -262t-257 -107q-150 0 -256 106t-106 256t106 256t256 106q147 0 254.5 -105.5t107.5 -249.5zM744 350q0 132 -88 223t-216 91q-125 0 -214 -90.5t-89 -217.5t89 -217.5t214 -90.5q123 0 213.5 90t90.5 212zM576 205q-37 -31 -63 -41
q-27 -11 -67 -11q-83 0 -131 54.5t-48 148.5t48 149t131 55q34 0 64 -11q27 -9 66 -42l-36 -36q-27 22 -47 30.5t-47 8.5q-123 0 -123 -158q0 -72 32 -110.5t91 -38.5q28 0 48 8t46 30z" />
    <glyph glyph-name="guillemotleft" unicode="&#xab;" horiz-adv-x="554" 
d="M476 58l-210 210l210 210v-90l-121 -120l121 -121v-89zM250 58l-210 210l210 210v-90l-120 -120l120 -121v-89z" />
    <glyph glyph-name="logicalnot" unicode="&#xac;" 
d="M471 103h-67v137h-353v67h420v-204z" />
    <glyph glyph-name="registered" unicode="&#xae;" horiz-adv-x="434" 
d="M405 534q0 -80 -54.5 -135.5t-133.5 -55.5q-78 0 -133 55t-55 133t55 133t133 55q76 0 132 -55t56 -130zM376 528q0 68 -46 116t-113 48q-65 0 -112 -47.5t-47 -113.5q0 -67 47 -114t112 -47t112 47t47 111zM296 428h-33l-47 84h-32v-84h-28v206h70q27 0 46 -18t19 -44
q0 -20 -12.5 -35t-31.5 -21zM262 572q0 16 -11 26t-28 10h-39v-72h39q17 0 28 10t11 26z" />
    <glyph glyph-name="degree" unicode="&#xb0;" horiz-adv-x="463" 
d="M396 560q0 -70 -47.5 -118.5t-116.5 -48.5q-68 0 -116.5 48t-48.5 116t48.5 116t116.5 48q67 0 115.5 -47.5t48.5 -113.5zM335 555q0 47 -29.5 77.5t-74.5 30.5q-44 0 -73.5 -30.5t-29.5 -75.5t30 -75.5t74 -30.5q43 0 73 30.5t30 73.5z" />
    <glyph glyph-name="plusminus" unicode="&#xb1;" 
d="M470 289h-175v-177h-67v177h-176v67h176v175h67v-175h175v-67zM470 0h-418v67h418v-67z" />
    <glyph glyph-name="paragraph" unicode="&#xb6;" horiz-adv-x="603" 
d="M500 -220h-72v864h-117v-864h-72v546q-49 3 -79 15q-54 22 -86 70.5t-32 107.5q0 85 60.5 139t156.5 54h241v-932z" />
    <glyph glyph-name="guillemotright" unicode="&#xbb;" horiz-adv-x="554" 
d="M514 268l-210 -210v89l120 121l-120 120v90zM288 268l-210 -210v89l121 121l-121 120v90z" />
    <glyph glyph-name="divide" unicode="&#xf7;" 
d="M318 450q0 -24 -17 -41t-40 -17t-40 17t-17 40t17 40t40 17t40 -17t17 -39zM471 236h-420v67h420v-67zM318 91q0 -24 -17 -41t-40 -17t-40 17t-17 40t17 40t40 17t40 -17t17 -39z" />
    <glyph glyph-name="florin" unicode="&#x192;" horiz-adv-x="403" 
d="M373 652h-50q-67 0 -79 -72l-34 -196h105v-54h-115l-97 -550h-72l97 550h-98v54h108l34 198q11 60 51 96t98 36h52v-62z" />
    <glyph glyph-name="Delta" unicode="&#x394;" horiz-adv-x="603" 
d="M594 0h-586l262 712h63zM495 66l-193 537l-194 -537h387z" />
    <glyph glyph-name="mu" unicode="&#x3bc;" horiz-adv-x="561" 
d="M471 0h-72v55q-32 -33 -59 -45q-36 -16 -79 -16q-37 0 -65 11q-20 8 -41 26v-251h-72v712h72v-303q0 -63 31.5 -97t89.5 -34t90.5 34.5t32.5 96.5v303h72v-492z" />
    <glyph glyph-name="afii10023" unicode="&#x401;" horiz-adv-x="600" 
d="M464 833q0 -19 -13 -32.5t-32 -13.5t-32 13t-13 32t13 32.5t32 13.5q18 0 31.5 -13.5t13.5 -31.5zM252 833q0 -19 -13 -32.5t-32 -13.5t-32 13t-13 32t13 32.5t32 13.5q18 0 31.5 -13.5t13.5 -31.5zM545 0h-442v712h442v-68h-366v-251h312v-68h-312v-257h366v-68z" />
    <glyph glyph-name="afii10051" unicode="&#x402;" horiz-adv-x="744" 
d="M655 4q0 -102 -58 -161.5t-162 -59.5q-50 0 -87 15q-32 12 -65 41l49 54q43 -42 104 -42q68 0 105.5 42.5t37.5 120.5v212q0 67 -37 95.5t-87 28.5h-178v-350h-76v644h-175v68h487v-68h-236v-226h185q84 0 138.5 -46t54.5 -135v-233z" />
    <glyph glyph-name="afii10052" unicode="&#x403;" horiz-adv-x="569" 
d="M442 927l-109 -153h-65l88 153h86zM538 644h-352v-644h-76v712h428v-68z" />
    <glyph glyph-name="afii10053" unicode="&#x404;" horiz-adv-x="587" 
d="M525 81q-51 -46 -94 -66.5t-104 -20.5q-110 0 -184 74q-25 26 -40 55.5t-20.5 76.5t-6 68.5t-0.5 87.5q0 57 0.5 77.5t3.5 60.5t9.5 60t20 45t33.5 45q74 74 183 74q62 0 105 -20.5t94 -66.5l-51 -51q-37 36 -69.5 53t-77.5 17q-75 0 -125 -50q-30 -31 -39.5 -78
t-10.5 -130h274v-67h-274q0 -96 10.5 -139.5t39.5 -73.5q48 -50 125 -50q45 0 77.5 17t69.5 53z" />
    <glyph glyph-name="afii10054" unicode="&#x405;" horiz-adv-x="588" 
d="M532 196q0 -94 -68 -148t-187 -54q-74 0 -135 25q-46 19 -100 69l52 52q44 -42 85 -59q48 -19 105 -19q82 0 127 35t45 98q0 58 -34 88q-16 14 -34.5 21t-58.5 13l-83 13q-185 29 -185 186q0 95 62.5 148.5t171.5 53.5q63 0 114 -20q42 -15 92 -58l-49 -49q-39 33 -71 45
q-39 16 -91 16q-73 0 -113.5 -35t-40.5 -98q0 -101 128 -120l78 -12q88 -14 130 -50q60 -51 60 -141z" />
    <glyph glyph-name="afii10055" unicode="&#x406;" horiz-adv-x="282" 
d="M179 0h-76v712h76v-712z" />
    <glyph glyph-name="afii10056" unicode="&#x407;" horiz-adv-x="282" 
d="M291 833q0 -19 -13 -32.5t-32 -13.5t-32 13t-13 32t13 32.5t32 13.5q18 0 31.5 -13.5t13.5 -31.5zM79 833q0 -19 -13 -32.5t-32 -13.5t-32 13t-13 32t13 32.5t32 13.5q18 0 31.5 -13.5t13.5 -31.5zM179 0h-76v712h76v-712z" />
    <glyph glyph-name="afii10057" unicode="&#x408;" horiz-adv-x="501" 
d="M408 216q0 -101 -61 -161.5t-162 -60.5q-51 0 -93 17q-34 14 -69 47l51 51q27 -26 51 -36.5t60 -10.5q71 0 109 42.5t38 121.5v486h76v-496z" />
    <glyph glyph-name="afii10058" unicode="&#x409;" horiz-adv-x="1043" 
d="M1003 209q0 -94 -60 -151.5t-159 -57.5h-268v644h-236l-11 -319q-6 -176 -55 -250.5t-151 -74.5h-45v68h27q35 0 59 10.5t45 39.5t31.5 85.5t13.5 143.5l11 365h387v-293h192q99 0 159 -57.5t60 -152.5zM927 209q0 67 -40 104.5t-111 37.5h-184v-283h184q71 0 111 37
t40 104z" />
    <glyph glyph-name="afii10059" unicode="&#x40a;" horiz-adv-x="1043" 
d="M1003 209q0 -94 -60 -151.5t-159 -57.5h-268v351h-337v-351h-76v712h76v-293h337v293h76v-293h192q99 0 159 -57.5t60 -152.5zM927 209q0 67 -40 104.5t-111 37.5h-184v-283h184q71 0 111 37t40 104z" />
    <glyph glyph-name="afii10060" unicode="&#x40b;" horiz-adv-x="744" 
d="M655 0h-76v240q0 67 -37 96t-87 29q-67 0 -178 -24v-341h-76v644h-175v68h487v-68h-236v-236q114 25 187 25q82 0 136.5 -46t54.5 -135v-252z" />
    <glyph glyph-name="afii10061" unicode="&#x40c;" horiz-adv-x="650" 
d="M447 927l-109 -153h-65l88 153h86zM636 0h-90l-217 379l-150 -180v-199h-76v712h76v-409l332 409h93l-224 -275z" />
    <glyph glyph-name="afii10062" unicode="&#x40e;" horiz-adv-x="546" 
d="M443 888q-24 -131 -159 -131q-136 0 -160 131h57q19 -74 103 -74q83 0 102 74h57zM537 712l-258 -601q-48 -111 -140 -111h-62v68h45q36 0 57 16.5t37 54.5l29 67l-235 506h81l192 -421l173 421h81z" />
    <glyph glyph-name="afii10145" unicode="&#x40f;" horiz-adv-x="696" 
d="M592 0h-206v-182h-75v182h-208v712h76v-644h337v644h76v-712z" />
    <glyph glyph-name="afii10017" unicode="&#x410;" horiz-adv-x="611" 
d="M599 0h-81l-57 161h-311l-57 -161h-81l262 712h64zM439 227l-132 376l-134 -376h266z" />
    <glyph glyph-name="afii10018" unicode="&#x411;" horiz-adv-x="656" 
d="M591 209q0 -94 -60 -151.5t-159 -57.5h-269v712h444v-68h-368v-225h193q99 0 159 -57.5t60 -152.5zM515 209q0 67 -39.5 104.5t-110.5 37.5h-186v-283h186q71 0 110.5 37t39.5 104z" />
    <glyph glyph-name="afii10019" unicode="&#x412;" horiz-adv-x="668" 
d="M592 195q0 -91 -56.5 -143t-155.5 -52h-277v712h268q94 0 152 -51.5t58 -135.5q0 -77 -52 -126q-17 -17 -53 -33q42 -18 63 -39q53 -51 53 -132zM505 521q0 58 -37 90.5t-103 32.5h-186v-247h186q66 0 103 33t37 91zM516 199q0 60 -38.5 95t-104.5 35h-194v-261h194
q66 0 104.5 35.5t38.5 95.5z" />
    <glyph glyph-name="afii10020" unicode="&#x413;" horiz-adv-x="569" 
d="M538 644h-352v-644h-76v712h428v-68z" />
    <glyph glyph-name="afii10021" unicode="&#x414;" horiz-adv-x="702" 
d="M661 -182h-75v182h-473v-182h-75v250h72q50 119 68 238.5t18 350.5v55h380v-644h85v-250zM500 68v576h-228v-49q0 -202 -17 -305t-64 -222h309z" />
    <glyph glyph-name="afii10022" unicode="&#x415;" horiz-adv-x="600" 
d="M545 0h-442v712h442v-68h-366v-251h312v-68h-312v-257h366v-68z" />
    <glyph glyph-name="afii10024" unicode="&#x416;" horiz-adv-x="940" 
d="M926 0h-90l-208 366l-120 -157v-209h-76v209l-120 157l-208 -366h-89l248 428l-217 284h92l294 -401v401h76v-401l294 401h92l-217 -284z" />
    <glyph glyph-name="afii10025" unicode="&#x417;" horiz-adv-x="588" 
d="M512 196q0 -91 -67 -146.5t-169 -55.5q-77 0 -130.5 20.5t-106.5 73.5l52 52q45 -43 86 -60.5t102 -17.5q67 0 111.5 37t44.5 99q0 66 -38 99.5t-107 33.5h-81v66h84q62 0 96.5 33.5t34.5 95.5q0 59 -39.5 92t-104.5 33q-99 0 -169 -62l-47 49q94 80 217 80
q95 0 157 -51.5t62 -137.5q0 -115 -103 -162q115 -41 115 -171z" />
    <glyph glyph-name="afii10026" unicode="&#x418;" horiz-adv-x="716" 
d="M613 0h-76v581l-362 -581h-72v712h76v-580l362 580h72v-712z" />
    <glyph glyph-name="afii10027" unicode="&#x419;" horiz-adv-x="716" 
d="M518 888q-24 -131 -159 -131q-136 0 -160 131h57q19 -74 103 -74q83 0 102 74h57zM613 0h-76v581l-362 -581h-72v712h76v-580l362 580h72v-712z" />
    <glyph glyph-name="afii10028" unicode="&#x41a;" horiz-adv-x="650" 
d="M636 0h-90l-217 379l-150 -180v-199h-76v712h76v-409l332 409h93l-224 -275z" />
    <glyph glyph-name="afii10029" unicode="&#x41b;" horiz-adv-x="696" 
d="M592 0h-76v644h-236l-11 -319q-6 -176 -55 -250.5t-151 -74.5h-45v68h27q35 0 59 10.5t45 39.5t31.5 85.5t13.5 143.5l11 365h387v-712z" />
    <glyph glyph-name="afii10030" unicode="&#x41c;" horiz-adv-x="816" 
d="M713 0h-76v541l-195 -429h-65l-198 429v-541h-76v712h76l232 -505l226 505h76v-712z" />
    <glyph glyph-name="afii10031" unicode="&#x41d;" horiz-adv-x="696" 
d="M593 0h-76v325h-338v-325h-76v712h76v-319h338v319h76v-712z" />
    <glyph glyph-name="afii10032" unicode="&#x41e;" horiz-adv-x="650" 
d="M574 356q0 -124 -11 -183.5t-56 -104.5q-74 -74 -182 -74t-182 74q-45 45 -56 104.5t-11 183.5v33.5v36t1 33t3 36t5 31.5t8 34t12 29t16.5 30t21.5 25q74 74 182 74t182 -74q12 -12 21.5 -25t16.5 -30t12 -29t8 -34t5 -31.5t3 -36t1 -33v-36v-33.5zM498 356v19
q0 60 -1.5 90.5t-13 70t-35.5 63.5q-51 51 -123 51t-123 -51q-24 -24 -35.5 -61.5t-13 -67.5t-1.5 -93v-21v-31v-32t0.5 -29t2 -30.5t3.5 -27t6 -27.5t9 -23t12.5 -23.5t16.5 -19.5q51 -51 123 -51t123 51q9 9 16.5 19.5t12.5 23.5t9 23t6 27.5t3.5 27t2 30.5t0.5 29v32v31z
" />
    <glyph glyph-name="afii10033" unicode="&#x41f;" horiz-adv-x="696" 
d="M592 0h-76v644h-337v-644h-76v712h489v-712z" />
    <glyph glyph-name="afii10034" unicode="&#x420;" horiz-adv-x="630" 
d="M588 503q0 -95 -60.5 -152.5t-159.5 -57.5h-189v-293h-76v712h265q99 0 159.5 -57.5t60.5 -151.5zM512 503q0 67 -40 104t-111 37h-182v-283h182q71 0 111 37.5t40 104.5z" />
    <glyph glyph-name="afii10035" unicode="&#x421;" horiz-adv-x="587" 
d="M525 81q-51 -46 -94 -66.5t-104 -20.5q-110 0 -184 74q-25 26 -40 55.5t-20.5 76.5t-6 68.5t-0.5 87.5q0 57 0.5 77.5t3.5 60.5t9.5 60t20 45t33.5 45q74 74 183 74q62 0 105 -20.5t94 -66.5l-51 -51q-37 36 -69.5 53t-77.5 17q-75 0 -125 -50q-33 -33 -41.5 -86.5
t-8.5 -157.5v-27q0 -99 10 -143t40 -74q48 -50 125 -50q45 0 77.5 17t69.5 53z" />
    <glyph glyph-name="afii10036" unicode="&#x422;" horiz-adv-x="548" 
d="M518 644h-206v-644h-76v644h-206v68h488v-68z" />
    <glyph glyph-name="afii10037" unicode="&#x423;" horiz-adv-x="546" 
d="M537 712l-258 -601q-48 -111 -140 -111h-62v68h45q36 0 57 16.5t37 54.5l29 67l-235 506h81l192 -421l173 421h81z" />
    <glyph glyph-name="afii10038" unicode="&#x424;" horiz-adv-x="742" 
d="M687 371q0 -133 -74 -210t-204 -78v-87h-76v87q-130 1 -204 78t-74 210q0 132 75 207.5t203 77.5v60h76v-60q128 -2 203 -77.5t75 -207.5zM611 369q0 100 -51 159t-151 60v-438q97 1 149.5 60.5t52.5 158.5zM333 150v438q-100 -1 -151 -60t-51 -159q0 -99 52 -158.5
t150 -60.5z" />
    <glyph glyph-name="afii10039" unicode="&#x425;" horiz-adv-x="551" 
d="M536 0h-88l-173 299l-174 -299h-86l218 365l-204 347h88l158 -281l158 281h88l-205 -347z" />
    <glyph glyph-name="afii10040" unicode="&#x426;" horiz-adv-x="718" 
d="M677 -182h-75v182h-499v712h76v-644h337v644h76v-644h85v-250z" />
    <glyph glyph-name="afii10041" unicode="&#x427;" horiz-adv-x="645" 
d="M542 0h-76v303q-31 -13 -86 -27t-104 -14q-87 0 -143.5 48.5t-56.5 144.5v257h76v-248q0 -71 38 -102.5t91 -31.5q83 0 185 43v339h76v-712z" />
    <glyph glyph-name="afii10042" unicode="&#x428;" horiz-adv-x="997" 
d="M894 0h-791v712h76v-644h281v644h77v-644h281v644h76v-712z" />
    <glyph glyph-name="afii10043" unicode="&#x429;" horiz-adv-x="1019" 
d="M978 -182h-75v182h-800v712h76v-644h281v644h77v-644h281v644h76v-644h84v-250z" />
    <glyph glyph-name="afii10044" unicode="&#x42a;" horiz-adv-x="758" 
d="M717 209q0 -94 -60 -151.5t-159 -57.5h-268v644h-200v68h277v-293h191q99 0 159 -57.5t60 -152.5zM641 209q0 67 -39.5 104.5t-110.5 37.5h-184v-283h184q71 0 110.5 37t39.5 104z" />
    <glyph glyph-name="afii10045" unicode="&#x42b;" horiz-adv-x="864" 
d="M761 0h-76v712h76v-712zM590 209q0 -94 -60.5 -151.5t-159.5 -57.5h-267v712h76v-293h191q100 0 160 -57.5t60 -152.5zM513 209q0 67 -39.5 104.5t-110.5 37.5h-184v-283h184q71 0 110.5 37t39.5 104z" />
    <glyph glyph-name="afii10046" unicode="&#x42c;" horiz-adv-x="630" 
d="M590 209q0 -94 -60.5 -151.5t-159.5 -57.5h-267v712h76v-293h191q100 0 160 -57.5t60 -152.5zM513 209q0 67 -39.5 104.5t-110.5 37.5h-184v-283h184q71 0 110.5 37t39.5 104z" />
    <glyph glyph-name="afii10047" unicode="&#x42d;" horiz-adv-x="587" 
d="M512 382q0 -148 -10 -197q-14 -72 -58 -117q-74 -74 -184 -74q-53 0 -98 18q-27 11 -47 25t-53 44l51 51q44 -43 79 -57q29 -13 68 -13q77 0 125 50q29 30 39.5 73.5t10.5 139.5h-258v68h258q0 6 -0.5 30.5t-1 33t-2 30t-5 33t-8.5 27.5t-13.5 29t-19.5 24
q-50 50 -125 50q-37 0 -68 -13q-36 -16 -79 -57l-51 51q33 30 53 44t47 25q46 18 99 18q109 0 183 -74q40 -40 54 -95.5t14 -166.5z" />
    <glyph glyph-name="afii10048" unicode="&#x42e;" horiz-adv-x="904" 
d="M828 356q0 -130 -11.5 -186.5t-55.5 -101.5q-74 -74 -182 -74t-182 74q-42 43 -54.5 97t-12.5 160h-151v-325h-76v712h76v-319h151q1 101 12.5 154.5t54.5 96.5q74 74 182 74t182 -74q39 -40 53 -94t14 -130v-64zM751 344v31q0 104 -9.5 149t-39.5 76q-50 50 -123 50
q-75 0 -123 -50q-32 -32 -41 -82t-9 -156v-35q0 -96 10.5 -139.5t39.5 -74.5q51 -51 123 -51q74 0 123 51q23 24 34.5 61t13 69t1.5 101z" />
    <glyph glyph-name="afii10049" unicode="&#x42f;" horiz-adv-x="656" 
d="M553 0h-77v293h-176l-154 -293h-90l164 304q-71 17 -111.5 70t-40.5 129q0 94 60.5 151.5t159.5 57.5h265v-712zM476 361v283h-182q-71 0 -111 -37t-40 -104t40 -104.5t111 -37.5h182z" />
    <glyph glyph-name="afii10065" unicode="&#x430;" horiz-adv-x="526" 
d="M441 0h-72v47q-32 -30 -56 -40q-30 -13 -87 -13q-85 0 -130 37t-45 108q0 67 45 104.5t125 37.5h148v47q0 56 -31 82t-98 26q-46 0 -76 -15q-22 -10 -45 -41l-49 45q34 39 62 53q40 20 110 20q199 0 199 -164v-334zM369 174v53h-138q-110 0 -110 -87q0 -44 28.5 -64
t90.5 -20q69 0 99 27.5t30 90.5z" />
    <glyph glyph-name="afii10066" unicode="&#x431;" horiz-adv-x="530" 
d="M466 244q0 -137 -58 -196q-52 -54 -138 -54q-67 0 -113 35t-65 98q-19 60 -19 216q0 132 12.5 198.5t60.5 110.5q26 24 67.5 38.5t71 18.5t80.5 7t63 4v-66q-5 -1 -70 -4.5t-106 -14t-67 -34.5q-12 -11 -21 -24.5t-14.5 -30t-9 -29.5t-5.5 -32l-3 -28.5t-1.5 -27
t-0.5 -19.5h3q17 35 59 56.5t85 21.5q94 0 141.5 -63.5t47.5 -180.5zM394 240q0 60 -8 92.5t-28 54.5q-34 37 -88 37q-55 0 -89 -37q-36 -39 -36 -145q0 -59 8 -91.5t28 -54.5q33 -38 89 -38q55 0 88 38q36 39 36 144z" />
    <glyph glyph-name="afii10067" unicode="&#x432;" horiz-adv-x="539" 
d="M472 136q0 -63 -39 -99.5t-108 -36.5h-234v492h228q65 0 105 -35.5t40 -93.5q0 -80 -78 -108q86 -32 86 -119zM393 357q0 73 -87 73h-144v-147h144q87 0 87 74zM401 143q0 37 -23.5 59t-65.5 22h-150v-162h150q42 0 65.5 22t23.5 59z" />
    <glyph glyph-name="afii10068" unicode="&#x433;" horiz-adv-x="417" 
d="M406 430h-240v-430h-72v492h312v-62z" />
    <glyph glyph-name="afii10069" unicode="&#x434;" horiz-adv-x="557" 
d="M528 -152h-70v152h-370v-152h-69v214h61q33 74 49 144t16 192v94h310v-430h73v-214zM383 62v368h-167v-93q-1 -150 -56 -275h223z" />
    <glyph glyph-name="afii10070" unicode="&#x435;" horiz-adv-x="530" 
d="M467 227h-332q3 -59 15 -89q34 -81 134 -81q32 0 63 12q28 12 62 44l49 -43q-45 -44 -83 -59q-42 -17 -95 -17q-107 0 -162 65t-55 190q0 116 54 182.5t148 66.5t148 -64t54 -174v-33zM395 281q-2 45 -9 65q-13 43 -45 67t-76 24q-39 0 -69.5 -19.5t-45.5 -54.5
q-13 -28 -15 -82h260z" />
    <glyph glyph-name="afii10072" unicode="&#x436;" horiz-adv-x="715" 
d="M703 0h-87l-141 234l-82 -102v-132h-72v132l-81 102l-142 -234h-86l181 291l-161 201h88l201 -265v265h72v-265l202 265h87l-161 -201z" />
    <glyph glyph-name="afii10073" unicode="&#x437;" horiz-adv-x="482" 
d="M415 139q0 -65 -54.5 -104.5t-131.5 -39.5q-120 0 -197 70l45 47q33 -30 65.5 -42.5t78.5 -12.5q48 0 86 23.5t38 61.5q0 40 -27.5 61t-73.5 21h-72v60h73q41 0 66.5 21t25.5 58t-29.5 56t-81.5 19q-73 0 -132 -41l-41 48q73 53 180 53q76 0 125 -35.5t49 -97.5
q0 -37 -20.5 -67t-57.5 -43q39 -12 62.5 -43t23.5 -73z" />
    <glyph glyph-name="afii10074" unicode="&#x438;" horiz-adv-x="577" 
d="M487 0h-72v381l-253 -381h-71v492h71v-379l253 379h72v-492z" />
    <glyph glyph-name="afii10075" unicode="&#x439;" horiz-adv-x="577" 
d="M448 708q-24 -130 -160 -130q-134 0 -160 130h58q19 -73 103 -73t101 73h58zM487 0h-72v381l-253 -381h-71v492h71v-379l253 379h72v-492z" />
    <glyph glyph-name="afii10076" unicode="&#x43a;" horiz-adv-x="533" 
d="M507 0h-90l-161 238l-92 -104v-134h-72v492h72v-265l230 265h89l-178 -201z" />
    <glyph glyph-name="afii10077" unicode="&#x43b;" horiz-adv-x="562" 
d="M471 0h-72v430h-176l-6 -228q-5 -202 -155 -202h-41v62h23q42 0 70.5 33t31.5 127l7 270h318v-492z" />
    <glyph glyph-name="afii10078" unicode="&#x43c;" horiz-adv-x="656" 
d="M565 0h-72v350l-137 -272h-55l-139 272v-350h-71v492h71l167 -331l165 331h71v-492z" />
    <glyph glyph-name="afii10079" unicode="&#x43d;" horiz-adv-x="562" 
d="M472 0h-72v223h-238v-223h-71v492h71v-207h238v207h72v-492z" />
    <glyph glyph-name="afii10080" unicode="&#x43e;" horiz-adv-x="530" 
d="M466 249q0 -138 -60 -199q-56 -56 -141 -56t-141 56q-60 61 -60 196t60 196q56 56 141 56t141 -56q60 -60 60 -193zM394 243q0 63 -8.5 98t-30.5 57q-34 36 -90 36q-55 0 -89 -36q-40 -40 -40 -152q0 -111 40 -152q34 -36 89 -36q56 0 90 36q39 40 39 149z" />
    <glyph glyph-name="afii10081" unicode="&#x43f;" horiz-adv-x="562" 
d="M472 0h-72v430h-238v-430h-71v492h381v-492z" />
    <glyph glyph-name="afii10082" unicode="&#x440;" horiz-adv-x="545" 
d="M481 245q0 -128 -44.5 -189.5t-138.5 -61.5q-46 0 -79 16q-27 13 -57 48v-278h-72v712h72v-58q29 34 56 48q32 16 79 16q95 0 139.5 -61t44.5 -192zM409 245q0 101 -29 145t-95 44q-64 0 -93.5 -45t-29.5 -143q0 -99 29.5 -143.5t94.5 -44.5t94 44.5t29 142.5z" />
    <glyph glyph-name="afii10083" unicode="&#x441;" horiz-adv-x="490" 
d="M443 67q-41 -43 -76 -58q-36 -15 -83 -15q-103 0 -162 67t-59 185t59 185t162 67q47 0 83 -15q35 -15 76 -58l-49 -46q-33 34 -56 44q-25 11 -55 11q-148 0 -148 -188t147 -188q31 0 54 10q24 11 58 46z" />
    <glyph glyph-name="afii10084" unicode="&#x442;" horiz-adv-x="423" 
d="M413 430h-161v-430h-72v430h-169v62h402v-62z" />
    <glyph glyph-name="afii10085" unicode="&#x443;" horiz-adv-x="447" 
d="M436 492l-224 -611q-34 -92 -131 -92h-31v64h22q35 0 51.5 12t29.5 49l35 96l-177 482h78l135 -395l134 395h78z" />
    <glyph glyph-name="afii10086" unicode="&#x444;" horiz-adv-x="690" 
d="M630 247q0 -120 -66.5 -186.5t-182.5 -66.5v-214h-72v214q-116 0 -182.5 66.5t-66.5 186.5t65.5 185.5t183.5 65.5v214h72v-214q118 0 183.5 -65.5t65.5 -185.5zM558 245q0 87 -42.5 138t-135.5 51v-376q88 0 133 50t45 137zM309 58v376q-93 0 -135.5 -51t-42.5 -138
t45 -137t133 -50z" />
    <glyph glyph-name="afii10087" unicode="&#x445;" horiz-adv-x="478" 
d="M445 0h-87l-118 191l-120 -191h-87l167 251l-160 241h87l113 -182l111 182h87l-160 -241z" />
    <glyph glyph-name="afii10088" unicode="&#x446;" horiz-adv-x="579" 
d="M546 -152h-70v152h-385v492h71v-430h238v430h72v-430h74v-214z" />
    <glyph glyph-name="afii10089" unicode="&#x447;" horiz-adv-x="526" 
d="M436 0h-72v211q-71 -25 -136 -25q-72 0 -113.5 35t-41.5 102v169h72v-159q0 -85 93 -85q43 0 126 25v219h72v-492z" />
    <glyph glyph-name="afii10090" unicode="&#x448;" horiz-adv-x="801" 
d="M710 0h-619v492h71v-430h202v430h72v-430h202v430h72v-492z" />
    <glyph glyph-name="afii10091" unicode="&#x449;" horiz-adv-x="816" 
d="M784 -152h-70v152h-623v492h71v-430h202v430h72v-430h202v430h72v-430h74v-214z" />
    <glyph glyph-name="afii10092" unicode="&#x44a;" horiz-adv-x="595" 
d="M553 148q0 -67 -43 -107.5t-113 -40.5h-219v430h-167v62h238v-195h148q71 0 113.5 -41t42.5 -108zM481 148q0 41 -23.5 63.5t-68.5 22.5h-140v-172h140q45 0 68.5 22.5t23.5 63.5z" />
    <glyph glyph-name="afii10093" unicode="&#x44b;" horiz-adv-x="718" 
d="M617 0h-72v492h72v-492zM466 148q0 -67 -43 -107.5t-113 -40.5h-219v492h71v-195h148q71 0 113.5 -41t42.5 -108zM394 148q0 41 -23.5 63.5t-68.5 22.5h-140v-172h140q45 0 68.5 22.5t23.5 63.5z" />
    <glyph glyph-name="afii10094" unicode="&#x44c;" horiz-adv-x="506" 
d="M466 148q0 -67 -43 -107.5t-113 -40.5h-219v492h71v-195h148q71 0 113.5 -41t42.5 -108zM394 148q0 41 -23.5 63.5t-68.5 22.5h-140v-172h140q45 0 68.5 22.5t23.5 63.5z" />
    <glyph glyph-name="afii10095" unicode="&#x44d;" horiz-adv-x="490" 
d="M426 247q0 -119 -58 -186t-162 -67q-52 0 -86.5 16.5t-72.5 56.5l48 46q28 -30 52.5 -43t60.5 -13q73 0 109 47.5t38 122.5h-202v54h201q-5 70 -42 112t-105 42q-35 0 -59.5 -13.5t-52.5 -42.5l-48 46q38 40 72.5 56.5t86.5 16.5q103 0 161.5 -66.5t58.5 -184.5z" />
    <glyph glyph-name="afii10096" unicode="&#x44e;" horiz-adv-x="728" 
d="M664 249q0 -139 -60 -199q-54 -56 -141 -56q-82 0 -135 51q-62 58 -65 177h-101v-222h-71v492h71v-209h101q6 109 64 164q54 51 136 51q96 0 150 -66q51 -63 51 -183zM592 245q0 109 -38 151q-33 38 -91 38t-91 -38q-38 -41 -38 -149q0 -60 8 -93.5t29 -56.5
q36 -39 92 -39t92 39q37 41 37 148z" />
    <glyph glyph-name="afii10097" unicode="&#x44f;" horiz-adv-x="526" 
d="M435 0h-71v193h-118l-107 -193h-86l118 202q-53 11 -84 49t-31 94q0 66 42.5 106.5t112.5 40.5h224v-492zM364 255v175h-142q-46 0 -70 -23t-24 -65t24.5 -64.5t69.5 -22.5h142z" />
    <glyph glyph-name="afii10071" unicode="&#x451;" horiz-adv-x="530" 
d="M419 646q0 -19 -13 -32.5t-32 -13.5t-32 13t-13 32t13 32.5t32 13.5q18 0 31.5 -13.5t13.5 -31.5zM207 646q0 -19 -13 -32.5t-32 -13.5t-32 13t-13 32t13 32.5t32 13.5q18 0 31.5 -13.5t13.5 -31.5zM467 227h-332q3 -59 15 -89q34 -81 134 -81q32 0 63 12q28 12 62 44
l49 -43q-45 -44 -83 -59q-42 -17 -95 -17q-107 0 -162 65t-55 190q0 116 54 182.5t148 66.5t148 -64t54 -174v-33zM395 281q-2 45 -9 65q-13 43 -45 67t-76 24q-39 0 -69.5 -19.5t-45.5 -54.5q-13 -28 -15 -82h260z" />
    <glyph glyph-name="afii10099" unicode="&#x452;" horiz-adv-x="562" 
d="M477 -70q0 -66 -36.5 -108.5t-109.5 -42.5h-48v62h36q40 0 63 26t23 66v245q0 131 -116 131q-58 0 -92.5 -35t-34.5 -96v-178h-71v442h-58v54h58v216h71v-216h248v-54h-248v-130q61 61 143 61q81 0 126.5 -49t45.5 -134v-260z" />
    <glyph glyph-name="afii10100" unicode="&#x453;" horiz-adv-x="417" 
d="M345 747l-108 -153h-66l88 153h86zM406 430h-240v-430h-72v492h312v-62z" />
    <glyph glyph-name="afii10101" unicode="&#x454;" horiz-adv-x="490" 
d="M443 67q-38 -40 -72.5 -56.5t-87.5 -16.5q-104 0 -162 67t-58 186q0 118 58.5 184.5t161.5 66.5q53 0 87 -16.5t73 -56.5l-48 -46q-29 30 -53.5 43t-59.5 13q-68 0 -104.5 -42t-41.5 -112h209v-54h-210q2 -76 37.5 -123t109.5 -47q36 0 60.5 13t52.5 43z" />
    <glyph glyph-name="afii10102" unicode="&#x455;" horiz-adv-x="496" 
d="M445 145q0 -71 -54.5 -111t-152.5 -40q-67 0 -119 21q-36 15 -76 50l48 48q31 -28 56 -39q43 -18 98 -18q63 0 96.5 22.5t33.5 65.5q0 64 -82 71l-81 7q-147 12 -147 131q0 67 50 106t135 39q55 0 109 -18q33 -12 64 -35l-47 -47q-26 19 -51 27q-36 12 -79 12
q-53 0 -82 -21t-29 -61q0 -64 86 -71l79 -7q145 -13 145 -132z" />
    <glyph glyph-name="afii10103" unicode="&#x456;" horiz-adv-x="253" 
d="M176 678q0 -21 -14.5 -35.5t-35.5 -14.5q-20 0 -34.5 14.5t-14.5 34.5t14.5 34.5t34.5 14.5t35 -14.5t15 -33.5zM162 0h-72v492h72v-492z" />
    <glyph glyph-name="afii10104" unicode="&#x457;" horiz-adv-x="253" 
d="M275 646q0 -19 -13 -32.5t-32 -13.5t-32 13t-13 32t13 32.5t32 13.5q18 0 31.5 -13.5t13.5 -31.5zM63 646q0 -19 -13 -32.5t-32 -13.5t-32 13t-13 32t13 32.5t32 13.5q18 0 31.5 -13.5t13.5 -31.5zM162 0h-72v492h72v-492z" />
    <glyph glyph-name="afii10105" unicode="&#x458;" horiz-adv-x="253" 
d="M176 678q0 -21 -14.5 -35.5t-35.5 -14.5q-20 0 -34.5 14.5t-14.5 34.5t14.5 34.5t34.5 14.5t35 -14.5t15 -33.5zM162 -89q0 -62 -33 -97t-92 -35h-52v63h39q35 0 50.5 17t15.5 55v578h72v-581z" />
    <glyph glyph-name="afii10106" unicode="&#x459;" horiz-adv-x="817" 
d="M776 148q0 -67 -43 -107.5t-113 -40.5h-219v430h-176l-6 -228q-5 -202 -155 -202h-41v62h23q42 0 70.5 32.5t31.5 127.5l7 270h317v-195h148q71 0 113.5 -41t42.5 -108zM704 148q0 41 -23.5 63.5t-68.5 22.5h-140v-172h140q45 0 68.5 22.5t23.5 63.5z" />
    <glyph glyph-name="afii10107" unicode="&#x45a;" horiz-adv-x="816" 
d="M776 148q0 -67 -43 -107.5t-113 -40.5h-220v235h-238v-235h-71v492h71v-195h238v195h72v-195h148q71 0 113.5 -41t42.5 -108zM704 148q0 41 -23.5 63.5t-68.5 22.5h-140v-172h140q45 0 68.5 22.5t23.5 63.5z" />
    <glyph glyph-name="afii10108" unicode="&#x45b;" horiz-adv-x="562" 
d="M477 0h-72v178q0 63 -31 97t-89 34t-90.5 -34.5t-32.5 -96.5v-178h-71v442h-58v54h58v216h71v-216h248v-54h-248v-130q33 32 64 46.5t75 14.5q81 0 128.5 -49.5t47.5 -133.5v-190z" />
    <glyph glyph-name="afii10109" unicode="&#x45c;" horiz-adv-x="533" 
d="M375 747l-108 -153h-66l88 153h86zM507 0h-90l-161 238l-92 -104v-134h-72v492h72v-265l230 265h89l-178 -201z" />
    <glyph glyph-name="afii10110" unicode="&#x45e;" horiz-adv-x="447" 
d="M383 708q-24 -130 -160 -130q-134 0 -160 130h58q19 -73 103 -73t101 73h58zM436 492l-224 -611q-34 -92 -131 -92h-31v64h22q35 0 51.5 12t29.5 49l35 96l-177 482h78l135 -395l134 395h78z" />
    <glyph glyph-name="afii10193" unicode="&#x45f;" horiz-adv-x="563" 
d="M472 0h-156v-152h-70v152h-155v492h71v-430h238v430h72v-492z" />
    <glyph glyph-name="afii10050" unicode="&#x490;" horiz-adv-x="569" 
d="M538 644h-352v-644h-76v712h353v182h75v-250z" />
    <glyph glyph-name="afii10098" unicode="&#x491;" horiz-adv-x="417" 
d="M406 430h-240v-430h-72v492h242v152h70v-214z" />
    <glyph glyph-name="endash" unicode="&#x2013;" horiz-adv-x="500" 
d="M500 236h-500v67h500v-67z" />
    <glyph glyph-name="emdash" unicode="&#x2014;" horiz-adv-x="1000" 
d="M1000 236h-1000v67h1000v-67z" />
    <glyph glyph-name="quoteleft" unicode="&#x2018;" horiz-adv-x="263" 
d="M190 764l-39 -180h-88l62 180h65z" />
    <glyph glyph-name="quoteright" unicode="&#x2019;" horiz-adv-x="263" 
d="M190 764l-62 -180h-65l39 180h88z" />
    <glyph glyph-name="quotesinglbase" unicode="&#x201a;" horiz-adv-x="263" 
d="M190 94l-62 -180h-65l39 180h88z" />
    <glyph glyph-name="quotedblleft" unicode="&#x201c;" horiz-adv-x="434" 
d="M365 764l-39 -180h-88l62 180h65zM190 764l-39 -180h-88l62 180h65z" />
    <glyph glyph-name="quotedblright" unicode="&#x201d;" horiz-adv-x="434" 
d="M365 764l-62 -180h-65l39 180h88zM190 764l-62 -180h-65l39 180h88z" />
    <glyph glyph-name="quotedblbase" unicode="&#x201e;" horiz-adv-x="434" 
d="M365 94l-62 -180h-65l39 180h88zM190 94l-62 -180h-65l39 180h88z" />
    <glyph glyph-name="dagger" unicode="&#x2020;" horiz-adv-x="605" 
d="M531 445h-194v-445h-72v445h-191v64h191v203h72v-203h194v-64z" />
    <glyph glyph-name="daggerdbl" unicode="&#x2021;" horiz-adv-x="605" 
d="M531 -16h-194v-204h-72v204h-191v64h191v397h-191v64h191v203h72v-203h194v-64h-194v-397h194v-64z" />
    <glyph glyph-name="bullet" unicode="&#x2022;" horiz-adv-x="532" 
d="M429 337q0 -70 -47.5 -118t-115.5 -48t-115.5 47.5t-47.5 115.5t47.5 115.5t115.5 47.5q66 0 114.5 -47.5t48.5 -112.5z" />
    <glyph glyph-name="ellipsis" unicode="&#x2026;" horiz-adv-x="757" 
d="M677 55q0 -24 -17 -41t-40 -17t-40 17t-17 40t17 40t40 17t40 -17t17 -39zM435 55q0 -24 -17 -41t-40 -17t-40 17t-17 40t17 40t40 17t40 -17t17 -39zM193 55q0 -24 -17 -41t-40 -17t-40 17t-17 40t17 40t40 17t40 -17t17 -39z" />
    <glyph glyph-name="perthousand" unicode="&#x2030;" horiz-adv-x="1179" 
d="M1115 128q0 -60 -37.5 -97.5t-97.5 -37.5t-97.5 37.5t-37.5 97.5v105q0 60 37.5 97.5t97.5 37.5q59 0 97 -37.5t38 -97.5v-105zM769 128q0 -60 -37.5 -97.5t-97.5 -37.5t-97.5 37.5t-37.5 97.5v105q0 60 37.5 97.5t97.5 37.5q59 0 97 -37.5t38 -97.5v-105zM614 712
l-334 -712h-60l334 712h60zM335 479q0 -59 -38 -96.5t-97 -37.5q-60 0 -97.5 37.5t-37.5 96.5v105q0 60 37.5 97.5t97.5 37.5q59 0 97 -37.5t38 -97.5v-105zM1058 130v101q0 87 -78 87t-78 -87v-101q0 -87 78 -87t78 87zM712 130v101q0 87 -78 87t-78 -87v-101q0 -87 78 -87
t78 87zM278 481v101q0 87 -78 87t-78 -87v-101q0 -86 79 -86q77 0 77 86z" />
    <glyph glyph-name="guilsinglleft" unicode="&#x2039;" horiz-adv-x="328" 
d="M250 58l-210 210l210 210v-90l-120 -120l120 -121v-89z" />
    <glyph glyph-name="guilsinglright" unicode="&#x203a;" horiz-adv-x="328" 
d="M288 268l-210 -210v89l121 121l-121 120v90z" />
    <glyph glyph-name="afii61352" unicode="&#x2116;" horiz-adv-x="958" 
d="M888 255q0 -60 -37.5 -97.5t-96.5 -37.5q-61 0 -98.5 37.5t-37.5 97.5v105q0 60 37.5 97.5t98.5 37.5q59 0 96.5 -37.5t37.5 -97.5v-105zM893 0h-269v58h269v-58zM553 0h-68l-332 574v-574h-72v712h68l332 -572v572h72v-712zM828 257v100q0 84 -75 84q-74 0 -74 -84v-100
q0 -83 75 -83q74 0 74 83z" />
    <glyph glyph-name="trademark" unicode="&#x2122;" horiz-adv-x="839" 
d="M781 285h-57v308l-102 -202h-56l-102 202v-308h-58v427h58l130 -259l130 259h57v-427zM331 659h-119v-374h-58v374h-118v53h295v-53z" />
    <glyph glyph-name="radical" unicode="&#x221a;" horiz-adv-x="562" 
d="M532 644h-89l-211 -644h-61l-163 492h79l115 -356l184 576h146v-68z" />
    <glyph glyph-name="infinity" unicode="&#x221e;" horiz-adv-x="808" 
d="M740 267q0 -71 -44 -115t-115 -44q-56 0 -94 25.5t-83 78.5q-43 -51 -83 -78t-95 -27q-69 0 -114 45t-45 115t45 115t114 45q55 0 94.5 -26.5t83.5 -79.5q45 53 83.5 79.5t94.5 26.5q69 0 113.5 -45t44.5 -115zM671 266q0 41 -25 67t-65 26q-20 0 -38.5 -7.5t-37.5 -25
t-28.5 -28t-27.5 -32.5q18 -22 27.5 -32.5t28.5 -28t37.5 -25t38.5 -7.5q40 0 65 26t25 67zM358 266q-23 29 -36.5 44t-41 32.5t-53.5 17.5q-40 0 -65.5 -26.5t-25.5 -67.5t25.5 -67t65.5 -26q27 0 54.5 17.5t38.5 30t38 45.5z" />
    <glyph glyph-name="approxequal" unicode="&#x2248;" 
d="M482 366q-46 -45 -78 -59q-20 -9 -48 -9q-39 0 -109 32q-51 23 -80 23q-23 0 -38.5 -8.5t-43.5 -35.5l-44 44q47 46 79 60q18 9 47 9q35 0 108 -32l16 -7q35 -16 64 -16q23 0 38.5 8.5t43.5 35.5zM482 189q-46 -45 -78 -59q-20 -9 -48 -9q-39 0 -109 31l-16 7
q-38 17 -63 17q-22 0 -38 -8.5t-44 -36.5l-45 45q46 45 78 59q20 9 48 9q47 0 109 -31l16 -8q31 -16 63 -16q22 0 38 8.5t44 36.5z" />
    <glyph glyph-name="notequal" unicode="&#x2260;" 
d="M469 151h-270l-98 -108l-47 38l65 70h-67v66h121l96 103h-217v67h271l98 109l47 -39l-65 -70h66v-67h-120l-96 -103h216v-66z" />
    <glyph glyph-name="lessequal" unicode="&#x2264;" 
d="M483 127l-444 164v71l444 163v-73l-351 -126l351 -127v-72zM483 -5h-444v67h444v-67z" />
    <glyph glyph-name="greaterequal" unicode="&#x2265;" 
d="M483 291l-444 -164v72l351 127l-351 126v73l444 -163v-71zM483 -5h-444v67h444v-67z" />
    <glyph glyph-name="hyphenminus" horiz-adv-x="426" 
d="M350 236h-274v67h274v-67z" />
    <glyph glyph-name="periodcentered" horiz-adv-x="272" 
d="M193 268q0 -24 -17 -41t-40 -17t-40 17t-17 40t17 39.5t40 16.5t40 -16.5t17 -38.5z" />
    </font>
</defs>
</svg>
