<?xml version="1.0" standalone="no"?>
<!DOCTYPE svg PUBLIC "-//W3C//DTD SVG 1.1//EN" "http://www.w3.org/Graphics/SVG/1.1/DTD/svg11.dtd" >
<svg>
<metadata>
Created by FontForge 20090914 at Tue Jan 12 00:34:45 2016
 By www-data
Typeface and data copyright 1996 Microsoft Corporation. All Rights Reserved.
</metadata>
<defs>
<font id="GeorgiaBoldItalic" horiz-adv-x="1024" >
  <font-face 
    font-family="Georgia"
    font-weight="700"
    font-style="italic"
    font-stretch="normal"
    units-per-em="2048"
    panose-1="2 4 8 2 5 4 5 9 2 3"
    ascent="1638"
    descent="-410"
    x-height="986"
    cap-height="1419"
    bbox="-496 -444.002 2775 1878"
    underline-thickness="120"
    underline-position="-121"
    slope="-13"
    unicode-range="U+0020-U+F010"
  />
<missing-glyph 
d="M128 0v1878h768v-1878h-768zM256 128h512v1622h-512v-1622z" />
    <glyph glyph-name=".notdef" 
d="M128 0v1878h768v-1878h-768zM256 128h512v1622h-512v-1622z" />
    <glyph glyph-name="space" unicode=" " horiz-adv-x="520" 
 />
    <glyph glyph-name="exclam" unicode="!" horiz-adv-x="771" 
d="M578 845c-50.667 -113.333 -103.333 -240.998 -158 -382.998h-77c8 167.333 12 304.666 12 411.999l-1 227c0 73.333 4 127.666 12 162.999c12.667 56 40.5 100.5 83.5 133.5s93.5 49.5 151.5 49.5c43.333 0 80 -12.667 110 -38c31.333 -27.333 47 -62.333 47 -105
c0 -21.333 -4.33301 -47.333 -13 -78c-13.333 -44.667 -39.333 -108.667 -78 -192zM509.001 156.002c0 -51.333 -19.167 -95 -57.5 -131s-83.166 -54 -134.499 -54c-52 0 -97.167 18 -135.5 54s-57.5 79.667 -57.5 131s19.167 95.333 57.5 132s83.5 55 135.5 55
c51.333 0 96.166 -18.333 134.499 -55s57.5 -80.667 57.5 -132z" />
    <glyph glyph-name="quotedbl" unicode="&#x22;" horiz-adv-x="1044" 
d="M496 1043c-34.667 -66 -69.333 -139.333 -104 -220h-67c0 54.667 -1.66699 136.5 -5 245.5s-5 190.833 -5 245.5c0 60 18.5 110.833 55.5 152.5s84.833 62.5 143.5 62.5c39.333 0 72.333 -10.333 99 -31c29.333 -22.667 44 -53 44 -91c0 -20 -5.66699 -44.667 -17 -74
c-15.333 -40 -63.333 -136.667 -144 -290zM969.001 1043c-34.667 -66 -69.334 -139.332 -104.001 -219.999h-67c0 54.667 -1.66699 136.5 -5 245.5s-5 190.833 -5 245.5c0 60 18.5 110.833 55.5 152.5s84.833 62.5 143.5 62.5c39.333 0 72.333 -10.333 99 -31
c29.333 -22.667 44 -53 44 -91c0 -20 -5.33301 -44.667 -16 -74c-13.333 -34.667 -61.666 -131.334 -144.999 -290.001z" />
    <glyph glyph-name="numbersign" unicode="#" horiz-adv-x="1440" 
d="M1335 748h-269l-100 -257h273v-160h-335l-130 -331h-149l130 331h-230l-130 -331h-149l130 331h-207v160h269l101 257h-274v160h336l134 341h149l-134 -341h230l134 341h149l-134 -341h206v-160zM920 750h-233l-101 -261h232z" />
    <glyph glyph-name="dollar" unicode="$" horiz-adv-x="1312" 
d="M677 816l90 407c-79.333 -6.66699 -145 -25.667 -197 -57c-65.333 -40 -98 -95.667 -98 -167c0 -106 68.333 -167 205 -183zM936 312c0 117.333 -75.667 183.667 -227 199l-98 -446c216.667 20.667 325 103 325 247zM512 65.001l99.999 455.996
c-110 14 -199.333 44.667 -268 92c-86 59.333 -129 138.666 -129 237.999c0 107.333 45.333 204 136 290c103.333 98 248 153 434 165l49 218h99l-49 -218c107.333 -5.33301 195 -26 263 -62c90 -47.333 135 -118.666 135 -213.999c0 -47.333 -14 -86.5 -42 -117.5
s-65.333 -46.5 -112 -46.5c-48 0 -87 13.833 -117 41.5s-45 65.167 -45 112.5c0 26 13.667 81.667 41 167c-39.333 20.667 -86.333 32.667 -141 36l-92 -417c278.667 -42.667 418 -158.667 418 -348c0 -108 -37.333 -201.333 -112 -280
c-65.333 -69.333 -152.666 -120.666 -261.999 -153.999c-72.667 -22.667 -147.667 -36.667 -225 -42l-62 -281h-99l62 281c-110 2.66699 -206.667 27.334 -290 74.001c-102.667 58 -154 137.333 -154 238c0 50.667 14.167 91.334 42.5 122.001s67.5 46 117.5 46
c50.667 0 91.667 -14 123 -42s47 -67 47 -117c0 -41.333 -14.667 -100.666 -44 -177.999c63.333 -40 122 -60 176 -60z" />
    <glyph glyph-name="percent" unicode="%" horiz-adv-x="1801" 
d="M985 1145c0 -123.333 -45.668 -227 -137.001 -311c-89.333 -81.333 -196.333 -122 -321 -122c-98 0 -178.333 27.667 -241 83c-65.333 58 -98 135.333 -98 232c0 123.333 46 227 138 311c88.667 81.333 195.334 122 320.001 122c98 0 178.333 -27.667 241 -83
c65.333 -58 98 -135.333 98 -232zM729.999 1219c0 113.333 -32.333 170 -97 170c-69.333 0 -121 -60 -155 -180c-23.333 -82 -35 -169.333 -35 -262c0 -109.333 33 -164 99 -164c68.667 0 119.667 59.333 153 178c23.333 81.333 35 167.333 35 258zM1692 398
c0 -123.333 -45.668 -227 -137.001 -311c-89.333 -81.333 -196.333 -122 -321 -122c-98 0 -178.333 27.667 -241 83c-65.333 58 -98 135.333 -98 232c0 123.333 46 227 138 311c88.667 81.333 195.334 122 320.001 122c98 0 178.333 -27.667 241 -83
c65.333 -58 98 -135.333 98 -232zM1437 472c0 113.333 -32.333 170 -97 170c-69.333 0 -121 -60 -155 -180c-23.333 -82 -35 -169.333 -35 -262c0 -109.333 33 -164 99 -164c68.667 0 119.667 59.333 153 178c23.333 81.333 35 167.333 35 258zM1745 1428l-1453 -1428h-155
l1450 1428h158z" />
    <glyph glyph-name="ampersand" unicode="&#x26;" horiz-adv-x="1637" 
d="M1528 0h-586.001l-94 148c-81.333 -62.667 -153 -107.334 -215 -134.001c-76 -32.667 -158.333 -49 -247 -49c-104 0 -190 24.667 -258 74c-76 55.333 -114 133 -114 233c0 112 41 210.333 123 295c68.667 71.333 182.667 138.333 342 201c-64 110 -96 203 -96 279
c0 123.333 49.667 224 149 302c91.333 72 200.333 108 327 108c85.333 0 156.333 -16.667 213 -50c69.333 -41.333 104 -101.666 104 -180.999c0 -148.667 -116.667 -282 -350 -400c48.667 -87.333 91.667 -160.333 129 -219l113 -179c38.667 41.333 79.667 93 123 155
c56.667 80.667 85 137.667 85 171c0 27.333 -52.333 52 -157 74l16 71h559l-16 -71c-103.333 -10 -181 -36.333 -233 -79c-21.333 -17.333 -66.666 -70 -135.999 -158c-42 -53.333 -108 -130.666 -198 -231.999c80 -122.667 143.833 -198.834 191.5 -228.501
s128.5 -48.167 242.5 -55.5zM1015 1218c0 95.333 -44.667 143 -134 143c-54 0 -98.333 -18.167 -133 -54.5s-52 -81.5 -52 -135.5c0 -60 32 -152.667 96 -278c148.667 86.667 223 195 223 325zM808.999 213l-155.999 255.001l-141 235
c-108.667 -86.667 -163 -192.334 -163 -317.001c0 -73.333 22.667 -132.5 68 -177.5s104.666 -67.5 177.999 -67.5c72.667 0 144 24 214 72z" />
    <glyph glyph-name="quotesingle" unicode="'" horiz-adv-x="551" 
d="M486 1043c-34.667 -66 -69.334 -139.332 -104.001 -219.999h-67c0 54.667 -1.66699 136.5 -5 245.5s-5 190.833 -5 245.5c0 60 18.5 110.833 55.5 152.5s84.833 62.5 143.5 62.5c39.333 0 72.333 -10.333 99 -31c29.333 -22.667 44 -53 44 -91
c0 -20 -5.33301 -44.667 -16 -74c-13.333 -34.667 -61.666 -131.334 -144.999 -290.001z" />
    <glyph glyph-name="parenleft" unicode="(" horiz-adv-x="915" 
d="M667 -328c-164 22 -297.333 86.334 -400 193.001c-116.667 121.333 -175 281.666 -175 480.999c0 335.333 108 616.666 324 843.999c185.333 195.333 402.333 309.333 651 342l-20 -90c-178 -31.333 -329.333 -170.666 -454 -417.999
c-118.667 -235.333 -178 -498.333 -178 -789c0 -282 90.667 -440.333 272 -475z" />
    <glyph glyph-name="parenright" unicode=")" horiz-adv-x="915" 
d="M275 1532c164 -22 297.333 -86.3359 400 -193.003c116.667 -121.333 175 -281.666 175 -480.999c0 -337.333 -108 -618.666 -324 -843.999c-85.333 -89.333 -184.666 -164 -297.999 -224c-117.333 -63.333 -235 -102.666 -353 -117.999l20 90
c177.333 30.667 328.666 170 453.999 418c118.667 234.667 178 497.667 178 789c0 282 -90.667 440.333 -272 475z" />
    <glyph glyph-name="asterisk" unicode="*" horiz-adv-x="987" 
d="M1037 1083c0 -57.333 -30 -86.001 -90 -86.001c-18.667 0 -61 8 -127 24c-73.333 18 -121 28.333 -143 31l115 -127c55.333 -61.333 83 -104.666 83 -129.999c0 -22 -9.5 -41.167 -28.5 -57.5s-39.5 -24.5 -61.5 -24.5c-30 0 -54.667 16 -74 48
c-9.33301 16 -23.666 56.667 -42.999 122c-22 74 -36.667 120 -44 138c-21.333 -75.333 -50.333 -162 -87 -260c-21.333 -32 -46 -48 -74 -48c-23.333 0 -44.166 8 -62.499 24s-27.5 35.333 -27.5 58c0 25.333 27.667 68.666 83 129.999l115 127
c-22.667 -2.66699 -70.334 -13 -143.001 -31c-64.667 -16 -107 -24 -127 -24c-60 0 -90 28.667 -90 86s30 86 90 86c31.333 0 76 -7.66699 134 -23c67.333 -17.333 112.666 -27.333 135.999 -30l-115 126c-55.333 62.667 -83 106.334 -83 131.001c0 22 9.5 41.167 28.5 57.5
s39.5 24.5 61.5 24.5c30.667 0 55.334 -15.667 74.001 -47c10 -16.667 24.667 -57.667 44 -123c21.333 -74.667 35.666 -120.667 42.999 -138c20 71.333 49 158.333 87 261c18.667 31.333 43.334 47 74.001 47c23.333 0 44.166 -8 62.499 -24s27.5 -35.333 27.5 -58
c0 -25.333 -27.333 -69.333 -82 -132l-115 -125c19.333 2.66699 67 12.667 143 30c67.333 15.333 109.333 23 126 23c60 0 90 -28.667 90 -86z" />
    <glyph glyph-name="plus" unicode="+" horiz-adv-x="1440" 
d="M1275 493h-473v-473h-165v473h-473v163h473v473h165v-473h473v-163z" />
    <glyph glyph-name="comma" unicode="," horiz-adv-x="672" 
d="M511 132c0 -110 -47.667 -215.998 -143 -317.998c-81.333 -86.667 -179 -154.334 -293 -203.001l-32 71c86 42.667 150.667 84.667 194 126c59.333 57.333 98.333 121.333 117 192h-59c-120.667 0 -181 46.333 -181 139c0 53.333 21 100.166 63 140.499s90 60.5 144 60.5
c126.667 0 190 -69.333 190 -208z" />
    <glyph glyph-name="hyphen" unicode="-" horiz-adv-x="776" 
d="M671 435h-606l50 219h606z" />
    <glyph glyph-name="hyphen" unicode="&#x2010;" horiz-adv-x="776" 
d="M671 435h-606l50 219h606z" />
    <glyph glyph-name="period" unicode="." horiz-adv-x="672" 
d="M504 166c0 -53.333 -19.5 -99.167 -58.5 -137.5s-85.167 -57.5 -138.5 -57.5c-54 0 -100.5 19 -139.5 57s-58.5 84 -58.5 138s19.5 100.333 58.5 139s85.5 58 139.5 58c53.333 0 99.5 -19.5 138.5 -58.5s58.5 -85.167 58.5 -138.5z" />
    <glyph glyph-name="slash" unicode="/" horiz-adv-x="966" 
d="M1068 1523l-1034 -1947h-183l1032 1947h185z" />
    <glyph glyph-name="zero" unicode="0" horiz-adv-x="1436" 
d="M1349 835c20.667 -52.667 30.998 -109 30.998 -169c0 -202 -75 -369.667 -225 -503c-147.333 -131.333 -325.666 -197 -534.999 -197c-165.333 0 -295 43.333 -389 130c-86.667 80 -130 183.333 -130 310c0 188.667 67.667 350.667 203 486
c144.667 144.667 330.334 217 557.001 217c90 0 168 -12.333 234 -37c126 -48.667 210.667 -127.667 254 -237zM992.998 518c17.333 83.333 26.002 170.333 26.002 261c0 74 -13.667 132.333 -41 175c-30.667 48 -75.334 72 -134.001 72c-110.667 0 -205 -83 -283 -249
c-66 -141.333 -99 -300.333 -99 -477c0 -75.333 13.333 -135 40 -179c29.333 -48.667 74.666 -73 135.999 -73c56 0 108 21.667 156 65c92.667 84 159 219 199 405z" />
    <glyph glyph-name="one" unicode="1" horiz-adv-x="1003" 
d="M822 0l-824.998 -0.000976562l16 72c90 6 153.667 14.667 191 26c46 14 75 47.333 87 100l149 642h-253l21 91h28c104 0 199 21.667 285 65c64.667 32.667 115.667 69.667 153 111h176c-32.667 -118 -59.334 -220.667 -80.001 -308l-133 -572
c-5.33301 -22.667 -8 -40.667 -8 -54c0 -30 13.333 -52.333 40 -67c31.333 -17.333 87.666 -28.666 168.999 -33.999z" />
    <glyph glyph-name="two" unicode="2" horiz-adv-x="1283" 
d="M510 1083c65.333 17.333 137.001 26.001 215.001 26.001c132 0 240.333 -19.333 325 -58c115.333 -52.667 173 -137.334 173 -254.001c0 -122 -57.667 -213.667 -173 -275c-86 -46 -239.333 -92 -460 -138c-113.333 -23.333 -214.333 -56 -303 -98l-4 -16h847l-62 -270
h-1084l45 200c42.667 33.333 100.334 71 173.001 113c61.333 35.333 145 76.666 251 123.999c84.667 37.333 139 62.333 163 75c65.333 34 114.333 67.667 147 101c56 57.333 84 129.333 84 216c0 124 -60.333 186 -181 186c-50.667 0 -104.334 -11.333 -161.001 -34
c29.333 -82 44 -143 44 -183c0 -50 -16.833 -89.833 -50.5 -119.5s-75.834 -44.5 -126.501 -44.5c-48.667 0 -88.167 15.833 -118.5 47.5s-45.5 71.834 -45.5 120.501c0 36.667 12 73.667 36 111c50 79.333 138.667 136 266 170z" />
    <glyph glyph-name="three" unicode="3" horiz-adv-x="1279" 
d="M768 1109c168 0 291.665 -34.002 370.998 -102.002c59.333 -51.333 89 -115.666 89 -192.999c0 -80.667 -32.667 -154.334 -98 -221.001c-78.667 -80 -192 -134.667 -340 -164l-4 -16c92.667 -2.66699 170.334 -25 233.001 -67c74 -49.333 111 -122 111 -218
c0 -147.333 -71.667 -267.666 -215 -360.999c-139.333 -90.667 -307 -136 -503 -136c-110.667 0 -208.334 21.667 -293.001 65c-106 54.667 -159 132.667 -159 234c0 49.333 15.5 89.833 46.5 121.5s71.167 47.5 120.5 47.5c50.667 0 92.667 -14.333 126 -43s50 -68 50 -118
c0 -46 -15 -106.667 -45 -182c38.667 -22 82.334 -33 131.001 -33c96.667 0 178.334 36.333 245.001 109c76 82.667 114 194 114 334c0 121.333 -66.667 182 -200 182h-127l28 117h90c104.667 0 185.334 37.333 242.001 112c51.333 67.333 77 155 77 263
c0 116.667 -58.333 175 -175 175c-62 0 -120 -14.333 -174 -43c27.333 -84.667 41 -144 41 -178c0 -50 -16.167 -89.167 -48.5 -117.5s-73.833 -42.5 -124.5 -42.5c-48.667 0 -88.167 15.833 -118.5 47.5s-45.5 71.834 -45.5 120.501c0 100 71.667 179.333 215 238
c111.333 46 224.666 69 339.999 69z" />
    <glyph glyph-name="four" unicode="4" horiz-adv-x="1330" 
d="M1197 10h-222l-88 -379h-329l88 379h-668l44 194l918 899h287l-205 -886h222zM693 217l150 643l-656 -643h506z" />
    <glyph glyph-name="five" unicode="5" horiz-adv-x="1227" 
d="M431 -369c-106.667 0 -205.666 22 -296.999 66c-114.667 56 -172 132 -172 228c0 49.333 15.5 89.833 46.5 121.5s71.167 47.5 120.5 47.5c50.667 0 92 -14 124 -42c34.667 -29.333 52 -68.666 52 -117.999c0 -44 -15 -108.333 -45 -193c40.667 -12 86 -18 136 -18
c79.333 0 152.666 42 219.999 126c78 97.333 117 214.333 117 351c0 73.333 -17.667 131.666 -53 174.999c-38.667 47.333 -93.667 71 -165 71c-56.667 0 -112.334 -15.667 -167.001 -47c-45.333 -26 -86 -57.667 -122 -95l-74 27l256 746h845l-63 -275h-764l-109 -337
c114.667 68 227.334 102 338.001 102c120.667 0 221 -26.333 301 -79c100 -66 150 -160.667 150 -284c0 -170.667 -71.333 -311 -214 -421c-131.333 -101.333 -285 -152 -461 -152z" />
    <glyph glyph-name="six" unicode="6" horiz-adv-x="1327" 
d="M595 -35c-146 0 -263.332 40.665 -351.999 121.998c-92.667 84 -139 198 -139 342c0 290 112.333 530.333 337 721c201.333 170.667 453 273.334 755 308.001l5 -99l-109 -18c-226 -59.333 -387.667 -185.333 -485 -378c-29.333 -57.333 -55.333 -117.666 -78 -180.999
c105.333 88 232.666 132 381.999 132c103.333 0 188 -34 254 -102s99 -154 99 -258c0 -172 -69.667 -315 -209 -429c-130.667 -106.667 -284 -160 -460 -160zM892.001 549.998c0 60 -12.999 111 -38.999 153c-30.667 49.333 -74.334 74 -131.001 74
c-82.667 0 -157 -37.333 -223 -112c-28.667 -126.667 -43 -239 -43 -337c0 -68.667 10 -127.667 30 -177c27.333 -68.667 70.333 -103 129 -103c92 0 164.333 64.333 217 193c40 98.667 60 201.667 60 309z" />
    <glyph glyph-name="seven" unicode="7" horiz-adv-x="1160" 
d="M1259 948l-1022 -1317h-170l947 1177h-454c-120.667 0 -197.334 -7 -230.001 -21c-43.333 -18.667 -89 -86.334 -137 -203.001h-73l114 493h1055z" />
    <glyph glyph-name="eight" unicode="8" horiz-adv-x="1385" 
d="M1363 1156c0 -173.333 -123.334 -295.332 -370.001 -365.999c203.333 -78 305 -190.667 305 -338c0 -160.667 -80.667 -286.334 -242 -377.001c-133.333 -74.667 -286.666 -112 -459.999 -112c-128.667 0 -239 23 -331 69c-118 58.667 -177 146.334 -177 263.001
c0 200.667 136.333 332 409 394c-152.667 74 -229 183.333 -229 328c0 126 62.667 232 188 318c121.333 83.333 270.666 125 447.999 125c114.667 0 214.334 -21.667 299.001 -65c106.667 -54.667 160 -134.334 160 -239.001zM1032 1174c0 57.333 -12.667 104 -38 140
c-29.333 41.333 -71.333 62 -126 62c-70.667 0 -130.167 -26.333 -178.5 -79s-72.5 -114.667 -72.5 -186c0 -62.667 29.667 -115.667 89 -159c12 -8.66699 85.667 -50.667 221 -126c70 109.333 105 225.333 105 348zM944.999 338.001c0 66.667 -36.999 124 -110.999 172
c-33.333 21.333 -78.333 46 -135 74l-137 69c-41.333 -41.333 -75 -97.333 -101 -168c-24.667 -66.667 -37 -131 -37 -193c0 -72 18 -129.667 54 -173c39.333 -47.333 94 -71 164 -71c85.333 0 157.166 27 215.499 81s87.5 123.667 87.5 209z" />
    <glyph glyph-name="nine" unicode="9" horiz-adv-x="1327" 
d="M1274 641c0 -290.667 -113 -528.668 -339 -714.001c-197.333 -161.333 -449.333 -262 -756 -302l-6 99l110 18c160 42.667 287 115.334 381 218.001c81.333 88.667 144.333 199.334 189 332.001c-116.667 -88 -244.667 -132 -384 -132c-104 0 -189.667 36.667 -257 110
c-65.333 71.333 -98 159.333 -98 264c0 169.333 70.333 309.666 211 420.999c130 102.667 282 154 456 154c146.667 0 264.667 -41 354 -123c92.667 -84.667 139 -199.667 139 -345zM923 745.999c0 66.667 -9.66699 125 -29 175c-27.333 69.333 -69.333 104 -126 104
c-93.333 0 -166.333 -62.333 -219 -187c-41.333 -96 -62 -197.667 -62 -305c0 -61.333 12 -113.666 36 -156.999c29.333 -54 72.333 -81 129 -81c88.667 0 164.667 37 228 111c28.667 131.333 43 244.666 43 339.999z" />
    <glyph glyph-name="colon" unicode=":" horiz-adv-x="752" 
d="M674 799c0 -53.333 -19.5 -99.167 -58.5 -137.5s-85.167 -57.5 -138.5 -57.5c-54 0 -100.5 19 -139.5 57s-58.5 84 -58.5 138s19.5 100.333 58.5 139s85.5 58 139.5 58c53.333 0 99.5 -19.5 138.5 -58.5s58.5 -85.167 58.5 -138.5zM534 165.999
c0 -53.333 -19.5 -99.167 -58.5 -137.5s-85.167 -57.5 -138.5 -57.5c-54 0 -100.5 19 -139.5 57s-58.5 84 -58.5 138s19.5 100.333 58.5 139s85.5 58 139.5 58c53.333 0 99.5 -19.5 138.5 -58.5s58.5 -85.167 58.5 -138.5z" />
    <glyph glyph-name="semicolon" unicode=";" horiz-adv-x="752" 
d="M541 132c0 -110 -47.667 -215.998 -143 -317.998c-81.333 -86.667 -179 -154.334 -293 -203.001l-32 71c86 42.667 150.667 84.667 194 126c59.333 57.333 98.333 121.333 117 192h-59c-120.667 0 -181 46.333 -181 139c0 53.333 21 100.166 63 140.499s90 60.5 144 60.5
c126.667 0 190 -69.333 190 -208zM674 799.002c0 -53.333 -19.5 -99.167 -58.5 -137.5s-85.167 -57.5 -138.5 -57.5c-54 0 -100.5 19 -139.5 57s-58.5 84 -58.5 138s19.5 100.333 58.5 139s85.5 58 139.5 58c53.333 0 99.5 -19.5 138.5 -58.5s58.5 -85.167 58.5 -138.5z" />
    <glyph glyph-name="less" unicode="&#x3c;" horiz-adv-x="1440" 
d="M1231 6l-1000 500v139l1000 500v-188l-786 -382l786 -381v-188z" />
    <glyph glyph-name="equal" unicode="=" horiz-adv-x="1440" 
d="M1277 700h-1070v163h1070v-163zM1277 286h-1070v163h1070v-163z" />
    <glyph glyph-name="greater" unicode="&#x3e;" horiz-adv-x="1440" 
d="M1253 506l-1000 -500v188l786 381l-786 382v188l1000 -500v-139z" />
    <glyph glyph-name="question" unicode="?" horiz-adv-x="1123" 
d="M597 156c0 -51.333 -19.167 -95 -57.5 -131s-83.166 -54 -134.499 -54c-52 0 -97.167 18 -135.5 54s-57.5 79.667 -57.5 131s19.167 95.333 57.5 132s83.5 55 135.5 55c51.333 0 96.166 -18.333 134.499 -55s57.5 -80.667 57.5 -132zM720 1452
c118 0 217.334 -29.332 298.001 -87.999c89.333 -66 134 -156 134 -270c0 -162.667 -66.333 -291.334 -199 -386.001c-112.667 -81.333 -255.667 -128 -429 -140l-29 -136h-86l77 389c114 8.66699 204.667 39 272 91c78 59.333 117 143.333 117 252
c0 135.333 -65 203 -195 203c-48 0 -95.333 -14.333 -142 -43c20.667 -66 31 -118.667 31 -158c0 -49.333 -16.667 -88 -50 -116c-30.667 -25.333 -71.334 -38 -122.001 -38c-46.667 0 -85 13.833 -115 41.5s-45 64.5 -45 110.5c0 95.333 60 170 180 224
c94 42.667 195 64 303 64z" />
    <glyph glyph-name="at" unicode="@" horiz-adv-x="1980" 
d="M1807 963c28.667 -79.333 43.0039 -161.332 43.0039 -245.999c0 -157.333 -42.667 -294 -128 -410c-94 -128 -217 -192 -369 -192c-150.667 0 -241.334 44.333 -272.001 133h-5c-20.667 -23.333 -55 -54.333 -103 -93c-40.667 -23.333 -85.667 -35 -135 -35
c-82.667 0 -147.334 26.667 -194.001 80c-44 50.667 -66 118 -66 202c0 134 50.333 261.667 151 383c102.667 124 223.667 186 363 186c82 0 134.333 -33 157 -99h2l32 87h257l-201 -555c-14 -38.667 -21 -75.667 -21 -111c0 -58.667 25 -88 75 -88
c120.667 0 212 60.333 274 181c48.667 95.333 73 209.333 73 342c0 160 -51.667 289.667 -155 389c-110 106 -262.667 159 -458 159c-198.667 0 -371.667 -70.333 -519 -211c-158.667 -151.333 -238 -343 -238 -575c0 -228.667 65 -407.334 195 -536.001
c123.333 -122 286.666 -183 489.999 -183c214 0 393.667 56.667 539 170l39 -62c-168.667 -134.667 -363.667 -202 -585 -202c-231.333 0 -430 66.667 -596 200c-182.667 146.667 -274 346.667 -274 600c0 240.667 87 448.667 261 624c182.667 184 415 276 697 276
c125.333 0 232.666 -18.333 321.999 -55c172 -72 288.333 -191.667 349 -359zM1209 760.001c-1.33301 83.333 -36.667 124.999 -106 124.999c-64.667 0 -124.667 -54.333 -180 -163c-52.667 -103.333 -79 -218.666 -79 -345.999c0 -93.333 27.333 -140 82 -140
c46.667 0 90 27.667 130 83z" />
    <glyph glyph-name="A" unicode="A" horiz-adv-x="1553" 
d="M892 571l-87 517l-324 -517h411zM732 0l17 73c145.333 11.333 218 32.666 218 63.999c0 14.667 -2.33301 35 -7 61l-50 279h-489c-42 -65.333 -82.667 -132.333 -122 -201c-34 -60 -51 -101.667 -51 -125c0 -40 63.667 -66 191 -78l-17 -73h-596l17 73
c63.333 4.66699 112.333 16 147 34c56.667 30 106 77.333 148 142l767 1190h198l128 -741c28.667 -168.667 58 -332 88 -490c8 -43.333 30 -77 66 -101c28 -19.333 69 -30.666 123 -33.999l-17 -73h-759z" />
    <glyph glyph-name="B" unicode="B" horiz-adv-x="1555" 
d="M1131 1142c0 127.333 -75.667 190.999 -227 190.999c-13.333 0 -29 -0.333008 -47 -1l-42 -3l-124 -534h67c110 0 199 30 267 90c70.667 62.667 106 148.334 106 257.001zM1053 468.999c0 158.667 -97.667 238 -293 238c-30.667 0 -60.667 -1.33301 -90 -4l-122 -528
c0.666992 -29.333 24 -52.333 70 -69c34.667 -13.333 69.667 -20 105 -20c99.333 0 180.333 40 243 120c58 73.333 87 161 87 263zM1026 1419c332 0 498 -85.998 498 -257.998c0 -156 -95 -269.667 -285 -341c-55.333 -20.667 -112.333 -37 -171 -49l-4 -19
c106 -10.667 193.667 -39.667 263 -87c79.333 -54 119 -127 119 -219c0 -297.333 -241.667 -446 -725 -446h-776l17 73c62 2.66699 111.333 10 148 22c46.667 15.333 76 48.666 88 99.999l229 992c6 26 9 44.667 9 56c0 51.333 -60.333 85.666 -181 102.999l17 73h754z" />
    <glyph glyph-name="C" unicode="C" horiz-adv-x="1465" 
d="M721 -38c-187.333 0 -339.334 52.333 -456.001 157c-118.667 106.667 -178 251 -178 433c0 244.667 86 456 258 634c174.667 180.667 391.667 271 651 271c66.667 0 137.667 -7.66699 213 -23c86.667 -17.333 153.334 -40.666 200.001 -69.999l75 55h87l-111 -518h-88
c-11.333 130.667 -44 236 -98 316c-66.667 98.667 -160.334 148 -281.001 148c-159.333 0 -288.666 -93.667 -387.999 -281c-84.667 -160 -127 -348.333 -127 -565c0 -122.667 28.333 -221.334 85 -296.001c63.333 -84 154 -126 272 -126c178 0 344.667 103.667 500 311
l77 -52c-77.333 -120 -168 -212.333 -272 -277c-125.333 -78 -265 -117 -419 -117z" />
    <glyph glyph-name="D" unicode="D" horiz-adv-x="1708" 
d="M1622 1124c42 -74.667 63.001 -162.668 63.001 -264.001c0 -257.333 -95.667 -465.666 -287 -624.999c-188.667 -156.667 -426.334 -235 -713.001 -235h-740l17 73c66.667 2.66699 116 9.33398 148 20.001c46.667 15.333 76 49.333 88 102l229 992c6 26 9 44.667 9 56
c0 51.333 -60.333 85.666 -181 102.999l17 73h727c74.667 0 151.667 -8.66699 231 -26c183.333 -41.333 314 -131 392 -269zM1257 612.999c22.667 94.667 33.999 193.666 33.999 296.999c0 126 -26.667 225.667 -80 299c-60.667 82.667 -151.667 124 -273 124
c-23.333 0 -46.333 -0.333008 -69 -1l-55 -3l-245 -1065c-6.66699 -28.667 -10 -51 -10 -67c0 -74 59 -111 177 -111c90.667 0 171.334 24 242.001 72c136 92.667 229 244.334 279 455.001z" />
    <glyph glyph-name="E" unicode="E" horiz-adv-x="1477" 
d="M1520 1419l-83 -362h-76c-8 54.667 -27 107.667 -57 159c-36.667 61.333 -77.667 97.333 -123 108c-29.333 6.66699 -85.666 10 -168.999 10h-196l-128 -555h136c80 0 145.667 21 197 63c47.333 38.667 87 100 119 184h76l-137 -592h-76v37
c0 74.667 -10.667 127.667 -32 159c-28.667 42 -84.334 63 -167.001 63h-136l-91 -395c-12.667 -54.667 -19 -93 -19 -115c0 -47.333 22.667 -77.333 68 -90c18.667 -4.66699 61.667 -7 129 -7c164.667 0 267.667 17 309 51c37.333 30.667 83.333 78.667 138 144
c52 62 92 115.667 120 161h73l-129 -442h-1321l17 73c66.667 2.66699 116 9.33398 148 20.001c46.667 15.333 76 49.333 88 102l229 992c6 26 9 44.667 9 56c0 51.333 -60.333 85.666 -181 102.999l17 73h1248z" />
    <glyph glyph-name="F" unicode="F" horiz-adv-x="1375" 
d="M1548 1419l-87.999 -378.999h-77c-6.66699 54.667 -25 111 -55 169c-36.667 70.667 -77.334 109 -122.001 115c-49.333 6.66699 -105.666 10 -168.999 10h-221l-131 -565h141c78 0 143.333 21.5 196 64.5s93 104.5 121 184.5h76l-138 -597h-75v31
c0 77.333 -11 132 -33 164c-30.667 44.667 -86 67 -166 67h-141l-106 -457c-6 -26 -9 -44.333 -9 -55c0 -37.333 22 -63.666 66 -78.999c19.333 -6.66699 56.666 -13 111.999 -19l-17 -73h-767l17 73c62 2.66699 111.333 10 148 22c46.667 15.333 76 48.666 88 99.999
l229 992c6 26 9 44.667 9 56c0 51.333 -60.333 85.666 -181 102.999l17 73h1276z" />
    <glyph glyph-name="G" unicode="G" horiz-adv-x="1653" 
d="M725 -39c-186 0 -337.333 50.668 -454 152.001c-122.667 106.667 -184 248.667 -184 426c0 264 89 483.667 267 659c175.333 172.667 398.333 259 669 259c170.667 0 310.667 -31 420 -93l74 55h87l-110 -518h-88c-29.333 309.333 -158 464 -386 464
c-160.667 0 -293 -91 -397 -273c-95.333 -166 -143 -367.333 -143 -604c0 -119.333 21 -216.333 63 -291c52 -93.333 133 -140 243 -140c92 0 174.667 31 248 93l63 271c6 26 9 45.333 9 58c0 49.333 -66.667 83.666 -200 102.999l17 73h768l-17 -73
c-46 -2.66699 -92 -11 -138 -25s-75.333 -47.667 -88 -101l-40 -173c-8.66699 -37.333 -18.667 -89.333 -30 -156c-83.333 -48 -189 -88 -317 -120c-124 -30.667 -236 -46 -336 -46z" />
    <glyph glyph-name="H" unicode="H" horiz-adv-x="1870" 
d="M1994 1419l-17 -73.0029c-57.333 -4 -107 -12.333 -149 -25c-46 -14 -75.333 -48 -88 -102l-229 -993c-6 -26 -9 -44.333 -9 -55c0 -37.333 22.667 -63.666 68 -78.999c20.667 -7.33301 58.667 -13.666 114 -18.999l-17 -73h-767l17 73c36.667 2 84.334 8 143.001 18
c48 17.333 77.667 51.333 89 102l113 497h-596l-106 -464c-6 -26 -9 -44.333 -9 -55c0 -37.333 22 -63.666 66 -78.999c19.333 -6.66699 56.666 -13 111.999 -19l-17 -73h-767l17 73c66.667 2.66699 116 9.33398 148 20.001c46.667 15.333 76 49.333 88 102l229 992
c6 26 9 44.667 9 56c0 51.333 -60.333 85.666 -181 102.999l17 73h767l-17 -73c-52 -3.33301 -100.667 -11.833 -146 -25.5s-74.333 -47.5 -87 -101.5l-99 -431h596l92 399c6 26 9 44.667 9 56c0 48.667 -59 83 -177 103l17 73h767z" />
    <glyph glyph-name="I" unicode="I" horiz-adv-x="923" 
d="M-61 0l17 73c69.333 2.66699 121.333 9.66699 156 21c46.667 15.333 76 49 88 101l229 992c6 26 9 44.667 9 56c0 50 -63 84.333 -189 103l17 73h787l-17 -73c-65.333 -4 -117.666 -12.333 -156.999 -25c-46.667 -14.667 -76 -48.667 -88 -102l-229 -993
c-6 -26 -9 -44.333 -9 -55c0 -37.333 24 -64 72 -80c21.333 -6.66699 60.666 -12.667 117.999 -18l-17 -73h-787z" />
    <glyph glyph-name="J" unicode="J" horiz-adv-x="1219" 
d="M947 432c-34 -147.333 -109.665 -263.999 -226.998 -349.999c-109.333 -80 -228 -120 -356 -120c-116 0 -210.667 25.667 -284 77c-84.667 59.333 -127 144.333 -127 255c0 63.333 18.167 115.833 54.5 157.5s85.5 62.5 147.5 62.5c55.333 0 100.333 -15.833 135 -47.5
s52 -74.834 52 -129.501c0 -54 -28.667 -107.667 -86 -161l-62 -58v-13c12 -32.667 45.333 -49 100 -49c140 0 236.667 115.667 290 347l181 784c6 26 9 44.667 9 56c0 50.667 -61 85 -183 103l17 73h766l-17 -73c-48.667 -3.33301 -95.834 -11.833 -141.501 -25.5
s-74.834 -47.5 -87.501 -101.5z" />
    <glyph glyph-name="K" unicode="K" horiz-adv-x="1673" 
d="M560 226c-6 -26.667 -8.99902 -45 -8.99902 -55c0 -37.333 22 -63.666 66 -78.999c19.333 -6.66699 56.666 -13 111.999 -19l-17 -73h-767l17 73c66.667 2.66699 116 9.33398 148 20.001c46.667 15.333 76 49.333 88 102l229 992c6 26 9 44.667 9 56
c0 51.333 -60.333 85.666 -181 102.999l17 73h767l-17 -73c-52 -3.33301 -100.667 -11.833 -146 -25.5s-74.333 -47.5 -87 -101.5l-111 -483h42c192 144.667 337.667 262 437 352c129.333 117.333 194 191 194 221c0 18.667 -46 31 -138 37l17 73h617l-17 -73
c-136 -14.667 -259 -63.334 -369 -146.001c-12.667 -9.33301 -162 -131.333 -448 -366l364 -593c42 -68.667 90.667 -116.667 146 -144c28.667 -14 64 -22 106 -24l-17 -73h-532c-66.667 152 -186.667 370.333 -360 655h-61z" />
    <glyph glyph-name="L" unicode="L" horiz-adv-x="1404" 
d="M1385 455l-132.998 -454.997h-1307l17 73c61.333 2.66699 110.666 10 147.999 22c46.667 15.333 76 48.666 88 99.999l229 992c6 26 9 44.667 9 56c0 51.333 -60.333 85.666 -181 102.999l17 73h780l-17 -73c-64.667 -4 -117.334 -12.333 -158.001 -25
c-46 -14 -75.333 -48 -88 -102l-217 -943c-10 -43.333 -15 -76.333 -15 -99c0 -46 26.667 -74.667 80 -86c16.667 -3.33301 62 -5 136 -5c138.667 0 231 18.667 277 56c88 71.333 175.333 175.666 262 312.999h73z" />
    <glyph glyph-name="M" unicode="M" horiz-adv-x="2116" 
d="M2246 1419l-17 -73.0039c-55.333 -3.33301 -104.333 -11.666 -147 -24.999c-46.667 -14.667 -76 -48.667 -88 -102l-223 -993c-6 -26.667 -9 -45 -9 -55c0 -37.333 22.667 -63.666 68 -78.999c19.333 -6.66699 57.333 -13 114 -19l-17 -73h-767l17 73
c36.667 4 85.334 12.333 146.001 25c50.667 18.667 82 54.334 94 107.001l240 1065h-10l-771 -1247h-126c-1.33301 26 -6 68 -14 126l-22 162l-136 975h-10l-200 -869c-17.333 -75.333 -26 -136 -26 -182c0 -45.333 10.667 -78.666 32 -99.999
c30 -30 84.667 -50.667 164 -62l-17 -73h-610l17 73c86.667 10 148.667 26.667 186 50c52.667 32.667 97 127.334 133 284.001l162 701c8.66699 37.333 13 68 13 92c0 40.667 -11.333 72 -34 94c-30 29.333 -81.667 46.666 -155 51.999l17 73h649l136 -937l465 761
c43.333 71.333 71.666 130 84.999 176h661z" />
    <glyph glyph-name="N" unicode="N" horiz-adv-x="1699" 
d="M1883 1419l-17 -72.999c-46 -4.66699 -78 -9 -96 -13c-33.333 -8 -63.333 -20.333 -90 -37c-53.333 -33.333 -98 -128.666 -134 -285.999l-235 -1018h-168l-613 1137l-162 -710c-18 -78.667 -27 -139.667 -27 -183c0 -46.667 10.333 -80.334 31 -101.001
c26 -26 81.333 -46.667 166 -62l-17 -73h-610l17 73c50 7.33301 82 12.666 96 15.999c36.667 8 66.667 19.333 90 34c52.667 32.667 97 127.667 133 285l154 668c8 34.667 12 61.667 12 81c0 45.333 -11 81.333 -33 108c-32.667 40 -87.667 67 -165 81l18 73h524l536 -1000
l133 581c18 78.667 27 138.667 27 180c0 47.333 -11 82 -33 104c-28 28 -82.333 48.667 -163 62l17 73h609z" />
    <glyph glyph-name="O" unicode="O" horiz-adv-x="1679" 
d="M1661 875c0 -252 -85.665 -465 -256.998 -639c-180.667 -183.333 -406.334 -275 -677.001 -275c-182.667 0 -333.334 51 -452.001 153c-125.333 108 -188 251.667 -188 431c0 186.667 52 356 156 508s242.333 263.667 415 335c112.667 46.667 231.667 70 357 70
c185.333 0 337.333 -50 456 -150c126.667 -106.667 190 -251 190 -433zM1239 652c22 108 33 214.668 33 320.001c0 262 -93 393 -279 393c-154.667 0 -281.667 -98.333 -381 -295c-90.667 -180 -136 -388 -136 -624c0 -108.667 19.333 -197 58 -265
c48 -84.667 122 -127 222 -127c80.667 0 154 28 220 84c128 109.333 215.667 280.666 263 513.999z" />
    <glyph glyph-name="P" unicode="P" horiz-adv-x="1446" 
d="M1532 1121c0 -166 -73 -293.999 -219 -383.999c-136.667 -84 -310 -126 -520 -126h-144l-89 -385c-6 -26 -9 -44.333 -9 -55c0 -37.333 22.667 -63.666 68 -78.999c19.333 -6.66699 57.333 -13 114 -19l-17 -73h-771l17 73c62 2.66699 111.333 10 148 22
c46.667 15.333 76 48.666 88 99.999l229 992c6 26 9 44.667 9 56c0 51.333 -60.333 85.666 -181 102.999l17 73h769c327.333 0 491 -99.333 491 -298zM1136 1118c0 143.333 -82.334 215 -247.001 215h-73l-146 -633h65c140 0 243.667 41 311 123
c30.667 37.333 53.334 81 68.001 131s22 104.667 22 164z" />
    <glyph glyph-name="Q" unicode="Q" horiz-adv-x="1679" 
d="M1661 875c0 -200.667 -57.999 -380.334 -173.999 -539.001c-120 -164 -276.333 -274.667 -469 -332v-53c0 -66 15 -120.333 45 -163c34 -48.667 82.667 -73 146 -73s125.666 7.66699 186.999 23l-16 -80c-116 -48.667 -254.667 -73 -416 -73
c-102 0 -180.667 28.333 -236 85s-83 136.334 -83 239.001v57c-167.333 18 -301 76.667 -401 176c-104.667 104 -157 238.333 -157 403c0 186.667 52 356 156 508s242.333 263.667 415 335c112.667 46.667 231.667 70 357 70c185.333 0 337.333 -50 456 -150
c126.667 -106.667 190 -251 190 -433zM1272 972c0 262 -93 393 -279 393c-154.667 0 -281.667 -98.333 -381 -295c-90.667 -180 -136 -388 -136 -624c0 -108.667 19.333 -197 58 -265c48 -84.667 122 -127 222 -127c156.667 0 284 99 382 297
c89.333 180.667 134 387.667 134 621z" />
    <glyph glyph-name="R" unicode="R" horiz-adv-x="1633" 
d="M1147 1121c0 141.333 -87.667 212 -263 212h-68l-139 -603h97c116 0 207.667 36.333 275 109c65.333 70.667 98 164.667 98 282zM560 226c-6 -26 -8.99902 -44.3311 -8.99902 -54.998c0 -37.333 22 -63.666 66 -78.999c19.333 -6.66699 56.666 -13 111.999 -19l-17 -73
h-767l17 73c62 2.66699 111.333 10 148 22c46.667 15.333 76 48.666 88 99.999l229 992c6 26 9 44.667 9 56c0 51.333 -60.333 85.666 -181 102.999l17 73h782c326 0 489 -92.667 489 -278c0 -220.667 -151.667 -367.334 -455 -440.001l249 -443
c55.333 -97.333 103.333 -153 144 -167c26 -9.33301 63 -15.333 111 -18l-18 -73h-518c-100.667 230.667 -209.667 445 -327 643h-72z" />
    <glyph glyph-name="S" unicode="S" horiz-adv-x="1337" 
d="M575 -38c-168.667 0 -317.668 36.001 -447.001 108.001l-86 -70h-85l106 513h86c18.667 -115.333 61 -215 127 -299c79.333 -100.667 180.333 -151 303 -151c88 0 161 20.333 219 61c66.667 46 100 111 100 195c0 100.667 -69.667 176 -209 226l-135 49
c-42 14.667 -83.667 30.667 -125 48c-71.333 30 -127.666 73.333 -168.999 130c-44 59.333 -66 126.666 -66 201.999c0 129.333 55.667 241 167 335c116.667 98.667 267 148 451 148c151.333 0 284 -32.667 398 -98l75 60h87l-104 -484h-86
c-19.333 126 -54.333 224.333 -105 295c-60.667 84.667 -145.667 127 -255 127c-76 0 -141 -20.333 -195 -61c-60 -45.333 -90 -104.666 -90 -177.999c0 -96 68 -169.333 204 -220c58 -20.667 144.667 -53.334 260 -98.001c166.667 -69.333 250 -178 250 -326
c0 -146 -62 -267 -186 -363c-128.667 -99.333 -292 -149 -490 -149z" />
    <glyph glyph-name="T" unicode="T" horiz-adv-x="1401" 
d="M1591 1419l-93.998 -406h-77c-13.333 114.667 -44 205.334 -92 272.001c-17.333 23.333 -37 36.666 -59 39.999c-42.667 6.66699 -95 10 -157 10h-50l-255 -1103c-6 -26 -9 -44.333 -9 -55c0 -35.333 15 -59.333 45 -72c36 -15.333 84.667 -26 146 -32l-17 -73h-791
l17 73c83.333 6 136.333 13.333 159 22c46 17.333 75.333 53 88 107l262 1133h-39c-52.667 0 -107.334 -3.33301 -164.001 -10c-38.667 -4.66699 -94.334 -46.667 -167.001 -126c-53.333 -58.667 -99.333 -120.667 -138 -186h-77l94 406h1375z" />
    <glyph glyph-name="U" unicode="U" horiz-adv-x="1707" 
d="M755 -39c-150 0 -271.001 26 -363.001 78c-116 65.333 -174 167.333 -174 306c0 44 5.33301 89 16 135l164 709c6 26 9 44 9 54c0 50.667 -59.667 85 -179 103l17 73h760l-17 -73c-50 -3.33301 -96 -11 -138 -23c-45.333 -13.333 -74.333 -47.333 -87 -102l-162 -699
c-14.667 -63.333 -22 -121 -22 -173c0 -168 96.667 -252 290 -252c119.333 0 221.666 41 306.999 123c78 74.667 131 173 159 295l112 486c18 78 27 138 27 180c0 48 -11 82.333 -33 103c-31.333 29.333 -86.666 50 -165.999 62l17 73h615l-17 -73
c-81.333 -8 -143.666 -24.667 -186.999 -50c-53.333 -30.667 -98.333 -125.667 -135 -285l-123 -533c-38 -166 -120.333 -294.667 -247 -386c-121.333 -87.333 -269 -131 -443 -131z" />
    <glyph glyph-name="V" unicode="V" horiz-adv-x="1561" 
d="M1787 1346c-37.333 -3.33301 -81.833 -17.334 -133.5 -42.001s-99.167 -68.667 -142.5 -132l-332 -506l-235 -362l-205 -320h-201l-215 1194c-11.333 56 -39.333 98.667 -84 128c-32 20.667 -71 34 -117 40l17 73h753l-18 -73c-47.333 -5.33301 -84 -10.666 -110 -15.999
c-58 -12 -88.333 -26.333 -91 -43c-1.33301 -8 -2 -15 -2 -21c0 -13.333 4.66699 -49.333 14 -108l149 -834l458 732c70.667 114.667 106 186 106 214c0 42.667 -66.667 68 -200 76l18 73h589z" />
    <glyph glyph-name="W" unicode="W" horiz-adv-x="2307" 
d="M2549 1419l-18.001 -73c-36.667 -3.33301 -80 -17.333 -130 -42s-93.667 -68.667 -131 -132l-288 -494l-400 -694h-208l-128 1048l-576 -1048h-200l-131 1192c-6.66699 56 -32 99.667 -76 131c-26.667 19.333 -65.667 32.333 -117 39l17 73h742l-18 -73
c-87.333 -10 -144.666 -22.333 -171.999 -37c-16 -8.66699 -24 -24.667 -24 -48c0 -16 2.33301 -50.667 7 -104l78 -772l559 1034h213l129 -1066l221 402l162 302c61.333 118 92 188.333 92 211c0 42.667 -68.667 68.667 -206 78l18 73h585z" />
    <glyph glyph-name="X" unicode="X" horiz-adv-x="1643" 
d="M1792 1419l-17.0029 -73.001c-85.333 -2 -166 -34 -242 -96c-63.333 -52 -162.666 -141 -297.999 -267l-215 -198c8 -18 91 -191.333 249 -520c42 -87.333 89 -142 141 -164c36.667 -15.333 80.334 -24.666 131.001 -27.999l-17 -73h-834l17 73
c141.333 8.66699 212 32 212 70c0 22 -12.333 63 -37 123c-40.667 98.667 -86.667 202.667 -138 312l-176 -168l-142 -141c-68 -68.667 -102 -115.334 -102 -140.001c0 -29.333 49.667 -48 149 -56l-17 -73h-575l17 73c30 2 53.667 5 71 9c15.333 4 32 9.66699 50 17
c61.333 25.333 138.333 80.333 231 165l203 186l244 227l-113 242l-114 235c-40.667 84 -88.667 138.333 -144 163c-34.667 15.333 -77.667 25 -129 29l17 73h836l-17 -73c-142.667 -7.33301 -214 -31.333 -214 -72c0 -19.333 10.667 -55.666 32 -108.999l123 -282l292 288
c55.333 60 83 100 83 120c0 13.333 -10 24.333 -30 33c-23.333 10 -63.666 17.333 -120.999 22l17 73h577z" />
    <glyph glyph-name="Y" unicode="Y" horiz-adv-x="1499" 
d="M1770 1419l-16.999 -73.002c-44.667 -5.33301 -88 -18.666 -130 -39.999c-52.667 -26.667 -111 -75 -175 -145l-399 -455c-52.667 -61.333 -86 -105.666 -100 -132.999s-29.667 -79 -47 -155l-43 -186c-6 -26 -9 -44.333 -9 -55c0 -35.333 15 -59.333 45 -72
c36 -15.333 84.667 -26 146 -32l-17 -73h-791l17 73c82.667 6 135.667 13.333 159 22c46 17.333 75.333 53 88 107l59 255c10.667 46 16 75 16 87c0 15.333 -13.333 61.333 -40 138l-90 259l-86 227c-26 68 -61 116.333 -105 145c-28 18.667 -70 29.667 -126 33l17 73h793
l-17 -73c-136 -4 -204 -23.333 -204 -58c0 -23.333 15 -83 45 -179c21.333 -68 69.666 -206.333 144.999 -415l232 271c67.333 78.667 115.333 136 144 172c64 80 96 128.333 96 145c0 36 -54.333 57.333 -163 64l17 73h540z" />
    <glyph glyph-name="Z" unicode="Z" horiz-adv-x="1412" 
d="M1563 1419l-14 -61l-1186 -1271h339c174.667 0 285.667 22.333 333 67c88.667 84 179.667 192.333 273 325h75l-159 -479h-1322l15 61l1186 1271h-291c-98.667 0 -173 -9.33301 -223 -28c-60.667 -22.667 -165 -128.667 -313 -318h-81l144 433h1224z" />
    <glyph glyph-name="bracketleft" unicode="[" horiz-adv-x="915" 
d="M651 -310h-662l422 1829h662l-22 -95h-347l-378 -1638h347z" />
    <glyph glyph-name="backslash" unicode="\" horiz-adv-x="966" 
d="M778 -424h-174l-349 1947h176z" />
    <glyph glyph-name="bracketright" unicode="]" horiz-adv-x="915" 
d="M537 -310h-662l22 96h347l378 1638h-347l22 95h662z" />
    <glyph glyph-name="asciicircum" unicode="^" horiz-adv-x="1440" 
d="M1272 760h-196l-317 513l-317 -513h-194l442 696h140z" />
    <glyph glyph-name="underscore" unicode="_" horiz-adv-x="1440" 
d="M1262 -301h-1450l27 120h1450z" />
    <glyph glyph-name="grave" unicode="`" 
d="M857 1139l-45.999 -38c-82.667 48.667 -203.667 124.667 -363 228c-46 33.333 -69 70 -69 110c0 29.333 11.667 54.833 35 76.5s49.666 32.5 78.999 32.5c70 0 128 -34.667 174 -104z" />
    <glyph glyph-name="a" unicode="a" horiz-adv-x="1352" 
d="M760 125l-8 -0.000976562c-57.333 -49.333 -106 -84.333 -146 -105c-65.333 -34 -129 -51 -191 -51c-116.667 0 -205 35.333 -265 106c-56.667 66 -85 158.333 -85 277c0 180.667 59.667 336.334 179 467.001s262.333 196 429 196c116.667 0 206 -26 268 -78l307 63
l14 -16l-147 -615c-17.333 -72.667 -26 -122 -26 -148c0 -39.333 9.66699 -66.333 29 -81c17.333 -12.667 46.333 -19 87 -19c38 0 79 9.66699 123 29l-22 -90c-135.333 -53.333 -234 -80 -296 -80c-130.667 0 -214 48.333 -250 145zM879 758.999
c0 43.333 -8.99902 77.667 -26.999 103c-24.667 35.333 -64.334 53 -119.001 53c-84 0 -157.333 -58 -220 -174c-60 -110.667 -90 -241.667 -90 -393c0 -71.333 10.667 -125.333 32 -162c25.333 -43.333 67 -65 125 -65c55.333 0 112.333 31.667 171 95z" />
    <glyph glyph-name="b" unicode="b" horiz-adv-x="1329" 
d="M1264 632c0 -191.333 -59.334 -347.667 -178.001 -469c-127.333 -130 -292 -195 -494 -195c-90 0 -169.333 12 -238 36c-106 37.333 -188.333 101 -247 191l251 1078c5.33301 22.667 8 41.667 8 57c0 42.667 -16 72.667 -48 90c-23.333 12.667 -65.666 22 -126.999 28
l18 74l527 26l11 -16l-151 -648h7c38.667 32 79.334 59.333 122.001 82c61.333 32.667 124.666 49 189.999 49c116.667 0 205 -35.333 265 -106c56 -66 84 -158.333 84 -277zM905.999 635.999c0 72 -10.667 126 -32 162c-25.333 43.333 -67 65 -125 65
c-59.333 0 -119 -31.667 -179 -95l-126 -558c0 -36 11.333 -69.667 34 -101c28 -38.667 65.667 -58 113 -58c91.333 0 167 61 227 183c58.667 118.667 88 252.667 88 402z" />
    <glyph glyph-name="c" unicode="c" horiz-adv-x="1097" 
d="M557 -33c-145.333 0 -261 35.001 -347 105.001c-93.333 75.333 -140 184 -140 326c0 167.333 55.667 309.666 167 426.999c120 126.667 280 190 480 190c98.667 0 179.334 -16 242.001 -48c81.333 -41.333 122 -106.666 122 -195.999c0 -54 -13.333 -98.333 -40 -133
c-34 -44 -81.667 -66 -143 -66c-40 0 -76 9.66699 -108 29c-38 22.667 -57 52.667 -57 90c0 51.333 24.667 118.666 74 201.999c-23.333 28.667 -59.333 43 -108 43c-94 0 -165.667 -62.333 -215 -187c-37.333 -93.333 -56 -195 -56 -305c0 -215.333 75 -323 225 -323
c75.333 0 139.333 16 192 48c45.333 27.333 92.666 74 141.999 140l72 -61c-55.333 -85.333 -127.333 -153.333 -216 -204c-90.667 -51.333 -186 -77 -286 -77z" />
    <glyph glyph-name="d" unicode="d" horiz-adv-x="1357" 
d="M766 125l-8.00293 -0.000976562c-56 -48 -105.667 -83 -149 -105c-67.333 -34 -132 -51 -194 -51c-116.667 0 -205 35.333 -265 106c-56.667 66 -85 158.333 -85 277c0 129.333 33.167 249.833 99.5 361.5s156.5 194.834 270.5 249.501c74 34.667 151.667 52 233 52
c110.667 0 196.334 -23.667 257.001 -71l74 325c5.33301 23.333 8 42.333 8 57c0 60 -42.667 97 -128 111c-24 4 -50.333 7.66699 -79 11l18 74l561 26l11 -16l-269 -1163c-17.333 -74.667 -26 -124 -26 -148c0 -39.333 9.66699 -66.333 29 -81
c16.667 -12.667 45.334 -19 86.001 -19c38 0 79 9.66699 123 29l-22 -90c-135.333 -53.333 -233.666 -80 -294.999 -80c-130.667 0 -214 48.333 -250 145zM883.997 764.999c0 40.667 -10.667 74.667 -32 102c-28 36 -69 54 -123 54c-83.333 0 -156 -59 -218 -177
c-58.667 -112 -88 -244 -88 -396c0 -71.333 10.667 -125.333 32 -162c25.333 -43.333 67 -65 125 -65c59.333 0 118.333 31.667 177 95z" />
    <glyph glyph-name="e" unicode="e" horiz-adv-x="1141" 
d="M546 -33c-157.333 0 -277.333 40.998 -360 122.998c-77.333 76.667 -116 178.334 -116 305.001c0 166 58.333 309 175 429c124 127.333 286 191 486 191c244 0 366 -76 366 -228c0 -145.333 -100.333 -246.666 -301 -303.999c-122 -34.667 -247.667 -59 -377 -73
c4 -82.667 18 -147 42 -193c34 -65.333 94 -98 180 -98c142.667 0 262 63.333 358 190l73 -61c-60.667 -86 -137 -154 -229 -204c-94.667 -51.333 -193.667 -77 -297 -77zM772 758.998c0 117.333 -38.999 176.002 -116.999 176.002c-66.667 0 -123.334 -60 -170.001 -180
c-33.333 -84.667 -54.333 -172.334 -63 -263.001c99.333 12 169 26.667 209 44c94 41.333 141 115.666 141 222.999z" />
    <glyph glyph-name="f" unicode="f" horiz-adv-x="780" 
d="M620 868l-85.999 -428.001c-24.667 -121.333 -54 -248 -88 -380c-36 -138.667 -108.667 -256 -218 -352c-116 -101.333 -240.667 -152 -374 -152c-109.333 0 -188 21.333 -236 64c-35.333 31.333 -53 74.333 -53 129c0 42.667 14.667 77.834 44 105.501
s65.666 41.5 108.999 41.5c37.333 0 71.333 -11.667 102 -35c42.667 -33.333 78.667 -83 108 -149l34 -75c58 63.333 107.333 191.666 148 384.999l179 846h-194l24 103h192l17 77c28.667 128.667 99 244 211 346c116 105.333 241 158 375 158
c110 0 188.333 -20.667 235 -62c34 -30 51 -72.333 51 -127c0 -38 -11.667 -70.667 -35 -98c-30 -35.333 -69.333 -53 -118 -53c-61.333 0 -114.333 32 -159 96c-12.667 18 -40 72.333 -82 163c-52 -59.333 -99.333 -187.666 -142 -384.999l-25 -115h253l-24 -103h-248z" />
    <glyph glyph-name="g" unicode="g" horiz-adv-x="1330" 
d="M750 105l-7.99805 0.00195312c-46 -36.667 -89 -64.334 -129 -83.001c-64.667 -30 -127 -45 -187 -45c-116.667 0 -206.667 34.667 -270 104c-60.667 67.333 -91 160 -91 278c0 128 32.667 246.667 98 356c67.333 112 158 194.667 272 248c73.333 34.667 151 52 233 52
c120 0 212.667 -26 278 -78l305 63l14 -16l-170 -813c-24.667 -118 -61.667 -218.333 -111 -301c-90.667 -150.667 -212.334 -246.334 -365.001 -287.001c-70 -18 -143.333 -27 -220 -27c-150 0 -256.333 22 -319 66c-46 32.667 -69 76 -69 130
c0 43.333 14.667 78.833 44 106.5s65.666 41.5 108.999 41.5c62.667 0 119.667 -33 171 -99c31.333 -40 62 -94.667 92 -164c78 13.333 137.667 44.666 179 93.999c60.667 72.667 108.667 197.334 144 374.001zM884.002 760.002c0 40.667 -10.668 74.668 -32.001 102.001
c-28 36 -69 54 -123 54c-83.333 0 -155.666 -57 -216.999 -171c-59.333 -110.667 -89 -241 -89 -391c0 -68.667 12.667 -122.334 38 -161.001c28 -42.667 71.333 -64 130 -64c64.667 0 125.667 31.333 183 94z" />
    <glyph glyph-name="h" unicode="h" horiz-adv-x="1383" 
d="M1354 151l-22.001 -87.999c-135.333 -53.333 -233.666 -80 -294.999 -80c-69.333 0 -127.333 16.667 -174 50c-52 37.333 -78 89.666 -78 156.999c0 54 6.66699 105.667 20 155l72 266c14.667 54 22 98.667 22 134c0 68 -33.667 102 -101 102
c-68.667 0 -148 -41.667 -238 -125l-165 -722h-331l294 1273c5.33301 23.333 8 42.333 8 57c0 43.333 -16 73.666 -48 90.999c-22 12 -64.333 21 -127 27l18 74l527 26l11 -16l-160 -692h7c132 116.667 268 175 408 175c66.667 0 121.667 -18 165 -54
c47.333 -38 71 -89.667 71 -155c0 -52.667 -6.66699 -103.667 -20 -153l-76 -281c-17.333 -64 -26 -113.333 -26 -148c0 -39.333 9.33301 -66.666 28 -81.999c16.667 -13.333 45.667 -20 87 -20c40.667 0 81.667 9.66699 123 29z" />
    <glyph glyph-name="i" unicode="i" horiz-adv-x="749" 
d="M713 143l-22.001 -90c-135.333 -53.333 -233.666 -80 -294.999 -80c-70.667 0 -129 16.333 -175 49c-52 37.333 -78 90 -78 158c0 52.667 7 104 21 154l82 292c17.333 62 26 111.333 26 148c0 39.333 -8.66699 66.333 -26 81c-16 12.667 -44.333 19 -85 19
c-30.667 0 -71.667 -9.66699 -123 -29l22 90c130.667 53.333 229 80 295 80c71.333 0 129 -16.333 173 -49c50 -36.667 75 -89.334 75 -158.001c0 -53.333 -7 -105 -21 -155l-82 -291c-17.333 -61.333 -26 -110.666 -26 -147.999c0 -39.333 9.66699 -66.333 29 -81
c16.667 -12.667 45.667 -19 87 -19c40.667 0 81.667 9.66699 123 29zM733.999 1364c0 -52 -19.5 -95.5 -58.5 -130.5s-84.833 -52.5 -137.5 -52.5s-98.667 17.5 -138 52.5s-59 78.5 -59 130.5s19.667 95.667 59 131s85.333 53 138 53s98.5 -17.5 137.5 -52.5
s58.5 -78.833 58.5 -131.5z" />
    <glyph glyph-name="j" unicode="j" horiz-adv-x="747" 
d="M627 808c0 -42 -4 -83.6641 -12 -124.997l-62 -324c-12.667 -66.667 -36.334 -166.334 -71.001 -299.001c-36 -138.667 -107.667 -256 -215 -352c-113.333 -101.333 -233.333 -152 -360 -152c-107.333 0 -184.666 21.333 -231.999 64c-35.333 32 -53 75 -53 129
c0 42.667 14.833 77.834 44.5 105.501s65.834 41.5 108.501 41.5c37.333 0 71.333 -11.667 102 -35c42.667 -33.333 78.667 -83 108 -149l34 -75c46.667 81.333 89.667 209.666 129 384.999c47.333 209.333 91 421.666 131 636.999c10 54 15 92.333 15 115
c0 66.667 -38 100 -114 100c-24.667 0 -67.334 -9.66699 -128.001 -29l22 90c130.667 53.333 232 80 304 80c71.333 0 129.333 -16.333 174 -49c50 -36.667 75 -89.334 75 -158.001zM742 1364c0 -52 -19.5 -95.5 -58.5 -130.5s-84.833 -52.5 -137.5 -52.5
s-98.667 17.5 -138 52.5s-59 78.5 -59 130.5s19.667 95.667 59 131s85.333 53 138 53s98.5 -17.5 137.5 -52.5s58.5 -78.833 58.5 -131.5z" />
    <glyph glyph-name="k" unicode="k" horiz-adv-x="1313" 
d="M1297 858c0 -49.333 -17.502 -91.8311 -52.502 -127.498s-77.167 -53.5 -126.5 -53.5c-64 0 -134.667 29.333 -212 88l-39 -25c-12.667 -8.66699 -39 -30.334 -79 -65.001l101 -255c36.667 -92 64.334 -156 83.001 -192c24 -45.333 44.667 -74.666 62 -87.999
c23.333 -18 58 -27 104 -27c36 0 79 10 129 30l-22 -90c-126 -53.333 -227.667 -80 -305 -80c-64 0 -112 7.33301 -144 22c-56.667 26 -101.667 76.667 -135 152c-24 53.333 -62 151.333 -114 294l-66 -62l-86 -379h-331l294 1273c5.33301 23.333 8 42.333 8 57
c0 43.333 -16 73.666 -48 90.999c-22 12 -64.333 21 -127 27l18 74l527 26l11 -16l-240 -1040h8c115.333 130 228.666 249 339.999 357c56.667 55.333 99.334 92.666 128.001 111.999c52.667 36 105.334 54 158.001 54c104 0 156 -52.333 156 -157z" />
    <glyph glyph-name="l" unicode="l" horiz-adv-x="726" 
d="M746 1532l-269 -1170c-17.333 -75.333 -26 -124.666 -26 -147.999c0 -40 11.333 -67.333 34 -82c18 -12 48.333 -18 91 -18s85.667 9.66699 129 29l-22 -90c-135.333 -53.333 -237 -80 -305 -80c-70.667 0 -129.667 16.333 -177 49c-54 37.333 -81 90 -81 158
c0 42 7 93.333 21 154l216 939c5.33301 23.333 8 42.333 8 57c0 43.333 -16 73.666 -48 90.999c-22 12 -64.333 21 -127 27l18 74l527 26z" />
    <glyph glyph-name="m" unicode="m" horiz-adv-x="2052" 
d="M2023 153l-22 -90c-135.333 -53.333 -233.666 -80 -294.999 -80c-69.333 0 -127 16.667 -173 50c-52 37.333 -78 89.666 -78 156.999c0 56.667 6.33301 108.334 19 155.001l72 266c14.667 54 22 98.667 22 134c0 68 -34 102 -102 102c-55.333 0 -127 -41.667 -215 -125
l-165 -722h-331l140 610c14.667 64 22 109 22 135c0 68 -34.333 102 -103 102c-57.333 0 -132 -41.667 -224 -125l-165 -722h-331l142 615c16.667 72 25 121.333 25 148c0 40 -8 66.667 -24 80s-44.333 20 -85 20c-30.667 0 -71.667 -9.66699 -123 -29l22 90
c130.667 53.333 229 80 295 80c134.667 0 218.667 -59 252 -177h7c136 125.333 271.667 188 407 188c62 0 115.667 -16 161 -48c48.667 -35.333 75.667 -83 81 -143h7c73.333 63.333 135.666 108.333 186.999 135c71.333 37.333 145.333 56 222 56c66.667 0 122 -18 166 -54
c47.333 -38 71 -89.667 71 -155c0 -52.667 -6.66699 -103.667 -20 -153l-76 -281c-17.333 -64 -26 -113.333 -26 -148c0 -39.333 9.66699 -66.333 29 -81c16 -12.667 44.667 -19 86 -19c40.667 0 81.667 9.66699 123 29z" />
    <glyph glyph-name="n" unicode="n" horiz-adv-x="1413" 
d="M1384 153l-22.002 -90c-135.333 -53.333 -233.666 -80 -294.999 -80c-69.333 0 -127 16.667 -173 50c-52 37.333 -78 89.666 -78 156.999c0 56.667 6.33301 108.334 19 155.001l72 266c14.667 54 22 98.667 22 134c0 68 -33.667 102 -101 102
c-68.667 0 -148 -41.667 -238 -125l-165 -722h-331l142 615c16.667 72 25 121.333 25 148c0 38.667 -8.16699 65 -24.5 79s-44.5 21 -84.5 21c-30.667 0 -71.667 -9.66699 -123 -29l22 90c130.667 53.333 229 80 295 80c142.667 0 227.334 -59 254.001 -177h7
c138 125.333 279.667 188 425 188c66.667 0 121.667 -18 165 -54c47.333 -38 71 -89.667 71 -155c0 -52.667 -6.66699 -103.667 -20 -153l-76 -281c-17.333 -64 -26 -113.333 -26 -148c0 -39.333 9.66699 -66.333 29 -81c16 -12.667 44.667 -19 86 -19
c40.667 0 81.667 9.66699 123 29z" />
    <glyph glyph-name="o" unicode="o" horiz-adv-x="1302" 
d="M1235 599c0 -176 -61.334 -323 -184.001 -441c-132 -126.667 -301.667 -190 -509 -190c-138 0 -250 35.333 -336 106c-92.667 76 -139 181.667 -139 317c0 178.667 63 327.667 189 447s290 179 492 179c142.667 0 257.334 -33.333 344.001 -100
c95.333 -73.333 143 -179.333 143 -318zM882.999 712c0 151.333 -51.333 227 -154 227c-108 0 -189.667 -80.667 -245 -242c-43.333 -126 -65 -266.333 -65 -421c0 -153.333 52 -230 156 -230c102 0 181 77.333 237 232c47.333 131.333 71 276 71 434z" />
    <glyph glyph-name="p" unicode="p" horiz-adv-x="1357" 
d="M1292 632c0 -182.667 -59 -337.999 -177 -465.999s-259.667 -192 -425 -192c-110.667 0 -196 23.667 -256 71l-61 -266c-6 -26 -9 -43.333 -9 -52c0 -34.667 13.333 -58 40 -70c36.667 -16.667 87.334 -27 152.001 -31l-16 -70h-722l16 70c56 4 97.333 10.333 124 19
c40 12.667 66 45.334 78 98.001l198 872c16.667 73.333 25 122.666 25 147.999c0 38.667 -8.33301 65 -25 79s-44.667 21 -84 21c-32.667 0 -73.667 -9.66699 -123 -29l22 90c130.667 53.333 229 80 295 80c72.667 0 129.667 -14.667 171 -44
c29.333 -20.667 54 -54.334 74 -101.001h8c119.333 104 234.666 156 345.999 156c116.667 0 205 -35.333 265 -106c56 -66 84 -158.333 84 -277zM912 421.001c14.667 64 22.002 135.666 22.002 214.999c0 72 -10.667 126 -32 162c-25.333 43.333 -67 65 -125 65
c-66.667 0 -126.334 -31.667 -179.001 -95l-124 -549c0 -48.667 13.833 -87.5 41.5 -116.5s65.5 -43.5 113.5 -43.5c41.333 0 81.333 16 120 48c75.333 62.667 129.666 167.334 162.999 314.001z" />
    <glyph glyph-name="q" unicode="q" horiz-adv-x="1331" 
d="M732 98l-8.00098 -0.000976562c-79.333 -58.667 -149 -97 -209 -115c-30.667 -9.33301 -64 -14 -100 -14c-116.667 0 -205 35.333 -265 106c-56.667 66 -85 158.333 -85 277c0 129.333 33.167 249.833 99.5 361.5s156.5 194.834 270.5 249.501
c74 34.667 151.667 52 233 52c120 0 212.333 -26 277 -78l306 63l14 -16l-277 -1205c-6 -26 -9 -43.333 -9 -52c0 -34.667 13.333 -58 40 -70c37.333 -16.667 86.333 -27 147 -31l-16 -70h-722l16 70c30.667 2.66699 73.334 9 128.001 19c40.667 13.333 67 46 79 98z
M882.999 759.999c0 40.667 -10.665 74.666 -31.998 101.999c-28 36 -69 54 -123 54c-84.667 0 -157.334 -58 -218.001 -174c-58 -111.333 -87 -242.666 -87 -393.999c0 -71.333 10.667 -125.333 32 -162c25.333 -43.333 67 -65 125 -65c63.333 0 122.666 31.667 177.999 95z
" />
    <glyph glyph-name="r" unicode="r" horiz-adv-x="1093" 
d="M1106 807c0 -65.333 -17.335 -118.332 -52.002 -158.999c-38.667 -44.667 -89 -67 -151 -67c-40 0 -75.667 9.66699 -107 29c-36 22.667 -54 53 -54 91c0 31.333 17.333 87.333 52 168c-72.667 -30.667 -141.667 -84.334 -207 -161.001l-158 -708h-331l138 615
c16.667 74 25 123.333 25 148c0 40 -8 66.667 -24 80s-44.333 20 -85 20c-30.667 0 -71.667 -9.66699 -123 -29l22 90c130.667 53.333 229 80 295 80c142.667 0 227.334 -59 254.001 -177h7c56.667 60 103.334 102.667 140.001 128c57.333 40 116 60 176 60
c122 0 183 -69.333 183 -208z" />
    <glyph glyph-name="s" unicode="s" horiz-adv-x="1059" 
d="M435 -33c-152 0 -264.999 24.335 -338.999 73.002c-56.667 37.333 -85 83 -85 137c0 42.667 16 78 48 106c30 26 67 39 111 39c95.333 0 165.333 -68 210 -204c11.333 -34.667 19.333 -60.334 24 -77.001c152.667 0 229 60.333 229 181
c0 43.333 -21.333 78.666 -64 105.999c-26 16.667 -80.333 39 -163 67c-174.667 59.333 -262 157.333 -262 294c0 88.667 40.667 163.667 122 225c89.333 67.333 215.666 101 378.999 101c111.333 0 198.666 -14 261.999 -42c74.667 -32.667 112 -84.667 112 -156
c0 -40 -15.333 -72.667 -46 -98c-28 -24 -62.667 -36 -104 -36c-92 0 -157.667 62.667 -197 188l-23 74c-47.333 -2.66699 -89.333 -19 -126 -49c-39.333 -32 -59 -71 -59 -117c0 -47.333 16.667 -82.666 50 -105.999c22.667 -16 77.334 -39 164.001 -69
c182.667 -64 274 -161.333 274 -292c0 -104.667 -43 -187.334 -129 -248.001c-92 -64.667 -221.333 -97 -388 -97z" />
    <glyph glyph-name="t" unicode="t" horiz-adv-x="854" 
d="M408 -26c-70.667 0 -130.666 16.333 -179.999 49c-56 38 -84 90.667 -84 158c0 43.333 7 95 21 155l124 532h-183l24 103h187l72 303h324l-70 -303h271l-24 -103h-270l-122 -532c-13.333 -58 -20 -98 -20 -120c0 -67.333 42.667 -101 128 -101
c49.333 0 103.333 10.667 162 32l-22 -90c-124.667 -55.333 -237.334 -83 -338.001 -83z" />
    <glyph glyph-name="u" unicode="u" horiz-adv-x="1403" 
d="M803 159l-6.99902 -0.000976562c-137.333 -125.333 -277.333 -188 -420 -188c-66.667 0 -121.334 18 -164.001 54c-45.333 38 -68 89.667 -68 155c0 47.333 7.33301 98.333 22 153l75 281c17.333 64.667 26 114 26 148c0 39.333 -8.33301 65.833 -25 79.5
s-45 20.5 -85 20.5c-30.667 0 -71.667 -9.66699 -123 -29l22 90c130.667 53.333 229 80 295 80c69.333 0 126.666 -16.667 171.999 -50c50.667 -37.333 76 -89.666 76 -156.999c0 -54.667 -6.66699 -106.334 -20 -155.001l-73 -266c-14.667 -53.333 -22 -98 -22 -134
c0 -68 32.667 -102 98 -102c66.667 0 143.667 41.667 231 125l165 722l319 14l12 -14l-142 -615c-17.333 -75.333 -26 -124.666 -26 -147.999c0 -39.333 9.66699 -66.333 29 -81c16 -12.667 44.667 -19 86 -19c40.667 0 81.667 9.66699 123 29l-22 -90
c-135.333 -53.333 -233.666 -80 -294.999 -80c-146.667 0 -233 59 -259 177z" />
    <glyph glyph-name="v" unicode="v" horiz-adv-x="1254" 
d="M1209 766c0 -206 -60.3291 -387 -180.996 -543c-131.333 -170 -292.666 -255 -483.999 -255c-112.667 0 -203.334 24.667 -272.001 74c-77.333 56 -116 138.333 -116 247c0 38.667 18.667 116 56 232c36.667 114 55 194.333 55 241c0 66.667 -36.667 100 -110 100
c-30.667 0 -71.667 -9.66699 -123 -29l22 90c130.667 53.333 229 80 295 80c69.333 0 126.666 -16.667 171.999 -50c50.667 -37.333 76 -89.666 76 -156.999c0 -69.333 -18 -159 -54 -269s-54 -185.667 -54 -227c0 -124.667 57.667 -187 173 -187
c101.333 0 183.666 37.667 246.999 113c59.333 71.333 89 158.666 89 261.999c0 26.667 -3.33301 54 -10 82c-6.66699 14 -21.334 31 -44.001 51l-53 46c-48.667 48.667 -73 105.667 -73 171c0 86 42.667 141.667 128 167c22 6.66699 42.667 10 62 10
c67.333 0 118.666 -25.667 153.999 -77c30 -44 45 -101.333 45 -172z" />
    <glyph glyph-name="w" unicode="w" horiz-adv-x="1912" 
d="M1867 766c0 -206.667 -60.668 -387.668 -182.001 -543.001c-132.667 -170 -297 -255 -493 -255c-194.667 0 -314.667 73.667 -360 221c-132.667 -145.333 -278 -218 -436 -218c-75.333 0 -135.833 23.333 -181.5 70s-68.5 107.667 -68.5 183c0 39.333 9 90.333 27 153
l68 237c17.333 60.667 26 110 26 148c0 38.667 -8.5 65 -25.5 79s-45.167 21 -84.5 21c-30.667 0 -71.667 -9.66699 -123 -29l22 90c130.667 53.333 229 80 295 80c70.667 0 128.334 -17 173.001 -51c50 -37.333 75 -90.333 75 -159c0 -58 -10.667 -122.667 -32 -194
l-58 -194c-16.667 -56 -25 -104 -25 -144c0 -33.333 9 -61.333 27 -84c19.333 -25.333 45.333 -38 78 -38c32 0 62 6.66699 90 20c54 25.333 103 63 147 113c0 37.333 6 82.333 18 135l132 579l319 14l12 -14l-132 -573c-9.33301 -40.667 -14 -84 -14 -130
c0 -112 54.667 -168 164 -168c100.667 0 182.334 37.667 245.001 113c58.667 70.667 88 157.334 88 260.001c0 26.667 -3.33301 54 -10 82c-6.66699 14 -21.334 30.667 -44.001 50l-53 46c-48.667 48 -73 105.333 -73 172c0 59.333 23.333 106 70 140
c34 24.667 74 37 120 37c68 0 119.333 -25.333 154 -76c30 -44 45 -101.667 45 -173z" />
    <glyph glyph-name="x" unicode="x" horiz-adv-x="1195" 
d="M1218 866c0 -56 -17.8291 -101.667 -53.4961 -137s-81.5 -53 -137.5 -53c-48.667 0 -107 12 -175 36c-20.667 -14.667 -59.667 -60.667 -117 -138c17.333 -72 50.666 -188 99.999 -348c23.333 -75.333 74.666 -113 153.999 -113c36 0 79 10 129 30l-22 -90
c-126 -53.333 -227.667 -80 -305 -80c-64.667 0 -117.334 12.333 -158.001 37c-49.333 30 -84.666 79 -105.999 147c-8.66699 37.333 -22.667 93 -42 167l-80 -123c-47.333 -72.667 -84.666 -122.334 -111.999 -149.001c-50.667 -50 -105.334 -75 -164.001 -75
c-42.667 0 -77.834 14 -105.501 42s-41.5 63.333 -41.5 106c0 56.667 17.667 102.834 53 138.501s81.333 53.5 138 53.5c48 0 106.333 -12.333 175 -37c30.667 24.667 69 69.334 115 134.001c-28 114 -60.333 226.333 -97 337c-24.667 75.333 -76 113 -154 113
c-30.667 0 -73.667 -10 -129 -30l22 90c120 53.333 221.667 80 305 80c64 0 116.667 -12.333 158 -37c58 -34.667 100.667 -111.334 128 -230.001l17 -74l44 66l38 60c44 70 81.333 120 112 150c51.333 50.667 106 76 164 76c43.333 0 78.666 -14 105.999 -42
s41 -63.667 41 -107z" />
    <glyph glyph-name="y" unicode="y" horiz-adv-x="1371" 
d="M803 160l-6.99902 0.000976562c-134 -122 -273.333 -183 -418 -183c-66.667 0 -121.667 18.333 -165 55c-46 38.667 -69 90.667 -69 156c0 48.667 7.33301 99.667 22 153l75 273c17.333 63.333 26 112.666 26 147.999c0 39.333 -8.66699 66.333 -26 81
c-15.333 12.667 -43.333 19 -84 19c-30.667 0 -71.667 -9.66699 -123 -29l22 90c130.667 53.333 229 80 295 80c69.333 0 126.666 -16.667 171.999 -50c50.667 -37.333 76 -89.666 76 -156.999c0 -56 -6.66699 -107.667 -20 -155l-73 -260c-14.667 -52 -22 -96.333 -22 -133
c0 -68 34 -102 102 -102c74 0 152.667 41 236 123l152 717l317 14l14 -16l-175 -813c-48.667 -224.667 -141.667 -387.667 -279 -489c-114 -84 -251.333 -126 -412 -126c-150.667 0 -257.334 22 -320.001 66c-46 32 -69 75.333 -69 130c0 43.333 14.667 78.833 44 106.5
s65.666 41.5 108.999 41.5c62 0 119 -33 171 -99c32.667 -41.333 63.667 -96 93 -164c33.333 5.33301 63 16.666 89 33.999c36.667 24 67.334 52.667 92.001 86c68.667 92.667 120.334 227 155.001 403z" />
    <glyph glyph-name="z" unicode="z" horiz-adv-x="1059" 
d="M1084 986l-14.999 -72l-708 -830c48 -1.33301 100.333 -2 157 -2c43.333 0 80.333 1 111 3c34.667 2 56.667 3.66699 66 5c24 4.66699 44 13.667 60 27c19.333 16 35 35 47 57c25.333 40.667 60.666 103.667 105.999 189h70l-71 -363h-934l18 83l697 819h-118
c-98 0 -168.333 -8 -211 -24c-52.667 -20 -104.667 -90 -156 -210h-71l62 318h890z" />
    <glyph glyph-name="braceleft" unicode="{" 
d="M777 -333c-181.333 0 -309.668 15.9971 -385.001 47.9971c-96.667 41.333 -145 119.333 -145 234c0 22.667 3.33301 55.334 10 98.001c14 56 33 140.667 57 254c5.33301 32.667 8 58.334 8 77.001c0 63.333 -27.667 106.666 -83 129.999c-31.333 13.333 -87 23 -167 29
l34 150c118 8.66699 200.667 25.334 248 50.001c70 36.667 112.333 98.667 127 186c6 52 16 130 30 234c24 150 96 254.333 216 313c91.333 44.667 239 67 443 67l-15 -83c-45.333 -3.33301 -76.666 -6.66602 -93.999 -9.99902c-30.667 -6 -60 -16.667 -88 -32
c-59.333 -33.333 -97.333 -97 -114 -191l-34 -190c-23.333 -130 -82.333 -226.333 -177 -289c-71.333 -46.667 -168 -80.667 -290 -102l-18 -76c186 -39.333 279 -133.666 279 -282.999c0 -37.333 -3.66699 -73.333 -11 -108l-40 -190c-3.33301 -16 -5 -36 -5 -60
c0 -66.667 24.333 -113.334 73 -140.001c33.333 -18 85.333 -29 156 -33z" />
    <glyph glyph-name="bar" unicode="|" horiz-adv-x="794" 
d="M505 -424h-171v1947h171v-1947z" />
    <glyph glyph-name="braceright" unicode="}" 
d="M976 666l-34.0039 -150.001c-59.333 -4 -101.666 -8.33301 -126.999 -13c-45.333 -7.33301 -85.666 -19.666 -120.999 -36.999c-67.333 -33.333 -109.666 -95.333 -126.999 -186c-6 -52 -16 -130 -30 -234c-25.333 -153.333 -97 -257.666 -215 -312.999
c-96 -44.667 -244 -67 -444 -67l15 83c83.333 5.33301 144.333 19.333 183 42c58.667 34.667 96.334 98.334 113.001 191.001l34 190c22.667 127.333 81.667 223.666 177 288.999c58 40 154.667 74 290 102l18 76c-87.333 18.667 -153.666 48 -198.999 88
c-53.333 47.333 -80 112.333 -80 195c0 37.333 3.66699 73.333 11 108l40 190c3.33301 16 5 36 5 60c0 67.333 -24.333 114 -73 140c-30 16 -82 27 -156 33l15 83c181.333 0 309.666 -16 384.999 -48c96.667 -41.333 145 -119.333 145 -234
c0 -52.667 -12.333 -125.334 -37 -218.001c-12 -44 -22 -88.667 -30 -134c-5.33301 -29.333 -8 -55 -8 -77c0 -63.333 27.667 -107 83 -131c34 -14.667 89.667 -24 167 -28z" />
    <glyph glyph-name="asciitilde" unicode="~" horiz-adv-x="1440" 
d="M1317 735c-30.667 -84 -73.334 -156 -128.001 -216c-74.667 -82 -153.667 -123 -237 -123c-74 0 -160.667 29.167 -260 87.5s-170 87.5 -212 87.5c-82 0 -151.667 -66.333 -209 -199l-104 42c26.667 77.333 69.334 149.333 128.001 216c72.667 82 151.667 123 237 123
c76 0 162.667 -29.167 260 -87.5s168 -87.5 212 -87.5c81.333 0 151 66.333 209 199z" />
    <glyph glyph-name="uni00A0" unicode="&#xa0;" horiz-adv-x="520" 
 />
    <glyph glyph-name="exclamdown" unicode="&#xa1;" horiz-adv-x="771" 
d="M754 1262c0 -51.333 -19.167 -95.333 -57.5 -132s-83.5 -55 -135.5 -55c-51.333 0 -96.166 18.333 -134.499 55s-57.5 80.667 -57.5 132s19.167 95 57.5 131s83.166 54 134.499 54c52 0 97.167 -18 135.5 -54s57.5 -79.667 57.5 -131zM535 956
c-8 -154.667 -11.667 -288.666 -11 -401.999v-237c0 -76.667 -4 -131 -12 -163c-14 -56.667 -42 -101.334 -84 -134.001s-92.333 -49 -151 -49c-43.333 0 -80.333 13.167 -111 39.5s-46 60.833 -46 103.5c0 42 20.333 108 61 198l121 266c54.667 122 106.667 248 156 378h77
z" />
    <glyph glyph-name="cent" unicode="&#xa2;" horiz-adv-x="1240" 
d="M1124 262c-59.333 -81.333 -117 -141.334 -173 -180.001c-77.333 -53.333 -167 -87 -269 -101l-61 -280h-99l61 278c-140 2 -251 34.667 -333 98c-90.667 70.667 -136 173.667 -136 309c0 184 71.667 336 215 456c132.667 110.667 293.667 170.334 483 179.001l57 255h99
l-57 -256c89.333 -8.66699 160.333 -33.667 213 -75c42.667 -34 64 -72.667 64 -116c0 -53.333 -20.333 -95.333 -61 -126c-37.333 -28.667 -83.333 -43 -138 -43c-36 0 -66 14 -90 42c-22.667 26 -35 57.333 -37 94l-149 -678c130.667 0 246 65.333 346 196zM618 134.999
l176 802.999c-78.667 -9.33301 -149.667 -55 -213 -137c-75.333 -97.333 -113 -226.666 -113 -387.999c0 -145.333 50 -238 150 -278z" />
    <glyph glyph-name="sterling" unicode="&#xa3;" horiz-adv-x="1413" 
d="M1021 1372c-40.667 0 -79 -15.668 -115 -47.001c-53.333 -46 -92 -126 -116 -240c-11.333 -77.333 -31 -192.666 -59 -345.999h394l-25 -111h-384c-29.333 -90 -67 -160.333 -113 -211c-44 -48 -109.667 -93.333 -197 -136v-16h835l-61 -265h-1171l44 188
c120.667 38 204.667 98.667 252 182c36.667 65.333 59.667 151.333 69 258h-200l25 111h190c12.667 101.333 24 182.666 34 243.999c23.333 146.667 100 264.667 230 354c120 82 257 123 411 123c88 0 165 -20.333 231 -61c77.333 -47.333 116 -112.666 116 -195.999
c0 -54.667 -14 -99.667 -42 -135c-30.667 -38.667 -72.667 -58 -126 -58c-50.667 0 -92 13.333 -124 40c-34.667 29.333 -52 68.666 -52 117.999c0 38.667 16 102.334 48 191.001c-20.667 8.66699 -52 13 -94 13z" />
    <glyph glyph-name="currency" unicode="&#xa4;" horiz-adv-x="1440" 
d="M1267 156l-105.999 -111l-236 231c-68 -35.333 -129.333 -53 -184 -53c-58.667 0 -119.334 17.667 -182.001 53l-238 -233l-106 115l231 233c-35.333 55.333 -53 115.333 -53 180c0 62 17.667 123 53 183l-231 237l110 109l234 -234c57.333 36 118 54 182 54
c62 0 122 -17.333 180 -52l234 232l112 -109l-231 -237c35.333 -62.667 53 -123.667 53 -183c0 -60.667 -17.667 -120.667 -53 -180zM944.001 571c0 56.667 -19.833 105.332 -59.5 145.999s-87.5 61 -143.5 61c-57.333 0 -105.833 -20.167 -145.5 -60.5
s-59.5 -89.166 -59.5 -146.499c0 -56.667 20 -105.167 60 -145.5s88.333 -60.5 145 -60.5c56 0 103.833 20.167 143.5 60.5s59.5 88.833 59.5 145.5z" />
    <glyph glyph-name="yen" unicode="&#xa5;" horiz-adv-x="1500" 
d="M1701 1419l-17.001 -72c-34.667 -3.33301 -73.667 -16 -117 -38c-53.333 -26.667 -112 -75 -176 -145l-226 -255l-253 -294l-9 -34h434l-26 -112h-431l-54 -236c-6 -26 -9 -45.667 -9 -59c0 -32.667 14.667 -56 44 -70c32 -15.333 80.667 -26 146 -32l-17 -72h-779l17 72
c83.333 6 136.333 13.333 159 22c47.333 18 77 53.667 89 107l61 268h-431l26 112h433l5 22c-77.333 226.667 -145.333 416 -204 568c-35.333 90.667 -89.333 146 -162 166c-21.333 5.33301 -40.666 8.66602 -57.999 9.99902l17 72h763l-17 -72
c-56 -2.66699 -85.667 -4 -89 -4c-36 -4 -64.333 -11.333 -85 -22c-15.333 -8.66699 -23 -20 -23 -34c0 -23.333 11 -69.666 33 -138.999c13.333 -41.333 31.666 -94 54.999 -158l88 -243l210 244c50.667 56 119.334 140.333 206.001 253c10 16 15 29.333 15 40
c0 34.667 -51.667 55.667 -155 63l17 72h520z" />
    <glyph glyph-name="brokenbar" unicode="&#xa6;" horiz-adv-x="794" 
d="M505 723h-171v800h171v-800zM505 -424h-171v810h171v-810z" />
    <glyph glyph-name="section" unicode="&#xa7;" horiz-adv-x="1154" 
d="M798 604c0 51.333 -24.667 95.6689 -74 133.002c-30.667 23.333 -94 57.666 -190 102.999c-88.667 -58.667 -133 -131.334 -133 -218.001c0 -53.333 25.333 -99.333 76 -138c34 -26 96.333 -60 187 -102c89.333 60.667 134 134.667 134 222zM53 -96.9971
c-9.33301 24 -13.999 46.001 -13.999 66.001c0 38 12 68.5 36 91.5s55 34.5 93 34.5c53.333 0 96.333 -28 129 -84c13.333 -23.333 34.333 -76.666 63 -159.999c2 0 5 -0.333008 9 -1h8c164.667 0 247 60.333 247 181c0 45.333 -23.667 84.666 -71 117.999
c-28.667 20 -93 52.667 -193 98c-152.667 69.333 -229 162.666 -229 279.999c0 92 33 167.667 99 227c50 44.667 126 84.334 228 119.001c-112.667 51.333 -169 129 -169 233c0 116 62 206.333 186 271c100 51.333 213.667 77 341 77c122.667 0 212 -23 268 -69
c42.667 -35.333 64 -79.333 64 -132c0 -84 -43 -126 -129 -126c-52.667 0 -95.667 28 -129 84c-8 14 -29 67.333 -63 160c-2.66699 0.666992 -5.33398 1 -8.00098 1h-8c-65.333 0 -120.333 -13 -165 -39c-53.333 -32 -80 -78.667 -80 -140c0 -47.333 24.667 -87.333 74 -120
c29.333 -19.333 95.333 -52 198 -98c152.667 -68.667 229 -161.667 229 -279c0 -156.667 -109 -272.334 -327 -347.001c108 -47.333 162 -122.333 162 -225c0 -120.667 -61.333 -213.334 -184 -278.001c-98.667 -52 -214 -78 -346 -78c-66.667 0 -121.667 6.33301 -165 19
c-82 24.667 -133.333 63.334 -154 116.001z" />
    <glyph glyph-name="dieresis" unicode="&#xa8;" 
d="M1056 1349c0 -44 -15.167 -82.667 -45.5 -116s-67.5 -50 -111.5 -50s-81.333 16.5 -112 49.5s-46 71.833 -46 116.5s15.167 83.5 45.5 116.5s67.833 49.5 112.5 49.5c44 0 81.167 -16.667 111.5 -50s45.5 -72 45.5 -116zM561 1349c0 -44 -15.333 -82.667 -46 -116
s-68 -50 -112 -50c-44.667 0 -82 16.5 -112 49.5s-45 71.833 -45 116.5s15 83.5 45 116.5s67.333 49.5 112 49.5c44 0 81.333 -16.667 112 -50s46 -72 46 -116z" />
    <glyph glyph-name="copyright" unicode="&#xa9;" horiz-adv-x="1929" 
d="M1869 602c0 -245.333 -85.833 -453.833 -257.5 -625.5s-380.5 -257.5 -626.5 -257.5s-454.833 85.833 -626.5 257.5s-257.5 380.167 -257.5 625.5s85.833 453.833 257.5 625.5s380.5 257.5 626.5 257.5s454.833 -85.833 626.5 -257.5s257.5 -380.167 257.5 -625.5z
M1771 602c0 222 -75.668 410.167 -227.001 564.5s-337.666 231.5 -558.999 231.5s-407.666 -77.167 -558.999 -231.5s-227 -342.5 -227 -564.5s75.667 -410.167 227 -564.5s337.666 -231.5 558.999 -231.5s408 77.667 560 233c150.667 153.333 226 341 226 563zM1413 381
c-36 -84 -86.667 -147.333 -152 -190c-77.333 -50.667 -165.333 -76 -264 -76c-144 0 -262 42 -354 126c-97.333 88.667 -146 205.667 -146 351c0 149.333 50 271 150 365c98 92.667 222 139 372 139c85.333 0 167.333 -20.667 246 -62l35 51h65l4 -370h-69
c-30 91.333 -60 158.333 -90 201c-48 67.333 -108.667 101 -182 101c-90.667 0 -157 -47.333 -199 -142c-30 -68.667 -45 -155 -45 -259c0 -260.667 89 -391 267 -391c124 0 222.667 64 296 192z" />
    <glyph glyph-name="ordfeminine" unicode="&#xaa;" horiz-adv-x="1130" 
d="M1209 761l-19.999 -78c-114.667 -43.333 -197.334 -65 -248.001 -65c-110.667 0 -180.667 39 -210 117h-7c-92 -84 -184 -126 -276 -126c-192.667 0 -289 103.667 -289 311c0 144 47.333 268.667 142 374c98 108.667 218 163 360 163c92 0 164.667 -21 218 -63l258 51
l11 -13l-118 -494c-14.667 -61.333 -22 -101.333 -22 -120c0 -54 32.333 -81 97 -81c32 0 66.667 8 104 24zM826.001 1245c0 84 -38.667 126 -116 126c-84 0 -149.333 -57.333 -196 -172c-35.333 -87.333 -53 -180 -53 -278c0 -122.667 42 -184 126 -184c44 0 90 27 138 81z
" />
    <glyph glyph-name="guillemotleft" unicode="&#xab;" horiz-adv-x="1250" 
d="M619 139l-61 -43l-215 179c-62 51.333 -110 93.333 -144 126c-14 13.333 -25 28.5 -33 45.5s-12 35.167 -12 54.5c0 76.667 37 139.667 111 189c136.667 91.333 297 193 481 305l41 -43l-391 -419zM1058 139l-61 -43l-215 179c-62 51.333 -110 93.333 -144 126
c-14 13.333 -25 28.5 -33 45.5s-12 35.167 -12 54.5c0 76.667 37 139.667 111 189c136.667 91.333 297 193 481 305l41 -43l-391 -419z" />
    <glyph glyph-name="logicalnot" unicode="&#xac;" horiz-adv-x="1440" 
d="M1288 50h-170v473h-932v163h1102v-636z" />
    <glyph glyph-name="minus" unicode="&#xad;" horiz-adv-x="1440" 
d="M1297 493h-1111v163h1111v-163z" />
    <glyph glyph-name="minus" unicode="&#x2212;" horiz-adv-x="1440" 
d="M1297 493h-1111v163h1111v-163z" />
    <glyph glyph-name="registered" unicode="&#xae;" horiz-adv-x="1929" 
d="M1869 602c0 -245.333 -85.833 -453.833 -257.5 -625.5s-380.5 -257.5 -626.5 -257.5s-454.833 85.833 -626.5 257.5s-257.5 380.167 -257.5 625.5s85.833 453.833 257.5 625.5s380.5 257.5 626.5 257.5s454.833 -85.833 626.5 -257.5s257.5 -380.167 257.5 -625.5z
M1771 602c0 222 -75.668 410.167 -227.001 564.5s-337.666 231.5 -558.999 231.5s-407.666 -77.167 -558.999 -231.5s-227 -342.5 -227 -564.5s75.667 -410.167 227 -564.5s337.666 -231.5 558.999 -231.5s408 77.667 560 233c150.667 153.333 226 341 226 563zM1594 145
l-362 -0.00390625c-103.333 158 -204.666 296.667 -303.999 416h-34v-269c0 -33.333 14.667 -56.166 44 -68.499s54.666 -19.166 75.999 -20.499v-58h-482v58c41.333 4 70.333 9.66699 87 17c28 11.333 42 34 42 68v636c0 32.667 -14 55 -42 67
c-25.333 10.667 -54.333 19.334 -87 26.001v58h515c237.333 0 356 -73.333 356 -220c0 -123.333 -75 -206.666 -225 -249.999l227 -289c43.333 -53.333 82.333 -86.333 117 -99c26 -9.33301 50 -14 72 -14v-58zM1144 835.996c0 112.667 -66.667 169 -200 169h-50v-376h48
c134.667 0 202 69 202 207z" />
    <glyph glyph-name="overscore" unicode="&#xaf;" horiz-adv-x="1440" 
d="M1685 1724l-28 -120h-1450l28 120h1450z" />
    <glyph glyph-name="degree" unicode="&#xb0;" horiz-adv-x="860" 
d="M855 1129c0 -98 -32.667 -177.667 -98 -239s-147.333 -92 -246 -92c-98 0 -179.667 30.833 -245 92.5s-98 141.167 -98 238.5s32.667 176.833 98 238.5s147 92.5 245 92.5s179.667 -30.333 245 -91c66 -62.667 99 -142.667 99 -240zM675 1121
c0 165.333 -55 248.001 -165 248.001c-57.333 0 -100 -26.667 -128 -80c-22.667 -42 -34 -94.333 -34 -157c0 -162.667 55.333 -244 166 -244c54.667 0 96.667 26.333 126 79c23.333 43.333 35 94.666 35 153.999z" />
    <glyph glyph-name="plusminus" unicode="&#xb1;" horiz-adv-x="1440" 
d="M1297 0h-1111v163h473v395h-473v163h473v473h165v-473h473v-163h-473v-395h473v-163z" />
    <glyph glyph-name="twosuperior" unicode="&#xb2;" horiz-adv-x="1130" 
d="M636 1377c-25.333 0 -56.334 -6.66699 -93.001 -20l22 -60c7.33301 -21.333 11 -47 11 -77c0 -36.667 -12.667 -65.667 -38 -87s-57 -32 -95 -32c-37.333 0 -67.5 12.667 -90.5 38s-34.5 56.666 -34.5 93.999c0 73.333 46 131.333 138 174c73.333 33.333 151 50 233 50
c101.333 0 186.333 -15 255 -45c94 -41.333 141 -106.333 141 -195c0 -113.333 -46 -204.666 -138 -273.999c-56 -42 -142.333 -84.333 -259 -127l-292 -111l-3 -12h629l-47 -203h-824l35 151c40.667 34 102.667 74.667 186 122c114.667 65.333 180.334 103.333 197.001 114
c67.333 42.667 119.333 89.667 156 141c49.333 68 74 139 74 213c0 97.333 -54.333 146 -163 146z" />
    <glyph glyph-name="threesuperior" unicode="&#xb3;" horiz-adv-x="1130" 
d="M732 677c11.333 34.667 17.0029 76.9961 17.0029 126.996c0 83.333 -50.667 125 -152 125h-88l23 96h62c69.333 0 122.666 21.667 159.999 65c35.333 40.667 53 96.334 53 167.001c0 38.667 -15.667 69 -47 91c-27.333 19.333 -61.333 29 -102 29
c-34.667 0 -69.334 -6.33301 -104.001 -19l21 -58c7.33301 -20.667 11 -46 11 -76c0 -77.333 -42.333 -116 -127 -116c-37.333 0 -67.5 12.333 -90.5 37s-34.5 55.667 -34.5 93c0 70 48 126 144 168c76 34 153.667 51 233 51c131.333 0 229 -23.667 293 -71
c48.667 -36 73 -80 73 -132c0 -58 -19 -107.333 -57 -148c-51.333 -55.333 -129.333 -92.666 -234 -111.999v-11c69.333 -6 124 -22 164 -48c52.667 -34 79 -83 79 -147c0 -110 -53.333 -196 -160 -258c-89.333 -52 -193 -78 -311 -78c-88.667 0 -168.667 15 -240 45
c-94 40 -141 98.667 -141 176c0 38.667 11.167 70.334 33.5 95.001s52.833 37 91.5 37c38 0 69.5 -10.667 94.5 -32s37.5 -50.666 37.5 -87.999c0 -32 -10.667 -74.667 -32 -128c33.333 -16 67.666 -24 102.999 -24c31.333 0 63.333 4.66699 96 14
c64 18.667 107.667 62 131 130z" />
    <glyph glyph-name="acute" unicode="&#xb4;" 
d="M943 1460c0 -48.667 -28.667 -91.667 -86 -129l-395 -230l-42 38c32 42 105 143.667 219 305c49.333 69.333 109 104 179 104c28.667 0 55.667 -7.33301 81 -22c29.333 -17.333 44 -39.333 44 -66z" />
    <glyph glyph-name="mu1" unicode="&#xb5;" horiz-adv-x="1386" 
d="M796 264l164.999 722.002l319 14l12 -14l-142 -615c-17.333 -75.333 -26 -124.666 -26 -147.999c0 -39.333 9.66699 -66.333 29 -81c16 -12.667 44.667 -19 86 -19c40.667 0 81.667 9.66699 123 29l-22 -90c-135.333 -53.333 -233.666 -80 -294.999 -80
c-146.667 0 -233 59 -259 177h-7c-36 -50 -80.667 -92.333 -134 -127c-60 -38.667 -117.667 -58 -173 -58c-89.333 0 -154 23 -194 69h-11c-5.33301 -26.667 -8 -63.334 -8 -110.001c0 -18.667 2.66699 -46.5 8 -83.5s8 -64.833 8 -83.5
c0 -64.667 -18 -115.834 -54 -153.501s-86 -56.5 -150 -56.5c-91.333 0 -137 43 -137 129c0 30 13.333 75.333 40 136l62 135c27.333 67.333 48 130.666 62 189.999l194 840l317 14l12 -14l-149 -643c-8 -34.667 -12 -65 -12 -91c0 -77.333 36 -116 108 -116
c47.333 0 90 12 128 36c24 16 57.333 46.667 100 92z" />
    <glyph glyph-name="paragraph" unicode="&#xb6;" horiz-adv-x="1274" 
d="M1413 1419l-23 -95.999h-221l-365 -1559h-110l366 1559h-173l-365 -1559h-110l214 900h-38c-144.667 0 -250 38.333 -316 115c-50.667 58.667 -76 133 -76 223c0 111.333 44 207.666 132 288.999c92.667 85.333 215 128 367 128h718z" />
    <glyph glyph-name="middot" unicode="&#xb7;" horiz-adv-x="692" 
d="M564 546c0 -53.333 -19.5 -99.167 -58.5 -137.5s-85.167 -57.5 -138.5 -57.5c-54 0 -100.5 19 -139.5 57s-58.5 84 -58.5 138s19.5 100.333 58.5 139s85.5 58 139.5 58c53.333 0 99.5 -19.5 138.5 -58.5s58.5 -85.167 58.5 -138.5z" />
    <glyph glyph-name="cedilla" unicode="&#xb8;" 
d="M443 -434c-58.667 -6.66699 -130.332 -10.001 -214.999 -10.001l18 78c139.333 0 222.333 12.333 249 37c13.333 12.667 20 30.334 20 53.001c0 36 -41.667 54 -125 54l53 239h86l-24 -113c144 0 216 -43 216 -129c0 -43.333 -11 -79.333 -33 -108
c-40.667 -53.333 -122.334 -87 -245.001 -101z" />
    <glyph glyph-name="onesuperior" unicode="&#xb9;" horiz-adv-x="1130" 
d="M834 490h-627.001l17 71c66.667 3.33301 115.667 9.66602 147 18.999c34.667 10.667 56.334 35 65.001 73l132 584h-197l19 83h40c81.333 0 151 16 209 48c46 25.333 82.667 52.333 110 81h134c-22.667 -78.667 -42.334 -154 -59.001 -226l-117 -506
c-10.667 -46 -16 -72.333 -16 -79c0 -23.333 10.667 -40.666 32 -51.999c26.667 -14 69.334 -22.333 128.001 -25z" />
    <glyph glyph-name="ordmasculine" unicode="&#xba;" horiz-adv-x="1130" 
d="M1131 1118c0 -155.333 -57.667 -281 -173 -377c-108.667 -90 -242 -135 -400 -135c-113.333 0 -205.333 28.333 -276 85c-77.333 62 -116 148 -116 258c0 154 56 278.667 168 374c106 89.333 237.667 134 395 134c118 0 212.333 -26.333 283 -79
c79.333 -59.333 119 -146 119 -260zM825 1029c8.66699 60 13 118.668 13 176.001c0 118 -42 177 -126 177c-66 0 -121 -37 -165 -111c-37.333 -62.667 -62.333 -144.667 -75 -246c-8 -65.333 -12 -120 -12 -164c0 -120 42.333 -180 127 -180c46 0 85.333 17.667 118 53
c60 63.333 100 161.666 120 294.999z" />
    <glyph glyph-name="guillemotright" unicode="&#xbb;" horiz-adv-x="1250" 
d="M1119 590c0 -77.333 -37.001 -140.333 -111.001 -189c-205.333 -134 -365.666 -235.667 -480.999 -305l-41 43l391 419l-223 394l61 43l215 -179c62.667 -52.667 110.667 -94.667 144 -126c30 -28.667 45 -62 45 -100zM679.999 590
c0 -77.333 -37.001 -140.333 -111.001 -189c-205.333 -134 -365.666 -235.667 -480.999 -305l-41 43l391 419l-223 394l61 43l215 -179c62.667 -52.667 110.667 -94.667 144 -126c30 -28.667 45 -62 45 -100z" />
    <glyph glyph-name="onequarter" unicode="&#xbc;" horiz-adv-x="2194" 
d="M773 490h-627.001l17 71c66.667 3.33301 115.667 9.66602 147 18.999c34.667 10.667 56.334 35 65.001 73l132 584h-197l19 83h40c81.333 0 151 16 209 48c46 25.333 82.667 52.333 110 81h134c-22.667 -78.667 -42.334 -154 -59.001 -226l-117 -506
c-10.667 -46 -16 -72.333 -16 -79c0 -23.333 10.667 -40.666 32 -51.999c26.667 -14 69.334 -22.333 128.001 -25zM1736 1429l-1090 -1429h-156l1088 1429h158zM2074 373l-34 -147h-155l-57 -246h-231l57 246h-499l33 145l653 594h214l-136 -592h155zM1786 797l-474 -424
h376z" />
    <glyph glyph-name="onehalf" unicode="&#xbd;" horiz-adv-x="2194" 
d="M763 490h-627.001l17 71c66.667 3.33301 115.667 9.66602 147 18.999c34.667 10.667 56.334 35 65.001 73l132 584h-197l19 83h40c81.333 0 151 16 209 48c46 25.333 82.667 52.333 110 81h134c-22.667 -78.667 -42.334 -154 -59.001 -226l-117 -506
c-10.667 -46 -16 -72.333 -16 -79c0 -23.333 10.667 -40.666 32 -51.999c26.667 -14 69.334 -22.333 128.001 -25zM1716 1429l-1090 -1429h-156l1088 1429h158zM1703 887c-25.333 0 -56.334 -6.66699 -93.001 -20l22 -60c7.33301 -21.333 11 -47 11 -77
c0 -36.667 -12.667 -65.667 -38 -87s-57 -32 -95 -32c-37.333 0 -67.5 12.667 -90.5 38s-34.5 56.666 -34.5 93.999c0 73.333 46 131.333 138 174c73.333 33.333 151 50 233 50c101.333 0 186.333 -15 255 -45c94 -41.333 141 -106.333 141 -195
c0 -113.333 -46 -204.666 -138 -273.999c-56 -42 -142.333 -84.333 -259 -127l-292 -111l-3 -12h629l-47 -203h-824l35 151c40.667 34 102.667 74.667 186 122c114.667 65.333 180.334 103.333 197.001 114c67.333 42.667 119.333 89.667 156 141c49.333 68 74 139 74 213
c0 97.333 -54.333 146 -163 146z" />
    <glyph glyph-name="threequarters" unicode="&#xbe;" horiz-adv-x="2194" 
d="M702 677c11.333 34.667 17.0029 76.9961 17.0029 126.996c0 83.333 -50.667 125 -152 125h-88l23 96h62c69.333 0 122.666 21.667 159.999 65c35.333 40.667 53 96.334 53 167.001c0 38.667 -15.667 69 -47 91c-27.333 19.333 -61.333 29 -102 29
c-34.667 0 -69.334 -6.33301 -104.001 -19l21 -58c7.33301 -20.667 11 -46 11 -76c0 -77.333 -42.333 -116 -127 -116c-37.333 0 -67.5 12.333 -90.5 37s-34.5 55.667 -34.5 93c0 70 48 126 144 168c76 34 153.667 51 233 51c131.333 0 229 -23.667 293 -71
c48.667 -36 73 -80 73 -132c0 -58 -19 -107.333 -57 -148c-51.333 -55.333 -129.333 -92.666 -234 -111.999v-11c69.333 -6 124 -22 164 -48c52.667 -34 79 -83 79 -147c0 -110 -53.333 -196 -160 -258c-89.333 -52 -193 -78 -311 -78c-88.667 0 -168.667 15 -240 45
c-94 40 -141 98.667 -141 176c0 38.667 11.167 70.334 33.5 95.001s52.833 37 91.5 37c38 0 69.5 -10.667 94.5 -32s37.5 -50.666 37.5 -87.999c0 -32 -10.667 -74.667 -32 -128c33.333 -16 67.666 -24 102.999 -24c31.333 0 63.333 4.66699 96 14
c64 18.667 107.667 62 131 130zM1863 1429l-1090 -1429h-156l1088 1429h158zM2124 372.996l-34 -147h-155l-57 -246h-231l57 246h-499l33 145l653 594h214l-136 -592h155zM1836 796.996l-474 -424h376z" />
    <glyph glyph-name="questiondown" unicode="&#xbf;" horiz-adv-x="1123" 
d="M992 1267c0 -51.333 -19.167 -95.333 -57.5 -132s-83.5 -55 -135.5 -55c-51.333 0 -96.166 18.333 -134.499 55s-57.5 80.667 -57.5 132s19.167 95 57.5 131s83.166 54 134.499 54c52 0 97.167 -18 135.5 -54s57.5 -79.667 57.5 -131zM967 259
c0 -95.333 -60.001 -170.001 -180.001 -224.001c-94 -42.667 -195 -64 -303 -64c-118 0 -217.333 29.333 -298 88c-89.333 66 -134 156 -134 270c0 162.667 66.333 291.334 199 386.001c112.667 81.333 255.667 128 429 140l29 136h86l-77 -389
c-114 -8.66699 -204.667 -39 -272 -91c-78 -59.333 -117 -143.333 -117 -252c0 -135.333 65 -203 195 -203c48 0 95.333 14.333 142 43c-20.667 66 -31 118.667 -31 158c0 49.333 16.667 88 50 116c30.667 25.333 71.334 38 122.001 38c46.667 0 85 -13.833 115 -41.5
s45 -64.5 45 -110.5z" />
    <glyph glyph-name="Agrave" unicode="&#xc0;" horiz-adv-x="1553" 
d="M892 571l-87 517l-324 -517h411zM732 0l17 73c145.333 11.333 218 32.666 218 63.999c0 14.667 -2.33301 35 -7 61l-50 279h-489c-42 -65.333 -82.667 -132.333 -122 -201c-34 -60 -51 -101.667 -51 -125c0 -40 63.667 -66 191 -78l-17 -73h-596l17 73
c63.333 4.66699 112.333 16 147 34c56.667 30 106 77.333 148 142l767 1190h198l128 -741c28.667 -168.667 58 -332 88 -490c8 -43.333 30 -77 66 -101c28 -19.333 69 -30.666 123 -33.999l-17 -73h-759z" />
    <glyph glyph-name="Aacute" unicode="&#xc1;" horiz-adv-x="1523" 
d="M1046 486c0 163.333 -94.666 245 -283.999 245c-30 0 -58.333 -1.33301 -85 -4l-128 -552c1.33301 -30 24.666 -53.333 69.999 -70c33.333 -12.667 68.333 -19 105 -19c96.667 0 175 40.667 235 122c58 78 87 170.667 87 278zM1439 494
c0 -152 -64.668 -274 -194.001 -366c-119.333 -85.333 -259.333 -128 -420 -128h-879l17 73c36.667 2.66699 86.334 10 149.001 22c30 10 51.667 26 65 48c10 15.333 17.333 33.666 22 54.999l228 989c6 26 9 45 9 57c0 34.667 -23 60.667 -69 78
c-20 7.33301 -57.333 15.333 -112 24l17 73h1253l-94 -406h-74c-7.33301 54.667 -24.666 113.334 -51.999 176.001c-34 78.667 -70.667 122.667 -110 132c-36.667 8.66699 -89.334 13 -158.001 13h-221l-118 -514c133.333 4.66699 199 7 197 7c166 0 295.333 -25 388 -75
c104 -56 156 -142 156 -258z" />
    <glyph glyph-name="Acircumflex" unicode="&#xc2;" horiz-adv-x="1555" 
d="M1131 1142c0 127.333 -75.667 190.999 -227 190.999c-13.333 0 -29 -0.333008 -47 -1l-42 -3l-124 -534h67c110 0 199 30 267 90c70.667 62.667 106 148.334 106 257.001zM1053 468.999c0 158.667 -97.667 238 -293 238c-30.667 0 -60.667 -1.33301 -90 -4l-122 -528
c0.666992 -29.333 24 -52.333 70 -69c34.667 -13.333 69.667 -20 105 -20c99.333 0 180.333 40 243 120c58 73.333 87 161 87 263zM1026 1419c332 0 498 -85.998 498 -257.998c0 -156 -95 -269.667 -285 -341c-55.333 -20.667 -112.333 -37 -171 -49l-4 -19
c106 -10.667 193.667 -39.667 263 -87c79.333 -54 119 -127 119 -219c0 -297.333 -241.667 -446 -725 -446h-776l17 73c62 2.66699 111.333 10 148 22c46.667 15.333 76 48.666 88 99.999l229 992c6 26 9 44.667 9 56c0 51.333 -60.333 85.666 -181 102.999l17 73h754z" />
    <glyph glyph-name="Atilde" unicode="&#xc3;" horiz-adv-x="1342" 
d="M1532 1419l-97.999 -425h-75c-8 62 -26 125.333 -54 190c-36 84 -76.333 130.333 -121 139c-38.667 7.33301 -95.334 11 -170.001 11h-198l-256 -1108c-5.33301 -23.333 -8 -42 -8 -56c0 -37.333 25.333 -63.666 76 -78.999c14 -4 54.667 -10 122 -18l-17 -73h-788l17 73
c72 6 122 13.667 150 23c46 14.667 75 48.667 87 102l228 989c5.33301 23.333 8 42.666 8 57.999c0 50 -60 83.667 -180 101l17 73h1260z" />
    <glyph glyph-name="Adieresis" unicode="&#xc4;" horiz-adv-x="1640" 
d="M402 4c-78.667 0 -136.998 -3.66895 -174.998 -11.002c-60.667 -12 -130.334 -58.667 -209.001 -140c-67.333 -69.333 -119 -138.333 -155 -207h-75l104 450h159c121.333 140 237 308.667 347 506c121.333 218.667 197.333 407.334 228 566.001c4.66699 24 7 47.667 7 71
c0 38 -19 64.667 -57 80c-19.333 8 -43 14 -71 18l-71 9l18 73h1313l-17 -73c-57.333 -3.33301 -107.333 -11.666 -150 -24.999c-46 -14 -75.333 -48 -88 -102l-231 -1003c-6 -18 -9 -35.667 -9 -53c0 -48.667 36 -73 108 -73h96l-103 -444h-71c-5.33301 66 -26 134 -62 204
c-42.667 82.667 -91.334 130 -146.001 142c-36 8 -92.333 12 -169 12h-521zM917.002 186.998l263 1140h-374c-48.667 -212.667 -126 -428.667 -232 -648c-107.333 -223.333 -229 -417.666 -365 -582.999h603c56 0 91 30.333 105 91z" />
    <glyph glyph-name="Aring" unicode="&#xc5;" horiz-adv-x="1477" 
d="M1520 1419l-83 -362h-76c-8 54.667 -27 107.667 -57 159c-36.667 61.333 -77.667 97.333 -123 108c-29.333 6.66699 -85.666 10 -168.999 10h-196l-128 -555h136c80 0 145.667 21 197 63c47.333 38.667 87 100 119 184h76l-137 -592h-76v37
c0 74.667 -10.667 127.667 -32 159c-28.667 42 -84.334 63 -167.001 63h-136l-91 -395c-12.667 -54.667 -19 -93 -19 -115c0 -47.333 22.667 -77.333 68 -90c18.667 -4.66699 61.667 -7 129 -7c164.667 0 267.667 17 309 51c37.333 30.667 83.333 78.667 138 144
c52 62 92 115.667 120 161h73l-129 -442h-1321l17 73c66.667 2.66699 116 9.33398 148 20.001c46.667 15.333 76 49.333 88 102l229 992c6 26 9 44.667 9 56c0 51.333 -60.333 85.666 -181 102.999l17 73h1248z" />
    <glyph glyph-name="AE" unicode="&#xc6;" horiz-adv-x="2310" 
d="M2415 1260c0 -54 -16.3311 -97.834 -48.998 -131.501s-76 -50.5 -130 -50.5c-63.333 0 -129.666 45.333 -198.999 136c-19.333 -23.333 -41 -57.666 -65 -102.999l-59 -109c-69.333 -114.667 -137.333 -193.667 -204 -237v-18c136 -44.667 228 -154.334 276 -329.001
c7.33301 -27.333 18.666 -66 33.999 -116l28 -98c19.333 -68.667 51.666 -107 97 -115c43.333 -8 79.666 -13.333 108.999 -16l-17 -73h-533c-12.667 88.667 -36.667 221 -72 397c-23.333 92 -51.666 155.333 -84.999 190c-39.333 41.333 -103.666 62.666 -192.999 63.999
l-97 -425c-6 -26 -9 -45.333 -9 -58c0 -35.333 21 -60.666 63 -75.999c18.667 -6 55 -12.333 109 -19l-17 -73h-751l17 73c64.667 2.66699 113.334 9.33398 146.001 20.001c45.333 15.333 74 49.333 86 102l106 456c-93.333 0 -170.666 -22 -231.999 -66
c-50 -36.667 -102.333 -99.334 -157 -188.001c-19.333 -31.333 -89.333 -163.666 -210 -396.999h-548l16 73l99 12c36.667 8 65.667 22.667 87 44c30.667 30.667 70 86.667 118 168l74 123c109.333 181.333 260.666 290.333 453.999 327v18
c-44 39.333 -77.333 113.333 -100 222c-14.667 70 -22.334 106 -23.001 108c-12 49.333 -24.667 82.333 -38 99c-64 -77.333 -129.333 -116 -196 -116c-112.667 0 -169 57 -169 171c0 48 17.667 90.333 53 127c40 41.333 95.333 62 166 62c83.333 0 149 -25.333 197 -76
c50.667 -53.333 87 -144 109 -272c22.667 -130.667 60.667 -227.334 114 -290.001c34 -40 83.333 -60 148 -60h59l101 447c6 26.667 9 46 9 58c0 52 -58.333 85.667 -175 101l17 73h751l-17 -73c-50 -3.33301 -97.333 -11.666 -142 -24.999s-73.334 -47.333 -86.001 -102
l-111 -479h70c63.333 0 118.666 20 165.999 60c87.333 74 160.666 171.667 219.999 293c62.667 128.667 120 217.667 172 267c54.667 52 121 78 199 78c60 0 109.667 -14.333 149 -43c43.333 -32 65 -77 65 -135z" />
    <glyph glyph-name="Ccedilla" unicode="&#xc7;" horiz-adv-x="1402" 
d="M1364 1171c0 -88 -31.001 -164.333 -93.001 -229c-80 -83.333 -198.667 -139.666 -356 -168.999l-3 -13c105.333 -4.66699 191 -27 257 -67c82.667 -50 124 -124.333 124 -223c0 -154.667 -79.667 -279.334 -239 -374.001c-151.333 -90 -330 -135 -536 -135
c-136 0 -248.333 23.667 -337 71c-112.667 60 -169 152 -169 276c0 46.667 19 87 57 121c36 32.667 77.667 49 125 49c121.333 0 182 -54 182 -162c0 -36.667 -8 -74.667 -24 -114l-38 -92c48 -38 108.667 -57 182 -57c122 0 220.667 42.333 296 127
c72 81.333 108 183.666 108 306.999c0 60.667 -17.333 108 -52 142c-40.667 40 -106.667 60 -198 60h-141l30 119h108c107.333 0 190 34.333 248 103c54 64 81 150.667 81 260c0 58.667 -17.167 105.334 -51.5 140.001s-80.833 52 -139.5 52
c-98.667 0 -198.667 -53.333 -300 -160c-76 -79.333 -142.667 -176 -200 -290h-90l127 506h90l49 -55c138.667 62 278.334 93 419.001 93c120 0 223 -18.333 309 -55c116.667 -50 175 -127 175 -231z" />
    <glyph glyph-name="Egrave" unicode="&#xc8;" horiz-adv-x="1887" 
d="M-55 0l17 72.9961c66.667 2.66699 116 9.33398 148 20.001c46.667 15.333 76 49.333 88 102l229 992c6 26 9 44.667 9 56c0 51.333 -60.333 85.666 -181 102.999l17 73h761l-17 -73c-52.667 -3.33301 -101.5 -11.666 -146.5 -24.999s-73.833 -47.333 -86.5 -102
l-189 -806l812 786c4.66699 20 7 35 7 45c0 32.667 -20 57 -60 73c-10.667 4.66699 -49.667 14.334 -117 29.001l17 73h758l-17 -73c-57.333 -3.33301 -107.333 -11.666 -150 -24.999c-45.333 -14 -74.333 -48 -87 -102l-229 -993c-6 -26 -9 -45 -9 -57
c0 -52 60.667 -84 182 -96l-17 -73h-761l17 73c36 2 83.667 8.33301 143 19c46.667 17.333 76 51.333 88 102l193 823l-812 -786c-6.66699 -28.667 -10 -50.667 -10 -66c0 -34.667 22.333 -59 67 -73c15.333 -5.33301 52.333 -11.666 111 -18.999l-17 -73h-758z" />
    <glyph glyph-name="Eacute" unicode="&#xc9;" horiz-adv-x="1887" 
d="M-55 0l17 72.9961c66.667 2.66699 116 9.33398 148 20.001c46.667 15.333 76 49.333 88 102l229 992c6 26 9 44.667 9 56c0 51.333 -60.333 85.666 -181 102.999l17 73h761l-17 -73c-52.667 -3.33301 -101.5 -11.666 -146.5 -24.999s-73.833 -47.333 -86.5 -102
l-189 -806l812 786c4.66699 20 7 35 7 45c0 32.667 -20 57 -60 73c-10.667 4.66699 -49.667 14.334 -117 29.001l17 73h758l-17 -73c-57.333 -3.33301 -107.333 -11.666 -150 -24.999c-45.333 -14 -74.333 -48 -87 -102l-229 -993c-6 -26 -9 -45 -9 -57
c0 -52 60.667 -84 182 -96l-17 -73h-761l17 73c36 2 83.667 8.33301 143 19c46.667 17.333 76 51.333 88 102l193 823l-812 -786c-6.66699 -28.667 -10 -50.667 -10 -66c0 -34.667 22.333 -59 67 -73c15.333 -5.33301 52.333 -11.666 111 -18.999l-17 -73h-758zM1155 1608
c80 0 160.999 23.3311 242.999 69.998c76 43.333 140.667 99 194 167l66 -51c-58 -83.333 -133.333 -151 -226 -203c-95.333 -53.333 -192.333 -80 -291 -80c-128 0 -224.667 22.333 -290 67c-52.667 36 -79 81.667 -79 137c0 44.667 14.333 81.334 43 110.001
s65.334 43 110.001 43c29.333 0 56 -6.66699 80 -20c28.667 -15.333 43 -36.666 43 -63.999c0 -46 -19.333 -91.333 -58 -136c44.667 -26.667 99.667 -40 165 -40z" />
    <glyph glyph-name="Ecircumflex" unicode="&#xca;" horiz-adv-x="1628" 
d="M1729 1261c0 -54.667 -16.002 -98.8311 -48.002 -132.498s-75 -50.5 -129 -50.5c-64.667 0 -131.667 45.333 -201 136c-22.667 -18.667 -48 -51.334 -76 -98.001l-66 -110c-73.333 -114 -146 -194.333 -218 -241v-18c157.333 -44 260.666 -154.333 309.999 -331l31 -111
l27 -97c14 -40.667 29 -69.334 45 -86.001c16.667 -18.667 35 -29.667 55 -33c24.667 -4 62.334 -9.33301 113.001 -16l-18 -73h-534c-13.333 89.333 -37.666 221.666 -72.999 396.999c-23.333 89.333 -54.666 152.333 -93.999 189c-43.333 41.333 -108.666 63 -195.999 65
l-97 -425c-6 -26 -9 -44.333 -9 -55c0 -37.333 21.667 -63.666 65 -78.999c18 -6 55.667 -12.333 113 -19l-17 -73h-767l17 73c64.667 2.66699 114 9.66699 148 21c46.667 15.333 76 49 88 101l229 992c6 26 9 44.667 9 56c0 51.333 -60.333 85.666 -181 102.999l17 73h767
l-17 -73c-52 -3.33301 -100.667 -11.833 -146 -25.5s-74.333 -47.5 -87 -101.5l-111 -479h48c69.333 0 127.666 20 174.999 60c92.667 78.667 171 177 235 295c35.333 64.667 62 111.334 80 140.001c32 50 65.333 91.667 100 125c54 52 120.667 78 200 78
c60 0 109.333 -14 148 -42c43.333 -32 65 -77 65 -135z" />
    <glyph glyph-name="Edieresis" unicode="&#xcb;" horiz-adv-x="1705" 
d="M1346 226c-6 -26 -9 -44.668 -9 -56.001c0 -52 60.667 -84.333 182 -97l-17 -73h-772l17 73c38 2 87.333 8 148 18c46.667 17.333 76 51.333 88 102l262 1134h-342c-109.333 -440 -249.333 -784.667 -420 -1034c-148 -216 -286 -324 -414 -324
c-130.667 0 -196 56 -196 168c0 64 18.5 116.167 55.5 156.5s87.167 60.5 150.5 60.5c64 0 131.333 -42.667 202 -128c87.333 99.333 167.333 221.333 240 366c108 214 176.333 411.333 205 592c2.66699 16.667 4 32 4 46c0 38 -15.667 65 -47 81
c-20.667 10.667 -69.667 22.334 -147 35.001l18 73h1275l-17 -73c-57.333 -4 -107 -12.333 -149 -25c-46 -14 -75.333 -48 -88 -102z" />
    <glyph glyph-name="Igrave" unicode="&#xcc;" horiz-adv-x="2116" 
d="M2246 1419l-17 -73.0039c-55.333 -3.33301 -104.333 -11.666 -147 -24.999c-46.667 -14.667 -76 -48.667 -88 -102l-223 -993c-6 -26.667 -9 -45 -9 -55c0 -37.333 22.667 -63.666 68 -78.999c19.333 -6.66699 57.333 -13 114 -19l-17 -73h-767l17 73
c36.667 4 85.334 12.333 146.001 25c50.667 18.667 82 54.334 94 107.001l240 1065h-10l-771 -1247h-126c-1.33301 26 -6 68 -14 126l-22 162l-136 975h-10l-200 -869c-17.333 -75.333 -26 -136 -26 -182c0 -45.333 10.667 -78.666 32 -99.999
c30 -30 84.667 -50.667 164 -62l-17 -73h-610l17 73c86.667 10 148.667 26.667 186 50c52.667 32.667 97 127.334 133 284.001l162 701c8.66699 37.333 13 68 13 92c0 40.667 -11.333 72 -34 94c-30 29.333 -81.667 46.666 -155 51.999l17 73h649l136 -937l465 761
c43.333 71.333 71.666 130 84.999 176h661z" />
    <glyph glyph-name="Iacute" unicode="&#xcd;" horiz-adv-x="1870" 
d="M1994 1419l-17 -73.0029c-57.333 -4 -107 -12.333 -149 -25c-46 -14 -75.333 -48 -88 -102l-229 -993c-6 -26 -9 -44.333 -9 -55c0 -37.333 22.667 -63.666 68 -78.999c20.667 -7.33301 58.667 -13.666 114 -18.999l-17 -73h-767l17 73c36.667 2 84.334 8 143.001 18
c48 17.333 77.667 51.333 89 102l113 497h-596l-106 -464c-6 -26 -9 -44.333 -9 -55c0 -37.333 22 -63.666 66 -78.999c19.333 -6.66699 56.666 -13 111.999 -19l-17 -73h-767l17 73c66.667 2.66699 116 9.33398 148 20.001c46.667 15.333 76 49.333 88 102l229 992
c6 26 9 44.667 9 56c0 51.333 -60.333 85.666 -181 102.999l17 73h767l-17 -73c-52 -3.33301 -100.667 -11.833 -146 -25.5s-74.333 -47.5 -87 -101.5l-99 -431h596l92 399c6 26 9 44.667 9 56c0 48.667 -59 83 -177 103l17 73h767z" />
    <glyph glyph-name="Icircumflex" unicode="&#xce;" horiz-adv-x="1679" 
d="M1661 875c0 -252 -85.665 -465 -256.998 -639c-180.667 -183.333 -406.334 -275 -677.001 -275c-182.667 0 -333.334 51 -452.001 153c-125.333 108 -188 251.667 -188 431c0 186.667 52 356 156 508s242.333 263.667 415 335c112.667 46.667 231.667 70 357 70
c185.333 0 337.333 -50 456 -150c126.667 -106.667 190 -251 190 -433zM1239 652c22 108 33 214.668 33 320.001c0 262 -93 393 -279 393c-154.667 0 -281.667 -98.333 -381 -295c-90.667 -180 -136 -388 -136 -624c0 -108.667 19.333 -197 58 -265
c48 -84.667 122 -127 222 -127c80.667 0 154 28 220 84c128 109.333 215.667 280.666 263 513.999z" />
    <glyph glyph-name="Idieresis" unicode="&#xcf;" horiz-adv-x="1844" 
d="M1968 1419l-17 -73.0029c-57.333 -3.33301 -107.333 -11.666 -150 -24.999c-45.333 -14 -74.333 -48 -87 -102l-229 -993c-6 -26 -9 -44.333 -9 -55c0 -37.333 22.333 -63.666 67 -78.999c22 -7.33301 60.333 -13.666 115 -18.999l-18 -73h-761l17 73
c34.667 2 80.334 8 137.001 18c27.333 10 47.666 23.333 60.999 40s22.666 37.334 27.999 62.001l259 1125h-570l-251 -1092c-6 -26 -9 -44.667 -9 -56c0 -36 21 -61.667 63 -77c19.333 -7.33301 55.333 -14 108 -20l-17 -73h-761l17 73
c64.667 2.66699 114.334 9.66699 149.001 21c46.667 15.333 76 49 88 101l228 992c6 26 9 44.667 9 56c0 51.333 -60 85.666 -180 102.999l17 73h1696z" />
    <glyph glyph-name="Eth" unicode="&#xd0;" horiz-adv-x="1446" 
d="M1532 1121c0 -166 -73 -293.999 -219 -383.999c-136.667 -84 -310 -126 -520 -126h-144l-89 -385c-6 -26 -9 -44.333 -9 -55c0 -37.333 22.667 -63.666 68 -78.999c19.333 -6.66699 57.333 -13 114 -19l-17 -73h-771l17 73c62 2.66699 111.333 10 148 22
c46.667 15.333 76 48.666 88 99.999l229 992c6 26 9 44.667 9 56c0 51.333 -60.333 85.666 -181 102.999l17 73h769c327.333 0 491 -99.333 491 -298zM1136 1118c0 143.333 -82.334 215 -247.001 215h-73l-146 -633h65c140 0 243.667 41 311 123
c30.667 37.333 53.334 81 68.001 131s22 104.667 22 164z" />
    <glyph glyph-name="Ntilde" unicode="&#xd1;" horiz-adv-x="1465" 
d="M721 -38c-187.333 0 -339.334 52.333 -456.001 157c-118.667 106.667 -178 251 -178 433c0 244.667 86 456 258 634c174.667 180.667 391.667 271 651 271c66.667 0 137.667 -7.66699 213 -23c86.667 -17.333 153.334 -40.666 200.001 -69.999l75 55h87l-111 -518h-88
c-11.333 130.667 -44 236 -98 316c-66.667 98.667 -160.334 148 -281.001 148c-159.333 0 -288.666 -93.667 -387.999 -281c-84.667 -160 -127 -348.333 -127 -565c0 -122.667 28.333 -221.334 85 -296.001c63.333 -84 154 -126 272 -126c178 0 344.667 103.667 500 311
l77 -52c-77.333 -120 -168 -212.333 -272 -277c-125.333 -78 -265 -117 -419 -117z" />
    <glyph glyph-name="Ograve" unicode="&#xd2;" horiz-adv-x="1401" 
d="M1591 1419l-93.998 -406h-77c-13.333 114.667 -44 205.334 -92 272.001c-17.333 23.333 -37 36.666 -59 39.999c-42.667 6.66699 -95 10 -157 10h-50l-255 -1103c-6 -26 -9 -44.333 -9 -55c0 -35.333 15 -59.333 45 -72c36 -15.333 84.667 -26 146 -32l-17 -73h-791
l17 73c83.333 6 136.333 13.333 159 22c46 17.333 75.333 53 88 107l262 1133h-39c-52.667 0 -107.334 -3.33301 -164.001 -10c-38.667 -4.66699 -94.334 -46.667 -167.001 -126c-53.333 -58.667 -99.333 -120.667 -138 -186h-77l94 406h1375z" />
    <glyph glyph-name="Oacute" unicode="&#xd3;" horiz-adv-x="1460" 
d="M1720 1419l-17.998 -73.002c-51.333 -4 -97 -16.833 -137 -38.5s-84 -65.167 -132 -130.5c-64.667 -87.333 -155 -216.666 -271 -387.999l-269 -388c-132 -181.333 -244 -303 -336 -365c-70 -47.333 -143 -71 -219 -71c-58 0 -109.333 16 -154 48
c-50.667 36 -76 81.667 -76 137c0 42 11.667 79.667 35 113c27.333 39.333 71 59 131 59c77.333 0 161 -58 251 -174c63.333 34.667 126.666 98.334 189.999 191.001l-186 439c-72.667 168.667 -138.334 313 -197.001 433c-23.333 47.333 -53 80.833 -89 100.5
s-76 31.167 -120 34.5l18 73h768l-18 -73c-134.667 -4.66699 -202 -22.334 -202 -53.001c0 -9.33301 5 -26.666 15 -51.999c16.667 -42 47.667 -114 93 -216l159 -362l265 410c66.667 106.667 100 173 100 199c0 35.333 -62.667 60 -188 74l18 73h569z" />
    <glyph glyph-name="Ocircumflex" unicode="&#xd4;" horiz-adv-x="1867" 
d="M1864 798c0 -164 -62.667 -299.665 -188 -406.998c-146 -125.333 -348 -188 -606 -188h-39c-7.33301 -36.667 -11 -60 -11 -70c0 -34.667 23.333 -57.667 70 -69c17.333 -4.66699 54.333 -8.33398 111 -11.001l-17 -73h-744l17 73c35.333 2 81.333 8.33301 138 19
c23.333 9.33301 41.166 21.166 53.499 35.499s21.166 34.166 26.499 59.499l7 34c-163.333 0 -297.666 31.333 -402.999 94c-127.333 76.667 -191 191.334 -191 344.001c0 161.333 61.667 296.333 185 405c140 123.333 341.667 185 605 185h42c4.66699 24 7 40.333 7 49
c0 47.333 -56 78 -168 92l17 73h735l-17 -73c-57.333 -2 -103.666 -8.66699 -138.999 -20c-41.333 -13.333 -70.333 -53.333 -87 -120c168.667 0 304 -29.333 406 -88c126.667 -73.333 190 -188 190 -344zM1469 668.002c15.333 65.333 22.999 130.001 22.999 194.001
c0 82.667 -15.333 147 -46 193c-39.333 59.333 -104.666 89 -195.999 89l-197 -856h37c69.333 0 130 18.333 182 55c95.333 67.333 161 175.666 197 324.999zM898.999 1144h-36.999c-130 0 -233 -66 -309 -198c-62 -107.333 -93 -232 -93 -374
c0 -80.667 15.333 -144.667 46 -192c39.333 -61.333 104.666 -92 195.999 -92z" />
    <glyph glyph-name="Otilde" unicode="&#xd5;" horiz-adv-x="1643" 
d="M1792 1419l-17.0029 -73.001c-85.333 -2 -166 -34 -242 -96c-63.333 -52 -162.666 -141 -297.999 -267l-215 -198c8 -18 91 -191.333 249 -520c42 -87.333 89 -142 141 -164c36.667 -15.333 80.334 -24.666 131.001 -27.999l-17 -73h-834l17 73
c141.333 8.66699 212 32 212 70c0 22 -12.333 63 -37 123c-40.667 98.667 -86.667 202.667 -138 312l-176 -168l-142 -141c-68 -68.667 -102 -115.334 -102 -140.001c0 -29.333 49.667 -48 149 -56l-17 -73h-575l17 73c30 2 53.667 5 71 9c15.333 4 32 9.66699 50 17
c61.333 25.333 138.333 80.333 231 165l203 186l244 227l-113 242l-114 235c-40.667 84 -88.667 138.333 -144 163c-34.667 15.333 -77.667 25 -129 29l17 73h836l-17 -73c-142.667 -7.33301 -214 -31.333 -214 -72c0 -19.333 10.667 -55.666 32 -108.999l123 -282l292 288
c55.333 60 83 100 83 120c0 13.333 -10 24.333 -30 33c-23.333 10 -63.666 17.333 -120.999 22l17 73h577z" />
    <glyph glyph-name="Odieresis" unicode="&#xd6;" horiz-adv-x="1846" 
d="M-55 0l17.001 72.998c62 2 111.333 8.66699 148 20c46 14.667 75.333 48.667 88 102l229 992c5.33301 23.333 8 41.666 8 54.999c0 34.667 -22.667 60.667 -68 78c-18.667 7.33301 -56 16 -112 26l17 73h760l-17 -73c-48 -3.33301 -94.5 -11.833 -139.5 -25.5
s-73.833 -47.5 -86.5 -101.5l-229 -993c-5.33301 -23.333 -8 -41.333 -8 -54c0 -51.333 32.667 -77.666 98 -78.999c98 -2 155.333 -3 172 -3c81.333 0 146.666 1 195.999 3c56 2 90.667 32 104 90l232 1004c5.33301 23.333 8 40.333 8 51c0 35.333 -20.333 62 -61 80
c-18.667 8 -54.667 17.333 -108 28l17 73h760l-17 -73c-57.333 -3.33301 -107.333 -11.666 -150 -24.999c-45.333 -14 -74.333 -48 -87 -102l-232 -1004c-5.33301 -16 -8 -34 -8 -54c0 -48 35.667 -72 107 -72h96l-102 -443h-71c-4.66699 64.667 -25.334 132 -62.001 202
c-43.333 80.667 -92.333 127.334 -147 140.001c-35.333 8 -91.666 12 -168.999 12h-1183z" />
    <glyph glyph-name="multiply" unicode="&#xd7;" horiz-adv-x="1704" 
d="M1087 642c-166.667 -99.333 -316.997 -149 -450.997 -149c-244 0 -367 91.667 -369 275c-0.666992 41.333 3.66602 81.666 12.999 120.999l69 299c6 26 9 43.667 9 53c0 35.333 -21.333 61.666 -64 78.999c-18.667 8 -55.334 16.667 -110.001 26l17 73h751l-17 -73
c-52 -4 -98.333 -12.333 -139 -25c-44 -14 -72.333 -48 -85 -102l-54 -235c-10.667 -46.667 -16 -93 -16 -139c0 -119.333 60 -179 180 -179c88 0 184 24 288 72l104 450c5.33301 23.333 8 41.333 8 54c0 34.667 -20 60.667 -60 78c-17.333 7.33301 -52.666 16 -105.999 26
l17 73h757l-17 -73c-57.333 -3.33301 -107.333 -11.666 -150 -24.999c-45.333 -14 -74.333 -48 -87 -102l-229 -993c-5.33301 -23.333 -8 -42 -8 -56c0 -36.667 22.333 -62.667 67 -78c21.333 -7.33301 59.333 -13.666 114 -18.999l-17 -73h-777l17 73
c37.333 2 88.333 9 153 21c27.333 10 47.666 23.5 60.999 40.5s22.666 37.5 27.999 61.5z" />
    <glyph glyph-name="Oslash" unicode="&#xd8;" horiz-adv-x="2629" 
d="M-55 0l17.002 72.9971c67.333 2.66699 117 9.33398 149 20.001c46 15.333 75 49.333 87 102l229 992c6 26 9 44.333 9 55c0 34.667 -22.333 61 -67 79c-18 6.66699 -55.667 15 -113 25l17 73h741l-17 -73c-38 -2.66699 -80.333 -11 -127 -25
c-43.333 -13.333 -71.333 -47.333 -84 -102l-229 -993c-6 -26 -9 -44 -9 -54c0 -51.333 33 -77.666 99 -78.999c107.333 -2 156.333 -3 147 -3c54 0 105.667 1 155 3c56 2 90.667 32 104 90l231 1004c6 26 9 45 9 57c0 32.667 -19.333 57.334 -58 74.001
c-12.667 6 -46.334 15.333 -101.001 28l17 73h724l-17 -73c-42.667 -2.66699 -86 -10.834 -130 -24.501s-72.333 -47.834 -85 -102.501l-229 -993c-6 -18 -9 -36 -9 -54c0 -51.333 33 -77.666 99 -78.999c107.333 -2 156.333 -3 147 -3c53.333 0 105 1 155 3
c40 1.33301 67.667 13.666 83 36.999c8.66699 13.333 15.667 31 21 53l231 1004c6 26 9 45 9 57c0 32.667 -19.333 57.334 -58 74.001c-12.667 5.33301 -46.334 14.666 -101.001 27.999l17 73h746l-17 -73c-56.667 -3.33301 -106.667 -11.666 -150 -24.999
c-45.333 -14 -74.333 -48 -87 -102l-233 -1006c-4 -17.333 -6 -31.666 -6 -42.999c0 -36 22.667 -61.667 68 -77c20.667 -7.33301 58.667 -14 114 -20l-17 -73h-2481z" />
    <glyph glyph-name="Ugrave" unicode="&#xd9;" horiz-adv-x="2630" 
d="M-55 0l17.002 72.998c67.333 2.66699 117 9.33398 149 20.001c46 15.333 75 49.333 87 102l229 992c6 26 9 44.333 9 55c0 34.667 -22.333 61 -67 79c-18 6.66699 -55.667 15 -113 25l17 73h741l-17 -73c-38 -2.66699 -80.333 -11 -127 -25
c-43.333 -13.333 -71.333 -47.333 -84 -102l-229 -993c-6 -26 -9 -44 -9 -54c0 -51.333 33 -77.666 99 -78.999c107.333 -2 156.333 -3 147 -3c54 0 105.667 1 155 3c56 2 90.667 32 104 90l231 1004c6 26 9 45 9 57c0 32.667 -19.333 57.334 -58 74.001
c-12.667 6 -46.334 15.333 -101.001 28l17 73h724l-17 -73c-42.667 -2.66699 -86 -10.834 -130 -24.501s-72.333 -47.834 -85 -102.501l-229 -993c-6 -18 -9 -36 -9 -54c0 -51.333 33 -77.666 99 -78.999c107.333 -2 156.333 -3 147 -3c53.333 0 105 1 155 3
c40 1.33301 67.667 13.666 83 36.999c8.66699 13.333 15.667 31 21 53l231 1004c6 26 9 45 9 57c0 32.667 -19.333 57.334 -58 74.001c-12.667 5.33301 -46.334 14.666 -101.001 27.999l17 73h746l-17 -73c-56.667 -3.33301 -106.667 -11.666 -150 -24.999
c-45.333 -14 -74.333 -48 -87 -102l-232 -1004c-6 -18 -9 -35.333 -9 -52c0 -49.333 36 -74 108 -74h96l-102 -443h-71c-5.33301 65.333 -26.333 132.666 -63 201.999c-42.667 80.667 -91.334 127.334 -146 140.001c-35.333 8 -92 12 -170 12h-1966z" />
    <glyph glyph-name="Uacute" unicode="&#xda;" horiz-adv-x="1753" 
d="M1310 486c0 163.333 -94.333 245 -283 245c-29.333 0 -57.333 -1.33301 -84 -4l-128 -552c1.33301 -29.333 24.333 -52.333 69 -69c34.667 -13.333 69.667 -20 105 -20c96 0 174 40.667 234 122c58 78 87 170.667 87 278zM1703 494
c0 -152 -64.3311 -273.999 -192.998 -365.999c-119.333 -85.333 -259.333 -128 -420 -128h-889l17 73c40 3.33301 92.667 10.666 158 21.999c47.333 16 77 50.333 89 103l262 1137h-60c-52 0 -106.333 -3.33301 -163 -10c-38.667 -4.66699 -94.334 -46.667 -167.001 -126
c-53.333 -58.667 -99.333 -120.667 -138 -186h-77l94 406h1104l-17 -73c-67.333 -4 -120.666 -12.333 -159.999 -25c-46 -14.667 -75 -48.667 -87 -102l-92 -399c133.333 4.66699 198.666 7 195.999 7c165.333 0 294.666 -25 387.999 -75
c103.333 -55.333 155 -141.333 155 -258z" />
    <glyph glyph-name="Ucircumflex" unicode="&#xdb;" horiz-adv-x="2267" 
d="M1044 486c0 163.333 -94.332 244.999 -282.999 244.999c-29.333 0 -57.333 -1.33301 -84 -4l-128 -552c1.33301 -30 24.333 -53.333 69 -70c33.333 -12.667 68.333 -19 105 -19c97.333 0 175.666 40.667 234.999 122c57.333 78.667 86 171.334 86 278.001zM1437 493.999
c0 -152 -64.333 -273.998 -193 -365.998c-119.333 -85.333 -259.333 -128 -420 -128h-878l17 73c36.667 2.66699 86.334 10 149.001 22c30 10 51.667 26 65 48c10 15.333 17.333 33.666 22 54.999l228 989c6 26 9 45 9 57c0 34 -22.667 59.667 -68 77
c-15.333 5.33301 -53 13.666 -113 24.999l17 73h781l-17 -73c-67.333 -4 -120.666 -12.333 -159.999 -25c-46 -14.667 -75 -48.667 -87 -102l-91 -399c133.333 4.66699 198.666 7 195.999 7c165.333 0 294.666 -25 387.999 -75c103.333 -55.333 155 -141.333 155 -258z
M1773 1187c6 26 9 44.665 9 55.998c0 50 -63 84.333 -189 103l17 73h777l-17 -73c-55.333 -3.33301 -104.333 -11.666 -147 -24.999c-46 -14 -75.333 -48 -88 -102l-229 -993c-6 -26.667 -9 -45 -9 -55c0 -37.333 23.333 -63.666 70 -78.999c16 -4.66699 55.333 -11 118 -19
l-17 -73h-760l17 73c52.667 2 96.667 9 132 21c46 15.333 75 49 87 101z" />
    <glyph glyph-name="Udieresis" unicode="&#xdc;" horiz-adv-x="1487" 
d="M1044 486c0 163.333 -94.332 244.999 -282.999 244.999c-29.333 0 -57.333 -1.33301 -84 -4l-128 -552c1.33301 -30 24.333 -53.333 69 -70c33.333 -12.667 68.333 -19 105 -19c97.333 0 175.666 40.667 234.999 122c57.333 78.667 86 171.334 86 278.001zM1437 493.999
c0 -152 -64.333 -273.998 -193 -365.998c-119.333 -85.333 -259.333 -128 -420 -128h-878l17 73c36.667 2.66699 86.334 10 149.001 22c30 10 51.667 26 65 48c10 15.333 17.333 33.666 22 54.999l228 989c6 26 9 45 9 57c0 34 -22.667 59.667 -68 77
c-15.333 5.33301 -53 13.666 -113 24.999l17 73h781l-17 -73c-67.333 -4 -120.666 -12.333 -159.999 -25c-46 -14.667 -75 -48.667 -87 -102l-91 -399c133.333 4.66699 198.666 7 195.999 7c165.333 0 294.666 -25 387.999 -75c103.333 -55.333 155 -141.333 155 -258z" />
    <glyph glyph-name="Yacute" unicode="&#xdd;" horiz-adv-x="1495" 
d="M1478 906c0 -250 -89.001 -468.001 -267.001 -654.001c-186 -194 -406.667 -291 -662 -291c-140 0 -256.333 20.667 -349 62c-126.667 56.667 -190 146.334 -190 269.001c0 51.333 17 94 51 128s76.667 51 128 51c54.667 0 98.334 -14 131.001 -42
c35.333 -29.333 53 -70.666 53 -123.999c0 -41.333 -21 -104 -63 -188c36.667 -43.333 96.667 -65 180 -65c138.667 0 261 58.667 367 176c114 126.667 189 298.667 225 516c-128.667 -108.667 -227.334 -163 -296.001 -163c-46.667 0 -97 15 -151 45s-103.333 45 -148 45
c-57.333 0 -109 -12.333 -155 -37l-28 48c132 127.333 244 191 336 191c47.333 0 96.333 -14.5 147 -43.5s98 -43.5 142 -43.5c51.333 0 106.333 12.667 165 38c7.33301 51.333 11 97.333 11 138c0 112 -22.333 203.333 -67 274c-53.333 84.667 -132.666 127 -237.999 127
c-98 0 -199.667 -52 -305 -156c-73.333 -72 -145.333 -170 -216 -294h-90l126 506h89l47 -55c138 62.667 275.667 94 413 94c180.667 0 326 -46.333 436 -139c118.667 -98.667 178 -236.334 178 -413.001z" />
    <glyph glyph-name="Thorn" unicode="&#xde;" horiz-adv-x="2423" 
d="M1989 671c20 110 30 220.667 30 332c0 241.333 -85.333 362 -256 362c-145.333 0 -267 -101.333 -365 -304c-87.333 -180.667 -131 -390 -131 -628c0 -252.667 88 -379 264 -379c82.667 0 155.667 30.333 219 91c116 112 195.667 287.333 239 526zM560 226
c-6 -26 -8.99902 -44.3311 -8.99902 -54.998c0 -36.667 16.667 -61.667 50 -75c22 -8.66699 62.667 -16.334 122 -23.001l-17 -73h-761l17 73c64.667 2.66699 114 9.66699 148 21c46.667 15.333 76 49 88 101l229 992c6 26 9 44.667 9 56
c0 51.333 -60.333 85.666 -181 102.999l17 73h761l-17 -73c-46.667 -3.33301 -93 -11.833 -139 -25.5s-75.333 -47.5 -88 -101.5l-100 -431h240c57.333 209.333 165.333 375.333 324 498c148.667 114.667 324.667 172 528 172c184.667 0 333.667 -51.667 447 -155
c118 -107.333 177 -251 177 -431c0 -247.333 -81.667 -458.333 -245 -633c-173.333 -185.333 -391 -278 -653 -278c-180.667 0 -326.334 50.333 -437.001 151c-114 103.333 -171 244.333 -171 423c0 56 4 107.333 12 154h-245z" />
    <glyph glyph-name="germandbls" unicode="&#xdf;" horiz-adv-x="1645" 
d="M1048 731l139 602.999h-173c-92.667 0 -168 -41.333 -226 -124c-50.667 -73.333 -76 -158.666 -76 -255.999c0 -148.667 75.667 -223 227 -223h109zM1027 641.999h-66.001c-57.333 0 -108.666 -15.667 -153.999 -47c-48.667 -33.333 -105.334 -100 -170.001 -200
c-17.333 -26.667 -89 -158.334 -215 -395.001h-557l17 73c24.667 1.33301 61.334 6 110.001 14c52 13.333 98.667 51.333 140 114l154 242c84.667 122 205.667 200 363 234l4 18c-224.667 31.333 -337 128.333 -337 291c0 141.333 64 251.666 192 330.999
c108.667 68 238 102 388 102h874l-18 -73c-57.333 -4 -107 -12.333 -149 -25c-46 -14 -75.333 -48 -88 -102l-229 -993c-6 -26.667 -9 -45 -9 -55c0 -37.333 22.333 -63.666 67 -78.999c16 -5.33301 54.333 -11.666 115 -18.999l-17 -73h-760l17 73c34.667 2 80 8 136 18
c48 17.333 77.667 51.333 89 102z" />
    <glyph glyph-name="agrave" unicode="&#xe0;" horiz-adv-x="1352" 
d="M760 125l-8 -0.000976562c-57.333 -49.333 -106 -84.333 -146 -105c-65.333 -34 -129 -51 -191 -51c-116.667 0 -205 35.333 -265 106c-56.667 66 -85 158.333 -85 277c0 180.667 59.667 336.334 179 467.001s262.333 196 429 196c116.667 0 206 -26 268 -78l307 63
l14 -16l-147 -615c-17.333 -72.667 -26 -122 -26 -148c0 -39.333 9.66699 -66.333 29 -81c17.333 -12.667 46.333 -19 87 -19c38 0 79 9.66699 123 29l-22 -90c-135.333 -53.333 -234 -80 -296 -80c-130.667 0 -214 48.333 -250 145zM879 758.999
c0 43.333 -8.99902 77.667 -26.999 103c-24.667 35.333 -64.334 53 -119.001 53c-84 0 -157.333 -58 -220 -174c-60 -110.667 -90 -241.667 -90 -393c0 -71.333 10.667 -125.333 32 -162c25.333 -43.333 67 -65 125 -65c55.333 0 112.333 31.667 171 95z" />
    <glyph glyph-name="aacute" unicode="&#xe1;" horiz-adv-x="1285" 
d="M865 665c0 171.333 -50.999 257 -152.999 257c-98.667 0 -177.334 -68.333 -236.001 -205c-49.333 -115.333 -74 -250 -74 -404c0 -178 54.667 -267 164 -267c94 0 168.333 64.667 223 194c50.667 119.333 76 261 76 425zM1218 592
c0 -174 -59.001 -318.997 -177.001 -434.997c-128 -126 -294 -189 -498 -189c-316 0 -474 170.667 -474 512c0 168.667 39.667 336 119 502c20.667 43.333 41 83.333 61 120c50.667 92.667 120.667 169.667 210 231c93.333 64 191 98.333 293 103l196 9
c42 1.33301 84 3 126 5c58 4 99 12.333 123 25c20.667 11.333 44.334 32.666 71.001 63.999l65 -49c-31.333 -40 -80 -98.667 -146 -176c-29.333 -30.667 -49.666 -50.667 -60.999 -60c-21.333 -18.667 -45.333 -33.667 -72 -45c-32.667 -13.333 -73.334 -22 -122.001 -26
l-105 -8c-12.667 -0.666992 -55.667 -3.33398 -129 -8.00098c-105.333 -6.66699 -193 -33 -263 -79c-44.667 -30 -85 -72.667 -121 -128c-44.667 -69.333 -80.667 -152.333 -108 -249l15 -4c122.667 196.667 295.667 295 519 295c160 0 281.667 -39 365 -117
c75.333 -70.667 113 -168.334 113 -293.001z" />
    <glyph glyph-name="acircumflex" unicode="&#xe2;" horiz-adv-x="1226" 
d="M1165 804c0 -149.333 -108.333 -238.332 -325 -266.999l-1 -11c78 -0.666992 144.333 -16.334 199 -47.001c68 -38.667 102 -93.667 102 -165c0 -132 -69.333 -227 -208 -285c-98.667 -41.333 -224.667 -62 -378 -62c-160.667 0 -279.667 31 -357 93
c-84.667 68.667 -127 181 -127 337c0 178 55.333 322.667 166 434c122 122.667 300 184 534 184c263.333 0 395 -70.333 395 -211zM815 791.001c0 96.667 -37.666 145 -112.999 145c-156.667 0 -248.334 -133 -275.001 -399l135 20c82 12 142.333 33.333 181 64
c48 37.333 72 94 72 170zM781.001 221.001c4.66699 29.333 6.99902 59 6.99902 89c0 111.333 -59.333 167 -178 167c-30 0 -94.667 -8.66699 -194 -26c-2.66699 -24 -4 -53.667 -4 -89c0 -98.667 9 -169.667 27 -213c28 -68.667 83.333 -103 166 -103
c98.667 0 157.334 58.333 176.001 175z" />
    <glyph glyph-name="atilde" unicode="&#xe3;" horiz-adv-x="1067" 
d="M1047 778c0 -104.667 -41.667 -181 -125 -229c-52 -30 -138.667 -58.667 -260 -86c-83.333 -18.667 -147.333 -42.667 -192 -72c-54.667 -36 -82 -89 -82 -159c0 -41.333 19.333 -74 58 -98c32 -19.333 70.333 -29 115 -29c145.333 0 269 59.667 371 179l76 -66
c-130 -167.333 -314 -251 -552 -251c-289.333 0 -434 81.333 -434 244c0 100 48.667 176.333 146 229c36 19.333 120.333 46.333 253 81c173.333 45.333 260 125.666 260 240.999c0 77.333 -47.667 116 -143 116c-129.333 0 -244 -59.667 -344 -179l-76 66
c59.333 78.667 136 140.334 230 185.001c92 44 188.333 66 289 66c273.333 0 410 -79.333 410 -238z" />
    <glyph glyph-name="adieresis" unicode="&#xe4;" horiz-adv-x="1271" 
d="M868 552c14 89.333 21.333 175 22 257c-36 82 -91.333 123 -166 123c-100.667 0 -180 -76.333 -238 -229c-44.667 -116.667 -67 -235 -67 -355c0 -201.333 50.667 -302 152 -302c50 0 94.667 23.667 134 71c76.667 92.667 131 237.667 163 435zM1231 860
c0 -256 -54.668 -462.998 -164.001 -620.998c-125.333 -180.667 -301.333 -271 -528 -271c-141.333 0 -254 36.333 -338 109c-89.333 76.667 -134 184.667 -134 324c0 177.333 59.667 323.666 179 438.999c117.333 114 265 171 443 171c80 0 146 -14.333 198 -43
c-8.66699 117.333 -35 216.666 -79 297.999c-57.333 108 -137.333 162 -240 162c-79.333 0 -158.666 -28.667 -237.999 -86l-46 61c111.333 96.667 240 145 386 145c191.333 0 336 -69 434 -207c84.667 -120.667 127 -281 127 -481z" />
    <glyph glyph-name="aring" unicode="&#xe5;" horiz-adv-x="1141" 
d="M546 -33c-157.333 0 -277.333 40.998 -360 122.998c-77.333 76.667 -116 178.334 -116 305.001c0 166 58.333 309 175 429c124 127.333 286 191 486 191c244 0 366 -76 366 -228c0 -145.333 -100.333 -246.666 -301 -303.999c-122 -34.667 -247.667 -59 -377 -73
c4 -82.667 18 -147 42 -193c34 -65.333 94 -98 180 -98c142.667 0 262 63.333 358 190l73 -61c-60.667 -86 -137 -154 -229 -204c-94.667 -51.333 -193.667 -77 -297 -77zM772 758.998c0 117.333 -38.999 176.002 -116.999 176.002c-66.667 0 -123.334 -60 -170.001 -180
c-33.333 -84.667 -54.333 -172.334 -63 -263.001c99.333 12 169 26.667 209 44c94 41.333 141 115.666 141 222.999z" />
    <glyph glyph-name="ae" unicode="&#xe6;" horiz-adv-x="2235" 
d="M2227 841c0 -45.333 -13.6729 -81.3311 -41.0059 -107.998s-63.666 -40 -108.999 -40c-42.667 0 -76.167 12.833 -100.5 38.5s-36.5 59.834 -36.5 102.501c0 27.333 8.33301 64.333 25 111l-43 -7c-74.667 -46.667 -130.667 -132.667 -168 -258
c-28.667 -96.667 -43 -201.334 -43 -314.001c0 -59.333 11.333 -112.666 34 -159.999c28.667 -60.667 69.334 -91 122.001 -91c56.667 0 102.334 15.667 137.001 47c24.667 22 50.667 54.667 78 98l69 -58c-56 -76 -105.667 -129 -149 -159c-72 -50 -157.667 -75 -257 -75
c-119.333 0 -208 35.667 -266 107c-52 64 -78 155.667 -78 275c0 42.667 4.66699 86 14 130h-136l-107 -480h-331l113 478h-132c-40 -153.333 -109 -275 -207 -365c-106 -96.667 -235 -145 -387 -145c-72 0 -127.333 18.667 -166 56c-33.333 32 -50 71.667 -50 119
c0 44.667 13.833 80.5 41.5 107.5s63.834 40.5 108.501 40.5c42 0 75.333 -12.833 100 -38.5s37 -59.834 37 -102.501c0 -30.667 -8.33301 -67.667 -25 -111l43 7c140.667 90.667 211 281.334 211 572.001c0 61.333 -10.667 115 -32 161c-28 60 -69.333 90 -124 90
c-74 0 -131.667 -29.333 -173 -88l-42 -57l-69 58c52.667 72 102.334 125 149.001 159c68.667 50 154.334 75 257.001 75c120 0 208.667 -35.667 266 -107c52 -64.667 78 -156.334 78 -275.001c0 -20 -1.33301 -43.333 -4 -70h140l95 422l318 14l12 -15l-99 -419h138
c46 139.333 116 247.666 210 324.999c100.667 83.333 221.667 125 363 125c70.667 0 126 -18.667 166 -56c33.333 -30.667 50 -70.334 50 -119.001z" />
    <glyph glyph-name="ccedilla" unicode="&#xe7;" horiz-adv-x="1105" 
d="M1047 786c0 -105.333 -63.333 -179.667 -190 -223c-38 -13.333 -79.667 -23.333 -125 -30l-3 -15c129.333 -4.66699 217.666 -44 264.999 -118c16.667 -26.667 25 -57.667 25 -93c0 -108.667 -63 -193.667 -189 -255c-115.333 -56 -255.666 -84 -420.999 -84
c-102 0 -187 15 -255 45c-93.333 41.333 -140 106.333 -140 195c0 44.667 15.167 82.167 45.5 112.5s67.833 45.5 112.5 45.5c105.333 0 158 -47 158 -141c0 -49.333 -22 -94.666 -66 -135.999c32 -26.667 74.333 -40 127 -40c78 0 142.833 27 194.5 81s77.5 120 77.5 198
c0 94.667 -46.667 142 -140 142h-133l24 102h103c58 0 102.667 17.667 134 53s47 82.666 47 141.999c0 39.333 -15.333 70 -46 92c-27.333 19.333 -61.333 29 -102 29c-111.333 0 -223.333 -61.333 -336 -184l-71 61c122.667 167.333 290.667 251 504 251
c266.667 0 400 -76.667 400 -230z" />
    <glyph glyph-name="egrave" unicode="&#xe8;" horiz-adv-x="1403" 
d="M803 159l-6.99902 -0.000976562c-137.333 -125.333 -277.333 -188 -420 -188c-66.667 0 -121.334 18 -164.001 54c-45.333 38 -68 89.667 -68 155c0 47.333 7.33301 98.333 22 153l75 281c17.333 64.667 26 114 26 148c0 39.333 -8.33301 65.833 -25 79.5
s-45 20.5 -85 20.5c-30.667 0 -71.667 -9.66699 -123 -29l22 90c130.667 53.333 229 80 295 80c69.333 0 126.666 -16.667 171.999 -50c50.667 -37.333 76 -89.666 76 -156.999c0 -54.667 -6.66699 -106.334 -20 -155.001l-73 -266c-14.667 -53.333 -22 -98 -22 -134
c0 -68 32.667 -102 98 -102c66.667 0 143.667 41.667 231 125l165 722l319 14l12 -14l-142 -615c-17.333 -75.333 -26 -124.666 -26 -147.999c0 -39.333 9.66699 -66.333 29 -81c16 -12.667 44.667 -19 86 -19c40.667 0 81.667 9.66699 123 29l-22 -90
c-135.333 -53.333 -233.666 -80 -294.999 -80c-146.667 0 -233 59 -259 177z" />
    <glyph glyph-name="eacute" unicode="&#xe9;" horiz-adv-x="1403" 
d="M803 159l-6.99902 -0.000976562c-137.333 -125.333 -277.333 -188 -420 -188c-66.667 0 -121.334 18 -164.001 54c-45.333 38 -68 89.667 -68 155c0 47.333 7.33301 98.333 22 153l75 281c17.333 64.667 26 114 26 148c0 39.333 -8.33301 65.833 -25 79.5
s-45 20.5 -85 20.5c-30.667 0 -71.667 -9.66699 -123 -29l22 90c130.667 53.333 229 80 295 80c69.333 0 126.666 -16.667 171.999 -50c50.667 -37.333 76 -89.666 76 -156.999c0 -54.667 -6.66699 -106.334 -20 -155.001l-73 -266c-14.667 -53.333 -22 -98 -22 -134
c0 -68 32.667 -102 98 -102c66.667 0 143.667 41.667 231 125l165 722l319 14l12 -14l-142 -615c-17.333 -75.333 -26 -124.666 -26 -147.999c0 -39.333 9.66699 -66.333 29 -81c16 -12.667 44.667 -19 86 -19c40.667 0 81.667 9.66699 123 29l-22 -90
c-135.333 -53.333 -233.666 -80 -294.999 -80c-146.667 0 -233 59 -259 177zM1193 1533c-34 -114.667 -90.667 -207.002 -170 -277.002c-92 -80.667 -201 -121 -327 -121c-101.333 0 -179 23 -233 69c-44.667 38 -67 83.667 -67 137c0 46.667 13.5 84.834 40.5 114.501
s63.5 44.5 109.5 44.5c34.667 0 63.667 -8.66699 87 -26c26.667 -19.333 40 -45.666 40 -78.999c0 -38 -16.667 -79.333 -50 -124c32 -16 66.667 -24 104 -24c100.667 0 185 34 253 102c59.333 59.333 104.333 133.333 135 222z" />
    <glyph glyph-name="ecircumflex" unicode="&#xea;" horiz-adv-x="1325" 
d="M1267 856c0 -50.667 -13.999 -92.667 -41.999 -126c-29.333 -36 -69 -54 -119 -54c-59.333 0 -115.333 29 -168 87c-41.333 -94.667 -82.333 -161.667 -123 -201v-7c74.667 -18 128 -48.667 160 -92c26 -35.333 47 -94.333 63 -177
c13.333 -71.333 33.666 -118.333 60.999 -141c16 -13.333 39.333 -20 70 -20c28 0 64.667 10 110 30l-22 -92c-122.667 -53.333 -231 -80 -325 -80c-56 0 -101 12 -135 36c-41.333 29.333 -68.333 79.666 -81 150.999c-3.33301 25.333 -9 63.333 -17 114
c-10 60.667 -21.667 100.667 -35 120c-20 28 -56.667 42 -110 42h-28l-101 -446h-331l142 615c16.667 72 25 121.333 25 148c0 38.667 -8.16699 65 -24.5 79s-44.5 21 -84.5 21c-30.667 0 -71.667 -9.66699 -123 -29l22 90c130.667 53.333 229 80 295 80
c71.333 0 129 -16.667 173 -50c49.333 -37.333 74 -90.333 74 -159c0 -48 -6.66699 -99.333 -20 -154l-27 -111h28c81.333 0 142.333 36.333 183 109l71 140c26.667 52.667 55 97.334 85 134.001c50 61.333 115.333 92 196 92c105.333 0 158 -49.667 158 -149z" />
    <glyph glyph-name="edieresis" unicode="&#xeb;" horiz-adv-x="1326" 
d="M1273 62c-135.333 -53.333 -233.667 -79.998 -295 -79.998c-69.333 0 -127 17 -173 51c-51.333 38 -77 90.333 -77 157c0 59.333 6 111.333 18 156l62 232c28.667 107.333 43 183.666 43 228.999c0 40 -30.333 60 -91 60c-47.333 0 -89.333 -23 -126 -69
c-40.667 -50.667 -85.334 -148.667 -134.001 -294c-30 -90 -53 -154 -69 -192c-28.667 -72 -59.667 -132.333 -93 -181c-68 -100 -146.333 -150 -235 -150c-46 0 -82.667 13 -110 39s-41 61.667 -41 107c0 51.333 13 93.666 39 126.999c28.667 37.333 68 56 118 56
c50.667 0 101 -25 151 -75c36.667 57.333 78 153 124 287c27.333 80 48.666 137.667 63.999 173c28 63.333 58.667 116.333 92 159c84.667 107.333 207.334 161 368.001 161c66.667 0 126.334 -10.333 179.001 -31c72 -28 108 -70.333 108 -127
c0 -46.667 -8 -99.667 -24 -159l-88 -327c-16.667 -62 -25 -111.333 -25 -148c0 -39.333 9.33301 -66.333 28 -81c16 -12.667 44.667 -19 86 -19c40.667 0 81.667 9.66699 123 29z" />
    <glyph glyph-name="igrave" unicode="&#xec;" horiz-adv-x="1793" 
d="M661 16l-31.001 414.001c-6.66699 82.667 -24 194 -52 334h-10c-46.667 -268.667 -118.667 -472.334 -216 -611.001c-80.667 -114.667 -160 -172 -238 -172c-108 0 -162 48.333 -162 145c0 51.333 13.333 94 40 128c28.667 37.333 68 56 118 56c51.333 0 103 -26 155 -78
c62 84.667 112.667 190.667 152 318c36.667 116 58.667 232 66 348h-184l23 82l504 21c56 -199.333 92.667 -425.333 110 -678l424 662l317 15l12 -14l-142 -615c-16.667 -72 -25 -121.333 -25 -148c0 -39.333 9.33301 -66.333 28 -81c16 -12.667 44.667 -19 86 -19
c40.667 0 81.667 9.66699 123 29l-22 -90l-141 -55c-52 -16.667 -101.667 -25 -149 -25c-69.333 0 -126.666 17 -171.999 51c-50.667 38 -76 90.333 -76 157c0 56 6 108 18 156l90 362l-10 4l-452 -696h-184z" />
    <glyph glyph-name="iacute" unicode="&#xed;" horiz-adv-x="1410" 
d="M557 572l322.999 -0.000976562l95 414l319 14l12 -14l-142 -615c-16.667 -72 -25 -121.333 -25 -148c0 -39.333 9.33301 -66.333 28 -81c16 -12.667 44.667 -19 86 -19c40.667 0 81.667 9.66699 123 29l-22 -90c-135.333 -53.333 -233.666 -80 -294.999 -80
c-69.333 0 -127 17 -173 51c-51.333 38 -77 90.333 -77 157c0 52 6 104 18 156l30 130h-322l-110 -476h-331l142 615c16.667 72 25 121.333 25 148c0 38.667 -8.16699 65 -24.5 79s-44.5 21 -84.5 21c-30.667 0 -71.667 -9.66699 -123 -29l22 90
c130.667 53.333 229 80 295 80c71.333 0 129 -16.667 173 -50c49.333 -37.333 74 -90.333 74 -159c0 -45.333 -6.66699 -96.666 -20 -153.999z" />
    <glyph glyph-name="icircumflex" unicode="&#xee;" horiz-adv-x="1302" 
d="M1235 599c0 -176 -61.334 -323 -184.001 -441c-132 -126.667 -301.667 -190 -509 -190c-138 0 -250 35.333 -336 106c-92.667 76 -139 181.667 -139 317c0 178.667 63 327.667 189 447s290 179 492 179c142.667 0 257.334 -33.333 344.001 -100
c95.333 -73.333 143 -179.333 143 -318zM882.999 712c0 151.333 -51.333 227 -154 227c-108 0 -189.667 -80.667 -245 -242c-43.333 -126 -65 -266.333 -65 -421c0 -153.333 52 -230 156 -230c102 0 181 77.333 237 232c47.333 131.333 71 276 71 434z" />
    <glyph glyph-name="idieresis" unicode="&#xef;" horiz-adv-x="1413" 
d="M1384 153l-22.002 -90c-135.333 -53.333 -233.666 -80 -294.999 -80c-69.333 0 -127 16.667 -173 50c-52 37.333 -78 89.666 -78 156.999c0 56.667 6.33301 108.334 19 155.001l72 266c14.667 54 22 98.667 22 134c0 68 -33.667 102 -101 102
c-68.667 0 -148 -41.667 -238 -125l-165 -722h-331l142 615c16.667 72 25 121.333 25 148c0 38.667 -8.16699 65 -24.5 79s-44.5 21 -84.5 21c-30.667 0 -71.667 -9.66699 -123 -29l22 90c130.667 53.333 229 80 295 80c142.667 0 227.334 -59 254.001 -177h7
c138 125.333 279.667 188 425 188c66.667 0 121.667 -18 165 -54c47.333 -38 71 -89.667 71 -155c0 -52.667 -6.66699 -103.667 -20 -153l-76 -281c-17.333 -64 -26 -113.333 -26 -148c0 -39.333 9.66699 -66.333 29 -81c16 -12.667 44.667 -19 86 -19
c40.667 0 81.667 9.66699 123 29z" />
    <glyph glyph-name="eth" unicode="&#xf0;" horiz-adv-x="1357" 
d="M1292 632c0 -182.667 -59 -337.999 -177 -465.999s-259.667 -192 -425 -192c-110.667 0 -196 23.667 -256 71l-61 -266c-6 -26 -9 -43.333 -9 -52c0 -34.667 13.333 -58 40 -70c36.667 -16.667 87.334 -27 152.001 -31l-16 -70h-722l16 70c56 4 97.333 10.333 124 19
c40 12.667 66 45.334 78 98.001l198 872c16.667 73.333 25 122.666 25 147.999c0 38.667 -8.33301 65 -25 79s-44.667 21 -84 21c-32.667 0 -73.667 -9.66699 -123 -29l22 90c130.667 53.333 229 80 295 80c72.667 0 129.667 -14.667 171 -44
c29.333 -20.667 54 -54.334 74 -101.001h8c119.333 104 234.666 156 345.999 156c116.667 0 205 -35.333 265 -106c56 -66 84 -158.333 84 -277zM912 421.001c14.667 64 22.002 135.666 22.002 214.999c0 72 -10.667 126 -32 162c-25.333 43.333 -67 65 -125 65
c-66.667 0 -126.334 -31.667 -179.001 -95l-124 -549c0 -48.667 13.833 -87.5 41.5 -116.5s65.5 -43.5 113.5 -43.5c41.333 0 81.333 16 120 48c75.333 62.667 129.666 167.334 162.999 314.001z" />
    <glyph glyph-name="ntilde" unicode="&#xf1;" horiz-adv-x="1097" 
d="M557 -33c-145.333 0 -261 35.001 -347 105.001c-93.333 75.333 -140 184 -140 326c0 167.333 55.667 309.666 167 426.999c120 126.667 280 190 480 190c98.667 0 179.334 -16 242.001 -48c81.333 -41.333 122 -106.666 122 -195.999c0 -54 -13.333 -98.333 -40 -133
c-34 -44 -81.667 -66 -143 -66c-40 0 -76 9.66699 -108 29c-38 22.667 -57 52.667 -57 90c0 51.333 24.667 118.666 74 201.999c-23.333 28.667 -59.333 43 -108 43c-94 0 -165.667 -62.333 -215 -187c-37.333 -93.333 -56 -195 -56 -305c0 -215.333 75 -323 225 -323
c75.333 0 139.333 16 192 48c45.333 27.333 92.666 74 141.999 140l72 -61c-55.333 -85.333 -127.333 -153.333 -216 -204c-90.667 -51.333 -186 -77 -286 -77z" />
    <glyph glyph-name="ograve" unicode="&#xf2;" horiz-adv-x="2052" 
d="M2023 153l-22 -90c-135.333 -53.333 -233.666 -80 -294.999 -80c-69.333 0 -127 16.667 -173 50c-52 37.333 -78 89.666 -78 156.999c0 56.667 6.33301 108.334 19 155.001l72 266c14.667 54 22 98.667 22 134c0 68 -34 102 -102 102c-55.333 0 -127 -41.667 -215 -125
l-165 -722h-331l140 610c14.667 64 22 109 22 135c0 68 -34.333 102 -103 102c-57.333 0 -132 -41.667 -224 -125l-165 -722h-331l142 615c16.667 72 25 121.333 25 148c0 40 -8 66.667 -24 80s-44.333 20 -85 20c-30.667 0 -71.667 -9.66699 -123 -29l22 90
c130.667 53.333 229 80 295 80c134.667 0 218.667 -59 252 -177h7c136 125.333 271.667 188 407 188c62 0 115.667 -16 161 -48c48.667 -35.333 75.667 -83 81 -143h7c73.333 63.333 135.666 108.333 186.999 135c71.333 37.333 145.333 56 222 56c66.667 0 122 -18 166 -54
c47.333 -38 71 -89.667 71 -155c0 -52.667 -6.66699 -103.667 -20 -153l-76 -281c-17.333 -64 -26 -113.333 -26 -148c0 -39.333 9.66699 -66.333 29 -81c16 -12.667 44.667 -19 86 -19c40.667 0 81.667 9.66699 123 29z" />
    <glyph glyph-name="oacute" unicode="&#xf3;" horiz-adv-x="1371" 
d="M803 160l-6.99902 0.000976562c-134 -122 -273.333 -183 -418 -183c-66.667 0 -121.667 18.333 -165 55c-46 38.667 -69 90.667 -69 156c0 48.667 7.33301 99.667 22 153l75 273c17.333 63.333 26 112.666 26 147.999c0 39.333 -8.66699 66.333 -26 81
c-15.333 12.667 -43.333 19 -84 19c-30.667 0 -71.667 -9.66699 -123 -29l22 90c130.667 53.333 229 80 295 80c69.333 0 126.666 -16.667 171.999 -50c50.667 -37.333 76 -89.666 76 -156.999c0 -56 -6.66699 -107.667 -20 -155l-73 -260c-14.667 -52 -22 -96.333 -22 -133
c0 -68 34 -102 102 -102c74 0 152.667 41 236 123l152 717l317 14l14 -16l-175 -813c-48.667 -224.667 -141.667 -387.667 -279 -489c-114 -84 -251.333 -126 -412 -126c-150.667 0 -257.334 22 -320.001 66c-46 32 -69 75.333 -69 130c0 43.333 14.667 78.833 44 106.5
s65.666 41.5 108.999 41.5c62 0 119 -33 171 -99c32.667 -41.333 63.667 -96 93 -164c33.333 5.33301 63 16.666 89 33.999c36.667 24 67.334 52.667 92.001 86c68.667 92.667 120.334 227 155.001 403z" />
    <glyph glyph-name="ocircumflex" unicode="&#xf4;" horiz-adv-x="1815" 
d="M1750 635c0 -176 -48.333 -325.666 -145 -448.999c-108 -138 -249.333 -207 -424 -207c-80 0 -148.667 15.667 -206 47h-6c-36 -145.333 -96.667 -257.333 -182 -336c-96.667 -89.333 -218.667 -134 -366 -134c-57.333 0 -105.666 12 -144.999 36
c-47.333 29.333 -71 71 -71 125c0 42 12.833 75.5 38.5 100.5s59.5 37.5 101.5 37.5c91.333 0 137 -47 137 -141c0 -32.667 -8.33301 -61.667 -25 -87l52 7c37.333 39.333 69 102.666 95 189.999c9.33301 33.333 25 103 47 209h-5c-60.667 -36 -135 -54 -223 -54
c-238.667 0 -358 124.333 -358 373c0 172.667 48.333 322.334 145 449.001c105.333 138 246.666 207 423.999 207c79.333 0 148 -15.667 206 -47h5c38 149.333 97.333 267.666 178 354.999c94.667 102 218 153 370 153c57.333 0 105.666 -12.333 144.999 -37
c47.333 -28.667 71 -70 71 -124c0 -42 -12.833 -75.5 -38.5 -100.5s-59.5 -37.5 -101.5 -37.5c-91.333 0 -137 47 -137 141c0 31.333 8.33301 60.333 25 87l-52 -7c-33.333 -37.333 -63.666 -107 -90.999 -209c-8 -28.667 -24.667 -104.667 -50 -228h5
c64.667 36 139 54 223 54c238.667 0 358 -124.333 358 -373zM816 843.001c-24.667 51.333 -56.666 77 -95.999 77c-96.667 0 -175.334 -67.667 -236.001 -203c-53.333 -119.333 -80 -256 -80 -410c0 -149.333 45 -224 135 -224c46 0 89 13.667 129 41zM1411 680.001
c0 149.333 -45.001 223.999 -135.001 223.999c-43.333 0 -86.333 -13.667 -129 -41l-148 -719c20 -51.333 52 -77 96 -77c98.667 0 177.334 67.667 236.001 203c53.333 122.667 80 259.334 80 410.001z" />
    <glyph glyph-name="otilde" unicode="&#xf5;" horiz-adv-x="1195" 
d="M1218 866c0 -56 -17.8291 -101.667 -53.4961 -137s-81.5 -53 -137.5 -53c-48.667 0 -107 12 -175 36c-20.667 -14.667 -59.667 -60.667 -117 -138c17.333 -72 50.666 -188 99.999 -348c23.333 -75.333 74.666 -113 153.999 -113c36 0 79 10 129 30l-22 -90
c-126 -53.333 -227.667 -80 -305 -80c-64.667 0 -117.334 12.333 -158.001 37c-49.333 30 -84.666 79 -105.999 147c-8.66699 37.333 -22.667 93 -42 167l-80 -123c-47.333 -72.667 -84.666 -122.334 -111.999 -149.001c-50.667 -50 -105.334 -75 -164.001 -75
c-42.667 0 -77.834 14 -105.501 42s-41.5 63.333 -41.5 106c0 56.667 17.667 102.834 53 138.501s81.333 53.5 138 53.5c48 0 106.333 -12.333 175 -37c30.667 24.667 69 69.334 115 134.001c-28 114 -60.333 226.333 -97 337c-24.667 75.333 -76 113 -154 113
c-30.667 0 -73.667 -10 -129 -30l22 90c120 53.333 221.667 80 305 80c64 0 116.667 -12.333 158 -37c58 -34.667 100.667 -111.334 128 -230.001l17 -74l44 66l38 60c44 70 81.333 120 112 150c51.333 50.667 106 76 164 76c43.333 0 78.666 -14 105.999 -42
s41 -63.667 41 -107z" />
    <glyph glyph-name="odieresis" unicode="&#xf6;" horiz-adv-x="1403" 
d="M803 159h-6.99902c-137.333 -125.333 -277.333 -188 -420 -188c-66.667 0 -121.334 18 -164.001 54c-45.333 38 -68 89.667 -68 155c0 47.333 7.33301 98.333 22 153l75 281c17.333 64.667 26 114 26 148c0 39.333 -8.33301 65.833 -25 79.5s-45 20.5 -85 20.5
c-30.667 0 -71.667 -9.66699 -123 -29l22 90c130.667 53.333 229 80 295 80c69.333 0 126.666 -16.667 171.999 -50c50.667 -37.333 76 -89.666 76 -156.999c0 -54.667 -6.66699 -106.334 -20 -155.001l-73 -266c-14.667 -53.333 -22 -98 -22 -134
c0 -68 32.667 -102 98 -102c66.667 0 143.667 41.667 231 125l165 722l319 14l12 -14l-142 -615c-17.333 -75.333 -26 -124.666 -26 -147.999c0 -39.333 9.66699 -66.333 29 -81c16 -12.667 44.667 -19 86 -19c40.667 0 81.667 9.66699 123 29l-22 -90l-51 -23
c-34.667 -16 -59 -35.333 -73 -58c-12 -20 -20.333 -50.667 -25 -92l-15 -134c-9.33301 -84.667 -56.666 -141.334 -141.999 -170.001c-56.667 -19.333 -141 -29 -253 -29l-26 81c100 1.33301 158 35.333 174 102l19 79c12.667 52 67.667 105.333 165 160l-2 10
c-19.333 -4 -41.333 -6 -66 -6c-146.667 0 -233 59 -259 177z" />
    <glyph glyph-name="divide" unicode="&#xf7;" horiz-adv-x="1344" 
d="M220 763c0 66 -33.001 99 -99.001 99c-28 0 -69.333 -9.66699 -124 -29l22 90c130.667 53.333 231 80 301 80c68.667 0 124.334 -15 167.001 -45c48 -34 72 -84 72 -150c0 -25.333 -5.83301 -61.833 -17.5 -109.5s-17.5 -83.167 -17.5 -106.5
c0 -71.333 29.333 -107 88 -107c59.333 0 125 21.333 197 64l100 437l319 14l12 -14l-142 -615c-16.667 -72 -25 -121.333 -25 -148c0 -39.333 9.33301 -66.333 28 -81c16 -12.667 44.667 -19 86 -19c40.667 0 81.667 9.66699 123 29l-22 -90
c-135.333 -53.333 -233.666 -80 -294.999 -80c-69.333 0 -127 17 -173 51c-51.333 38 -77 90.333 -77 157c0 53.333 6 105.333 18 156l25 105c-138.667 -88 -268.334 -132 -389.001 -132c-145.333 0 -218 71 -218 213c0 28.667 6.83301 68.667 20.5 120
s20.5 88.333 20.5 111z" />
    <glyph glyph-name="oslash" unicode="&#xf8;" horiz-adv-x="2012" 
d="M1666 -18c-132.667 0 -216.002 58.998 -250.002 176.998h-7c-70.667 -65.333 -129 -110.666 -175 -135.999c-64 -34.667 -135 -52 -213 -52c-63.333 0 -117 16 -161 48c-48 34.667 -75 82.334 -81 143.001h-7c-79.333 -68 -139 -113.333 -179 -136
c-65.333 -36.667 -136.333 -55 -213 -55c-68 0 -123.667 17.667 -167 53c-46 37.333 -69 89.333 -69 156c0 47.333 7.33301 98.333 22 153l75 281c17.333 64.667 26 114 26 148c0 39.333 -9.66699 66.333 -29 81c-16 12.667 -44.667 19 -86 19
c-20.667 0 -60 -9.66699 -118 -29l22 90c130.667 53.333 228.334 80 293.001 80c70 0 127.333 -16.667 172 -50c50.667 -37.333 76 -89.666 76 -156.999c0 -54.667 -6.66699 -106.334 -20 -155.001l-73 -266c-14.667 -53.333 -22 -98 -22 -134c0 -68 34 -102 102 -102
c37.333 0 103.333 41.667 198 125l165 722l317 14l12 -14l-140 -610c-14 -61.333 -21 -106.333 -21 -135c0 -40.667 12 -69 36 -85c17.333 -11.333 40 -17 68 -17c42 0 110.333 41.667 205 125l165 722l317 14l12 -14l-142 -615c-16.667 -72 -25 -121.333 -25 -148
c0 -40 8 -66.667 24 -80s44.333 -20 85 -20s81.667 9.66699 123 29l-22 -90c-135.333 -53.333 -233.666 -80 -294.999 -80z" />
    <glyph glyph-name="ugrave" unicode="&#xf9;" horiz-adv-x="2012" 
d="M1666 -18c-132.667 0 -216.003 58.998 -250.003 176.998h-7c-70.667 -65.333 -129 -110.666 -175 -135.999c-64 -34.667 -135 -52 -213 -52c-63.333 0 -117 16 -161 48c-48 34.667 -75 82.334 -81 143.001h-7c-79.333 -68 -139 -113.333 -179 -136
c-65.333 -36.667 -136.333 -55 -213 -55c-68 0 -123.667 17.667 -167 53c-46 37.333 -69 89.333 -69 156c0 47.333 7.33301 98.333 22 153l75 281c17.333 64.667 26 114 26 148c0 39.333 -9.66699 66.333 -29 81c-16 12.667 -44.667 19 -86 19
c-20.667 0 -60 -9.66699 -118 -29l22 90c130.667 53.333 228.334 80 293.001 80c70 0 127.333 -16.667 172 -50c50.667 -37.333 76 -89.666 76 -156.999c0 -54.667 -6.66699 -106.334 -20 -155.001l-73 -266c-14.667 -53.333 -22 -98 -22 -134c0 -68 34 -102 102 -102
c37.333 0 103.333 41.667 198 125l165 722l317 14l12 -14l-140 -610c-14 -61.333 -21 -106.333 -21 -135c0 -40.667 12 -69 36 -85c17.333 -11.333 40 -17 68 -17c42 0 110.333 41.667 205 125l165 722l317 14l12 -14l-142 -615c-16.667 -72 -25 -121.333 -25 -148
c0 -40 8 -66.667 24 -80s44.333 -20 85 -20s81.667 9.66699 123 29l-22 -90l-51 -23c-57.333 -26 -90 -76 -98 -150l-15 -134c-9.33301 -83.333 -56.666 -140 -141.999 -170c-55.333 -19.333 -139.666 -29 -252.999 -29l-26 81c100 1.33301 158 35.333 174 102l19 79
c8.66699 34.667 30.667 66 66 94l99 66l-2 10c-16 -4 -38 -6 -66 -6z" />
    <glyph glyph-name="uacute" unicode="&#xfa;" horiz-adv-x="1369" 
d="M959 342c0 125.333 -56.668 188 -170.001 188c-48.667 0 -100 -9 -154 -27c-26.667 -76 -40 -157 -40 -243c0 -142.667 48.667 -214 146 -214c74.667 0 131.334 32 170.001 96c32 53.333 48 120 48 200zM1311 356c0 -144.667 -71.666 -249.668 -214.999 -315.001
c-105.333 -47.333 -240.333 -71 -405 -71c-300 0 -450 108.333 -450 325c0 194.667 111 378.334 333 551.001l-19 23c-80.667 -50.667 -142.667 -76 -186 -76c-17.333 0 -43.333 1.83301 -78 5.5s-60.667 5.5 -78 5.5c-47.333 0 -91.333 -42.667 -132 -128l-66 27
c39.333 136.667 98.666 229 177.999 277c30.667 18.667 63.334 28 98.001 28c53.333 0 113.333 -8.66699 180 -26c64 -16.667 122 -25 174 -25c61.333 0 116.666 17.333 165.999 52h22l79 -105c-110 -90 -192.667 -195.333 -248 -316c94.667 21.333 166.667 32 216 32
c287.333 0 431 -88 431 -264z" />
    <glyph glyph-name="ucircumflex" unicode="&#xfb;" horiz-adv-x="1895" 
d="M844 342c0 126 -56.667 189 -170 189c-28.667 0 -54.667 -3 -78 -9l-54 -14l-42 -156c-12.667 -47.333 -19 -99 -19 -155c0 -100.667 46.667 -151 140 -151c121.333 0 193 66.667 215 200c5.33301 34.667 8 66.667 8 96zM1196 356
c0 -257.333 -214.999 -386.001 -644.999 -386.001c-150.667 0 -258.334 28.667 -323.001 86c-50.667 44.667 -76 104.334 -76 179.001c0 44 8.33301 94.667 25 152l66 227c18.667 64 28 113.333 28 148c0 39.333 -8.33301 65.833 -25 79.5s-45 20.5 -85 20.5
c-34 0 -76.667 -10 -128 -30l22 90c132.667 54 232.667 81 300 81c69.333 0 126.666 -16.333 171.999 -49c51.333 -37.333 77 -89.333 77 -156c0 -40 -8.66699 -91.667 -26 -155l-14 -51c76.667 18 145.334 27 206.001 27c284 0 426 -87.667 426 -263zM1860 151.999
l-22 -90.001c-135.333 -53.333 -233 -80 -293 -80c-69.333 0 -127 17 -173 51c-52 38 -78 90.333 -78 157c0 50 6 102 18 156l143 640l321 14l12 -14l-140 -615c-16.667 -73.333 -25 -122.666 -25 -147.999c0 -39.333 9.33301 -66.333 28 -81c16 -12.667 44.667 -19 86 -19
c40.667 0 81.667 9.66699 123 29z" />
    <glyph glyph-name="udieresis" unicode="&#xfc;" horiz-adv-x="1259" 
d="M849 342c0 126 -56.667 189 -170 189c-33.333 0 -79 -7.66699 -137 -23l-42 -156c-12.667 -47.333 -19 -99 -19 -155c0 -100.667 46.667 -151 140 -151c84.667 0 146 35.333 184 106c29.333 54.667 44 118 44 190zM1201 356
c0 -257.333 -216.666 -386.001 -649.999 -386.001c-150.667 0 -258.334 28.667 -323.001 86c-50.667 44.667 -76 104.334 -76 179.001c0 44 8.33301 94.667 25 152l66 227c18.667 64 28 113.333 28 148c0 39.333 -8.33301 65.833 -25 79.5s-45 20.5 -85 20.5
c-34 0 -76.667 -10 -128 -30l22 90c132.667 54 232.667 81 300 81c69.333 0 126.666 -16.333 171.999 -49c51.333 -37.333 77 -89.333 77 -156c0 -40 -8.66699 -91.667 -26 -155l-14 -51c76.667 18 145.334 27 206.001 27c287.333 0 431 -87.667 431 -263z" />
    <glyph glyph-name="yacute" unicode="&#xfd;" horiz-adv-x="1104" 
d="M1037 593c0 -170 -58.332 -314.333 -174.999 -433c-126 -128 -288.667 -192 -488 -192c-94 0 -172.333 15 -235 45c-83.333 40 -125 102 -125 186c0 45.333 12.667 85 38 119c30 40 74.333 60 133 60c37.333 0 70.666 -9.66699 99.999 -29c32.667 -22 49 -51 49 -87
c0 -56.667 -22.667 -114 -68 -172c26 -28.667 68.667 -43 128 -43c88 0 159.333 49.333 214 148c41.333 74 68 162 80 264h-357l25 106h337c0 198 -75.667 297 -227 297c-132.667 0 -244.667 -62.667 -336 -188l-71 61c56 85.333 127.667 153 215 203
c90 52 184.667 78 284 78c144 0 258 -34 342 -102c91.333 -74 137 -181 137 -321z" />
    <glyph glyph-name="thorn" unicode="&#xfe;" horiz-adv-x="1883" 
d="M1447 491c12 77.333 18 151 18 221c0 151.333 -47.667 227 -143 227c-102.667 0 -182 -80.667 -238 -242c-43.333 -124.667 -65 -265 -65 -421c0 -153.333 48.333 -230 145 -230c51.333 0 96.333 21.333 135 64c72 79.333 121.333 206.333 148 381zM701 476
l-166 -0.000976562l-110 -476h-331l142 615c16.667 72 25 121.333 25 148c0 38.667 -8.16699 65 -24.5 79s-44.5 21 -84.5 21c-30.667 0 -71.667 -9.66699 -123 -29l22 90c130.667 53.333 229 80 295 80c71.333 0 129 -16.667 173 -50c49.333 -37.333 74 -90.333 74 -159
c0 -45.333 -6.66699 -96.666 -20 -153.999l-16 -69h164c40 140.667 119.667 251 239 331c114 76 246 114 396 114c150.667 0 266 -39.333 346 -118c76 -74.667 114 -174.667 114 -300c0 -175.333 -59.667 -322.333 -179 -441c-127.333 -126.667 -290.333 -190 -489 -190
c-134.667 0 -243 36.333 -325 109c-84.667 76 -127 180.667 -127 314c0 16 0.666992 30.333 2 43z" />
    <glyph glyph-name="ydieresis" unicode="&#xff;" horiz-adv-x="1315" 
d="M741 936c-69.333 0 -123.667 -23.334 -163 -70.001c-37.333 -44 -56 -100.333 -56 -169c0 -120.667 60.667 -181 182 -181h77l31 113c29.333 106.667 44 186.334 44 239.001c0 45.333 -38.333 68 -115 68zM1184 843.999c0 -43.333 -7.33496 -92.001 -22.002 -146.001
l-89 -327c-16.667 -61.333 -25 -110.666 -25 -147.999c0 -39.333 9.33301 -66.333 28 -81c16 -12.667 44.667 -19 86 -19c40.667 0 81.667 9.66699 123 29l-22 -90c-135.333 -53.333 -233.666 -80 -294.999 -80c-69.333 0 -127 17 -173 51c-51.333 38 -77 90.333 -77 157
c0 59.333 6.33301 112 19 158l23 84h-62c-55.333 0 -103 -15.333 -143 -46c-37.333 -28.667 -77.333 -76.667 -120 -144c-24 -40 -63.667 -97.667 -119 -173c-52 -58.667 -114.333 -88 -187 -88c-108 0 -162 48.333 -162 145c0 51.333 13.333 94 40 128
c28.667 36.667 68 55 118 55c44.667 0 98.334 -24.667 161.001 -74c53.333 99.333 108.333 164.333 165 195v9c-80 7.33301 -145 31.666 -195 72.999c-56.667 46.667 -85 108.334 -85 185.001c0 124 73.333 212.333 220 265c98 35.333 222.333 53 373 53
c280 0 420 -57 420 -171z" />
    <glyph glyph-name="Amacron" unicode="&#x100;" horiz-adv-x="1553" 
d="M892 571l-87 517l-324 -517h411zM732 0l17 73c145.333 11.333 218 32.666 218 63.999c0 14.667 -2.33301 35 -7 61l-50 279h-489c-42 -65.333 -82.667 -132.333 -122 -201c-34 -60 -51 -101.667 -51 -125c0 -40 63.667 -66 191 -78l-17 -73h-596l17 73
c63.333 4.66699 112.333 16 147 34c56.667 30 106 77.333 148 142l767 1190h198l128 -741c28.667 -168.667 58 -332 88 -490c8 -43.333 30 -77 66 -101c28 -19.333 69 -30.666 123 -33.999l-17 -73h-759zM1357 1646h-748l34 171h748z" />
    <glyph glyph-name="amacron" unicode="&#x101;" horiz-adv-x="1352" 
d="M760 125l-8 -0.000976562c-57.333 -49.333 -106 -84.333 -146 -105c-65.333 -34 -129 -51 -191 -51c-116.667 0 -205 35.333 -265 106c-56.667 66 -85 158.333 -85 277c0 180.667 59.667 336.334 179 467.001s262.333 196 429 196c116.667 0 206 -26 268 -78l307 63
l14 -16l-147 -615c-17.333 -72.667 -26 -122 -26 -148c0 -39.333 9.66699 -66.333 29 -81c17.333 -12.667 46.333 -19 87 -19c38 0 79 9.66699 123 29l-22 -90c-135.333 -53.333 -234 -80 -296 -80c-130.667 0 -214 48.333 -250 145zM879 758.999
c0 43.333 -8.99902 77.667 -26.999 103c-24.667 35.333 -64.334 53 -119.001 53c-84 0 -157.333 -58 -220 -174c-60 -110.667 -90 -241.667 -90 -393c0 -71.333 10.667 -125.333 32 -162c25.333 -43.333 67 -65 125 -65c55.333 0 112.333 31.667 171 95zM1139 1247h-748
l34 171h748z" />
    <glyph glyph-name="Abreve" unicode="&#x102;" horiz-adv-x="1553" 
d="M892 571l-87 517l-324 -517h411zM732 0l17 73c145.333 11.333 218 32.666 218 63.999c0 14.667 -2.33301 35 -7 61l-50 279h-489c-42 -65.333 -82.667 -132.333 -122 -201c-34 -60 -51 -101.667 -51 -125c0 -40 63.667 -66 191 -78l-17 -73h-596l17 73
c63.333 4.66699 112.333 16 147 34c56.667 30 106 77.333 148 142l767 1190h198l128 -741c28.667 -168.667 58 -332 88 -490c8 -43.333 30 -77 66 -101c28 -19.333 69 -30.666 123 -33.999l-17 -73h-759zM1402 1852c-70 -214.667 -207 -322 -411 -322
c-84.667 0 -152 25 -202 75s-75 117.333 -75 202c0 5.33301 0.333008 12.833 1 22.5s1 17.167 1 22.5l74 16c12 -110 90.333 -165 235 -165c142 0 245 55 309 165z" />
    <glyph glyph-name="abreve" unicode="&#x103;" horiz-adv-x="1352" 
d="M760 125l-8 -0.000976562c-57.333 -49.333 -106 -84.333 -146 -105c-65.333 -34 -129 -51 -191 -51c-116.667 0 -205 35.333 -265 106c-56.667 66 -85 158.333 -85 277c0 180.667 59.667 336.334 179 467.001s262.333 196 429 196c116.667 0 206 -26 268 -78l307 63
l14 -16l-147 -615c-17.333 -72.667 -26 -122 -26 -148c0 -39.333 9.66699 -66.333 29 -81c17.333 -12.667 46.333 -19 87 -19c38 0 79 9.66699 123 29l-22 -90c-135.333 -53.333 -234 -80 -296 -80c-130.667 0 -214 48.333 -250 145zM879 758.999
c0 43.333 -8.99902 77.667 -26.999 103c-24.667 35.333 -64.334 53 -119.001 53c-84 0 -157.333 -58 -220 -174c-60 -110.667 -90 -241.667 -90 -393c0 -71.333 10.667 -125.333 32 -162c25.333 -43.333 67 -65 125 -65c55.333 0 112.333 31.667 171 95zM1139 1532
c-80.667 -264.667 -214 -397 -400 -397c-174.667 0 -262 113.667 -262 341c0 6 0.333008 15.333 1 28s1 22 1 28l74 16c10 -80 26.333 -136 49 -168c33.333 -48 89.333 -72 168 -72c79.333 0 143 23 191 69c36 34.667 72.667 91.667 110 171z" />
    <glyph glyph-name="Aogonek" unicode="&#x104;" horiz-adv-x="1553" 
d="M892 571l-87 517l-324 -517h411zM732 0l17 73.001c145.333 11.333 218 32.666 218 63.999c0 14.667 -2.33301 35 -7 61l-50 279h-489c-42 -65.333 -82.667 -132.333 -122 -201c-34 -60 -51 -101.667 -51 -125c0 -40 63.667 -66 191 -78l-17 -73h-596l17 73
c63.333 4.66699 112.333 16 147 34c56.667 30 106 77.333 148 142l767 1190h198l128 -741c28.667 -168.667 58 -332 88 -490c8 -43.333 30 -77 66 -101c28 -19.333 69 -30.666 123 -33.999l-17 -73h-244c-95.333 -96.667 -143 -181.334 -143 -254.001
c0 -62 59 -99.667 177 -113l-14 -77c-254.667 0 -382 53.667 -382 161c0 98 80.333 192.333 241 283h-394z" />
    <glyph glyph-name="aogonek" unicode="&#x105;" horiz-adv-x="1352" 
d="M760 125l-7.99902 -0.000976562c-57.333 -49.333 -106 -84.333 -146 -105c-65.333 -34 -129 -51 -191 -51c-116.667 0 -205 35.333 -265 106c-56.667 66 -85 158.333 -85 277c0 180.667 59.667 336.334 179 467.001s262.333 196 429 196c116.667 0 206 -26 268 -78
l307 63l14 -16l-147 -615c-17.333 -72.667 -26 -122 -26 -148c0 -39.333 9.66699 -66.333 29 -81c17.333 -12.667 46.333 -19 87 -19c38 0 79 9.66699 123 29l-22 -90c-44.667 -18 -112.334 -41 -203.001 -69c-90 -90 -135 -171.667 -135 -245c0 -62 59 -99.667 177 -113
l-14 -77c-254.667 0 -382 53.667 -382 161c0 96.667 71 185.334 213 266.001c-104.667 11.333 -172 58.666 -202 141.999zM879.001 758.999c0 43.333 -8.99902 77.667 -26.999 103c-24.667 35.333 -64.334 53 -119.001 53c-84 0 -157.333 -58 -220 -174
c-60 -110.667 -90 -241.667 -90 -393c0 -71.333 10.667 -125.333 32 -162c25.333 -43.333 67 -65 125 -65c55.333 0 112.333 31.667 171 95z" />
    <glyph glyph-name="Cacute" unicode="&#x106;" horiz-adv-x="1465" 
d="M721 -38c-187.333 0 -339.334 52.333 -456.001 157c-118.667 106.667 -178 251 -178 433c0 244.667 86 456 258 634c174.667 180.667 391.667 271 651 271c66.667 0 137.667 -7.66699 213 -23c86.667 -17.333 153.334 -40.666 200.001 -69.999l75 55h87l-111 -518h-88
c-11.333 130.667 -44 236 -98 316c-66.667 98.667 -160.334 148 -281.001 148c-159.333 0 -288.666 -93.667 -387.999 -281c-84.667 -160 -127 -348.333 -127 -565c0 -122.667 28.333 -221.334 85 -296.001c63.333 -84 154 -126 272 -126c178 0 344.667 103.667 500 311
l77 -52c-77.333 -120 -168 -212.333 -272 -277c-125.333 -78 -265 -117 -419 -117zM1281 1768c0 -50 -33.667 -88.667 -101 -116l-428 -167l-33 41l158 151c38.667 38 75.667 76.333 111 115c46 50.667 95 76 147 76c37.333 0 69.333 -7.33301 96 -22
c33.333 -18 50 -44 50 -78z" />
    <glyph glyph-name="cacute" unicode="&#x107;" horiz-adv-x="1097" 
d="M557 -33c-145.333 0 -261 35.001 -347 105.001c-93.333 75.333 -140 184 -140 326c0 167.333 55.667 309.666 167 426.999c120 126.667 280 190 480 190c98.667 0 179.334 -16 242.001 -48c81.333 -41.333 122 -106.666 122 -195.999c0 -54 -13.333 -98.333 -40 -133
c-34 -44 -81.667 -66 -143 -66c-40 0 -76 9.66699 -108 29c-38 22.667 -57 52.667 -57 90c0 51.333 24.667 118.666 74 201.999c-23.333 28.667 -59.333 43 -108 43c-94 0 -165.667 -62.333 -215 -187c-37.333 -93.333 -56 -195 -56 -305c0 -215.333 75 -323 225 -323
c75.333 0 139.333 16 192 48c45.333 27.333 92.666 74 141.999 140l72 -61c-55.333 -85.333 -127.333 -153.333 -216 -204c-90.667 -51.333 -186 -77 -286 -77zM993 1460c0 -48.667 -28.667 -91.667 -86 -129l-395 -230l-42 38c32 42 105 143.667 219 305
c49.333 69.333 109 104 179 104c28.667 0 55.667 -7.33301 81 -22c29.333 -17.333 44 -39.333 44 -66z" />
    <glyph glyph-name="Ccircumflex" unicode="&#x108;" horiz-adv-x="1465" 
d="M721 -38c-187.333 0 -339.334 52.333 -456.001 157c-118.667 106.667 -178 251 -178 433c0 244.667 86 456 258 634c174.667 180.667 391.667 271 651 271c66.667 0 137.667 -7.66699 213 -23c86.667 -17.333 153.334 -40.666 200.001 -69.999l75 55h87l-111 -518h-88
c-11.333 130.667 -44 236 -98 316c-66.667 98.667 -160.334 148 -281.001 148c-159.333 0 -288.666 -93.667 -387.999 -281c-84.667 -160 -127 -348.333 -127 -565c0 -122.667 28.333 -221.334 85 -296.001c63.333 -84 154 -126 272 -126c178 0 344.667 103.667 500 311
l77 -52c-77.333 -120 -168 -212.333 -272 -277c-125.333 -78 -265 -117 -419 -117zM1339 1513l-34 -29l-311 203l-384 -203l-32 29l292 294c37.333 40.667 87 61 149 61c56.667 0 98 -19 124 -57z" />
    <glyph glyph-name="ccircumflex" unicode="&#x109;" horiz-adv-x="1097" 
d="M557 -33c-145.333 0 -261 35.001 -347 105.001c-93.333 75.333 -140 184 -140 326c0 167.333 55.667 309.666 167 426.999c120 126.667 280 190 480 190c98.667 0 179.334 -16 242.001 -48c81.333 -41.333 122 -106.666 122 -195.999c0 -54 -13.333 -98.333 -40 -133
c-34 -44 -81.667 -66 -143 -66c-40 0 -76 9.66699 -108 29c-38 22.667 -57 52.667 -57 90c0 51.333 24.667 118.666 74 201.999c-23.333 28.667 -59.333 43 -108 43c-94 0 -165.667 -62.333 -215 -187c-37.333 -93.333 -56 -195 -56 -305c0 -215.333 75 -323 225 -323
c75.333 0 139.333 16 192 48c45.333 27.333 92.666 74 141.999 140l72 -61c-55.333 -85.333 -127.333 -153.333 -216 -204c-90.667 -51.333 -186 -77 -286 -77zM1039 1132l-53.999 -29.001l-278 254l-358 -254l-51 29l172 221c34 42.667 72.667 87.334 116 134.001
c38 40.667 87.667 61 149 61c57.333 0 98.666 -19 123.999 -57c30 -44 90 -163.667 180 -359z" />
    <glyph glyph-name="Cdotaccent" unicode="&#x10a;" horiz-adv-x="1465" 
d="M721 -38c-187.333 0 -339.334 52.333 -456.001 157c-118.667 106.667 -178 251 -178 433c0 244.667 86 456 258 634c174.667 180.667 391.667 271 651 271c66.667 0 137.667 -7.66699 213 -23c86.667 -17.333 153.334 -40.666 200.001 -69.999l75 55h87l-111 -518h-88
c-11.333 130.667 -44 236 -98 316c-66.667 98.667 -160.334 148 -281.001 148c-159.333 0 -288.666 -93.667 -387.999 -281c-84.667 -160 -127 -348.333 -127 -565c0 -122.667 28.333 -221.334 85 -296.001c63.333 -84 154 -126 272 -126c178 0 344.667 103.667 500 311
l77 -52c-77.333 -120 -168 -212.333 -272 -277c-125.333 -78 -265 -117 -419 -117zM1153 1681c0 -46.667 -16.333 -86.334 -49 -119.001s-72.334 -49 -119.001 -49s-86.334 16.333 -119.001 49s-49 72.334 -49 119.001s16.333 86.334 49 119.001s72.334 49 119.001 49
s86.334 -16.333 119.001 -49s49 -72.334 49 -119.001z" />
    <glyph glyph-name="cdotaccent" unicode="&#x10b;" horiz-adv-x="1097" 
d="M557 -33c-145.333 0 -261 35.001 -347 105.001c-93.333 75.333 -140 184 -140 326c0 167.333 55.667 309.666 167 426.999c120 126.667 280 190 480 190c98.667 0 179.334 -16 242.001 -48c81.333 -41.333 122 -106.666 122 -195.999c0 -54 -13.333 -98.333 -40 -133
c-34 -44 -81.667 -66 -143 -66c-40 0 -76 9.66699 -108 29c-38 22.667 -57 52.667 -57 90c0 51.333 24.667 118.666 74 201.999c-23.333 28.667 -59.333 43 -108 43c-94 0 -165.667 -62.333 -215 -187c-37.333 -93.333 -56 -195 -56 -305c0 -215.333 75 -323 225 -323
c75.333 0 139.333 16 192 48c45.333 27.333 92.666 74 141.999 140l72 -61c-55.333 -85.333 -127.333 -153.333 -216 -204c-90.667 -51.333 -186 -77 -286 -77zM875 1349c0 -46.667 -16.333 -86.334 -49 -119.001s-72.334 -49 -119.001 -49s-86.334 16.333 -119.001 49
s-49 72.334 -49 119.001s16.333 86.334 49 119.001s72.334 49 119.001 49s86.334 -16.333 119.001 -49s49 -72.334 49 -119.001z" />
    <glyph glyph-name="Ccaron" unicode="&#x10c;" horiz-adv-x="1465" 
d="M721 -38c-187.333 0 -339.334 52.333 -456.001 157c-118.667 106.667 -178 251 -178 433c0 244.667 86 456 258 634c174.667 180.667 391.667 271 651 271c66.667 0 137.667 -7.66699 213 -23c86.667 -17.333 153.334 -40.666 200.001 -69.999l75 55h87l-111 -518h-88
c-11.333 130.667 -44 236 -98 316c-66.667 98.667 -160.334 148 -281.001 148c-159.333 0 -288.666 -93.667 -387.999 -281c-84.667 -160 -127 -348.333 -127 -565c0 -122.667 28.333 -221.334 85 -296.001c63.333 -84 154 -126 272 -126c178 0 344.667 103.667 500 311
l77 -52c-77.333 -120 -168 -212.333 -272 -277c-125.333 -78 -265 -117 -419 -117zM1414 1839l-292.999 -289c-40.667 -40.667 -90.334 -61 -149.001 -61c-56 0 -97.333 19 -124 57l-195 293l34 29l310 -198l385 198z" />
    <glyph glyph-name="ccaron" unicode="&#x10d;" horiz-adv-x="1097" 
d="M557 -33c-145.333 0 -261 35.001 -347 105.001c-93.333 75.333 -140 184 -140 326c0 167.333 55.667 309.666 167 426.999c120 126.667 280 190 480 190c98.667 0 179.334 -16 242.001 -48c81.333 -41.333 122 -106.666 122 -195.999c0 -54 -13.333 -98.333 -40 -133
c-34 -44 -81.667 -66 -143 -66c-40 0 -76 9.66699 -108 29c-38 22.667 -57 52.667 -57 90c0 51.333 24.667 118.666 74 201.999c-23.333 28.667 -59.333 43 -108 43c-94 0 -165.667 -62.333 -215 -187c-37.333 -93.333 -56 -195 -56 -305c0 -215.333 75 -323 225 -323
c75.333 0 139.333 16 192 48c45.333 27.333 92.666 74 141.999 140l72 -61c-55.333 -85.333 -127.333 -153.333 -216 -204c-90.667 -51.333 -186 -77 -286 -77zM1117 1521l-166 -212c-38 -48 -67 -83.333 -87 -106c-43.333 -48.667 -77.333 -77.334 -102 -86.001
c-20.667 -8 -48 -12 -82 -12c-58.667 0 -100 19 -124 57c-27.333 42.667 -87.333 162.334 -180 359.001l54 29l276 -254l360 254z" />
    <glyph glyph-name="Dcaron" unicode="&#x10e;" horiz-adv-x="1708" 
d="M1622 1124c42 -74.667 63.001 -162.668 63.001 -264.001c0 -257.333 -95.667 -465.666 -287 -624.999c-188.667 -156.667 -426.334 -235 -713.001 -235h-740l17 73c66.667 2.66699 116 9.33398 148 20.001c46.667 15.333 76 49.333 88 102l229 992c6 26 9 44.667 9 56
c0 51.333 -60.333 85.666 -181 102.999l17 73h727c74.667 0 151.667 -8.66699 231 -26c183.333 -41.333 314 -131 392 -269zM1257 612.999c22.667 94.667 33.999 193.666 33.999 296.999c0 126 -26.667 225.667 -80 299c-60.667 82.667 -151.667 124 -273 124
c-23.333 0 -46.333 -0.333008 -69 -1l-55 -3l-245 -1065c-6.66699 -28.667 -10 -51 -10 -67c0 -74 59 -111 177 -111c90.667 0 171.334 24 242.001 72c136 92.667 229 244.334 279 455.001zM1362 1839l-292.999 -289c-40.667 -40.667 -90.334 -61 -149.001 -61
c-56 0 -97.333 19 -124 57l-195 293l34 29l310 -198l385 198z" />
    <glyph glyph-name="dcaron" unicode="&#x10f;" horiz-adv-x="1691" 
d="M766 125l-8.00293 -0.000976562c-56 -48 -105.667 -83 -149 -105c-67.333 -34 -132 -51 -194 -51c-116.667 0 -205 35.333 -265 106c-56.667 66 -85 158.333 -85 277c0 129.333 33.167 249.833 99.5 361.5s156.5 194.834 270.5 249.501c74 34.667 151.667 52 233 52
c110.667 0 196.334 -23.667 257.001 -71l74 325c5.33301 23.333 8 42.333 8 57c0 60 -42.667 97 -128 111c-24 4 -50.333 7.66699 -79 11l18 74l561 26l11 -16l-269 -1163c-17.333 -74.667 -26 -124 -26 -148c0 -39.333 9.66699 -66.333 29 -81
c16.667 -12.667 45.334 -19 86.001 -19c38 0 79 9.66699 123 29l-22 -90c-135.333 -53.333 -233.666 -80 -294.999 -80c-130.667 0 -214 48.333 -250 145zM883.997 764.999c0 40.667 -10.667 74.667 -32 102c-28 36 -69 54 -123 54c-83.333 0 -156 -59 -218 -177
c-58.667 -112 -88 -244 -88 -396c0 -71.333 10.667 -125.333 32 -162c25.333 -43.333 67 -65 125 -65c59.333 0 118.333 31.667 177 95zM1880 1349c0 -112 -50.3311 -219 -150.998 -321c-84.667 -86 -186.334 -152.667 -305.001 -200l-28 71
c82.667 36 148.667 76.333 198 121c61.333 55.333 102.333 116.666 123 183.999h-56c-115.333 0 -173 41.667 -173 125c0 54.667 22.667 102.334 68 143.001c43.333 38.667 92.666 58 147.999 58c117.333 0 176 -60.333 176 -181z" />
    <glyph glyph-name="Dcroat" unicode="&#x110;" horiz-adv-x="1708" 
d="M1532 1121c0 -166 -73 -293.999 -219 -383.999c-136.667 -84 -310 -126 -520 -126h-144l-89 -385c-6 -26 -9 -44.333 -9 -55c0 -37.333 22.667 -63.666 68 -78.999c19.333 -6.66699 57.333 -13 114 -19l-17 -73h-771l17 73c62 2.66699 111.333 10 148 22
c46.667 15.333 76 48.666 88 99.999l229 992c6 26 9 44.667 9 56c0 51.333 -60.333 85.666 -181 102.999l17 73h769c327.333 0 491 -99.333 491 -298zM1136 1118c0 143.333 -82.334 215 -247.001 215h-73l-146 -633h65c140 0 243.667 41 311 123
c30.667 37.333 53.334 81 68.001 131s22 104.667 22 164z" />
    <glyph glyph-name="dcroat" unicode="&#x111;" horiz-adv-x="1357" 
d="M766 125l-8 -0.000976562c-56 -48 -105.667 -83 -149 -105c-67.333 -34 -132 -51 -194 -51c-116.667 0 -205 35.333 -265 106c-56.667 66 -85 158.333 -85 277c0 174 56 325.333 168 454c117.333 134.667 261.666 202 432.999 202c112 0 198.333 -23.667 259 -71l50 217
h-395l22 94h394c8.66699 40.667 13 66.667 13 78c0 60 -43 97 -129 111c-24.667 4 -51.334 7.66699 -80.001 11l18 74l561 26l11 -16l-66 -284h218l-22 -94h-218l-181 -785c-17.333 -75.333 -26 -124.666 -26 -147.999c0 -39.333 9.66699 -66.333 29 -81
c16.667 -12.667 45.334 -19 86.001 -19c38 0 79 9.66699 123 29l-22 -90c-135.333 -53.333 -233.666 -80 -294.999 -80c-130.667 0 -214 48.333 -250 145zM882 757.999c0 40.667 -10.667 74.666 -32 101.999c-28 36 -69 54 -123 54c-99.333 0 -178.333 -73.333 -237 -220
c-44.667 -113.333 -67 -228.666 -67 -345.999c0 -71.333 10.667 -125.333 32 -162c25.333 -43.333 67 -65 125 -65c59.333 0 118.333 31.667 177 95z" />
    <glyph glyph-name="Emacron" unicode="&#x112;" horiz-adv-x="1477" 
d="M1520 1419l-83 -362h-76c-8 54.667 -27 107.667 -57 159c-36.667 61.333 -77.667 97.333 -123 108c-29.333 6.66699 -85.666 10 -168.999 10h-196l-128 -555h136c80 0 145.667 21 197 63c47.333 38.667 87 100 119 184h76l-137 -592h-76v37
c0 74.667 -10.667 127.667 -32 159c-28.667 42 -84.334 63 -167.001 63h-136l-91 -395c-12.667 -54.667 -19 -93 -19 -115c0 -47.333 22.667 -77.333 68 -90c18.667 -4.66699 61.667 -7 129 -7c164.667 0 267.667 17 309 51c37.333 30.667 83.333 78.667 138 144
c52 62 92 115.667 120 161h73l-129 -442h-1321l17 73c66.667 2.66699 116 9.33398 148 20.001c46.667 15.333 76 49.333 88 102l229 992c6 26 9 44.667 9 56c0 51.333 -60.333 85.666 -181 102.999l17 73h1248zM1309 1658h-748l34 171h748z" />
    <glyph glyph-name="emacron" unicode="&#x113;" horiz-adv-x="1141" 
d="M546 -33c-157.333 0 -277.333 40.998 -360 122.998c-77.333 76.667 -116 178.334 -116 305.001c0 166 58.333 309 175 429c124 127.333 286 191 486 191c244 0 366 -76 366 -228c0 -145.333 -100.333 -246.666 -301 -303.999c-122 -34.667 -247.667 -59 -377 -73
c4 -82.667 18 -147 42 -193c34 -65.333 94 -98 180 -98c142.667 0 262 63.333 358 190l73 -61c-60.667 -86 -137 -154 -229 -204c-94.667 -51.333 -193.667 -77 -297 -77zM772 758.998c0 117.333 -38.999 176.002 -116.999 176.002c-66.667 0 -123.334 -60 -170.001 -180
c-33.333 -84.667 -54.333 -172.334 -63 -263.001c99.333 12 169 26.667 209 44c94 41.333 141 115.666 141 222.999zM1069 1247h-748l34 171h748z" />
    <glyph glyph-name="Ebreve" unicode="&#x114;" horiz-adv-x="1477" 
d="M1520 1419l-83 -362h-76c-8 54.667 -27 107.667 -57 159c-36.667 61.333 -77.667 97.333 -123 108c-29.333 6.66699 -85.666 10 -168.999 10h-196l-128 -555h136c80 0 145.667 21 197 63c47.333 38.667 87 100 119 184h76l-137 -592h-76v37
c0 74.667 -10.667 127.667 -32 159c-28.667 42 -84.334 63 -167.001 63h-136l-91 -395c-12.667 -54.667 -19 -93 -19 -115c0 -47.333 22.667 -77.333 68 -90c18.667 -4.66699 61.667 -7 129 -7c164.667 0 267.667 17 309 51c37.333 30.667 83.333 78.667 138 144
c52 62 92 115.667 120 161h73l-129 -442h-1321l17 73c66.667 2.66699 116 9.33398 148 20.001c46.667 15.333 76 49.333 88 102l229 992c6 26 9 44.667 9 56c0 51.333 -60.333 85.666 -181 102.999l17 73h1248zM1340 1852c-70 -214.667 -207 -322 -411 -322
c-84.667 0 -152 25 -202 75s-75 117.333 -75 202c0 5.33301 0.333008 12.833 1 22.5s1 17.167 1 22.5l74 16c12 -110 90.333 -165 235 -165c142 0 245 55 309 165z" />
    <glyph glyph-name="ebreve" unicode="&#x115;" horiz-adv-x="1141" 
d="M546 -33c-157.333 0 -277.333 40.998 -360 122.998c-77.333 76.667 -116 178.334 -116 305.001c0 166 58.333 309 175 429c124 127.333 286 191 486 191c244 0 366 -76 366 -228c0 -145.333 -100.333 -246.666 -301 -303.999c-122 -34.667 -247.667 -59 -377 -73
c4 -82.667 18 -147 42 -193c34 -65.333 94 -98 180 -98c142.667 0 262 63.333 358 190l73 -61c-60.667 -86 -137 -154 -229 -204c-94.667 -51.333 -193.667 -77 -297 -77zM772 758.998c0 117.333 -38.999 176.002 -116.999 176.002c-66.667 0 -123.334 -60 -170.001 -180
c-33.333 -84.667 -54.333 -172.334 -63 -263.001c99.333 12 169 26.667 209 44c94 41.333 141 115.666 141 222.999zM1079 1532c-80.667 -264.667 -214 -397 -400 -397c-174.667 0 -262 113.667 -262 341c0 6 0.333008 15.333 1 28s1 22 1 28l74 16
c10 -80 26.333 -136 49 -168c33.333 -48 89.333 -72 168 -72c79.333 0 143 23 191 69c36 34.667 72.667 91.667 110 171z" />
    <glyph glyph-name="Edotaccent" unicode="&#x116;" horiz-adv-x="1477" 
d="M1520 1419l-83 -362h-76c-8 54.667 -27 107.667 -57 159c-36.667 61.333 -77.667 97.333 -123 108c-29.333 6.66699 -85.666 10 -168.999 10h-196l-128 -555h136c80 0 145.667 21 197 63c47.333 38.667 87 100 119 184h76l-137 -592h-76v37
c0 74.667 -10.667 127.667 -32 159c-28.667 42 -84.334 63 -167.001 63h-136l-91 -395c-12.667 -54.667 -19 -93 -19 -115c0 -47.333 22.667 -77.333 68 -90c18.667 -4.66699 61.667 -7 129 -7c164.667 0 267.667 17 309 51c37.333 30.667 83.333 78.667 138 144
c52 62 92 115.667 120 161h73l-129 -442h-1321l17 73c66.667 2.66699 116 9.33398 148 20.001c46.667 15.333 76 49.333 88 102l229 992c6 26 9 44.667 9 56c0 51.333 -60.333 85.666 -181 102.999l17 73h1248zM1115 1681c0 -46.667 -16.333 -86.334 -49 -119.001
s-72.334 -49 -119.001 -49s-86.334 16.333 -119.001 49s-49 72.334 -49 119.001s16.333 86.334 49 119.001s72.334 49 119.001 49s86.334 -16.333 119.001 -49s49 -72.334 49 -119.001z" />
    <glyph glyph-name="edotaccent" unicode="&#x117;" horiz-adv-x="1141" 
d="M546 -33c-157.333 0 -277.333 40.998 -360 122.998c-77.333 76.667 -116 178.334 -116 305.001c0 166 58.333 309 175 429c124 127.333 286 191 486 191c244 0 366 -76 366 -228c0 -145.333 -100.333 -246.666 -301 -303.999c-122 -34.667 -247.667 -59 -377 -73
c4 -82.667 18 -147 42 -193c34 -65.333 94 -98 180 -98c142.667 0 262 63.333 358 190l73 -61c-60.667 -86 -137 -154 -229 -204c-94.667 -51.333 -193.667 -77 -297 -77zM772 758.998c0 117.333 -38.999 176.002 -116.999 176.002c-66.667 0 -123.334 -60 -170.001 -180
c-33.333 -84.667 -54.333 -172.334 -63 -263.001c99.333 12 169 26.667 209 44c94 41.333 141 115.666 141 222.999zM872.001 1349c0 -46.667 -16.333 -86.334 -49 -119.001s-72.334 -49 -119.001 -49s-86.334 16.333 -119.001 49s-49 72.334 -49 119.001
s16.333 86.334 49 119.001s72.334 49 119.001 49s86.334 -16.333 119.001 -49s49 -72.334 49 -119.001z" />
    <glyph glyph-name="Eogonek" unicode="&#x118;" horiz-adv-x="1477" 
d="M1520 1419l-83 -361.999h-76c-8 54.667 -27 107.667 -57 159c-36.667 61.333 -77.667 97.333 -123 108c-29.333 6.66699 -85.666 10 -168.999 10h-196l-128 -555h136c80 0 145.667 21 197 63c47.333 38.667 87 100 119 184h76l-137 -592h-76v37
c0 74.667 -10.667 127.667 -32 159c-28.667 42 -84.334 63 -167.001 63h-136l-91 -395c-12.667 -54.667 -19 -93 -19 -115c0 -47.333 22.667 -77.333 68 -90c18.667 -4.66699 61.667 -7 129 -7c164.667 0 267.667 17 309 51c37.333 30.667 83.333 78.667 138 144
c52 62 92 115.667 120 161h73l-129 -442h-119c-95.333 -96.667 -143 -181.334 -143 -254.001c0 -62 59 -99.667 177 -113l-14 -77c-254.667 0 -382 53.667 -382 161c0 98 80.333 192.333 241 283h-1081l17 73c66.667 2.66699 116 9.33398 148 20.001
c46.667 15.333 76 49.333 88 102l229 992c6 26 9 44.667 9 56c0 51.333 -60.333 85.666 -181 102.999l17 73h1248z" />
    <glyph glyph-name="eogonek" unicode="&#x119;" horiz-adv-x="1141" 
d="M546 -33c-157.333 0 -277.334 40.998 -360.001 122.998c-77.333 76.667 -116 178.334 -116 305.001c0 166 58.333 309 175 429c124 127.333 286 191 486 191c244 0 366 -76 366 -228c0 -145.333 -100.333 -246.666 -301 -303.999c-122 -34.667 -247.667 -59 -377 -73
c4 -82.667 18 -147 42 -193c34 -65.333 94 -98 180 -98c142.667 0 262 63.333 358 190l73 -61c-65.333 -92.667 -149.333 -164.667 -252 -216c-117.333 -110.667 -176 -206 -176 -286c0 -62 59 -99.667 177 -113l-14 -77c-254.667 0 -382 53.667 -382 161
c0 88.667 64.667 173.667 194 255c-21.333 -3.33301 -45.666 -5 -72.999 -5zM771.999 758.998c0 117.333 -38.999 176.002 -116.999 176.002c-66.667 0 -123.334 -60 -170.001 -180c-33.333 -84.667 -54.333 -172.334 -63 -263.001c99.333 12 169 26.667 209 44
c94 41.333 141 115.666 141 222.999z" />
    <glyph glyph-name="Ecaron" unicode="&#x11a;" horiz-adv-x="1477" 
d="M1520 1419l-83 -362h-76c-8 54.667 -27 107.667 -57 159c-36.667 61.333 -77.667 97.333 -123 108c-29.333 6.66699 -85.666 10 -168.999 10h-196l-128 -555h136c80 0 145.667 21 197 63c47.333 38.667 87 100 119 184h76l-137 -592h-76v37
c0 74.667 -10.667 127.667 -32 159c-28.667 42 -84.334 63 -167.001 63h-136l-91 -395c-12.667 -54.667 -19 -93 -19 -115c0 -47.333 22.667 -77.333 68 -90c18.667 -4.66699 61.667 -7 129 -7c164.667 0 267.667 17 309 51c37.333 30.667 83.333 78.667 138 144
c52 62 92 115.667 120 161h73l-129 -442h-1321l17 73c66.667 2.66699 116 9.33398 148 20.001c46.667 15.333 76 49.333 88 102l229 992c6 26 9 44.667 9 56c0 51.333 -60.333 85.666 -181 102.999l17 73h1248zM1352 1839l-292.999 -289
c-40.667 -40.667 -90.334 -61 -149.001 -61c-56 0 -97.333 19 -124 57l-195 293l34 29l310 -198l385 198z" />
    <glyph glyph-name="ecaron" unicode="&#x11b;" horiz-adv-x="1141" 
d="M546 -33c-157.333 0 -277.333 40.998 -360 122.998c-77.333 76.667 -116 178.334 -116 305.001c0 166 58.333 309 175 429c124 127.333 286 191 486 191c244 0 366 -76 366 -228c0 -145.333 -100.333 -246.666 -301 -303.999c-122 -34.667 -247.667 -59 -377 -73
c4 -82.667 18 -147 42 -193c34 -65.333 94 -98 180 -98c142.667 0 262 63.333 358 190l73 -61c-60.667 -86 -137 -154 -229 -204c-94.667 -51.333 -193.667 -77 -297 -77zM772 758.998c0 117.333 -38.999 176.002 -116.999 176.002c-66.667 0 -123.334 -60 -170.001 -180
c-33.333 -84.667 -54.333 -172.334 -63 -263.001c99.333 12 169 26.667 209 44c94 41.333 141 115.666 141 222.999zM1110 1521l-166 -212c-38 -48 -67 -83.333 -87 -106c-43.333 -48.667 -77.333 -77.334 -102 -86.001c-20.667 -8 -48 -12 -82 -12
c-58.667 0 -100 19 -124 57c-27.333 42.667 -87.333 162.334 -180 359.001l54 29l276 -254l360 254z" />
    <glyph glyph-name="Gcircumflex" unicode="&#x11c;" horiz-adv-x="1653" 
d="M725 -39c-186 0 -337.333 50.668 -454 152.001c-122.667 106.667 -184 248.667 -184 426c0 264 89 483.667 267 659c175.333 172.667 398.333 259 669 259c170.667 0 310.667 -31 420 -93l74 55h87l-110 -518h-88c-29.333 309.333 -158 464 -386 464
c-160.667 0 -293 -91 -397 -273c-95.333 -166 -143 -367.333 -143 -604c0 -119.333 21 -216.333 63 -291c52 -93.333 133 -140 243 -140c92 0 174.667 31 248 93l63 271c6 26 9 45.333 9 58c0 49.333 -66.667 83.666 -200 102.999l17 73h768l-17 -73
c-46 -2.66699 -92 -11 -138 -25s-75.333 -47.667 -88 -101l-40 -173c-8.66699 -37.333 -18.667 -89.333 -30 -156c-83.333 -48 -189 -88 -317 -120c-124 -30.667 -236 -46 -336 -46zM1354 1513l-34 -29l-311 203l-384 -203l-32 29l292 294c37.333 40.667 87 61 149 61
c56.667 0 98 -19 124 -57z" />
    <glyph glyph-name="gcircumflex" unicode="&#x11d;" horiz-adv-x="1330" 
d="M750 105l-7.99805 0.00195312c-46 -36.667 -89 -64.334 -129 -83.001c-64.667 -30 -127 -45 -187 -45c-116.667 0 -206.667 34.667 -270 104c-60.667 67.333 -91 160 -91 278c0 128 32.667 246.667 98 356c67.333 112 158 194.667 272 248c73.333 34.667 151 52 233 52
c120 0 212.667 -26 278 -78l305 63l14 -16l-170 -813c-24.667 -118 -61.667 -218.333 -111 -301c-90.667 -150.667 -212.334 -246.334 -365.001 -287.001c-70 -18 -143.333 -27 -220 -27c-150 0 -256.333 22 -319 66c-46 32.667 -69 76 -69 130
c0 43.333 14.667 78.833 44 106.5s65.666 41.5 108.999 41.5c62.667 0 119.667 -33 171 -99c31.333 -40 62 -94.667 92 -164c78 13.333 137.667 44.666 179 93.999c60.667 72.667 108.667 197.334 144 374.001zM884.002 760.002c0 40.667 -10.668 74.668 -32.001 102.001
c-28 36 -69 54 -123 54c-83.333 0 -155.666 -57 -216.999 -171c-59.333 -110.667 -89 -241 -89 -391c0 -68.667 12.667 -122.334 38 -161.001c28 -42.667 71.333 -64 130 -64c64.667 0 125.667 31.333 183 94zM1112 1132l-53.999 -29.001l-278 254l-358 -254l-51 29l172 221
c34 42.667 72.667 87.334 116 134.001c38 40.667 87.667 61 149 61c57.333 0 98.666 -19 123.999 -57c30 -44 90 -163.667 180 -359z" />
    <glyph glyph-name="Gbreve" unicode="&#x11e;" horiz-adv-x="1653" 
d="M725 -39c-186 0 -337.333 50.668 -454 152.001c-122.667 106.667 -184 248.667 -184 426c0 264 89 483.667 267 659c175.333 172.667 398.333 259 669 259c170.667 0 310.667 -31 420 -93l74 55h87l-110 -518h-88c-29.333 309.333 -158 464 -386 464
c-160.667 0 -293 -91 -397 -273c-95.333 -166 -143 -367.333 -143 -604c0 -119.333 21 -216.333 63 -291c52 -93.333 133 -140 243 -140c92 0 174.667 31 248 93l63 271c6 26 9 45.333 9 58c0 49.333 -66.667 83.666 -200 102.999l17 73h768l-17 -73
c-46 -2.66699 -92 -11 -138 -25s-75.333 -47.667 -88 -101l-40 -173c-8.66699 -37.333 -18.667 -89.333 -30 -156c-83.333 -48 -189 -88 -317 -120c-124 -30.667 -236 -46 -336 -46zM1414 1852c-70 -214.667 -207 -322 -411 -322c-84.667 0 -152 25 -202 75
s-75 117.333 -75 202c0 5.33301 0.333008 12.833 1 22.5s1 17.167 1 22.5l74 16c12 -110 90.333 -165 235 -165c142 0 245 55 309 165z" />
    <glyph glyph-name="gbreve" unicode="&#x11f;" horiz-adv-x="1330" 
d="M750 105l-7.99805 0.00195312c-46 -36.667 -89 -64.334 -129 -83.001c-64.667 -30 -127 -45 -187 -45c-116.667 0 -206.667 34.667 -270 104c-60.667 67.333 -91 160 -91 278c0 128 32.667 246.667 98 356c67.333 112 158 194.667 272 248c73.333 34.667 151 52 233 52
c120 0 212.667 -26 278 -78l305 63l14 -16l-170 -813c-24.667 -118 -61.667 -218.333 -111 -301c-90.667 -150.667 -212.334 -246.334 -365.001 -287.001c-70 -18 -143.333 -27 -220 -27c-150 0 -256.333 22 -319 66c-46 32.667 -69 76 -69 130
c0 43.333 14.667 78.833 44 106.5s65.666 41.5 108.999 41.5c62.667 0 119.667 -33 171 -99c31.333 -40 62 -94.667 92 -164c78 13.333 137.667 44.666 179 93.999c60.667 72.667 108.667 197.334 144 374.001zM884.002 760.002c0 40.667 -10.668 74.668 -32.001 102.001
c-28 36 -69 54 -123 54c-83.333 0 -155.666 -57 -216.999 -171c-59.333 -110.667 -89 -241 -89 -391c0 -68.667 12.667 -122.334 38 -161.001c28 -42.667 71.333 -64 130 -64c64.667 0 125.667 31.333 183 94zM1139 1532c-80.667 -264.667 -214 -397 -400 -397
c-174.667 0 -262 113.667 -262 341c0 6 0.333008 15.333 1 28s1 22 1 28l74 16c10 -80 26.333 -136 49 -168c33.333 -48 89.333 -72 168 -72c79.333 0 143 23 191 69c36 34.667 72.667 91.667 110 171z" />
    <glyph glyph-name="Gdotaccent" unicode="&#x120;" horiz-adv-x="1653" 
d="M725 -39c-186 0 -337.333 50.668 -454 152.001c-122.667 106.667 -184 248.667 -184 426c0 264 89 483.667 267 659c175.333 172.667 398.333 259 669 259c170.667 0 310.667 -31 420 -93l74 55h87l-110 -518h-88c-29.333 309.333 -158 464 -386 464
c-160.667 0 -293 -91 -397 -273c-95.333 -166 -143 -367.333 -143 -604c0 -119.333 21 -216.333 63 -291c52 -93.333 133 -140 243 -140c92 0 174.667 31 248 93l63 271c6 26 9 45.333 9 58c0 49.333 -66.667 83.666 -200 102.999l17 73h768l-17 -73
c-46 -2.66699 -92 -11 -138 -25s-75.333 -47.667 -88 -101l-40 -173c-8.66699 -37.333 -18.667 -89.333 -30 -156c-83.333 -48 -189 -88 -317 -120c-124 -30.667 -236 -46 -336 -46zM1182 1681c0 -46.667 -16.333 -86.334 -49 -119.001s-72.334 -49 -119.001 -49
s-86.334 16.333 -119.001 49s-49 72.334 -49 119.001s16.333 86.334 49 119.001s72.334 49 119.001 49s86.334 -16.333 119.001 -49s49 -72.334 49 -119.001z" />
    <glyph glyph-name="gdotaccent" unicode="&#x121;" horiz-adv-x="1330" 
d="M750 105l-7.99805 0.00195312c-46 -36.667 -89 -64.334 -129 -83.001c-64.667 -30 -127 -45 -187 -45c-116.667 0 -206.667 34.667 -270 104c-60.667 67.333 -91 160 -91 278c0 128 32.667 246.667 98 356c67.333 112 158 194.667 272 248c73.333 34.667 151 52 233 52
c120 0 212.667 -26 278 -78l305 63l14 -16l-170 -813c-24.667 -118 -61.667 -218.333 -111 -301c-90.667 -150.667 -212.334 -246.334 -365.001 -287.001c-70 -18 -143.333 -27 -220 -27c-150 0 -256.333 22 -319 66c-46 32.667 -69 76 -69 130
c0 43.333 14.667 78.833 44 106.5s65.666 41.5 108.999 41.5c62.667 0 119.667 -33 171 -99c31.333 -40 62 -94.667 92 -164c78 13.333 137.667 44.666 179 93.999c60.667 72.667 108.667 197.334 144 374.001zM884.002 760.002c0 40.667 -10.668 74.668 -32.001 102.001
c-28 36 -69 54 -123 54c-83.333 0 -155.666 -57 -216.999 -171c-59.333 -110.667 -89 -241 -89 -391c0 -68.667 12.667 -122.334 38 -161.001c28 -42.667 71.333 -64 130 -64c64.667 0 125.667 31.333 183 94zM944.001 1349c0 -46.667 -16.333 -86.334 -49 -119.001
s-72.334 -49 -119.001 -49s-86.334 16.333 -119.001 49s-49 72.334 -49 119.001s16.333 86.334 49 119.001s72.334 49 119.001 49s86.334 -16.333 119.001 -49s49 -72.334 49 -119.001z" />
    <glyph glyph-name="Gcommaaccent" unicode="&#x122;" horiz-adv-x="1653" 
d="M725 -39c-186 0 -337.333 50.668 -454 152.001c-122.667 106.667 -184 248.667 -184 426c0 264 89 483.667 267 659c175.333 172.667 398.333 259 669 259c170.667 0 310.667 -31 420 -93l74 55h87l-110 -518h-88c-29.333 309.333 -158 464 -386 464
c-160.667 0 -293 -91 -397 -273c-95.333 -166 -143 -367.333 -143 -604c0 -119.333 21 -216.333 63 -291c52 -93.333 133 -140 243 -140c92 0 174.667 31 248 93l63 271c6 26 9 45.333 9 58c0 49.333 -66.667 83.666 -200 102.999l17 73h768l-17 -73
c-46 -2.66699 -92 -11 -138 -25s-75.333 -47.667 -88 -101l-40 -173c-8.66699 -37.333 -18.667 -89.333 -30 -156c-83.333 -48 -189 -88 -317 -120c-124 -30.667 -236 -46 -336 -46zM554 -443.999l10 64c68 4.66699 115.667 13.667 143 27c38 18 62.333 47.667 73 89h-57
c-90.667 0 -136 27.667 -136 83c0 76.667 51.667 115 155 115c101.333 0 152 -48.667 152 -146c0 -154.667 -113.333 -232 -340 -232z" />
    <glyph glyph-name="gcommaaccent" unicode="&#x123;" horiz-adv-x="1330" 
d="M750 105l-7.99805 0.00195312c-46 -36.667 -89 -64.334 -129 -83.001c-64.667 -30 -127 -45 -187 -45c-116.667 0 -206.667 34.667 -270 104c-60.667 67.333 -91 160 -91 278c0 128 32.667 246.667 98 356c67.333 112 158 194.667 272 248c73.333 34.667 151 52 233 52
c120 0 212.667 -26 278 -78l305 63l14 -16l-170 -813c-24.667 -118 -61.667 -218.333 -111 -301c-90.667 -150.667 -212.334 -246.334 -365.001 -287.001c-70 -18 -143.333 -27 -220 -27c-150 0 -256.333 22 -319 66c-46 32.667 -69 76 -69 130
c0 43.333 14.667 78.833 44 106.5s65.666 41.5 108.999 41.5c62.667 0 119.667 -33 171 -99c31.333 -40 62 -94.667 92 -164c78 13.333 137.667 44.666 179 93.999c60.667 72.667 108.667 197.334 144 374.001zM884.002 760.002c0 40.667 -10.668 74.668 -32.001 102.001
c-28 36 -69 54 -123 54c-83.333 0 -155.666 -57 -216.999 -171c-59.333 -110.667 -89 -241 -89 -391c0 -68.667 12.667 -122.334 38 -161.001c28 -42.667 71.333 -64 130 -64c64.667 0 125.667 31.333 183 94zM768.001 1116c-122.667 0 -184 60 -184 180
c0 92 38 177.667 114 257c64.667 68 158 126.667 280 176l31 -64c-157.333 -66.667 -250 -154.667 -278 -264h53c114 0 171 -38.333 171 -115c0 -48 -19 -88.333 -57 -121s-81.333 -49 -130 -49z" />
    <glyph glyph-name="Hcircumflex" unicode="&#x124;" horiz-adv-x="1870" 
d="M1994 1419l-17 -73.0029c-57.333 -4 -107 -12.333 -149 -25c-46 -14 -75.333 -48 -88 -102l-229 -993c-6 -26 -9 -44.333 -9 -55c0 -37.333 22.667 -63.666 68 -78.999c20.667 -7.33301 58.667 -13.666 114 -18.999l-17 -73h-767l17 73c36.667 2 84.334 8 143.001 18
c48 17.333 77.667 51.333 89 102l113 497h-596l-106 -464c-6 -26 -9 -44.333 -9 -55c0 -37.333 22 -63.666 66 -78.999c19.333 -6.66699 56.666 -13 111.999 -19l-17 -73h-767l17 73c66.667 2.66699 116 9.33398 148 20.001c46.667 15.333 76 49.333 88 102l229 992
c6 26 9 44.667 9 56c0 51.333 -60.333 85.666 -181 102.999l17 73h767l-17 -73c-52 -3.33301 -100.667 -11.833 -146 -25.5s-74.333 -47.5 -87 -101.5l-99 -431h596l92 399c6 26 9 44.667 9 56c0 48.667 -59 83 -177 103l17 73h767zM1489 1513l-34 -29l-311 203l-384 -203
l-32 29l292 294c37.333 40.667 87 61 149 61c56.667 0 98 -19 124 -57z" />
    <glyph glyph-name="hcircumflex" unicode="&#x125;" horiz-adv-x="1383" 
d="M1354 151l-22.001 -87.999c-135.333 -53.333 -233.666 -80 -294.999 -80c-69.333 0 -127.333 16.667 -174 50c-52 37.333 -78 89.666 -78 156.999c0 54 6.66699 105.667 20 155l72 266c14.667 54 22 98.667 22 134c0 68 -33.667 102 -101 102
c-68.667 0 -148 -41.667 -238 -125l-165 -722h-331l264 1144c5.33301 23.333 8 42.333 8 57c0 43.333 -16 73.666 -48 90.999c-22 12 -64.333 21 -127 27l18 74l527 26l11 -16l-130 -563h7c132 116.667 268 175 408 175c66.667 0 121.667 -18 165 -54
c47.333 -38 71 -89.667 71 -155c0 -52.667 -6.66699 -103.667 -20 -153l-76 -281c-17.333 -64 -26 -113.333 -26 -148c0 -39.333 9.33301 -66.666 28 -81.999c16.667 -13.333 45.667 -20 87 -20c40.667 0 81.667 9.66699 123 29zM1225 1513l-34.001 -29l-311 203l-384 -203
l-32 29l292 294c38.667 40.667 88.334 61 149.001 61c56.667 0 98 -19 124 -57z" />
    <glyph glyph-name="Hbar" unicode="&#x126;" horiz-adv-x="1870" 
d="M1994 1419l-17 -73.0059c-57.333 -4 -107 -12.333 -149 -25c-46 -14 -75.333 -48 -88 -102l-26 -111h195l-23 -97h-194l-181 -785c-6 -26 -9 -44.333 -9 -55c0 -37.333 22.667 -63.666 68 -78.999c20.667 -7.33301 58.667 -13.666 114 -18.999l-17 -73h-767l17 73
c36.667 2 84.334 8 143.001 18c48 17.333 77.667 51.333 89 102l113 497h-596l-106 -464c-6 -26 -9 -44.333 -9 -55c0 -37.333 22 -63.666 66 -78.999c19.333 -6.66699 56.666 -13 111.999 -19l-17 -73h-767l17 73c66.667 2.66699 116 9.33398 148 20.001
c46.667 15.333 76 49.333 88 102l188 816h-196l23 97h196l18 79c6 26.667 9 45.334 9 56.001c0 51.333 -60.333 85.666 -181 102.999l17 73h767l-17 -73c-52 -3.33301 -100.333 -11.666 -145 -24.999c-46.667 -14 -76 -48 -88 -102l-25 -111h596l18 79
c6 26.667 9 45.334 9 56.001c0 48.667 -59 83 -177 103l17 73h767zM742 1010.99l-52 -223h596l51 223h-595z" />
    <glyph glyph-name="hbar" unicode="&#x127;" horiz-adv-x="1383" 
d="M1354 151l-22.001 -88.002c-135.333 -53.333 -233.666 -80 -294.999 -80c-69.333 0 -127.333 16.667 -174 50c-52 37.333 -78 89.666 -78 156.999c0 54.667 6.66699 106.334 20 155.001l71 260c14.667 54 22 98.667 22 134c0 68 -33.667 102 -101 102
c-66.667 0 -146 -41.667 -238 -125l-164 -716h-331l267 1152h-249l22 94h248c9.33301 36 14 64 14 84c0 43.333 -16 73.666 -48 90.999c-22 12 -64.333 21 -127 27l18 74l527 26l11 -16l-66 -286h353l-22 -94h-353l-73 -318h7c132 116.667 268 175 408 175
c66.667 0 121.667 -18 165 -54c47.333 -38 71 -89.667 71 -155c0 -31.333 -2.33301 -61.666 -7 -90.999c-2.66699 -19.333 -7 -40 -13 -62l-75 -275c-17.333 -63.333 -26 -112.666 -26 -147.999c0 -39.333 9.33301 -66.666 28 -81.999c16.667 -13.333 45.667 -20 87 -20
c40.667 0 81.667 9.66699 123 29z" />
    <glyph glyph-name="Itilde" unicode="&#x128;" horiz-adv-x="923" 
d="M-61 0l17 73c69.333 2.66699 121.333 9.66699 156 21c46.667 15.333 76 49 88 101l229 992c6 26 9 44.667 9 56c0 50 -63 84.333 -189 103l17 73h787l-17 -73c-65.333 -4 -117.666 -12.333 -156.999 -25c-46.667 -14.667 -76 -48.667 -88 -102l-229 -993
c-6 -26 -9 -44.333 -9 -55c0 -37.333 24 -64 72 -80c21.333 -6.66699 60.666 -12.667 117.999 -18l-17 -73h-787zM1153 1849c-54 -122.667 -130.666 -213 -229.999 -271c-33.333 -20 -70.333 -30 -111 -30c-60.667 0 -126.667 19.333 -198 58
c-65.333 35.333 -117.333 53 -156 53c-31.333 0 -62 -18 -92 -54l-65 -94l-71 30c32.667 67.333 76 130.333 130 189c66.667 72.667 134 109 202 109c51.333 0 114.333 -18 189 -54l80 -39c22 -10.667 47.333 -16 76 -16c50.667 0 85.667 11.667 105 35
c7.33301 9.33301 28.666 45.333 63.999 108z" />
    <glyph glyph-name="itilde" unicode="&#x129;" horiz-adv-x="749" 
d="M713 143l-22.001 -90c-135.333 -53.333 -233.666 -80 -294.999 -80c-70.667 0 -129 16.333 -175 49c-52 37.333 -78 90 -78 158c0 52.667 7 104 21 154l82 292c17.333 62 26 111.333 26 148c0 39.333 -8.66699 66.333 -26 81c-16 12.667 -44.333 19 -85 19
c-30.667 0 -71.667 -9.66699 -123 -29l22 90c130.667 53.333 229 80 295 80c71.333 0 129 -16.333 173 -49c50 -36.667 75 -89.334 75 -158.001c0 -53.333 -7 -105 -21 -155l-82 -291c-17.333 -61.333 -26 -110.666 -26 -147.999c0 -39.333 9.66699 -66.333 29 -81
c16.667 -12.667 45.667 -19 87 -19c40.667 0 81.667 9.66699 123 29zM847.999 1484c-31.333 -75.333 -72.667 -140 -124 -194c-67.333 -71.333 -133 -107 -197 -107c-56 0 -118 19.333 -186 58c-62 35.333 -109.667 53 -143 53c-27.333 0 -51.333 -11.333 -72 -34
c-11.333 -12 -23 -28.333 -35 -49l-41 -66l-70 31c34 71.333 74.667 134.333 122 189c62.667 72.667 126 109 190 109c50.667 0 110 -18 178 -54l75 -39c19.333 -10.667 42.333 -16 69 -16c40.667 0 74 15 100 45c11.333 12.667 31 45.667 59 99z" />
    <glyph glyph-name="Imacron" unicode="&#x12a;" horiz-adv-x="923" 
d="M-61 0l17 73c69.333 2.66699 121.333 9.66699 156 21c46.667 15.333 76 49 88 101l229 992c6 26 9 44.667 9 56c0 50 -63 84.333 -189 103l17 73h787l-17 -73c-65.333 -4 -117.666 -12.333 -156.999 -25c-46.667 -14.667 -76 -48.667 -88 -102l-229 -993
c-6 -26 -9 -44.333 -9 -55c0 -37.333 24 -64 72 -80c21.333 -6.66699 60.666 -12.667 117.999 -18l-17 -73h-787zM1056 1658h-748l34 171h748z" />
    <glyph glyph-name="imacron" unicode="&#x12b;" horiz-adv-x="749" 
d="M713 143l-22.001 -90c-135.333 -53.333 -233.666 -80 -294.999 -80c-70.667 0 -129 16.333 -175 49c-52 37.333 -78 90 -78 158c0 52.667 7 104 21 154l82 292c17.333 62 26 111.333 26 148c0 39.333 -8.66699 66.333 -26 81c-16 12.667 -44.333 19 -85 19
c-30.667 0 -71.667 -9.66699 -123 -29l22 90c130.667 53.333 229 80 295 80c71.333 0 129 -16.333 173 -49c50 -36.667 75 -89.334 75 -158.001c0 -53.333 -7 -105 -21 -155l-82 -291c-17.333 -61.333 -26 -110.666 -26 -147.999c0 -39.333 9.66699 -66.333 29 -81
c16.667 -12.667 45.667 -19 87 -19c40.667 0 81.667 9.66699 123 29zM739.999 1247h-698l34 171h698z" />
    <glyph glyph-name="Ibreve" unicode="&#x12c;" horiz-adv-x="923" 
d="M-61 0l17 73c69.333 2.66699 121.333 9.66699 156 21c46.667 15.333 76 49 88 101l229 992c6 26 9 44.667 9 56c0 50 -63 84.333 -189 103l17 73h787l-17 -73c-65.333 -4 -117.666 -12.333 -156.999 -25c-46.667 -14.667 -76 -48.667 -88 -102l-229 -993
c-6 -26 -9 -44.333 -9 -55c0 -37.333 24 -64 72 -80c21.333 -6.66699 60.666 -12.667 117.999 -18l-17 -73h-787zM1091 1852c-70 -214.667 -207 -322 -411 -322c-84.667 0 -152 25 -202 75s-75 117.333 -75 202c0 5.33301 0.333008 12.833 1 22.5s1 17.167 1 22.5l74 16
c12 -110 90.333 -165 235 -165c142 0 245 55 309 165z" />
    <glyph glyph-name="ibreve" unicode="&#x12d;" horiz-adv-x="749" 
d="M713 143l-22.001 -90c-135.333 -53.333 -233.666 -80 -294.999 -80c-70.667 0 -129 16.333 -175 49c-52 37.333 -78 90 -78 158c0 52.667 7 104 21 154l82 292c17.333 62 26 111.333 26 148c0 39.333 -8.66699 66.333 -26 81c-16 12.667 -44.333 19 -85 19
c-30.667 0 -71.667 -9.66699 -123 -29l22 90c130.667 53.333 229 80 295 80c71.333 0 129 -16.333 173 -49c50 -36.667 75 -89.334 75 -158.001c0 -53.333 -7 -105 -21 -155l-82 -291c-17.333 -61.333 -26 -110.666 -26 -147.999c0 -39.333 9.66699 -66.333 29 -81
c16.667 -12.667 45.667 -19 87 -19c40.667 0 81.667 9.66699 123 29zM762.999 1532c-39.333 -120 -82.667 -210 -130 -270c-67.333 -84.667 -153 -127 -257 -127c-165.333 0 -248 109 -248 327c0 18.667 1 42 3 70l74 16c8 -78.667 22.333 -134.667 43 -168
c29.333 -48 83.333 -72 162 -72c78 0 138.667 23 182 69c28 30 62.333 87 103 171z" />
    <glyph glyph-name="Iogonek" unicode="&#x12e;" horiz-adv-x="923" 
d="M-61 0l17 73.001c69.333 2.66699 121.333 9.66699 156 21c46.667 15.333 76 49 88 101l229 992c6 26 9 44.667 9 56c0 50 -63 84.333 -189 103l17 73h787l-17 -73c-65.333 -4 -117.666 -12.333 -156.999 -25c-46.667 -14.667 -76 -48.667 -88 -102l-229 -993
c-6 -26 -9 -44.333 -9 -55c0 -37.333 24 -64 72 -80c21.333 -6.66699 60.666 -12.667 117.999 -18l-17 -73h-238c-95.333 -96.667 -143 -181.334 -143 -254.001c0 -62 59 -99.667 177 -113l-14 -77c-254.667 0 -382 53.667 -382 161c0 98 80.333 192.333 241 283h-428z" />
    <glyph glyph-name="iogonek" unicode="&#x12f;" horiz-adv-x="749" 
d="M235 -402c-40 19.333 -65.333 37.999 -76 55.999c-7.33301 12 -11 33 -11 63c0 89.333 66.667 176 200 260c-136.667 18 -205 85.667 -205 203c0 52.667 7 104 21 154l82 292c17.333 62 26 111.333 26 148c0 39.333 -8.66699 66.333 -26 81c-16 12.667 -44.333 19 -85 19
c-30.667 0 -71.667 -9.66699 -123 -29l22 90c130.667 53.333 229 80 295 80c71.333 0 129 -16.333 173 -49c50 -36.667 75 -89.334 75 -158.001c0 -53.333 -7 -105 -21 -155l-82 -291c-17.333 -61.333 -26 -110.666 -26 -147.999c0 -39.333 9.66699 -66.333 29 -81
c16.667 -12.667 45.667 -19 87 -19c40.667 0 81.667 9.66699 123 29l-22 -90l-107 -40c-30 -11.333 -58.667 -20 -86 -26c-87.333 -91.333 -131 -171.666 -131 -240.999c0 -62 59 -99.667 177 -113l-14 -77c-138.667 0 -237 14 -295 42zM734 1364
c0 -52 -19.5 -95.5 -58.5 -130.5s-84.833 -52.5 -137.5 -52.5s-98.667 17.5 -138 52.5s-59 78.5 -59 130.5s19.667 95.667 59 131s85.333 53 138 53s98.5 -17.5 137.5 -52.5s58.5 -78.833 58.5 -131.5z" />
    <glyph glyph-name="Idotaccent" unicode="&#x130;" horiz-adv-x="923" 
d="M-61 0l17 73c69.333 2.66699 121.333 9.66699 156 21c46.667 15.333 76 49 88 101l229 992c6 26 9 44.667 9 56c0 50 -63 84.333 -189 103l17 73h787l-17 -73c-65.333 -4 -117.666 -12.333 -156.999 -25c-46.667 -14.667 -76 -48.667 -88 -102l-229 -993
c-6 -26 -9 -44.333 -9 -55c0 -37.333 24 -64 72 -80c21.333 -6.66699 60.666 -12.667 117.999 -18l-17 -73h-787zM850 1700c0 -46.667 -16.333 -86.334 -49 -119.001s-72.334 -49 -119.001 -49s-86.334 16.333 -119.001 49s-49 72.334 -49 119.001s16.333 86.334 49 119.001
s72.334 49 119.001 49s86.334 -16.333 119.001 -49s49 -72.334 49 -119.001z" />
    <glyph glyph-name="dotlessi" unicode="&#x131;" horiz-adv-x="749" 
d="M713 143l-22.001 -90c-135.333 -53.333 -233.666 -80 -294.999 -80c-70.667 0 -129 16.333 -175 49c-52 37.333 -78 90 -78 158c0 52.667 7 104 21 154l82 292c17.333 62 26 111.333 26 148c0 39.333 -8.66699 66.333 -26 81c-16 12.667 -44.333 19 -85 19
c-30.667 0 -71.667 -9.66699 -123 -29l22 90c130.667 53.333 229 80 295 80c71.333 0 129 -16.333 173 -49c50 -36.667 75 -89.334 75 -158.001c0 -53.333 -7 -105 -21 -155l-82 -291c-17.333 -61.333 -26 -110.666 -26 -147.999c0 -39.333 9.66699 -66.333 29 -81
c16.667 -12.667 45.667 -19 87 -19c40.667 0 81.667 9.66699 123 29z" />
    <glyph glyph-name="IJ" unicode="&#x132;" horiz-adv-x="2040" 
d="M-61 0l17 73c69.333 2.66699 121.333 9.66699 156 21c46.667 15.333 76 49 88 101l229 992c6 26 9 44.667 9 56c0 50 -63 84.333 -189 103l17 73h787l-17 -73c-65.333 -4 -117.666 -12.333 -156.999 -25c-46.667 -14.667 -76 -48.667 -88 -102l-229 -993
c-6 -26 -9 -44.333 -9 -55c0 -37.333 24 -64 72 -80c21.333 -6.66699 60.666 -12.667 117.999 -18l-17 -73h-787zM1768 432c-34 -148.667 -108.667 -265.333 -224 -350c-109.333 -80 -226.666 -120 -351.999 -120c-115.333 0 -209 26 -281 78
c-81.333 58 -122 142.667 -122 254c0 60 17.667 111 53 153c38 44.667 86.333 67 145 67c55.333 0 100.333 -15.833 135 -47.5s52 -74.834 52 -129.501c0 -55.333 -27.667 -109 -83 -161l-61 -57v-14c12 -32.667 42.667 -49 92 -49c135.333 0 229.666 115.667 282.999 347
l181 784c6 26 9 44.667 9 56c0 50.667 -61 85 -183 103l17 73h766l-17 -73c-52 -3.33301 -99 -11.666 -141 -24.999c-46.667 -14.667 -76 -48.667 -88 -102z" />
    <glyph glyph-name="ij" unicode="&#x133;" horiz-adv-x="1397" 
d="M713 143l-22.001 -90c-135.333 -53.333 -233.666 -80 -294.999 -80c-70.667 0 -129 16.333 -175 49c-52 37.333 -78 90 -78 158c0 52.667 7 104 21 154l82 292c17.333 62 26 111.333 26 148c0 39.333 -8.66699 66.333 -26 81c-16 12.667 -44.333 19 -85 19
c-30.667 0 -71.667 -9.66699 -123 -29l22 90c130.667 53.333 229 80 295 80c71.333 0 129 -16.333 173 -49c50 -36.667 75 -89.334 75 -158.001c0 -53.333 -7 -105 -21 -155l-82 -291c-17.333 -61.333 -26 -110.666 -26 -147.999c0 -39.333 9.66699 -66.333 29 -81
c16.667 -12.667 45.667 -19 87 -19c40.667 0 81.667 9.66699 123 29zM733.999 1364c0 -52 -19.5 -95.5 -58.5 -130.5s-84.833 -52.5 -137.5 -52.5s-98.667 17.5 -138 52.5s-59 78.5 -59 130.5s19.667 95.667 59 131s85.333 53 138 53s98.5 -17.5 137.5 -52.5
s58.5 -78.833 58.5 -131.5zM1277 808c0 -42 -4 -83.6641 -12 -124.997l-62 -324c-12.667 -66.667 -36.334 -166.334 -71.001 -299.001c-36 -138.667 -107.667 -256 -215 -352c-113.333 -101.333 -233.333 -152 -360 -152c-107.333 0 -184.666 21.333 -231.999 64
c-35.333 32 -53 75 -53 129c0 42.667 14.833 77.834 44.5 105.501s65.834 41.5 108.501 41.5c37.333 0 71.333 -11.667 102 -35c42.667 -33.333 78.667 -83 108 -149l34 -75c46.667 81.333 89.667 209.666 129 384.999c47.333 209.333 91 421.666 131 636.999
c10 54 15 92.333 15 115c0 66.667 -38 100 -114 100c-24.667 0 -67.334 -9.66699 -128.001 -29l22 90c130.667 53.333 232 80 304 80c71.333 0 129.333 -16.333 174 -49c50 -36.667 75 -89.334 75 -158.001zM1392 1364c0 -52 -19.5 -95.5 -58.5 -130.5
s-84.833 -52.5 -137.5 -52.5s-98.667 17.5 -138 52.5s-59 78.5 -59 130.5s19.667 95.667 59 131s85.333 53 138 53s98.5 -17.5 137.5 -52.5s58.5 -78.833 58.5 -131.5z" />
    <glyph glyph-name="Jcircumflex" unicode="&#x134;" horiz-adv-x="1219" 
d="M947 432c-34 -147.333 -109.665 -263.999 -226.998 -349.999c-109.333 -80 -228 -120 -356 -120c-116 0 -210.667 25.667 -284 77c-84.667 59.333 -127 144.333 -127 255c0 63.333 18.167 115.833 54.5 157.5s85.5 62.5 147.5 62.5c55.333 0 100.333 -15.833 135 -47.5
s52 -74.834 52 -129.501c0 -54 -28.667 -107.667 -86 -161l-62 -58v-13c12 -32.667 45.333 -49 100 -49c140 0 236.667 115.667 290 347l181 784c6 26 9 44.667 9 56c0 50.667 -61 85 -183 103l17 73h766l-17 -73c-48.667 -3.33301 -95.834 -11.833 -141.501 -25.5
s-74.834 -47.5 -87.501 -101.5zM1352 1513l-34 -29l-311 203l-384 -203l-32 29l292 294c37.333 40.667 87 61 149 61c56.667 0 98 -19 124 -57z" />
    <glyph glyph-name="jcircumflex" unicode="&#x135;" horiz-adv-x="747" 
d="M627 808c0 -42 -4 -83.6641 -12 -124.997l-62 -324c-12.667 -66.667 -36.334 -166.334 -71.001 -299.001c-36 -138.667 -107.667 -256 -215 -352c-113.333 -101.333 -233.333 -152 -360 -152c-107.333 0 -184.666 21.333 -231.999 64c-35.333 32 -53 75 -53 129
c0 42.667 14.833 77.834 44.5 105.501s65.834 41.5 108.501 41.5c37.333 0 71.333 -11.667 102 -35c42.667 -33.333 78.667 -83 108 -149l34 -75c46.667 81.333 89.667 209.666 129 384.999c47.333 209.333 91 421.666 131 636.999c10 54 15 92.333 15 115
c0 66.667 -38 100 -114 100c-24.667 0 -67.334 -9.66699 -128.001 -29l22 90c130.667 53.333 232 80 304 80c71.333 0 129.333 -16.333 174 -49c50 -36.667 75 -89.334 75 -158.001zM741 1132l-53.999 -29.001l-278 254l-358 -254l-51 29l172 221
c34 42.667 72.667 87.334 116 134.001c38 40.667 87.667 61 149 61c57.333 0 98.666 -19 123.999 -57c30 -44 90 -163.667 180 -359z" />
    <glyph glyph-name="Kcommaaccent" unicode="&#x136;" horiz-adv-x="1673" 
d="M560 226c-6 -26.667 -8.99902 -45 -8.99902 -55c0 -37.333 22 -63.666 66 -78.999c19.333 -6.66699 56.666 -13 111.999 -19l-17 -73h-767l17 73c66.667 2.66699 116 9.33398 148 20.001c46.667 15.333 76 49.333 88 102l229 992c6 26 9 44.667 9 56
c0 51.333 -60.333 85.666 -181 102.999l17 73h767l-17 -73c-52 -3.33301 -100.667 -11.833 -146 -25.5s-74.333 -47.5 -87 -101.5l-111 -483h42c192 144.667 337.667 262 437 352c129.333 117.333 194 191 194 221c0 18.667 -46 31 -138 37l17 73h617l-17 -73
c-136 -14.667 -259 -63.334 -369 -146.001c-12.667 -9.33301 -162 -131.333 -448 -366l364 -593c42 -68.667 90.667 -116.667 146 -144c28.667 -14 64 -22 106 -24l-17 -73h-532c-66.667 152 -186.667 370.333 -360 655h-61zM612.001 -444l10 64
c68 4.66699 115.667 13.667 143 27c38 18 62.333 47.667 73 89h-57c-90.667 0 -136 27.667 -136 83c0 76.667 51.667 115 155 115c101.333 0 152 -48.667 152 -146c0 -154.667 -113.333 -232 -340 -232z" />
    <glyph glyph-name="kcommaaccent" unicode="&#x137;" horiz-adv-x="1313" 
d="M1297 858c0 -49.333 -17.502 -91.8311 -52.502 -127.498s-77.167 -53.5 -126.5 -53.5c-64 0 -134.667 29.333 -212 88l-39 -25c-12.667 -8.66699 -39 -30.334 -79 -65.001l101 -255c36.667 -92 64.334 -156 83.001 -192c24 -45.333 44.667 -74.666 62 -87.999
c23.333 -18 58 -27 104 -27c36 0 79 10 129 30l-22 -90c-126 -53.333 -227.667 -80 -305 -80c-64 0 -112 7.33301 -144 22c-56.667 26 -101.667 76.667 -135 152c-24 53.333 -62 151.333 -114 294l-66 -62l-86 -379h-331l294 1273c5.33301 23.333 8 42.333 8 57
c0 43.333 -16 73.666 -48 90.999c-22 12 -64.333 21 -127 27l18 74l527 26l11 -16l-240 -1040h8c115.333 130 228.666 249 339.999 357c56.667 55.333 99.334 92.666 128.001 111.999c52.667 36 105.334 54 158.001 54c104 0 156 -52.333 156 -157zM429.998 -443.998l10 64
c68 4.66699 115.667 13.667 143 27c38 18 62.333 47.667 73 89h-57c-90.667 0 -136 27.667 -136 83c0 76.667 51.667 115 155 115c101.333 0 152 -48.667 152 -146c0 -154.667 -113.333 -232 -340 -232z" />
    <glyph glyph-name="kgreenlandic" unicode="&#x138;" horiz-adv-x="1343" 
d="M1327 858c0 -49.333 -17.502 -91.832 -52.502 -127.499s-77.167 -53.5 -126.5 -53.5c-64 0 -134.667 29.333 -212 88l-39 -25c-12.667 -8.66699 -39 -30.334 -79 -65.001l101 -255c36.667 -92 64.334 -156 83.001 -192c24 -45.333 44.667 -74.666 62 -87.999
c23.333 -18 58 -27 104 -27c36 0 79 10 129 30l-22 -90c-126 -53.333 -227.667 -80 -305 -80c-64 0 -112 7.33301 -144 22c-56.667 26 -101.667 76.667 -135 152c-24 53.333 -62 151.333 -114 294l-66 -62l-86 -379h-331l142 615c16.667 72 25 121.333 25 148
c0 38.667 -8.16699 65 -24.5 79s-44.5 21 -84.5 21c-30.667 0 -71.667 -9.66699 -123 -29l22 90c130.667 53.333 229 80 295 80c166 0 249 -69 249 -207c0 -39.333 -7.66699 -91 -23 -155l-36 -150h9c115.333 130 228.666 249 339.999 357
c56.667 55.333 99.334 92.666 128.001 111.999c52.667 36 105.334 54 158.001 54c104 0 156 -52.333 156 -157z" />
    <glyph glyph-name="Lacute" unicode="&#x139;" horiz-adv-x="1404" 
d="M1385 455l-132.998 -454.997h-1307l17 73c61.333 2.66699 110.666 10 147.999 22c46.667 15.333 76 48.666 88 99.999l229 992c6 26 9 44.667 9 56c0 51.333 -60.333 85.666 -181 102.999l17 73h780l-17 -73c-64.667 -4 -117.334 -12.333 -158.001 -25
c-46 -14 -75.333 -48 -88 -102l-217 -943c-10 -43.333 -15 -76.333 -15 -99c0 -46 26.667 -74.667 80 -86c16.667 -3.33301 62 -5 136 -5c138.667 0 231 18.667 277 56c88 71.333 175.333 175.666 262 312.999h73zM1131 1768c0 -50 -33.667 -88.667 -101 -116l-428 -167
l-33 41l158 151c38.667 38 75.667 76.333 111 115c46 50.667 95 76 147 76c37.333 0 69.333 -7.33301 96 -22c33.333 -18 50 -44 50 -78z" />
    <glyph glyph-name="lacute" unicode="&#x13a;" horiz-adv-x="726" 
d="M716 1403l-239 -1041c-17.333 -75.333 -26 -124.666 -26 -147.999c0 -40 11.333 -67.333 34 -82c18 -12 48.333 -18 91 -18s85.667 9.66699 129 29l-22 -90c-135.333 -53.333 -237 -80 -305 -80c-70.667 0 -129.667 16.333 -177 49c-54 37.333 -81 90 -81 158
c0 42 7 93.333 21 154l186 810c5.33301 23.333 8 42.333 8 57c0 43.333 -16 73.666 -48 90.999c-22 12 -64.333 21 -127 27l18 74l527 26zM849 1768c0 -50 -33.667 -88.667 -101 -116l-428 -167l-33 41l158 151c38.667 38 75.667 76.333 111 115c46 50.667 95 76 147 76
c37.333 0 69.333 -7.33301 96 -22c33.333 -18 50 -44 50 -78z" />
    <glyph glyph-name="Lcommaaccent" unicode="&#x13b;" horiz-adv-x="1404" 
d="M1385 455l-132.998 -454.997h-1307l17 73c61.333 2.66699 110.666 10 147.999 22c46.667 15.333 76 48.666 88 99.999l229 992c6 26 9 44.667 9 56c0 51.333 -60.333 85.666 -181 102.999l17 73h780l-17 -73c-64.667 -4 -117.334 -12.333 -158.001 -25
c-46 -14 -75.333 -48 -88 -102l-217 -943c-10 -43.333 -15 -76.333 -15 -99c0 -46 26.667 -74.667 80 -86c16.667 -3.33301 62 -5 136 -5c138.667 0 231 18.667 277 56c88 71.333 175.333 175.666 262 312.999h73zM535.002 -443.997l10 64c68 4.66699 115.667 13.667 143 27
c38 18 62.333 47.667 73 89h-57c-90.667 0 -136 27.667 -136 83c0 76.667 51.667 115 155 115c101.333 0 152 -48.667 152 -146c0 -154.667 -113.333 -232 -340 -232z" />
    <glyph glyph-name="lcommaaccent" unicode="&#x13c;" horiz-adv-x="726" 
d="M746 1532l-269 -1170c-17.333 -75.333 -26 -124.666 -26 -147.999c0 -40 11.333 -67.333 34 -82c18 -12 48.333 -18 91 -18s85.667 9.66699 129 29l-22 -90c-135.333 -53.333 -237 -80 -305 -80c-70.667 0 -129.667 16.333 -177 49c-54 37.333 -81 90 -81 158
c0 42 7 93.333 21 154l216 939c5.33301 23.333 8 42.333 8 57c0 43.333 -16 73.666 -48 90.999c-22 12 -64.333 21 -127 27l18 74l527 26zM193 -444l10 64c68 4.66699 115.667 13.667 143 27c38 18 62.333 47.667 73 89h-57c-90.667 0 -136 27.667 -136 83
c0 76.667 51.667 115 155 115c101.333 0 152 -48.667 152 -146c0 -154.667 -113.333 -232 -340 -232z" />
    <glyph glyph-name="Lcaron" unicode="&#x13d;" horiz-adv-x="1404" 
d="M1385 455l-132.998 -454.997h-1307l17 73c61.333 2.66699 110.666 10 147.999 22c46.667 15.333 76 48.666 88 99.999l229 992c6 26 9 44.667 9 56c0 51.333 -60.333 85.666 -181 102.999l17 73h780l-17 -73c-64.667 -4 -117.334 -12.333 -158.001 -25
c-46 -14 -75.333 -48 -88 -102l-217 -943c-10 -43.333 -15 -76.333 -15 -99c0 -46 26.667 -74.667 80 -86c16.667 -3.33301 62 -5 136 -5c138.667 0 231 18.667 277 56c88 71.333 175.333 175.666 262 312.999h73zM1502 1253c0 -112 -50.3311 -219 -150.998 -321
c-84.667 -86 -186.334 -152.667 -305.001 -200l-28 71c82.667 36 148.667 76.333 198 121c61.333 55.333 102.333 116.666 123 183.999h-56c-115.333 0 -173 41.667 -173 125c0 54.667 22.667 102.334 68 143.001c43.333 38.667 92.666 58 147.999 58
c117.333 0 176 -60.333 176 -181z" />
    <glyph glyph-name="lcaron" unicode="&#x13e;" horiz-adv-x="1048" 
d="M746 1532l-269 -1170c-17.333 -75.333 -26 -124.666 -26 -147.999c0 -40 11.333 -67.333 34 -82c18 -12 48.333 -18 91 -18s85.667 9.66699 129 29l-22 -90c-135.333 -53.333 -237 -80 -305 -80c-70.667 0 -129.667 16.333 -177 49c-54 37.333 -81 90 -81 158
c0 42 7 93.333 21 154l216 939c5.33301 23.333 8 42.333 8 57c0 43.333 -16 73.666 -48 90.999c-22 12 -64.333 21 -127 27l18 74l527 26zM1237 1349c0 -112 -50.3311 -219 -150.998 -321c-84.667 -86 -186.334 -152.667 -305.001 -200l-28 71
c82.667 36 148.667 76.333 198 121c61.333 55.333 102.333 116.666 123 183.999h-56c-115.333 0 -173 41.667 -173 125c0 54.667 22.667 102.334 68 143.001c43.333 38.667 92.666 58 147.999 58c117.333 0 176 -60.333 176 -181z" />
    <glyph glyph-name="Ldot" unicode="&#x13f;" horiz-adv-x="1404" 
d="M1385 455l-132.998 -454.997h-1307l17 73c61.333 2.66699 110.666 10 147.999 22c46.667 15.333 76 48.666 88 99.999l229 992c6 26 9 44.667 9 56c0 51.333 -60.333 85.666 -181 102.999l17 73h780l-17 -73c-64.667 -4 -117.334 -12.333 -158.001 -25
c-46 -14 -75.333 -48 -88 -102l-217 -943c-10 -43.333 -15 -76.333 -15 -99c0 -46 26.667 -74.667 80 -86c16.667 -3.33301 62 -5 136 -5c138.667 0 231 18.667 277 56c88 71.333 175.333 175.666 262 312.999h73zM1385 767.003c0 -53.333 -19.5 -99.167 -58.5 -137.5
s-85.167 -57.5 -138.5 -57.5c-54 0 -100.5 19 -139.5 57s-58.5 84 -58.5 138s19.5 100.333 58.5 139s85.5 58 139.5 58c53.333 0 99.5 -19.5 138.5 -58.5s58.5 -85.167 58.5 -138.5z" />
    <glyph glyph-name="ldot" unicode="&#x140;" horiz-adv-x="1119" 
d="M746 1532l-269 -1170c-17.333 -75.333 -26 -124.666 -26 -147.999c0 -40 11.333 -67.333 34 -82c18 -12 48.333 -18 91 -18s85.667 9.66699 129 29l-22 -90c-135.333 -53.333 -237 -80 -305 -80c-70.667 0 -129.667 16.333 -177 49c-54 37.333 -81 90 -81 158
c0 42 7 93.333 21 154l216 939c5.33301 23.333 8 42.333 8 57c0 43.333 -16 73.666 -48 90.999c-22 12 -64.333 21 -127 27l18 74l527 26zM1140 672c0 -53.333 -19.5 -99.167 -58.5 -137.5s-85.167 -57.5 -138.5 -57.5c-54 0 -100.5 19 -139.5 57s-58.5 84 -58.5 138
s19.5 100.333 58.5 139s85.5 58 139.5 58c53.333 0 99.5 -19.5 138.5 -58.5s58.5 -85.167 58.5 -138.5z" />
    <glyph glyph-name="Lslash" unicode="&#x141;" horiz-adv-x="1404" 
d="M1385 455l-132.998 -454.997h-1307l17 73c61.333 2.66699 110.666 10 147.999 22c46.667 15.333 76 48.666 88 99.999l96 416l-184 -69l-33 88l242 90l108 467c6 26 9 44.667 9 56c0 51.333 -60.333 85.666 -181 102.999l17 73h780l-17 -73
c-64.667 -4 -117.334 -12.333 -158.001 -25c-46 -14 -75.333 -48 -88 -102l-83 -360l281 106l33 -88l-339 -127l-109 -474c-10 -43.333 -15 -76.333 -15 -99c0 -46 26.667 -74.667 80 -86c16.667 -3.33301 62 -5 136 -5c138.667 0 231 18.667 277 56
c88 71.333 175.333 175.666 262 312.999h73z" />
    <glyph glyph-name="lslash" unicode="&#x142;" horiz-adv-x="726" 
d="M477 362c-17.333 -75.333 -26 -124.666 -26 -147.999c0 -40 11.333 -67.333 34 -82c18 -12 48.333 -18 91 -18s85.667 9.66699 129 29l-22 -90c-135.333 -53.333 -237 -80 -305 -80c-70.667 0 -129.667 16.333 -177 49c-54 37.333 -81 90 -81 158c0 42.667 7 94 21 154
l65 279l-142 -52l-21 99l189 66l125 547c5.33301 23.333 8 42.333 8 57c0 43.333 -16 73.666 -48 90.999c-22 12 -64.333 21 -127 27l18 74l527 26l11 -16l-158 -686l150 55l21 -99l-197 -71z" />
    <glyph glyph-name="Nacute" unicode="&#x143;" horiz-adv-x="1699" 
d="M1883 1419l-17 -72.999c-46 -4.66699 -78 -9 -96 -13c-33.333 -8 -63.333 -20.333 -90 -37c-53.333 -33.333 -98 -128.666 -134 -285.999l-235 -1018h-168l-613 1137l-162 -710c-18 -78.667 -27 -139.667 -27 -183c0 -46.667 10.333 -80.334 31 -101.001
c26 -26 81.333 -46.667 166 -62l-17 -73h-610l17 73c50 7.33301 82 12.666 96 15.999c36.667 8 66.667 19.333 90 34c52.667 32.667 97 127.667 133 285l154 668c8 34.667 12 61.667 12 81c0 45.333 -11 81.333 -33 108c-32.667 40 -87.667 67 -165 81l18 73h524l536 -1000
l133 581c18 78.667 27 138.667 27 180c0 47.333 -11 82 -33 104c-28 28 -82.333 48.667 -163 62l17 73h609zM1421 1768c0 -50 -33.667 -88.667 -101 -116l-428 -167l-33 41l158 151c38.667 38 75.667 76.333 111 115c46 50.667 95 76 147 76
c37.333 0 69.333 -7.33301 96 -22c33.333 -18 50 -44 50 -78z" />
    <glyph glyph-name="nacute" unicode="&#x144;" horiz-adv-x="1413" 
d="M1384 153l-22.002 -90c-135.333 -53.333 -233.666 -80 -294.999 -80c-69.333 0 -127 16.667 -173 50c-52 37.333 -78 89.666 -78 156.999c0 56.667 6.33301 108.334 19 155.001l72 266c14.667 54 22 98.667 22 134c0 68 -33.667 102 -101 102
c-68.667 0 -148 -41.667 -238 -125l-165 -722h-331l142 615c16.667 72 25 121.333 25 148c0 38.667 -8.16699 65 -24.5 79s-44.5 21 -84.5 21c-30.667 0 -71.667 -9.66699 -123 -29l22 90c130.667 53.333 229 80 295 80c142.667 0 227.334 -59 254.001 -177h7
c138 125.333 279.667 188 425 188c66.667 0 121.667 -18 165 -54c47.333 -38 71 -89.667 71 -155c0 -52.667 -6.66699 -103.667 -20 -153l-76 -281c-17.333 -64 -26 -113.333 -26 -148c0 -39.333 9.66699 -66.333 29 -81c16 -12.667 44.667 -19 86 -19
c40.667 0 81.667 9.66699 123 29zM1128 1460c0 -48.667 -28.667 -91.667 -86 -129l-395 -230l-42 38c32 42 105 143.667 219 305c49.333 69.333 109 104 179 104c28.667 0 55.667 -7.33301 81 -22c29.333 -17.333 44 -39.333 44 -66z" />
    <glyph glyph-name="Ncommaaccent" unicode="&#x145;" horiz-adv-x="1699" 
d="M1883 1419l-17 -72.999c-46 -4.66699 -78 -9 -96 -13c-33.333 -8 -63.333 -20.333 -90 -37c-53.333 -33.333 -98 -128.666 -134 -285.999l-235 -1018h-168l-613 1137l-162 -710c-18 -78.667 -27 -139.667 -27 -183c0 -46.667 10.333 -80.334 31 -101.001
c26 -26 81.333 -46.667 166 -62l-17 -73h-610l17 73c50 7.33301 82 12.666 96 15.999c36.667 8 66.667 19.333 90 34c52.667 32.667 97 127.667 133 285l154 668c8 34.667 12 61.667 12 81c0 45.333 -11 81.333 -33 108c-32.667 40 -87.667 67 -165 81l18 73h524l536 -1000
l133 581c18 78.667 27 138.667 27 180c0 47.333 -11 82 -33 104c-28 28 -82.333 48.667 -163 62l17 73h609zM557 -443.999l10 64c68 4.66699 115.667 13.667 143 27c38 18 62.333 47.667 73 89h-57c-90.667 0 -136 27.667 -136 83c0 76.667 51.667 115 155 115
c101.333 0 152 -48.667 152 -146c0 -154.667 -113.333 -232 -340 -232z" />
    <glyph glyph-name="ncommaaccent" unicode="&#x146;" horiz-adv-x="1413" 
d="M1384 153l-22.002 -90c-135.333 -53.333 -233.666 -80 -294.999 -80c-69.333 0 -127 16.667 -173 50c-52 37.333 -78 89.666 -78 156.999c0 56.667 6.33301 108.334 19 155.001l72 266c14.667 54 22 98.667 22 134c0 68 -33.667 102 -101 102
c-68.667 0 -148 -41.667 -238 -125l-165 -722h-331l142 615c16.667 72 25 121.333 25 148c0 38.667 -8.16699 65 -24.5 79s-44.5 21 -84.5 21c-30.667 0 -71.667 -9.66699 -123 -29l22 90c130.667 53.333 229 80 295 80c142.667 0 227.334 -59 254.001 -177h7
c138 125.333 279.667 188 425 188c66.667 0 121.667 -18 165 -54c47.333 -38 71 -89.667 71 -155c0 -52.667 -6.66699 -103.667 -20 -153l-76 -281c-17.333 -64 -26 -113.333 -26 -148c0 -39.333 9.66699 -66.333 29 -81c16 -12.667 44.667 -19 86 -19
c40.667 0 81.667 9.66699 123 29zM497.998 -444l10 64c68 4.66699 115.667 13.667 143 27c38 18 62.333 47.667 73 89h-57c-90.667 0 -136 27.667 -136 83c0 76.667 51.667 115 155 115c101.333 0 152 -48.667 152 -146c0 -154.667 -113.333 -232 -340 -232z" />
    <glyph glyph-name="Ncaron" unicode="&#x147;" horiz-adv-x="1699" 
d="M1883 1419l-17 -72.999c-46 -4.66699 -78 -9 -96 -13c-33.333 -8 -63.333 -20.333 -90 -37c-53.333 -33.333 -98 -128.666 -134 -285.999l-235 -1018h-168l-613 1137l-162 -710c-18 -78.667 -27 -139.667 -27 -183c0 -46.667 10.333 -80.334 31 -101.001
c26 -26 81.333 -46.667 166 -62l-17 -73h-610l17 73c50 7.33301 82 12.666 96 15.999c36.667 8 66.667 19.333 90 34c52.667 32.667 97 127.667 133 285l154 668c8 34.667 12 61.667 12 81c0 45.333 -11 81.333 -33 108c-32.667 40 -87.667 67 -165 81l18 73h524l536 -1000
l133 581c18 78.667 27 138.667 27 180c0 47.333 -11 82 -33 104c-28 28 -82.333 48.667 -163 62l17 73h609zM1472 1839l-292.999 -289c-40.667 -40.667 -90.334 -61 -149.001 -61c-56 0 -97.333 19 -124 57l-195 293l34 29l310 -198l385 198z" />
    <glyph glyph-name="ncaron" unicode="&#x148;" horiz-adv-x="1413" 
d="M1384 153l-22.002 -90c-135.333 -53.333 -233.666 -80 -294.999 -80c-69.333 0 -127 16.667 -173 50c-52 37.333 -78 89.666 -78 156.999c0 56.667 6.33301 108.334 19 155.001l72 266c14.667 54 22 98.667 22 134c0 68 -33.667 102 -101 102
c-68.667 0 -148 -41.667 -238 -125l-165 -722h-331l142 615c16.667 72 25 121.333 25 148c0 38.667 -8.16699 65 -24.5 79s-44.5 21 -84.5 21c-30.667 0 -71.667 -9.66699 -123 -29l22 90c130.667 53.333 229 80 295 80c142.667 0 227.334 -59 254.001 -177h7
c138 125.333 279.667 188 425 188c66.667 0 121.667 -18 165 -54c47.333 -38 71 -89.667 71 -155c0 -52.667 -6.66699 -103.667 -20 -153l-76 -281c-17.333 -64 -26 -113.333 -26 -148c0 -39.333 9.66699 -66.333 29 -81c16 -12.667 44.667 -19 86 -19
c40.667 0 81.667 9.66699 123 29zM1164 1521l-166 -212c-38 -48 -67 -83.333 -87 -106c-43.333 -48.667 -77.333 -77.334 -102 -86.001c-20.667 -8 -48 -12 -82 -12c-58.667 0 -100 19 -124 57c-27.333 42.667 -87.333 162.334 -180 359.001l54 29l276 -254l360 254z" />
    </font>
</defs>
</svg>
