<?xml version="1.0" standalone="no"?>
<!DOCTYPE svg PUBLIC "-//W3C//DTD SVG 1.1//EN" "http://www.w3.org/Graphics/SVG/1.1/DTD/svg11.dtd" >
<svg xmlns="../../../../external.html?link=http://www.w3.org/2000/svg">
<metadata></metadata>
<defs>
<font id="chevin_cyrilliclight" horiz-adv-x="560" >
<font-face units-per-em="1000" ascent="760" descent="-240" />
<missing-glyph horiz-adv-x="260" />
<glyph unicode="fi" horiz-adv-x="498" d="M317 697q0 -13 -8.5 -21.5t-21.5 -8.5h-26q-36 0 -58.5 -8t-35 -25t-17 -43.5t-4.5 -64.5v-29h93q12 0 20 -8t8 -20t-8 -20.5t-20 -8.5h-93v-414q0 -14 -9.5 -23t-22.5 -9q-14 0 -23 9t-9 23v414h-35q-12 0 -20.5 8.5t-8.5 20.5t8.5 20t20.5 8h35v29q0 46 7 83t26.5 63 t53.5 40t88 14h30q13 0 21.5 -8.5t8.5 -20.5zM432 671q0 -17 -11.5 -28t-27.5 -11q-17 0 -28 11t-11 28q0 16 11 27.5t28 11.5q16 0 27.5 -11.5t11.5 -27.5zM425 26q0 -14 -9.5 -23t-22.5 -9q-14 0 -23 9t-9 23v446q0 13 9 22.5t23 9.5q13 0 22.5 -9.5t9.5 -22.5v-446z" />
<glyph unicode="fl" horiz-adv-x="509" d="M317 697q0 -13 -8.5 -21.5t-21.5 -8.5h-26q-36 0 -58.5 -8t-35 -25t-17 -43.5t-4.5 -64.5v-29h93q12 0 20 -8t8 -20t-8 -20.5t-20 -8.5h-93v-414q0 -14 -9.5 -23t-22.5 -9q-14 0 -23 9t-9 23v414h-35q-12 0 -20.5 8.5t-8.5 20.5t8.5 20t20.5 8h35v29q0 46 7 83t26.5 63 t53.5 40t88 14h30q13 0 21.5 -8.5t8.5 -20.5zM469 23q0 -14 -8.5 -21.5t-22.5 -7.5q-9 0 -23 5.5t-25 15.5q-17 16 -24.5 37t-7.5 44v596q0 14 9 23t22 9q14 0 23 -9t9 -23v-579q0 -33 8 -45.5t25 -19.5q15 -7 15 -25z" />
<glyph unicode="&#xd;" horiz-adv-x="260" />
<glyph unicode=" "  horiz-adv-x="260" />
<glyph unicode="&#x09;" horiz-adv-x="260" />
<glyph unicode="&#xa0;" horiz-adv-x="260" />
<glyph unicode="!" horiz-adv-x="262" d="M165 223q0 -15 -7.5 -24t-21.5 -9t-21.5 9t-7.5 24l-8 476q0 15 8.5 27t28.5 12t29 -12t8 -27zM184 38q0 -20 -14 -34t-34 -14t-34 14t-14 34t14 34t34 14t34 -14t14 -34z" />
<glyph unicode="&#x22;" horiz-adv-x="327" d="M271 569q-3 -30 -29 -30t-28 30l-7 131q-1 14 7.5 26t27.5 12t28 -12t7 -26zM110 569q-2 -30 -28 -30t-28 30l-7 131q-2 14 7 26t28 12q20 0 28.5 -12t6.5 -26z" />
<glyph unicode="#" horiz-adv-x="752" d="M713 503q0 -13 -9 -21.5t-22 -8.5h-131l-34 -220h122q13 0 22 -9t9 -22q0 -12 -9 -21t-22 -9h-131l-27 -175q-2 -14 -12.5 -21.5t-22.5 -5.5q-14 2 -21 12.5t-5 23.5l25 166h-201l-27 -175q-2 -14 -12 -21.5t-23 -5.5t-20.5 12.5t-5.5 23.5l25 166h-123q-13 0 -22 9 t-9 21q0 13 9 22t22 9h132l34 220h-123q-13 0 -22 8.5t-9 21.5t9 22t22 9h132l27 178q2 13 12.5 20.5t23.5 5.5t20.5 -12t5.5 -24l-26 -168h200l27 178q2 13 12.5 20.5t23.5 5.5t20.5 -12t5.5 -24l-25 -168h122q13 0 22 -9t9 -22zM286 473l-32 -220h200l33 220h-201z" />
<glyph unicode="$" d="M514 208q0 -95 -58 -151.5t-163 -64.5v-74q0 -12 -8.5 -20.5t-20.5 -8.5t-20.5 8.5t-8.5 20.5v73q-51 1 -91.5 8.5t-78.5 24.5q-20 10 -20 30q0 12 8 22t22 10q6 0 12.5 -2.5t16.5 -6.5t24 -9t35 -9q17 -3 40 -5.5t52 -2.5q99 0 146 42.5t47 110.5q0 52 -25.5 78.5 t-70.5 40.5q-21 7 -49 12t-57.5 10.5t-58.5 12.5t-51 18q-41 18 -66 53.5t-25 99.5q0 44 14 80t39 62t60 42.5t77 21.5v75q0 12 8.5 20.5t20.5 8.5t20.5 -8.5t8.5 -20.5v-73q42 -1 78 -7.5t70 -21.5q21 -11 21 -29q0 -13 -8.5 -23t-22.5 -10q-11 0 -26.5 8t-51.5 16 q-14 3 -33.5 5t-44.5 2q-78 0 -121 -39t-43 -104q0 -53 27 -78t73 -38q25 -8 56.5 -13t64 -11.5t62.5 -16t53 -24.5q32 -21 49.5 -56t17.5 -89z" />
<glyph unicode="%" horiz-adv-x="550" d="M271 562q0 -51 -30 -80.5t-76 -29.5q-47 0 -77 29.5t-30 80.5v66q0 51 30 80.5t77 29.5q46 0 76 -29.5t30 -80.5v-66zM170 6q-3 -9 -12.5 -13.5t-19.5 -0.5q-9 3 -13 12t0 19l255 700q4 9 13 13t18 1q10 -4 14 -12.5t1 -18.5zM492 101q0 -51 -30 -80.5t-77 -29.5 q-45 0 -75.5 29.5t-30.5 80.5v66q0 51 30.5 80.5t75.5 29.5q47 0 77 -29.5t30 -80.5v-66zM223 631q0 30 -16 46.5t-42 16.5t-42.5 -16.5t-16.5 -46.5v-73q0 -29 16.5 -45.5t42.5 -16.5t42 16.5t16 45.5v73zM445 170q0 29 -16 45.5t-44 16.5q-26 0 -41.5 -16.5t-15.5 -45.5 v-72q0 -30 16 -46.5t41 -16.5q27 0 43.5 16.5t16.5 46.5v72z" />
<glyph unicode="&#x26;" horiz-adv-x="617" d="M586 22q0 -13 -9.5 -22.5t-22.5 -9.5q-15 0 -26 14l-58 76q-36 -40 -88.5 -65t-124.5 -25q-53 0 -91.5 17.5t-64.5 46.5t-38.5 65.5t-12.5 75.5q0 42 14 75.5t36.5 60.5t52 48.5t59.5 39.5q-14 18 -28.5 38t-26 40.5t-18.5 42t-7 44.5q0 41 15 70t39 48t53 27.5t57 8.5 q32 0 60.5 -6t51.5 -19q28 -17 46 -40.5t18 -37.5t-9.5 -23t-22.5 -9q-11 0 -16 7t-13 16q-5 6 -11.5 13t-17.5 15q-17 11 -38 18t-48 7q-17 0 -34.5 -6t-31.5 -18t-23 -30t-9 -43q0 -18 8 -37t19.5 -37t25 -35t24.5 -31l194 -255q19 35 27.5 74.5t10.5 76.5q1 14 10.5 22 t21.5 8t22 -9t9 -24q-2 -44 -15.5 -99.5t-43.5 -103.5l68 -89q7 -10 7 -21zM249 371q-28 -15 -53 -33t-43.5 -39t-29 -46.5t-10.5 -56.5q0 -29 9 -55t27.5 -46.5t46 -32.5t63.5 -12q60 0 102 22.5t71 57.5z" />
<glyph unicode="'" horiz-adv-x="171" d="M113 569q-2 -30 -27 -30q-26 0 -28 30l-8 131q-2 14 7 26t29 12q19 0 28 -12t7 -26z" />
<glyph unicode="(" horiz-adv-x="273" d="M225 -66q0 -14 -9 -22.5t-23 -8.5q-16 0 -26 15q-33 50 -56 105t-37 112.5t-20 115.5t-6 113t6 112.5t20 115t37 113t56 105.5q10 15 26 15q14 0 23 -9t9 -22q0 -5 -1 -10.5t-5 -10.5q-29 -46 -49 -96t-32.5 -102.5t-18 -105.5t-5.5 -105q0 -105 23 -211t82 -199 q4 -5 5 -10t1 -10z" />
<glyph unicode=")" horiz-adv-x="273" d="M225 364q0 -55 -6 -113t-19.5 -115.5t-36.5 -112.5t-56 -105q-11 -15 -27 -15q-14 0 -23 8.5t-9 22.5q0 9 6 20q59 93 82 199t23 211q0 52 -5.5 105t-18 105.5t-32.5 102.5t-49 96q-6 10 -6 21q0 13 9 22t23 9q16 0 27 -15q33 -50 56 -105.5t36.5 -113t19.5 -115 t6 -112.5z" />
<glyph unicode="*" horiz-adv-x="479" d="M428 600q1 -4 1 -11q0 -11 -6.5 -18.5t-17.5 -9.5l-126 -35l82 -103q9 -9 9 -21q0 -6 -3 -12t-11 -11q-8 -7 -18 -7q-18 0 -26 16l-73 109l-72 -109q-8 -16 -25 -16q-11 0 -19 7q-8 5 -11 11t-3 12q0 12 9 21l82 103l-127 35q-10 2 -17 9t-7 18q0 3 0.5 5.5t1.5 6.5 q4 12 11.5 17t16.5 5q5 0 13 -3l123 -47l-6 135q0 11 7.5 20.5t22.5 9.5q17 0 24 -9.5t7 -22.5l-6 -133l123 47q6 3 13 3q8 0 16 -5t12 -17z" />
<glyph unicode="+" horiz-adv-x="535" d="M474 273q0 -13 -9 -22t-22 -9h-145v-145q0 -13 -9 -22t-21 -9q-13 0 -22 9t-9 22v145h-145q-13 0 -22 9t-9 22t9 21.5t22 8.5h145v146q0 13 9 22t22 9q12 0 21 -9t9 -22v-146h145q13 0 22 -8.5t9 -21.5z" />
<glyph unicode="," horiz-adv-x="219" d="M151 29q0 -26 -9.5 -47t-22.5 -35.5t-26.5 -22.5t-20.5 -8t-12 4.5t-5 12.5q0 7 5 11.5t11 10.5t12 14.5t8 24.5q-17 4 -27 16.5t-10 29.5q0 20 14 33.5t34 13.5q23 0 36 -16t13 -42z" />
<glyph unicode="-" horiz-adv-x="481" d="M406 293q0 -13 -9 -22t-21 -9h-271q-12 0 -21 9t-9 22t9 21.5t21 8.5h271q12 0 21 -8.5t9 -21.5z" />
<glyph unicode="." horiz-adv-x="224" d="M156 39q0 -20 -14 -34t-34 -14t-34 14t-14 34t14 34t34 14t34 -14t14 -34z" />
<glyph unicode="/" horiz-adv-x="308" d="M47 -55q-4 -12 -15 -18t-24 -3q-12 5 -18 16.5t-2 23.5l263 819q4 12 15.5 18t23.5 2t18 -15.5t2 -23.5z" />
<glyph unicode="0" d="M441 471q0 81 -32 136q-19 32 -50.5 50.5t-78.5 18.5t-78.5 -18.5t-50.5 -50.5q-32 -55 -32 -136v-214q0 -81 32 -136q19 -32 50.5 -50.5t78.5 -18.5t78.5 18.5t50.5 50.5q32 55 32 136v214zM506 255q0 -52 -12.5 -99.5t-39.5 -84t-70 -58.5t-104 -22t-104 22t-70 58.5 t-39.5 84t-12.5 99.5v219q0 52 12.5 99.5t39.5 84t70 58.5t104 22t104 -22t70 -58.5t39.5 -84t12.5 -99.5v-219z" />
<glyph unicode="1" d="M488 31q0 -13 -9 -22t-23 -9h-358q-13 0 -22 9t-9 22q0 14 9 23t22 9h182v584l-196 -135q-11 -7 -23 -5t-20 13q-7 11 -5 23.5t13 20.5l242 167q6 3 11 5t11 2q14 0 23.5 -9.5t9.5 -22.5v-643h110q14 0 23 -9t9 -23z" />
<glyph unicode="2" d="M491 31q0 -13 -9 -22t-22 -9h-363q-14 0 -23 8.5t-9 22.5q0 34 8 63.5t22 55t32.5 47t39.5 40.5q40 36 85 67.5t83.5 64.5t64 71.5t25.5 88.5q0 30 -8.5 57t-26 47t-45 32t-64.5 12q-34 0 -59.5 -6t-45.5 -17q-29 -15 -40 -26.5t-24 -11.5t-23 9t-10 23q0 6 2.5 12 t9.5 11q35 32 82 49.5t109 17.5q54 0 93.5 -17.5t65 -46.5t38 -67t12.5 -78q0 -58 -24 -101.5t-60.5 -78.5t-80.5 -66t-83.5 -63t-69 -69.5t-38.5 -86.5h325q13 0 22 -9.5t9 -23.5z" />
<glyph unicode="3" d="M478 198q0 -41 -14 -78t-42.5 -66t-70.5 -46t-99 -17q-61 0 -107 15.5t-90 58.5q-10 10 -10 24q0 12 8.5 20.5t20.5 8.5q11 0 22 -11t38 -28q26 -17 53.5 -23.5t62.5 -6.5q41 0 71.5 12.5t51 33.5t30.5 48.5t10 58.5q0 41 -14.5 68t-38.5 43.5t-56 23.5t-68 8 q-10 0 -21.5 5.5t-11.5 23.5t12 23.5t21 6.5q25 1 53.5 8t53 22t40.5 40t16 63q0 25 -7 50.5t-23.5 46t-44 33t-67.5 12.5q-33 0 -60 -8t-48 -20q-26 -16 -35.5 -28t-22.5 -12q-12 0 -20.5 8.5t-8.5 22.5q0 12 12 24q26 29 73 50.5t111 21.5q57 0 96 -18t62.5 -46.5 t33.5 -63t10 -67.5q0 -67 -33 -106t-86 -58q31 -9 56 -23.5t43 -36t28 -51.5t10 -70z" />
<glyph unicode="4" d="M503 181q0 -13 -9 -22t-22 -9h-64v-127q0 -14 -9 -23t-23 -9t-23 9t-9 23v127h-257q-13 0 -22 8.5t-9 22.5q0 5 1 9t3 8l229 520q8 19 30 19q13 0 22.5 -9.5t9.5 -23.5q0 -6 -3 -12l-210 -480h206v164q0 14 9 23t23 9t23 -9t9 -23v-164h64q13 0 22 -9t9 -22z" />
<glyph unicode="5" d="M486 217q0 -42 -13 -83t-41 -72.5t-71 -51t-104 -19.5q-45 0 -83.5 9.5t-75.5 37.5q-14 11 -14 27q0 13 8.5 23t22.5 10q9 0 19 -8q50 -38 123 -38q44 0 75 13.5t50.5 36.5t28.5 53t9 62q0 85 -39.5 125t-108.5 40q-26 0 -46 -6.5t-37 -18.5q-12 -9 -19.5 -16.5 t-13.5 -13t-11.5 -9t-13.5 -3.5q-14 0 -23 9t-9 24l13 350q0 14 9.5 22.5t22.5 8.5h270q14 0 23 -8.5t9 -22.5t-9 -23t-23 -9h-241l-9 -260q25 20 52 28.5t59 8.5q100 0 155.5 -58.5t55.5 -167.5z" />
<glyph unicode="6" d="M494 217q0 -52 -16 -94t-44.5 -71t-68.5 -45t-88 -16t-87.5 18.5t-67.5 53t-43 84t-15 112.5q0 66 21 131t55 125t77 114t88 98q11 10 23 10q15 0 24.5 -10t9.5 -24q0 -12 -10 -22q-29 -28 -57 -60t-53.5 -68t-47 -75t-36.5 -80q29 20 60.5 29t60.5 9q43 0 82 -13.5 t68.5 -40.5t47 -68t17.5 -97zM428 216q0 40 -11.5 70.5t-32 50t-48 29.5t-60.5 10q-48 0 -83 -18.5t-58 -38.5q-3 -14 -4 -29.5t-1 -30.5q0 -55 12 -94t32 -64t46.5 -37t56.5 -12q70 0 110.5 43t40.5 121z" />
<glyph unicode="7" d="M496 698q0 -5 -1.5 -10.5t-3.5 -10.5l-260 -665q-4 -10 -12.5 -15.5t-18.5 -5.5q-8 0 -11 2q-10 4 -15.5 12.5t-5.5 18.5q0 8 2 11l249 631h-330q-13 0 -22 9t-9 23t9 22.5t22 8.5h375q14 0 23 -8.5t9 -22.5z" />
<glyph unicode="8" d="M514 187q0 -45 -17 -81.5t-47.5 -62t-74 -39t-95.5 -13.5q-50 0 -92.5 13t-74 37.5t-49.5 61t-18 84.5q0 39 13 68.5t35.5 52t52 39.5t62.5 32q-26 12 -49.5 27t-41 35.5t-28 47t-10.5 62.5q0 47 16 82t43.5 58t64 34.5t76.5 11.5q41 0 77 -12t63 -35.5t42.5 -58 t15.5 -79.5q0 -63 -35.5 -101t-91.5 -66q32 -14 61.5 -30t52 -38.5t36 -54t13.5 -75.5zM413 548q0 64 -37.5 96.5t-95.5 32.5q-28 0 -53 -8t-43.5 -24t-29 -40t-10.5 -56q0 -29 11 -50.5t30 -37.5t44 -28t53 -22q27 11 50.5 24t41.5 29t28.5 36.5t10.5 47.5zM448 190 q0 36 -14 60.5t-38 42.5t-54.5 31t-63.5 25q-32 -12 -62 -26t-53.5 -32.5t-37.5 -42.5t-14 -57t12.5 -59t35 -44t53 -27.5t67.5 -9.5q80 0 124.5 38t44.5 101z" />
<glyph unicode="9" d="M501 469q0 -66 -21 -131t-55 -125t-77.5 -114t-88.5 -98q-10 -10 -23 -10q-14 0 -24 10t-10 24q0 12 11 22q28 28 56.5 60t54 68t47 75t36.5 80q-30 -20 -61.5 -29t-60.5 -9q-43 0 -82 13.5t-68 40.5t-46.5 68t-17.5 97q0 52 15.5 94t44 71.5t68.5 45t88 15.5 q49 0 88.5 -18.5t67.5 -53t43 -84t15 -112.5zM435 469q0 55 -12 94t-32.5 64t-47 37t-56.5 12q-69 0 -109.5 -43t-40.5 -121q0 -41 11.5 -71t31.5 -49.5t48 -29.5t60 -10q48 0 83 18.5t58 38.5q4 15 5 30t1 30z" />
<glyph unicode=":" horiz-adv-x="224" d="M156 356q0 -20 -14 -34t-34 -14t-34 14t-14 34t14 34t34 14t34 -14t14 -34zM156 39q0 -20 -14 -34t-34 -14t-34 14t-14 34t14 34t34 14t34 -14t14 -34z" />
<glyph unicode=";" horiz-adv-x="220" d="M151 356q0 -20 -14 -34t-34 -14t-34 14t-14 34t14 34t34 14t34 -14t14 -34zM152 29q0 -26 -9.5 -47t-22.5 -35.5t-26.5 -22.5t-20.5 -8t-12 4.5t-5 12.5q0 7 5 11.5t11 10.5t12 14.5t8 24.5q-17 4 -27 16.5t-10 29.5q0 20 14 33.5t34 13.5q23 0 36 -16t13 -42z" />
<glyph unicode="&#x3c;" horiz-adv-x="540" d="M477 69q-9 -15 -26 -15q-8 0 -14 3l-359 191q-8 4 -12 11t-4 15t4 15t12 11l359 191q3 2 7 2.5t7 0.5q18 0 26 -15q3 -6 3 -14t-3.5 -14.5t-11.5 -10.5l-312 -166l312 -166q15 -8 15 -25q0 -8 -3 -14z" />
<glyph unicode="=" horiz-adv-x="540" d="M477 364q0 -13 -9 -21.5t-22 -8.5h-352q-13 0 -22 8.5t-9 21.5t9 22t22 9h352q13 0 22 -9t9 -22zM477 185q0 -12 -9 -21t-22 -9h-352q-13 0 -22 9t-9 21q0 13 9 22t22 9h352q13 0 22 -9t9 -22z" />
<glyph unicode="&#x3e;" horiz-adv-x="540" d="M478 274q0 -8 -4 -15t-12 -11l-359 -191q-6 -3 -14 -3q-17 0 -26 15q-3 6 -3 14q0 17 15 25l312 166l-312 166q-8 4 -11.5 10.5t-3.5 14.5t3 14q7 15 26 15q3 0 7 -0.5t7 -2.5l359 -191q8 -4 12 -11t4 -15z" />
<glyph unicode="?" horiz-adv-x="488" d="M430 548q0 -35 -8 -61t-23 -47.5t-36 -40.5t-47 -40q-27 -23 -43 -41t-24 -34t-10 -30.5t-2 -30.5q0 -14 -9 -22.5t-22 -8.5t-22 8.5t-9 23.5q0 22 3 42t12.5 40.5t27.5 42t48 46.5q25 21 43.5 37t30.5 32.5t18 35t6 44.5q0 35 -12 60.5t-31.5 42t-43.5 24t-47 7.5 q-48 0 -79 -13.5t-56 -38.5q-8 -8 -19 -8q-14 0 -23 9t-9 22q0 12 12 24t23 20q31 23 68 34t87 11q33 0 67.5 -10.5t63 -33.5t47 -59t18.5 -87zM255 39q0 -20 -14 -34t-34 -14t-34 14t-14 34t14 34t34 14t34 -14t14 -34z" />
<glyph unicode="@" horiz-adv-x="831" d="M762 385q0 -45 -13 -86.5t-36.5 -73.5t-56.5 -51t-74 -19q-29 0 -56 14.5t-41 56.5q-23 -33 -56.5 -51t-71.5 -18q-27 0 -46.5 11t-32 28.5t-18 40.5t-5.5 47q0 37 12 76t35.5 70.5t57 51.5t76.5 20q32 0 57.5 -4.5t51.5 -13.5q11 -4 15 -13t2 -20l-21 -94 q-4 -16 -8 -40.5t-4 -39.5q0 -39 15 -56t40 -17q27 0 50 14t40.5 38.5t27.5 57.5t10 70q0 46 -14 91t-48 80.5t-89.5 57.5t-137.5 22q-77 0 -134 -30t-95 -77t-56.5 -106t-18.5 -117t15 -109.5t48 -90.5t86 -62t130 -23q29 0 54 2.5t47 7.5q15 4 23.5 6.5t14.5 2.5 q12 0 18 -7.5t6 -18.5q0 -8 -5 -14.5t-17 -9.5q-30 -8 -64 -13t-77 -5q-89 0 -151.5 27t-102 72.5t-58 106t-18.5 127.5q0 68 22 136t66.5 122t110.5 88t155 34q95 0 160 -26t105 -68.5t57.5 -96t17.5 -108.5zM506 441q-33 11 -71 11q-29 0 -52 -15.5t-39.5 -39.5 t-25.5 -53.5t-9 -57.5q0 -35 14 -54.5t40 -19.5q24 0 44 10t35 27t25 39.5t15 47.5z" />
<glyph unicode="A" horiz-adv-x="562" d="M546 31q4 -18 -7.5 -29t-25.5 -11q-10 0 -19 6t-13 20q-11 41 -22.5 81.5t-22.5 80.5h-312q-12 -40 -23.5 -80.5t-22.5 -81.5q-3 -14 -11.5 -20t-18.5 -6q-14 0 -25.5 10.5t-6.5 29.5q46 180 102 344.5t121 324.5q10 24 20.5 30.5t21.5 6.5t21 -6.5t21 -30.5 q65 -161 120 -324.5t103 -344.5zM418 241q-32 101 -66 197t-72 191q-38 -95 -72.5 -191t-65.5 -197h276z" />
<glyph unicode="B" horiz-adv-x="625" d="M564 186q0 -41 -11.5 -75t-37.5 -59t-68.5 -38.5t-104.5 -13.5h-224q-14 0 -23.5 9.5t-9.5 23.5v663q0 14 9.5 23.5t23.5 9.5h205q55 0 95 -14t65.5 -38t37.5 -56.5t12 -69.5v-31q0 -57 -27 -92t-72 -53q59 -17 94.5 -58t35.5 -104v-27zM467 546q0 25 -8 47t-25 38.5 t-44.5 25.5t-67.5 9h-171v-267h118q45 0 82 5.5t62.5 19t39.5 36t14 55.5v31zM498 216q0 59 -46.5 90.5t-128.5 31.5h-172v-276h191q47 0 77 9.5t47.5 26.5t24.5 40.5t7 51.5v26z" />
<glyph unicode="C" horiz-adv-x="550" d="M509 86q0 -14 -11 -24q-18 -20 -40 -33.5t-46 -22t-48 -12t-46 -3.5q-69 0 -116.5 22.5t-77.5 64t-43 99t-13 127.5v121q0 67 14 124.5t44.5 99.5t79 65.5t117.5 23.5q48 0 94.5 -15t78.5 -54q11 -10 11 -22q0 -11 -8 -21t-23 -10q-11 -1 -17.5 6.5t-17.5 15.5 q-45 39 -118 39q-99 0 -144 -65.5t-45 -187.5v-120q0 -128 43 -190t141 -62q33 0 65.5 9.5t58.5 31.5q13 10 20 16t18 7q14 1 21.5 -9t7.5 -21z" />
<glyph unicode="D" horiz-adv-x="641" d="M573 271q0 -41 -9 -88t-36 -88t-77.5 -68t-133.5 -27h-199q-14 0 -23.5 9.5t-9.5 23.5v663q0 14 9.5 23.5t23.5 9.5h199q83 0 133.5 -27t77.5 -68t36 -88.5t9 -88.5v-186zM507 456q0 37 -7 74t-27.5 67t-58.5 49t-100 19h-163v-603h163q62 0 100 19t58.5 49.5t27.5 68 t7 73.5v184z" />
<glyph unicode="E" horiz-adv-x="548" d="M508 31q0 -13 -9 -22t-22 -9h-360q-14 0 -23 9t-9 22v666q0 13 9 22.5t23 9.5h345q13 0 22.5 -9.5t9.5 -22.5q0 -14 -9.5 -23t-22.5 -9h-311v-270h283q13 0 22 -9t9 -22t-9 -22t-22 -9h-283v-269h326q13 0 22 -9.5t9 -23.5z" />
<glyph unicode="F" horiz-adv-x="513" d="M485 697q0 -14 -9 -23t-23 -9h-302v-270h254q13 0 22 -9t9 -22t-9 -22t-22 -9h-254v-309q0 -14 -9.5 -23.5t-23.5 -9.5t-23.5 9.5t-9.5 23.5v673q0 13 9 22.5t23 9.5h336q13 0 22.5 -9.5t9.5 -22.5z" />
<glyph unicode="G" horiz-adv-x="609" d="M549 239q0 -55 -14 -100.5t-43 -78.5t-72.5 -51t-101.5 -18q-69 0 -116.5 22.5t-77.5 63.5t-43 98.5t-13 128.5v122q0 67 14 124t44.5 99t79.5 65.5t118 23.5q48 0 94.5 -14.5t79.5 -54.5q11 -11 11 -23q0 -11 -8 -20.5t-23 -10.5q-11 0 -18.5 7.5t-18.5 15.5 q-23 20 -52.5 29.5t-64.5 9.5q-99 0 -144.5 -65.5t-45.5 -186.5v-121q0 -128 42.5 -190t141.5 -62q85 0 125.5 49t40.5 137v64h-146q-13 0 -22 8.5t-9 22.5q0 13 9 22t22 9h178q14 0 23.5 -9.5t9.5 -23.5v-92z" />
<glyph unicode="H" horiz-adv-x="669" d="M584 24q0 -14 -10 -23.5t-23 -9.5q-14 0 -23.5 9.5t-9.5 23.5v303h-367v-303q0 -14 -9.5 -23.5t-23.5 -9.5t-23.5 9.5t-9.5 23.5v681q0 14 9.5 23.5t23.5 9.5t23.5 -9.5t9.5 -23.5v-316h367v316q0 14 9.5 23.5t23.5 9.5q13 0 23 -9.5t10 -23.5v-681z" />
<glyph unicode="I" horiz-adv-x="237" d="M151 24q0 -14 -9.5 -23.5t-23.5 -9.5t-23.5 9.5t-9.5 23.5v681q0 14 9.5 23.5t23.5 9.5t23.5 -9.5t9.5 -23.5v-681z" />
<glyph unicode="J" horiz-adv-x="425" d="M350 254q0 -62 -13 -111t-40.5 -83t-72 -51.5t-107.5 -17.5q-46 0 -86 9q-14 3 -20 11.5t-6 19.5q0 13 8 22.5t23 9.5q5 0 11 -1.5t22 -3.5q20 -4 48 -4q91 0 129 47t38 153v451q0 14 9.5 23.5t23.5 9.5t23.5 -9.5t9.5 -23.5v-451z" />
<glyph unicode="K" horiz-adv-x="554" d="M532 40q2 -5 3 -8.5t1 -7.5q0 -14 -11 -23.5t-24 -9.5q-8 0 -15 4t-12 13q-54 91 -110.5 179.5t-119.5 176.5l-93 -112v-228q0 -14 -9.5 -23.5t-23.5 -9.5t-23.5 9.5t-9.5 23.5v681q0 14 9.5 23.5t23.5 9.5t23.5 -9.5t9.5 -23.5v-363l311 384q10 12 26 12q10 0 21 -8 q12 -10 12 -25q0 -11 -8 -21l-225 -269q67 -94 127.5 -186.5t116.5 -188.5z" />
<glyph unicode="L" horiz-adv-x="514" d="M507 31q0 -13 -9 -22t-22 -9h-359q-14 0 -23 9t-9 22v674q0 14 9.5 23.5t23.5 9.5t23.5 -9.5t9.5 -23.5v-641h325q13 0 22 -9.5t9 -23.5z" />
<glyph unicode="M" horiz-adv-x="775" d="M690 22q0 -13 -9 -22t-22 -9t-22 9t-9 22v566l-211 -449q-9 -19 -31 -19q-9 0 -17 5t-13 15l-210 447v-565q0 -13 -8.5 -22t-21.5 -9t-22 9t-9 22v685q0 14 9.5 22.5t23.5 8.5q23 0 32 -20l238 -505l239 506q5 12 13.5 15.5t16.5 3.5q14 0 23.5 -9t9.5 -22v-685z" />
<glyph unicode="N" horiz-adv-x="666" d="M581 22q0 -12 -8.5 -21.5t-25.5 -9.5q-9 0 -17.5 4t-13.5 13l-369 595v-581q0 -13 -9 -22t-22 -9t-22 9t-9 22v685q0 13 9 22t24 9q21 0 33 -19l368 -594v582q0 13 9 22t22 9t22 -9t9 -22v-685z" />
<glyph unicode="O" horiz-adv-x="626" d="M491 468q0 45 -9.5 83.5t-31.5 67.5q-21 26 -55 42t-82 16q-49 0 -82.5 -16t-54.5 -42q-22 -29 -32 -67.5t-10 -83.5v-207q0 -45 10 -83.5t32 -67.5q21 -26 54.5 -42t82.5 -16q19 0 39.5 4.5t39 12.5t33.5 18.5t25 22.5q22 29 31.5 67.5t9.5 83.5v207zM557 261 q0 -51 -12.5 -99.5t-41 -86.5t-75 -61t-115.5 -23t-116 23t-75.5 61t-41 86.5t-12.5 99.5v207q0 51 12.5 99.5t41 86.5t75.5 61t116 23t115.5 -23t75 -61t41 -86.5t12.5 -99.5v-207z" />
<glyph unicode="P" horiz-adv-x="585" d="M542 486q0 -41 -15 -75.5t-43.5 -59.5t-69 -39t-92.5 -14h-171v-274q0 -14 -9.5 -23.5t-23.5 -9.5t-23.5 9.5t-9.5 23.5v672q0 14 9.5 23.5t23.5 9.5h192q64 0 108.5 -17t72 -44t39.5 -61.5t12 -69.5v-51zM476 536q0 22 -8 45.5t-27 42.5t-52 31t-82 12h-156v-308h169 q40 0 69.5 10t48.5 27.5t28.5 41t9.5 49.5v49z" />
<glyph unicode="Q" horiz-adv-x="626" d="M576 -20q-9 -11 -23 -11q-12 0 -21 8l-66 61q-28 -22 -65.5 -34.5t-87.5 -12.5q-69 0 -116 23t-75.5 61t-41 86.5t-12.5 99.5v207q0 51 12.5 99.5t41 86.5t75.5 61t116 23t115.5 -23t75 -61t41 -86.5t12.5 -99.5v-207q0 -49 -11.5 -95.5t-37.5 -83.5l66 -59q11 -8 11 -22 q0 -12 -9 -21zM491 468q0 43 -9 81t-30 66.5t-55 45t-84 16.5t-84.5 -16.5t-55.5 -45t-30 -66.5t-9 -81v-207q0 -43 9 -81t30 -66.5t55.5 -45t84.5 -16.5q34 0 60 8.5t46 23.5l-42 37q-9 9 -9 21q0 10 8 20q9 9 21 9q8 0 16 -6l43 -38q19 26 27 61t8 73v207z" />
<glyph unicode="R" horiz-adv-x="599" d="M152 371h159q42 0 71 10t49 25q24 20 34 45t10 50v44q0 22 -8 44t-27 39.5t-51 28t-80 10.5h-157v-296zM85 25v672q0 14 10 23t24 9h190q63 0 107 -14.5t72 -40t41 -59t13 -70.5v-44q0 -35 -12 -67.5t-38 -58.5q-20 -20 -47.5 -34t-65.5 -21q46 -71 87 -141t79 -140 q2 -4 3 -8.5t1 -7.5q0 -14 -10.5 -23t-22.5 -9q-22 0 -31 19q-40 75 -83.5 150.5t-93.5 150.5h-156v-286q0 -15 -9.5 -24.5t-23.5 -9.5t-24 9.5t-10 24.5z" />
<glyph unicode="S" horiz-adv-x="573" d="M523 209q0 -51 -18 -91.5t-51 -68.5t-80.5 -43t-106.5 -15t-105 7.5t-88 26.5q-11 5 -15.5 13t-4.5 16q0 13 8 23t21 10q6 0 13 -2.5t16.5 -6.5t23.5 -9t35 -9q18 -4 41 -6.5t52 -2.5q99 0 146 43t47 111q0 52 -25.5 78t-70.5 40q-21 7 -49 12.5t-57.5 11t-58.5 12 t-51 17.5q-41 19 -66 54t-25 100q0 49 17 87.5t47.5 65.5t72 41t91.5 14q48 0 89 -6.5t79 -24.5q11 -4 16 -12t5 -16q0 -13 -8.5 -23t-22.5 -10q-5 0 -11 2.5t-15 6t-21.5 7.5t-30.5 8q-15 3 -34 5t-44 2q-78 0 -121 -39t-43 -104q0 -53 27 -78t73 -38q25 -8 57 -13 t64 -11.5t62 -15.5t53 -24q32 -22 49.5 -56.5t17.5 -88.5z" />
<glyph unicode="T" horiz-adv-x="558" d="M551 696q0 -13 -9 -22t-23 -9h-207v-641q0 -14 -9.5 -23.5t-23.5 -9.5t-23.5 9.5t-9.5 23.5v641h-207q-14 0 -23 9t-9 22q0 14 9 23.5t23 9.5h480q14 0 23 -9.5t9 -23.5z" />
<glyph unicode="U" horiz-adv-x="626" d="M557 237q0 -51 -14.5 -95.5t-44.5 -78t-76 -53t-109 -19.5t-109.5 19.5t-76.5 53t-44.5 78t-14.5 95.5v468q0 14 9.5 23.5t23.5 9.5t23.5 -9.5t9.5 -23.5v-467q0 -39 10 -73t31.5 -59.5t55.5 -40t82 -14.5t81.5 14.5t55 40t31.5 59.5t10 73v467q0 14 10 23.5t23 9.5 q14 0 23.5 -9.5t9.5 -23.5v-468z" />
<glyph unicode="V" horiz-adv-x="562" d="M546 699q-47 -159 -104.5 -327t-124.5 -349q-11 -32 -37 -32q-27 0 -40 32q-66 180 -121.5 347t-102.5 326q-6 19 5.5 30.5t26.5 11.5q10 0 18.5 -6t12.5 -19q42 -143 92.5 -296.5t110.5 -315.5q60 163 111.5 316.5t93.5 298.5q4 11 12 16.5t17 5.5q14 0 24.5 -11 t5.5 -28z" />
<glyph unicode="W" horiz-adv-x="858" d="M808 737q18 0 26.5 -11.5t4.5 -28.5q-40 -174 -83 -339t-91 -329q-6 -19 -16 -28.5t-27 -9.5q-32 0 -43 38q-42 149 -79 289.5t-70 283.5q-34 -142 -71 -281t-80 -292q-9 -38 -42 -38t-42 38q-53 178 -95 340t-80 329q-4 17 6 28.5t27 11.5q11 0 19.5 -6t11.5 -20 q17 -76 35 -150t37 -148.5t39.5 -150.5t43.5 -156q44 156 80 300.5t70 291.5q8 39 41 39q32 0 40 -39q33 -147 69.5 -291.5t80.5 -300.5q22 80 43 155.5t40 150t37 148.5t35 150q3 14 12 20t21 6z" />
<glyph unicode="X" horiz-adv-x="540" d="M533 23q0 -14 -10.5 -23t-23.5 -9q-17 0 -27 17q-48 80 -97.5 158.5t-104.5 156.5q-54 -78 -104.5 -156.5t-97.5 -158.5q-10 -17 -27 -17q-13 0 -23.5 9t-10.5 23q0 9 5 18q51 87 105.5 171t112.5 169q-105 152 -190 308q-4 8 -4 18q0 13 10 22t23 9q18 0 27 -18 q40 -72 83 -142t91 -141q48 71 90.5 141t82.5 142q9 18 28 18q13 0 23 -9t10 -23q0 -9 -4 -17q-44 -80 -91 -156t-100 -153q59 -85 113.5 -169t105.5 -171q5 -10 5 -17z" />
<glyph unicode="Y" horiz-adv-x="492" d="M492 706q0 -6 -3 -13q-39 -91 -91.5 -197t-119.5 -230v-242q0 -14 -9.5 -23.5t-23.5 -9.5t-23.5 9.5t-9.5 23.5v242q-66 123 -118 228.5t-91 196.5q-3 7 -3 15q0 14 10.5 23t23.5 9q8 0 16 -4.5t13 -15.5q35 -81 80.5 -174.5t102.5 -201.5q58 108 103.5 201.5t80.5 174.5 q9 20 28 20q13 0 23.5 -9t10.5 -23z" />
<glyph unicode="Z" horiz-adv-x="500" d="M482 31q0 -13 -9 -22t-22 -9h-405q-14 0 -22.5 9t-8.5 22q0 9 2.5 16.5t6.5 14.5l368 603h-345q-13 0 -22 9t-9 23q0 13 9 22.5t22 9.5h403q14 0 22 -9t8 -23q0 -13 -9 -27l-369 -606h349q13 0 22 -9.5t9 -23.5z" />
<glyph unicode="[" horiz-adv-x="247" d="M201 -65q0 -14 -9 -23t-23 -9h-87q-14 0 -23 9t-9 23v856q0 14 9 23t23 9h87q14 0 23 -9t9 -23q0 -13 -9 -22t-23 -9h-53v-793h53q14 0 23 -9.5t9 -22.5z" />
<glyph unicode="\" horiz-adv-x="353" d="M359 -21q5 -12 -0.5 -23.5t-17.5 -16.5q-11 -5 -22.5 0.5t-16.5 17.5l-304 798q-5 12 0.5 23.5t17.5 16.5t23.5 -0.5t16.5 -17.5z" />
<glyph unicode="]" horiz-adv-x="247" d="M197 -65q0 -14 -9 -23t-23 -9h-87q-14 0 -23 9t-9 23q0 13 9 22.5t23 9.5h53v793h-53q-14 0 -23 9t-9 22q0 14 9 23t23 9h87q14 0 23 -9t9 -23v-856z" />
<glyph unicode="^" horiz-adv-x="489" d="M438 460q7 -11 4.5 -23t-13.5 -19t-23 -4.5t-19 12.5l-143 227l-141 -227q-7 -11 -19.5 -13t-22.5 5q-11 7 -14 19t4 23l162 256q11 20 31 20q21 0 33 -20z" />
<glyph unicode="_" horiz-adv-x="464" d="M493 -133q0 -12 -8.5 -21t-20.5 -9h-464q-12 0 -20.5 9t-8.5 21q0 13 8.5 21.5t20.5 8.5h464q12 0 20.5 -8.5t8.5 -21.5z" />
<glyph unicode="`" horiz-adv-x="530" d="M334 635q4 -8 4 -13q0 -15 -15 -23q-6 -3 -13 -3q-15 0 -24 14l-89 148q-4 5 -4 15q0 17 15 25q7 4 15 4q9 0 16 -4.5t11 -11.5z" />
<glyph unicode="a" horiz-adv-x="490" d="M450 23q0 -14 -9 -21.5t-23 -7.5q-11 0 -24 5.5t-23 15.5q-8 7 -12.5 16t-7.5 18q-14 -17 -31 -27.5t-36 -16.5t-38 -8.5t-35 -2.5q-47 0 -80 11.5t-53.5 31t-30 45.5t-9.5 55v8q0 29 10 54.5t31 45t55 30.5t82 11h126v28q0 34 -5 59t-18 41.5t-35.5 25t-58.5 8.5 q-38 0 -63 -7.5t-45 -19.5q-5 -2 -8 -3.5t-8 -1.5q-12 0 -20 9t-8 20q0 16 14 24q28 18 63 26t78 8q53 0 87 -13t54 -38t28 -60.5t8 -81.5v-197q0 -32 6 -45t23 -20q16 -9 16 -25zM342 233h-122q-36 0 -59 -7.5t-36.5 -20t-18.5 -28.5t-5 -33v-7q0 -17 5 -33t18.5 -28.5 t36 -20t57.5 -7.5q59 0 91.5 29t32.5 89v67z" />
<glyph unicode="b" horiz-adv-x="507" d="M452 194q0 -92 -43.5 -146t-139.5 -54q-37 0 -71.5 12t-63.5 32q-2 -7 -6 -12.5t-9 -10.5q-12 -11 -25 -16t-23 -5q-14 0 -23 7.5t-9 21.5q0 17 16 25q17 7 23 19.5t6 45.5v579q0 14 9.5 23t22.5 9q14 0 23 -9t9 -23v-239q29 26 64 38t68 12q49 0 82 -15t53 -42.5 t28.5 -66t8.5 -84.5v-101zM388 301q0 71 -26 108.5t-90 37.5q-30 0 -64 -15t-60 -47v-290q25 -20 54.5 -31.5t61.5 -11.5q66 0 95 35.5t29 103.5v110z" />
<glyph unicode="c" horiz-adv-x="415" d="M383 62q5 -11 2 -22t-14 -16q-29 -17 -60.5 -23.5t-63.5 -6.5q-50 0 -86 16.5t-59.5 45.5t-34.5 69.5t-11 88.5v69q0 45 12 85t36 70t60 47.5t84 17.5q31 0 63 -6t59 -23q11 -6 14 -17t-4 -22q-5 -9 -15 -12.5t-22 2.5q-20 11 -42.5 16t-49.5 5q-63 0 -97.5 -44.5 t-34.5 -115.5v-74q0 -76 32.5 -118.5t98.5 -42.5q25 0 48.5 5t46.5 18q13 6 23 2t15 -14z" />
<glyph unicode="d" horiz-adv-x="507" d="M468 23q0 -14 -9 -21.5t-22 -7.5q-11 0 -24 5t-24 16q-12 11 -17 27q-32 -25 -67 -36.5t-68 -11.5q-98 0 -139.5 51.5t-41.5 145.5v95q0 48 9.5 87.5t30.5 68.5t54.5 45t82.5 16q28 0 61.5 -9t64.5 -34v232q0 14 9.5 23t22.5 9q14 0 23 -9t9 -23v-579q0 -33 6 -45.5 t23 -19.5q16 -7 16 -25zM359 393q-28 31 -61 42.5t-58 11.5q-64 0 -92.5 -40.5t-28.5 -114.5v-104q0 -69 28 -102.5t97 -33.5q26 0 56 11t59 37v293z" />
<glyph unicode="e" horiz-adv-x="483" d="M436 256q0 -13 -8 -20t-19 -7h-290v-30q0 -66 30 -107t98 -41q45 0 76 8.5t56 23.5q11 6 21.5 2t15.5 -15q5 -10 2 -20.5t-14 -16.5q-64 -39 -159 -39q-52 0 -88 17t-58.5 45.5t-32.5 66.5t-10 80v93q0 42 10.5 79.5t33 66t58.5 45t88 16.5q53 0 89.5 -16.5t59 -44.5 t32 -65.5t9.5 -79.5v-41zM373 303q0 66 -28 106t-99 40q-68 0 -97.5 -40.5t-29.5 -106.5v-19h254v20z" />
<glyph unicode="f" horiz-adv-x="288" d="M317 697q0 -13 -8.5 -21.5t-21.5 -8.5h-26q-36 0 -58.5 -8t-35 -25t-17 -43.5t-4.5 -64.5v-29h93q12 0 20 -8t8 -20t-8 -20.5t-20 -8.5h-93v-414q0 -14 -9.5 -23t-22.5 -9q-14 0 -23 9t-9 23v414h-35q-12 0 -20.5 8.5t-8.5 20.5t8.5 20t20.5 8h35v29q0 46 7 83t26.5 63 t53.5 40t88 14h30q13 0 21.5 -8.5t8.5 -20.5z" />
<glyph unicode="g" horiz-adv-x="497" d="M424 33q0 -44 -9.5 -83.5t-32 -69t-59 -46.5t-90.5 -17q-38 0 -72 6t-63 19q-19 8 -19 26q0 13 10.5 23t25.5 5q23 -8 50 -15t65 -7q37 0 62 11t40 31.5t21.5 49.5t6.5 65v29q-32 -23 -68 -33.5t-64 -10.5q-48 0 -81 14.5t-53.5 40.5t-29 63.5t-8.5 82.5v80q0 45 9.5 83 t30 65.5t54 43t81.5 15.5q29 0 64 -11t67 -40l1 27q0 11 9 17.5t20 6.5q14 0 23 -9t9 -23v-439zM360 388q-29 34 -63 45.5t-59 11.5q-63 0 -91 -37t-28 -106v-89q0 -68 26 -103t91 -35q24 0 60 11t64 37v265z" />
<glyph unicode="h" horiz-adv-x="519" d="M447 26q0 -14 -9 -23t-23 -9q-13 0 -22.5 9t-9.5 23v294q0 28 -4.5 50.5t-16.5 38.5t-32.5 24.5t-52.5 8.5q-51 0 -86.5 -20t-53.5 -54v-342q0 -14 -9.5 -23t-22.5 -9q-14 0 -23 9t-9 23v666q0 14 9 23t23 9q13 0 22.5 -9t9.5 -23v-244q25 26 61.5 40.5t87.5 14.5 q48 0 79 -14t49 -38t25.5 -57t7.5 -70v-298z" />
<glyph unicode="i" horiz-adv-x="210" d="M144 671q0 -17 -11.5 -28t-27.5 -11q-17 0 -28 11t-11 28q0 16 11 27.5t28 11.5q16 0 27.5 -11.5t11.5 -27.5zM137 26q0 -14 -9.5 -23t-22.5 -9q-14 0 -23 9t-9 23v446q0 13 9 22.5t23 9.5q13 0 22.5 -9.5t9.5 -22.5v-446z" />
<glyph unicode="j" horiz-adv-x="210" d="M144 671q0 -17 -11.5 -28t-27.5 -11q-17 0 -28 11t-11 28q0 16 11 27.5t28 11.5q16 0 27.5 -11.5t11.5 -27.5zM137 -9q0 -89 -37 -131.5t-114 -42.5q-14 0 -21.5 9t-7.5 20t7.5 19.5t21.5 9.5q21 0 37.5 5.5t27.5 18.5t16.5 35t5.5 55v483q0 13 9 22.5t23 9.5t23 -9.5 t9 -22.5v-481z" />
<glyph unicode="k" horiz-adv-x="446" d="M427 39q4 -8 4 -15q0 -14 -10 -22t-23 -8q-8 0 -15 4t-12 14q-33 64 -73.5 126.5t-83.5 119.5l-77 -79v-153q0 -14 -9.5 -23t-22.5 -9q-14 0 -23 9t-9 23v666q0 14 9 23t23 9q13 0 22.5 -9t9.5 -23v-433l230 236q8 8 21 8t21 -8q9 -9 9 -20q0 -13 -10 -21l-149 -152 q46 -61 89.5 -127.5t78.5 -135.5z" />
<glyph unicode="l" horiz-adv-x="221" d="M181 23q0 -14 -8.5 -21.5t-22.5 -7.5q-9 0 -23 5.5t-25 15.5q-17 16 -24.5 37t-7.5 44v596q0 14 9 23t22 9q14 0 23 -9t9 -23v-579q0 -33 8 -45.5t25 -19.5q15 -7 15 -25z" />
<glyph unicode="m" horiz-adv-x="820" d="M748 26q0 -14 -9.5 -23t-22.5 -9q-14 0 -23 9t-9 23v294q0 28 -4.5 51t-16.5 39t-32 24.5t-51 8.5q-51 0 -83.5 -21.5t-49.5 -54.5q3 -21 3 -42v-299q0 -14 -9 -23t-23 -9t-23 9t-9 23v294q0 28 -4.5 51t-16 39t-31.5 24.5t-51 8.5q-50 0 -82.5 -19t-49.5 -50v-348 q0 -14 -9 -23t-23 -9q-13 0 -22.5 9t-9.5 23v353q0 32 -7.5 44.5t-24.5 20.5q-16 10 -16 24q0 15 9 22t23 7q10 0 23.5 -5t24.5 -15q15 -13 21 -32q26 28 63 43t89 15q55 0 87 -19t49 -52q25 34 65 52.5t97 18.5q46 0 76.5 -14t48.5 -38t25.5 -56.5t7.5 -69.5v-299z" />
<glyph unicode="n" horiz-adv-x="535" d="M463 26q0 -14 -9.5 -23t-23.5 -9t-23 9t-9 23v294q0 28 -4.5 50.5t-16.5 38.5t-32.5 25t-52.5 9q-51 0 -86 -20.5t-55 -54.5v-342q0 -14 -9 -23t-23 -9q-13 0 -22.5 9t-9.5 23v353q0 32 -7.5 44.5t-24.5 20.5q-16 10 -16 24q0 15 9 22t23 7q10 0 23.5 -5t24.5 -15 q16 -15 23 -37q26 30 65 46.5t94 16.5q47 0 78 -14t49.5 -38t26 -57t7.5 -70z" />
<glyph unicode="o" horiz-adv-x="499" d="M380 299q0 33 -7 59.5t-23 45.5q-33 39 -100 39q-68 0 -101 -39q-30 -38 -30 -105v-101q0 -68 30 -105q33 -39 101 -39q67 0 100 39q16 19 23 45.5t7 59.5v101zM443 198q0 -42 -11 -79.5t-34 -65t-59.5 -43.5t-88.5 -16t-89 16t-60 43.5t-34 65t-11 79.5v101 q0 42 11 79.5t34 65t60 43.5t89 16t88.5 -16t59.5 -43.5t34 -65t11 -79.5v-101z" />
<glyph unicode="p" horiz-adv-x="507" d="M452 211q0 -47 -9.5 -87t-30.5 -69t-55 -45t-82 -16q-28 0 -61.5 9.5t-65.5 33.5v-188q0 -14 -9 -23t-23 -9q-13 0 -22.5 9t-9.5 23v536q0 32 -6.5 44.5t-22.5 20.5q-16 10 -16 25q0 14 9 21t23 7q10 0 23 -5t25 -15q10 -10 17 -26q32 23 66.5 34.5t67.5 11.5 q98 0 140 -51.5t42 -144.5v-96zM388 310q0 68 -27.5 102.5t-96.5 34.5q-26 0 -56.5 -11.5t-59.5 -37.5v-294q29 -30 62 -41t57 -11q64 0 92.5 40t28.5 113v105z" />
<glyph unicode="q" horiz-adv-x="507" d="M468 475q0 -16 -16 -25q-8 -4 -13.5 -8.5t-9 -11.5t-5 -18t-1.5 -27v-536q0 -14 -9 -23t-23 -9q-13 0 -22.5 9t-9.5 23v196q-29 -26 -63.5 -38.5t-68.5 -12.5q-48 0 -81 15t-53 42.5t-28.5 66t-8.5 84.5v102q0 46 10.5 82.5t32.5 62.5t56.5 40t82.5 14q75 0 135 -43 q7 14 16 23q11 10 24 15t24 5q13 0 22 -7t9 -21zM359 402q-25 21 -54 33t-61 12q-66 0 -95.5 -35.5t-29.5 -104.5v-110q0 -70 26 -107.5t91 -37.5q30 0 63.5 14t59.5 48v288z" />
<glyph unicode="r" horiz-adv-x="372" d="M369 466q0 -14 -8 -23t-22 -9q-6 0 -12.5 1.5t-17.5 3.5q-7 1 -15 1.5t-19 0.5q-16 0 -35 -3.5t-36.5 -14.5t-31.5 -32t-21 -56v-309q0 -14 -9 -23t-23 -9q-13 0 -22.5 9t-9.5 23v353q0 32 -7.5 44.5t-24.5 20.5q-16 10 -16 24q0 29 32 29q14 0 26 -6.5t20 -11.5 q10 -8 17 -20.5t10 -25.5q16 24 34 37.5t37 21t36.5 9.5t31.5 2q22 0 38.5 -2.5t29.5 -7.5q9 -3 13.5 -10.5t4.5 -16.5z" />
<glyph unicode="s" horiz-adv-x="422" d="M380 143q0 -73 -49.5 -111t-132.5 -38q-47 0 -79 5.5t-61 16.5q-13 5 -17 16t1 22q4 11 14.5 16t22.5 0q25 -9 51.5 -14t68.5 -5q63 0 91 25t28 65q0 26 -12 41t-32 24t-45.5 13.5t-52.5 10.5q-26 6 -50 14t-42.5 22t-30 37t-11.5 58q0 34 12.5 60.5t34 44.5t51.5 27.5 t66 9.5q39 0 67.5 -4.5t56.5 -16.5q13 -5 17 -16.5t-1 -22.5q-5 -10 -15 -15t-22 0q-25 10 -47.5 14.5t-54.5 4.5q-51 0 -77.5 -23.5t-26.5 -60.5q0 -23 11 -37.5t29 -23t41 -13.5t48 -10q27 -6 53.5 -13.5t47.5 -22t34 -38.5t13 -62z" />
<glyph unicode="t" horiz-adv-x="315" d="M303 30q0 -13 -8.5 -21.5t-21.5 -8.5h-25q-51 0 -83 15t-50 42.5t-24.5 66t-6.5 85.5v231h-35q-12 0 -20.5 8.5t-8.5 20.5t8.5 20t20.5 8h35v121q0 14 9 23t23 9t23 -9t9 -23v-121h100q12 0 20.5 -8t8.5 -20t-8.5 -20.5t-20.5 -8.5h-100v-231q0 -41 4 -69t15.5 -46 t31.5 -26t53 -8h21q13 0 21.5 -9t8.5 -21z" />
<glyph unicode="u" horiz-adv-x="535" d="M496 23q0 -14 -9.5 -21.5t-22.5 -7.5q-10 0 -24 5.5t-24 15.5q-19 17 -25 41q-26 -29 -64.5 -45.5t-92.5 -16.5q-47 0 -78.5 14t-50 38.5t-26 57t-7.5 70.5v297q0 14 9.5 23t22.5 9q14 0 23 -9t9 -23v-293q0 -29 4.5 -51.5t16.5 -38t33 -24t53 -8.5q54 0 88.5 21.5 t51.5 57.5v336q0 14 9 23t23 9t23 -9t9 -23v-358q0 -33 7.5 -45.5t24.5 -19.5q17 -8 17 -25z" />
<glyph unicode="v" horiz-adv-x="446" d="M424 463q-36 -107 -76.5 -217t-85.5 -220q-8 -20 -18 -26t-23 -6q-14 0 -24 6t-18 26q-43 111 -82.5 221t-74.5 217q-5 18 5.5 28.5t24.5 10.5q9 0 17 -4.5t11 -15.5q32 -97 67.5 -198t73.5 -202q39 101 75 202t68 198q5 11 13 15.5t16 4.5q14 0 25 -11t6 -29z" />
<glyph unicode="w" horiz-adv-x="697" d="M673 467q-30 -111 -63.5 -224t-69.5 -221q-5 -16 -15.5 -22t-23.5 -6t-23.5 6.5t-15.5 21.5q-31 94 -58.5 186t-55.5 187q-26 -95 -54 -187.5t-59 -185.5q-5 -15 -15.5 -21.5t-23.5 -6.5t-23.5 6t-15.5 22q-35 108 -68.5 221t-63.5 224q-4 17 6 26.5t24 9.5q10 0 18 -5 t10 -17q27 -97 55.5 -195.5t59.5 -195.5q31 97 59 191.5t55 194.5q3 12 12 19.5t25 7.5t25 -7.5t11 -19.5q27 -100 55 -194.5t59 -191.5q31 97 59.5 195.5t55.5 195.5q3 12 11 17t18 5q13 0 23.5 -9.5t6.5 -26.5z" />
<glyph unicode="x" horiz-adv-x="424" d="M404 25q0 -14 -10.5 -23t-23.5 -9q-17 0 -27 18q-26 50 -58.5 95t-74.5 100q-36 -48 -70 -96t-61 -100q-10 -17 -27 -17q-12 0 -22 8t-10 22q0 4 0.5 7.5t2.5 7.5q31 58 70 112t81 106q-38 48 -73.5 98t-63.5 104q-4 7 -4 15q0 13 11 21.5t23 8.5q19 0 28 -17 q25 -48 55 -91.5t62 -86.5q32 44 62.5 87.5t55.5 91.5q5 8 12 12t15 4q12 0 22 -8t10 -20q0 -7 -4 -15q-27 -54 -62 -104t-72 -98q48 -62 84.5 -113t65.5 -105q2 -4 2.5 -7.5t0.5 -7.5z" />
<glyph unicode="y" horiz-adv-x="456" d="M297 68q-21 -61 -45 -108t-53 -78.5t-65 -48t-82 -16.5q-17 0 -24.5 10t-7.5 21t7.5 21t22.5 11q23 0 43.5 5.5t39.5 19t36.5 35.5t34.5 56q-53 131 -97.5 250t-76.5 218q-2 8 -2 10q0 14 10 21.5t23 7.5q8 0 16 -5t12 -16q29 -88 65.5 -189.5t81.5 -216.5l139 406 q4 12 12.5 16.5t16.5 4.5q13 0 23 -8t10 -22q0 -2 -2 -12z" />
<glyph unicode="z" horiz-adv-x="414" d="M394 468q0 -10 -8 -23l-278 -386h257q12 0 20.5 -8.5t8.5 -20.5q0 -13 -8.5 -21.5t-20.5 -8.5h-314q-12 0 -21 8.5t-9 22.5q0 11 6 19l279 388h-237q-12 0 -21 8.5t-9 21.5q0 12 9 20.5t21 8.5h295q11 0 20.5 -7t9.5 -22z" />
<glyph unicode="{" horiz-adv-x="283" d="M243 -65q0 -12 -8.5 -21.5t-23.5 -9.5h-6q-28 0 -51 11t-39.5 30.5t-25.5 46.5t-9 59q0 26 6.5 52t14 51.5t14 51t6.5 49.5t-6 39.5t-15 25t-19 13t-17 3.5h-6q-14 0 -21 8.5t-7 19.5t7 19.5t21 8.5h6q7 0 17 3.5t19 13t15 25t6 39.5t-6.5 49t-14 50.5t-14 51.5t-6.5 52 q0 32 9 59t25.5 47t39.5 31t51 11h6q15 0 23.5 -9.5t8.5 -22.5q-1 -12 -9 -21t-22 -9h-5q-25 0 -43 -22t-18 -66q0 -25 6 -49.5t13.5 -49.5t13.5 -50t6 -51q0 -77 -58 -109v-3q58 -31 58 -108q0 -26 -6 -51.5t-13.5 -50t-13.5 -49.5t-6 -50q0 -43 18 -65t43 -22h5 q14 0 22 -9.5t9 -21.5z" />
<glyph unicode="|" horiz-adv-x="214" d="M140 -63q0 -14 -9.5 -23.5t-23.5 -9.5t-23.5 9.5t-9.5 23.5v855q0 14 9.5 23.5t23.5 9.5t23.5 -9.5t9.5 -23.5v-855z" />
<glyph unicode="}" horiz-adv-x="283" d="M253 364q0 -11 -7.5 -19.5t-20.5 -8.5h-6q-8 0 -18 -3.5t-18.5 -13t-14.5 -25t-6 -39.5t6 -49.5t13.5 -51t14 -51.5t6.5 -52q0 -64 -33.5 -105.5t-90.5 -41.5h-7q-14 0 -22.5 9.5t-8.5 21.5t8 21.5t22 9.5h5q25 0 43.5 22t18.5 65q0 25 -6 50t-13.5 49.5t-13.5 50 t-6 51.5q0 77 57 108v3q-57 32 -57 109q0 26 6 51t13.5 50t13.5 49.5t6 49.5q0 44 -18.5 66t-43.5 22h-5q-14 0 -22 9t-8 21q0 13 8.5 22.5t22.5 9.5h7q28 0 51 -11t39 -31t25 -47t9 -59q0 -26 -6.5 -52t-14 -51.5t-13.5 -50.5t-6 -49t6 -39.5t14.5 -25t18.5 -13t18 -3.5h6 q13 0 20.5 -8.5t7.5 -19.5z" />
<glyph unicode="~" horiz-adv-x="502" d="M439 284q0 -14 -9 -25.5t-24 -19.5t-34.5 -13t-40.5 -5q-26 0 -45.5 7t-37 15t-34.5 15t-37 7q-19 0 -30 -4.5t-19 -10t-15 -10t-16 -4.5q-14 0 -24 10t-10 24q0 13 9 24.5t24.5 19.5t35 13t40.5 5q25 0 45 -7t37.5 -15t34.5 -15t37 -7q19 0 30.5 4.5t19 10.5t14 10.5 t16.5 4.5q14 0 23.5 -10t9.5 -24z" />
<glyph unicode="&#xa3;" d="M511 31q0 -13 -9 -22t-23 -9h-398q-14 0 -23 8.5t-9 22.5q0 19 16.5 25.5t32.5 14.5q29 22 49.5 53t20.5 83q0 26 -7 51.5t-18 49.5h-50q-11 0 -19.5 8.5t-8.5 20.5t8.5 20.5t19.5 8.5h30q-14 34 -24.5 70.5t-10.5 80.5q0 38 13.5 77t41.5 70.5t71.5 51t103.5 19.5 q40 0 75.5 -5t74.5 -19q24 -8 24 -30q0 -14 -8 -23.5t-22 -9.5q-9 0 -18 3.5t-32 9.5q-22 5 -43 7.5t-47 2.5q-46 0 -78 -14.5t-52 -37t-29 -50t-9 -53.5q0 -40 12 -77t26 -73h173q13 0 21.5 -8.5t8.5 -20.5t-9 -20.5t-21 -8.5h-154q9 -24 15.5 -49.5t6.5 -51.5 q0 -46 -16 -80.5t-45 -63.5h307q14 0 23 -9t9 -23z" />
<glyph unicode="&#xa6;" horiz-adv-x="214" d="M140 459q0 -13 -9.5 -23t-23.5 -10t-23.5 10t-9.5 23v333q0 14 9.5 23t23.5 9t23.5 -9t9.5 -23v-333zM140 -63q0 -14 -9.5 -23.5t-23.5 -9.5t-23.5 9.5t-9.5 23.5v332q0 14 9.5 23.5t23.5 9.5t23.5 -9.5t9.5 -23.5v-332z" />
<glyph unicode="&#xa7;" horiz-adv-x="544" d="M494 251q0 -48 -19 -83.5t-50 -58.5q17 -18 28 -42.5t11 -59.5q0 -50 -18 -85t-47.5 -57t-67 -32t-76.5 -10q-32 0 -62.5 5.5t-56.5 15.5q-17 6 -26 13t-9 20q0 12 7.5 21.5t21.5 9.5q8 0 16 -4t27 -10q18 -5 37.5 -9t42.5 -4q31 0 58 7t47 22t32 38.5t12 55.5 q0 38 -21.5 59t-56.5 35q-18 7 -44 15t-53.5 16t-53.5 17.5t-44 19.5q-35 18 -55.5 48.5t-20.5 80.5q0 49 19 84.5t50 58.5q-18 17 -28.5 41.5t-10.5 59.5q0 50 18 85t47.5 57t67 32t75.5 10q65 0 120 -19q17 -6 26 -14t9 -20q0 -13 -7.5 -22.5t-21.5 -9.5q-8 0 -16.5 4.5 t-26.5 9.5q-18 6 -38 10t-43 4q-30 0 -57 -7t-47 -22t-31.5 -38.5t-11.5 -55.5q0 -38 21 -59t56 -35q18 -8 44 -15.5t53.5 -16t53.5 -17.5t44 -19q34 -19 55 -49t21 -81zM432 248q0 31 -13.5 50t-35.5 31t-48.5 19.5t-52.5 15.5q-28 9 -56.5 18t-53.5 23q-25 -16 -41 -42.5 t-16 -63.5q0 -31 13.5 -50t35 -31t48.5 -20t53 -16q28 -8 56.5 -17t53.5 -23q25 16 41 42.5t16 63.5z" />
<glyph unicode="&#xa9;" horiz-adv-x="884" d="M815 364q0 -77 -29.5 -145t-80.5 -118.5t-119 -80t-145 -29.5t-145 29.5t-118.5 80t-80 118.5t-29.5 145t29.5 145t80 119t118.5 80.5t145 29.5t145 -29.5t119 -80.5t80.5 -119t29.5 -145zM762 364q0 66 -25.5 124.5t-69 102t-102 69t-124.5 25.5t-124 -25.5t-101.5 -69 t-68.5 -102t-25 -124.5t25 -124.5t68.5 -102t101.5 -68.5t124 -25t124.5 25t102 68.5t69 102t25.5 124.5zM557 199q0 -17 -16 -24q-26 -12 -51.5 -16t-49.5 -4q-41 0 -71.5 14t-50 39t-29 58t-9.5 71v55q0 36 10 69t30.5 58t50.5 40t70 15q22 0 47.5 -4t51.5 -16 q16 -7 16 -22q0 -11 -7.5 -19.5t-18.5 -8.5q-5 0 -11 3q-19 8 -39 11.5t-38 3.5q-50 0 -79 -35.5t-29 -94.5v-55q0 -56 24.5 -93t83.5 -37q20 0 39.5 3.5t38.5 12.5q4 2 11 2q12 0 19 -8t7 -18z" />
<glyph unicode="&#xab;" horiz-adv-x="583" d="M526 90q9 -9 9 -21t-10 -22q-9 -9 -21 -9q-13 0 -22 9l-193 201q-9 9 -9 21t9 21l193 200q9 9 22 9q11 0 21 -8q10 -10 10 -22q0 -13 -9 -22l-173 -178zM280 90q8 -8 8 -21t-9 -22t-21 -9t-21 9l-194 201q-9 9 -9 21t9 21l194 200q9 9 22 9q10 0 20 -8q9 -9 9 -23 q0 -13 -8 -21l-173 -178z" />
<glyph unicode="&#xac;" horiz-adv-x="553" d="M493 251q0 -13 -9 -22t-22 -9t-21.5 9t-8.5 22v99h-341q-13 0 -22 9t-9 22t9 22t22 9h371q13 0 22 -9t9 -22v-130z" />
<glyph unicode="&#xae;" horiz-adv-x="884" d="M815 364q0 -77 -29.5 -145t-80.5 -118.5t-119 -80t-145 -29.5t-145 29.5t-118.5 80t-80 118.5t-29.5 145t29.5 145t80 119t118.5 80.5t145 29.5t145 -29.5t119 -80.5t80.5 -119t29.5 -145zM762 364q0 66 -25.5 124.5t-69 102t-102 69t-124.5 25.5t-124 -25.5t-101.5 -69 t-68.5 -102t-25 -124.5t25 -124.5t68.5 -102t101.5 -68.5t124 -25t124.5 25t102 68.5t69 102t25.5 124.5zM579 439q0 -32 -20.5 -60.5t-64.5 -39.5l77 -142q3 -5 3 -11q0 -13 -8 -20.5t-19 -7.5q-17 0 -23 15l-86 160h-74v-147q0 -12 -8 -19.5t-19 -7.5t-19 7.5t-8 19.5v357 q0 11 8 19t19 8h111q36 0 61 -9t40.5 -24t22.5 -34t7 -38v-26zM525 463q0 9 -3 19.5t-12 19.5t-24 15t-39 6h-83v-143h82q23 0 38.5 6t24.5 15t12.5 19.5t3.5 19.5v23z" />
<glyph unicode="&#xb0;" horiz-adv-x="395" d="M359 578q0 -33 -13 -62.5t-35 -51t-51.5 -34t-62.5 -12.5t-62.5 12.5t-51 34t-34.5 51t-13 62.5t13 62.5t34.5 51t51 34t62.5 12.5t62.5 -12.5t51.5 -34t35 -51t13 -62.5zM300 578q0 21 -8 39.5t-22 33t-33 22.5t-40 8t-39.5 -8t-32.5 -22.5t-22 -33t-8 -39.5t8 -40 t22 -33t32.5 -22t39.5 -8t40 8t33 22t22 33t8 40z" />
<glyph unicode="&#xb1;" horiz-adv-x="535" d="M474 384q0 -13 -9 -22t-22 -9h-145v-145q0 -13 -9 -22t-21 -9q-13 0 -22 9t-9 22v145h-145q-13 0 -22 9t-9 22t9 21.5t22 8.5h145v146q0 13 9 22t22 9q12 0 21 -9t9 -22v-146h145q13 0 22 -8.5t9 -21.5zM474 31q0 -13 -9 -22t-22 -9h-351q-13 0 -22 9t-9 22q0 12 9 21 t22 9h351q13 0 22 -9t9 -21z" />
<glyph unicode="&#xb2;" horiz-adv-x="450" d="M354 314q0 -9 -7 -15.5t-16 -6.5h-212q-23 0 -23 22q0 30 11 54.5t27 44t34 33.5t32 25q19 15 38.5 29.5t35 30.5t25 34t9.5 41q0 34 -19.5 58.5t-62.5 24.5q-19 0 -32.5 -3.5t-26.5 -9.5q-16 -8 -22.5 -15.5t-17.5 -7.5q-8 0 -15 6.5t-7 15.5q0 10 7 17q22 20 50 30 t65 10q33 0 57 -10.5t39.5 -28.5t23 -40.5t7.5 -46.5q0 -27 -9 -48.5t-23 -39t-32 -32.5t-37 -29q-39 -29 -69.5 -56t-38.5 -65h186q9 0 16 -6.5t7 -15.5z" />
<glyph unicode="&#xb3;" horiz-adv-x="450" d="M356 412q0 -25 -8.5 -47.5t-26 -40t-43 -27.5t-59.5 -10q-35 0 -63 9.5t-54 35.5q-8 5 -8 16q0 8 6.5 14.5t14.5 6.5q9 0 14.5 -6.5t22.5 -17.5q14 -10 30.5 -13.5t36.5 -3.5q47 0 69.5 25.5t22.5 60.5q0 23 -8 38t-21.5 24.5t-32 13.5t-39.5 4q-6 0 -14 3.5t-8 16.5 q0 14 8 18t14 4q15 1 31 5t29.5 12.5t22.5 22.5t9 35q0 15 -4 29t-13 25t-24.5 18t-38.5 7q-18 0 -33.5 -4.5t-27.5 -11.5q-14 -9 -20 -16t-16 -7q-8 0 -14 5.5t-6 15.5q0 9 8 16q16 18 44 30.5t66 12.5q34 0 57.5 -11t38 -28t20.5 -38t6 -40q0 -38 -17 -61t-45 -35 q33 -12 53 -36.5t20 -69.5z" />
<glyph unicode="&#xb5;" horiz-adv-x="535" d="M496 23q0 -14 -9.5 -21.5t-22.5 -7.5q-10 0 -24 5.5t-24 15.5q-19 17 -25 41q-26 -29 -64.5 -45.5t-92.5 -16.5q-35 0 -58.5 9t-39.5 25v-201q0 -14 -9 -23t-23 -9q-13 0 -22.5 9t-9.5 23v644q0 14 9.5 23t22.5 9q14 0 23 -9t9 -23v-293q0 -29 4.5 -51.5t16.5 -38t33 -24 t53 -8.5q54 0 88.5 21.5t51.5 57.5v336q0 14 9 23t23 9t23 -9t9 -23v-358q0 -33 7.5 -45.5t24.5 -19.5q17 -8 17 -25z" />
<glyph unicode="&#xb6;" horiz-adv-x="613" d="M580 703q0 -12 -8.5 -20.5t-20.5 -8.5h-51v-802q0 -14 -9.5 -23.5t-23.5 -9.5t-23.5 9.5t-9.5 23.5v802h-126v-802q0 -14 -9.5 -23.5t-23.5 -9.5t-23.5 9.5t-9.5 23.5v481q-39 1 -73 16.5t-59.5 41t-40 59.5t-14.5 72q0 40 15 74.5t41.5 60t61.5 40.5t75 15h303 q12 0 20.5 -8t8.5 -21z" />
<glyph unicode="&#xb9;" horiz-adv-x="450" d="M360 314q0 -9 -6.5 -15.5t-15.5 -6.5h-210q-9 0 -15.5 6.5t-6.5 15.5t6.5 15.5t15.5 6.5h103v332l-109 -75q-8 -5 -16.5 -3.5t-14.5 9.5q-5 8 -3 16.5t10 13.5l141 98q7 5 14 5q10 0 16.5 -6.5t6.5 -16.5v-373h62q9 0 15.5 -6.5t6.5 -15.5z" />
<glyph unicode="&#xbb;" horiz-adv-x="583" d="M549 269q0 -12 -9 -21l-194 -201q-9 -9 -21 -9t-21 9t-9 22t8 21l173 179l-173 178q-8 8 -8 21q0 14 9 23q10 8 20 8q13 0 22 -9l194 -200q9 -9 9 -21zM303 269q0 -10 -9 -21l-193 -201q-9 -9 -22 -9t-22 9t-9 22q0 12 9 21l173 179l-173 178q-9 9 -9 22q0 12 10 22 q8 8 21 8t22 -9l193 -200q9 -9 9 -21z" />
<glyph unicode="&#xbc;" horiz-adv-x="450" d="M347 346q0 -8 -6 -14t-15 -6h-194q-8 0 -13.5 6t-5.5 14t5.5 14t13.5 6h96v307l-101 -70q-7 -5 -15 -3t-13 9t-3.5 15t8.5 13l132 90q5 5 12 5q9 0 15.5 -6t6.5 -15v-345h56q9 0 15 -6t6 -14zM408 256q0 -8 -6.5 -14.5t-14.5 -6.5h-324q-8 0 -14.5 6.5t-6.5 14.5t6.5 14 t14.5 6h324q8 0 14.5 -6t6.5 -14zM336 -109q0 -9 -5.5 -15t-13.5 -6h-31v-65q0 -9 -6 -15t-15 -6t-15 6t-6 15v65h-136q-8 0 -13.5 5.5t-5.5 15.5q0 5 2 9l124 282q4 8 11.5 11t15.5 0q8 -4 11.5 -12t-0.5 -16l-112 -254h103v85q0 8 6 14t15 6t15 -6t6 -14v-85h31 q8 0 13.5 -6t5.5 -14z" />
<glyph unicode="&#xbd;" horiz-adv-x="450" d="M347 346q0 -8 -6 -14t-15 -6h-194q-8 0 -13.5 6t-5.5 14t5.5 14t13.5 6h96v307l-101 -70q-7 -5 -15 -3t-13 9t-3.5 15t8.5 13l132 90q5 5 12 5q9 0 15.5 -6t6.5 -15v-345h56q9 0 15 -6t6 -14zM408 256q0 -8 -6.5 -14.5t-14.5 -6.5h-324q-8 0 -14.5 6.5t-6.5 14.5t6.5 14 t14.5 6h324q8 0 14.5 -6t6.5 -14zM344 -190q0 -9 -6 -15t-14 -6h-197q-9 0 -14.5 6t-5.5 15q0 28 10 50.5t25 40t31.5 31t28.5 23.5q18 14 36 27t32 27.5t23 31.5t9 38q0 32 -18 54.5t-57 22.5q-17 0 -30.5 -3.5t-24.5 -9.5q-14 -7 -20.5 -13.5t-15.5 -6.5q-8 0 -14.5 6 t-6.5 14q0 9 7 15q38 37 106 37q30 0 52 -10t36 -26t21 -37t7 -43q0 -25 -8 -44.5t-21 -36t-29.5 -30.5t-33.5 -27q-37 -26 -64.5 -51t-35.5 -60h172q8 0 14 -6t6 -14z" />
<glyph unicode="&#xbe;" horiz-adv-x="450" d="M353 436q0 -23 -8 -43.5t-24 -36.5t-39.5 -25.5t-54.5 -9.5q-33 0 -59 8.5t-50 32.5q-7 6 -7 15q0 8 6 14t14 6t13 -6.5t21 -16.5q25 -15 61 -15q44 0 64.5 23.5t20.5 55.5q0 21 -7.5 35t-20 22.5t-29.5 12.5t-36 4q-5 1 -12.5 4t-7.5 15q0 13 7.5 16.5t12.5 3.5 q13 1 28 4.5t28 11.5t21 21t8 32q0 13 -3.5 26.5t-12 23.5t-23 16.5t-35.5 6.5q-17 0 -31 -4t-25 -11q-14 -8 -19.5 -14.5t-13.5 -6.5t-13.5 5.5t-5.5 13.5q0 9 7 16q15 17 41 28t61 11q32 0 54 -10t35 -26t18.5 -35t5.5 -37q0 -35 -15.5 -56t-41.5 -33q30 -11 48.5 -33.5 t18.5 -64.5zM408 256q0 -8 -6.5 -14.5t-14.5 -6.5h-324q-8 0 -14.5 6.5t-6.5 14.5t6.5 14t14.5 6h324q8 0 14.5 -6t6.5 -14zM339 -109q0 -9 -6 -15t-15 -6h-31v-65q0 -9 -6 -15t-14 -6t-14.5 6t-6.5 15v65h-135q-9 0 -15 5.5t-6 15.5q0 3 1 5l2 4l124 282q4 8 12 11t16 0 q8 -4 11 -12t-1 -16l-112 -254h103v85q0 8 6.5 14t14.5 6t14 -6t6 -14v-85h31q9 0 15 -6t6 -14z" />
<glyph unicode="&#xd0;" horiz-adv-x="657" d="M573 271q0 -24 -3 -51t-10.5 -54.5t-20.5 -53t-34 -46.5q-29 -30 -74.5 -48t-113.5 -18h-199q-14 0 -23.5 9.5t-9.5 23.5v294h-44q-13 0 -22 9t-9 22t9 22t22 9h44v307q0 14 9.5 23.5t23.5 9.5h199q72 0 118.5 -20.5t75.5 -52.5q19 -21 31 -46t19 -51.5t9.5 -52.5 t2.5 -49v-186zM507 456q0 42 -9.5 85t-40.5 75q-21 23 -56 36t-87 13h-163v-276h132q13 0 22 -9t9 -22t-9 -22t-22 -9h-132v-265h163q53 0 87.5 13.5t56.5 36.5q30 32 39.5 75t9.5 85v184z" />
<glyph unicode="&#xd7;" horiz-adv-x="421" d="M356 128q-9 -9 -22 -9t-22 9l-102 102l-102 -102q-8 -9 -21 -9t-22 9t-9 22q0 12 9 21l102 102l-102 102q-9 9 -9 21q0 13 9 22t22 9t21 -9l102 -102l102 102q9 9 22 9q12 0 21 -9t9 -22q0 -12 -9 -21l-102 -102l102 -102q9 -9 9 -22q0 -11 -8 -21z" />
<glyph unicode="&#xdd;" horiz-adv-x="492" d="M492 706q0 -7 -3 -13q-39 -91 -91.5 -197.5t-119.5 -229.5v-242q0 -14 -9.5 -23.5t-23.5 -9.5t-23.5 9.5t-9.5 23.5v242q-66 123 -118 229t-91 197q-3 7 -3 14q0 14 10.5 23t23.5 9q20 0 29 -20q35 -81 80.5 -174.5t102.5 -202.5q58 109 103.5 202.5t80.5 174.5 q9 20 28 20q13 0 23.5 -9t10.5 -23zM229 810q-9 -14 -24 -14q-7 0 -13 3q-15 8 -15 23q0 5 4 13l84 151q4 7 11 11.5t16 4.5q8 0 15 -4q15 -8 15 -25q0 -10 -4 -15z" />
<glyph unicode="&#xde;" horiz-adv-x="585" d="M542 319q0 -41 -15 -75.5t-43.5 -59.5t-69 -39t-92.5 -14h-171v-274q0 -14 -9.5 -23.5t-23.5 -9.5t-23.5 9.5t-9.5 23.5v947q0 14 9.5 23.5t23.5 9.5t23.5 -9.5t9.5 -23.5v-242h159q64 0 108.5 -17t72 -44t39.5 -61.5t12 -69.5v-51zM476 369q0 22 -8 45.5t-27 42.5 t-52 31t-82 12h-156v-308h169q40 0 69.5 10t49 27.5t28.5 41t9 49.5v49z" />
<glyph unicode="&#xf0;" horiz-adv-x="543" d="M493 240q0 -63 -18 -110t-49 -77.5t-72 -46t-86 -15.5q-49 0 -89 16.5t-68.5 47t-44.5 73.5t-16 95q0 54 19.5 94t50.5 66.5t69.5 40t75.5 13.5q35 0 69 -10t63 -28q-20 54 -50.5 102t-72.5 90l-92 -70q-8 -6 -16 -6q-13 0 -21 11q-5 7 -5 15q0 14 10 21l85 64 q-28 27 -58 49q-14 10 -14 25q0 14 9.5 23.5t22.5 9.5q11 0 19 -7q20 -14 38 -29t35 -31l84 63q8 5 16 5q14 0 21 -10q5 -8 5 -16q0 -13 -11 -21l-76 -58q78 -81 122.5 -178.5t44.5 -210.5zM429 240q0 41 -8 84q-32 28 -70 41t-80 13q-28 0 -56 -10t-50.5 -29.5t-36.5 -48.5 t-14 -67q0 -79 42 -125t112 -46q32 0 61.5 11t51.5 33.5t35 58t13 85.5z" />
<glyph unicode="&#xf7;" horiz-adv-x="559" d="M327 445q0 -20 -14 -34t-34 -14t-34 14t-14 34t14 34t34 14t34 -14t14 -34zM471 273q0 -13 -9 -22t-22 -9h-321q-13 0 -22 9t-9 22t9 21.5t22 8.5h321q13 0 22 -8.5t9 -21.5zM327 100q0 -20 -14 -34t-34 -14t-34 14t-14 34t14 34.5t34 14.5t34 -14.5t14 -34.5z" />
<glyph unicode="&#xfd;" horiz-adv-x="448" d="M285 68q-23 -65 -47 -112t-53 -77.5t-64.5 -45.5t-79.5 -16h-2q-16 0 -23.5 10t-7.5 22q0 11 7.5 20.5t22.5 9.5q23 1 43.5 6.5t39.5 19t36.5 35.5t34.5 56q-53 131 -97.5 250t-76.5 218q-2 8 -2 11q0 14 10.5 21.5t22.5 7.5q9 0 16.5 -5.5t11.5 -16.5q29 -88 65.5 -189 t81.5 -216l139 405q5 11 13 16.5t17 5.5q12 0 22 -8.5t10 -22.5q0 -8 -2 -12zM216 610q-9 -14 -24 -14q-7 0 -13 3q-15 8 -15 23q0 5 4 13l84 151q4 7 11 11.5t16 4.5q8 0 15 -4q15 -8 15 -25q0 -10 -4 -15z" />
<glyph unicode="&#xfe;" horiz-adv-x="488" d="M432 211q0 -48 -9.5 -88t-30.5 -69t-54.5 -45t-82.5 -16q-27 0 -61 9.5t-65 34.5v-189q0 -13 -9.5 -22.5t-22.5 -9.5q-14 0 -23 9.5t-9 22.5v860q0 14 9 23t23 9q13 0 22.5 -9t9.5 -23v-245q59 40 123 40q97 0 138.5 -51.5t41.5 -144.5v-96zM369 309q0 68 -27.5 102 t-96.5 34q-26 0 -56.5 -11t-59.5 -36v-294q29 -31 61.5 -42t57.5 -11q64 0 92.5 39.5t28.5 113.5v105z" />
<glyph unicode="&#x141;" horiz-adv-x="553" d="M547 32q0 -14 -9 -23t-23 -9h-359q-13 0 -22 9t-9 23v270l-62 -41q-8 -5 -17 -5q-17 0 -26 14q-6 9 -6 18q0 15 15 25l96 62v330q0 14 9 23.5t23 9.5t23.5 -9.5t9.5 -23.5v-287l97 63q6 5 17 5q17 0 26 -14q6 -8 6 -17q0 -16 -15 -26l-131 -85v-281h325q14 0 23 -9t9 -22 z" />
<glyph unicode="&#x142;" horiz-adv-x="329" d="M322 471q5 -8 5 -16q0 -16 -13 -24l-131 -85v-229q0 -32 7.5 -45t24.5 -20q16 -7 16 -25q0 -14 -9 -21.5t-22 -7.5q-10 0 -24 5.5t-25 15.5q-17 16 -24.5 37t-7.5 44v204l-64 -41q-8 -5 -16 -5q-16 0 -24 13q-5 8 -5 16q0 15 13 25l96 62v323q0 13 9 22.5t23 9.5t23 -9.5 t9 -22.5v-281l99 64q8 5 16 5q16 0 24 -14z" />
<glyph unicode="&#x160;" horiz-adv-x="573" d="M437 989q7 -11 7 -19q0 -13 -9 -20l-130 -131q-4 -3 -9 -5.5t-12 -2.5q-8 0 -13 2.5t-9 5.5l-129 131q-10 9 -10 21q0 9 8 19q8 8 19 8q8 0 19 -7l115 -110l114 109q8 7 19 7q10 0 20 -8zM523 209q0 -51 -18 -91.5t-51 -68.5t-80.5 -43t-106.5 -15t-105 7.5t-88 26.5 q-11 5 -15.5 13t-4.5 16q0 13 8 23t21 10q6 0 13 -2.5t16.5 -6.5t23.5 -9t35 -9q18 -4 41 -6.5t52 -2.5q99 0 146 43t47 111q0 52 -25.5 78t-70.5 40q-21 7 -49 12.5t-57.5 11t-58.5 12t-51 17.5q-41 19 -66 54t-25 100q0 49 17 87.5t47.5 65.5t72 41t91.5 14q48 0 89 -6.5 t79 -24.5q11 -4 16 -12t5 -16q0 -13 -8.5 -23t-22.5 -10q-5 0 -11 2.5t-15 6t-21.5 7.5t-30.5 8q-15 3 -34 5t-44 2q-78 0 -121 -39t-43 -104q0 -53 27 -78t73 -38q25 -8 57 -13t64 -11.5t62 -15.5t53 -24q32 -22 49.5 -56.5t17.5 -88.5z" />
<glyph unicode="&#x161;" horiz-adv-x="422" d="M380 143q0 -73 -49.5 -111t-132.5 -38q-47 0 -79 5.5t-61 16.5q-13 5 -17 16t1 22q4 11 14.5 16t22.5 0q25 -9 51.5 -14t68.5 -5q63 0 91 25t28 65q0 26 -12 41t-32 24t-45.5 13.5t-52.5 10.5q-26 6 -50 14t-42.5 22t-30 37t-11.5 58q0 34 12.5 60.5t34 44.5t51.5 27.5 t66 9.5q39 0 67.5 -4.5t56.5 -16.5q13 -5 17 -16.5t-1 -22.5q-5 -10 -15 -15t-22 0q-25 10 -47.5 14.5t-54.5 4.5q-51 0 -77.5 -23.5t-26.5 -60.5q0 -23 11 -37.5t29 -23t41 -13.5t48 -10q27 -6 53.5 -13.5t47.5 -22t34 -38.5t13 -62zM364 789q7 -7 7 -18q0 -12 -9 -21 l-130 -130q-7 -9 -21 -9q-7 0 -12.5 3t-8.5 6l-130 130q-9 9 -9 21q0 11 7 19q10 8 19 8q12 0 19 -7l115 -109l115 109q9 7 19 7q11 0 19 -9z" />
<glyph unicode="&#x17d;" horiz-adv-x="500" d="M482 31q0 -13 -9 -22t-22 -9h-405q-14 0 -22.5 9t-8.5 22q0 9 2.5 16.5t6.5 14.5l368 603h-345q-13 0 -22 9t-9 23q0 13 9 22.5t22 9.5h403q14 0 22 -9t8 -23q0 -13 -9 -27l-369 -606h349q13 0 22 -9.5t9 -23.5zM403 989q7 -8 7 -19q0 -13 -9 -20l-130 -131 q-3 -3 -8.5 -5.5t-12.5 -2.5t-12.5 2.5t-8.5 5.5l-130 131q-9 9 -9 21q0 11 7 19q10 8 19 8q10 0 19 -7l115 -110l115 109q7 7 19 7q11 0 19 -8z" />
<glyph unicode="&#x17e;" horiz-adv-x="426" d="M394 468q0 -10 -8 -23l-278 -386h257q12 0 20.5 -8.5t8.5 -20.5q0 -13 -8.5 -21.5t-20.5 -8.5h-314q-12 0 -21 8.5t-9 22.5q0 11 6 19l279 388h-237q-12 0 -21 8.5t-9 21.5q0 12 9 20.5t21 8.5h295q11 0 20.5 -7t9.5 -22zM365 789q7 -7 7 -18q0 -12 -9 -21l-130 -130 q-7 -9 -21 -9q-7 0 -12.5 3t-9.5 6l-129 130q-10 9 -10 21q0 9 8 19q8 8 19 8t19 -7l115 -109l115 109q9 7 18 7q11 0 20 -9z" />
<glyph unicode="&#x192;" horiz-adv-x="365" d="M386 690q0 -13 -9 -21.5t-21 -8.5h-20q-35 0 -57 -20.5t-29 -61.5l-15 -84h68q12 0 20.5 -8.5t8.5 -19.5q0 -12 -8.5 -20.5t-20.5 -8.5h-78l-84 -483q-15 -84 -55 -121.5t-109 -37.5h-15q-12 0 -21 8.5t-9 20.5q0 13 9 21.5t21 8.5h13q21 0 37.5 4.5t29 17t21.5 33.5 t15 54l83 474h-39q-12 0 -20.5 8.5t-8.5 20.5q0 11 8.5 19.5t20.5 8.5h49l16 93q10 57 47.5 94.5t99.5 37.5h22q12 0 21 -8t9 -21z" />
<glyph unicode="&#x401;" horiz-adv-x="549" d="M509 31q0 -13 -9 -22t-22 -9h-360q-14 0 -23 9t-9 22v666q0 13 9 22.5t23 9.5h345q13 0 22.5 -9.5t9.5 -22.5q0 -14 -9.5 -23t-22.5 -9h-311v-270h283q13 0 22 -9t9 -22t-9 -22t-22 -9h-283v-269h326q13 0 22 -9.5t9 -23.5zM425 887q0 -20 -14.5 -34t-34.5 -14t-34.5 14 t-14.5 34q0 21 14.5 35t34.5 14t34.5 -14t14.5 -35zM251 887q0 -20 -14 -34t-35 -14q-20 0 -34 14t-14 34q0 21 14 35t34 14q21 0 35 -14t14 -35z" />
<glyph unicode="&#x402;" horiz-adv-x="670" d="M7 697q0 13 9 22.5t23 9.5h408q13 0 22.5 -9.5t9.5 -22.5q0 -14 -9.5 -23t-22.5 -9h-171v-257q26 26 65 39.5t84 13.5q50 0 83 -13.5t53 -37.5t28 -57t8 -72v-165q0 -60 -29.5 -92.5t-83.5 -32.5h-100q-13 0 -21.5 8.5t-8.5 20.5t8.5 20.5t21.5 8.5h90q29 0 44.5 16.5 t15.5 52.5v160q0 57 -25 89.5t-93 32.5q-46 0 -82.5 -16.5t-57.5 -48.5v-311q0 -14 -9.5 -23.5t-23.5 -9.5t-23.5 9.5t-9.5 23.5v641h-171q-14 0 -23 9t-9 23z" />
<glyph unicode="&#x403;" horiz-adv-x="514" d="M84 698q0 13 9 22t23 9h359q13 0 22.5 -9t9.5 -22q0 -14 -9.5 -23t-22.5 -9h-325v-642q0 -14 -9.5 -23.5t-23.5 -9.5t-23.5 9.5t-9.5 23.5v674zM257 824q0 5 1.5 8.5t3.5 6.5l81 147q4 8 10.5 13t17.5 5q15 0 22.5 -9t7.5 -21q0 -6 -5 -16l-87 -145q-10 -15 -25 -15 q-13 0 -20 7.5t-7 18.5z" />
<glyph unicode="&#x404;" horiz-adv-x="576" d="M68 425q0 67 15 124.5t47 99.5t83.5 65.5t125.5 23.5q51 0 100 -14.5t84 -53.5q5 -6 8.5 -11.5t3.5 -11.5q0 -11 -8.5 -20.5t-25.5 -10.5q-11 0 -18.5 7t-19.5 16q-25 20 -56.5 29.5t-69.5 9.5q-105 0 -153.5 -64.5t-49.5 -181.5v-28h250q13 0 22 -9t9 -22t-9 -22t-22 -9 h-250v-41q1 -126 46.5 -187.5t150.5 -61.5q35 0 70 9.5t64 31.5q14 10 22 16.5t19 7.5q15 0 23 -10t8 -21q0 -13 -11 -24q-20 -20 -43.5 -33.5t-49 -22t-51 -12t-49.5 -3.5q-73 0 -123.5 22.5t-82 64t-45.5 99t-14 127.5v121z" />
<glyph unicode="&#x405;" horiz-adv-x="573" d="M523 209q0 -51 -18 -91.5t-51 -68.5t-80.5 -43t-106.5 -15t-105 7.5t-88 26.5q-11 5 -15.5 13t-4.5 16q0 13 8 23t21 10q6 0 13 -2.5t16.5 -6.5t23.5 -9t35 -9q18 -4 41 -6.5t52 -2.5q99 0 146 43t47 111q0 52 -25.5 78t-70.5 40q-21 7 -49 12.5t-57.5 11t-58.5 12 t-51 17.5q-41 19 -66 54t-25 100q0 49 17 87.5t47.5 65.5t72 41t91.5 14q48 0 89 -6.5t79 -24.5q11 -4 16 -12t5 -16q0 -13 -8.5 -23t-22.5 -10q-5 0 -11 2.5t-15 6t-21.5 7.5t-30.5 8q-15 3 -34 5t-44 2q-78 0 -121 -39t-43 -104q0 -53 27 -78t73 -38q25 -8 57 -13 t64 -11.5t62 -15.5t53 -24q32 -22 49.5 -56.5t17.5 -88.5z" />
<glyph unicode="&#x406;" horiz-adv-x="237" d="M151 24q0 -14 -9.5 -23.5t-23.5 -9.5t-23.5 9.5t-9.5 23.5v681q0 14 9.5 23.5t23.5 9.5t23.5 -9.5t9.5 -23.5v-681z" />
<glyph unicode="&#x407;" horiz-adv-x="237" d="M254 887q0 -20 -14 -34t-34 -14q-21 0 -35 14t-14 34q0 21 14 35t35 14q20 0 34 -14t14 -35zM81 887q0 -20 -14.5 -34t-34.5 -14t-34.5 14t-14.5 34q0 21 14.5 35t34.5 14t34.5 -14t14.5 -35zM151 24q0 -14 -9.5 -23.5t-23.5 -9.5t-23.5 9.5t-9.5 23.5v681q0 14 9.5 23.5 t23.5 9.5t23.5 -9.5t9.5 -23.5v-681z" />
<glyph unicode="&#x408;" horiz-adv-x="425" d="M350 254q0 -62 -13 -111t-40.5 -83t-72 -51.5t-107.5 -17.5q-46 0 -86 9q-14 3 -20 11.5t-6 19.5q0 13 8 22.5t23 9.5q5 0 11 -1.5t22 -3.5q20 -4 48 -4q91 0 129 47t38 153v451q0 14 9.5 23.5t23.5 9.5t23.5 -9.5t9.5 -23.5v-451z" />
<glyph unicode="&#x409;" horiz-adv-x="1093" d="M618 62h191q47 0 77 10t47.5 27.5t24.5 42t7 53.5v27q0 62 -46.5 95t-128.5 33h-172v-288zM8 24q0 14 9.5 23.5t23.5 9.5h14q29 0 46.5 16t27 41t12.5 53.5t3 54.5v474q0 14 9 23.5t22 9.5h412q13 0 22 -9.5t9 -23.5v-286h160q73 0 122 -15.5t78 -41.5t41 -59t12 -69v-34 q0 -42 -11.5 -77.5t-37.5 -60.5t-68.5 -39t-104.5 -14h-224q-14 0 -23.5 9.5t-9.5 23.5v632h-342v-445q0 -36 -6 -76.5t-23 -74.5t-47 -56t-77 -22h-16q-14 0 -23.5 9.5t-9.5 23.5z" />
<glyph unicode="&#x40a;" horiz-adv-x="1055" d="M551 0q-14 0 -23 9t-9 23v319h-367v-327q0 -14 -9.5 -24t-24.5 -10q-13 0 -23 10t-10 24v682q0 14 10 23t23 9q15 0 24.5 -9t9.5 -23v-296h367v296q0 14 9 23t23 9t23.5 -9t9.5 -23v-296h159q74 0 123 -15.5t78 -41.5t41 -59t12 -69v-33q0 -42 -11.5 -77.5t-37.5 -61 t-68.5 -39.5t-104.5 -14h-224zM584 351v-288h191q47 0 77.5 10t48 27.5t24.5 42t7 53.5v26q0 62 -47.5 95.5t-128.5 33.5h-172z" />
<glyph unicode="&#x40b;" horiz-adv-x="668" d="M533 278q0 58 -25 90.5t-93 32.5q-46 0 -82.5 -17t-56.5 -49v-311q0 -14 -10 -24t-24 -10t-23 10t-9 24v641h-170q-15 0 -24 9t-9 23q0 13 9 22.5t24 9.5h406q13 0 22.5 -9.5t9.5 -22.5q0 -14 -9.5 -23t-22.5 -9h-170v-257q27 27 65.5 40t82.5 13q50 0 83.5 -13.5t53 -37 t27.5 -56.5t8 -72v-259q0 -14 -8.5 -23.5t-22.5 -9.5q-13 0 -22.5 9.5t-9.5 23.5v255z" />
<glyph unicode="&#x40c;" horiz-adv-x="594" d="M84 24v681q0 14 9.5 23.5t23.5 9.5t23.5 -9.5t9.5 -23.5v-310h111l252 328q10 15 28 15q17 0 25 -11t8 -22q0 -10 -7 -20l-252 -320q66 -78 129 -157.5t123 -163.5q7 -10 7 -21t-8 -21.5t-25 -10.5q-18 0 -27 15q-123 171 -252 327h-112v-309q0 -14 -9.5 -23.5 t-23.5 -9.5t-23.5 9.5t-9.5 23.5zM259 823q0 5 1.5 8.5t3.5 6.5l81 147q4 8 10.5 13.5t17.5 5.5q15 0 22.5 -9.5t7.5 -20.5q0 -7 -5 -17l-87 -144q-9 -16 -25 -16q-13 0 -20 8t-7 18z" />
<glyph unicode="&#x40e;" horiz-adv-x="515" d="M41 23q0 14 9 23t23 9h16q43 0 77 23t68 82l-232 533q-3 6 -3 13q0 14 9.5 23t23.5 9q22 0 30 -20l206 -483q23 51 47 111t47.5 123t45.5 126t40 119q8 24 32 24q14 0 23.5 -7.5t9.5 -24.5q0 -4 -2 -12q-20 -62 -45 -132t-51.5 -140t-53.5 -135.5t-52 -118.5 q-41 -89 -91.5 -133t-125.5 -44h-18q-14 0 -23.5 9t-9.5 23zM110 953q0 13 12 22q4 3 8.5 4t8.5 1q14 0 23 -14q22 -39 46 -53.5t47 -14.5q24 0 48 14.5t46 53.5q8 14 23 14q10 0 16 -5q12 -8 12 -22q0 -8 -4 -15q-28 -49 -63.5 -72t-77.5 -23t-77.5 23t-62.5 72q-5 8 -5 15 z" />
<glyph unicode="&#x40f;" horiz-adv-x="668" d="M85 706q0 14 10 23t24 9t23 -9t9 -23v-642h367v642q0 14 9 23t23 9t23.5 -9t9.5 -23v-673q0 -13 -8.5 -23t-22.5 -10h-185v-162q0 -14 -9.5 -23.5t-23.5 -9.5q-13 0 -22.5 9.5t-9.5 23.5v162h-185q-14 0 -23 10t-9 23v673z" />
<glyph unicode="&#x410;" horiz-adv-x="562" d="M546 31q4 -18 -7.5 -29t-25.5 -11q-10 0 -19 6t-13 20q-11 41 -22.5 81.5t-22.5 80.5h-312q-12 -40 -23.5 -80.5t-22.5 -81.5q-3 -14 -11.5 -20t-18.5 -6q-14 0 -25.5 10.5t-6.5 29.5q46 180 102 344.5t121 324.5q10 24 20.5 30.5t21.5 6.5t21 -6.5t21 -30.5 q65 -161 120 -324.5t103 -344.5zM418 241q-32 101 -66 197t-72 191q-38 -95 -72.5 -191t-65.5 -197h276z" />
<glyph unicode="&#x411;" horiz-adv-x="624" d="M151 351v-288h191q47 0 77.5 10t48 27.5t24 42t6.5 53.5v26q0 62 -46.5 95.5t-128.5 33.5h-172zM118 0q-13 0 -23 9t-10 23v665q0 13 9 22.5t22 9.5h390q14 0 23 -9.5t9 -22.5t-9 -22.5t-23 -9.5h-355v-255h160q73 0 122 -15.5t77.5 -41.5t40.5 -59t12 -69v-33 q0 -42 -11 -77.5t-37 -61t-68.5 -39.5t-104.5 -14h-224z" />
<glyph unicode="&#x412;" horiz-adv-x="624" d="M151 339v-276h191q47 0 77 9.5t47.5 26t24.5 40t7 51.5v26q0 60 -47 91.5t-128 31.5h-172zM151 666v-267h118q45 0 81.5 5.5t62 19t39.5 36t14 56.5v30q0 26 -7.5 48t-25 38t-45 25t-66.5 9h-171zM118 0q-14 0 -23.5 9.5t-9.5 22.5v664q0 14 9.5 23.5t23.5 9.5h205 q55 0 95 -14t65.5 -38t37.5 -56.5t12 -69.5v-31q0 -57 -27.5 -92t-72.5 -52q60 -17 95 -58.5t35 -104.5v-27q0 -41 -11 -75t-37 -59t-68.5 -38.5t-104.5 -13.5h-224z" />
<glyph unicode="&#x413;" horiz-adv-x="514" d="M476 729q14 0 23 -9.5t9 -22.5t-9 -22.5t-23 -9.5h-326v-641q0 -14 -9 -24t-23 -10q-13 0 -23 10t-10 24v673q0 13 9.5 22t23.5 10h358z" />
<glyph unicode="&#x414;" horiz-adv-x="789" d="M256 271q0 -74 -12.5 -126.5t-47.5 -81.5h399v602h-339v-394zM49 63q42 0 69 12.5t43 38.5t22.5 65.5t6.5 93.5v424q0 13 9 22.5t22 9.5h408q14 0 23 -9.5t9 -22.5v-634h72q14 0 23 -9t9 -23v-194q0 -14 -9.5 -23t-23.5 -9t-23.5 9t-9.5 23v163h-616v-163q0 -14 -9.5 -23 t-23.5 -9t-23.5 9t-9.5 23v194q0 14 9 23t23 9z" />
<glyph unicode="&#x415;" horiz-adv-x="548" d="M508 31q0 -13 -9 -22t-22 -9h-360q-14 0 -23 9t-9 22v666q0 13 9 22.5t23 9.5h345q13 0 22.5 -9.5t9.5 -22.5q0 -14 -9.5 -23t-22.5 -9h-311v-270h283q13 0 22 -9t9 -22t-9 -22t-22 -9h-283v-269h326q13 0 22 -9.5t9 -23.5z" />
<glyph unicode="&#x416;" horiz-adv-x="951" d="M674 366q66 -78 129 -157.5t123 -163.5q7 -8 7 -21q0 -11 -8 -22t-25 -11q-18 0 -26 15q-63 86 -125 168t-128 160h-111v-309q0 -14 -10 -24t-24 -10t-23.5 10t-9.5 24v309h-111q-66 -78 -128.5 -160t-124.5 -168q-5 -7 -11.5 -11t-16.5 -4q-17 0 -25 11t-8 22t8 21 q60 84 122.5 163.5t128.5 157.5l-251 320q-4 5 -5 10.5t-1 10.5q0 11 8 21.5t24 10.5q19 0 27 -15l253 -328h111v311q0 13 9.5 22.5t23.5 9.5t24 -9.5t10 -22.5v-311h110l252 328q12 15 28 15q17 0 25 -10.5t8 -21.5q0 -5 -2.5 -10.5t-4.5 -10.5z" />
<glyph unicode="&#x417;" horiz-adv-x="530" d="M126 79q26 -17 53.5 -23.5t62.5 -6.5q42 0 72.5 12.5t51 33.5t30.5 49t10 59q0 41 -14.5 68t-39 43.5t-56.5 23.5t-67 8q-10 0 -21.5 5.5t-11.5 22.5q0 20 11.5 25.5t20.5 5.5q25 1 53.5 8t53 22t40.5 40.5t16 63.5q0 25 -7 50.5t-23 45.5t-43.5 32.5t-67.5 12.5 q-34 0 -60.5 -7.5t-48.5 -21.5q-13 -8 -21 -15t-14 -12t-11 -8.5t-11 -3.5q-11 0 -20 8t-9 22q0 16 12 25q26 29 73 50.5t112 21.5q57 0 95.5 -18t62 -46.5t33.5 -63t10 -67.5q0 -67 -33 -106t-86 -59q31 -8 56 -22.5t43 -36t27.5 -52t9.5 -70.5q0 -41 -14 -78t-42.5 -66 t-70.5 -46t-99 -17q-60 0 -106.5 16t-90.5 59q-10 10 -10 23q0 14 9 22t21 8q11 0 22 -11t37 -29z" />
<glyph unicode="&#x418;" horiz-adv-x="678" d="M150 25q0 -14 -9 -24t-23 -10q-13 0 -23 10t-10 24v682q0 13 10 22.5t23 9.5q14 0 23 -9.5t9 -22.5v-522l376 455v67q0 13 9.5 22.5t23.5 9.5t24 -9.5t10 -22.5v-682q0 -14 -10 -24t-24 -10t-23.5 10t-9.5 24v521l-376 -454v-67z" />
<glyph unicode="&#x419;" horiz-adv-x="678" d="M593 25q0 -14 -10 -24t-24 -10t-23.5 10t-9.5 24v521l-376 -454v-67q0 -14 -9 -24t-23 -10q-13 0 -23 10t-10 24v682q0 13 10 22.5t23 9.5q14 0 23 -9.5t9 -22.5v-522l376 455v67q0 13 9.5 22.5t23.5 9.5t24 -9.5t10 -22.5v-682zM486 940q-28 -49 -63.5 -72t-77.5 -23 t-77.5 23t-62.5 72q-5 8 -5 15q0 14 13 21q8 5 16 5q14 0 23 -13q22 -40 46 -54t47 -14q24 0 48 14t46 54q9 14 23 14q9 0 16 -5q12 -9 12 -22q0 -8 -4 -15z" />
<glyph unicode="&#x41a;" horiz-adv-x="594" d="M316 366q66 -78 129 -157.5t124 -163.5q7 -11 7 -21q0 -11 -8.5 -22t-25.5 -11q-16 0 -28 15q-61 86 -124 168t-127 160h-113v-309q0 -14 -9.5 -24t-23.5 -10q-13 0 -22.5 10t-9.5 24v682q0 13 9.5 22.5t22.5 9.5q14 0 23.5 -9.5t9.5 -22.5v-311h111l253 328q5 7 11.5 11 t16.5 4q17 0 25 -10.5t8 -21.5t-7 -21z" />
<glyph unicode="&#x41b;" horiz-adv-x="708" d="M13 26q0 14 9.5 23.5t23.5 9.5h14q29 0 46.5 16t27 41t12.5 53.5t3 54.5v472q0 13 9 22.5t22 9.5h412q13 0 22 -9.5t9 -22.5v-670q0 -14 -9.5 -23.5t-23.5 -9.5t-23.5 9.5t-9.5 23.5v638h-342v-442q0 -36 -6 -76.5t-23 -74.5t-47 -56t-77 -22h-16q-14 0 -23.5 9.5 t-9.5 23.5z" />
<glyph unicode="&#x41c;" horiz-adv-x="776" d="M146 23q0 -13 -8 -22.5t-22 -9.5q-13 0 -22 9.5t-9 22.5v685q0 14 9.5 22.5t23.5 8.5q13 0 20.5 -5.5t12.5 -13.5l238 -507l238 508q5 11 13.5 14.5t17.5 3.5q15 0 24 -9t9 -22v-685q0 -13 -9.5 -22.5t-22.5 -9.5t-22 9.5t-9 22.5v566l-210 -450q-10 -18 -31 -18 q-20 0 -31 20l-210 448v-566z" />
<glyph unicode="&#x41d;" horiz-adv-x="668" d="M583 24q0 -14 -9.5 -23.5t-23.5 -9.5t-24 9.5t-10 23.5v304h-366v-304q0 -14 -9.5 -23.5t-22.5 -9.5q-14 0 -23.5 9.5t-9.5 23.5v681q0 14 9.5 23.5t23.5 9.5q13 0 22.5 -9.5t9.5 -23.5v-316h366v316q0 14 10 23.5t24 9.5t23.5 -9.5t9.5 -23.5v-681z" />
<glyph unicode="&#x41e;" horiz-adv-x="626" d="M491 468q0 45 -9.5 83.5t-31.5 67.5q-21 26 -55 42t-82 16q-49 0 -82.5 -16t-54.5 -42q-22 -29 -32 -67.5t-10 -83.5v-207q0 -45 10 -83.5t32 -67.5q21 -26 54.5 -42t82.5 -16q48 0 82 16t55 42q22 29 31.5 67.5t9.5 83.5v207zM557 261q0 -51 -12.5 -99.5t-41 -86.5 t-75 -61t-115.5 -23t-116 23t-75.5 61t-41 86.5t-12.5 99.5v207q0 51 12.5 99.5t41 86.5t75.5 61t116 23t115.5 -23t75 -61t41 -86.5t12.5 -99.5v-207z" />
<glyph unicode="&#x41f;" horiz-adv-x="669" d="M584 24q0 -14 -9.5 -23.5t-23.5 -9.5t-24 9.5t-10 23.5v642h-365v-642q0 -14 -9.5 -23.5t-23.5 -9.5q-15 0 -24.5 9.5t-9.5 23.5v673q0 13 9 22t22 9h436q13 0 22.5 -9t9.5 -22v-673z" />
<glyph unicode="&#x420;" horiz-adv-x="585" d="M542 486q0 -41 -15 -75.5t-43.5 -59.5t-69 -39t-92.5 -14h-171v-274q0 -14 -9.5 -23.5t-23.5 -9.5t-23.5 9.5t-9.5 23.5v672q0 14 9.5 23.5t23.5 9.5h192q64 0 108.5 -17t72 -44t39.5 -61.5t12 -69.5v-51zM476 536q0 22 -8 45.5t-27 42.5t-52 31t-82 12h-156v-308h169 q40 0 69.5 10t48.5 27.5t28.5 41t9.5 49.5v49z" />
<glyph unicode="&#x421;" horiz-adv-x="545" d="M442 639q-24 20 -53.5 29t-65.5 9q-98 0 -143 -65t-45 -188v-119q0 -129 42.5 -191t140.5 -62q33 0 65 9.5t60 31.5q13 11 20 17t18 6q14 1 21 -9t7 -21q0 -13 -11 -24q-18 -20 -40 -34t-45.5 -22t-48 -11.5t-46.5 -3.5q-69 0 -116.5 22.5t-77 64t-43 99t-13.5 127.5v121 q0 67 14 124.5t44.5 99.5t79 65.5t117.5 23.5q48 0 94.5 -14.5t80.5 -52.5q10 -11 10 -24q0 -11 -8 -21t-24 -10q-11 -1 -17 6.5t-17 16.5z" />
<glyph unicode="&#x422;" horiz-adv-x="559" d="M312 666v-642q0 -14 -9.5 -23.5t-23.5 -9.5q-13 0 -23 9.5t-10 23.5v642h-207q-14 0 -23 8.5t-9 22.5t9 22.5t23 8.5h481q13 0 22.5 -8.5t9.5 -22.5t-9.5 -22.5t-22.5 -8.5h-208z" />
<glyph unicode="&#x423;" horiz-adv-x="513" d="M41 24q0 14 9.5 23t22.5 9h17q44 0 77.5 22.5t66.5 82.5l-232 533q-2 4 -2 12q0 14 9.5 23.5t23.5 9.5q21 0 29 -21l207 -482q23 51 47 111t47.5 123t45.5 126t40 119q8 24 32 24q13 0 23 -7.5t10 -24.5q0 -4 -2 -12q-20 -62 -45 -132t-51.5 -140t-53.5 -135.5 t-52 -119.5q-41 -88 -91.5 -132t-125.5 -44h-19q-14 0 -23.5 9t-9.5 23z" />
<glyph unicode="&#x424;" horiz-adv-x="748" d="M341 581q-63 -1 -104.5 -18t-65.5 -46q-20 -23 -28.5 -52.5t-8.5 -63.5v-73q0 -34 8.5 -63.5t28.5 -52.5q24 -29 65.5 -46t104.5 -18v433zM407 25q0 -14 -9.5 -23.5t-23.5 -9.5t-23.5 9.5t-9.5 23.5v62q-82 2 -135 24t-85 58q-29 33 -41 74t-12 83v77q0 42 12 83t41 74 q32 36 85 58t135 24v64q0 13 9.5 23t23.5 10t23.5 -10t9.5 -23v-64q83 -2 135.5 -24t84.5 -58q29 -33 41 -74t12 -83v-77q0 -42 -12 -83t-41 -74q-32 -36 -84.5 -58t-135.5 -24v-62zM407 148q63 1 105 18t65 46q20 23 28.5 52.5t8.5 63.5v73q0 34 -8.5 63.5t-28.5 52.5 q-23 29 -65 46t-105 18v-433z" />
<glyph unicode="&#x425;" horiz-adv-x="541" d="M534 24q0 -14 -10.5 -23.5t-23.5 -9.5q-17 0 -27 17q-48 81 -98 159.5t-105 156.5q-107 -154 -202 -316q-10 -17 -27 -17q-13 0 -23.5 9.5t-10.5 23.5q0 7 5 17q51 87 105.5 171.5t113.5 169.5q-53 76 -100.5 152.5t-90.5 156.5q-4 8 -4 16q0 14 10.5 23t23.5 9 q17 0 27 -17q40 -73 82.5 -143t90.5 -141q48 71 90.5 141t82.5 142q10 18 28 18q13 0 23.5 -9t10.5 -23q0 -10 -5 -17q-43 -79 -90 -155.5t-100 -153.5q58 -85 113 -169t106 -171q2 -5 3.5 -8.5t1.5 -8.5z" />
<glyph unicode="&#x426;" horiz-adv-x="671" d="M85 705q0 14 10 23.5t23 9.5q14 0 23 -9.5t9 -23.5v-642h367v642q0 14 9.5 23.5t24.5 9.5q14 0 23 -9.5t9 -23.5v-642h9q14 0 23 -9t9 -22v-195q0 -14 -9.5 -23t-22.5 -9q-14 0 -23.5 9t-9.5 23v164h-443q-12 0 -21.5 9t-9.5 22v673z" />
<glyph unicode="&#x427;" horiz-adv-x="599" d="M513 24q0 -14 -9.5 -23.5t-24.5 -9.5q-13 0 -22.5 9.5t-9.5 23.5v291q-43 -14 -90.5 -22t-86.5 -8q-103 0 -158 53.5t-55 162.5v204q0 14 9.5 23.5t23.5 9.5t23 -9.5t9 -23.5v-202q0 -79 36.5 -118.5t116.5 -39.5q45 0 89.5 8.5t82.5 21.5v330q0 14 9.5 23.5t22.5 9.5 q15 0 24.5 -9.5t9.5 -23.5v-681z" />
<glyph unicode="&#x428;" horiz-adv-x="991" d="M85 706q0 13 10 23t24 10t23.5 -10t9.5 -23v-642h311v642q0 13 9.5 23t23.5 10t23 -10t9 -23v-642h312v642q0 13 9 23t24 10q14 0 23 -10t9 -23v-674q0 -13 -8.5 -22.5t-22.5 -9.5h-757q-13 0 -22.5 9.5t-9.5 22.5v674z" />
<glyph unicode="&#x429;" horiz-adv-x="993" d="M85 706q0 13 10 23t24 10q13 0 22 -10t9 -23v-642h312v642q0 13 9.5 23t23.5 10t23.5 -10t9.5 -23v-642h311v642q0 13 9 23t23 10q15 0 24 -10t9 -23v-642h11q13 0 22 -9.5t9 -22.5v-194q0 -14 -9.5 -23t-24.5 -9q-14 0 -23 9t-9 23v162h-764q-13 0 -22 9.5t-9 22.5v674z " />
<glyph unicode="&#x42a;" horiz-adv-x="796" d="M290 0q-14 0 -23.5 9.5t-9.5 23.5v632h-215q-13 0 -22 9t-9 23q0 13 9 22.5t22 9.5h248q14 0 23.5 -9.5t9.5 -23.5v-286h159q73 0 122 -15.5t78 -41.5t41 -59.5t12 -68.5v-33q0 -42 -11 -77.5t-37 -61t-68.5 -39.5t-104.5 -14h-224zM323 350v-288h190q47 0 77.5 10 t48 27.5t24.5 42t7 54.5v26q0 61 -47 94.5t-128 33.5h-172z" />
<glyph unicode="&#x42b;" horiz-adv-x="810" d="M118 0q-14 0 -23.5 9.5t-9.5 23.5v673q0 14 9.5 23.5t23.5 9.5t24 -9.5t10 -23.5v-295h159q73 0 122 -15.5t78.5 -41.5t41.5 -59.5t12 -69.5v-33q0 -42 -11.5 -77.5t-38 -61t-69 -39.5t-104.5 -14h-224zM152 350v-288h190q47 0 77 10t47.5 28t24.5 42.5t7 53.5v26 q0 62 -46 95t-129 33h-171zM724 25q0 -14 -9.5 -24t-24.5 -10q-13 0 -22.5 10t-9.5 24v681q0 14 9.5 23.5t22.5 9.5q15 0 24.5 -9.5t9.5 -23.5v-681z" />
<glyph unicode="&#x42c;" horiz-adv-x="624" d="M117 0q-14 0 -23 9.5t-9 23.5v673q0 13 9 23t23 10t23.5 -10t9.5 -23v-295h159q73 0 122 -15.5t78.5 -41.5t41.5 -59.5t12 -69.5v-33q0 -42 -11.5 -77.5t-37.5 -61t-68 -39.5t-104 -14h-225zM150 350v-288h191q47 0 77 10t47.5 28t24.5 42.5t7 53.5v26q0 62 -46.5 95 t-127.5 33h-173z" />
<glyph unicode="&#x42d;" horiz-adv-x="589" d="M51 87q0 11 8.5 20.5t22.5 9.5q11 -1 19 -7t22 -16q29 -22 64 -31.5t71 -9.5q104 0 150 61t46 187v41h-250q-13 0 -22 9t-9 22t9 22t22 9h250v28q-1 118 -49 182t-153 64q-38 0 -70 -9.5t-56 -29.5q-12 -8 -20 -15.5t-19 -7.5q-17 1 -25 10.5t-8 20.5q0 13 11 24 q35 38 84 53t100 15q74 0 125.5 -23.5t84 -65.5t47 -99.5t14.5 -124.5v-121q0 -71 -14 -128.5t-45 -98.5t-82 -63.5t-124 -22.5q-24 0 -49.5 3.5t-50.5 11.5t-49 22t-43 34q-7 5 -9.5 11.5t-2.5 12.5z" />
<glyph unicode="&#x42e;" horiz-adv-x="902" d="M411 261q0 -43 9 -81t30 -66.5t55.5 -45t84.5 -16.5t84 16.5t55 45t30 66.5t9 81v206q0 43 -9 81t-30 66.5t-55 45t-84 16.5t-84.5 -16.5t-55.5 -45t-30 -66.5t-9 -81v-206zM85 24v680q0 14 9.5 23.5t23.5 9.5t23.5 -9.5t9.5 -23.5v-315h195v78q0 51 12 99.5t40.5 86.5 t75.5 61t116 23t115.5 -23t75 -61t41 -86.5t12.5 -99.5v-206q0 -51 -12.5 -99.5t-41 -86.5t-75 -61t-115.5 -23t-116 23t-75.5 61t-40.5 86.5t-12 99.5v66h-195v-303q0 -14 -9.5 -23.5t-23.5 -9.5t-23.5 9.5t-9.5 23.5z" />
<glyph unicode="&#x42f;" horiz-adv-x="599" d="M447 667h-156q-48 0 -80 -10.5t-51.5 -28t-27.5 -39.5t-8 -44v-44q0 -25 10.5 -50t34.5 -45q20 -15 49 -25t71 -10h158v296zM514 25q0 -15 -9.5 -24.5t-23.5 -9.5t-24 9.5t-10 24.5v286h-156q-50 -75 -93.5 -150.5t-83.5 -150.5q-10 -19 -30 -19q-13 0 -23 9t-10 23 q0 8 3 16q38 70 79 140t87 141q-38 7 -65.5 21t-47.5 34q-26 26 -38 58.5t-12 67.5v44q0 37 13 70.5t41 59t72.5 40t106.5 14.5h191q14 0 23.5 -9t9.5 -23v-672z" />
<glyph unicode="&#x430;" horiz-adv-x="490" d="M450 23q0 -14 -9 -21.5t-23 -7.5q-11 0 -24 5.5t-23 15.5q-8 7 -12.5 16t-7.5 18q-14 -17 -31 -27.5t-36 -16.5t-38 -8.5t-35 -2.5q-47 0 -80 11.5t-53.5 31t-30 45.5t-9.5 55v8q0 29 10 54.5t31 45t55 30.5t82 11h126v28q0 34 -5 59t-18 41.5t-35.5 25t-58.5 8.5 q-38 0 -63 -7.5t-45 -19.5q-5 -2 -8 -3.5t-8 -1.5q-12 0 -20 9t-8 20q0 16 14 24q28 18 63 26t78 8q53 0 87 -13t54 -38t28 -60.5t8 -81.5v-197q0 -32 6 -45t23 -20q16 -9 16 -25zM342 233h-122q-36 0 -59 -7.5t-36.5 -20t-18.5 -28.5t-5 -33v-7q0 -17 5 -33t18.5 -28.5 t36 -20t57.5 -7.5q59 0 91.5 29t32.5 89v67z" />
<glyph unicode="&#x431;" horiz-adv-x="500" d="M380 298q0 35 -8.5 63.5t-27.5 47.5q-33 33 -93 33q-35 0 -59.5 -10t-39.5 -28q-17 -19 -24.5 -46t-7.5 -60v-101q0 -36 8.5 -64t27.5 -47q30 -33 95 -33q34 0 57 9t40 27q17 19 24.5 46t7.5 62v101zM251 -9q-53 0 -90 16.5t-60 44.5t-34 65.5t-11 79.5v225q0 53 17 86.5 t44 56t59.5 38t64.5 32.5q27 14 48.5 34.5t21.5 56.5v36q0 14 9.5 22.5t23.5 8.5t23 -8.5t9 -22.5v-36q0 -53 -23.5 -83t-57 -49.5t-70.5 -36t-65 -41.5q-12 -13 -20.5 -28.5t-10.5 -35.5q22 25 51 37t71 12q52 0 88.5 -16t60 -43.5t34 -64.5t10.5 -79v-101 q0 -42 -10.5 -79.5t-34 -65.5t-60 -44.5t-88.5 -16.5z" />
<glyph unicode="&#x432;" horiz-adv-x="468" d="M135 225v-169h119q29 0 47.5 5.5t29.5 16t15 24.5t4 31v17q0 36 -27 55.5t-78 19.5h-110zM135 442v-163h92q53 0 77.5 19t24.5 53v16q0 33 -20 54t-74 21h-100zM104 0q-14 0 -23 9t-9 23v435q0 13 9 22t23 9h140q76 0 112.5 -36t36.5 -93v-16q0 -25 -11.5 -52t-43.5 -44 q43 -17 59 -47.5t16 -59.5v-18q0 -58 -35.5 -95t-121.5 -37h-152z" />
<glyph unicode="&#x433;" horiz-adv-x="398" d="M392 469q0 -13 -9 -21t-21 -8h-225v-417q0 -14 -10 -22.5t-23 -8.5q-14 0 -22.5 8.5t-8.5 22.5v444q0 13 8.5 22t22.5 9h258q12 0 21 -8.5t9 -20.5z" />
<glyph unicode="&#x434;" horiz-adv-x="589" d="M396 59v380h-201v-251q0 -56 -11.5 -85t-26.5 -44h239zM430 497q13 0 22 -8.5t9 -21.5v-408h55q13 0 22.5 -9t9.5 -22v-129q0 -14 -9.5 -23t-22.5 -9q-14 0 -23 9t-9 23v101h-408v-101q0 -14 -9 -23t-23 -9q-13 0 -22.5 9t-9.5 23v129q0 13 9.5 22t22.5 9q48 0 67.5 32 t19.5 98v278q0 13 9 21.5t22 8.5h268z" />
<glyph unicode="&#x435;" horiz-adv-x="483" d="M436 256q0 -13 -8 -20t-19 -7h-290v-30q0 -66 30 -107t98 -41q45 0 76 8.5t56 23.5q11 6 21.5 2t15.5 -15q5 -10 2 -20.5t-14 -16.5q-64 -39 -159 -39q-52 0 -88 17t-58.5 45.5t-32.5 66.5t-10 80v93q0 42 10.5 79.5t33 66t58.5 45t88 16.5q53 0 89.5 -16.5t59 -44.5 t32 -65.5t9.5 -79.5v-41zM373 303q0 66 -28 106t-99 40q-68 0 -97.5 -40.5t-29.5 -106.5v-19h254v20z" />
<glyph unicode="&#x436;" horiz-adv-x="657" d="M361 24q0 -14 -9.5 -23.5t-22.5 -9.5q-14 0 -23.5 9.5t-9.5 23.5v194h-60q-42 -51 -83 -103t-80 -109q-5 -6 -12 -10.5t-15 -4.5q-14 0 -22.5 11t-8.5 22t7 18q38 54 78.5 104.5t82.5 101.5l-161 204q-2 5 -4 9.5t-2 9.5q0 11 8 21t23 10q18 0 27 -13l162 -212h60v193 q0 14 9.5 23t23.5 9q13 0 22.5 -9t9.5 -23v-193h60l163 212q9 13 26 13q16 0 23.5 -10t7.5 -21q0 -5 -1 -9.5t-4 -9.5l-162 -204q42 -51 82.5 -101.5t79.5 -104.5q6 -8 6 -18q0 -11 -8 -22t-23 -11q-8 0 -15 4.5t-12 10.5q-39 57 -80 109t-83 103h-60v-194z" />
<glyph unicode="&#x437;" horiz-adv-x="379" d="M171 45q53 0 77 28t24 67q0 50 -31 69t-79 19q-8 0 -19 4t-11 21q0 18 11 23t18 5q18 0 36 4t33 14t24.5 25.5t9.5 38.5q0 15 -4 30.5t-14.5 28t-27.5 20t-42 7.5q-21 0 -38 -5t-31 -13q-16 -9 -23.5 -18t-19.5 -9q-11 0 -19.5 7.5t-8.5 20.5q0 11 11 21q19 21 52 35 t78 14q40 0 68 -12.5t44.5 -32.5t24 -44t7.5 -46q0 -46 -20.5 -71t-52.5 -39q38 -14 61.5 -40.5t23.5 -79.5q0 -29 -10.5 -55.5t-30.5 -46.5t-50 -32t-70 -12q-42 0 -75 11.5t-64 40.5q-8 11 -8 21q0 11 8 19t19 8t18.5 -8t25.5 -19q17 -11 34.5 -15t40.5 -4z" />
<glyph unicode="&#x438;" horiz-adv-x="529" d="M73 22v447q0 13 9 22.5t23 9.5q13 0 22.5 -9.5t9.5 -22.5v-325l254 286v39q0 13 9.5 22.5t22.5 9.5q14 0 23 -9.5t9 -22.5v-447q0 -13 -9 -22.5t-23 -9.5q-13 0 -22.5 9.5t-9.5 22.5v325l-254 -287v-38q0 -13 -9.5 -22.5t-22.5 -9.5q-14 0 -23 9.5t-9 22.5z" />
<glyph unicode="&#x439;" horiz-adv-x="529" d="M73 22v447q0 13 9.5 22.5t22.5 9.5q14 0 23 -9.5t9 -22.5v-325l255 286v39q0 13 9 22.5t23 9.5t23 -9.5t9 -22.5v-447q0 -13 -9 -22.5t-23 -9.5t-23 9.5t-9 22.5v325l-255 -287v-38q0 -13 -9 -22.5t-23 -9.5q-13 0 -22.5 9.5t-9.5 22.5zM129 719q0 14 12 22q4 3 8.5 4 t7.5 1q15 0 23 -13q23 -40 47 -54t47 -14q24 0 47.5 14t46.5 54q8 13 23 13q8 0 16 -4q12 -9 12 -23q0 -6 -4 -14q-28 -49 -63.5 -72t-77.5 -23t-77.5 23t-63.5 72q-4 8 -4 14z" />
<glyph unicode="&#x43a;" horiz-adv-x="433" d="M72 23v446q0 14 9.5 23t22.5 9q14 0 23 -9t9 -23v-194h60l164 212q9 14 26 14q16 0 23.5 -10t7.5 -21t-6 -18l-161 -205q42 -50 82.5 -101t79.5 -105q2 -4 4 -9t2 -10q0 -11 -8 -21t-24 -10q-17 0 -26 15q-40 55 -80.5 107.5t-82.5 103.5h-61v-194q0 -14 -9 -23t-23 -9 q-13 0 -22.5 9t-9.5 23z" />
<glyph unicode="&#x43b;" horiz-adv-x="533" d="M27 22q0 14 9 22.5t22 8.5h9q17 0 26.5 9t14.5 23q6 15 8 33.5t2 35.5v314q0 12 8.5 21t21.5 9h281q13 0 21.5 -9t8.5 -21v-445q0 -13 -9 -22.5t-23 -9.5q-13 0 -22 9.5t-9 22.5v417h-215v-288q0 -24 -4.5 -52t-16.5 -52.5t-34 -40.5t-57 -16h-11q-13 0 -22 9t-9 22z" />
<glyph unicode="&#x43c;" horiz-adv-x="573" d="M500 20q0 -13 -8.5 -21t-20.5 -8q-11 0 -20.5 8t-9.5 21v335l-129 -278q-10 -16 -26 -16q-18 0 -26 16l-128 275v-332q0 -13 -8.5 -21t-20.5 -8q-13 0 -21.5 8t-8.5 21v452q0 12 8.5 20.5t21.5 8.5q8 0 15 -4t11 -13l158 -334l157 334q8 17 27 17q12 0 20.5 -8.5 t8.5 -20.5v-452z" />
<glyph unicode="&#x43d;" horiz-adv-x="499" d="M426 24q0 -14 -9.5 -23.5t-23.5 -9.5q-13 0 -22 9.5t-9 23.5v208h-223v-208q0 -14 -9.5 -23.5t-23.5 -9.5q-13 0 -23 9.5t-10 23.5v446q0 13 10 22t23 9q14 0 23.5 -9t9.5 -22v-180h223v180q0 13 9 22t22 9q14 0 23.5 -9t9.5 -22v-446z" />
<glyph unicode="&#x43e;" horiz-adv-x="499" d="M380 299q0 33 -7 59.5t-23 45.5q-33 39 -100 39q-68 0 -101 -39q-30 -38 -30 -105v-101q0 -68 30 -105q33 -39 101 -39q67 0 100 39q16 19 23 45.5t7 59.5v101zM443 198q0 -42 -11 -79.5t-34 -65t-59.5 -43.5t-88.5 -16t-89 16t-60 43.5t-34 65t-11 79.5v101 q0 42 11 79.5t34 65t60 43.5t89 16t88.5 -16t59.5 -43.5t34 -65t11 -79.5v-101z" />
<glyph unicode="&#x43f;" horiz-adv-x="499" d="M394 498q13 0 22.5 -9t9.5 -22v-445q0 -14 -9.5 -22.5t-23.5 -8.5t-23 8.5t-9 22.5v417h-224v-417q0 -14 -8.5 -22.5t-22.5 -8.5q-13 0 -23 8.5t-10 22.5v445q0 13 9 22t22 9h290z" />
<glyph unicode="&#x440;" horiz-adv-x="507" d="M452 211q0 -47 -9.5 -87t-30.5 -69t-55 -45t-82 -16q-28 0 -61.5 9.5t-65.5 33.5v-188q0 -14 -9 -23t-23 -9q-13 0 -22.5 9t-9.5 23v536q0 32 -6.5 44.5t-22.5 20.5q-16 10 -16 25q0 14 9 21t23 7q10 0 23 -5t25 -15q10 -10 17 -26q32 23 66.5 34.5t67.5 11.5 q98 0 140 -51.5t42 -144.5v-96zM388 310q0 68 -27.5 102.5t-96.5 34.5q-26 0 -56.5 -11.5t-59.5 -37.5v-294q29 -30 62 -41t57 -11q64 0 92.5 40t28.5 113v105z" />
<glyph unicode="&#x441;" horiz-adv-x="415" d="M118 209q0 -76 32.5 -118t98.5 -42q26 0 49 5t46 17q13 6 23.5 2t15.5 -14q5 -11 1.5 -21.5t-14.5 -17.5q-29 -15 -60.5 -22t-62.5 -7q-50 0 -86.5 16.5t-59.5 46t-34 69.5t-11 88v69q0 45 11.5 85t35.5 70t60 48t84 18q32 0 64 -6.5t58 -23.5q12 -6 15 -17t-4 -21 q-5 -10 -15 -13t-22 2q-21 11 -43 16t-50 5q-63 0 -97.5 -44t-34.5 -116v-74z" />
<glyph unicode="&#x442;" horiz-adv-x="393" d="M360 498q11 1 19.5 -8.5t8.5 -21.5q0 -11 -8.5 -19.5t-19.5 -8.5h-132v-418q0 -14 -9.5 -22.5t-23.5 -8.5q-13 0 -22 8.5t-9 22.5v418h-131q-12 0 -20 8.5t-8 19.5q0 12 8 21t20 9h327z" />
<glyph unicode="&#x443;" horiz-adv-x="456" d="M297 68q-21 -61 -45 -108t-53 -78.5t-65 -48t-82 -16.5q-17 0 -24.5 10t-7.5 21t7.5 21t22.5 11q23 0 43.5 5.5t39.5 19t36.5 35.5t34.5 56q-53 131 -97.5 250t-76.5 218q-2 8 -2 10q0 14 10 21.5t23 7.5q8 0 16 -5t12 -16q29 -88 65.5 -189.5t81.5 -216.5l139 406 q4 12 12.5 16.5t16.5 4.5q13 0 23 -8t10 -22q0 -2 -2 -12z" />
<glyph unicode="&#x444;" horiz-adv-x="752" d="M56 299q0 42 9 79t29.5 64.5t52.5 44t78 16.5q43 0 72 -15t47 -40v139q0 13 9 22.5t23 9.5t23.5 -9.5t9.5 -22.5v-139q18 25 47 40t71 15q46 0 78.5 -16.5t52.5 -44t29.5 -64.5t9.5 -79v-104q0 -43 -10 -80t-30.5 -64.5t-52.5 -43t-77 -15.5q-42 0 -71 14t-47 38v-197 q0 -13 -9.5 -22.5t-23.5 -9.5t-23 9.5t-9 22.5v197q-18 -24 -47 -38t-72 -14q-45 0 -77.5 15.5t-52.5 43t-29.5 64.5t-9.5 80v104zM344 298q0 65 -26.5 104.5t-86.5 39.5t-86 -39.5t-26 -104.5v-103q0 -29 5.5 -55t19 -45.5t34.5 -30.5t53 -11t53.5 11t35 30.5t19 45.5 t5.5 56v102zM520 53q32 0 54 11t35 30.5t18.5 45t5.5 55.5v103q0 65 -26 104.5t-87 39.5q-60 0 -86 -39.5t-26 -104.5v-102q0 -30 6 -56t19 -45.5t34.5 -30.5t52.5 -11z" />
<glyph unicode="&#x445;" horiz-adv-x="424" d="M404 25q0 -14 -10.5 -23t-23.5 -9q-17 0 -27 18q-26 50 -58.5 95t-74.5 100q-36 -48 -70 -96t-61 -100q-10 -17 -27 -17q-12 0 -22 8t-10 22q0 4 0.5 7.5t2.5 7.5q31 58 70 112t81 106q-38 48 -73.5 98t-63.5 104q-4 7 -4 15q0 13 11 21.5t23 8.5q19 0 28 -17 q25 -48 55 -91.5t62 -86.5q32 44 62.5 87.5t55.5 91.5q5 8 12 12t15 4q12 0 22 -8t10 -20q0 -7 -4 -15q-27 -54 -62 -104t-72 -98q48 -62 84.5 -113t65.5 -105q2 -4 2.5 -7.5t0.5 -7.5z" />
<glyph unicode="&#x446;" horiz-adv-x="526" d="M74 31v439q0 13 9 22.5t23 9.5q13 0 22 -9.5t9 -22.5v-411h243v411q0 13 9.5 22.5t22.5 9.5q14 0 23 -9.5t9 -22.5v-411h8q14 0 23 -9t9 -23v-128q0 -14 -9 -23t-23 -9q-13 0 -22.5 9t-9.5 23v101h-316q-13 0 -21.5 9t-8.5 22z" />
<glyph unicode="&#x447;" horiz-adv-x="486" d="M71 337v133q0 13 9 22.5t23 9.5q13 0 22.5 -9.5t9.5 -22.5v-130q0 -29 7.5 -48.5t21 -31t32 -16t39.5 -4.5q29 0 57.5 5t55.5 13v212q0 13 9.5 22.5t22.5 9.5q14 0 23 -9.5t9 -22.5v-447q0 -13 -9 -22.5t-23 -9.5q-13 0 -22.5 9.5t-9.5 22.5v176q-28 -8 -58 -12.5 t-59 -4.5q-76 0 -118 36.5t-42 118.5z" />
<glyph unicode="&#x448;" horiz-adv-x="796" d="M104 1q-13 0 -22 9t-9 21v439q0 14 9 22.5t22 8.5q14 0 23.5 -8.5t9.5 -22.5v-410h228v410q0 14 9.5 22.5t23.5 8.5q13 0 22.5 -8.5t9.5 -22.5v-410h229v410q0 14 8.5 22.5t22.5 8.5q13 0 22.5 -8.5t9.5 -22.5v-439q0 -12 -8.5 -21t-21.5 -9h-588z" />
<glyph unicode="&#x449;" horiz-adv-x="804" d="M72 31v439q0 13 9 22.5t23 9.5q13 0 22.5 -9.5t9.5 -22.5v-411h228v411q0 13 9.5 22.5t22.5 9.5q14 0 23 -9.5t9 -22.5v-411h229v411q0 13 9 22.5t23 9.5t23 -9.5t9 -22.5v-411h8q14 0 23 -9t9 -23v-128q0 -14 -9 -23t-23 -9t-23 9t-9 23v101h-595q-13 0 -21.5 9t-8.5 22 z" />
<glyph unicode="&#x44a;" horiz-adv-x="576" d="M29 497h185q13 0 21.5 -8.5t8.5 -21.5v-177h98q50 0 84.5 -11t55.5 -29t30 -42t9 -50v-22q0 -30 -8.5 -55t-27 -43t-48.5 -28t-73 -10h-152q-12 0 -21.5 8.5t-9.5 22.5v408h-152q-11 0 -20 8.5t-9 21.5q0 11 9 19.5t20 8.5zM244 59h119q29 0 47.5 5.5t29 16t14 25 t3.5 32.5v18q0 35 -27 55.5t-79 20.5h-107v-173z" />
<glyph unicode="&#x44b;" horiz-adv-x="631" d="M136 58h120q29 0 47.5 6t29 16.5t14.5 25t4 32.5v18q0 36 -27.5 55.5t-80.5 19.5h-107v-173zM73 469q0 14 9 22.5t23 8.5t22.5 -8.5t8.5 -22.5v-178h99q50 0 84.5 -11t55.5 -29.5t30 -42.5t9 -50v-22q0 -61 -35.5 -98.5t-122.5 -37.5h-151q-13 0 -22.5 8.5t-9.5 22.5v438 zM558 23q0 -14 -9 -23.5t-23 -9.5q-13 0 -22 9.5t-9 23.5v446q0 14 9 22.5t22 8.5q14 0 23 -8.5t9 -22.5v-446z" />
<glyph unicode="&#x44c;" horiz-adv-x="470" d="M136 58h119q29 0 47.5 6t29 16.5t14.5 25t4 32.5v18q0 36 -27.5 55.5t-78.5 19.5h-108v-173zM73 469q0 14 9 22.5t23 8.5t22.5 -8.5t8.5 -22.5v-178h98q50 0 84.5 -11t55.5 -29.5t30.5 -42.5t9.5 -50v-22q0 -61 -36 -98.5t-122 -37.5h-151q-14 0 -23 8.5t-9 22.5v438z " />
<glyph unicode="&#x44d;" horiz-adv-x="458" d="M338 301q0 66 -29 105.5t-98 39.5q-45 0 -75 -8.5t-54 -23.5q-11 -6 -22 -2t-16 15q-5 10 -2.5 21t13.5 16q35 20 73 29.5t84 9.5q52 0 88 -17t59 -45.5t33.5 -66t10.5 -79.5v-93q0 -42 -10.5 -80.5t-33.5 -67t-59.5 -45.5t-87.5 -17q-46 0 -85.5 10.5t-71.5 30.5 q-11 7 -13.5 17t2.5 21q4 10 14.5 14.5t21.5 -2.5q26 -14 55.5 -23t74.5 -9q68 0 98 40.5t30 106.5v32h-154q-11 0 -18.5 7t-7.5 18t7.5 19t18.5 8h154v19z" />
<glyph unicode="&#x44e;" horiz-adv-x="706" d="M325 195q0 -65 30 -104.5t101 -39.5q70 0 100 39t30 105v101q0 66 -30 105t-100 39q-71 0 -101 -39.5t-30 -104.5v-101zM74 469q0 13 9.5 22.5t22.5 9.5q14 0 23 -9.5t9 -22.5v-180h124v16q1 42 13 77.5t36 62t59.5 41.5t85.5 15q52 0 89 -16t60 -44t34 -65t11 -79v-102 q0 -42 -11 -79t-34 -65t-60 -44t-89 -16q-51 0 -87.5 15.5t-60 42.5t-35 63.5t-11.5 78.5v40h-124v-208q0 -14 -9 -23t-23 -9q-13 0 -22.5 9t-9.5 23v446z" />
<glyph unicode="&#x44f;" horiz-adv-x="455" d="M318 260v182h-100q-30 0 -49 -7t-30.5 -18t-16 -24t-4.5 -25v-30q0 -13 4.5 -26.5t16 -25t31 -19t48.5 -7.5h100zM382 23q0 -14 -9.5 -22.5t-23.5 -8.5q-13 0 -22 8.5t-9 22.5v184h-95q-31 -48 -59.5 -99t-51.5 -98q-5 -10 -13 -14t-18 -4q-12 0 -21.5 7.5t-9.5 20.5 q0 8 2.5 14t7.5 15q22 39 46.5 81.5t50.5 82.5q-54 13 -77.5 49t-23.5 79v29q0 24 9 47t28 41t49.5 29t74.5 11h132q14 0 23.5 -9t9.5 -22v-444z" />
<glyph unicode="&#x451;" horiz-adv-x="488" d="M438 256q0 -13 -7.5 -20t-18.5 -7h-290v-30q0 -66 30 -107t98 -41q45 0 76 8.5t55 23.5q11 6 22 2t16 -15q5 -10 2 -20.5t-14 -16.5q-64 -39 -159 -39q-52 0 -88 17t-58.5 45.5t-33 66.5t-10.5 80v93q0 42 10.5 79.5t33 66t58.5 45t88 16.5q54 0 90 -16.5t58.5 -44.5 t32 -65.5t9.5 -79.5v-41zM375 303q0 66 -27.5 106t-98.5 40q-68 0 -97.5 -40.5t-29.5 -106.5v-19h253v20zM383 688q0 -20 -14 -34t-34 -14q-21 0 -35 14t-14 34t14 34.5t35 14.5q20 0 34 -14.5t14 -34.5zM210 688q0 -20 -14.5 -34t-34.5 -14t-34.5 14t-14.5 34t14.5 34.5 t34.5 14.5t34.5 -14.5t14.5 -34.5z" />
<glyph unicode="&#x452;" horiz-adv-x="539" d="M81 23v540h-35q-12 0 -20.5 8.5t-8.5 20.5q0 11 8.5 19.5t20.5 8.5h35v70q0 14 9 23t23 9t23 -9t9 -23v-70h100q12 0 20.5 -8.5t8.5 -19.5q0 -12 -8.5 -20.5t-20.5 -8.5h-100v-154q26 26 65 39.5t84 13.5q50 0 83 -13.5t53 -37.5t28 -57t8 -72v-332q0 -60 -29.5 -93 t-83.5 -33h-170q-12 0 -20.5 8.5t-8.5 20.5t8.5 20.5t20.5 8.5h160q29 0 44.5 17t15.5 53v326q0 58 -25 90.5t-93 32.5q-46 0 -82.5 -16.5t-57.5 -48.5v-313q0 -13 -9 -22.5t-23 -9.5t-23 9.5t-9 22.5z" />
<glyph unicode="&#x453;" horiz-adv-x="396" d="M71 23v443q0 14 9 23t23 9h257q13 0 21.5 -8.5t8.5 -20.5t-8.5 -20.5t-21.5 -8.5h-225v-417q0 -13 -9.5 -22.5t-22.5 -9.5q-14 0 -23 9.5t-9 22.5zM205 620q0 5 1.5 9t3.5 7l81 147q4 8 10.5 13t17.5 5q15 0 23 -9t8 -21q0 -9 -6 -16l-86 -145q-5 -9 -12 -12t-14 -3 q-12 0 -19.5 7.5t-7.5 17.5z" />
<glyph unicode="&#x454;" horiz-adv-x="456" d="M55 200v93q0 42 10.5 79.5t33 66t58.5 45.5t88 17q47 0 84.5 -9.5t71.5 -29.5q15 -8 15 -23q0 -9 -3 -15q-8 -15 -25 -15q-7 0 -13 3q-25 15 -54.5 24t-74.5 9q-69 0 -98.5 -40t-29.5 -106v-19h154q11 0 19 -8t8 -19t-8 -18.5t-19 -7.5h-154v-31q0 -66 30 -106.5 t98 -40.5q45 0 75 9t55 24q6 3 13 3q8 0 14.5 -4t9.5 -12t3 -14q0 -15 -14 -23q-33 -20 -71.5 -30.5t-85.5 -10.5q-52 0 -88 17t-58.5 45.5t-33 66.5t-10.5 80z" />
<glyph unicode="&#x455;" horiz-adv-x="426" d="M383 143q0 -73 -49 -111t-132 -38q-48 0 -79.5 5.5t-60.5 16.5q-13 5 -17 16t0 22q5 11 15.5 16t22.5 0q24 -9 50.5 -14t68.5 -5q63 0 91 25t28 65q0 26 -12 41t-32 24t-45.5 13.5t-52.5 10.5q-25 6 -49 14t-43 22t-30.5 37t-11.5 58q0 34 12.5 60.5t34.5 44.5t52 27.5 t65 9.5q39 0 67.5 -4.5t56.5 -16.5q14 -5 17.5 -16.5t-1.5 -22.5q-4 -10 -14 -15t-22 0q-25 10 -47.5 14.5t-54.5 4.5q-51 0 -77.5 -23.5t-26.5 -60.5q0 -23 10.5 -37.5t28.5 -23t41.5 -13.5t48.5 -10q27 -6 53.5 -13.5t47 -22t33.5 -38.5t13 -62z" />
<glyph unicode="&#x456;" horiz-adv-x="210" d="M144 671q0 -17 -11.5 -28t-27.5 -11q-17 0 -28 11t-11 28q0 16 11 27.5t28 11.5q16 0 27.5 -11.5t11.5 -27.5zM137 26q0 -14 -9.5 -23t-22.5 -9q-14 0 -23 9t-9 23v446q0 13 9 22.5t23 9.5q13 0 22.5 -9.5t9.5 -22.5v-446z" />
<glyph unicode="&#x457;" horiz-adv-x="210" d="M137 26q0 -14 -9.5 -23t-22.5 -9q-14 0 -23 9t-9 23v445q0 14 9 23t23 9q13 0 22.5 -9t9.5 -23v-445zM241 688q0 -20 -14 -34t-34 -14q-21 0 -35 14t-14 34t14 34.5t35 14.5q20 0 34 -14.5t14 -34.5zM68 688q0 -20 -14.5 -34t-34.5 -14t-34 14t-14 34t14 34.5t34 14.5 t34.5 -14.5t14.5 -34.5z" />
<glyph unicode="&#x458;" horiz-adv-x="210" d="M144 671q0 -17 -11.5 -28t-27.5 -11q-17 0 -28 11t-11 28q0 16 11 27.5t28 11.5q16 0 27.5 -11.5t11.5 -27.5zM137 -9q0 -89 -37 -131.5t-114 -42.5q-14 0 -21.5 9t-7.5 20t7.5 19.5t21.5 9.5q21 0 37.5 5.5t27.5 18.5t16.5 35t5.5 55v483q0 13 9 22.5t23 9.5t23 -9.5 t9 -22.5v-481z" />
<glyph unicode="&#x459;" horiz-adv-x="794" d="M461 59h119q29 0 47.5 5.5t29 16t14.5 25.5t4 33v17q0 36 -28 56t-79 20h-107v-173zM60 54h8q17 0 27 8.5t15 22.5q6 16 7.5 34t1.5 35v314q0 11 9 20.5t22 9.5h280q13 0 22 -9.5t9 -20.5v-177h97q51 0 85.5 -11t55.5 -29.5t30 -42.5t9 -50v-21q0 -62 -36 -99.5 t-122 -37.5h-150q-14 0 -23.5 9t-9.5 22v409h-214v-287q0 -24 -4.5 -52t-16.5 -52.5t-34 -41t-58 -16.5h-10q-13 0 -22.5 9.5t-9.5 22.5t9.5 22t22.5 9z" />
<glyph unicode="&#x45a;" horiz-adv-x="757" d="M424 59h119q29 0 47.5 5.5t29 16t14.5 25.5t4 33v17q0 36 -28 55.5t-79 19.5h-107v-172zM136 291h224v178q0 14 9.5 23.5t23.5 9.5q13 0 22 -9.5t9 -23.5v-178h98q50 0 84 -11t55 -29.5t30.5 -42.5t9.5 -50v-21q0 -61 -36 -99t-122 -38h-150q-14 0 -23.5 9t-9.5 23v199 h-224v-208q0 -14 -9 -22.5t-22 -8.5q-14 0 -23 8.5t-9 22.5v446q0 14 9 23.5t23 9.5q13 0 22 -9.5t9 -23.5v-178z" />
<glyph unicode="&#x45b;" horiz-adv-x="536" d="M78 23v539h-36q-12 0 -20 8.5t-8 20.5t8 20.5t20 8.5h36v70q0 13 9 22.5t22 9.5q14 0 23 -9.5t9 -22.5v-70h101q12 0 20.5 -8.5t8.5 -20.5t-8.5 -20.5t-20.5 -8.5h-101v-154q27 26 66 39.5t84 13.5q50 0 83 -13.5t53 -37t28 -56.5t8 -72v-259q0 -14 -9 -23t-23 -9t-23 9 t-9 23v255q0 57 -24.5 89.5t-92.5 32.5q-47 0 -83 -16.5t-58 -48.5v-312q0 -14 -9 -23t-23 -9q-13 0 -22 9t-9 23z" />
<glyph unicode="&#x45c;" horiz-adv-x="452" d="M72 22v447q0 13 9.5 22.5t22.5 9.5q14 0 23 -9.5t9 -22.5v-195h80l164 212q10 14 26 14t23.5 -10t7.5 -21q0 -12 -6 -19l-161 -204q42 -50 82.5 -101t79.5 -105q2 -4 4 -8.5t2 -9.5q0 -11 -8 -21.5t-24 -10.5q-17 0 -26 15q-40 55 -80.5 107.5t-82.5 103.5h-81v-194 q0 -6 -9 -18.5t-23 -12.5q-13 0 -22.5 9t-9.5 22zM193 620q0 5 1.5 8.5t3.5 6.5l81 147q4 8 10.5 13.5t17.5 5.5q15 0 23 -9.5t8 -20.5q0 -8 -6 -17l-86 -145q-10 -15 -26 -15q-12 0 -19.5 8t-7.5 18z" />
<glyph unicode="&#x45e;" horiz-adv-x="456" d="M377 707q-28 -49 -63.5 -72t-77.5 -23t-77.5 23t-63.5 72q-4 7 -4 15q0 14 12 21q8 5 16 5q6 0 12 -3t11 -11q22 -39 46 -53t48 -14q23 0 47 14t47 53q7 15 22 15q5 0 9 -2l8 -4q12 -7 12 -21q0 -8 -4 -15zM297 68q-21 -61 -45 -108t-53 -78.5t-65 -48t-82 -16.5 q-17 0 -24.5 10t-7.5 21t7.5 21t22.5 11q23 0 43.5 5.5t39.5 19t36.5 35.5t34.5 56q-53 131 -97.5 250t-76.5 218q-2 8 -2 10q0 14 10 21.5t23 7.5q8 0 16 -5t12 -16q29 -88 65.5 -189.5t81.5 -216.5l139 406q4 12 12.5 16.5t16.5 4.5q13 0 23 -8t10 -22q0 -2 -2 -12z" />
<glyph unicode="&#x45f;" horiz-adv-x="500" d="M73 30v439q0 14 9 23t23 9t23 -9t9 -23v-411h224v411q0 14 9 23t23 9q13 0 22.5 -9t9.5 -23v-439q0 -12 -9 -21t-22 -9h-113v-102q0 -13 -9 -22.5t-23 -9.5t-23 9.5t-9 22.5v102h-113q-13 0 -22 9t-9 21z" />
<glyph unicode="&#x490;" horiz-adv-x="514" d="M476 729q14 0 23 -9.5t9 -22.5t-9 -22.5t-23 -9.5h-326v-640q0 -14 -9 -24t-24 -10q-14 0 -23 10t-9 24v672q0 13 9.5 22.5t23.5 9.5h296l97 176q4 7 10.5 11.5t16.5 4.5q13 0 21.5 -9t8.5 -21q0 -7 -4 -15z" />
<glyph unicode="&#x491;" horiz-adv-x="398" d="M362 498q12 0 21 -8.5t9 -20.5q0 -13 -9 -21t-21 -8h-225v-417q0 -14 -10 -22.5t-23 -8.5q-14 0 -22.5 8.5t-8.5 22.5v444q0 13 8.5 22t22.5 9h197l97 177q4 7 11 11.5t15 4.5q15 0 23.5 -9t8.5 -21q0 -7 -5 -14z" />
<glyph unicode="&#x2013;" horiz-adv-x="500" d="M500 272q0 -13 -9 -22t-22 -9h-438q-13 0 -22 9t-9 22t9 21.5t22 8.5h438q13 0 22 -8.5t9 -21.5z" />
<glyph unicode="&#x2014;" horiz-adv-x="1000" d="M1000 272q0 -13 -9 -22t-22 -9h-938q-13 0 -22 9t-9 22t9 21.5t22 8.5h938q13 0 22 -8.5t9 -21.5z" />
<glyph unicode="&#x2018;" horiz-adv-x="181" d="M139 617q1 -20 -13 -34t-34 -14q-23 0 -36.5 15.5t-13.5 41.5t9 47t22 36t26 23t21 8q7 0 12 -4.5t5 -12.5q0 -7 -4.5 -11.5t-10.5 -10t-12 -14.5t-8 -25q17 -4 27 -16t10 -29z" />
<glyph unicode="&#x2019;" horiz-adv-x="181" d="M139 684q0 -26 -9 -47t-22 -36t-26 -23.5t-20 -8.5q-8 0 -13 5t-5 12t5 12t11 10.5t12 14t8 24.5q-17 4 -27.5 16.5t-10.5 29.5q0 20 14 33.5t34 13.5q22 1 35.5 -14.5t13.5 -41.5z" />
<glyph unicode="&#x201c;" horiz-adv-x="330" d="M288 617q0 -20 -14 -34t-34 -14q-22 0 -35.5 15.5t-14.5 41.5q0 26 9.5 47t22 36t26 23t20.5 8t12.5 -4.5t5.5 -12.5q0 -7 -5 -11.5t-11 -10t-12 -14.5t-8 -25q17 -4 27 -16t11 -29zM139 617q1 -20 -13 -34t-34 -14q-23 0 -36.5 15.5t-13.5 41.5t9 47t22 36t26 23t21 8 q7 0 12 -4.5t5 -12.5q0 -7 -4.5 -11.5t-10.5 -10t-12 -14.5t-8 -25q17 -4 27 -16t10 -29z" />
<glyph unicode="&#x201d;" horiz-adv-x="330" d="M288 684q0 -26 -9.5 -47t-22 -36t-26 -23.5t-20.5 -8.5t-12 5t-6 12q0 7 5 12t11 10.5t12 14t8 24.5q-17 4 -27 16.5t-11 29.5q0 20 14 33.5t34 13.5q23 1 36 -14.5t14 -41.5zM139 684q0 -26 -9 -47t-22 -36t-26 -23.5t-20 -8.5q-8 0 -13 5t-5 12t5 12t11 10.5t12 14 t8 24.5q-17 4 -27.5 16.5t-10.5 29.5q0 20 14 33.5t34 13.5q22 1 35.5 -14.5t13.5 -41.5z" />
<glyph unicode="&#x201e;" horiz-adv-x="329" d="M287 29q0 -26 -9.5 -47t-22.5 -35.5t-26.5 -22.5t-20.5 -8t-12 4.5t-5 12.5q0 7 5 11.5t11 10.5t12 14.5t8 24.5q-17 4 -27 16.5t-10 29.5q0 20 14 33.5t34 13.5q23 0 36 -16t13 -42zM139 29q0 -26 -9.5 -47t-22.5 -35.5t-26.5 -22.5t-20.5 -8t-12 4.5t-5 12.5 q0 7 5 11.5t11 10.5t12 14.5t8 24.5q-17 4 -27 16.5t-10 29.5q0 20 14 33.5t34 13.5q23 0 36 -16t13 -42z" />
<glyph unicode="&#x2020;" horiz-adv-x="518" d="M473 486q0 -13 -8.5 -21t-20.5 -8h-152v-433q0 -14 -9.5 -23.5t-23.5 -9.5t-23.5 9.5t-9.5 23.5v433h-152q-12 0 -20.5 8t-8.5 21q0 11 8.5 20t20.5 9h152v190q0 14 9.5 23.5t23.5 9.5t23.5 -9.5t9.5 -23.5v-190h152q12 0 20.5 -9t8.5 -20z" />
<glyph unicode="&#x2022;" horiz-adv-x="499" d="M399 335q0 -36 -13.5 -67t-37 -54.5t-54.5 -37t-67 -13.5t-67 13.5t-54.5 37t-37 54.5t-13.5 67t13.5 67t37 54.5t54.5 37t67 13.5t67 -13.5t54.5 -37t37 -54.5t13.5 -67z" />
<glyph unicode="&#x2026;" horiz-adv-x="674" d="M606 39q0 -20 -14 -34t-34 -14t-34 14t-14 34t14 34t34 14t34 -14t14 -34zM381 39q0 -20 -14 -34t-34 -14t-34 14t-14 34t14 34t34 14t34 -14t14 -34zM156 39q0 -20 -14 -34t-34 -14t-34 14t-14 34t14 34t34 14t34 -14t14 -34z" />
<glyph unicode="&#x20ac;" horiz-adv-x="589" d="M547 86q0 -11 -11 -24q-18 -20 -40 -33.5t-46 -22t-48.5 -12t-46.5 -3.5q-63 0 -108 19t-74.5 54t-45 84t-19.5 110h-35q-11 0 -19 8t-8 19t8 19t19 8h34v103h-34q-11 0 -19 7.5t-8 18.5t8 19t19 8h35q4 59 20.5 108.5t47 85.5t76.5 56t110 20q47 0 93.5 -15t78.5 -53 q11 -11 11 -24q0 -11 -7.5 -20.5t-23.5 -10.5q-11 0 -17.5 7t-17.5 17q-23 21 -52.5 29.5t-64.5 8.5q-90 0 -135.5 -54.5t-51.5 -154.5h211q11 0 19 -8t8 -19t-8 -18.5t-19 -7.5h-213v-103h213q11 0 19 -8t8 -19t-8 -19t-19 -8h-211q6 -105 49 -155.5t131 -50.5 q33 0 65.5 9.5t59.5 31.5q13 10 20 16.5t18 6.5q14 2 21.5 -8.5t7.5 -21.5z" />
<glyph unicode="&#x2116;" horiz-adv-x="1167" d="M907 279q36 0 62 9t43 26q19 19 27.5 47t8.5 61v116q0 33 -8.5 61t-27.5 46q-17 17 -43 26.5t-62 9.5q-68 0 -104 -36q-19 -18 -27.5 -46t-8.5 -61v-116q0 -33 8.5 -61t27.5 -47q17 -17 43 -26t61 -9zM907 223q-55 0 -93.5 16t-63 43t-35.5 63t-11 77v117q0 41 11 77 t35.5 63t63 42.5t93.5 15.5t94 -15.5t63.5 -42.5t35.5 -63t11 -77v-117q0 -41 -11 -77t-35.5 -63t-63.5 -43t-94 -16zM1083 58q12 0 20.5 -8t8.5 -20q0 -13 -8.5 -21.5t-20.5 -8.5h-351q-12 0 -20 8.5t-8 21.5q0 12 8 20t20 8h351zM581 22q0 -12 -8.5 -21.5t-25.5 -9.5 q-9 0 -17.5 4t-13.5 13l-369 595v-581q0 -13 -9 -22t-22 -9t-22 9t-9 22v685q0 13 9 22t24 9q21 0 33 -19l368 -594v582q0 13 9 22t22 9t22 -9t9 -22v-685z" />
<glyph unicode="&#x2122;" horiz-adv-x="676" d="M616 384q0 -9 -7 -15.5t-16 -6.5t-15.5 6.5t-6.5 15.5v223l-82 -173q-6 -14 -21 -14t-22 15l-80 172v-223q0 -9 -7 -15.5t-16 -6.5t-15.5 6.5t-6.5 15.5v311q0 10 6.5 16.5t16.5 6.5q15 0 23 -15l102 -215l101 216q8 14 23 14q9 0 16 -6.5t7 -16.5v-311zM294 691 q0 -10 -7 -17t-16 -7h-85v-281q0 -11 -7 -17.5t-17 -6.5t-16.5 6.5t-6.5 17.5v281h-86q-10 0 -16.5 7t-6.5 17q0 9 6.5 16t16.5 7h218q9 0 16 -7t7 -16z" />
<glyph unicode="&#x2206;" horiz-adv-x="567" d="M548 40q5 -18 -6.5 -29t-26.5 -11h-465q-14 0 -25 10.5t-6 29.5q46 178 101.5 340t121.5 320q10 24 20 30.5t21 6.5t21.5 -6.5t20.5 -30.5q66 -158 121 -320t102 -340zM475 60q-38 142 -85 280.5t-107 289.5q-60 -148 -108 -290t-85 -280h385z" />
<glyph unicode="&#x2212;" horiz-adv-x="524" d="M467 272q0 -12 -9 -21t-22 -9h-348q-13 0 -22 9t-9 21q0 13 9 22t22 9h348q13 0 22 -9t9 -22z" />
<glyph unicode="&#x221a;" horiz-adv-x="826" d="M375 -36q-9 -17 -27 -17q-16 0 -27 14l-148 217h-92q-13 0 -22 8.5t-9 21.5t9 22t22 9h105q19 0 29 -14l130 -188l375 706q6 11 18.5 15t23.5 -2t14.5 -18t-2.5 -23z" />
<glyph unicode="&#x221e;" horiz-adv-x="773" d="M717 289q0 -30 -9.5 -58.5t-29.5 -50.5t-51.5 -35.5t-74.5 -13.5q-32 0 -56.5 10.5t-44.5 28t-35.5 40.5t-29.5 47q-14 -24 -29.5 -47t-35 -40.5t-44 -28t-56.5 -10.5q-44 0 -75 13.5t-51 35.5t-29.5 50.5t-9.5 58.5v55q0 30 9.5 58.5t29.5 50.5t51 35.5t75 13.5 q32 0 56.5 -10.5t44 -28t35 -40.5t29.5 -48q14 25 29.5 48t35.5 40.5t44.5 28t56.5 10.5q43 0 74.5 -13.5t51.5 -35.5t29.5 -50.5t9.5 -58.5v-55zM661 338q0 21 -5.5 41t-18 35t-33.5 24.5t-52 9.5q-24 0 -42.5 -9t-34 -26t-29.5 -41.5t-29 -55.5q15 -31 29 -55t29.5 -41 t34 -26t42.5 -9q31 0 52 9.5t33.5 24.5t18 35t5.5 41v43zM356 316q-15 31 -29 55.5t-29.5 41.5t-34 26t-42.5 9q-31 0 -52 -9.5t-33.5 -24.5t-18 -35t-5.5 -41v-43q0 -21 5.5 -41t18 -35t33.5 -24.5t52 -9.5q24 0 42.5 9t34 26t29.5 41t29 55z" />
<glyph unicode="&#x2248;" horiz-adv-x="576" d="M476 391q0 -13 -9 -24.5t-24 -20t-34.5 -13.5t-40.5 -5q-26 0 -46 7t-37 15t-34 15t-38 7q-19 0 -30 -4.5t-19 -10t-14.5 -10t-16.5 -4.5q-14 0 -23.5 10t-9.5 24q0 13 9 24.5t24 19.5t34.5 13t40.5 5q26 0 46 -7t37.5 -15t34.5 -15t37 -7q19 0 30 4.5t18.5 10.5 t14.5 10.5t17 4.5q14 0 23.5 -10t9.5 -24zM476 227q0 -14 -9 -25t-24 -19.5t-34.5 -13t-40.5 -4.5q-26 0 -46 6.5t-37 15t-34 15t-38 6.5q-19 0 -30 -4.5t-19 -10t-14.5 -10t-16.5 -4.5q-14 0 -23.5 10t-9.5 23t9 25t24 20.5t34.5 13.5t40.5 5q26 0 46 -7t37.5 -15t34.5 -15 t37 -7q19 0 30 4.5t18.5 9.5t14.5 9.5t17 4.5q14 0 23.5 -9.5t9.5 -23.5z" />
<glyph unicode="&#x2260;" horiz-adv-x="545" d="M480 186q0 -13 -9 -22t-22 -9h-198l-50 -111q-5 -11 -16 -15.5t-22 0.5t-15.5 16t0.5 22l40 88h-92q-13 0 -22 9t-9 22t9 21.5t22 8.5h119l52 118h-171q-13 0 -22 9t-9 22q0 12 9 21t22 9h198l50 112q5 11 16 15t22 -1t15.5 -16t-0.5 -22l-40 -88h92q13 0 22 -9t9 -21 q0 -13 -9 -22t-22 -9h-119l-53 -118h172q13 0 22 -8.5t9 -21.5z" />
<glyph unicode="&#x2264;" horiz-adv-x="540" d="M476 141q-8 -15 -26 -15q-8 0 -14 3l-360 192q-15 7 -15 26q0 16 15 26l360 191q6 3 14 3q16 0 26 -15q3 -6 3 -13q0 -19 -15 -27l-312 -165l312 -166q15 -10 15 -26q0 -7 -3 -14zM479 30q0 -13 -8.5 -21.5t-21.5 -8.5h-358q-13 0 -21.5 8.5t-8.5 21.5q0 12 8.5 21 t21.5 9h358q13 0 21.5 -9t8.5 -21z" />
<glyph unicode="&#x2265;" horiz-adv-x="540" d="M479 347q0 -19 -15 -26l-360 -192q-6 -3 -14 -3q-19 0 -26 15q-3 7 -3 14q0 16 15 26l312 166l-312 165q-15 8 -15 27q0 7 3 13q10 15 26 15q8 0 14 -3l360 -191q15 -10 15 -26zM479 30q0 -13 -8.5 -21.5t-21.5 -8.5h-358q-13 0 -21.5 8.5t-8.5 21.5q0 12 8.5 21t21.5 9 h358q13 0 21.5 -9t8.5 -21z" />
<glyph unicode="&#x25fc;" horiz-adv-x="505" d="M0 505h505v-505h-505v505z" />
</font>
</defs>
</svg>
