<?xml version="1.0" standalone="no"?>
<!DOCTYPE svg PUBLIC "-//W3C//DTD SVG 1.1//EN" "http://www.w3.org/Graphics/SVG/1.1/DTD/svg11.dtd" >
<svg xmlns="http://www.w3.org/2000/svg">
<metadata></metadata>
<defs>
<font id="pf_square_sans_proextra_black" horiz-adv-x="1261" >
<font-face units-per-em="2048" ascent="1536" descent="-512" />
<missing-glyph horiz-adv-x="624" />
<glyph horiz-adv-x="2048" />
<glyph horiz-adv-x="2048" />
<glyph unicode="&#xd;" horiz-adv-x="2048" />
<glyph unicode=" "  horiz-adv-x="624" />
<glyph unicode="&#x09;" horiz-adv-x="624" />
<glyph unicode="&#xa0;" horiz-adv-x="624" />
<glyph unicode="!" horiz-adv-x="663" d="M143 154q0 37 8.5 68.5t30 55t58 37t92.5 13.5q57 0 94 -13.5t58.5 -36t28.5 -55t7 -69.5q0 -33 -7 -64t-27.5 -55.5t-57.5 -39.5t-96 -15q-61 0 -99 15t-57.5 40.5t-26 56.5t-6.5 62zM156 1313q-2 27 8 36t35 9h272q25 0 35 -9.5t10 -35.5l-29 -846q-2 -23 -11 -34 t-34 -11h-213q-25 0 -34 10t-9 35z" />
<glyph unicode="&#x22;" horiz-adv-x="829" d="M102 1319q0 39 41 39h207q23 0 30 -14.5t7 -24.5l-22 -463q0 -14 -9.5 -24.5t-27.5 -10.5h-170q-33 0 -33 35zM444 1319q-2 16 9.5 27.5t29.5 11.5h207q23 0 30 -14.5t7 -24.5l-20 -463q-2 -14 -11.5 -24.5t-27.5 -10.5h-168q-35 0 -35 35z" />
<glyph unicode="#" horiz-adv-x="1359" d="M67 425q-8 9 1 36l43 157q8 25 20 34.5t39 9.5h145l29 114h-151q-23 0 -31 9.5t0 35.5l41 156q8 25 20.5 34t38.5 9h144l73 293q8 27 14.5 36t30.5 9h201q25 0 33 -9.5t0 -35.5l-74 -293h152l73 293q8 27 14.5 36t30.5 9h201q25 0 33 -9.5t0 -35.5l-74 -293h150 q27 0 33 -9.5t-3 -33.5l-41 -156q-8 -25 -19 -35t-38 -10h-143l-29 -114h147q27 0 33 -9.5t-2 -34.5l-43 -157q-8 -25 -19.5 -35t-37.5 -10h-141l-93 -371q-6 -23 -13 -34t-32 -11h-190q-25 0 -37 10t-6 35l92 371h-152l-92 -371q-6 -23 -13 -34t-32 -11h-190q-25 0 -37 10 t-6 35l92 371h-154q-23 0 -31 9zM594 662h151l29 114h-151z" />
<glyph unicode="$" d="M115 928q0 172 102 273.5t277 129.5v176q0 20 10 34.5t39 14.5h192q33 0 40 -18t7 -31v-174q59 -4 125 -16t125 -35q31 -12 47.5 -22.5t22.5 -22.5t5 -25.5t-3 -31.5l-29 -136q-6 -27 -14 -40t-20.5 -17t-31 -3t-44.5 3q-68 10 -138.5 15.5t-164.5 5.5q-57 0 -94.5 -14.5 t-37.5 -57.5q0 -41 27 -56.5t102 -31.5q86 -20 173.5 -45t159 -70t116.5 -119.5t45 -193.5q0 -94 -28.5 -164t-80 -119t-119 -79.5t-143.5 -45.5v-164q0 -12 -7 -30.5t-40 -18.5h-192q-29 0 -39 14.5t-10 34.5v152q-66 4 -147 17.5t-152 41.5q-31 12 -47.5 22.5t-22.5 23 t-6 25.5t4 32l31 143q10 47 27.5 53.5t68.5 -2.5q68 -10 161 -19t187 -9q82 0 114.5 20.5t32.5 63.5q0 45 -35.5 60t-107.5 32q-86 20 -172 47t-156.5 73t-114.5 118.5t-44 185.5z" />
<glyph unicode="%" horiz-adv-x="2088" d="M57 944q0 29 4.5 74t18.5 95t40.5 100.5t73 90t113 65.5t160.5 26q139 0 222 -44t127 -110.5t57.5 -146.5t13.5 -150q0 -59 -11.5 -140t-54.5 -156t-127 -127t-227 -52t-225 50t-123 123t-51.5 155t-10.5 147zM377 932q0 -39 4 -76t14.5 -66.5t27.5 -47t44 -17.5 q59 0 80.5 54.5t21.5 152.5q0 100 -19.5 153.5t-82.5 53.5q-53 0 -71.5 -58.5t-18.5 -148.5zM618 -16l566 1423q6 14 12 20.5t21 6.5h233q27 0 16 -31l-563 -1426q-10 -25 -31 -24h-233q-31 0 -21 31zM1200 463q0 29 4 74t18.5 95t41 100t72.5 90t113 65.5t161 25.5 q139 0 222 -44t127 -110.5t57.5 -146.5t13.5 -149q0 -59 -11.5 -140t-54.5 -156t-127 -127t-227 -52t-225 50t-123 122.5t-51.5 154.5t-10.5 148zM1520 451q0 -39 4 -76t14 -66.5t27.5 -47t44.5 -17.5q59 0 80.5 54t21.5 153q0 100 -19.5 153t-82.5 53q-53 0 -71.5 -58 t-18.5 -148z" />
<glyph unicode="&#x26;" horiz-adv-x="1581" d="M82 379q0 129 73.5 241.5t209.5 198.5q-39 66 -56.5 124t-17.5 89q0 74 23.5 138.5t71.5 112.5t120 75.5t168 27.5q88 0 158.5 -26.5t118.5 -71.5t74 -105.5t26 -127.5q0 -51 -17.5 -101.5t-49.5 -94.5t-78 -80t-101 -56q29 -39 51.5 -67.5t45 -53t49 -51.5t67.5 -59 q53 72 89 157.5t50 173.5q6 27 8 43.5t7.5 23.5t17.5 9t37 2h178q47 0 61.5 -13.5t12.5 -72.5q-2 -70 -22.5 -146.5t-51.5 -148t-68 -136.5t-73 -110q53 -41 104 -76.5t111 -70.5q35 -20 30.5 -36.5t-22.5 -45.5l-92 -145q-16 -23 -34 -30t-58 11q-31 14 -70 38t-79 50.5 t-79 54t-69 52.5q-96 -55 -208 -78t-241 -23q-100 0 -187 24t-150.5 74t-100.5 125.5t-37 180.5zM432 408q0 -68 44 -109t112 -41q35 -2 82 6t94 31q-76 78 -138.5 148.5t-97.5 123.5q-96 -74 -96 -159zM600 1042q0 -14 7 -33.5t28 -45.5q37 23 58.5 45t21.5 45 q0 20 -14.5 35.5t-43.5 15.5q-27 0 -42 -19.5t-15 -42.5z" />
<glyph unicode="'" horiz-adv-x="489" d="M102 1319q0 39 41 39h207q23 0 30 -14.5t7 -24.5l-22 -463q0 -14 -9.5 -24.5t-27.5 -10.5h-170q-33 0 -33 35z" />
<glyph unicode="(" horiz-adv-x="743" d="M92 618q0 221 80 436.5t211 387.5q29 39 47.5 41t52.5 -19l156 -90q31 -16 35 -33.5t-23 -62.5q-94 -160 -133 -331t-39 -329q0 -156 41 -327.5t131 -331.5q25 -45 22 -62.5t-34 -33.5l-156 -90q-35 -20 -53 -18.5t-47 40.5q-131 172 -211 387t-80 436z" />
<glyph unicode=")" horiz-adv-x="743" d="M75.5 1340.5q4.5 17.5 35.5 33.5l155 90q35 20 53.5 18.5t47.5 -40.5q131 -172 210.5 -387t79.5 -437q0 -221 -79.5 -436t-210.5 -387q-29 -39 -47.5 -41t-53.5 19l-155 90q-31 16 -34 33.5t21 62.5q90 160 131 331.5t41 327.5q0 158 -38.5 329t-133.5 331 q-27 45 -22.5 62.5z" />
<glyph unicode="*" horiz-adv-x="974" d="M67 1066.5q-8 16.5 13 53.5l41 80q23 39 41 36t53 -17l131 -50l10 134q4 37 15.5 47t54.5 10h98q41 0 57.5 -13.5t18.5 -48.5l8 -133l144 62q33 16 44 15t31 -34l50 -75q33 -47 -3 -68l-135 -98l123 -95q35 -25 36 -40t-19 -46l-41 -69q-20 -31 -38 -34t-52 13l-136 58 l-14 -127q-4 -41 -13.5 -49.5t-49.5 -8.5h-117q-37 0 -46.5 8.5t-13.5 49.5l-16 127l-125 -52q-23 -10 -44 -13t-38 24l-59 88q-12 18 -8 33.5t36 39.5l107 89l-107 67q-29 20 -37 36.5z" />
<glyph unicode="+" d="M137 575v177q0 49 49 49h277v278q0 49 51 49h231q49 0 50 -49v-278h284q31 0 39 -12.5t8 -34.5v-179q0 -27 -8 -39t-39 -12h-284v-297q0 -31 -12.5 -39t-34.5 -8h-234q-27 0 -39 8.5t-12 38.5v297h-277q-49 0 -49 51z" />
<glyph unicode="," horiz-adv-x="528" d="M15 -232.5q1 9.5 10.5 21.5t27.5 31q37 41 53.5 81t16.5 72q0 63 -45 115q-35 37 -39 60.5t43 58.5l158 121q39 29 63.5 17.5t54.5 -40.5q47 -45 72 -110.5t25 -120.5q0 -72 -21.5 -138.5t-57.5 -124t-81 -102.5t-90 -71q-31 -16 -52.5 -11.5t-41.5 27.5l-66 67 q-16 16 -23.5 26.5t-6.5 20z" />
<glyph unicode="-" horiz-adv-x="880" d="M59 553v199q0 49 50 49h677q31 0 39.5 -12.5t8.5 -34.5v-201q0 -27 -8.5 -39t-39.5 -12h-677q-49 0 -50 51z" />
<glyph unicode="." horiz-adv-x="516" d="M61 162q0 37 9.5 69.5t31 57t59.5 39t97 14.5q61 0 99 -13.5t59.5 -38t30 -57t8.5 -71.5q0 -35 -7.5 -67t-29 -58.5t-60.5 -41.5t-100 -15q-66 0 -103.5 16t-59 41.5t-28 58.5t-6.5 66z" />
<glyph unicode="/" horiz-adv-x="712" d="M14 -76q86 360 174 729t174 729q4 14 15.5 25.5t34.5 11.5h247q25 0 34 -16.5t7 -40.5l-344 -1450q-4 -16 -18 -27.5t-31 -11.5h-252q-51 0 -41 51z" />
<glyph unicode="0" d="M45 698q0 43 6 111t25.5 143.5t57.5 151.5t102.5 137.5t158.5 99t228 37.5q131 0 225 -30.5t160.5 -82t107.5 -120t62.5 -144t30 -153.5t8.5 -150q0 -59 -6.5 -135t-27 -155.5t-59.5 -156.5t-105.5 -136.5t-163.5 -96t-232 -36.5q-133 0 -228.5 34.5t-160 93t-102.5 132 t-57.5 153.5t-24.5 159t-5 144zM451 680q0 -70 7 -136.5t26.5 -117.5t53 -82t85.5 -31q111 0 150.5 96.5t39.5 270.5q0 176 -37.5 270t-152.5 94q-51 0 -84 -26.5t-52.5 -75.5t-27.5 -115.5t-8 -146.5z" />
<glyph unicode="1" d="M197 51v219q0 49 49 49h205v682h-175q-31 0 -46 7.5t-15 38.5v122q0 27 8 47.5t41 36.5l174 82q41 20 76 23.5t76 3.5h196q55 0 56 -51v-992h221q31 0 39 -12t8 -35v-221q0 -27 -8 -39t-39 -12h-817q-49 0 -49 51z" />
<glyph unicode="2" d="M82 51v168q0 20 6 45t31 47l280 262l215 201q41 37 67 81t26 91q0 53 -37 73.5t-113 20.5q-94 0 -191.5 -8t-164.5 -14q-45 -4 -62.5 2t-23.5 51l-19 139q-2 14 -2 28.5t6 28t22.5 26t45.5 24.5q43 16 100.5 28.5t115.5 19.5t109.5 10t79.5 3q289 0 417 -107.5 t128 -299.5q0 -68 -13 -122t-40 -103.5t-67 -95.5t-91 -97q-25 -25 -50.5 -48.5t-53 -48t-60 -54t-75.5 -66.5l4 -14h420q31 0 39 -13.5t8 -36.5v-221q0 -27 -8.5 -39t-38.5 -12h-961q-49 0 -49 51z" />
<glyph unicode="3" d="M84 154l27 137q8 41 23.5 51t64.5 4q90 -12 176 -19.5t151 -7.5q51 0 93.5 4.5t73 20.5t47 48t16.5 89q0 41 -20.5 58.5t-63.5 25.5l-283 53q-43 8 -57.5 24.5t-14.5 62.5v83q0 39 4.5 56.5t22.5 34.5l188 155l-2 8h-364q-49 0 -49 50v219q0 51 49 51h889q31 0 39 -12.5 t8 -38.5l-2 -164q0 -23 -5 -47.5t-38 -52.5l-191 -168l4 -9l80 -20q59 -16 99.5 -48t65 -76t34.5 -98.5t10 -115.5q0 -158 -42 -260t-120.5 -161.5t-189.5 -84t-246 -24.5q-29 0 -77 3t-103 10t-111.5 18.5t-99.5 27.5q-66 25 -80 50.5t-6 62.5z" />
<glyph unicode="4" d="M43 336v192q0 14 3 32t20 38l559 719q35 41 94 41h291q33 0 40 -18.5t7 -30.5v-711h121q31 0 39 -12.5t8 -34.5v-223q0 -27 -8.5 -39.5t-38.5 -12.5l-121 3v-230q0 -12 -7.5 -30.5t-39.5 -18.5h-291q-29 0 -39 14.5t-10 34.5v230l-561 -3q-27 0 -46.5 12.5t-19.5 47.5z M465 588h211v282h-12l-199 -270v-12z" />
<glyph unicode="5" d="M84 154l27 137q8 41 23.5 51t64.5 4q90 -12 176 -19.5t151 -7.5q51 0 93.5 4.5t73 20.5t47 49t16.5 90q0 33 -18.5 52.5t-63.5 29.5l-455 80q-70 12 -84 46t-4 89l82 488q8 47 30.5 70.5t78.5 23.5h718q49 0 50 -51v-219q0 -49 -50 -50h-485l-20 -120l321 -48 q139 -20 222 -112t83 -250t-43 -260t-120.5 -161.5t-189.5 -84t-247 -24.5q-29 0 -77 3t-103 10t-111.5 18.5t-99.5 27.5q-66 25 -80 50.5t-6 62.5z" />
<glyph unicode="6" d="M72 639q0 78 7 162t28.5 166t60.5 156.5t103.5 131t158.5 89t225 32.5h58.5t98.5 -5t120.5 -17.5t124.5 -34.5q57 -23 70.5 -43.5t2.5 -58.5l-28 -138q-10 -43 -26.5 -54t-47.5 -7q-80 10 -176 16t-199 6q-78 0 -118.5 -38.5t-51.5 -124.5q84 8 143.5 11t125.5 3 q221 0 335.5 -117t114.5 -350q0 -125 -51 -209t-133 -136t-185.5 -74.5t-205.5 -22.5q-193 0 -303.5 51t-167 139t-70.5 208t-14 259zM469 561q-2 -72 3 -120t22 -83q10 -23 39.5 -38t101.5 -15q35 0 66.5 5t55 18.5t37 36t13.5 57.5q0 78 -25.5 114.5t-89.5 36.5 q-39 0 -87 -2t-136 -10z" />
<glyph unicode="7" d="M88 1092v219q0 51 49 51h977q31 0 39 -12.5t8 -38.5l-2 -150q0 -35 -10 -59.5t-31 -63.5l-532 -1046q-16 -29 -31.5 -39t-54.5 8l-232 100q-39 18 -40 34t16 50l446 897h-553q-49 0 -49 50z" />
<glyph unicode="8" d="M57 408q0 90 45 173t138 140q-41 20 -69 49t-45 61.5t-25.5 66.5t-8.5 65q0 104 39 182t109.5 130t169 78.5t217.5 26.5q113 0 209 -23.5t166.5 -72.5t111.5 -127t41 -186q0 -27 -9 -62t-27.5 -68.5t-46.5 -64.5t-66 -51q102 -51 145 -137t43 -176q0 -102 -43 -182 t-120 -135.5t-181 -84t-229 -28.5q-123 0 -226.5 23.5t-178.5 74.5t-117 132t-42 196zM453 442q0 -55 45 -91t123 -36q92 0 133 41t41 86q0 70 -52.5 104t-124.5 46q-29 -6 -58.5 -17.5t-53 -30t-38.5 -44t-15 -58.5zM494 952q0 -31 32.5 -55.5t104.5 -40.5q72 10 98.5 40 t26.5 56q0 47 -38 71t-91 24q-66 0 -99.5 -28t-33.5 -67z" />
<glyph unicode="9" d="M68 922q0 125 51 211t133 140t185.5 78.5t205.5 24.5q193 0 303.5 -51t166.5 -139t70.5 -209t14.5 -258q0 -78 -7 -162t-28.5 -166t-60.5 -156.5t-103.5 -131t-159 -89t-225.5 -32.5h-58t-98.5 5t-121 17t-123.5 35q-57 23 -70.5 43t-3.5 59l29 138q12 41 27.5 53t46.5 8 q80 -10 173 -16.5t195 -6.5q78 0 122 37t54 123q-84 -8 -143 -9t-125 -1q-221 0 -335.5 111t-114.5 344zM463 930q0 -78 25.5 -112t89.5 -34q39 0 87 2t136 11q0 57 -4 112.5t-19 83.5q-10 23 -45 38.5t-98 15.5q-72 0 -122 -23.5t-50 -93.5z" />
<glyph unicode=":" horiz-adv-x="516" d="M61 162q0 37 9.5 69.5t31 57t59.5 39t97 14.5q61 0 99 -13.5t59.5 -38t30 -57t8.5 -71.5q0 -35 -7.5 -67t-29 -58.5t-60.5 -41.5t-100 -15q-66 0 -103.5 16t-59 41.5t-28 58.5t-6.5 66zM61 762q0 37 9.5 69.5t31 57t59.5 39t97 14.5q61 0 99 -13.5t59.5 -38t30 -57 t8.5 -71.5q0 -35 -7.5 -66.5t-29 -58.5t-60.5 -42t-100 -15q-66 0 -103.5 16t-59 42t-28 58.5t-6.5 65.5z" />
<glyph unicode=";" horiz-adv-x="516" d="M19 -232.5q1 9.5 10.5 21.5t27.5 31q37 41 53.5 81t16.5 72q0 63 -45 115q-35 37 -39 60.5t43 58.5l158 121q39 29 63.5 17.5t54.5 -40.5q47 -45 72 -110.5t25 -120.5q0 -72 -21.5 -138.5t-57.5 -124t-81 -102.5t-90 -71q-31 -16 -52.5 -11.5t-41.5 27.5l-66 67 q-16 16 -23.5 26.5t-6.5 20zM61 762q0 37 9.5 69.5t31 57t59.5 39t97 14.5q61 0 99 -13.5t59.5 -38t30 -57t8.5 -71.5q0 -35 -7.5 -66.5t-29 -58.5t-60.5 -42t-100 -15q-66 0 -103.5 16t-59 42t-28 58.5t-6.5 65.5z" />
<glyph unicode="&#x3c;" d="M162 580v180q0 23 9 33t24 18l870 432q23 10 31 -1t8 -23v-242q0 -25 -10.5 -35t-24.5 -18l-485 -248v-10l487 -242q16 -6 25.5 -17.5t9.5 -33.5v-252q0 -18 -13.5 -23.5t-29.5 2.5l-866 426q-12 6 -23.5 16.5t-11.5 37.5z" />
<glyph unicode="=" d="M137 373v178q0 49 49 49h893q31 0 39 -12.5t8 -34.5v-180q0 -27 -8 -39t-39 -12h-893q-49 0 -49 51zM137 772v178q0 49 49 49h893q31 0 39 -12t8 -35v-180q0 -27 -8 -39t-39 -12h-893q-49 0 -49 51z" />
<glyph unicode="&#x3e;" d="M164 121v252q0 23 9 34t26 17l487 242v10l-485 248q-14 8 -24.5 18t-10.5 35v242q0 12 8 23t31 1l870 -432q14 -8 23.5 -18.5t9.5 -32.5v-180q0 -27 -11.5 -37.5t-23.5 -16.5l-866 -426q-16 -8 -29.5 -3t-13.5 24z" />
<glyph unicode="?" horiz-adv-x="972" d="M74 1245q-4 37 2 49.5t41 28.5q41 18 84 28.5t83 15.5t73.5 7t56.5 2q229 0 353 -87t124 -255q0 -57 -17.5 -102t-45 -79t-59.5 -60.5t-60 -47.5q-39 -29 -66 -54t-44 -53t-25.5 -59.5t-8.5 -74.5v-60q0 -20 -7 -35.5t-32 -15.5h-260q-23 0 -35 9.5t-16 37.5 q-4 29 -4 46.5v39.5q0 80 12.5 136.5t39 100.5t66.5 83t93 84q51 39 51 80q0 35 -29.5 48t-99.5 13q-43 0 -93 -3t-93 -9q-47 -6 -57.5 0t-14.5 39zM197 154q0 37 8 68.5t29.5 55t58.5 37t92 13.5q57 0 94 -13.5t58.5 -36t28.5 -55t7 -69.5q0 -33 -7 -64t-27.5 -55.5 t-57.5 -39.5t-96 -15q-61 0 -99 15t-57.5 40.5t-25.5 56.5t-6 62z" />
<glyph unicode="@" horiz-adv-x="1939" d="M133 737q0 168 64.5 311.5t179.5 248t273.5 163t346.5 58.5q211 0 362.5 -60.5t250 -163t144.5 -237.5t46 -287q0 -121 -35.5 -209t-94 -146.5t-134.5 -87t-158 -28.5q-86 0 -159.5 28.5t-108.5 84.5q-49 -35 -113.5 -57.5t-130.5 -22.5q-145 0 -207.5 62.5t-62.5 199.5 q0 156 93 220.5t257 64.5h107v12q0 35 -32 44t-77 9q-14 0 -40.5 -2t-57.5 -5t-60.5 -6t-48.5 -5q-41 -4 -53 1t-18 40l-15 84q-6 41 15.5 58t50.5 28q51 16 121.5 28.5t142.5 12.5q106 0 174 -20.5t105.5 -61.5t51 -101.5t13.5 -138.5v-250q0 -6 1 -16t8 -20.5t21.5 -18.5 t41.5 -8q51 0 93 51t42 166q0 104 -32 198.5t-96.5 164t-161.5 110.5t-230 41q-147 0 -262 -42t-193 -113.5t-118 -169t-40 -208.5q0 -115 37 -212t107.5 -167.5t173 -110.5t235.5 -40q12 0 38 1t58.5 4t70.5 8t73 12q29 6 45 7t25.5 -3t14.5 -13.5t9 -27.5l29 -107 q10 -39 -8.5 -57.5t-40.5 -28.5q-35 -14 -77 -24.5t-86 -16.5t-85 -8t-70 -2q-213 0 -367.5 58.5t-254 163t-146.5 247.5t-47 313zM858 594q0 -14 9.5 -29.5t35.5 -15.5q29 0 63.5 11t84.5 40l-2 82h-113q-78 0 -78 -88z" />
<glyph unicode="A" horiz-adv-x="1331" d="M11 10q-4 4 -4 14q0 13 7 37l381 1231q10 35 28.5 53.5t72.5 18.5h321q53 0 69.5 -18.5t28.5 -55.5l404 -1233q5 -16 5 -28q0 -29 -32 -29h-313q-41 0 -57.5 19.5t-26.5 60.5l-55 201h-365l-57 -213q-10 -39 -30.5 -53.5t-55.5 -14.5h-283q-29 0 -38 10zM555 580h203 l-43 172l-51 213h-13z" />
<glyph unicode="B" horiz-adv-x="1355" d="M133 49v1264q0 20 10.5 34.5t38.5 14.5l586 2q217 0 328.5 -103.5t111.5 -289.5q0 -20 -5 -52t-20.5 -68t-41 -68.5t-68.5 -55.5v-10q59 -25 93 -64t51.5 -82t21.5 -83.5t4 -69.5q0 -102 -38 -180t-100.5 -130.5t-143 -80t-168.5 -27.5h-611q-29 0 -39 14.5t-10 34.5z M537 330h182q63 0 87.5 29.5t24.5 76.5t-26.5 79t-85.5 32h-182v-217zM537 862h163q53 0 76 22.5t23 59.5q0 39 -22.5 63.5t-76.5 24.5h-163v-170z" />
<glyph unicode="C" horiz-adv-x="1267" d="M113 680q0 121 24.5 246t93 225t191.5 163.5t317 63.5q113 0 213.5 -17.5t180.5 -51.5q35 -16 56 -38q14 -15 14 -43q0 -13 -3 -30l-31 -145q-8 -39 -23.5 -46.5t-62.5 -2.5q-92 8 -168.5 13t-130.5 5q-72 0 -119 -25.5t-74.5 -69.5t-38.5 -105.5t-11 -133.5 q0 -94 11 -161.5t38.5 -110.5t74 -63.5t117.5 -20.5q39 0 73 1t67.5 3t73.5 5t94 9q47 4 61 -2t25 -47l34 -133q5 -19 5 -34q0 -24 -13 -40q-22 -24 -57 -41q-80 -35 -185.5 -54t-218.5 -19q-131 0 -227 28.5t-167 78.5t-116 116.5t-71.5 144.5t-36.5 163t-10 169z" />
<glyph unicode="D" horiz-adv-x="1392" d="M133 49v1264q0 20 10.5 34.5t38.5 14.5h471q184 0 306 -56.5t193 -149.5t99.5 -216t28.5 -256t-27.5 -257t-98.5 -219t-192.5 -151.5t-308.5 -56.5h-471q-29 0 -39 14.5t-10 34.5zM532 330h76q137 0 196.5 89t59.5 251q0 80 -10 146.5t-38 114.5t-74 74.5t-119 26.5h-91 v-702z" />
<glyph unicode="E" horiz-adv-x="1191" d="M133 49v1264q0 20 10.5 34.5t38.5 14.5h860q23 0 36.5 -13.5t13.5 -35.5v-236q0 -18 -10.5 -31.5t-39.5 -13.5h-507v-164h438q23 0 36 -13t13 -36v-235q0 -18 -10.5 -31.5t-38.5 -13.5h-438v-209h516q23 0 36 -13.5t13 -35.5v-236q0 -18 -10.5 -31.5t-38.5 -13.5h-869 q-29 0 -39 14.5t-10 34.5z" />
<glyph unicode="F" horiz-adv-x="1118" d="M129 1313q0 20 10.5 34.5t38.5 14.5h844q23 0 36 -13.5t13 -35.5v-236q0 -18 -10 -31.5t-39 -13.5h-490v-164h412q23 0 36 -13t13 -36v-235q0 -18 -10 -31.5t-39 -13.5h-412v-490q0 -12 -7 -30.5t-40 -18.5h-305q-29 0 -39 14.5t-10 34.5z" />
<glyph unicode="G" horiz-adv-x="1359" d="M113 680q0 121 24.5 246t93 225t191.5 163.5t317 63.5q113 0 213.5 -17.5t180.5 -51.5q35 -16 56 -38q14 -15 14 -43q0 -14 -3 -30l-33 -149q-8 -39 -23.5 -45.5t-60.5 0.5q-92 10 -164.5 15t-125.5 5q-74 0 -122 -25.5t-78 -70.5t-41 -106.5t-11 -133.5q0 -80 7 -146.5 t31.5 -114.5t68.5 -73.5t118 -25.5q29 0 51.5 1t46.5 5v166h-119q-33 0 -41 13t-8 32v215q0 23 8.5 36t40.5 13h453q23 0 36 -13.5t13 -35.5v-95v-75v-70v-81t-1 -108.5t-1 -150.5q0 -37 -9 -71.5t-56 -55.5q-53 -20 -113.5 -34.5t-122 -22.5t-120 -12t-105.5 -4 q-190 0 -309 60t-185.5 158.5t-89 224.5t-22.5 257z" />
<glyph unicode="H" horiz-adv-x="1374" d="M133 49v1264q0 20 10.5 34.5t38.5 14.5h305q33 0 40.5 -18.5t7.5 -30.5v-447h305v447q0 20 10 34.5t39 14.5h305q33 0 40 -18.5t7 -30.5v-1264q0 -12 -7 -30.5t-40 -18.5h-305q-29 0 -39 14.5t-10 34.5v486h-305v-486q0 -12 -7.5 -30.5t-40.5 -18.5h-305q-29 0 -39 14.5 t-10 34.5z" />
<glyph unicode="I" horiz-adv-x="667" d="M133 49v1264q0 20 10.5 34.5t38.5 14.5h305q33 0 40.5 -18.5t7.5 -30.5v-1264q0 -12 -7.5 -30.5t-40.5 -18.5h-305q-29 0 -39 14.5t-10 34.5z" />
<glyph unicode="J" horiz-adv-x="1019" d="M11 95q0 15 5 36l39 168q10 39 19.5 44t42.5 1q55 -8 103 -11t93 -3q49 0 80 10t47.5 28.5t21.5 43t5 53.5l-2 848q0 20 10 34.5t39 14.5h305q33 0 40 -18.5t7 -30.5v-244.5v-175.5v-131v-112.5t-1 -119t-1 -151.5q0 -188 -116.5 -292.5t-358.5 -104.5q-23 0 -57.5 2 t-74.5 7t-81 12t-74 20q-33 10 -52 19t-28 20q-11 13 -11 33z" />
<glyph unicode="K" horiz-adv-x="1331" d="M117 49v1264q0 20 10 34.5t39 14.5h305q33 0 40 -18.5t7 -30.5v-377h6l140 186l153 193q20 23 46 35t67 12h327q41 0 48.5 -19.5t-17.5 -48.5l-420 -506l441 -712q17 -27 17 -44q0 -10 -6 -16q-16 -16 -40 -16h-326q-47 0 -70.5 18.5t-39.5 44.5l-238 410l-88 -106v-318 q0 -12 -7 -30.5t-40 -18.5h-305q-29 0 -39 14.5t-10 34.5z" />
<glyph unicode="L" horiz-adv-x="1114" d="M133 49v1264q0 20 10.5 34.5t38.5 14.5h303q29 0 39.5 -13.5t10.5 -35.5v-983h522q16 0 26.5 -8.5t10.5 -26.5v-250q0 -18 -10.5 -31.5t-39.5 -13.5h-862q-29 0 -39 14.5t-10 34.5z" />
<glyph unicode="M" horiz-adv-x="1636" d="M133 49v1264q0 20 10.5 34.5t38.5 14.5h215q53 0 74 -12.5t37 -42.5l133 -265l176 -366h12l179 366l135 263q16 29 35.5 43t70.5 14h207q33 0 40 -18.5t7 -30.5v-1264q0 -12 -7 -30.5t-40 -18.5h-293q-29 0 -39 14.5t-10 34.5v469l-6 2l-72 -160l-51 -104 q-16 -29 -37.5 -48.5t-68.5 -19.5h-121q-43 0 -64.5 17.5t-38.5 46.5l-53 106l-76 166l-4 -2v-473q0 -12 -7 -30.5t-40 -18.5h-293q-29 0 -39 14.5t-10 34.5z" />
<glyph unicode="N" horiz-adv-x="1409" d="M133 49v1264q0 20 10.5 34.5t38.5 14.5h209q47 0 64.5 -12.5t33.5 -36.5l224 -332l166 -250l8 2v580q0 12 7 30.5t40 18.5h293q29 0 39 -14.5t10 -34.5v-1264q0 -20 -10.5 -34.5t-38.5 -14.5h-207q-41 0 -64.5 15.5t-42.5 41.5l-200 289l-185 275h-6v-572q0 -12 -7 -30.5 t-40 -18.5h-293q-29 0 -39 14.5t-10 34.5z" />
<glyph unicode="O" horiz-adv-x="1458" d="M113 698q0 59 7 132t29.5 149t63.5 147.5t109.5 128t166 90t234.5 33.5q201 0 322.5 -61.5t188 -158.5t89.5 -218t23 -242q0 -76 -7.5 -158.5t-31 -161.5t-65.5 -151.5t-111.5 -127t-169 -86t-238.5 -31.5t-238.5 31.5t-167 87t-108.5 127t-62.5 151.5t-27.5 162t-6 157z M539 676q0 -188 41 -269t147 -81q111 0 157 82t46 268q0 98 -10.5 166.5t-34 111.5t-62.5 61.5t-96 18.5q-104 0 -146 -82t-42 -276z" />
<glyph unicode="P" horiz-adv-x="1208" d="M133 49v1264q0 20 10.5 34.5t38.5 14.5h512q98 0 186.5 -26.5t155 -81t104.5 -136.5t38 -192q0 -72 -19.5 -151t-72 -144.5t-147.5 -109.5t-245 -44h-159v-428q0 -12 -7.5 -30.5t-40.5 -18.5h-305q-29 0 -39 14.5t-10 34.5zM535 797h98q23 0 46 5t41.5 18.5t31 35.5 t12.5 59q0 59 -36 88t-95 29h-98v-235z" />
<glyph unicode="Q" horiz-adv-x="1464" d="M113 698q0 59 7 132t29.5 149t63.5 147.5t109.5 128t166 90t234.5 33.5q201 0 322.5 -61.5t188 -158.5t89.5 -218t23 -242q0 -68 -6.5 -139.5t-23 -142t-46 -136t-78.5 -120.5l182 -56q41 -12 46 -28q1 -4 1 -9q0 -17 -12 -44l-88 -220q-16 -41 -54 -41q-20 0 -46 11 l-473 211q-6 0 -12.5 -1t-12.5 -1q-139 0 -238.5 31.5t-167 87t-108.5 127t-62.5 151.5t-27.5 162t-6 157zM539 676q0 -188 41 -269t147 -81q111 0 157 82t46 268q0 98 -10.5 166.5t-34 111.5t-62.5 61.5t-96 18.5q-104 0 -146 -82t-42 -276z" />
<glyph unicode="R" horiz-adv-x="1298" d="M133 49v1264q0 20 10.5 34.5t38.5 14.5h543q86 0 170 -24.5t150.5 -77t108.5 -133t42 -193.5q0 -49 -10 -100.5t-34 -100.5t-63.5 -92t-97.5 -74l238 -508q9 -18 9 -30q0 -8 -4 -14q-9 -15 -36 -15h-313q-37 0 -59.5 11.5t-37.5 41.5l-182 441h-71v-445q0 -12 -7.5 -30.5 t-40.5 -18.5h-305q-29 0 -39 14.5t-10 34.5zM535 813h122q20 0 42 4t40.5 16.5t30.5 35t12 57.5q0 53 -32.5 79.5t-87.5 26.5h-127v-219z" />
<glyph unicode="S" horiz-adv-x="1243" d="M92 946q0 104 38 184t105.5 135.5t164 83t212.5 27.5q29 0 75 -2t101.5 -8t114 -18.5t113.5 -32.5q31 -12 47 -23.5t22.5 -24t5.5 -26.5t-4 -33l-34 -149q-6 -27 -14.5 -39t-20.5 -15.5t-30.5 0t-45.5 5.5q-35 4 -66.5 8t-66.5 7t-74 4t-86 1q-57 0 -95 -14.5t-38 -61.5 q0 -41 27.5 -56t103.5 -34q86 -20 176 -45.5t163 -73t119 -124t46 -199.5q0 -127 -49 -211t-129 -135t-182.5 -72.5t-208.5 -21.5q-29 0 -76 2t-102.5 9t-116 19.5t-115.5 34.5q-31 12 -47 23.5t-22.5 23.5t-6.5 26.5t4 33.5l31 147q6 25 12.5 38t16.5 17t26.5 3t42.5 -5 q70 -10 165 -19t192 -9q82 0 115.5 20.5t33.5 67.5q0 45 -36.5 60t-108.5 34q-88 20 -176 49t-160 76t-117 121.5t-45 191.5z" />
<glyph unicode="T" horiz-adv-x="1103" d="M20 1077v236q0 23 8.5 36t41.5 13h964q23 0 36 -13.5t13 -35.5v-236q0 -18 -10 -31.5t-39 -13.5h-282v-983q0 -12 -7.5 -30.5t-39.5 -18.5h-306q-29 0 -39 14.5t-10 34.5v983h-280q-33 0 -41.5 13.5t-8.5 31.5z" />
<glyph unicode="U" horiz-adv-x="1388" d="M135 514v799q0 20 10.5 34.5t38.5 14.5h303q33 0 40.5 -18.5t7.5 -30.5v-787q0 -104 39.5 -153t117.5 -49q164 0 164 202l-2 787q0 20 10 34.5t39 14.5h303q33 0 40 -18.5t7 -30.5v-799q0 -59 -7 -119.5t-34 -126.5q-33 -78 -88 -132t-124.5 -89t-148.5 -51t-159 -16 q-147 0 -253.5 43t-174.5 116q-66 72 -97.5 167t-31.5 208z" />
<glyph unicode="V" horiz-adv-x="1378" d="M23 1348q6 16 45 16h270q53 0 74.5 -14.5t31.5 -53.5l121 -413l121 -424h12l115 428l109 397q10 41 32.5 60.5t63.5 19.5h301q38 0 38 -19q0 -17 -7 -40l-412 -1231q-10 -31 -29.5 -52.5t-79.5 -21.5h-286q-53 0 -77 18.5t-34 53.5l-405 1231q-6 18 -6 31q0 8 2 14z" />
<glyph unicode="W" horiz-adv-x="1855" d="M25 1348q8 16 43 16h290q41 0 61.5 -14.5t31.5 -53.5l86 -401l79 -365h13l65 234l64 217l-105 324q-6 20 0 39.5t31 19.5h266q41 0 63.5 -13.5t33.5 -54.5l112 -458l72 -308h12l64 347l82 419q8 39 31.5 53.5t68.5 14.5h276q35 0 43 -16q4 -7 4 -17q0 -12 -6 -28 l-309 -1231q-10 -35 -33.5 -53.5t-77.5 -18.5h-225q-59 0 -78.5 21.5t-29.5 52.5l-47 147l-66 207h-12l-68 -205l-53 -149q-10 -31 -29.5 -52.5t-79.5 -21.5h-225q-53 0 -76.5 18.5t-34.5 53.5l-335 1231q-6 16 -6 28q0 10 4 17z" />
<glyph unicode="X" horiz-adv-x="1269" d="M28 20v7q0 18 13 43l362 624l-342 600q-16 27 -9 47.5t42 20.5h316q37 0 50 -9.5t29 -41.5l64 -140l74 -161l78 174l55 123q16 31 30.5 43t45.5 12h327q27 0 38 -6t14.5 -15.5t0 -20.5t-9.5 -20l-358 -606l364 -628q6 -10 10 -22q2 -7 2 -13q0 -3 -1 -7q-2 -10 -11.5 -17 t-29.5 -7h-320q-29 0 -48 9t-36 42l-63 139l-90 193l-90 -201l-56 -125q-16 -33 -36.5 -45t-55.5 -12h-321q-35 0 -38 20z" />
<glyph unicode="Y" horiz-adv-x="1402" d="M17 1346q6 18 34 18h301q41 0 59.5 -11.5t37.5 -47.5l112 -228l125 -260h12l127 260l105 207q20 37 37.5 58.5t58.5 21.5h311q29 0 34 -16q2 -6 2 -12q0 -11 -7 -23l-485 -862v-402q0 -12 -7.5 -30.5t-39.5 -18.5h-306q-29 0 -39 14.5t-10 34.5v402l-454 852 q-10 17 -10 32q0 6 2 11z" />
<glyph unicode="Z" horiz-adv-x="1185" d="M92 49v207q0 18 5 42t26 50l518 684h-459q-33 0 -41 13.5t-8 31.5v236q0 23 8.5 36t40.5 13h860q23 0 36.5 -13.5t13.5 -35.5l-2 -178q0 -41 -8.5 -68t-26.5 -51l-523 -686h512q33 0 41.5 -13.5t8.5 -31.5v-236q0 -23 -8.5 -36t-41.5 -13h-903q-23 0 -36 13.5t-13 35.5z " />
<glyph unicode="[" horiz-adv-x="641" d="M68 -141v1515q0 20 10 34.5t39 14.5h409q23 0 36 -13t13 -36v-207q0 -18 -10 -31.5t-39 -13.5h-102v-1013h104q23 0 36.5 -13.5t13.5 -36.5v-204q0 -18 -10.5 -31.5t-39.5 -13.5h-411q-29 0 -39 14t-10 35z" />
<glyph unicode="\" horiz-adv-x="712" d="M16 1362q-2 25 7.5 41t33.5 16h248q23 0 34 -11t15 -26q86 -360 174 -728.5t174 -729.5q10 -51 -40 -51h-252q-16 0 -30.5 11.5t-19.5 27.5z" />
<glyph unicode="]" horiz-adv-x="641" d="M70 59q0 23 13 36.5t36 13.5h104v1013h-102q-29 0 -39 13.5t-10 31.5v207q0 23 13 36t36 13h409q29 0 39.5 -14t10.5 -35v-1515q0 -20 -10.5 -34.5t-39.5 -14.5h-411q-29 0 -39 13t-10 32v204z" />
<glyph unicode="^" d="M55 745.5q0 12.5 21 38.5l370 535q18 23 35 33t62 10l205 -4q25 0 39 -2t23 -7.5t14 -12.5t14 -17l346 -535q20 -27 20 -39t-22 -30l-99 -74q-23 -18 -37 -17t-36 21l-381 420l-383 -420q-23 -20 -37 -21t-37 17l-94 74q-23 18 -23 30.5z" />
<glyph unicode="_" horiz-adv-x="1024" d="M-45 -113q0 49 49 50h1018q31 0 39 -12.5t8 -35.5v-139q0 -27 -8 -39t-39 -12h-1018q-49 0 -49 51v137z" />
<glyph unicode="`" horiz-adv-x="1134" d="M313 1413q-41 41 2 76l164 139q12 10 31.5 10t40.5 -24l264 -342q18 -23 13 -36t-19 -24l-111 -98q-16 -16 -32.5 -10t-30.5 20z" />
<glyph unicode="a" horiz-adv-x="1228" d="M74 293v12q0 89 28 151q30 66 84 105t127.5 55.5t159.5 16.5h215v16q0 20 -5 35.5t-20.5 27t-46 16.5t-81.5 5q-18 0 -50 -2t-69 -4t-74 -6t-66 -6q-27 -4 -43 -5t-26 3t-15.5 14t-9.5 29l-28 131q-6 31 7 52.5t72 43.5q37 14 85.5 24.5t97.5 16.5t96 9t82 3 q154 0 246 -26.5t142 -76.5t66.5 -125t16.5 -171v-262q0 -66 15.5 -81t62.5 -22q29 -4 37 -11t8 -30v-168q0 -27 -18.5 -39t-49.5 -20q-37 -10 -73.5 -13t-77.5 -3q-39 0 -77 5t-69.5 20.5t-56.5 42t-37 71.5l-4 2q-41 -45 -91 -73.5t-100.5 -44t-94.5 -21.5t-72 -6 q-96 0 -153.5 27.5t-88.5 72.5t-41 100.5t-10 108.5zM463 315q0 -31 13 -43t48 -12t79 15.5t77 33.5v90h-133q-39 0 -61.5 -18.5t-22.5 -65.5z" />
<glyph unicode="b" horiz-adv-x="1167" d="M90 160v1239q0 20 10.5 34.5t38.5 14.5h289q33 0 40 -18.5t7 -30.5l-2 -385q90 22 162 22h6q143 0 230 -39t135.5 -108.5t63.5 -162.5t15 -204q0 -119 -18 -218t-72.5 -171t-150.5 -111.5t-252 -39.5q-51 0 -110.5 4t-118 12t-112.5 20.5t-95 30.5t-53.5 44t-12.5 67z M473 317q25 -4 44.5 -5t33.5 -1q27 0 52.5 6.5t45 27t30.5 58t11 103.5q0 63 -8 104t-24.5 62.5t-40 30t-54.5 8.5q-18 0 -36.5 -2t-53.5 -11v-381z" />
<glyph unicode="c" horiz-adv-x="1028" d="M82 512q0 92 18.5 185.5t71.5 168t150.5 122.5t255.5 48q92 0 176 -12t149 -41q33 -14 47.5 -33.5t5.5 -58.5l-28 -158q-4 -20 -8.5 -30.5t-13.5 -13.5t-24.5 -2t-41.5 3q-61 6 -106.5 9t-90.5 3q-88 0 -130 -47t-42 -137q0 -115 36 -160t128 -45q41 0 102.5 4.5 t128.5 12.5q39 4 49.5 0t18.5 -43l27 -144q5 -24 5 -42q0 -17 -4 -27q-10 -22 -69 -45q-31 -10 -71 -19.5t-82 -15.5t-84 -9t-78 -3q-162 0 -260.5 46t-150.5 120.5t-68.5 170t-16.5 193.5z" />
<glyph unicode="d" horiz-adv-x="1171" d="M82 494q0 119 14.5 220t58.5 174t127 113.5t220 40.5q35 0 92 -6t102 -16v379q0 20 10.5 34.5t38.5 14.5h287q33 0 40 -18.5t7 -30.5v-1350q0 -12 -7 -30.5t-40 -18.5h-291q-29 0 -37 13.5t-8 33.5v41l-4 2q-78 -59 -143.5 -82.5t-122.5 -23.5q-109 0 -176.5 41 t-104 110.5t-50 161.5t-13.5 197zM471 512q0 -55 5 -91t17.5 -55.5t30 -26.5t41.5 -7q35 0 69 12t62 25v333q-41 10 -61.5 11.5t-38.5 1.5q-33 0 -56.5 -7.5t-39 -30t-22.5 -62.5t-7 -103z" />
<glyph unicode="e" horiz-adv-x="1132" d="M82 498q0 74 13.5 167t63.5 176t148.5 139t267.5 56q154 0 249.5 -43t147.5 -111.5t70.5 -152.5t18.5 -166q0 -70 -26.5 -104.5t-96.5 -34.5h-465q4 -43 20.5 -68.5t43 -39t61.5 -16.5t76 -3t97 4t124 14q49 6 60.5 -1t19.5 -52l20 -121q5 -25 5 -43q0 -16 -4 -26 q-9 -22 -68 -45q-31 -10 -73 -18.5t-87 -14.5t-89 -9t-81 -3q-162 0 -262 42t-156.5 112.5t-77 164.5t-20.5 197zM479 635h187q0 59 -25 88t-66 29q-39 0 -65.5 -29t-30.5 -88z" />
<glyph unicode="f" horiz-adv-x="942" d="M61 772v197q0 49 50 49h82v88q0 172 104 272.5t324 100.5q35 0 75.5 -3t82.5 -9.5t82 -16.5t73 -25q43 -18 45 -41q1 -8 1 -16q0 -16 -3 -33l-33 -166q-6 -29 -18.5 -30.5t-55.5 2.5q-59 6 -112 8t-70 2q-63 0 -86.5 -29.5t-23.5 -81.5v-22h208q31 0 39.5 -12.5 t8.5 -34.5v-199q0 -27 -8.5 -39t-39.5 -12h-213v-672q0 -12 -7 -30.5t-40 -18.5h-286q-29 0 -39.5 14.5t-10.5 34.5l3 672h-82q-49 0 -50 51z" />
<glyph unicode="g" horiz-adv-x="1167" d="M82 508q0 111 22.5 208t80 168.5t157.5 112.5t256 41q104 0 217 -15t195 -50q41 -18 53 -44t12 -67v-809q0 -104 -13 -195t-66.5 -160t-158 -108t-284.5 -39q-90 0 -176 13.5t-146 36.5q-59 23 -72.5 45t-6.5 53l30 145q10 41 23.5 46.5t54.5 -3.5q78 -12 148.5 -17 t123.5 -5q51 0 83 8t49.5 24.5t23.5 41t6 57.5v35q-94 -23 -168 -23q-135 0 -221 38t-136 105.5t-68.5 158.5t-18.5 198zM477 526q0 -61 8.5 -99t24.5 -57.5t39.5 -26.5t54.5 -7q18 0 36.5 2t53.5 10v354q-25 4 -44 5.5t-34 1.5q-29 0 -53 -5.5t-43.5 -25t-31 -55.5 t-11.5 -97z" />
<glyph unicode="h" horiz-adv-x="1187" d="M92 49v1350q0 20 10.5 34.5t38.5 14.5h291q33 0 40 -18.5t7 -30.5v-436q68 37 140.5 55t136.5 18q123 0 191.5 -40t103 -101t43 -134t8.5 -140v-572q0 -12 -7.5 -30.5t-39.5 -18.5h-289q-29 0 -39 14.5t-10 34.5v520q0 80 -31 101.5t-74 21.5q-35 0 -70.5 -11t-64.5 -22 v-610q0 -12 -7 -30.5t-40 -18.5h-289q-29 0 -39 14.5t-10 34.5z" />
<glyph unicode="i" horiz-adv-x="618" d="M113 49v920q0 20 10 34.5t39 14.5h289q33 0 40 -18.5t7 -30.5v-920q0 -12 -7.5 -30.5t-39.5 -18.5h-289q-29 0 -39 14.5t-10 34.5zM113 1284q0 37 9 69.5t30.5 57.5t59.5 39t97 14q61 0 99 -13t59.5 -37.5t30 -57.5t8.5 -72q0 -35 -7 -66.5t-28.5 -58t-60.5 -42 t-101 -15.5q-66 0 -103.5 16.5t-59 42t-27.5 58t-6 65.5z" />
<glyph unicode="j" horiz-adv-x="647" d="M-158 -182q-2 15 -2 25q0 15 4 19q6 7 41 15q74 16 123 29.5t80 34t43 52.5t12 87v889q0 20 10.5 34.5t39.5 14.5h288q33 0 40 -18.5t7 -30.5v-879q0 -168 -47 -274.5t-128 -165t-193 -77.5q-92 -16 -196 -16q-22 0 -44 1q-14 0 -34.5 9t-24.5 42zM141 1284 q0 37 9.5 69.5t31 57.5t59.5 39t97 14q61 0 99 -13t59.5 -37.5t30 -57.5t8.5 -72q0 -35 -7.5 -66.5t-29 -58t-60.5 -42t-100 -15.5q-66 0 -103.5 16.5t-59 42t-28 58t-6.5 65.5z" />
<glyph unicode="k" horiz-adv-x="1165" d="M92 49v1350q0 20 10.5 34.5t38.5 14.5h287q33 0 40 -18.5t7 -30.5v-649l6 -2l103 126l75 91q23 25 44.5 39t74.5 14h295q43 0 48 -18.5t-21 -45.5l-299 -340l348 -548q13 -20 13 -34q0 -8 -4 -14q-11 -18 -48 -18h-279q-59 0 -83.5 16.5t-38.5 40.5l-162 271l-72 -86 v-193q0 -12 -7 -30.5t-40 -18.5h-287q-29 0 -39 14.5t-10 34.5z" />
<glyph unicode="l" horiz-adv-x="673" d="M113 297v1102q0 20 10 34.5t39 14.5h289q33 0 40 -18.5t7 -30.5v-1039q0 -39 19.5 -47t60.5 -12q37 -4 43 -9t10 -32l10 -190q2 -35 -37 -52q-23 -10 -49.5 -15t-53 -8t-49 -4t-36.5 -1q-147 0 -225 67.5t-78 239.5z" />
<glyph unicode="m" horiz-adv-x="1757" d="M92 49v920q0 20 10.5 34.5t38.5 14.5h289q33 0 40 -18.5t7 -30.5v-39l4 -2q72 66 152 87t137 21q113 0 171 -40t89 -97q68 61 157 99t175 38q115 0 177.5 -40t91 -101t33.5 -135t5 -142v-569q0 -12 -7 -30.5t-40 -18.5h-289q-29 0 -39 14.5t-10 34.5v504 q0 80 -25.5 101.5t-66.5 21.5q-23 0 -54.5 -8.5t-64.5 -24.5v-594q0 -12 -7 -30.5t-40 -18.5h-289q-29 0 -39 14.5t-10 34.5v504q0 80 -25.5 101.5t-66.5 21.5q-23 0 -54.5 -8.5t-64.5 -24.5v-594q0 -12 -7 -30.5t-40 -18.5h-289q-29 0 -39 14.5t-10 34.5z" />
<glyph unicode="n" horiz-adv-x="1193" d="M92 49v920q0 20 10.5 34.5t38.5 14.5h289q33 0 40 -18.5t7 -30.5v-39l4 -2q78 59 163 82.5t142 23.5q113 0 176.5 -40t94 -101.5t38 -134t7.5 -140.5v-569q0 -12 -7.5 -30.5t-39.5 -18.5h-289q-29 0 -39 14.5t-10 34.5v504q0 80 -29 101.5t-76 21.5q-35 0 -70.5 -11.5 t-64.5 -21.5v-594q0 -12 -7 -30.5t-40 -18.5h-289q-29 0 -39 14.5t-10 34.5z" />
<glyph unicode="o" horiz-adv-x="1169" d="M82 522q0 68 15.5 157t66.5 168t149.5 134t264.5 55t266 -47t154.5 -121.5t71.5 -166t17 -179.5q0 -82 -13 -176t-64.5 -175t-152.5 -134t-279 -53q-174 0 -273.5 53t-149 134t-61.5 175t-12 176zM471 510q0 -109 21.5 -156t85.5 -47q72 0 95 50.5t23 152.5t-20.5 151.5 t-93.5 49.5q-63 0 -87 -52.5t-24 -148.5z" />
<glyph unicode="p" horiz-adv-x="1173" d="M92 -371v1340q0 20 10.5 34.5t38.5 14.5h289q33 0 40 -18.5t7 -30.5v-39l4 -2q78 59 142.5 82.5t121.5 23.5q111 0 179.5 -43t105.5 -115.5t50.5 -168t13.5 -199.5q0 -121 -17.5 -218t-64.5 -168t-129 -109t-213 -38q-35 0 -91.5 7.5t-101.5 17.5v-371q0 -12 -7 -30.5 t-40 -18.5h-289q-29 0 -39 14.5t-10 34.5zM475 315q35 -8 57.5 -10t40.5 -2q33 0 57.5 7t40 27.5t22.5 59.5t7 105q0 104 -23.5 141t-72.5 37q-35 0 -67.5 -11.5t-61.5 -23.5v-330z" />
<glyph unicode="q" horiz-adv-x="1167" d="M82 496q0 115 22.5 214t80 171.5t157.5 114.5t256 42q104 0 217 -15t195 -50q41 -18 53 -44t12 -67v-1233q0 -12 -7 -30.5t-40 -18.5h-289q-29 0 -39 14.5t-10 34.5v375q-45 -12 -87 -17t-77 -5q-135 0 -221 38.5t-136 108.5t-68.5 163t-18.5 204zM477 514 q0 -66 8.5 -105.5t24.5 -61t39.5 -30t54.5 -8.5q18 0 36.5 2t53.5 11v380q-25 4 -44 5.5t-34 1.5q-29 0 -53 -6.5t-43.5 -27t-31 -59.5t-11.5 -102z" />
<glyph unicode="r" horiz-adv-x="919" d="M115 49v920q0 20 10 34.5t39 14.5h289q33 0 40 -18.5t7 -30.5v-105l4 -4q31 33 69.5 62.5t78.5 51t77 36t66 18.5q20 3 34 3q17 0 26 -4q17 -7 24 -54l30 -254q2 -16 2 -27.5t-6 -18.5t-21.5 -12.5t-43.5 -11.5q-96 -18 -173 -36.5t-167 -49.5v-514q0 -12 -7.5 -30.5 t-39.5 -18.5h-289q-29 0 -39 14.5t-10 34.5z" />
<glyph unicode="s" horiz-adv-x="1048" d="M76 150l28 120q8 35 20.5 42t53.5 -1q76 -14 159 -21t136 -7q63 0 88 10t25 33t-18.5 31t-59.5 12q-90 12 -167 28.5t-134 50t-90 91t-33 153.5q0 86 35 150.5t94 107.5t141 64.5t176 21.5q37 0 79 -3t85 -9t83 -14.5t73 -18.5q54 -17 80 -35q18 -12 18 -40q0 -13 -4 -29 l-31 -129q-8 -35 -16 -41t-49 -2q-37 4 -81 9t-86 8t-78 6t-54 3h-16q-45 0 -55 -10q-10 -12 -11 -24q0 -20 32.5 -26.5t57.5 -10.5q84 -10 161 -26.5t134 -51.5t91 -96.5t34 -159.5q0 -100 -41 -168t-108.5 -110t-154.5 -59t-181 -17q-37 0 -80 3t-87 9t-85 14t-74 19 q-68 23 -86 46q-10 13 -10 37q0 17 6 40z" />
<glyph unicode="t" horiz-adv-x="919" d="M49 772v197q0 49 49 49h82v192q0 27 13.5 39.5t35.5 18.5l265 69q10 2 19 2q14 0 24 -6q16 -10 16 -39v-276h201q31 0 39 -12.5t8 -34.5v-199q0 -27 -8.5 -39t-38.5 -12h-205v-242q0 -66 11 -99.5t41 -47.5q25 -11 65 -11q7 1 15 1q50 2 130 8q33 2 43 -2t14 -35l27 -180 q1 -7 1 -14q0 -23 -12 -37q-14 -18 -36 -25q-45 -18 -94 -28.5t-95.5 -15.5t-86.5 -7t-66 -2q-180 0 -255 85t-75 240v412h-78q-49 0 -49 51z" />
<glyph unicode="u" horiz-adv-x="1175" d="M86 393v576q0 12 7 30.5t40 18.5h289q29 0 39 -14.5t10 -34.5v-504q0 -80 28.5 -101.5t75.5 -21.5q35 0 65 11.5t58 21.5v594q0 12 7.5 30.5t39.5 18.5h289q29 0 39 -14.5t10 -34.5v-920q0 -20 -10 -34.5t-39 -14.5h-289q-33 0 -40 18.5t-7 30.5v39l-4 2 q-78 -59 -161.5 -82.5t-141.5 -23.5q-113 0 -174 35.5t-91 94t-35 131t-5 148.5z" />
<glyph unicode="v" horiz-adv-x="1193" d="M36 1002q7 16 42 16h276q33 0 52.5 -6t29.5 -47l74 -265l82 -284h12l84 297l82 256q8 23 23.5 36t62.5 13h256q43 0 49 -14q2 -5 2 -14q0 -13 -6 -32l-330 -876q-16 -43 -39.5 -62.5t-74.5 -19.5h-234q-55 0 -76.5 19.5t-37.5 62.5l-326 874q-6 18 -6 31q0 9 3 15z" />
<glyph unicode="w" horiz-adv-x="1622" d="M35 967q-3 8 -3 16q0 9 4 19q7 16 38 16h284q31 0 46.5 -8.5t25.5 -42.5l53 -215l76 -310h12l56 168q12 37 23.5 71t23.5 69l-76 215q-10 25 0 39t35 14h250q35 0 48 -8.5t25 -51.5l66 -227l72 -260h12l68 313l38 177q8 35 20.5 46t39.5 11h282q39 0 41 -18q1 -6 1 -11 q0 -11 -3 -22l-262 -885q-14 -45 -38.5 -63.5t-63.5 -18.5h-217q-35 0 -55.5 19.5t-36.5 62.5l-37 102l-47 135h-9l-51 -135q-10 -27 -20.5 -52.5t-20.5 -49.5q-16 -41 -40.5 -61.5t-65.5 -20.5h-199q-43 0 -63.5 18.5t-36.5 63.5z" />
<glyph unicode="x" horiz-adv-x="1163" d="M13 16q-3 4 -3 10q0 14 17 37l307 455l-285 438q-14 20 -10 41t39 21h313q35 0 46.5 -7t27.5 -32l119 -225l118 223q14 23 25.5 32t40.5 9h332q47 0 48 -19.5t-15 -42.5l-299 -438l307 -455q12 -17 12 -32q0 -6 -2 -11q-6 -20 -41 -20h-317q-27 0 -43.5 7t-32.5 32 l-135 248l-129 -244q-16 -25 -35 -34t-49 -9h-318q-29 0 -38 16z" />
<glyph unicode="y" horiz-adv-x="1122" d="M20 958q-7 17 -7 29q0 30 46 31h271q33 0 52 -6t30 -47l67 -230l72 -258h12l82 266l70 226q8 23 23.5 36t62.5 13h246q43 0 49 -16q2 -5 2 -12q0 -13 -8 -34l-496 -1318q-14 -35 -30.5 -45.5t-57.5 -10.5h-244q-35 0 -46 12.5t5 47.5l150 397z" />
<glyph unicode="z" horiz-adv-x="999" d="M51 47v162q0 16 4 37.5t33 52.5l377 420h-336q-49 0 -49 51v199q0 49 49 49h752q31 0 39 -12.5t8 -34.5v-164q0 -18 -5 -40t-32 -52l-375 -418h377q49 0 49 -51v-197q0 -49 -49 -49h-795q-31 0 -39 12.5t-8 34.5z" />
<glyph unicode="{" horiz-adv-x="778" d="M63 551v137q0 18 10.5 26.5t24.5 12.5q31 8 48.5 22.5t24.5 33t8 44t1 60.5v287q0 51 18.5 98t54.5 84t90 59.5t126 22.5q43 0 87 -1t110 -10q37 -4 36 -45v-174q0 -41 -40 -41l-54 -4q-43 -4 -59.5 -28.5t-16.5 -71.5v-215q0 -25 -5 -59.5t-20 -69.5t-44 -63.5 t-74 -43.5v-6q51 -16 81 -41.5t43 -56.5t16 -63.5t3 -65.5v-242q0 -47 16.5 -69.5t61.5 -26.5l52 -4q20 -2 30 -10.5t10 -32.5v-166q0 -41 -36 -45q-57 -8 -111.5 -9t-97.5 -1q-78 0 -130.5 23.5t-85 60.5t-47 83t-14.5 93v317q0 66 -9 101.5t-69 54.5q-16 4 -27.5 15 t-11.5 30z" />
<glyph unicode="|" horiz-adv-x="665" d="M164 -174v1552q0 20 10 34.5t39 14.5h242q33 0 40 -18t7 -31v-1552q0 -12 -7.5 -30.5t-39.5 -18.5h-242q-29 0 -39 14t-10 35z" />
<glyph unicode="}" horiz-adv-x="778" d="M59 -6q0 25 10.5 33t30.5 10l52 4q45 4 61 26.5t16 69.5v242q0 33 3.5 65.5t16.5 63.5t41.5 56.5t82.5 41.5v6q-47 14 -75 43t-43 64t-20.5 69.5t-5.5 59.5v215q0 47 -16 71.5t-59 28.5l-54 4q-41 0 -41 41v174q0 41 37 45q66 8 110 9.5t87 1.5q72 0 126 -22.5t90 -59.5 t54.5 -84t18.5 -98v-287q0 -35 1 -60.5t8 -44t24.5 -33t48.5 -22.5q14 -4 24 -12t10 -27v-137q0 -18 -11 -29.5t-28 -15.5q-59 -18 -68 -54t-9 -102v-317q0 -47 -14.5 -93t-47.5 -83t-86 -60.5t-129 -23.5q-43 0 -97 1t-112 9q-37 4 -37 45v166z" />
<glyph unicode="~" d="M117 545q31 72 69.5 121t81.5 79.5t89 44t92 13.5q53 0 110 -14.5t112.5 -33t104.5 -32.5t86 -14q29 0 53.5 19.5t51.5 57.5q14 20 24 23.5t37 -12.5l107 -64q20 -12 28 -21.5t-2 -31.5q-33 -76 -70.5 -124t-78.5 -74.5t-86 -36t-92 -9.5q-39 0 -91.5 15.5t-106.5 35 t-105.5 35t-88.5 15.5q-33 0 -63.5 -18.5t-69.5 -65.5q-16 -18 -24.5 -24.5t-38.5 9.5l-105 56q-6 4 -20.5 16t-3.5 35z" />
<glyph unicode="&#xa2;" d="M199 512q0 80 13 161t51 151.5t106.5 122.5t177.5 75v244q0 20 10 34.5t39 14.5h166q33 0 40 -18.5t7 -30.5v-236q121 -10 211 -47q33 -14 47 -33.5t6 -58.5l-29 -158q-4 -20 -11 -29.5t-17 -13.5t-25.5 -3t-34.5 3q-61 6 -106 9t-90 3q-88 0 -130 -47t-42 -137 q0 -115 35.5 -160t128.5 -45q41 0 102 3t129 14q35 4 48 -2t20 -41l26 -144q10 -47 1 -69.5t-68 -44.5q-41 -14 -94.5 -24.5t-106.5 -16.5v-240q0 -12 -7 -30.5t-40 -18.5h-166q-29 0 -39 14.5t-10 34.5v246q-113 20 -181.5 71.5t-105.5 122t-49 154.5t-12 170z" />
<glyph unicode="&#xa3;" d="M115 236q0 18 11 39.5t42 46.5q59 47 78.5 106t21.5 135h-104q-27 0 -38 8.5t-11 34.5v182q0 25 11 33t38 8h94q-6 106 1 205t50 173.5t135.5 118.5t257.5 44q29 0 77 -2t103.5 -8t113 -17.5t104.5 -29.5q35 -14 40 -27.5t1 -36.5l-27 -180q-4 -29 -15.5 -39t-33.5 -8 q-66 10 -129.5 15t-126.5 5q-61 0 -97 -17t-53.5 -46t-21.5 -68t-2 -82h246q27 0 37 -8t10 -33v-182q0 -27 -10.5 -35t-36.5 -8h-236q-2 -76 -13 -142.5t-40 -113.5h487q29 0 37 -9t8 -34l2 -219q0 -27 -8 -36t-37 -9h-915q-47 0 -47 47z" />
<glyph unicode="&#xa5;" d="M49 1343.5q10 18.5 37 18.5h276q41 0 57.5 -11.5t35.5 -47.5l178 -488h12l164 467q18 37 34.5 58.5t57.5 21.5h289q23 0 31 -20.5t-2 -38.5l-283 -598h137q31 0 39 -9.5t8 -31.5v-99q0 -27 -8 -36t-39 -9h-893q-27 0 -38 9.5t-11 35.5v97q0 25 11.5 34t37.5 9h142 l-271 595q-12 25 -2 43.5zM131 311v97q0 25 11.5 34t37.5 9h893q31 0 39 -9.5t8 -31.5v-99q0 -27 -8 -36t-39 -9h-256v-217q0 -12 -7 -30.5t-38 -18.5h-289q-29 0 -38 14.5t-9 34.5v217h-256q-27 0 -38 9.5t-11 35.5z" />
<glyph unicode="&#xa8;" horiz-adv-x="1134" d="M180 1270q0 35 7.5 65.5t28 52t55 34t89.5 12.5q57 0 92 -11.5t55.5 -33t28 -52t7.5 -67.5q0 -35 -6.5 -65.5t-27 -54.5t-56.5 -37t-93 -13q-61 0 -97 14t-54.5 38t-23.5 54.5t-5 63.5zM633 1270q0 35 8 65.5t27.5 52t54.5 34t90 12.5q57 0 93 -11.5t55.5 -33t26.5 -52 t7 -67.5q0 -35 -6 -65.5t-25.5 -54.5t-55.5 -37t-95 -13t-95 14t-54.5 38t-24.5 54.5t-6 63.5z" />
<glyph unicode="&#xa9;" horiz-adv-x="1722" d="M133 688q0 150 57.5 281t155.5 227t230.5 152.5t283.5 56.5q154 0 287 -56.5t231.5 -152.5t154.5 -227t56 -281t-57 -281t-155.5 -227t-231.5 -152.5t-285 -56.5t-284 56.5t-230 152.5t-155.5 227.5t-57.5 280.5zM336 688q0 -109 41 -203t112.5 -165.5t167 -112.5 t203.5 -41q109 0 205 41t167 112.5t111.5 166t40.5 202.5q0 109 -40.5 203t-111.5 164.5t-167 111.5t-205 41t-204 -41t-166.5 -111.5t-112.5 -164.5t-41 -203zM496 682q0 72 14 144.5t54 131t110.5 95.5t185.5 37q66 0 123 -9.5t104 -31.5q23 -10 35.5 -21.5t5.5 -42.5 l-16 -86q-6 -23 -18.5 -27t-32.5 0q-43 6 -93 8.5t-83 2.5q-82 0 -112 -56.5t-30 -140.5q0 -111 29 -159t113 -48h42t39.5 2t44 3t54.5 5q20 2 30.5 -2t18.5 -26l21 -78q8 -29 -4.5 -43t-34.5 -25q-47 -23 -108.5 -33t-127.5 -10q-113 0 -184.5 36t-111.5 94.5t-54 132 t-14 147.5z" />
<glyph unicode="&#xab;" d="M65.5 430.5q2.5 18.5 20.5 40.5l227 281q10 12 27.5 26.5t40.5 14.5h299q23 0 29 -11.5t-4 -21.5l-275 -336l260 -330q6 -8 6 -24.5t-18 -16.5h-301q-23 0 -38 15.5t-26 27.5l-227 287q-23 29 -20.5 47.5zM548.5 430.5q2.5 18.5 20.5 40.5l228 281q10 12 27.5 26.5 t39.5 14.5h299q23 0 29 -11.5t-4 -21.5l-275 -336l261 -330q6 -8 6 -24.5t-19 -16.5h-301q-23 0 -38 15.5t-25 27.5l-228 287q-23 29 -20.5 47.5z" />
<glyph unicode="&#xad;" horiz-adv-x="880" d="M59 553v199q0 49 50 49h677q31 0 39.5 -12.5t8.5 -34.5v-201q0 -27 -8.5 -39t-39.5 -12h-677q-49 0 -50 51z" />
<glyph unicode="&#xae;" horiz-adv-x="1116" d="M92 1032q0 98 38 184.5t102.5 150t152.5 100t186 36.5q100 0 188.5 -36.5t153 -100t101.5 -150t37 -184.5t-38 -185t-102.5 -150.5t-152 -100.5t-187.5 -37q-98 0 -186 37t-152.5 100.5t-102.5 150.5t-38 185zM225 1032q0 -72 28 -134t75 -109.5t109.5 -74t133.5 -26.5 q72 0 134.5 26.5t109.5 74t73.5 110t26.5 133.5q0 70 -26.5 132.5t-73.5 109.5t-109.5 73.5t-134.5 26.5t-134 -26.5t-109 -73.5t-75 -109.5t-28 -132.5zM371 809v463q0 10 3 17t19 7h203q31 0 62.5 -9t57 -28.5t42 -51t16.5 -74.5q0 -35 -15.5 -73t-56.5 -61l84 -190 q10 -23 -18 -23h-117q-29 0 -39 23l-65 158h-17v-158q0 -4 -1 -13.5t-17 -9.5h-121q-16 0 -18 7.5t-2 15.5zM530 1096h41q12 0 25.5 5.5t13.5 28.5q0 33 -39 33h-41v-67z" />
<glyph unicode="&#xb4;" horiz-adv-x="1134" d="M413 1197q-7 11 7 36l211 379q16 29 34.5 31t32.5 -7l185 -110q23 -12 26.5 -31.5t-14.5 -44.5l-268 -328q-12 -16 -26.5 -24t-35.5 4l-129 74q-16 10 -23 21z" />
<glyph unicode="&#xb8;" horiz-adv-x="870" d="M238 -467l20 105q2 14 27 12q33 -4 70.5 -8t66.5 -4q25 0 48.5 3t40.5 12t27.5 26.5t10.5 46.5q0 23 -10.5 33t-30 15t-50 6t-69.5 3q-49 6 -31 53l64 182q0 2 5 8.5t15 6.5h125q10 0 11.5 -6.5t-0.5 -10.5l-46 -116q74 -4 118 -20.5t67.5 -41t32 -56.5t8.5 -63 q0 -47 -17.5 -90t-56.5 -75.5t-98.5 -52t-141.5 -19.5q-16 0 -39.5 1t-51 4t-53.5 8t-44 11q-10 4 -16.5 10.5t-1.5 16.5z" />
<glyph unicode="&#xbb;" d="M66 781.5q6 11.5 28 11.5h299q23 0 40.5 -14.5t27.5 -26.5l227 -281q18 -23 20.5 -41t-20.5 -47l-227 -287q-10 -12 -25.5 -27.5t-38.5 -15.5h-301q-18 0 -18 16.5t6 24.5l260 330l-274 336q-10 10 -4 21.5zM549 781.5q6 11.5 29 11.5h299q23 0 40 -14.5t27 -26.5 l227 -281q18 -23 20.5 -41t-20.5 -47l-227 -287q-10 -12 -25.5 -27.5t-37.5 -15.5h-301q-18 0 -18.5 16.5t5.5 24.5l260 330l-274 336q-10 10 -4 21.5z" />
<glyph unicode="&#x2c6;" horiz-adv-x="1153" d="M103.5 1185.5q-3.5 12.5 19.5 35.5l274 286q18 20 33.5 31.5t58.5 11.5h148q43 0 57.5 -8t32.5 -29l279 -294q23 -23 19.5 -35.5t-21.5 -30.5l-86 -82q-20 -18 -34 -15t-36 19l-291 203l-278 -203q-23 -16 -37.5 -20t-32.5 16l-84 84q-18 18 -21.5 30.5z" />
<glyph unicode="&#x2da;" horiz-adv-x="1101" d="M285 1368q0 59 23.5 109.5t63.5 86t92 56t107 20.5q57 0 108.5 -22.5t89.5 -60t59.5 -87t21.5 -102.5q0 -55 -21.5 -105.5t-59.5 -88t-89.5 -59t-108.5 -21.5q-55 0 -107 20.5t-92 56t-63.5 86t-23.5 111.5zM481 1368q0 -43 25.5 -68.5t64.5 -25.5q35 0 61.5 26.5 t26.5 67.5q0 39 -26.5 65.5t-61.5 26.5q-37 0 -63.5 -26.5t-26.5 -65.5z" />
<glyph unicode="&#x2dc;" horiz-adv-x="1153" d="M127 1189q-2 9 2 21q57 145 136 204t159 59q47 0 94 -15.5t91 -33t84 -33t73 -15.5q35 0 64.5 17.5t56.5 60.5q12 20 26.5 18t36.5 -14l92 -51q18 -10 25.5 -20.5t-2.5 -32.5q-33 -74 -67.5 -122t-71.5 -76t-77 -38t-81 -10q-35 0 -80 14.5t-91 33t-90 32.5t-77 14 q-29 0 -60.5 -14t-66.5 -62q-14 -18 -22.5 -22t-36.5 10l-94 45q-2 0 -7.5 4t-9.5 10.5t-6 15.5z" />
<glyph unicode="&#x401;" horiz-adv-x="1191" d="M133 49v1264q0 20 10.5 34.5t38.5 14.5h860q23 0 36.5 -13.5t13.5 -35.5v-236q0 -18 -10.5 -31.5t-39.5 -13.5h-507v-164h438q23 0 36 -13t13 -36v-235q0 -18 -10.5 -31.5t-38.5 -13.5h-438v-209h516q23 0 36 -13.5t13 -35.5v-236q0 -18 -10.5 -31.5t-38.5 -13.5h-869 q-29 0 -39 14.5t-10 34.5zM190 1573q0 35 7.5 65.5t28 52t55 34t90.5 12.5q57 0 92 -11.5t55.5 -33t27.5 -52t7 -67.5q0 -35 -6 -65.5t-26.5 -54t-56.5 -37t-93 -13.5q-61 0 -97 14.5t-54.5 38t-24 54t-5.5 63.5zM643 1573q0 35 8 65.5t27.5 52t54.5 34t90 12.5 q57 0 93 -11.5t55.5 -33t27 -52t7.5 -67.5q0 -35 -6.5 -65.5t-26 -54t-55.5 -37t-95 -13.5t-95 14.5t-54.5 38t-24.5 54t-6 63.5z" />
<glyph unicode="&#x402;" horiz-adv-x="1579" d="M20 1077v236q0 23 8.5 36t41.5 13h1091q23 0 36 -13.5t13 -35.5v-236q0 -18 -10 -31.5t-39 -13.5h-409v-196q55 14 127.5 24t124.5 10q152 0 253 -44t161.5 -114.5t85 -158.5t24.5 -176q0 -135 -30 -241.5t-87 -193.5t-142 -159t-196 -137q-41 -25 -60.5 -15.5 t-39.5 43.5l-94 138q-20 33 -19.5 48t29.5 40q72 57 120 114.5t76.5 115.5t40 117.5t11.5 121.5q0 31 -7.5 64.5t-29 61t-59 45t-101.5 17.5q-35 0 -84 -10t-104 -27v-471q0 -12 -7.5 -30.5t-39.5 -18.5h-306q-29 0 -39 14.5t-10 34.5v983h-280q-33 0 -41.5 13.5t-8.5 31.5z " />
<glyph unicode="&#x403;" horiz-adv-x="1118" d="M129 1313q0 20 10.5 34.5t38.5 14.5h844q23 0 36 -13.5t13 -35.5v-236q0 -18 -10 -31.5t-39 -13.5h-490v-983q0 -12 -7 -30.5t-40 -18.5h-305q-29 0 -39 14.5t-10 34.5zM335 1596.5q-1 13.5 23 29.5l367 232q29 16 46 9t26 -22l108 -186q14 -20 9 -40t-33 -30l-394 -159 q-18 -8 -34.5 -9.5t-30.5 19.5l-76 129q-10 14 -11 27.5z" />
<glyph unicode="&#x404;" horiz-adv-x="1267" d="M113 680q0 121 24.5 246t93 225t191.5 163.5t317 63.5q113 0 213.5 -17.5t180.5 -51.5q35 -16 56 -38t11 -73l-31 -145q-8 -39 -28.5 -47.5t-57.5 -1.5q-37 6 -77.5 9t-80.5 5t-77 3t-64 1q-102 0 -154 -49t-73 -131h416q23 0 36 -13.5t13 -35.5v-215q0 -18 -10.5 -32 t-38.5 -14h-422q16 -104 68.5 -152t162.5 -48q39 0 73 1t67.5 3t73.5 5t94 9q37 4 56 -3t30 -46l34 -133q14 -49 -8 -73.5t-57 -41.5q-80 -35 -185.5 -54t-218.5 -19q-131 0 -227 28.5t-167 78.5t-116 116.5t-71.5 144.5t-36.5 163t-10 169z" />
<glyph unicode="&#x405;" horiz-adv-x="1243" d="M92 946q0 104 38 184t105.5 135.5t164 83t212.5 27.5q29 0 75 -2t101.5 -8t114 -18.5t113.5 -32.5q31 -12 47 -23.5t22.5 -24t5.5 -26.5t-4 -33l-34 -149q-6 -27 -14.5 -39t-20.5 -15.5t-30.5 0t-45.5 5.5q-35 4 -66.5 8t-66.5 7t-74 4t-86 1q-57 0 -95 -14.5t-38 -61.5 q0 -41 27.5 -56t103.5 -34q86 -20 176 -45.5t163 -73t119 -124t46 -199.5q0 -127 -49 -211t-129 -135t-182.5 -72.5t-208.5 -21.5q-29 0 -76 2t-102.5 9t-116 19.5t-115.5 34.5q-31 12 -47 23.5t-22.5 23.5t-6.5 26.5t4 33.5l31 147q6 25 12.5 38t16.5 17t26.5 3t42.5 -5 q70 -10 165 -19t192 -9q82 0 115.5 20.5t33.5 67.5q0 45 -36.5 60t-108.5 34q-88 20 -176 49t-160 76t-117 121.5t-45 191.5z" />
<glyph unicode="&#x406;" horiz-adv-x="667" d="M133 49v1264q0 20 10.5 34.5t38.5 14.5h305q33 0 40.5 -18.5t7.5 -30.5v-1264q0 -12 -7.5 -30.5t-40.5 -18.5h-305q-29 0 -39 14.5t-10 34.5z" />
<glyph unicode="&#x407;" horiz-adv-x="667" d="M-72 1573q0 35 7.5 65.5t28 52t55 34t90.5 12.5q57 0 92 -11.5t55 -33t27.5 -52t7.5 -67.5q0 -35 -6 -65.5t-26.5 -54t-56.5 -37t-93 -13.5q-61 0 -97.5 14.5t-54.5 38t-23.5 54t-5.5 63.5zM133 49v1264q0 20 10.5 34.5t38.5 14.5h305q33 0 40.5 -18.5t7.5 -30.5v-1264 q0 -12 -7.5 -30.5t-40.5 -18.5h-305q-29 0 -39 14.5t-10 34.5zM381 1573q0 35 8 65.5t27.5 52t54.5 34t90 12.5q57 0 93 -11.5t55.5 -33t26.5 -52t7 -67.5q0 -35 -6 -65.5t-25.5 -54t-55.5 -37t-95 -13.5t-95 14.5t-54.5 38t-24.5 54t-6 63.5z" />
<glyph unicode="&#x408;" horiz-adv-x="1019" d="M11 90q-1 16 5 41l39 168q10 39 19.5 44t42.5 1q55 -8 103 -11t93 -3q49 0 80 10t47.5 28.5t21.5 43t5 53.5l-2 848q0 20 10 34.5t39 14.5h305q33 0 40 -18.5t7 -30.5v-244.5v-175.5v-131v-112.5t-1 -119t-1 -151.5q0 -188 -116.5 -292.5t-358.5 -104.5q-23 0 -57.5 2 t-74.5 7t-81 12t-74 20q-33 10 -52 19t-28.5 20.5t-10.5 27.5z" />
<glyph unicode="&#x409;" horiz-adv-x="1945" d="M33 203q-2 31 8 41t41 18q45 12 78 29.5t54.5 49.5t32.5 84t15 134l45 754q0 23 13.5 36t35.5 13h801q23 0 36 -13.5t13 -35.5v-443h172q152 0 250 -42t154.5 -106.5t79 -142t22.5 -149.5q0 -111 -42 -192.5t-111.5 -134t-160.5 -78t-192 -25.5h-526q-29 0 -39 14.5 t-10 34.5v985h-146l-20 -370q-12 -170 -27.5 -298t-63.5 -214t-144.5 -130.5t-268.5 -48.5q-63 -2 -76.5 14.5t-15.5 49.5zM1204 324h144q59 0 94 30.5t35 77.5q0 39 -11.5 63.5t-30 38t-42 17.5t-45.5 4h-144v-231z" />
<glyph unicode="&#x40a;" horiz-adv-x="1921" d="M133 49v1264q0 20 10.5 34.5t38.5 14.5h305q33 0 40.5 -18.5t7.5 -30.5v-447h243v447q0 20 10.5 34.5t38.5 14.5h308q33 0 40 -18.5t7 -30.5v-443h172q152 0 250 -42t154.5 -106.5t79 -142t22.5 -149.5q0 -111 -42 -192.5t-112 -134t-161 -78t-191 -25.5h-527 q-29 0 -39 14.5t-10 34.5v486h-243v-486q0 -12 -7.5 -30.5t-40.5 -18.5h-305q-29 0 -39 14.5t-10 34.5zM1180 324h143q59 0 94 30.5t35 77.5q0 39 -11 63.5t-29.5 38t-42 17.5t-46.5 4h-143v-231z" />
<glyph unicode="&#x40b;" horiz-adv-x="1605" d="M20 1077v236q0 23 8.5 36t41.5 13h1091q23 0 36 -13.5t13 -35.5v-236q0 -18 -10 -31.5t-39 -13.5h-409v-158q70 23 150.5 38.5t141.5 15.5q137 0 224.5 -36t137.5 -94.5t68.5 -134t18.5 -157.5v-457q0 -12 -7 -30.5t-40 -18.5h-305q-29 0 -39 14.5t-10 34.5v434 q0 59 -29 88t-94 29q-14 0 -40 -4t-55.5 -10t-62.5 -14.5t-59 -16.5v-506q0 -12 -7.5 -30.5t-39.5 -18.5h-306q-29 0 -39 14.5t-10 34.5v983h-280q-33 0 -41.5 13.5t-8.5 31.5z" />
<glyph unicode="&#x40c;" horiz-adv-x="1355" d="M133 49v1264q0 20 10.5 34.5t38.5 14.5h305q33 0 40.5 -18.5t7.5 -30.5v-441h69q41 0 83 20.5t67 94.5l94 299q8 20 14 33.5t17.5 22t29 11.5t45.5 3h275q53 0 37 -51l-109 -347q-35 -98 -71.5 -163.5t-96.5 -92.5q66 -29 97.5 -92t64.5 -155l129 -404q16 -51 -37 -51 h-293q-29 0 -46 3t-28.5 11.5t-17.5 21.5t-14 34l-103 360q-25 74 -63.5 94.5t-85.5 20.5h-57v-496q0 -12 -7.5 -30.5t-40.5 -18.5h-305q-29 0 -39 14.5t-10 34.5zM484.5 1596.5q-1.5 13.5 23.5 29.5l366 232q29 16 46.5 9t25.5 -22l109 -186q14 -20 9 -40t-34 -30 l-393 -159q-18 -8 -34.5 -9.5t-31.5 19.5l-75 129q-10 14 -11.5 27.5z" />
<glyph unicode="&#x40e;" horiz-adv-x="1357" d="M44 1347q5 17 34 17h301q41 0 59.5 -11.5t36.5 -47.5l109 -277l106 -295h12l111 301l92 250q20 37 38 58.5t58 21.5h289q29 0 34 -16.5t-5 -34.5l-387 -951q-39 -90 -77 -165.5t-89 -130t-121 -85t-170 -30.5q-18 0 -46 2t-57.5 5t-56 6t-41.5 7q-47 14 -57 33t-6 64 l16 139q4 39 21.5 43t66.5 0q51 -4 84 -3t52.5 5t28.5 13t16 22l16 32l-461 984q-12 27 -7 44zM236.5 1709.5q-5.5 23.5 23.5 45.5l88 70q35 25 50.5 15.5t39.5 -38.5q70 -82 125 -116.5t133 -34.5q66 0 126.5 30.5t125.5 120.5q23 31 40.5 36t49.5 -15l86 -51 q35 -23 30 -47.5t-28 -65.5q-70 -133 -179.5 -205t-248.5 -72q-66 0 -131 17.5t-124.5 51.5t-107.5 84t-77 116q-16 35 -21.5 58.5z" />
<glyph unicode="&#x40f;" horiz-adv-x="1374" d="M133 49v1264q0 12 7 30.5t40 18.5h305q29 0 39.5 -14.5t10.5 -34.5v-981h305v981q0 12 7 30.5t40 18.5h305q29 0 39 -14.5t10 -34.5v-1264q0 -20 -10 -34.5t-39 -14.5h-320l-14 -266q-4 -55 -13 -68.5t-48 -13.5h-217q-35 0 -46.5 10t-15.5 55l-12 283h-326 q-33 0 -40 18.5t-7 30.5z" />
<glyph unicode="&#x410;" horiz-adv-x="1331" d="M11 10q-9 10 3 51l381 1231q10 35 28.5 53.5t72.5 18.5h321q53 0 69.5 -18.5t28.5 -55.5l404 -1233q18 -57 -27 -57h-313q-41 0 -57.5 19.5t-26.5 60.5l-55 201h-365l-57 -213q-10 -39 -30.5 -53.5t-55.5 -14.5h-283q-29 0 -38 10zM555 580h203l-43 172l-51 213h-13z" />
<glyph unicode="&#x411;" horiz-adv-x="1275" d="M133 49v1264q0 23 13.5 36t35.5 13h838q23 0 36 -13.5t13 -35.5v-236q0 -18 -10 -31.5t-39 -13.5h-483v-162h172q152 0 250 -42t154 -106.5t78.5 -142t22.5 -149.5q0 -111 -42 -192.5t-111.5 -134t-160.5 -78t-191 -25.5h-527q-29 0 -39 14.5t-10 34.5zM535 324h141 q59 0 95 30.5t36 77.5q0 39 -12.5 62.5t-31 37t-42 18.5t-45.5 5h-141v-231z" />
<glyph unicode="&#x412;" horiz-adv-x="1355" d="M133 49v1264q0 20 10.5 34.5t38.5 14.5l586 2q217 0 328.5 -103.5t111.5 -289.5q0 -20 -5 -52t-20.5 -68t-41 -68.5t-68.5 -55.5v-10q59 -25 93 -64t51.5 -82t21.5 -83.5t4 -69.5q0 -102 -38 -180t-100.5 -130.5t-143 -80t-168.5 -27.5h-611q-29 0 -39 14.5t-10 34.5z M537 330h182q63 0 87.5 29.5t24.5 76.5t-26.5 79t-85.5 32h-182v-217zM537 862h163q53 0 76 22.5t23 59.5q0 39 -22.5 63.5t-76.5 24.5h-163v-170z" />
<glyph unicode="&#x413;" horiz-adv-x="1118" d="M145 1313q0 20 10.5 34.5t39.5 14.5h843q23 0 36 -13.5t13 -35.5v-236q0 -18 -10 -31.5t-39 -13.5h-489v-983q0 -12 -7 -30.5t-40 -18.5h-305q-29 0 -39.5 14.5t-10.5 34.5z" />
<glyph unicode="&#x414;" horiz-adv-x="1517" d="M23 236q-2 37 7 54t48 27l76 13q78 66 107.5 166t39.5 227l45 555q4 47 27.5 65.5t60.5 18.5h852q23 0 36 -13.5t13 -35.5v-991l88 -9q31 -4 43.5 -20.5t8.5 -56.5l-23 -488q-4 -55 -13 -68.5t-48 -13.5h-217q-35 0 -49.5 10.5t-16.5 55.5l-10 268h-684l-19 -268 q-4 -45 -16 -55.5t-47 -10.5h-228q-39 0 -48 13.5t-13 68.5zM596 332h338v710h-225l-29 -352q-8 -98 -22.5 -183t-61.5 -175z" />
<glyph unicode="&#x415;" horiz-adv-x="1191" d="M133 49v1264q0 20 10.5 34.5t38.5 14.5h860q23 0 36.5 -13.5t13.5 -35.5v-236q0 -18 -10.5 -31.5t-39.5 -13.5h-507v-164h438q23 0 36 -13t13 -36v-235q0 -18 -10.5 -31.5t-38.5 -13.5h-438v-209h516q23 0 36 -13.5t13 -35.5v-236q0 -18 -10.5 -31.5t-38.5 -13.5h-869 q-29 0 -39 14.5t-10 34.5z" />
<glyph unicode="&#x416;" horiz-adv-x="1996" d="M76 51l129 404q33 92 64.5 155.5t97.5 91.5q-59 27 -96.5 92.5t-71.5 163.5l-109 347q-16 51 37 51h274q29 0 46.5 -3t28.5 -11.5t17.5 -21.5t14.5 -34l94 -299q25 -74 67 -94.5t83 -20.5h49v441q0 20 10 34.5t39 14.5h299q33 0 40 -18.5t7 -30.5v-441h49q41 0 83 20.5 t67 94.5l94 299q8 20 14 33.5t17.5 22t29 11.5t45.5 3h275q53 0 37 -51l-109 -347q-35 -98 -71.5 -163.5t-96.5 -92.5q66 -29 97.5 -92t64.5 -155l129 -404q16 -51 -37 -51h-293q-29 0 -46 3t-28.5 11.5t-17.5 21.5t-14 34l-103 360q-25 74 -63.5 94.5t-85.5 20.5h-37v-496 q0 -12 -7 -30.5t-40 -18.5h-299q-29 0 -39 14.5t-10 34.5v496h-37q-47 0 -86 -20.5t-64 -94.5l-102 -360q-8 -20 -14 -33.5t-17.5 -22t-29 -11.5t-45.5 -3h-293q-53 0 -37 51z" />
<glyph unicode="&#x417;" horiz-adv-x="1243" d="M49 154l27 137q8 41 23.5 51t64.5 4q45 -6 92 -11t93 -8t88 -5.5t75 -2.5q104 0 156.5 30t52.5 104q0 20 -5 40.5t-20.5 37t-41 27.5t-64.5 11h-195q-43 0 -57 13.5t-14 58.5v160q0 39 13 56t54 17h193q78 0 103.5 25t25.5 59q0 102 -185 103q-66 0 -140.5 -8.5 t-166.5 -24.5q-47 -8 -62.5 1t-25.5 44l-35 156q-8 33 5.5 55.5t74.5 46.5q43 16 96.5 28.5t108.5 19.5t107.5 11.5t95.5 4.5q268 0 397 -107.5t129 -288.5q0 -78 -38.5 -151.5t-112.5 -116.5q86 -29 127.5 -108.5t41.5 -173.5q0 -117 -40.5 -205t-117.5 -146.5t-184.5 -87 t-240.5 -28.5q-29 0 -80 3t-110.5 10t-119 18.5t-102.5 27.5q-66 25 -80 50.5t-6 62.5z" />
<glyph unicode="&#x418;" horiz-adv-x="1445" d="M133 49v1264q0 20 10.5 34.5t38.5 14.5h305q33 0 40.5 -18.5t7.5 -30.5v-608l366 591q18 25 39 45.5t74 20.5h252q33 0 40 -18.5t7 -30.5v-1264q0 -12 -7.5 -30.5t-39.5 -18.5h-305q-29 0 -39.5 14.5t-10.5 34.5v633l-387 -614q-16 -27 -44.5 -47.5t-76.5 -20.5h-221 q-29 0 -39 14.5t-10 34.5z" />
<glyph unicode="&#x419;" horiz-adv-x="1445" d="M133 49v1264q0 20 10.5 34.5t38.5 14.5h305q33 0 40.5 -18.5t7.5 -30.5v-608l366 591q18 25 39 45.5t74 20.5h252q33 0 40 -18.5t7 -30.5v-1264q0 -12 -7.5 -30.5t-39.5 -18.5h-305q-29 0 -39.5 14.5t-10.5 34.5v633l-387 -614q-16 -27 -44.5 -47.5t-76.5 -20.5h-221 q-29 0 -39 14.5t-10 34.5zM281.5 1727.5q-5.5 23.5 23.5 46.5l88 69q35 25 50.5 15.5t39.5 -37.5q70 -82 125.5 -117t132.5 -35q66 0 126.5 31t125.5 121q23 31 40.5 36t49.5 -16l86 -51q35 -23 30 -47.5t-28 -65.5q-70 -133 -179.5 -204.5t-248.5 -71.5q-66 0 -131 17.5 t-124.5 51t-107.5 84t-77 115.5q-16 35 -21.5 58.5z" />
<glyph unicode="&#x41a;" horiz-adv-x="1355" d="M133 49v1264q0 20 10.5 34.5t38.5 14.5h305q33 0 40.5 -18.5t7.5 -30.5v-441h69q41 0 83 20.5t67 94.5l94 299q8 20 14 33.5t17.5 22t29 11.5t45.5 3h275q53 0 37 -51l-109 -347q-35 -98 -71.5 -163.5t-96.5 -92.5q66 -29 97.5 -92t64.5 -155l129 -404q16 -51 -37 -51 h-293q-29 0 -46 3t-28.5 11.5t-17.5 21.5t-14 34l-103 360q-25 74 -63.5 94.5t-85.5 20.5h-57v-496q0 -12 -7.5 -30.5t-40.5 -18.5h-305q-29 0 -39 14.5t-10 34.5z" />
<glyph unicode="&#x41b;" horiz-adv-x="1337" d="M33 203q-2 31 8 41t41 18q45 12 78 29.5t54.5 49.5t32.5 84t15 134l45 754q0 23 13.5 36t35.5 13h799q23 0 36 -13.5t13 -35.5v-1264q0 -12 -7 -30.5t-40 -18.5h-305q-29 0 -39 14.5t-10 34.5v985h-146l-20 -370q-12 -170 -27.5 -298t-63.5 -214t-144.5 -130.5 t-268.5 -48.5q-63 -2 -76.5 14.5t-15.5 49.5z" />
<glyph unicode="&#x41c;" horiz-adv-x="1636" d="M133 49v1264q0 20 10.5 34.5t38.5 14.5h215q53 0 74 -12.5t37 -42.5l133 -265l176 -366h12l179 366l135 263q16 29 35.5 43t70.5 14h207q33 0 40 -18.5t7 -30.5v-1264q0 -12 -7 -30.5t-40 -18.5h-293q-29 0 -39 14.5t-10 34.5v469l-6 2l-72 -160l-51 -104 q-16 -29 -37.5 -48.5t-68.5 -19.5h-121q-43 0 -64.5 17.5t-38.5 46.5l-53 106l-76 166l-4 -2v-473q0 -12 -7 -30.5t-40 -18.5h-293q-29 0 -39 14.5t-10 34.5z" />
<glyph unicode="&#x41d;" horiz-adv-x="1374" d="M133 49v1264q0 20 10.5 34.5t38.5 14.5h305q33 0 40.5 -18.5t7.5 -30.5v-447h305v447q0 20 10 34.5t39 14.5h305q33 0 40 -18.5t7 -30.5v-1264q0 -12 -7 -30.5t-40 -18.5h-305q-29 0 -39 14.5t-10 34.5v486h-305v-486q0 -12 -7.5 -30.5t-40.5 -18.5h-305q-29 0 -39 14.5 t-10 34.5z" />
<glyph unicode="&#x41e;" horiz-adv-x="1458" d="M113 698q0 59 7 132t29.5 149t63.5 147.5t109.5 128t166 90t234.5 33.5q201 0 322.5 -61.5t188 -158.5t89.5 -218t23 -242q0 -76 -7.5 -158.5t-31 -161.5t-65.5 -151.5t-111.5 -127t-169 -86t-238.5 -31.5t-238.5 31.5t-167 87t-108.5 127t-62.5 151.5t-27.5 162t-6 157z M539 676q0 -188 41 -269t147 -81q111 0 157 82t46 268q0 98 -10.5 166.5t-34 111.5t-62.5 61.5t-96 18.5q-104 0 -146 -82t-42 -276z" />
<glyph unicode="&#x41f;" horiz-adv-x="1374" d="M133 49v1264q0 20 10.5 34.5t38.5 14.5h1012q33 0 40 -18.5t7 -30.5v-1264q0 -12 -7 -30.5t-40 -18.5h-305q-29 0 -39 14.5t-10 34.5v981h-305v-981q0 -12 -7.5 -30.5t-40.5 -18.5h-305q-29 0 -39 14.5t-10 34.5z" />
<glyph unicode="&#x420;" horiz-adv-x="1208" d="M133 49v1264q0 20 10.5 34.5t38.5 14.5h512q98 0 186.5 -26.5t155 -81t104.5 -136.5t38 -192q0 -72 -19.5 -151t-72 -144.5t-147.5 -109.5t-245 -44h-159v-428q0 -12 -7.5 -30.5t-40.5 -18.5h-305q-29 0 -39 14.5t-10 34.5zM535 797h98q23 0 46 5t41.5 18.5t31 35.5 t12.5 59q0 59 -36 88t-95 29h-98v-235z" />
<glyph unicode="&#x421;" horiz-adv-x="1267" d="M113 680q0 121 24.5 246t93 225t191.5 163.5t317 63.5q113 0 213.5 -17.5t180.5 -51.5q35 -16 56 -38t11 -73l-31 -145q-8 -39 -23.5 -46.5t-62.5 -2.5q-92 8 -168.5 13t-130.5 5q-72 0 -119 -25.5t-74.5 -69.5t-38.5 -105.5t-11 -133.5q0 -94 11 -161.5t38.5 -110.5 t74 -63.5t117.5 -20.5q39 0 73 1t67.5 3t73.5 5t94 9q47 4 61 -2t25 -47l34 -133q14 -49 -8 -73.5t-57 -41.5q-80 -35 -185.5 -54t-218.5 -19q-131 0 -227 28.5t-167 78.5t-116 116.5t-71.5 144.5t-36.5 163t-10 169z" />
<glyph unicode="&#x422;" horiz-adv-x="1103" d="M20 1077v236q0 23 8.5 36t41.5 13h964q23 0 36 -13.5t13 -35.5v-236q0 -18 -10 -31.5t-39 -13.5h-282v-983q0 -12 -7.5 -30.5t-39.5 -18.5h-306q-29 0 -39 14.5t-10 34.5v983h-280q-33 0 -41.5 13.5t-8.5 31.5z" />
<glyph unicode="&#x423;" horiz-adv-x="1357" d="M44 1347q5 17 34 17h301q41 0 59.5 -11.5t36.5 -47.5l109 -277l106 -295h12l111 301l92 250q20 37 38 58.5t58 21.5h289q29 0 34 -16.5t-5 -34.5l-387 -951q-39 -90 -77 -165.5t-89 -130t-121 -85t-170 -30.5q-18 0 -46 2t-57.5 5t-56 6t-41.5 7q-47 14 -57 33t-6 64 l16 139q4 39 21.5 43t66.5 0q51 -4 84 -3t52.5 5t28.5 13t16 22l16 32l-461 984q-12 27 -7 44z" />
<glyph unicode="&#x424;" horiz-adv-x="1787" d="M113 721q0 41 9 96t33.5 114.5t67.5 118t108.5 107.5t158 82t215.5 43v31q0 20 10 34.5t39 14.5h305q33 0 40 -18.5t7 -30.5v-33q170 -16 279.5 -72.5t174 -135.5t90 -172t25.5 -179q0 -82 -22.5 -178.5t-85 -182.5t-174 -149.5t-287.5 -79.5v-82q0 -12 -7 -30.5 t-40 -18.5h-305q-29 0 -39 14.5t-10 34.5v78q-188 12 -305 75.5t-180.5 151.5t-85 186.5t-21.5 180.5zM530 702q0 -113 45.5 -170t129.5 -73v493q-82 -16 -128.5 -75.5t-46.5 -174.5zM1106 463q74 18 118 74t44 165q0 115 -42 172.5t-120 73.5v-485z" />
<glyph unicode="&#x425;" horiz-adv-x="1269" d="M28 20.5q-3 20.5 13 49.5l362 624l-342 600q-16 27 -9 47.5t42 20.5h316q37 0 50 -9.5t29 -41.5l64 -140l74 -161l78 174l55 123q16 31 30.5 43t45.5 12h327q27 0 38 -6t14.5 -15.5t0 -20.5t-9.5 -20l-358 -606l364 -628q6 -10 9.5 -21.5t1.5 -21t-11.5 -16.5t-29.5 -7 h-320q-29 0 -48 9t-36 42l-63 139l-90 193l-90 -201l-56 -125q-16 -33 -36.5 -45t-55.5 -12h-321q-35 0 -38 20.5z" />
<glyph unicode="&#x426;" horiz-adv-x="1466" d="M133 49v1264q0 12 7 30.5t40 18.5h305q29 0 39.5 -14.5t10.5 -34.5v-981h305v981q0 12 7 30.5t40 18.5h305q29 0 39 -14.5t10 -34.5v-973l131 -14q31 -4 43 -20.5t8 -57.5l-26 -500q-4 -55 -13.5 -68.5t-48.5 -13.5h-213q-35 0 -46 10.5t-15 55.5l-14 268h-867 q-33 0 -40 18.5t-7 30.5z" />
<glyph unicode="&#x427;" horiz-adv-x="1337" d="M61 858v457q0 12 7.5 30.5t40.5 18.5h305q29 0 39 -14.5t10 -34.5v-434q0 -59 28.5 -88t94.5 -29q14 0 39.5 3t55.5 9t61.5 14.5t60.5 18.5v506q0 12 7 30.5t40 18.5h305q29 0 39 -14.5t10 -34.5v-417v-290v-196.5v-136v-108.5v-116q0 -23 -8 -36t-41 -13h-305 q-23 0 -36 13.5t-13 35.5l2 438q-70 -23 -151 -38t-142 -15q-137 0 -224 36t-137.5 94.5t-69 134t-18.5 157.5z" />
<glyph unicode="&#x428;" horiz-adv-x="1923" d="M133 49v1264q0 12 7 30.5t40 18.5h305q29 0 39.5 -14.5t10.5 -34.5v-981h217v981q0 12 7 30.5t40 18.5h305q29 0 39 -14.5t10 -34.5v-981h236v981q0 12 7 30.5t40 18.5h305q29 0 39 -14.5t10 -34.5v-1264q0 -12 -7 -30.5t-40 -18.5h-1563q-33 0 -40 18.5t-7 30.5z" />
<glyph unicode="&#x429;" horiz-adv-x="2015" d="M133 49v1264q0 12 7 30.5t40 18.5h305q29 0 39.5 -14.5t10.5 -34.5v-981h217v981q0 12 7 30.5t40 18.5h305q29 0 39 -14.5t10 -34.5v-981h236v981q0 12 7 30.5t40 18.5h305q29 0 39 -14.5t10 -34.5v-973l131 -14q31 -4 43 -20.5t8 -57.5l-26 -500q-4 -55 -13.5 -68.5 t-48.5 -13.5h-213q-35 0 -46 10.5t-15 55.5l-15 268h-1415q-33 0 -40 18.5t-7 30.5z" />
<glyph unicode="&#x42a;" horiz-adv-x="1583" d="M20 1077v236q0 23 8.5 36t41.5 13h725q23 0 36 -13.5t13 -35.5v-443h172q152 0 250 -42t154.5 -106.5t79 -142t22.5 -149.5q0 -111 -42 -192.5t-112 -134t-161 -78t-191 -25.5h-527q-29 0 -39 14.5t-10 34.5l-2 983h-368q-33 0 -41.5 13.5t-8.5 31.5zM842 324h143 q59 0 94 30.5t35 77.5q0 39 -11 63.5t-29.5 38t-42 17.5t-46.5 4h-143v-231z" />
<glyph unicode="&#x42b;" horiz-adv-x="1855" d="M133 49v1264q0 23 13.5 36t35.5 13h305q23 0 36.5 -13.5t13.5 -35.5v-443h172q152 0 250 -42t154 -106.5t78.5 -142t22.5 -149.5q0 -111 -42 -192.5t-111.5 -134t-160.5 -78t-191 -25.5h-527q-29 0 -39 14.5t-10 34.5zM535 324h143q59 0 94 30.5t35 77.5q0 39 -11.5 63.5 t-29.5 38t-42 17.5t-46 4h-143v-231zM1321 49v1264q0 20 10 34.5t39 14.5h305q33 0 40 -18.5t7 -30.5v-1264q0 -12 -7 -30.5t-40 -18.5h-305q-29 0 -39 14.5t-10 34.5z" />
<glyph unicode="&#x42c;" horiz-adv-x="1275" d="M133 49v1264q0 23 13.5 36t35.5 13h305q23 0 36.5 -13.5t13.5 -35.5v-443h172q152 0 250 -42t154 -106.5t78.5 -142t22.5 -149.5q0 -111 -42 -192.5t-111.5 -134t-160.5 -78t-191 -25.5h-527q-29 0 -39 14.5t-10 34.5zM535 324h143q59 0 94 30.5t35 77.5q0 39 -11.5 63.5 t-29.5 38t-42 17.5t-46 4h-143v-231z" />
<glyph unicode="&#x42d;" horiz-adv-x="1288" d="M78 168l35 133q10 39 29.5 46t56.5 3q53 -6 93 -9t73.5 -5t66.5 -3t74 -1q111 0 163 48t68 152h-422q-29 0 -39 13.5t-10 32.5v215q0 23 13.5 36t35.5 13h416q-4 88 -54 134t-153 46q-27 0 -63.5 -1t-76.5 -3t-81 -5t-78 -9t-57.5 2t-28.5 47l-30 145q-10 51 11 72.5 t56 38.5q80 35 180.5 52t212.5 17q195 0 315 -63.5t184.5 -163.5t86 -225t21.5 -246q0 -127 -26 -252t-94.5 -224.5t-191.5 -161.5t-317 -62q-113 0 -218.5 19t-185.5 54q-35 16 -57.5 41t-7.5 74z" />
<glyph unicode="&#x42e;" horiz-adv-x="1964" d="M133 49v1264q0 20 10.5 34.5t38.5 14.5h305q33 0 40.5 -18.5t7.5 -30.5v-451h139q14 86 48 177t100.5 165t171 121t257.5 47q190 0 307 -60.5t182.5 -157.5t88 -218t22.5 -242q0 -76 -8 -157.5t-30.5 -160.5t-63.5 -150.5t-107.5 -126t-163 -86t-227.5 -31.5 q-166 0 -274.5 49t-174 128t-95 178t-39.5 202h-133v-490q0 -12 -7.5 -30.5t-40.5 -18.5h-305q-29 0 -39 14.5t-10 34.5zM1085 674q0 -188 42 -269t128 -81q88 0 134.5 82t46.5 268q0 197 -43 276.5t-138 79.5q-90 0 -130 -82t-40 -274z" />
<glyph unicode="&#x42f;" horiz-adv-x="1337" d="M86 51l121 352q14 43 27.5 73t29 51.5t33.5 37t43 29.5q-59 20 -97 59t-60.5 85t-32 97.5t-9.5 98.5q0 113 40 193.5t106.5 133t150.5 77t172 24.5h545q29 0 39 -14.5t10 -34.5v-1264q0 -20 -10 -34.5t-39 -14.5h-305q-33 0 -40 18.5t-7 30.5v461h-74q-37 0 -65.5 -24.5 t-51.5 -88.5l-110 -327q-8 -20 -14.5 -33.5t-17.5 -22t-28.5 -11.5t-46.5 -3h-272q-53 0 -37 51zM555 922q0 -31 11.5 -52.5t28.5 -34t37.5 -17.5t41.5 -5h129v219h-123q-53 0 -89 -28.5t-36 -81.5z" />
<glyph unicode="&#x430;" horiz-adv-x="1228" d="M74 293q-2 98 28.5 163.5t84 104.5t127 55.5t159.5 16.5h215v16q0 20 -5 35.5t-20.5 27t-46 16.5t-81.5 5q-18 0 -50 -2t-69 -4t-74 -6t-66 -6q-27 -4 -43 -5t-26 3t-15.5 14t-9.5 29l-28 131q-6 31 7 52.5t72 43.5q37 14 85.5 24.5t97.5 16.5t96 9t82 3q154 0 246 -26.5 t142 -76.5t66.5 -125t16.5 -171v-262q0 -66 15.5 -81t62.5 -22q29 -4 37 -11t8 -30v-168q0 -27 -18.5 -39t-49.5 -20q-37 -10 -73.5 -13t-77.5 -3q-39 0 -77 5t-69.5 20.5t-56.5 42t-37 71.5l-4 2q-41 -45 -91 -73.5t-100.5 -44t-94.5 -21.5t-72 -6q-96 0 -153.5 27.5 t-88.5 72.5t-41 100.5t-10 108.5zM463 315q0 -31 13 -43t48 -12t79 15.5t77 33.5v90h-133q-39 0 -61.5 -18.5t-22.5 -65.5z" />
<glyph unicode="&#x431;" horiz-adv-x="1175" d="M78 612q0 37 1 85t5 101.5t12 110t25 105.5q35 111 105.5 205t187.5 157q43 23 87 41.5t94 35.5t108.5 34.5t127.5 40.5q18 6 34 3t26 -26l70 -188q8 -23 11 -43.5t-28 -30.5q-53 -16 -101 -30.5t-89 -28.5q-66 -23 -117 -45.5t-87 -51t-57.5 -66.5t-27.5 -89h2 q47 33 99 45t96 12q127 0 211.5 -41t135 -110.5t71 -160.5t20.5 -192q0 -86 -19.5 -176t-75 -162.5t-154.5 -118.5t-261 -46q-182 0 -284.5 54t-154 143t-62.5 203t-11 230zM481 487q0 -86 20.5 -134t86.5 -48q39 0 61.5 15.5t34.5 41t16.5 60.5t4.5 74q-2 82 -20.5 128 t-92.5 46q-68 0 -89.5 -53.5t-21.5 -129.5z" />
<glyph unicode="&#x432;" horiz-adv-x="1136" d="M92 45v928q0 20 10.5 32.5t38.5 12.5h508q199 0 292 -78t93 -219q0 -14 -5 -36.5t-17.5 -48.5t-36 -51.5t-60.5 -43.5q49 -20 79 -50t45.5 -61t20.5 -59.5t5 -48.5q0 -78 -32 -138.5t-86 -101.5t-124.5 -61.5t-150.5 -20.5h-531q-29 0 -39 12.5t-10 32.5zM467 283h139 q39 0 55.5 21t16.5 44q0 27 -16.5 44.5t-55.5 17.5h-139v-127zM467 635h115q33 0 46 16.5t13 32.5q0 20 -12.5 36.5t-46.5 16.5h-115v-102z" />
<glyph unicode="&#x433;" horiz-adv-x="980" d="M92 45v924q0 20 8.5 34.5t36.5 14.5h770q20 0 31.5 -10.5t11.5 -38.5v-201q0 -33 -15 -40t-28 -7h-430v-676q0 -12 -7 -28.5t-40 -16.5h-289q-29 0 -39 12.5t-10 32.5z" />
<glyph unicode="&#x434;" horiz-adv-x="1351" d="M23 203q-4 41 16 60.5t43 23.5l59 8q47 53 73 103.5t38 131.5l49 340q14 88 52 118t128 30h639q23 0 40.5 -13.5t17.5 -46.5v-669l61 -6q66 -8 59 -88l-20 -410q-2 -47 -20.5 -56.5t-53.5 -9.5h-178q-35 0 -46 11.5t-13 42.5l-11 227h-583l-21 -227q-4 -37 -16 -45.5 t-35 -8.5h-213q-31 0 -40 12.5t-11 47.5zM561 297h232v422h-144l-24 -217q-6 -53 -20.5 -105.5t-43.5 -99.5z" />
<glyph unicode="&#x435;" horiz-adv-x="1132" d="M82 498q0 74 13.5 167t63.5 176t148.5 139t267.5 56q154 0 249.5 -43t147.5 -111.5t70.5 -152.5t18.5 -166q0 -70 -26.5 -104.5t-96.5 -34.5h-465q4 -43 20.5 -68.5t43 -39t61.5 -16.5t76 -3t97 4t124 14q49 6 60.5 -1t19.5 -52l20 -121q10 -47 1 -69.5t-68 -44.5 q-31 -10 -73 -18.5t-87 -14.5t-89 -9t-81 -3q-162 0 -262 42t-156.5 112.5t-77 164.5t-20.5 197zM479 635h187q0 59 -25 88t-66 29q-39 0 -65.5 -29t-30.5 -88z" />
<glyph unicode="&#x436;" horiz-adv-x="1681" d="M35 51l69 221q41 123 88.5 174.5t118.5 69.5v6q-59 14 -102 67.5t-84 176.5l-68 199q-8 16 2.5 33.5t34.5 17.5h246q29 0 46 -3t28.5 -11.5t17.5 -21.5t14 -34l70 -170q14 -37 27.5 -54t29 -25.5t32 -8.5h34.5h14v281q0 20 10.5 34.5t38.5 14.5h283q33 0 40 -18.5 t7 -30.5v-281h15h35.5t32.5 8.5t29.5 25.5t29.5 54l69 170q8 20 14.5 33.5t17.5 22t28.5 11.5t46.5 3h245q25 0 35 -17.5t2 -33.5l-67 -199q-41 -123 -86 -175t-105 -69v-6q72 -18 117 -69.5t86 -174.5l70 -221q8 -16 -2.5 -33.5t-34.5 -17.5h-262q-29 0 -46.5 3t-28.5 11.5 t-17.5 21.5t-14.5 34l-61 192q-25 74 -61 94.5t-72 20.5h-15v-328q0 -12 -7 -30.5t-40 -18.5h-283q-29 0 -39 14.5t-10 34.5v328h-14q-37 0 -75 -20.5t-62 -94.5l-62 -192q-8 -20 -14 -33.5t-17.5 -22t-29 -11.5t-45.5 -3h-262q-25 0 -35 17.5t-2 33.5z" />
<glyph unicode="&#x437;" horiz-adv-x="1032" d="M42.5 74q-9.5 22 0.5 69l27 123q8 33 18 40t49 3q80 -10 147.5 -16t153.5 -6q66 0 91.5 19.5t25.5 37.5q0 27 -28.5 38t-69.5 11h-121q-31 0 -40 9.5t-9 35.5v158q0 23 9 32t40 9h94q61 0 87 12.5t26 34.5q0 49 -68 49q-23 0 -55.5 -2t-70.5 -4t-74.5 -6t-67.5 -6 q-27 -4 -42 -5t-24.5 3t-13.5 14t-8 31l-29 133q-8 39 8.5 56.5t48.5 31.5q72 31 172.5 46t206.5 15q78 0 153 -16t133 -51t94 -92.5t36 -139.5q0 -18 -7 -46.5t-21.5 -57.5t-39 -57.5t-57.5 -47.5v-6q43 -20 69.5 -46.5t42 -55.5t20.5 -57.5t5 -53.5q0 -106 -48 -170.5 t-121.5 -100.5t-158.5 -48t-159 -12q-37 0 -84 3t-96 8t-95.5 14t-80.5 22q-59 23 -68.5 45z" />
<glyph unicode="&#x438;" horiz-adv-x="1212" d="M92 49v920q0 20 10.5 34.5t38.5 14.5h289q33 0 40 -18.5t7 -30.5v-396h8l129 211l117 185q16 23 38 36t69 13h235q33 0 40 -18.5t7 -30.5v-920q0 -12 -7 -30.5t-40 -18.5h-289q-29 0 -39 14.5t-10 34.5v414h-8l-125 -197l-139 -211q-18 -27 -40 -41t-67 -14h-215 q-29 0 -39 14.5t-10 34.5z" />
<glyph unicode="&#x439;" horiz-adv-x="1212" d="M92 49v920q0 20 10.5 34.5t38.5 14.5h289q33 0 40 -18.5t7 -30.5v-396h8l129 211l117 185q16 23 38 36t69 13h235q33 0 40 -18.5t7 -30.5v-920q0 -12 -7 -30.5t-40 -18.5h-289q-29 0 -39 14.5t-10 34.5v414h-8l-125 -197l-139 -211q-18 -27 -40 -41t-67 -14h-215 q-29 0 -39 14.5t-10 34.5zM155 1414.5q-5 23.5 23 45.5l88 70q35 25 50.5 15.5t39.5 -38.5q70 -82 125.5 -116.5t132.5 -34.5q66 0 126.5 30.5t125.5 120.5q23 31 40.5 36t49.5 -15l86 -51q35 -23 30 -47.5t-28 -65.5q-70 -133 -179.5 -205t-248.5 -72q-66 0 -131 17.5 t-124.5 51.5t-107.5 84t-77 116q-16 35 -21 58.5z" />
<glyph unicode="&#x43a;" horiz-adv-x="1140" d="M92 49v920q0 20 10.5 34.5t38.5 14.5h289q33 0 40 -18.5t7 -30.5v-281h15h35.5t34 8.5t30.5 25.5t29 54l69 170q8 20 14.5 33.5t17.5 22t28.5 11.5t46.5 3h245q25 0 35 -17.5t2 -33.5l-67 -199q-41 -123 -87 -175t-106 -69v-6q72 -18 117 -69.5t86 -174.5l70 -221 q8 -16 -2.5 -33.5t-34.5 -17.5h-262q-29 0 -46.5 3t-28.5 11.5t-17.5 21.5t-14.5 34l-61 192q-25 74 -61 94.5t-72 20.5h-15v-328q0 -12 -7 -30.5t-40 -18.5h-289q-29 0 -39 14.5t-10 34.5z" />
<glyph unicode="&#x43b;" horiz-adv-x="1210" d="M16 197q-2 27 6.5 40t45.5 25q35 12 61.5 23.5t46 31t31.5 50t18 77.5l49 416q6 47 17.5 78t34 48.5t57.5 24.5t88 7h600q33 0 40 -16.5t7 -28.5v-928q0 -12 -7 -28.5t-40 -16.5h-289q-29 0 -39 12.5t-10 32.5v674h-129l-39 -342q-10 -84 -30.5 -158t-70.5 -129 t-142.5 -88t-241.5 -33q-33 0 -40 13.5t-9 42.5z" />
<glyph unicode="&#x43c;" horiz-adv-x="1368" d="M92 45v926q0 20 9.5 32.5t37.5 12.5h238q49 0 66.5 -10.5t33.5 -38.5l103 -213l108 -224l115 228l102 209q14 29 33.5 39t67.5 10h223q29 0 38 -11.5t9 -31.5v-928q0 -20 -9.5 -32.5t-37.5 -12.5h-273q-33 0 -40 16.5t-7 28.5v336h-4l-43 -102l-35 -80q-10 -23 -28.5 -35 t-53.5 -12h-110q-43 0 -62.5 11t-29.5 36l-33 69l-47 113h-4v-336q0 -12 -7.5 -28.5t-39.5 -16.5h-273q-29 0 -38 12.5t-9 32.5z" />
<glyph unicode="&#x43d;" horiz-adv-x="1191" d="M92 49v920q0 20 8.5 34.5t36.5 14.5h297q33 0 38 -18.5t5 -30.5v-305h238v305q0 20 8 34.5t37 14.5h297q33 0 38 -18.5t5 -30.5v-920q0 -12 -5 -30.5t-38 -18.5h-297q-29 0 -37 14.5t-8 34.5v338h-238v-338q0 -12 -5 -30.5t-38 -18.5h-297q-29 0 -37 14.5t-8 34.5z" />
<glyph unicode="&#x43e;" horiz-adv-x="1169" d="M82 522q0 68 15.5 157t66.5 168t149.5 134t264.5 55t266 -47t154.5 -121.5t71.5 -166t17 -179.5q0 -82 -13 -176t-64.5 -175t-152.5 -134t-279 -53q-174 0 -273.5 53t-149 134t-61.5 175t-12 176zM471 510q0 -109 21.5 -156t85.5 -47q72 0 95 50.5t23 152.5t-20.5 151.5 t-93.5 49.5q-63 0 -87 -52.5t-24 -148.5z" />
<glyph unicode="&#x43f;" horiz-adv-x="1193" d="M92 49v920q0 49 49 49h914q31 0 39 -12.5t8 -34.5v-922q0 -12 -7.5 -30.5t-39.5 -18.5h-289q-29 0 -39 14.5t-10 34.5l2 666h-242v-666q0 -12 -7 -30.5t-40 -18.5h-289q-29 0 -39 14.5t-10 34.5z" />
<glyph unicode="&#x440;" horiz-adv-x="1173" d="M92 -371v1340q0 20 10.5 34.5t38.5 14.5h289q33 0 40 -18.5t7 -30.5v-39l4 -2q78 59 142.5 82.5t121.5 23.5q111 0 179.5 -43t105.5 -115.5t50.5 -168t13.5 -199.5q0 -121 -17.5 -218t-64.5 -168t-129 -109t-213 -38q-35 0 -91.5 7.5t-101.5 17.5v-371q0 -12 -7 -30.5 t-40 -18.5h-289q-29 0 -39 14.5t-10 34.5zM475 315q35 -8 57.5 -10t40.5 -2q33 0 57.5 7t40 27.5t22.5 59.5t7 105q0 104 -23.5 141t-72.5 37q-35 0 -67.5 -11.5t-61.5 -23.5v-330z" />
<glyph unicode="&#x441;" horiz-adv-x="1028" d="M82 512q0 92 18.5 185.5t71.5 168t150.5 122.5t255.5 48q92 0 176 -12t149 -41q33 -14 47.5 -33.5t5.5 -58.5l-28 -158q-4 -20 -8.5 -30.5t-13.5 -13.5t-24.5 -2t-41.5 3q-61 6 -106.5 9t-90.5 3q-88 0 -130 -47t-42 -137q0 -115 36 -160t128 -45q41 0 102.5 4.5 t128.5 12.5q39 4 49.5 0t18.5 -43l27 -144q10 -47 0.5 -69.5t-68.5 -44.5q-31 -10 -71 -19.5t-82 -15.5t-84 -9t-78 -3q-162 0 -260.5 46t-150.5 120.5t-68.5 170t-16.5 193.5z" />
<glyph unicode="&#x442;" horiz-adv-x="1011" d="M20 766v201q0 29 10.5 39t30.5 10h889q20 0 30.5 -10.5t10.5 -38.5v-201q0 -33 -14 -40t-27 -7h-250v-674q0 -12 -7 -28.5t-40 -16.5h-288q-29 0 -39.5 12.5t-10.5 32.5v674h-254q-12 0 -26.5 7t-14.5 40z" />
<glyph unicode="&#x443;" horiz-adv-x="1122" d="M20 958q-25 59 39 60h271q33 0 52 -6t30 -47l67 -230l72 -258h12l82 266l70 226q8 23 23.5 36t62.5 13h246q43 0 49 -15.5t-6 -46.5l-496 -1318q-14 -35 -30.5 -45.5t-57.5 -10.5h-244q-35 0 -46 12.5t5 47.5l150 397z" />
<glyph unicode="&#x444;" horiz-adv-x="1585" d="M82 518q0 82 24.5 168t84 159t159 126t248.5 69v273q0 20 8 34.5t37 14.5h297q33 0 38 -18.5t5 -30.5v-269q152 -14 252 -67t159.5 -127t84 -162t24.5 -170q0 -78 -18.5 -164t-73.5 -162.5t-157.5 -135t-270.5 -79.5v-290q0 -12 -5 -30.5t-38 -18.5h-297q-29 0 -37 14 t-8 35v290q-170 10 -271.5 67.5t-155.5 136.5t-71.5 169t-17.5 168zM459 506q0 -41 6 -77t22.5 -62.5t44 -44t68.5 -23.5v416q-55 -10 -98 -58.5t-43 -150.5zM985 297q66 12 101.5 61.5t35.5 147.5q0 190 -137 211v-420z" />
<glyph unicode="&#x445;" horiz-adv-x="1163" d="M13 15.5q-9 15.5 14 47.5l307 455l-285 438q-14 20 -10 41t39 21h313q35 0 46.5 -7t27.5 -32l119 -225l118 223q14 23 25.5 32t40.5 9h332q47 0 48 -19.5t-15 -42.5l-299 -438l307 -455q16 -23 10 -43t-41 -20h-317q-27 0 -43.5 7t-32.5 32l-135 248l-129 -244 q-16 -25 -35 -34t-49 -9h-318q-29 0 -38 15.5z" />
<glyph unicode="&#x446;" horiz-adv-x="1232" d="M92 49v920q0 20 8.5 34.5t36.5 14.5h297q33 0 38 -18.5t5 -30.5v-672h225v672q0 20 8.5 34.5t37.5 14.5h294q18 0 30.5 -8.5t12.5 -40.5v-672l72 -6q35 -4 41 -20.5t2 -55.5l-20 -430q-2 -23 -5.5 -36t-9.5 -19t-16 -8.5t-29 -2.5h-192q-41 0 -52.5 11.5t-13.5 42.5 l-6 227h-719q-29 0 -37 14.5t-8 34.5z" />
<glyph unicode="&#x447;" horiz-adv-x="1163" d="M61 666v303q0 12 5.5 30.5t37.5 18.5h299q29 0 36 -14.5t7 -34.5v-273q0 -80 31 -101.5t74 -21.5q35 0 70.5 11.5t64.5 21.5v363q0 12 5 30.5t38 18.5h297q29 0 37 -14.5t8 -34.5v-920q0 -20 -8 -34.5t-37 -14.5h-299q-33 0 -38 18.5t-5 30.5v262q-80 -35 -149.5 -48 t-126.5 -13q-123 0 -192 40t-103.5 101.5t-43 134t-8.5 140.5z" />
<glyph unicode="&#x448;" horiz-adv-x="1665" d="M92 49v920q0 20 8.5 34.5t36.5 14.5h297q33 0 38 -18.5t5 -30.5v-666h162v666q0 20 8 34.5t37 14.5h297q33 0 38 -18.5t5 -30.5v-666h162v666q0 20 9 34.5t38 14.5h295q18 0 30.5 -8.5t12.5 -40.5l2 -920q0 -20 -8.5 -34.5t-36.5 -14.5h-1391q-29 0 -37 14.5t-8 34.5z " />
<glyph unicode="&#x449;" horiz-adv-x="1720" d="M92 49v920q0 20 8.5 34.5t36.5 14.5h297q33 0 38 -18.5t5 -30.5v-672h162v672q0 20 8 34.5t37 14.5h297q33 0 38 -18.5t5 -30.5v-672h166v672q0 20 8 34.5t37 14.5h295q18 0 30.5 -8.5t12.5 -40.5v-672l72 -6q35 -4 41 -20.5t2 -55.5l-21 -430q-2 -23 -5 -36t-9 -19 t-16.5 -8.5t-28.5 -2.5h-193q-41 0 -52 11.5t-13 42.5l-7 227h-1206q-29 0 -37 14.5t-8 34.5z" />
<glyph unicode="&#x44a;" horiz-adv-x="1363" d="M20 764v209q0 33 15.5 38t27.5 5h145.5h104.5t82 1t78 1h93h126q33 0 40 -16.5t7 -28.5v-281h148q137 0 221 -35.5t129 -89t60.5 -116t15.5 -117.5q0 -84 -33 -147.5t-90 -104.5t-135 -61.5t-168 -20.5h-477q-29 0 -39.5 12.5t-10.5 32.5v674h-297q-20 0 -31.5 8 t-11.5 37zM741 293h121q45 0 67.5 16t22.5 41q0 45 -27.5 56.5t-62.5 11.5h-121v-125z" />
<glyph unicode="&#x44b;" horiz-adv-x="1619" d="M92 45v928q0 20 8.5 32.5t36.5 12.5h299q33 0 37 -16.5t4 -28.5v-281h141q137 0 221.5 -35.5t129.5 -89t60 -116t15 -117.5q0 -84 -32.5 -147.5t-90 -104.5t-135 -61.5t-168.5 -20.5h-481q-29 0 -37 12.5t-8 32.5zM479 293h115q45 0 67.5 16t22.5 41q0 45 -27.5 56.5 t-62.5 11.5h-115v-125zM1143 49v920q0 20 8 34.5t37 14.5h297q33 0 38 -18.5t5 -30.5v-920q0 -12 -5 -30.5t-38 -18.5h-297q-29 0 -37 14.5t-8 34.5z" />
<glyph unicode="&#x44c;" horiz-adv-x="1095" d="M92 45v928q0 20 8.5 32.5t36.5 12.5h299q33 0 37 -16.5t4 -28.5v-281h141q137 0 221.5 -35.5t129.5 -89t60 -116t15 -117.5q0 -84 -32.5 -147.5t-90 -104.5t-135 -61.5t-168.5 -20.5h-481q-29 0 -37 12.5t-8 32.5zM479 293h115q45 0 67.5 16t22.5 41q0 45 -27.5 56.5 t-62.5 11.5h-115v-125z" />
<glyph unicode="&#x44d;" horiz-adv-x="1038" d="M77 74q-9 22 1 69l16 123q8 39 18.5 43t49.5 0q68 -8 129 -12t102 -4q59 0 100.5 19.5t55.5 78.5h-262q-35 0 -47.5 14.5t-12.5 38.5v154q0 29 10.5 38t49.5 9h254q-14 51 -51 69.5t-91 18.5q-45 0 -88 -3t-104 -9q-27 -2 -42 -3t-24.5 2t-13.5 13t-8 31l-25 127 q-8 39 6.5 58.5t46.5 33.5q66 29 152 41t178 12q158 0 253 -48t145.5 -122.5t65.5 -168t15 -185.5q0 -98 -18 -193.5t-72.5 -170t-154 -120.5t-260.5 -46q-72 0 -157 12t-149 35q-59 23 -68 45z" />
<glyph unicode="&#x44e;" horiz-adv-x="1609" d="M92 49v920q0 20 8.5 34.5t36.5 14.5h297q33 0 38 -18.5t5 -30.5v-307h105q12 66 39.5 132t81 119.5t136.5 87t203 33.5q156 0 251.5 -47t147.5 -121.5t69.5 -166t17.5 -179.5q0 -80 -13.5 -174t-62.5 -175t-146.5 -134t-263.5 -53q-133 0 -220 35.5t-139 94t-75.5 131 t-32.5 146.5h-98v-342q0 -12 -5 -30.5t-38 -18.5h-297q-29 0 -37 14.5t-8 34.5zM940 510q0 -109 22.5 -156t79.5 -47q66 0 89.5 50.5t23.5 152.5q0 100 -21.5 149.5t-86.5 49.5q-59 0 -83 -52.5t-24 -146.5z" />
<glyph unicode="&#x44f;" horiz-adv-x="1132" d="M55 51l58 178q29 86 59.5 134.5t77.5 70.5q-84 41 -114 111.5t-30 138.5q0 84 32 147.5t88.5 105.5t133 62.5t166.5 20.5h471q29 0 36 -11.5t7 -31.5v-934q0 -20 -7 -31.5t-36 -11.5h-295q-33 0 -40 15.5t-7 27.5v307h-30q-35 0 -66 -20.5t-55 -93.5l-51 -166 q-8 -20 -14.5 -33.5t-17.5 -22t-28.5 -11.5t-46.5 -3h-254q-53 0 -37 51zM489 684q0 -39 24 -51t54 -12h88v122h-92q-39 0 -56.5 -18t-17.5 -41z" />
<glyph unicode="&#x451;" horiz-adv-x="1132" d="M82 498q0 74 13.5 167t63.5 176t148.5 139t267.5 56q154 0 249.5 -43t147.5 -111.5t70.5 -152.5t18.5 -166q0 -70 -26.5 -104.5t-96.5 -34.5h-465q4 -43 20.5 -68.5t43 -39t61.5 -16.5t76 -3t97 4t124 14q49 6 60.5 -1t19.5 -52l20 -121q10 -47 1 -69.5t-68 -44.5 q-31 -10 -73 -18.5t-87 -14.5t-89 -9t-81 -3q-162 0 -262 42t-156.5 112.5t-77 164.5t-20.5 197zM162 1284q0 35 7 65.5t27.5 52t55.5 34t90 12.5q57 0 92 -11.5t55.5 -33t27.5 -52t7 -67.5q0 -35 -6 -65.5t-26.5 -54t-56.5 -37t-93 -13.5q-61 0 -97 14.5t-54.5 38t-23.5 54 t-5 63.5zM479 635h187q0 59 -25 88t-66 29q-39 0 -65.5 -29t-30.5 -88zM614 1284q0 35 8.5 65.5t28 52t54 34t90.5 12.5q57 0 93 -11.5t55.5 -33t26.5 -52t7 -67.5q0 -35 -6 -65.5t-25.5 -54t-55.5 -37t-95 -13.5t-95 14.5t-54.5 38t-25 54t-6.5 63.5z" />
<glyph unicode="&#x452;" horiz-adv-x="1361" d="M84 1100v125q0 25 7 30t30 5h74v139q0 20 8 34.5t37 14.5h301q33 0 37 -18.5t4 -30.5v-139h346q23 0 28 -7.5t5 -29.5v-125q0 -18 -4.5 -26.5t-26.5 -8.5h-350v-193h2q72 39 155.5 53.5t149.5 14.5q106 0 181 -40t122 -109.5t68.5 -166t21.5 -208.5q0 -102 -25.5 -203.5 t-79 -192t-135.5 -167t-194 -130.5q-47 -20 -67.5 -19t-41.5 36l-78 131q-12 20 -15 33.5t2 24t18.5 21.5t35.5 27q41 31 79 74t66.5 98.5t45 124t16.5 152.5q0 53 -11 89t-31.5 56.5t-50.5 28.5t-64 8q-31 0 -75 -9t-95 -30v-518q0 -12 -4.5 -30.5t-36.5 -18.5h-299 q-29 0 -37 14.5t-8 34.5v1014h-74q-23 0 -30 7t-7 30z" />
<glyph unicode="&#x453;" horiz-adv-x="980" d="M92 45v924q0 20 8.5 34.5t36.5 14.5h770q20 0 31.5 -10.5t11.5 -38.5v-201q0 -33 -15 -40t-28 -7h-430v-676q0 -12 -7 -28.5t-40 -16.5h-289q-29 0 -39 12.5t-10 32.5zM300.5 1197q-7.5 11 6.5 36l211 379q16 29 34.5 31t33.5 -7l184 -110q23 -12 27 -31.5t-15 -44.5 l-268 -328q-12 -16 -26.5 -24t-34.5 4l-129 74q-16 10 -23.5 21z" />
<glyph unicode="&#x454;" horiz-adv-x="1038" d="M82 512q0 92 18.5 185.5t71.5 168t150.5 122.5t255.5 48q92 0 176 -12t149 -41q33 -14 47.5 -33.5t5.5 -58.5l-24 -127q-4 -20 -8 -30.5t-13.5 -13.5t-25 -2t-41.5 3q-61 6 -106.5 9t-90.5 3q-53 0 -94 -18.5t-55 -69.5h254q39 0 49 -9t10 -38v-154q0 -25 -12.5 -39 t-46.5 -14h-263q14 -59 55.5 -78.5t100.5 -19.5q41 0 102.5 4t129.5 12q39 4 49 0t18 -43l17 -123q10 -47 0.5 -69.5t-68.5 -44.5q-31 -10 -71 -19.5t-82 -15.5t-84 -9t-78 -3q-162 0 -260.5 46t-150.5 120.5t-68.5 170t-16.5 193.5z" />
<glyph unicode="&#x455;" horiz-adv-x="1048" d="M76 150l28 120q8 35 20.5 42t53.5 -1q76 -14 159 -21t136 -7q63 0 88 10t25 33t-18.5 31t-59.5 12q-90 12 -167 28.5t-134 50t-90 91t-33 153.5q0 86 35 150.5t94 107.5t141 64.5t176 21.5q37 0 79 -3t85 -9t83 -14.5t73 -18.5q53 -18 79.5 -35.5t14.5 -68.5l-31 -129 q-8 -35 -16 -41t-49 -2q-37 4 -81 9t-86 8t-78 6t-54 3q-61 2 -71.5 -10t-10.5 -24q0 -20 32.5 -26.5t57.5 -10.5q84 -10 161 -26.5t134 -51.5t91 -96.5t34 -159.5q0 -100 -41 -168t-108.5 -110t-154.5 -59t-181 -17q-37 0 -80 3t-87 9t-85 14t-74 19q-68 23 -85.5 46 t-4.5 77z" />
<glyph unicode="&#x456;" horiz-adv-x="618" d="M113 49v920q0 20 10 34.5t39 14.5h289q33 0 40 -18.5t7 -30.5v-920q0 -12 -7.5 -30.5t-39.5 -18.5h-289q-29 0 -39 14.5t-10 34.5zM113 1284q0 37 9 69.5t30.5 57.5t59.5 39t97 14q61 0 99 -13t59.5 -37.5t30 -57.5t8.5 -72q0 -35 -7 -66.5t-28.5 -58t-60.5 -42 t-101 -15.5q-66 0 -103.5 16.5t-59 42t-27.5 58t-6 65.5z" />
<glyph unicode="&#x457;" horiz-adv-x="589" d="M-111 1270q0 35 7.5 65.5t28 52t55 34t90.5 12.5q57 0 92 -11.5t55.5 -33t27.5 -52t7 -67.5q0 -35 -6 -65.5t-26.5 -54.5t-56.5 -37t-93 -13q-61 0 -97 14t-54.5 38t-24 54.5t-5.5 63.5zM102 49v920q0 20 10.5 34.5t39.5 14.5h288q33 0 40 -18.5t7 -30.5v-920 q0 -12 -7 -30.5t-40 -18.5h-288q-29 0 -39.5 14.5t-10.5 34.5zM342 1270q0 35 8 65.5t27.5 52t54.5 34t90 12.5q57 0 93 -11.5t55.5 -33t27 -52t7.5 -67.5q0 -35 -6.5 -65.5t-26 -54.5t-55.5 -37t-95 -13t-95 14t-54.5 38t-24.5 54.5t-6 63.5z" />
<glyph unicode="&#x458;" horiz-adv-x="647" d="M-158 -182q-4 37 2 44t41 15q74 16 123 29.5t80 34t43 52.5t12 87v889q0 20 10.5 34.5t39.5 14.5h288q33 0 40 -18.5t7 -30.5v-879q0 -168 -47 -274.5t-128 -165t-192.5 -77.5t-240.5 -15q-14 0 -34.5 9t-24.5 42zM141 1284q0 37 9.5 69.5t31 57.5t59.5 39t97 14 q61 0 99 -13t59.5 -37.5t30 -57.5t8.5 -72q0 -35 -7.5 -66.5t-29 -58t-60.5 -42t-100 -15.5q-66 0 -103.5 16.5t-59 42t-28 58t-6.5 65.5z" />
<glyph unicode="&#x459;" horiz-adv-x="1722" d="M16 197q-2 27 6.5 40t45.5 25q35 12 61.5 23.5t46 31t31.5 50t18 77.5l49 416q6 47 17.5 78t34 48.5t57.5 24.5t88 7h600q27 0 30 -18.5t3 -30.5v-277h141q137 0 221 -35.5t129 -89t60.5 -116t15.5 -117.5q0 -84 -32.5 -147.5t-90 -104.5t-135.5 -61.5t-168 -20.5h-477 q-29 0 -39 10t-10 31v678h-115l-39 -342q-10 -84 -30.5 -158t-70.5 -129t-142.5 -88t-241.5 -33q-33 0 -40 13.5t-9 42.5zM1106 293h123q35 0 56.5 16t21.5 41q0 45 -26 56.5t-52 11.5h-123v-125z" />
<glyph unicode="&#x45a;" horiz-adv-x="1656" d="M92 47v922q0 20 7 34.5t36 14.5h299q33 0 38 -18.5t5 -30.5v-291h176v291q0 20 7.5 34.5t35.5 14.5h299q33 0 38 -18.5t5 -30.5v-283h142q137 0 221 -35t129 -87t60.5 -113.5t15.5 -116.5q0 -84 -33 -147.5t-90.5 -104.5t-135 -61.5t-167.5 -20.5h-484q-29 0 -36 13.5 t-7 33.5v352h-176v-352q0 -12 -5 -29.5t-38 -17.5h-299q-29 0 -36 13.5t-7 33.5zM1038 293h127q39 0 58.5 15t19.5 40q0 35 -21.5 51.5t-56.5 16.5h-127v-123z" />
<glyph unicode="&#x45b;" horiz-adv-x="1187" d="M-18 1100v125q0 25 7 30t29 5h74v139q0 20 8.5 34.5t36.5 14.5h299q33 0 38 -18.5t5 -30.5v-139h326q23 0 28 -7.5t5 -29.5v-125q0 -18 -4.5 -26.5t-26.5 -8.5h-328v-178q68 37 140.5 55t136.5 18q123 0 191.5 -39.5t103 -101t43 -134.5t8.5 -140v-498q0 -12 -7.5 -28.5 t-39.5 -16.5h-289q-29 0 -39 12.5t-10 32.5v447q0 80 -31 101t-74 21q-35 0 -70.5 -11t-64.5 -21v-537q0 -12 -5 -28.5t-38 -16.5h-297q-29 0 -37 12.5t-8 32.5v1018h-74q-23 0 -29.5 7t-6.5 30z" />
<glyph unicode="&#x45c;" horiz-adv-x="1140" d="M92 49v920q0 20 10.5 34.5t38.5 14.5h289q33 0 40 -18.5t7 -30.5v-281h15h35.5t34 8.5t30.5 25.5t29 54l69 170q8 20 14.5 33.5t17.5 22t28.5 11.5t46.5 3h245q25 0 35 -17.5t2 -33.5l-67 -199q-41 -123 -87 -175t-106 -69v-6q72 -18 117 -69.5t86 -174.5l70 -221 q8 -16 -2.5 -33.5t-34.5 -17.5h-262q-29 0 -46.5 3t-28.5 11.5t-17.5 21.5t-14.5 34l-61 192q-25 74 -61 94.5t-72 20.5h-15v-328q0 -12 -7 -30.5t-40 -18.5h-289q-29 0 -39 14.5t-10 34.5zM410.5 1197q-7.5 11 7.5 36l211 379q16 29 34.5 31t32.5 -7l185 -110 q23 -12 26.5 -31.5t-14.5 -44.5l-268 -328q-12 -16 -26.5 -24t-35.5 4l-129 74q-16 10 -23.5 21z" />
<glyph unicode="&#x45e;" horiz-adv-x="1122" d="M20 958q-25 59 39 60h271q33 0 52 -6t30 -47l67 -230l72 -258h12l82 266l70 226q8 23 23.5 36t62.5 13h246q43 0 49 -15.5t-6 -46.5l-496 -1318q-14 -35 -30.5 -45.5t-57.5 -10.5h-244q-35 0 -46 12.5t5 47.5l150 397zM114 1406.5q-5 23.5 23 45.5l88 70q35 25 50.5 15.5 t39.5 -38.5q70 -82 125.5 -116.5t132.5 -34.5q66 0 126.5 30.5t125.5 120.5q23 31 40.5 36t49.5 -15l86 -52q35 -23 30 -47t-27 -65q-70 -127 -180 -202t-249 -75q-66 0 -130 16.5t-122.5 50.5t-106.5 84t-81 118q-16 35 -21 58.5z" />
<glyph unicode="&#x45f;" horiz-adv-x="1177" d="M92 49v920q0 20 8.5 34.5t36.5 14.5h297q33 0 38 -18.5t5 -30.5v-666h225v666q0 20 8.5 34.5t37.5 14.5h294q18 0 30.5 -8.5t12.5 -40.5v-920q0 -20 -8 -34.5t-37 -14.5h-258l-14 -274q-2 -23 -5 -36.5t-9 -19.5t-16.5 -8t-28.5 -2h-205q-41 0 -52.5 11.5t-13.5 41.5 l-14 287h-287q-29 0 -37 14.5t-8 34.5z" />
<glyph unicode="&#x490;" horiz-adv-x="1118" d="M119 49v1264q0 20 10 34.5t39 14.5h571l33 217q4 29 15.5 36t31.5 7h232q16 0 26 -8t10 -35v-502q0 -18 -10 -31.5t-39 -13.5h-518v-983q0 -12 -7 -30.5t-40 -18.5h-305q-29 0 -39 14.5t-10 34.5z" />
<glyph unicode="&#x491;" horiz-adv-x="980" d="M92 49v920q0 20 8.5 34.5t36.5 14.5h473l33 217q4 29 15.5 36t31.5 7h232q16 0 26 -8t10 -35v-467q0 -33 -18 -40t-31 -7h-432v-672q0 -12 -5 -30.5t-38 -18.5h-297q-29 0 -37 14.5t-8 34.5z" />
<glyph unicode="&#x4d9;" horiz-adv-x="1134" d="M78 457q0 70 26.5 104.5t96.5 34.5h461q-4 43 -20.5 68.5t-43.5 39t-61.5 16.5t-75.5 3q-78 0 -213 -18q-47 -6 -59.5 2t-20.5 51l-21 121q-10 47 -0.5 69.5t68.5 44.5q31 10 72 18.5t84 14.5t86 9t80 3q162 0 262 -42t156.5 -112.5t77 -164.5t20.5 -197 q0 -74 -14.5 -167t-65.5 -176t-150.5 -139t-269.5 -56q-154 0 -247 45t-144 113.5t-67.5 152.5t-16.5 162zM469 385q0 -59 24.5 -88t65.5 -29q39 0 65.5 29t30.5 88h-186z" />
<glyph unicode="&#x1e80;" horiz-adv-x="1855" d="M25 1348q8 16 43 16h290q41 0 61.5 -14.5t31.5 -53.5l86 -401l79 -365h13l65 234l64 217l-105 324q-6 20 0 39.5t31 19.5h266q41 0 63.5 -13.5t33.5 -54.5l112 -458l72 -308h12l64 347l82 419q8 39 31.5 53.5t68.5 14.5h276q35 0 43.5 -16.5t-2.5 -44.5l-309 -1231 q-10 -35 -33.5 -53.5t-77.5 -18.5h-225q-59 0 -78.5 21.5t-29.5 52.5l-47 147l-66 207h-12l-68 -205l-53 -149q-10 -31 -29.5 -52.5t-79.5 -21.5h-225q-53 0 -76.5 18.5t-34.5 53.5l-335 1231q-10 29 -2 45zM523 1657.5q-3 19.5 14 38.5l133 170q10 12 28.5 17t42.5 -15 l334 -277q23 -18 19 -31.5t-15 -27.5l-92 -117q-16 -18 -32.5 -15t-32.5 13l-369 209q-27 16 -30 35.5z" />
<glyph unicode="&#x1e81;" horiz-adv-x="1622" d="M35 967q-6 18 1 34.5t38 16.5h284q31 0 46.5 -8.5t25.5 -42.5l53 -215l76 -310h12l56 168q12 37 23.5 71t23.5 69l-76 215q-10 25 0 39t35 14h250q35 0 48 -8.5t25 -51.5l66 -227l72 -260h12l68 313l38 177q8 35 20.5 46t39.5 11h282q39 0 41 -17.5t-2 -33.5l-262 -885 q-14 -45 -38.5 -63.5t-63.5 -18.5h-217q-35 0 -55.5 19.5t-36.5 62.5l-37 102l-47 135h-9l-51 -135q-10 -27 -20.5 -52.5t-20.5 -49.5q-16 -41 -40.5 -61.5t-65.5 -20.5h-199q-43 0 -63.5 18.5t-36.5 63.5zM465 1413q-41 41 2 76l164 139q12 10 31.5 10t39.5 -24l265 -342 q18 -23 13 -36t-19 -24l-111 -98q-16 -16 -32.5 -10t-31.5 20z" />
<glyph unicode="&#x1e82;" horiz-adv-x="1855" d="M25 1348q8 16 43 16h290q41 0 61.5 -14.5t31.5 -53.5l86 -401l79 -365h13l65 234l64 217l-105 324q-6 20 0 39.5t31 19.5h266q41 0 63.5 -13.5t33.5 -54.5l112 -458l72 -308h12l64 347l82 419q8 39 31.5 53.5t68.5 14.5h276q35 0 43.5 -16.5t-2.5 -44.5l-309 -1231 q-10 -35 -33.5 -53.5t-77.5 -18.5h-225q-59 0 -78.5 21.5t-29.5 52.5l-47 147l-66 207h-12l-68 -205l-53 -149q-10 -31 -29.5 -52.5t-79.5 -21.5h-225q-53 0 -76.5 18.5t-34.5 53.5l-335 1231q-10 29 -2 45zM689 1596.5q-1 13.5 24 29.5l366 232q29 16 46.5 9t25.5 -22 l109 -186q14 -20 9 -40t-34 -30l-393 -159q-18 -8 -34.5 -9.5t-31.5 19.5l-76 129q-10 14 -11 27.5z" />
<glyph unicode="&#x1e83;" horiz-adv-x="1622" d="M35 967q-6 18 1 34.5t38 16.5h284q31 0 46.5 -8.5t25.5 -42.5l53 -215l76 -310h12l56 168q12 37 23.5 71t23.5 69l-76 215q-10 25 0 39t35 14h250q35 0 48 -8.5t25 -51.5l66 -227l72 -260h12l68 313l38 177q8 35 20.5 46t39.5 11h282q39 0 41 -17.5t-2 -33.5l-262 -885 q-14 -45 -38.5 -63.5t-63.5 -18.5h-217q-35 0 -55.5 19.5t-36.5 62.5l-37 102l-47 135h-9l-51 -135q-10 -27 -20.5 -52.5t-20.5 -49.5q-16 -41 -40.5 -61.5t-65.5 -20.5h-199q-43 0 -63.5 18.5t-36.5 63.5zM621.5 1197q-7.5 11 7.5 36l211 379q16 29 34.5 31t32.5 -7 l185 -110q23 -12 26.5 -31.5t-14.5 -44.5l-268 -328q-12 -16 -26.5 -24t-35.5 4l-129 74q-16 10 -23.5 21z" />
<glyph unicode="&#x1e84;" horiz-adv-x="1855" d="M25 1348q8 16 43 16h290q41 0 61.5 -14.5t31.5 -53.5l86 -401l79 -365h13l65 234l64 217l-105 324q-6 20 0 39.5t31 19.5h266q41 0 63.5 -13.5t33.5 -54.5l112 -458l72 -308h12l64 347l82 419q8 39 31.5 53.5t68.5 14.5h276q35 0 43.5 -16.5t-2.5 -44.5l-309 -1231 q-10 -35 -33.5 -53.5t-77.5 -18.5h-225q-59 0 -78.5 21.5t-29.5 52.5l-47 147l-66 207h-12l-68 -205l-53 -149q-10 -31 -29.5 -52.5t-79.5 -21.5h-225q-53 0 -76.5 18.5t-34.5 53.5l-335 1231q-10 29 -2 45zM514 1602q0 35 7 65.5t27.5 52t55.5 33.5t90 12q57 0 92 -11 t55.5 -32.5t28 -52.5t7.5 -67q0 -35 -6.5 -66t-27 -54.5t-56.5 -36.5t-93 -13q-61 0 -97 14t-54.5 37.5t-23.5 54.5t-5 64zM967 1602q0 35 8 65.5t27.5 52t54.5 33.5t90 12q57 0 93 -11t55.5 -32.5t26.5 -52.5t7 -67q0 -35 -6 -66t-25.5 -54.5t-55.5 -36.5t-95 -13t-95 14 t-54.5 37.5t-24.5 54.5t-6 64z" />
<glyph unicode="&#x1e85;" horiz-adv-x="1622" d="M35 967q-6 18 1 34.5t38 16.5h284q31 0 46.5 -8.5t25.5 -42.5l53 -215l76 -310h12l56 168q12 37 23.5 71t23.5 69l-76 215q-10 25 0 39t35 14h250q35 0 48 -8.5t25 -51.5l66 -227l72 -260h12l68 313l38 177q8 35 20.5 46t39.5 11h282q39 0 41 -17.5t-2 -33.5l-262 -885 q-14 -45 -38.5 -63.5t-63.5 -18.5h-217q-35 0 -55.5 19.5t-36.5 62.5l-37 102l-47 135h-9l-51 -135q-10 -27 -20.5 -52.5t-20.5 -49.5q-16 -41 -40.5 -61.5t-65.5 -20.5h-199q-43 0 -63.5 18.5t-36.5 63.5zM416 1270q0 35 7 65.5t27.5 52t55.5 34t90 12.5q57 0 92 -11.5 t55.5 -33t27.5 -52t7 -67.5q0 -35 -6 -65.5t-26.5 -54.5t-56.5 -37t-93 -13q-61 0 -97 14t-54.5 38t-23.5 54.5t-5 63.5zM868 1270q0 35 8.5 65.5t28 52t54 34t90.5 12.5q57 0 93 -11.5t55.5 -33t26.5 -52t7 -67.5q0 -35 -6 -65.5t-25.5 -54.5t-55.5 -37t-95 -13t-95 14 t-54.5 38t-25 54.5t-6.5 63.5z" />
<glyph unicode="&#x1ef2;" horiz-adv-x="1402" d="M17 1346q6 18 34 18h301q41 0 59.5 -11.5t37.5 -47.5l112 -228l125 -260h12l127 260l105 207q20 37 37.5 58.5t58.5 21.5h311q29 0 34 -16.5t-5 -34.5l-485 -862v-402q0 -12 -7.5 -30.5t-39.5 -18.5h-306q-29 0 -39 14.5t-10 34.5v402l-454 852q-14 25 -8 43zM259 1657.5 q-3 19.5 13 38.5l134 170q10 12 28.5 17t42.5 -15l334 -277q23 -18 18.5 -31.5t-14.5 -27.5l-92 -117q-16 -18 -32.5 -15t-33.5 13l-368 209q-27 16 -30 35.5z" />
<glyph unicode="&#x1ef3;" horiz-adv-x="1122" d="M20 958q-25 59 39 60h271q33 0 52 -6t30 -47l67 -230l72 -258h12l82 266l70 226q8 23 23.5 36t62.5 13h246q43 0 49 -15.5t-6 -46.5l-496 -1318q-14 -35 -30.5 -45.5t-57.5 -10.5h-244q-35 0 -46 12.5t5 47.5l150 397zM195 1413q-41 41 2 76l163 139q12 10 32 10t40 -24 l264 -342q18 -23 13.5 -36t-19.5 -24l-110 -98q-16 -16 -33 -10t-31 20z" />
<glyph unicode="&#x2000;" horiz-adv-x="942" />
<glyph unicode="&#x2001;" horiz-adv-x="1884" />
<glyph unicode="&#x2002;" horiz-adv-x="942" />
<glyph unicode="&#x2003;" horiz-adv-x="1884" />
<glyph unicode="&#x2004;" horiz-adv-x="628" />
<glyph unicode="&#x2005;" horiz-adv-x="471" />
<glyph unicode="&#x2006;" horiz-adv-x="314" />
<glyph unicode="&#x2007;" horiz-adv-x="314" />
<glyph unicode="&#x2008;" horiz-adv-x="235" />
<glyph unicode="&#x2009;" horiz-adv-x="376" />
<glyph unicode="&#x200a;" horiz-adv-x="104" />
<glyph unicode="&#x2010;" horiz-adv-x="880" d="M59 553v199q0 49 50 49h677q31 0 39.5 -12.5t8.5 -34.5v-201q0 -27 -8.5 -39t-39.5 -12h-677q-49 0 -50 51z" />
<glyph unicode="&#x2011;" horiz-adv-x="880" d="M59 553v199q0 49 50 49h677q31 0 39.5 -12.5t8.5 -34.5v-201q0 -27 -8.5 -39t-39.5 -12h-677q-49 0 -50 51z" />
<glyph unicode="&#x2012;" horiz-adv-x="880" d="M59 553v199q0 49 50 49h677q31 0 39.5 -12.5t8.5 -34.5v-201q0 -27 -8.5 -39t-39.5 -12h-677q-49 0 -50 51z" />
<glyph unicode="&#x2013;" horiz-adv-x="1024" d="M31 442v156q0 49 49 49h864q31 0 39 -12t8 -35v-158q0 -27 -8 -39t-39 -12h-864q-49 0 -49 51z" />
<glyph unicode="&#x2014;" horiz-adv-x="2048" d="M63 442v156q0 49 50 49h1824q31 0 39.5 -12t8.5 -35v-158q0 -27 -8.5 -39t-39.5 -12h-1824q-49 0 -50 51z" />
<glyph unicode="&#x2018;" horiz-adv-x="651" d="M113 1057q0 70 21.5 137.5t57 124.5t79.5 102t91 72q31 16 52.5 11t42.5 -27l65 -68q14 -16 22.5 -26.5t7.5 -19.5t-10.5 -21.5t-27.5 -30.5q-37 -41 -53.5 -81t-16.5 -73q0 -63 45 -115q35 -37 39 -60.5t-43 -57.5l-157 -121q-39 -29 -63.5 -17.5t-55.5 39.5 q-47 45 -71.5 111t-24.5 121z" />
<glyph unicode="&#x2019;" horiz-adv-x="651" d="M116 927q1 9 10 21.5t28 30.5q37 41 53 81t16 73q0 63 -45 114q-35 37 -39 60.5t43 58.5l158 121q39 29 63.5 17.5t55.5 -40.5q47 -45 71.5 -110.5t24.5 -120.5q0 -72 -21.5 -138.5t-57.5 -124t-81 -102.5t-90 -71q-31 -16 -52.5 -11t-41.5 27l-66 68q-16 16 -23 26.5 t-6 19.5z" />
<glyph unicode="&#x201a;" horiz-adv-x="528" d="M15 -232.5q1 9.5 10.5 21.5t27.5 31q37 41 53.5 81t16.5 72q0 63 -45 115q-35 37 -39 60.5t43 58.5l158 121q39 29 63.5 17.5t54.5 -40.5q47 -45 72 -110.5t25 -120.5q0 -72 -21.5 -138.5t-57.5 -124t-81 -102.5t-90 -71q-31 -16 -52.5 -11.5t-41.5 27.5l-66 67 q-16 16 -23.5 26.5t-6.5 20z" />
<glyph unicode="&#x201c;" horiz-adv-x="1116" d="M113 1057q0 70 21.5 137.5t57 124.5t79.5 102t91 72q31 16 52.5 11t42.5 -27l65 -68q14 -16 22.5 -26.5t7.5 -19.5t-10.5 -21.5t-27.5 -30.5q-37 -41 -53.5 -81t-16.5 -73q0 -63 45 -115q35 -37 39 -60.5t-43 -57.5l-157 -121q-39 -29 -63.5 -17.5t-55.5 39.5 q-47 45 -71.5 111t-24.5 121zM578 1057q0 70 21.5 137.5t57 124.5t79.5 102t91 72q31 16 52.5 11t42.5 -27l65 -68q14 -16 22.5 -26.5t7.5 -19.5t-10.5 -21.5t-27.5 -30.5q-37 -41 -53.5 -81t-16.5 -73q0 -63 45 -115q35 -37 39 -60.5t-43 -57.5l-157 -121 q-39 -29 -63.5 -17.5t-55.5 39.5q-47 45 -71.5 111t-24.5 121z" />
<glyph unicode="&#x201d;" horiz-adv-x="1116" d="M114 927q1 9 10 21.5t28 30.5q37 41 53 81t16 73q0 63 -45 114q-35 37 -39 60.5t43 58.5l158 121q39 29 63.5 17.5t55.5 -40.5q47 -45 71.5 -110.5t24.5 -120.5q0 -72 -21.5 -138.5t-57.5 -124t-81 -102.5t-90 -71q-31 -16 -52.5 -11t-41.5 27l-66 68q-16 16 -23 26.5 t-6 19.5zM579 927q1 9 10 21.5t27 30.5q37 41 53.5 81t16.5 73q0 63 -45 114q-35 37 -39 60.5t43 58.5l158 121q39 29 63.5 17.5t55.5 -40.5q47 -45 71.5 -110.5t24.5 -120.5q0 -72 -21.5 -138.5t-57.5 -124t-81 -102.5t-90 -71q-31 -16 -52.5 -11t-41.5 27l-66 68 q-16 16 -23 26.5t-6 19.5z" />
<glyph unicode="&#x201e;" horiz-adv-x="1017" d="M15 -232.5q1 9.5 10.5 21.5t27.5 31q37 41 53.5 81t16.5 72q0 63 -45 115q-35 37 -39 60.5t43 58.5l158 121q39 29 63.5 17.5t54.5 -40.5q47 -45 72 -110.5t25 -120.5q0 -72 -21.5 -138.5t-57.5 -124t-81 -102.5t-90 -71q-31 -16 -52.5 -11.5t-41.5 27.5l-66 67 q-16 16 -23.5 26.5t-6.5 20zM505 -232.5q1 9.5 10 21.5t28 31q37 41 53 81t16 72q0 63 -45 115q-35 37 -39 60.5t43 58.5l158 121q39 29 63.5 17.5t55.5 -40.5q47 -45 71.5 -110.5t24.5 -120.5q0 -72 -21.5 -138.5t-57.5 -124t-81 -102.5t-90 -71q-31 -16 -52 -11.5 t-42 27.5l-65 67q-16 16 -23.5 26.5t-6.5 20z" />
<glyph unicode="&#x2026;" horiz-adv-x="1628" d="M61 162q0 37 9.5 69.5t31 57t59.5 39t97 14.5q61 0 99 -13.5t59.5 -38t30 -57t8.5 -71.5q0 -35 -7.5 -67t-29 -58.5t-60.5 -41.5t-100 -15q-66 0 -103.5 16t-59 41.5t-28 58.5t-6.5 66zM614 162q0 37 9.5 69.5t31 57t59.5 39t97 14.5q61 0 99 -13.5t59.5 -38t30 -57 t8.5 -71.5q0 -35 -7.5 -67t-29 -58.5t-60.5 -41.5t-100 -15q-66 0 -103.5 16t-59 41.5t-28 58.5t-6.5 66zM1174 162q0 37 9 69.5t30.5 57t59.5 39t97 14.5q61 0 99 -13.5t59.5 -38t30 -57t8.5 -71.5q0 -35 -7.5 -67t-29 -58.5t-60 -41.5t-100.5 -15q-66 0 -103.5 16 t-59 41.5t-27.5 58.5t-6 66z" />
<glyph unicode="&#x202f;" horiz-adv-x="376" />
<glyph unicode="&#x2039;" horiz-adv-x="778" d="M65.5 430.5q2.5 18.5 20.5 40.5l227 281q10 12 27.5 26.5t40.5 14.5h299q23 0 29 -11.5t-4 -21.5l-275 -336l260 -330q6 -8 6 -24.5t-18 -16.5h-301q-23 0 -38 15.5t-26 27.5l-227 287q-23 29 -20.5 47.5z" />
<glyph unicode="&#x203a;" horiz-adv-x="778" d="M66 781.5q6 11.5 28 11.5h299q23 0 40.5 -14.5t27.5 -26.5l227 -281q18 -23 20.5 -41t-20.5 -47l-227 -287q-10 -12 -25.5 -27.5t-38.5 -15.5h-301q-18 0 -18 16.5t6 24.5l260 330l-274 336q-10 10 -4 21.5z" />
<glyph unicode="&#x205f;" horiz-adv-x="471" />
<glyph unicode="&#x20ac;" d="M41 506v96q0 25 11 34t38 9h852q31 0 39 -9t8 -32v-98q0 -27 -8 -36t-39 -9h-317q14 -72 69.5 -100.5t143.5 -28.5h64.5t51 2t58 4t86.5 8q37 4 56.5 -3t29.5 -46l35 -133q14 -49 -8.5 -73.5t-57.5 -41.5q-80 -35 -162 -52t-194 -17q-154 0 -261.5 38.5t-179 104 t-111.5 154t-59 184.5h-96q-27 0 -38 9t-11 36zM41 760v96q0 25 11 34t38 9h96q18 94 58.5 181t112 152.5t179 105.5t259.5 40q113 0 192.5 -14t159.5 -49q35 -16 56.5 -38t10.5 -73l-30 -145q-8 -39 -28.5 -46t-57.5 -3q-63 6 -134 9t-124 3q-82 0 -134.5 -28.5 t-74.5 -94.5h311q31 0 39 -9t8 -32v-98q0 -27 -8 -36t-39 -9h-852q-27 0 -38 9t-11 36z" />
<glyph unicode="&#x2122;" horiz-adv-x="1544" d="M51 1200v129q0 27 25 27h561q25 0 25 -27v-129q0 -29 -27 -29h-168v-432q0 -29 -31 -28h-166q-31 0 -30 28v432h-160q-29 0 -29 29zM721 737v594q0 27 29 27h170q16 0 23 -7.5t15 -19.5l140 -239h2q-2 0 20.5 36.5t48.5 81.5q31 53 72 121q10 12 16.5 19.5t22.5 7.5h164 q29 0 29 -27v-594q0 -27 -29 -26h-166q-29 0 -31 26v260h-4q2 0 -11 -22.5t-30 -50.5q-20 -33 -43 -72q-16 -25 -39 -25h-49q-27 0 -37 21l-80 149l-4 2v-262q0 -27 -30 -26h-170q-29 0 -29 26z" />
<glyph unicode="&#xe000;" horiz-adv-x="1013" d="M0 0v1014h1014v-1014h-1014z" />
</font>
</defs>
</svg>
