<?xml version="1.0" encoding="UTF-8"?>
<svg width="846px" height="263px" viewBox="0 0 846 263" version="1.1" xmlns="http://www.w3.org/2000/svg" xmlns:xlink="http://www.w3.org/1999/xlink">
    <!-- Generator: Sketch 47.1 (45422) - http://www.bohemiancoding.com/sketch -->
    <title>Artboard</title>
    <desc>Created with Sketch.</desc>
    <defs></defs>
    <g id="Page-1" stroke="none" stroke-width="1" fill="none" fill-rule="evenodd">
        <g id="Artboard">
            <g id="logo_fant_color_scroll">
                <path d="M22,0 L245,0 C257,0 267,11 267,23 L267,240 C267,253 257,263 245,263 L22,263 C10,263 0,253 0,240 L0,23 C0,11 10,0 22,0 Z M122,149 C125,140 61,146 28,148 C13,242 34,263 126,239 L122,149 Z M139,38 C166,22 228,15 231,34 C236,55 239,102 234,129 C205,130 170,137 145,127 C142,96 137,72 139,38 Z M120,35 C92,20 31,15 28,34 C24,56 23,103 29,130 C58,130 93,135 118,124 C120,93 123,69 120,35 Z M140,153 C136,144 201,145 233,144 C256,237 237,259 144,243 L140,153 Z" id="Shape" fill="#E31E24"></path>
                <path d="M77,247 L83,246 L83,236 C94,235 101,228 109,217 C93,217 87,215 83,227 L83,215 C97,214 107,204 107,197 C100,199 89,197 83,207 C87,195 87,179 80,172 C73,180 70,193 76,208 C71,200 67,194 51,198 C54,207 66,213 77,216 L77,227 C77,221 65,211 51,216 C59,228 70,236 77,235 L77,241 L77,247 Z" id="Shape" fill="#739D37"></path>
                <g id="Group" transform="translate(312.000000, 1.000000)" fill="#E31E24">
                    <path d="M248,0 L279,115 L231,115 L227,98 L198,98 L194,115 L170,115 L210,0 L248,0 Z M213,36 L204,75 L222,75 L213,36 Z" id="Shape" fill-rule="nonzero"></path>
                    <path d="M104,0 L104,14 L142,14 C147,22 152,30 156,40 C160,49 163,59 165,69 C165,69 164,69 164,70 C163,71 163,71 163,72 C160,75 159,77 159,77 C153,86 145,95 135,104 L104,104 L104,115 L61,115 L61,104 L28,104 C16,88 7,68 0,46 C8,33 17,22 28,14 L61,14 L61,0 L104,0 Z M61,91 L61,24 C57,25 53,28 51,32 C48,36 46,39 45,42 C47,55 49,66 52,74 C56,82 58,88 61,91 Z M104,91 C111,86 116,78 119,69 C119,61 117,53 114,44 C111,35 108,29 104,24 L104,91 Z" id="Shape" fill-rule="nonzero"></path>
                    <path d="M487,148 L519,262 L471,262 L467,246 L438,246 L434,262 L410,262 L450,148 L487,148 Z M453,184 L444,223 L462,223 L453,184 Z" id="Shape" fill-rule="nonzero"></path>
                    <path d="M153,205 C153,242 134,262 97,262 C59,262 41,241 41,204 C41,166 61,148 98,148 C135,148 153,168 153,205 Z M110,205 C110,195 109,184 107,175 C107,173 105,166 103,165 C101,164 99,164 97,164 C95,164 93,164 91,165 C89,166 87,173 87,175 C85,184 84,195 84,205 C84,215 85,226 87,235 C87,237 89,244 91,245 C93,246 95,246 97,246 C99,246 101,246 103,245 C105,244 107,237 107,235 C109,226 110,215 110,205 Z" id="Shape"></path>
                    <polygon id="Shape" fill-rule="nonzero" points="400 0 400 115 355 115 355 58 337 58 337 115 291 115 291 0 337 0 337 39 355 39 355 0"></polygon>
                    <polygon id="Shape" fill-rule="nonzero" points="523 0 534 58 519 58 497 12 496 12 496 115 450 115 450 12 450 12 427 58 412 58 423 0"></polygon>
                    <polygon id="Shape" points="285 262 238 262 212 220 211 220 211 262 169 262 169 152 211 152 211 191 246 152 273 152 240 188"></polygon>
                    <polygon id="Shape" fill-rule="nonzero" points="400 148 400 262 355 262 355 206 337 206 337 262 291 262 291 148 337 148 337 187 355 187 355 148"></polygon>
                </g>
            </g>
        </g>
    </g>
</svg>