<?xml version="1.0" encoding="UTF-8"?>
<!DOCTYPE svg PUBLIC "-//W3C//DTD SVG 1.1//EN" "http://www.w3.org/Graphics/SVG/1.1/DTD/svg11.dtd">
<!-- Creator: CorelDRAW X8 -->
<svg xmlns="http://www.w3.org/2000/svg" xml:space="preserve" width="1.35466cm" height="0.59266cm" version="1.1" style="shape-rendering:geometricPrecision; text-rendering:geometricPrecision; image-rendering:optimizeQuality; fill-rule:evenodd; clip-rule:evenodd"
viewBox="0 0 1355 593"
 xmlns:xlink="http://www.w3.org/1999/xlink">
 <defs>
  <style type="text/css">
   <![CDATA[
    .fil0 {fill:#969696}
    .fil1 {fill:#969696;fill-rule:nonzero}
   ]]>
  </style>
 </defs>
 <g id="Слой_x0020_1">
  <metadata id="CorelCorpID_0Corel-Layer"/>
  <g id="_921393392">
   <path class="fil0" d="M282 160l222 0c12,0 22,10 22,23l0 217c0,12 -10,22 -22,22l-222 0c-13,0 -23,-10 -23,-22l0 -217c0,-13 10,-23 23,-23zm100 149c2,-10 -62,-3 -94,-2 -15,94 5,115 97,92l-3 -90zm16 -111c28,-16 89,-23 93,-4 5,21 7,68 3,95 -30,1 -64,8 -89,-2 -4,-32 -8,-55 -7,-89zm-18 -3c-28,-15 -90,-20 -92,-1 -5,22 -6,69 0,95 29,0 64,6 89,-5 2,-32 6,-55 3,-89zm19 118c-4,-9 61,-8 93,-9 23,92 5,115 -89,99l-4 -90z"/>
   <path class="fil0" d="M336 407l6 -1 0 -10c12,-1 19,-8 26,-19 -15,0 -22,-2 -26,10l1 -12c14,-2 24,-11 24,-18 -8,2 -18,0 -24,10 4,-12 3,-29 -4,-36 -7,9 -10,22 -3,37 -6,-8 -9,-14 -25,-10 2,9 14,15 25,17l1 12c-1,-7 -13,-16 -26,-11 7,11 19,20 25,19l0 6 0 6z"/>
   <g>
    <path class="fil1" d="M819 161l31 114 -47 0 -4 -16 -29 0 -4 16 -24 0 39 -114 38 0zm-34 36l-10 39 19 0 -9 -39z"/>
    <path class="fil1" d="M676 161l0 13 37 0c6,8 10,17 14,27 4,9 7,19 9,28 0,1 0,1 -1,2 0,1 -1,1 -1,2 -2,3 -3,5 -3,5 -6,9 -14,18 -25,27l-30 0 0 10 -44 0 0 -10 -33 0c-12,-17 -21,-36 -27,-58 7,-13 16,-24 27,-33l33 0 0 -13 44 0zm-44 91l0 -68c-4,2 -7,5 -10,9 -3,4 -4,7 -6,10 2,13 5,24 8,32 3,8 6,14 8,17zm44 0c6,-5 11,-13 15,-23 -1,-7 -3,-16 -6,-24 -2,-9 -6,-16 -9,-21l0 68z"/>
    <path class="fil1" d="M1059 309l31 114 -47 0 -4 -16 -29 0 -4 16 -25 0 40 -114 38 0zm-34 36l-10 39 19 0 -9 -39z"/>
    <path class="fil0" d="M725 366c0,37 -19,57 -57,57 -38,0 -56,-21 -56,-58 0,-38 20,-56 57,-56 38,0 56,20 56,57zm-44 0c0,-10 0,-21 -2,-30 -1,-2 -2,-9 -5,-10 -2,-1 -4,-1 -6,-1 -2,0 -4,0 -6,1 -2,1 -4,8 -4,10 -2,9 -2,20 -2,30 0,9 0,20 2,30 0,2 2,9 4,10 2,1 4,1 6,1 2,0 4,0 6,-1 3,-1 4,-8 5,-10 2,-10 2,-21 2,-30z"/>
    <polygon class="fil1" points="971,161 971,275 927,275 927,219 908,219 908,275 863,275 863,161 908,161 908,199 927,199 927,161 "/>
    <polygon class="fil1" points="1095,161 1106,219 1091,219 1068,173 1068,173 1068,275 1021,275 1021,173 1021,173 998,219 984,219 994,161 "/>
    <polygon class="fil0" points="857,423 809,423 783,380 783,381 783,423 741,423 741,312 783,312 783,352 818,312 844,312 811,349 "/>
    <polygon class="fil1" points="971,309 971,423 927,423 927,366 908,366 908,423 863,423 863,309 908,309 908,347 927,347 927,309 "/>
   </g>
  </g>
 </g>
</svg>
