<?xml version="1.0" encoding="UTF-8"?>
<!DOCTYPE svg PUBLIC "-//W3C//DTD SVG 1.1//EN" "http://www.w3.org/Graphics/SVG/1.1/DTD/svg11.dtd">
<!-- Creator: CorelDRAW X8 -->
<svg xmlns="http://www.w3.org/2000/svg" xml:space="preserve" width="1.35466cm" height="0.84666cm" version="1.1" style="shape-rendering:geometricPrecision; text-rendering:geometricPrecision; image-rendering:optimizeQuality; fill-rule:evenodd; clip-rule:evenodd"
viewBox="0 0 1355 847"
 xmlns:xlink="http://www.w3.org/1999/xlink">
 <defs>
  <style type="text/css">
   <![CDATA[
    .fil1 {fill:#739D37}
    .fil0 {fill:#E31E24}
    .fil3 {fill:#333333;fill-rule:nonzero}
    .fil2 {fill:#E31E24;fill-rule:nonzero}
   ]]>
  </style>
 </defs>
 <g id="Слой_x0020_1">
  <metadata id="CorelCorpID_0Corel-Layer"/>
  <g id="_1803212128">
   <path class="fil0" d="M156 191l289 0c16,0 29,13 29,29l0 283c0,16 -13,29 -29,29l-289 0c-16,0 -29,-13 -29,-29l0 -283c0,-16 13,-29 29,-29zm130 193c4,-12 -80,-4 -122,-2 -19,122 7,150 127,119l-5 -117zm22 -144c36,-21 115,-30 120,-5 6,27 10,88 4,123 -39,2 -83,11 -116,-2 -5,-41 -10,-72 -8,-116zm-24 -4c-37,-20 -117,-26 -120,-1 -6,28 -7,89 0,124 39,0 84,7 116,-7 3,-41 8,-72 4,-116zm25 153c-5,-11 79,-10 121,-11 30,120 6,149 -116,128l-5 -117z"/>
   <path class="fil1" d="M227 511l8 0 0 -14c15,-1 24,-10 34,-25 -20,1 -29,-2 -34,13l0 -15c19,-2 32,-14 32,-23 -10,2 -24,-1 -32,13 6,-16 5,-37 -4,-46 -9,11 -13,28 -5,47 -6,-10 -11,-18 -32,-13 3,12 19,20 33,23l1 15c-1,-9 -17,-21 -34,-15 10,15 24,26 33,25l0 8 0 7z"/>
   <path class="fil2" d="M855 192l41 149 -63 0 -5 -22 -37 0 -5 22 -32 0 52 -149 49 0zm-45 47l-12 50 24 0 -12 -50z"/>
   <path class="fil2" d="M668 192l0 17 49 0c7,11 13,22 18,34 6,13 10,25 12,38 0,0 -1,1 -1,2 -1,1 -1,2 -2,2 -3,5 -4,7 -4,7 -8,12 -19,23 -32,35l-40 0 0 14 -56 0 0 -14 -43 0c-16,-21 -28,-46 -36,-76 10,-16 22,-30 36,-42l43 0 0 -17 56 0zm-56 118l0 -88c-5,2 -10,6 -13,11 -4,6 -6,10 -8,14 3,17 6,30 10,41 4,11 8,18 11,22zm56 0c9,-7 16,-16 20,-29 -1,-10 -3,-21 -7,-32 -4,-11 -8,-20 -13,-27l0 88z"/>
   <path class="fil2" d="M1167 384l40 149 -62 0 -5 -22 -37 0 -6 22 -31 0 52 -149 49 0zm-45 47l-12 50 24 0 -12 -50z"/>
   <path class="fil0" d="M732 458c0,49 -24,75 -73,75 -50,0 -73,-28 -73,-76 0,-49 26,-73 74,-73 49,0 72,27 72,74zm-57 0c0,-12 0,-27 -3,-39 0,-3 -2,-11 -5,-13 -3,-1 -6,-1 -8,-1 -3,0 -6,0 -8,1 -3,2 -5,10 -6,13 -2,12 -3,27 -3,39 0,13 1,27 3,39 1,3 3,12 6,13 2,1 5,2 8,2 2,0 5,-1 8,-2 3,-1 5,-10 5,-13 3,-12 3,-26 3,-39z"/>
   <polygon class="fil2" points="1053,192 1053,341 995,341 995,267 971,267 971,341 912,341 912,192 971,192 971,242 995,242 995,192 "/>
   <polygon class="fil2" points="1213,192 1228,267 1208,267 1178,208 1178,208 1178,341 1117,341 1117,208 1117,208 1087,267 1069,267 1083,192 "/>
   <polygon class="fil0" points="904,533 842,533 808,477 808,477 808,533 753,533 753,389 808,389 808,440 853,389 888,389 845,437 "/>
   <polygon class="fil2" points="1053,384 1053,533 995,533 995,459 971,459 971,533 912,533 912,384 971,384 971,434 995,434 995,384 "/>
   <path class="fil3" d="M134 592c-2,0 -3,1 -3,3l0 3c0,2 1,4 3,4l16 0 0 37c0,2 2,4 4,4l6 0c2,0 4,-2 4,-4l0 -37 16 0c2,0 3,-2 3,-4l0 -3c0,-2 -1,-3 -3,-3l-46 0zm84 35c1,0 2,-1 2,-2l0 -2c0,-13 -8,-20 -21,-20 -13,0 -20,7 -20,20 0,14 7,21 20,21 12,0 20,-3 20,-11 0,-1 -1,-2 -2,-2l-6 0c-1,0 -3,1 -4,2 -1,2 -4,2 -7,2 -6,0 -8,-2 -9,-8l27 0zm-19 -16c6,0 8,3 9,8l-17 0c0,-5 3,-8 8,-8zm68 -5c0,-1 -1,-2 -2,-2l-36 0c-1,0 -2,1 -2,2l0 35c0,1 1,2 2,2l8 0c1,0 2,-1 2,-2l0 -29 16 0 0 29c0,1 1,2 2,2l8 0c1,0 2,-1 2,-2l0 -35zm23 12c1,-4 4,-6 7,-6l6 0 0 29c0,1 1,2 3,2l8 0c1,0 2,-1 2,-2l0 -35c0,-1 -1,-2 -2,-2l-17 0c-8,0 -16,2 -18,11l-7 25c0,2 1,3 2,3l8 0c1,0 2,-1 3,-3l5 -22zm54 17c-6,0 -9,-3 -9,-12 0,-8 3,-12 9,-12 6,0 9,4 9,12 0,9 -3,12 -9,12zm0 -32c-14,0 -22,7 -22,20 0,14 8,21 22,21 14,0 22,-7 22,-21 0,-13 -8,-20 -22,-20zm27 35c0,3 1,5 4,5l5 0c3,0 5,-2 5,-5l0 -2c0,-3 -2,-5 -5,-5l-5 0c-3,0 -4,2 -4,5l0 2zm85 2c0,1 2,3 4,3l6 0c2,0 4,-2 4,-4l0 -44c0,-2 -2,-3 -4,-3l-6 0c-2,0 -4,1 -4,3l0 16 -24 0 0 -16c0,-2 -2,-3 -4,-3l-6 0c-2,0 -4,1 -4,3l0 44c0,2 2,4 4,4l6 0c2,0 4,-2 4,-3l0 -19 24 0 0 19zm39 -5c-4,0 -6,-1 -6,-4 0,-2 2,-4 6,-4l11 0 0 5c-3,2 -6,3 -11,3zm3 -24c5,0 8,2 8,8l-12 0c-10,0 -17,4 -17,12 0,8 7,13 17,13 6,0 10,-2 13,-4l0 1c0,1 1,2 2,2l7 0c1,0 2,-1 2,-2l0 -22c0,-12 -8,-16 -19,-16 -11,0 -19,3 -19,10 0,1 1,2 2,2l5 0c2,0 4,0 5,-2 1,-1 3,-2 6,-2zm69 32c2,0 2,-1 2,-2l0 -35c0,-1 0,-2 -2,-2l-16 0c-8,0 -16,2 -18,11l-5 19 -3 0c-1,0 -2,1 -2,2l0 5c0,1 1,2 2,2l42 0zm-27 -9l4 -16c1,-4 3,-6 7,-6l6 0 0 22 -17 0zm76 -7c1,0 2,-1 2,-2l0 -2c0,-13 -8,-20 -21,-20 -13,0 -21,7 -21,20 0,14 8,21 21,21 12,0 19,-3 19,-11 0,-1 -1,-2 -2,-2l-5 0c-2,0 -3,1 -4,2 -1,2 -4,2 -7,2 -6,0 -9,-2 -9,-8l27 0zm-19 -16c5,0 8,3 8,8l-16 0c0,-5 3,-8 8,-8zm58 32c1,0 2,-1 2,-2l0 -14c3,0 6,2 7,5l4 7c1,3 3,4 6,4l6 0c2,0 3,-2 1,-4l-5 -9c-2,-4 -4,-6 -7,-7 3,-1 6,-3 7,-6l4 -10c1,-2 1,-3 -1,-3l-7 0c-2,0 -4,1 -5,3l-3 7c-1,3 -4,5 -7,5l0 -13c0,-1 -1,-2 -2,-2l-8 0c-1,0 -2,1 -2,2l0 13c-3,0 -6,-2 -7,-5l-3 -7c-1,-2 -3,-3 -5,-3l-7 0c-2,0 -2,1 -1,3l4 10c1,3 4,5 8,6 -4,1 -6,3 -8,7l-5 9c-2,2 -1,4 1,4l7 0c2,0 4,-1 5,-4l4 -7c1,-3 4,-5 7,-5l0 14c0,1 1,2 2,2l8 0zm45 -37c0,-1 -1,-2 -3,-2l-8 0c-1,0 -2,1 -2,2l0 35c0,1 1,2 2,2l8 0c2,0 3,-1 3,-2l0 -14 15 0 0 14c0,1 1,2 2,2l8 0c2,0 3,-1 3,-2l0 -35c0,-1 -1,-2 -3,-2l-8 0c-1,0 -2,1 -2,2l0 13 -15 0 0 -13zm56 29c-6,0 -9,-3 -9,-12 0,-8 3,-12 9,-12 6,0 9,4 9,12 0,9 -3,12 -9,12zm0 -32c-14,0 -22,7 -22,20 0,14 8,21 22,21 14,0 21,-7 21,-21 0,-13 -7,-20 -21,-20zm26 35c0,3 2,5 5,5l5 0c3,0 4,-2 4,-5l0 -2c0,-3 -1,-5 -4,-5l-5 0c-3,0 -5,2 -5,5l0 2zm49 -5l-3 0c-1,0 -3,1 -3,3l0 3c0,2 2,4 3,4l52 0c2,0 4,-2 4,-3l0 -45c0,-2 -2,-3 -4,-3l-19 0c-10,0 -20,2 -23,14l-7 27zm20 -24c1,-5 4,-7 8,-7l11 0 0 31 -25 0 6 -24zm61 26c-6,0 -9,-3 -9,-12 0,-8 3,-12 9,-12 7,0 10,4 10,12 0,9 -3,12 -10,12zm0 -32c-13,0 -21,7 -21,20 0,14 8,21 21,21 14,0 22,-7 22,-21 0,-13 -8,-20 -22,-20zm49 9c3,0 6,1 7,3 1,2 2,3 4,3l6 0c1,0 2,-1 2,-3 0,-8 -8,-12 -20,-12 -14,0 -22,7 -22,20 0,14 8,21 22,21 13,0 20,-5 20,-13 0,-1 -1,-2 -2,-2l-5 0c-2,0 -3,1 -4,3 -2,2 -4,3 -8,3 -7,0 -10,-4 -10,-12 0,-8 3,-11 10,-11zm24 -8c-2,0 -3,1 -3,2l0 4c0,1 1,2 3,2l11 0 0 29c0,1 1,2 2,2l8 0c1,0 2,-1 2,-2l0 -29 12 0c1,0 2,-1 2,-2l0 -4c0,-1 -1,-2 -2,-2l-35 0zm54 43c-1,0 -3,0 -4,0l-2 0c-1,0 -2,0 -2,2l0 4c0,1 1,2 2,2 3,0 7,1 10,1 8,0 12,-5 16,-17l9 -33c0,-1 0,-2 -2,-2l-7 0c-1,0 -3,1 -3,2l-7 25c-3,0 -6,-2 -8,-10l-5 -15c0,-1 -2,-2 -3,-2l-7 0c-2,0 -2,1 -2,2l5 17c4,13 10,17 17,17 -1,5 -3,7 -7,7zm75 -41c0,-1 -1,-2 -3,-2l-36 0c-1,0 -2,1 -2,2l0 35c0,1 1,2 2,2l8 0c2,0 3,-1 3,-2l0 -29 15 0 0 29c0,1 1,2 2,2l8 0c2,0 3,-1 3,-2l0 -35zm21 0c0,-1 -1,-2 -2,-2l-8 0c-2,0 -3,1 -3,2l0 35c0,1 1,2 3,2l8 0c1,0 2,-1 2,-2l0 -14 15 0 0 14c0,1 1,2 3,2l8 0c1,0 2,-1 2,-2l0 -35c0,-1 -1,-2 -2,-2l-8 0c-2,0 -3,1 -3,2l0 13 -15 0 0 -13zm56 29c-6,0 -9,-3 -9,-12 0,-8 3,-12 9,-12 6,0 9,4 9,12 0,9 -3,12 -9,12zm0 -32c-14,0 -22,7 -22,20 0,14 8,21 22,21 14,0 21,-7 21,-21 0,-13 -7,-20 -21,-20zm27 35c0,3 1,5 4,5l5 0c3,0 5,-2 5,-5l0 -2c0,-3 -2,-5 -5,-5l-5 0c-3,0 -4,2 -4,5l0 2z"/>
  </g>
 </g>
</svg>
