<?xml version="1.0" encoding="UTF-8"?>
<svg width="1120px" height="480px" viewBox="0 0 1120 480" version="1.1" xmlns="http://www.w3.org/2000/svg" xmlns:xlink="http://www.w3.org/1999/xlink">
    <!-- Generator: Sketch 47.1 (45422) - http://www.bohemiancoding.com/sketch -->
    <title>Artboard</title>
    <desc>Created with Sketch.</desc>
    <defs></defs>
    <g id="Page-1" stroke="none" stroke-width="1" fill="none" fill-rule="evenodd">
        <g id="Artboard">
            <g id="logo" transform="translate(9.000000, 8.000000)">
                <path d="M29,0 L318,0 C334,0 347,13 347,29 L347,312 C347,328 334,341 318,341 L29,341 C13,341 0,328 0,312 L0,29 C0,13 13,0 29,0 Z M159,193 C163,181 79,189 37,191 C18,313 44,341 164,310 L159,193 Z M181,49 C217,28 296,19 301,44 C307,71 311,132 305,167 C266,169 222,178 189,165 C184,124 179,93 181,49 Z M157,45 C120,25 40,19 37,44 C31,72 30,133 37,168 C76,168 121,175 153,161 C156,120 161,89 157,45 Z M182,198 C177,187 261,188 303,187 C333,307 309,336 187,315 L182,198 Z" id="Shape" fill="#E31E24"></path>
                <path d="M100,320 L108,320 L108,306 C123,305 132,296 142,281 C122,282 113,279 108,294 L108,279 C127,277 140,265 140,256 C130,258 116,255 108,269 C114,253 113,232 104,223 C95,234 91,251 99,270 C93,260 88,252 67,257 C70,269 86,277 100,280 L101,295 C100,286 84,274 67,280 C77,295 91,306 100,305 L100,313 L100,320 Z" id="Shape" fill="#739D37"></path>
                <path d="M728,1 L769,150 L706,150 L701,128 L664,128 L659,150 L627,150 L679,1 L728,1 Z M683,48 L671,98 L695,98 L683,48 Z" id="Shape" fill="#E31E24" fill-rule="nonzero"></path>
                <path d="M541,1 L541,18 L590,18 C597,29 603,40 608,52 C614,65 618,77 620,90 C620,90 619,91 619,92 C618,93 618,94 617,94 C614,99 613,101 613,101 C605,113 594,124 581,136 L541,136 L541,150 L485,150 L485,136 L442,136 C426,115 414,90 406,60 C416,44 428,30 442,18 L485,18 L485,1 L541,1 Z M485,119 L485,31 C480,33 475,37 472,42 C468,48 466,52 464,56 C467,73 470,86 474,97 C478,108 482,115 485,119 Z M541,119 C550,112 557,103 561,90 C560,80 558,69 554,58 C550,47 546,38 541,31 L541,119 Z" id="Shape" fill="#E31E24" fill-rule="nonzero"></path>
                <path d="M1040,193 L1080,342 L1018,342 L1013,320 L976,320 L970,342 L939,342 L991,193 L1040,193 Z M995,240 L983,290 L1007,290 L995,240 Z" id="Shape" fill="#E31E24" fill-rule="nonzero"></path>
                <path d="M605,267 C605,316 581,342 532,342 C482,342 459,314 459,266 C459,217 485,193 533,193 C582,193 605,220 605,267 Z M548,267 C548,255 548,240 545,228 C545,225 543,217 540,215 C537,214 534,214 532,214 C529,214 526,214 524,215 C521,217 519,225 518,228 C516,240 515,255 515,267 C515,280 516,294 518,306 C519,309 521,318 524,319 C526,320 529,321 532,321 C534,321 537,320 540,319 C543,318 545,309 545,306 C548,294 548,280 548,267 Z" id="Shape" fill="#E31E24"></path>
                <polygon id="Shape" fill="#E31E24" fill-rule="nonzero" points="926 1 926 150 868 150 868 76 844 76 844 150 785 150 785 1 844 1 844 51 868 51 868 1"></polygon>
                <polygon id="Shape" fill="#E31E24" fill-rule="nonzero" points="1086 1 1101 76 1081 76 1051 17 1051 17 1051 150 990 150 990 17 990 17 960 76 942 76 956 1"></polygon>
                <polygon id="Shape" fill="#E31E24" points="777 342 715 342 681 286 681 286 681 342 626 342 626 198 681 198 681 249 726 198 761 198 718 246"></polygon>
                <polygon id="Shape" fill="#E31E24" fill-rule="nonzero" points="926 193 926 342 868 342 868 268 844 268 844 342 785 342 785 193 844 193 844 243 868 243 868 193"></polygon>
                <path d="M7,401 C5,401 4,402 4,404 L4,407 C4,409 5,411 7,411 L23,411 L23,448 C23,450 25,452 27,452 L33,452 C35,452 37,450 37,448 L37,411 L53,411 C55,411 56,409 56,407 L56,404 C56,402 55,401 53,401 L7,401 Z M91,436 C92,436 93,435 93,434 L93,432 C93,419 85,412 72,412 C59,412 52,419 52,432 C52,446 59,453 72,453 C84,453 92,450 92,442 C92,441 91,440 90,440 L84,440 C83,440 81,441 80,442 C79,444 76,444 73,444 C67,444 65,442 64,436 L91,436 Z M72,420 C78,420 80,423 81,428 L64,428 C64,423 67,420 72,420 Z M140,415 C140,414 139,413 138,413 L102,413 C101,413 100,414 100,415 L100,450 C100,451 101,452 102,452 L110,452 C111,452 112,451 112,450 L112,421 L128,421 L128,450 C128,451 129,452 130,452 L138,452 C139,452 140,451 140,450 L140,415 Z M163,427 C164,423 167,421 170,421 L176,421 L176,450 C176,451 177,452 179,452 L187,452 C188,452 189,451 189,450 L189,415 C189,414 188,413 187,413 L170,413 C162,413 154,415 152,424 L145,449 C145,451 146,452 147,452 L155,452 C156,452 157,451 158,449 L163,427 Z M217,444 C211,444 208,441 208,432 C208,424 211,420 217,420 C223,420 226,424 226,432 C226,441 223,444 217,444 Z M217,412 C203,412 195,419 195,432 C195,446 203,453 217,453 C231,453 239,446 239,432 C239,419 231,412 217,412 Z M244,447 C244,450 245,452 248,452 L253,452 C256,452 258,450 258,447 L258,445 C258,442 256,440 253,440 L248,440 C245,440 244,442 244,445 L244,447 Z M329,449 C329,450 331,452 333,452 L339,452 C341,452 343,450 343,448 L343,404 C343,402 341,401 339,401 L333,401 C331,401 329,402 329,404 L329,420 L305,420 L305,404 C305,402 303,401 301,401 L295,401 C293,401 291,402 291,404 L291,448 C291,450 293,452 295,452 L301,452 C303,452 305,450 305,449 L305,430 L329,430 L329,449 Z M368,444 C364,444 362,443 362,440 C362,438 364,436 368,436 L379,436 L379,441 C376,443 373,444 368,444 Z M371,420 C376,420 379,422 379,428 L367,428 C357,428 350,432 350,440 C350,448 357,453 367,453 C373,453 377,451 380,449 L380,450 C380,451 381,452 382,452 L389,452 C390,452 391,451 391,450 L391,428 C391,416 383,412 372,412 C361,412 353,415 353,422 C353,423 354,424 355,424 L360,424 C362,424 364,424 365,422 C366,421 368,420 371,420 Z M440,452 C442,452 442,451 442,450 L442,415 C442,414 442,413 440,413 L424,413 C416,413 408,415 406,424 L401,443 L398,443 C397,443 396,444 396,445 L396,450 C396,451 397,452 398,452 L440,452 Z M413,443 L417,427 C418,423 420,421 424,421 L430,421 L430,443 L413,443 Z M489,436 C490,436 491,435 491,434 L491,432 C491,419 483,412 470,412 C457,412 449,419 449,432 C449,446 457,453 470,453 C482,453 489,450 489,442 C489,441 488,440 487,440 L482,440 C480,440 479,441 478,442 C477,444 474,444 471,444 C465,444 462,442 462,436 L489,436 Z M470,420 C475,420 478,423 478,428 L462,428 C462,423 465,420 470,420 Z M528,452 C529,452 530,451 530,450 L530,436 C533,436 536,438 537,441 L541,448 C542,451 544,452 547,452 L553,452 C555,452 556,450 554,448 L549,439 C547,435 545,433 542,432 C545,431 548,429 549,426 L553,416 C554,414 554,413 552,413 L545,413 C543,413 541,414 540,416 L537,423 C536,426 533,428 530,428 L530,415 C530,414 529,413 528,413 L520,413 C519,413 518,414 518,415 L518,428 C515,428 512,426 511,423 L508,416 C507,414 505,413 503,413 L496,413 C494,413 494,414 495,416 L499,426 C500,429 503,431 507,432 C503,433 501,435 499,439 L494,448 C492,450 493,452 495,452 L502,452 C504,452 506,451 507,448 L511,441 C512,438 515,436 518,436 L518,450 C518,451 519,452 520,452 L528,452 Z M573,415 C573,414 572,413 570,413 L562,413 C561,413 560,414 560,415 L560,450 C560,451 561,452 562,452 L570,452 C572,452 573,451 573,450 L573,436 L588,436 L588,450 C588,451 589,452 590,452 L598,452 C600,452 601,451 601,450 L601,415 C601,414 600,413 598,413 L590,413 C589,413 588,414 588,415 L588,428 L573,428 L573,415 Z M629,444 C623,444 620,441 620,432 C620,424 623,420 629,420 C635,420 638,424 638,432 C638,441 635,444 629,444 Z M629,412 C615,412 607,419 607,432 C607,446 615,453 629,453 C643,453 650,446 650,432 C650,419 643,412 629,412 Z M655,447 C655,450 657,452 660,452 L665,452 C668,452 669,450 669,447 L669,445 C669,442 668,440 665,440 L660,440 C657,440 655,442 655,445 L655,447 Z M704,442 L701,442 C700,442 698,443 698,445 L698,448 C698,450 700,452 701,452 L753,452 C755,452 757,450 757,449 L757,404 C757,402 755,401 753,401 L734,401 C724,401 714,403 711,415 L704,442 Z M724,418 C725,413 728,411 732,411 L743,411 L743,442 L718,442 L724,418 Z M785,444 C779,444 776,441 776,432 C776,424 779,420 785,420 C792,420 795,424 795,432 C795,441 792,444 785,444 Z M785,412 C772,412 764,419 764,432 C764,446 772,453 785,453 C799,453 807,446 807,432 C807,419 799,412 785,412 Z M834,421 C837,421 840,422 841,424 C842,426 843,427 845,427 L851,427 C852,427 853,426 853,424 C853,416 845,412 833,412 C819,412 811,419 811,432 C811,446 819,453 833,453 C846,453 853,448 853,440 C853,439 852,438 851,438 L846,438 C844,438 843,439 842,441 C840,443 838,444 834,444 C827,444 824,440 824,432 C824,424 827,421 834,421 Z M858,413 C856,413 855,414 855,415 L855,419 C855,420 856,421 858,421 L869,421 L869,450 C869,451 870,452 871,452 L879,452 C880,452 881,451 881,450 L881,421 L893,421 C894,421 895,420 895,419 L895,415 C895,414 894,413 893,413 L858,413 Z M912,456 C911,456 909,456 908,456 L906,456 C905,456 904,456 904,458 L904,462 C904,463 905,464 906,464 C909,464 913,465 916,465 C924,465 928,460 932,448 L941,415 C941,414 941,413 939,413 L932,413 C931,413 929,414 929,415 L922,440 C919,440 916,438 914,430 L909,415 C909,414 907,413 906,413 L899,413 C897,413 897,414 897,415 L902,432 C906,445 912,449 919,449 C918,454 916,456 912,456 Z M987,415 C987,414 986,413 984,413 L948,413 C947,413 946,414 946,415 L946,450 C946,451 947,452 948,452 L956,452 C958,452 959,451 959,450 L959,421 L974,421 L974,450 C974,451 975,452 976,452 L984,452 C986,452 987,451 987,450 L987,415 Z M1008,415 C1008,414 1007,413 1006,413 L998,413 C996,413 995,414 995,415 L995,450 C995,451 996,452 998,452 L1006,452 C1007,452 1008,451 1008,450 L1008,436 L1023,436 L1023,450 C1023,451 1024,452 1026,452 L1034,452 C1035,452 1036,451 1036,450 L1036,415 C1036,414 1035,413 1034,413 L1026,413 C1024,413 1023,414 1023,415 L1023,428 L1008,428 L1008,415 Z M1064,444 C1058,444 1055,441 1055,432 C1055,424 1058,420 1064,420 C1070,420 1073,424 1073,432 C1073,441 1070,444 1064,444 Z M1064,412 C1050,412 1042,419 1042,432 C1042,446 1050,453 1064,453 C1078,453 1085,446 1085,432 C1085,419 1078,412 1064,412 Z M1091,447 C1091,450 1092,452 1095,452 L1100,452 C1103,452 1105,450 1105,447 L1105,445 C1105,442 1103,440 1100,440 L1095,440 C1092,440 1091,442 1091,445 L1091,447 Z" id="Shape" fill="#333333" fill-rule="nonzero"></path>
            </g>
        </g>
    </g>
</svg>